<svg xmlns="http://www.w3.org/2000/svg" width="379" height="373" xmlns:v="https://vecta.io/nano"><style><![CDATA[.B{fill:#000}.C{font-family:Virgil, Segoe UI Emoji}.D{direction:ltr}.E{font-family:Helvetica, Segoe UI Emoji}.F{text-anchor:end}.G{direction:rtl}]]></style><defs><style>@font-face{font-family:"Virgil";src:url("../Virgil.woff2")}</style></defs><path fill="#fff" d="M0 0h379v373H0z"/><path d="M9.96 10.52l359.5-.77M10.01 9.72l359.42.82m-.64.57c-2.55 76.94-2.61 156.18-1 350.7m1.26-351.32l.08 352.91m.42-1.51l-358.32 2.09m357.36-1.23c-109.53 1.9-220.14 1.77-358.58-.2m-.72 1.56L9.24 9.24m.92 353.37L9.48 10.25m172.281 257.232l3.478-166.964m-3.478 166.964l3.478-166.964" stroke="#000" fill="none" stroke-linecap="round"/><text y="59" font-size="20" style="white-space:pre" x="49" class="B C D">अ</text><text y="60" font-size="20" style="white-space:pre" x="329" class="B C D">A</text><text y="320" font-size="23.077" style="white-space:pre" x="318" class="B E F G">با</text><text y="320.75" font-size="25" style="white-space:pre" x="185" class="B E F G">باب</text><text y="322" font-size="29.231" style="white-space:pre" x="54" class="B E F G">اب</text><text x="196.964" y="61.919" font-size="20" text-anchor="middle" style="white-space:pre" class="B C D">Alif(ا)</text></svg>