<svg xmlns="http://www.w3.org/2000/svg" width="379" height="373" xmlns:v="https://vecta.io/nano"><style><![CDATA[.B{fill:#000}.C{font-family:Virgil, Segoe UI Emoji}.D{direction:ltr}.E{text-anchor:end}.F{font-size:20px}.G{font-family:Helvetica, Segoe UI Emoji}.H{direction:rtl}.I{stroke-linecap:round}]]></style><defs><style>@font-face{font-family:"Virgil";src:url("../Virgil.woff2")}</style></defs><path fill="#fff" d="M0 0h379v373H0z"/><path d="M10.15 10.97l358.66-1.03m-358.24.01c124.26 2.11 247.81 2.06 357.96.38m.46-1.43l-.3 355m.19-353.93l.09 353.38m.08-.79c-110.82 2-220.65 2.38-357.99.32m358.13.56c-79.44-1.65-156.86-1.5-359.8.11m-.01-.78c3.14-74.98 1.83-149.51-.23-353.37m1.01 353.69L9.85 10.58m171.911 263.902l3.478-166.964m-3.478 166.964l3.478-166.964" stroke="#000" fill="none" class="I"/><text y="59" style="white-space:pre" x="49" class="B C D F">आ</text><text y="60" style="white-space:pre" x="329" class="B C D F">Ā</text><text y="320" font-size="23.077" style="white-space:pre" x="318" class="B E G H">آب</text><text y="320.75" font-size="25" style="white-space:pre" x="185" class="B E G H">بآب</text><text y="320" style="white-space:pre" x="50" class="B E F G H">لآ/بآ</text><text x="196.964" y="61.919" text-anchor="middle" style="white-space:pre" class="B C D F">Alif mad aa(آ)</text><text x="344.068" y="341.297" font-size="16" style="white-space:pre" class="B C D E">aab</text><text x="222.068" y="341.297" font-size="16" style="white-space:pre" class="B C D E">baab</text><text x="110.068" y="341.297" font-size="16" style="white-space:pre" class="B C D E">baa/laa</text><path d="M166.5 92.335c2.04-2.22 7.78-13.52 12.22-13.33 4.45.18 9.45 14.26 14.45 14.44 5 .19 12.96-11.11 15.55-13.33m-42.22 12.22c2.04-2.22 7.78-13.52 12.22-13.33 4.45.18 9.45 14.26 14.45 14.44 5 .19 12.96-11.11 15.55-13.33" stroke="#000" fill="none" class="I"/></svg>