<svg xmlns="http://www.w3.org/2000/svg" width="376.667" height="367.778" xmlns:v="https://vecta.io/nano"><style><![CDATA[.B{font-family:Virgil, Segoe UI Emoji}.C{font-size:20px}.D{fill:#000}.E{text-anchor:middle}.F{direction:ltr}.G{direction:rtl}]]></style><defs><style>@font-face{font-family:"Virgil";src:url("../Virgil.woff2")}</style></defs><path fill="#fff" d="M0 0h376.667v367.778H0z"/><g fill="none" stroke-linecap="round"><path d="M9.74 16.4l5.25-6.04M9.74 16.4l5.25-6.04m-4.86 11.68l10.5-12.07m-10.5 12.07l10.5-12.07M9.87 28.44l15.75-18.11M9.87 28.44l15.75-18.11M10.27 34.08L31.26 9.93M10.27 34.08L31.26 9.93M10 40.48l26.25-30.19M10 40.48l26.25-30.19M9.74 46.88L41.89 9.9M9.74 46.88L41.89 9.9M10.14 52.52l36.74-42.26M10.14 52.52l36.74-42.26m-37 48.66L52.52 9.86M9.88 58.92L52.52 9.86m-42.25 54.7l47.24-54.34M10.27 64.56l47.24-54.34m-47.5 60.74L63.15 9.83M10.01 70.96L63.15 9.83M9.75 77.36l58.39-67.17M9.75 77.36l58.39-67.17M10.14 83L73.78 9.79M10.14 83L73.78 9.79M9.88 89.4l68.89-79.25M9.88 89.4l68.89-79.25M10.28 95.04L84.41 9.76M10.28 95.04L84.41 9.76m-74.4 91.68L89.4 10.12m-79.39 91.32L89.4 10.12M9.75 107.84L95.04 9.72M9.75 107.84L95.04 9.72M10.15 113.48l89.88-103.4m-89.88 103.4l89.88-103.4M9.89 119.88L105.67 9.69M9.89 119.88L105.67 9.69M10.28 125.52L110.66 10.05M10.28 125.52L110.66 10.05M10.02 131.92L116.3 9.66M10.02 131.92L116.3 9.66M9.76 138.32l111.53-128.3M9.76 138.32l111.53-128.3M10.15 143.96L126.27 10.38M10.15 143.96L126.27 10.38M9.89 150.36L131.92 9.98M9.89 150.36L131.92 9.98M10.29 156L136.91 10.34M10.29 156L136.91 10.34M10.02 162.4L142.55 9.95M10.02 162.4L142.55 9.95M9.76 168.8L147.54 10.31M9.76 168.8L147.54 10.31M10.16 174.44L153.18 9.91M10.16 174.44L153.18 9.91M9.9 180.84L158.17 10.27M9.9 180.84L158.17 10.27M10.29 186.48L163.81 9.88M10.29 186.48L163.81 9.88m-153.78 183L168.8 10.24M10.03 192.88L168.8 10.24M9.77 199.27L174.44 9.84M9.77 199.27L174.44 9.84M10.16 204.92L179.43 10.2M10.16 204.92L179.43 10.2M9.9 211.32L185.07 9.81M9.9 211.32L185.07 9.81M10.3 216.96L190.06 10.17M10.3 216.96L190.06 10.17M10.03 223.36L195.7 9.77M10.03 223.36L195.7 9.77M9.77 229.75L200.69 10.13M9.77 229.75L200.69 10.13M10.17 235.4L206.33 9.74M10.17 235.4L206.33 9.74M9.91 241.8L211.32 10.1M9.91 241.8L211.32 10.1M10.3 247.44L216.96 9.7M10.3 247.44L216.96 9.7M10.04 253.84L221.95 10.06M10.04 253.84L221.95 10.06M9.78 260.23L227.59 9.67M9.78 260.23L227.59 9.67M10.17 265.88L232.58 10.03M10.17 265.88L232.58 10.03M9.91 272.27L238.22 9.64M9.91 272.27L238.22 9.64M10.3 277.92L243.21 10M10.3 277.92L243.21 10M10.04 284.32L248.19 10.36M10.04 284.32L248.19 10.36M9.78 290.71L253.84 9.96M9.78 290.71L253.84 9.96M10.18 296.36L258.82 10.32M10.18 296.36L258.82 10.32M9.92 302.75L264.47 9.93M9.92 302.75L264.47 9.93M10.31 308.4L269.45 10.29M10.31 308.4L269.45 10.29M10.05 314.8L275.1 9.89M10.05 314.8L275.1 9.89M9.79 321.19L280.08 10.25M9.79 321.19L280.08 10.25M10.18 326.84L285.73 9.86M10.18 326.84L285.73 9.86M9.92 333.23L290.71 10.22M9.92 333.23L290.71 10.22M10.31 338.88L296.36 9.82M10.31 338.88L296.36 9.82M10.05 345.27L301.34 10.18M10.05 345.27L301.34 10.18M9.79 351.67L306.99 9.79M9.79 351.67L306.99 9.79M10.19 357.32L311.97 10.15M10.19 357.32L311.97 10.15M13.21 359.94L317.62 9.75M13.21 359.94L317.62 9.75M18.19 360.3L322.6 10.11M18.19 360.3L322.6 10.11M23.18 360.66L328.25 9.72M23.18 360.66L328.25 9.72M28.82 360.27L333.23 10.08M28.82 360.27L333.23 10.08M33.81 360.63L338.88 9.69M33.81 360.63L338.88 9.69M39.45 360.23L343.86 10.05M39.45 360.23L343.86 10.05M44.44 360.59L349.51 9.65M44.44 360.59L349.51 9.65M50.08 360.2L354.49 10.01M50.08 360.2L354.49 10.01M55.07 360.56L359.48 10.37M55.07 360.56L359.48 10.37M60.71 360.16L365.12 9.98M60.71 360.16L365.12 9.98M65.7 360.52L368.8 11.85M65.7 360.52L368.8 11.85M71.34 360.13l297.2-341.89M71.34 360.13l297.2-341.89M76.33 360.49l292.6-336.6m-292.6 336.6l292.6-336.6M81.97 360.09l286.7-329.81M81.97 360.09l286.7-329.81M86.96 360.45L369.07 35.93M86.96 360.45L369.07 35.93M92.6 360.06L368.8 42.33M92.6 360.06L368.8 42.33M97.59 360.42l270.95-311.7M97.59 360.42l270.95-311.7m-265.31 311.3L368.94 54.37M103.23 360.02L368.94 54.37M108.22 360.38L368.68 60.76M108.22 360.38L368.68 60.76M113.86 359.99L369.07 66.41M113.86 359.99L369.07 66.41M118.85 360.35L368.81 72.81M118.85 360.35L368.81 72.81M124.49 359.95L368.55 79.2M124.49 359.95L368.55 79.2M129.48 360.31L368.94 84.85M129.48 360.31L368.94 84.85M135.12 359.92L368.68 91.24M135.12 359.92L368.68 91.24M140.11 360.28L369.07 96.89M140.11 360.28L369.07 96.89M145.1 360.64l223.71-257.36M145.1 360.64l223.71-257.36M150.74 360.25l217.81-250.57M150.74 360.25l217.81-250.57M155.73 360.61l213.22-245.28M155.73 360.61l213.22-245.28M161.37 360.21l207.32-238.49M161.37 360.21l207.32-238.49M166.36 360.57l202.72-233.2m-202.72 233.2l202.72-233.2M172 360.18l196.82-226.42M172 360.18l196.82-226.42M176.99 360.54l191.57-220.38M176.99 360.54l191.57-220.38M182.63 360.14L368.95 145.8M182.63 360.14L368.95 145.8M187.62 360.5l181.07-208.3M187.62 360.5l181.07-208.3M193.26 360.11l175.82-202.26M193.26 360.11l175.82-202.26M198.25 360.47l170.57-196.23M198.25 360.47l170.57-196.23M203.89 360.07l164.67-189.43M203.89 360.07l164.67-189.43M208.88 360.43l160.08-184.15M208.88 360.43l160.08-184.15M214.52 360.04l154.17-177.36M214.52 360.04l154.17-177.36M219.51 360.4l149.58-172.07M219.51 360.4l149.58-172.07M225.15 360l143.68-165.28M225.15 360l143.68-165.28M230.14 360.36l138.43-159.24M230.14 360.36l138.43-159.24M235.78 359.97l133.18-153.21M235.78 359.97l133.18-153.21M240.77 360.33L368.7 213.16M240.77 360.33L368.7 213.16M246.41 359.94L369.09 218.8M246.41 359.94L369.09 218.8M251.4 360.3l117.43-135.1M251.4 360.3l117.43-135.1M256.39 360.66L368.57 231.6M256.39 360.66L368.57 231.6M262.03 360.26l106.94-123.02M262.03 360.26l106.94-123.02M267.02 360.62L368.7 243.64M267.02 360.62L368.7 243.64m-96.04 116.59l96.44-110.95m-96.44 110.95l96.44-110.95m-91.45 111.31l91.19-104.91m-91.19 104.91l91.19-104.91m-85.55 104.51l85.29-98.11m-85.29 98.11l85.29-98.11m-80.3 98.47l80.69-92.83m-80.69 92.83l80.69-92.83m-75.05 92.44l74.79-86.04m-74.79 86.04l74.79-86.04m-69.8 86.4l70.19-80.76m-70.19 80.76l70.19-80.76m-64.55 80.36l64.29-73.96m-64.29 73.96l64.29-73.96m-59.3 74.32l59.04-67.92m-59.04 67.92l59.04-67.92m-53.4 67.53l53.8-61.89m-53.8 61.89l53.8-61.89m-48.81 62.25l48.54-55.85m-48.54 55.85l48.54-55.85m-42.9 55.45l43.3-49.81m-43.3 49.81l43.3-49.81m-38.31 50.17l38.05-43.77m-38.05 43.77l38.05-43.77m-32.41 43.38l32.15-36.98m-32.15 36.98l32.15-36.98m-27.16 37.34l27.55-31.7m-27.55 31.7l27.55-31.7m-21.91 31.31l21.65-24.91m-21.65 24.91l21.65-24.91m-16.66 25.27l17.05-19.63m-17.05 19.63l17.05-19.63m-11.41 19.23l11.15-12.83m-11.15 12.83l11.15-12.83m-6.16 13.19l5.9-6.79m-5.9 6.79l5.9-6.79" stroke="#fff" stroke-width=".5"/><path d="M10 10h356.67M10 10h356.67m0 0v347.78m0-347.78v347.78m0 0H10m356.67 0H10m0 0V10m0 347.78V10" stroke="#000"/></g><text x="175.878" y="58.154" style="white-space:pre" class="B C D E F">All J sounds</text><text x="124.434" y="113.71" style="white-space:pre" class="B C D E G">جا​​/ج​​</text><text x="191.1" y="114.932" style="white-space:pre" class="B C D E F">Jeem</text><text x="121.1" y="162.599" style="white-space:pre" class="B C D E G">ظ</text><text x="192.767" y="163.043" style="white-space:pre" class="B C D E F">Zoye</text><text x="122.211" y="201.821" style="white-space:pre" class="B C D E G">ض</text><text x="198.878" y="203.21" style="white-space:pre" class="B C D E F">Zwaad</text><text x="123.989" y="322.154" style="white-space:pre" class="B C D E G">ذ</text><text x="186.211" y="321.043" style="white-space:pre" class="B C D E F">Zaal</text><text x="124.434" y="279.265" style="white-space:pre" class="B C D E G">ژ</text><text x="188.322" y="279.821" style="white-space:pre" class="B C D E F">Zhay</text><text x="125.545" y="242.265" style="white-space:pre" class="B C D E G">ز</text><text x="184.322" y="244.043" style="white-space:pre" class="B C D E F">Zay</text></svg>