<svg xmlns="http://www.w3.org/2000/svg" width="379" height="373" xmlns:v="https://vecta.io/nano"><style><![CDATA[.B{font-family:Virgil, Segoe UI Emoji}.C{fill:#000}.D{text-anchor:middle}.E{direction:ltr}.F{direction:rtl}.G{text-anchor:end}.H{stroke-linecap:round}]]></style><defs><style>@font-face{font-family:"Virgil";src:url("../Virgil.woff2")}</style></defs><path fill="#fff" d="M0 0h379v373H0z"/><path d="M10 10h359M10 10h359m0 0v353m0-353v353m0 0H10m359 0H10m0 0V10m0 353V10" stroke="#000" fill="none" class="H"/><text x="55" y="59" font-size="20" style="white-space:pre" class="B C D E">ड़</text><text x="336" y="60" font-size="20" style="white-space:pre" class="B C D E">AṚ</text><text x="325" y="322" font-size="28" style="white-space:pre" class="B C D F">ڑا</text><text x="205" y="321.75" font-size="28" style="white-space:pre" class="B C D F">بڑب</text><text x="70.5" y="321.498" font-size="28" style="white-space:pre" class="B C D F">بڑ</text><text x="187" y="61.727" font-size="20" style="white-space:pre" class="B C D F">ر+ط= ڑ</text><text x="334.948" y="340.791" font-size="16" style="white-space:pre" class="B C E G">ra</text><text x="220.948" y="340.791" font-size="16" style="white-space:pre" class="B C E G">brb</text><text x="77.948" y="340.791" font-size="16" style="white-space:pre" class="B C E G">br</text><path d="M183.374 84.35l.43 13.05c.07 5.42-1.53 17.58 0 19.44 1.53 1.85 4.95-6.49 9.18-8.33 4.24-1.84 13.32-3.72 16.24-2.71s4.31 6.77 1.29 8.78c-3.01 2.01-12.99 2.77-19.39 3.26-6.39.5-15.79-.24-18.95-.28m11.2-33.21l.43 13.05c.07 5.42-1.53 17.58 0 19.44 1.53 1.85 4.95-6.49 9.18-8.33 4.24-1.84 13.32-3.72 16.24-2.71s4.31 6.77 1.29 8.78c-3.01 2.01-12.99 2.77-19.39 3.26-6.39.5-15.79-.24-18.95-.28m28.749 10.037c.09 6.79 3.09 27.18.52 40.72-2.58 13.54-6.85 30.29-15.97 40.51-9.12 10.21-25.43 15.72-38.75 20.78s-34.3 7.98-41.16 9.58m95.36-111.59c.09 6.79 3.09 27.18.52 40.72-2.58 13.54-6.85 30.29-15.97 40.51-9.12 10.21-25.43 15.72-38.75 20.78s-34.3 7.98-41.16 9.58" stroke="#000" fill="none" class="H"/></svg>