<svg xmlns="http://www.w3.org/2000/svg" width="379" height="373" xmlns:v="https://vecta.io/nano"><style><![CDATA[.B{font-family:Virgil, Segoe UI Emoji}.C{fill:#000}.D{font-size:20px}.E{text-anchor:middle}.F{direction:ltr}.G{direction:rtl}.H{text-anchor:end}.I{stroke-linecap:round}]]></style><defs><style>@font-face{font-family:"Virgil";src:url("../Virgil.woff2")}</style></defs><path fill="#fff" d="M0 0h379v373H0z"/><path d="M10 10h359M10 10h359m0 0v353m0-353v353m0 0H10m359 0H10m0 0V10m0 353V10" stroke="#000" fill="none" class="I"/><text x="55" y="59" style="white-space:pre" class="B C D E F">अ</text><text x="336" y="60" style="white-space:pre" class="B C D E F">A</text><text x="316" y="320" style="white-space:pre" class="B C D E G">عورت</text><text x="180" y="319.75" style="white-space:pre" class="B C D E G">ـعـ/جمعہ</text><text x="57.5" y="319.498" style="white-space:pre" class="B C D E G">جمع</text><text x="187" y="61.727" style="white-space:pre" class="B C D E F">Ayn(ع)</text><text x="343.948" y="340.791" font-size="16" style="white-space:pre" class="B C F H">aurat</text><text x="236.948" y="340.791" font-size="16" style="white-space:pre" class="B C F H">jumah/middle</text><text x="77.948" y="340.791" font-size="16" style="white-space:pre" class="B C F H">jama</text><path d="M174.957 122.239c-6.78 3.41-35.32 12.29-40.67 20.47-5.36 8.18.58 26.78 8.53 28.6 7.94 1.81 37.02-20.08 39.13-17.71s-21.1 20.44-26.48 31.94c-5.38 11.51-12.67 30.87-5.77 37.08 6.89 6.21 32.34 8.63 47.14.2s34.72-42.33 41.67-50.8m-63.55-49.78c-6.78 3.41-35.32 12.29-40.67 20.47-5.36 8.18.58 26.78 8.53 28.6 7.94 1.81 37.02-20.08 39.13-17.71s-21.1 20.44-26.48 31.94c-5.38 11.51-12.67 30.87-5.77 37.08 6.89 6.21 32.34 8.63 47.14.2s34.72-42.33 41.67-50.8" stroke="#000" fill="none" class="I"/></svg>