<svg xmlns="http://www.w3.org/2000/svg" xmlns:xlink="http://www.w3.org/1999/xlink" width="379" height="373" xmlns:v="https://vecta.io/nano"><style><![CDATA[.B{fill:#000}.C{font-family:Virgil, Segoe UI Emoji}.D{direction:ltr}.E{text-anchor:end}.F{font-family:Helvetica, Segoe UI Emoji}.G{direction:rtl}.H{stroke-linecap:round}]]></style><defs><style>@font-face{font-family:"Virgil";src:url("../Virgil.woff2")}</style><path id="A" d="M189 219.5c0 .32-.03.64-.08.96-.06.31-.14.62-.25.92s-.25.59-.41.87a5.32 5.32 0 0 1-.55.79 5.3 5.3 0 0 1-.67.67 5.32 5.32 0 0 1-.79.55c-.28.16-.57.3-.87.41s-.61.19-.92.25c-.32.05-.64.08-.96.08s-.64-.03-.96-.08c-.31-.06-.62-.14-.92-.25s-.59-.25-.87-.41a5.32 5.32 0 0 1-.79-.55 5.3 5.3 0 0 1-.67-.67 5.32 5.32 0 0 1-.55-.79c-.16-.28-.3-.57-.41-.87s-.19-.61-.25-.92c-.05-.32-.08-.64-.08-.96s.03-.64.08-.96c.06-.31.14-.62.25-.92s.25-.59.41-.87a5.32 5.32 0 0 1 .55-.79 5.3 5.3 0 0 1 .67-.67 5.32 5.32 0 0 1 .79-.55c.28-.16.57-.3.87-.41s.61-.19.92-.25c.32-.05.64-.08.96-.08s.64.03.96.08c.31.06.62.14.92.25s.59.25.87.41a5.32 5.32 0 0 1 .79.55 5.3 5.3 0 0 1 .67.67 5.32 5.32 0 0 1 .55.79c.16.28.3.57.41.87s.19.61.25.92c.05.32.07.8.08.96s.01-.16 0 0"/></defs><path fill="#fff" d="M0 0h379v373H0z"/><path d="M10.16 9.08l357.8.2m-357.85.13c126.43 2.07 253.09 3.02 359.1.3m-.7 1.1c3.08 119.37 1.55 235.96 1.07 350.99m-.85-352.34l.08 354.07m1.08.56l-360.62-.55m360.12-.47c-74.95 1.72-149.07 1.77-359.21-.54m.92-.4l-.85-353.1m-.04 353.46c1.56-87.42 1.27-174.81.28-352.41M100 184h167m-167 0h167" stroke="#000" fill="none" class="H"/><use xlink:href="#A" fill="#fd7e14"/><use xlink:href="#A" stroke="#000" fill="none" class="H"/><text y="59" font-size="20" style="white-space:pre" x="49" class="B C D">ब</text><text y="60" font-size="20" style="white-space:pre" x="329" class="B C D">B</text><text y="320" font-size="23.077" style="white-space:pre" x="318" class="B E F G">با</text><text y="320.75" font-size="25" style="white-space:pre" x="185" class="B E F G">ببب</text><text y="322" font-size="29.231" style="white-space:pre" x="54" class="B E F G">بب</text><text x="206.948" y="64.784" font-size="20" text-anchor="middle" style="white-space:pre" class="B C D">Bey(ب)</text><text x="342.051" y="345.162" font-size="16" style="white-space:pre" class="B C D E">ba</text><text x="219.051" y="345.162" font-size="16" style="white-space:pre" class="B C D E">bbb</text><text x="81.051" y="345.162" font-size="16" style="white-space:pre" class="B C D E">bb</text></svg>