<svg xmlns="http://www.w3.org/2000/svg" xmlns:xlink="http://www.w3.org/1999/xlink" width="379" height="373" xmlns:v="https://vecta.io/nano"><style><![CDATA[.B{font-family:Virgil, Segoe UI Emoji}.C{fill:#000}.D{text-anchor:middle}.E{direction:ltr}.F{stroke:#000}.G{stroke-linecap:round}.H{direction:rtl}.I{font-size:16px}.J{text-anchor:end}]]></style><defs><style>@font-face{font-family:"Virgil";src:url("../Virgil.woff2")}</style><path id="A" d="M11 5.5c0 .32-.03.64-.08.96-.06.31-.14.62-.25.92s-.25.59-.41.87a5.32 5.32 0 0 1-.55.79 5.3 5.3 0 0 1-.67.67 5.32 5.32 0 0 1-.79.55c-.28.16-.57.3-.87.41s-.61.19-.92.25c-.32.05-.64.08-.96.08s-.64-.03-.96-.08c-.31-.06-.62-.14-.92-.25s-.59-.25-.87-.41a5.32 5.32 0 0 1-.79-.55 5.3 5.3 0 0 1-.67-.67 5.32 5.32 0 0 1-.55-.79c-.16-.28-.3-.57-.41-.87s-.19-.61-.25-.92C.03 6.14 0 5.82 0 5.5s.03-.64.08-.96c.06-.31.14-.62.25-.92s.25-.59.41-.87a5.32 5.32 0 0 1 .55-.79 5.3 5.3 0 0 1 .67-.67 5.32 5.32 0 0 1 .79-.55c.28-.16.57-.3.87-.41s.61-.19.92-.25C4.86.03 5.18 0 5.5 0s.64.03.96.08c.31.06.62.14.92.25s.59.25.87.41a5.32 5.32 0 0 1 .79.55 5.3 5.3 0 0 1 .67.67 5.32 5.32 0 0 1 .55.79c.16.28.3.57.41.87s.19.61.25.92c.05.32.07.8.08.96s.01-.16 0 0"/></defs><path fill="#fff" d="M0 0h379v373H0z"/><path d="M10 10h359M10 10h359m0 0v353m0-353v353m0 0H10m359 0H10m0 0V10m0 353V10" fill="none" class="F G"/><text x="55" y="59" font-size="20" style="white-space:pre" class="B C D E">क़</text><text x="336" y="60" font-size="20" style="white-space:pre" class="B C D E">Q</text><text x="325" y="322" font-size="28" style="white-space:pre" class="B C D H">قلم</text><g transform="matrix(1 0 0 1 177.5 295.75)" class="B C D H"><text x="19.722" y="22.117" font-size="24.543" style="white-space:pre">لُوقا</text></g><text x="70.5" y="321.498" font-size="28" style="white-space:pre" class="B C D H">سبق</text><text x="187" y="60.227" style="white-space:pre" class="B C D E I">Badi kaaf/Qāf(ق)</text><text x="348.948" y="340.791" style="white-space:pre" class="B C E I J">kalm</text><text x="214.948" y="340.791" style="white-space:pre" class="B C E I J">luke</text><text x="87.948" y="340.791" style="white-space:pre" class="B C E I J">sabk</text><path d="M149.823 190.854c-1.34 4.36-7.06 16.57-8.06 26.17-1 9.59-4.83 24.09 2.03 31.42 6.87 7.33 24.56 14.65 39.17 12.57 14.61-2.07 37.51-11.53 48.51-25.01 11-13.47 14.78-41.54 17.5-55.84s3.55-24.94-1.18-29.95-20.06-2.53-27.23-.11c-7.16 2.42-15.38 8.68-15.75 14.61s6.19 18.28 13.53 20.96c7.33 2.69 25.42-4.04 30.5-4.85m-99.02 10.03c-1.34 4.36-7.06 16.57-8.06 26.17-1 9.59-4.83 24.09 2.03 31.42 6.87 7.33 24.56 14.65 39.17 12.57 14.61-2.07 37.51-11.53 48.51-25.01 11-13.47 14.78-41.54 17.5-55.84s3.55-24.94-1.18-29.95-20.06-2.53-27.23-.11c-7.16 2.42-15.38 8.68-15.75 14.61s6.19 18.28 13.53 20.96c7.33 2.69 25.42-4.04 30.5-4.85" stroke-width="4" fill="none" class="F G"/><g transform="matrix(.567161 -.823607 .823607 .567161 207.422358 130.185067)"><use xlink:href="#A" fill="#fd7e14"/><use xlink:href="#A" fill="none" class="F G"/></g><g transform="matrix(.567161 -.823607 .823607 .567161 231.834751 129.997788)"><use xlink:href="#A" fill="#fd7e14"/><use xlink:href="#A" fill="none" class="F G"/></g></svg>