<svg xmlns="http://www.w3.org/2000/svg" xmlns:xlink="http://www.w3.org/1999/xlink" width="379" height="373" xmlns:v="https://vecta.io/nano"><style><![CDATA[.B{font-family:Virgil, Segoe UI Emoji}.C{fill:#000}.D{text-anchor:middle}.E{direction:ltr}.F{direction:rtl}.G{stroke-linecap:round}.H{text-anchor:end}]]></style><defs><style>@font-face{font-family:"Virgil";src:url("../Virgil.woff2")}</style><path id="A" d="M11 5.5c0 .32-.03.64-.08.96-.06.31-.14.62-.25.92s-.25.59-.41.87a5.32 5.32 0 0 1-.55.79 5.3 5.3 0 0 1-.67.67 5.32 5.32 0 0 1-.79.55c-.28.16-.57.3-.87.41s-.61.19-.92.25c-.32.05-.64.08-.96.08s-.64-.03-.96-.08c-.31-.06-.62-.14-.92-.25s-.59-.25-.87-.41a5.32 5.32 0 0 1-.79-.55 5.3 5.3 0 0 1-.67-.67 5.32 5.32 0 0 1-.55-.79c-.16-.28-.3-.57-.41-.87s-.19-.61-.25-.92C.03 6.14 0 5.82 0 5.5s.03-.64.08-.96c.06-.31.14-.62.25-.92s.25-.59.41-.87a5.32 5.32 0 0 1 .55-.79 5.3 5.3 0 0 1 .67-.67 5.32 5.32 0 0 1 .79-.55c.28-.16.57-.3.87-.41s.61-.19.92-.25C4.86.03 5.18 0 5.5 0s.64.03.96.08c.31.06.62.14.92.25s.59.25.87.41a5.32 5.32 0 0 1 .79.55 5.3 5.3 0 0 1 .67.67 5.32 5.32 0 0 1 .55.79c.16.28.3.57.41.87s.19.61.25.92c.05.32.07.8.08.96s.01-.16 0 0"/></defs><path fill="#fff" d="M0 0h379v373H0z"/><path d="M10 10h359M10 10h359m0 0v353m0-353v353m0 0H10m359 0H10m0 0V10m0 353V10" stroke="#000" fill="none" class="G"/><text x="55" y="59" font-size="20" style="white-space:pre" class="B C D E">भ</text><text x="336" y="60" font-size="20" style="white-space:pre" class="B C D E">Bh</text><text x="325" y="320" font-size="23.077" style="white-space:pre" class="B C D F">بھارت</text><text x="205" y="320.75" font-size="25" style="white-space:pre" class="B C D F">ـبھـ</text><text x="69.5" y="322" font-size="29.231" style="white-space:pre" class="B C D F">ـبھ</text><text x="187" y="61.727" font-size="20" style="white-space:pre" class="B C D F">ب+ھ = بھ</text><text x="347.935" y="344.897" font-size="16" style="white-space:pre" class="B C E H">bharat</text><text x="218.935" y="344.897" font-size="16" style="white-space:pre" class="B C E H">mid</text><text x="86.935" y="344.897" font-size="16" style="white-space:pre" class="B C E H">final</text><path d="M143.302 196.558c-2.33-4.12-13.7-17.67-13.98-24.75s8.93-17.66 12.32-17.73c3.38-.07 7.49 9.76 7.98 17.32.5 7.56-2.71 20.14-4.99 28.05-2.27 7.9-8.65 12.58-8.65 19.38 0 6.81 5.88 19.94 8.65 21.45 2.78 1.51 6.88-7.84 7.99-12.37 1.11-4.54.11-9.83-1.33-14.85s-1.22-12.58-7.32-15.26c-6.11-2.68-24.42-.69-29.3-.83m28.63-.41c-2.33-4.12-13.7-17.67-13.98-24.75s8.93-17.66 12.32-17.73c3.38-.07 7.49 9.76 7.98 17.32.5 7.56-2.71 20.14-4.99 28.05-2.27 7.9-8.65 12.58-8.65 19.38 0 6.81 5.88 19.94 8.65 21.45 2.78 1.51 6.88-7.84 7.99-12.37 1.11-4.54.11-9.83-1.33-14.85s-1.22-12.58-7.32-15.26c-6.11-2.68-24.42-.69-29.3-.83m98.511-38.869c-.88 6.39 5.69 31.49-5.27 38.31-10.97 6.83-50.43 2.2-60.51 2.64m65.78-40.95c-.88 6.39 5.69 31.49-5.27 38.31-10.97 6.83-50.43 2.2-60.51 2.64" stroke="#000" fill="none" class="G"/><g transform="matrix(.567161 -.823607 .823607 .567161 197.638236 223.042635)"><use xlink:href="#A" fill="#fd7e14"/><use xlink:href="#A" stroke="#000" fill="none" class="G"/></g></svg>