<svg xmlns="http://www.w3.org/2000/svg" xmlns:xlink="http://www.w3.org/1999/xlink" width="379" height="373" xmlns:v="https://vecta.io/nano"><style><![CDATA[.B{font-family:Virgil, Segoe UI Emoji}.C{fill:#000}.D{text-anchor:middle}.E{direction:ltr}.F{stroke:#000}.G{stroke-linecap:round}.H{direction:rtl}.I{fill:#fd7e14}.J{text-anchor:end}]]></style><defs><style>@font-face{font-family:"Virgil";src:url("../Virgil.woff2")}</style><path id="A" d="M244 264.5c0 .32-.03.64-.08.96-.06.31-.14.62-.25.92s-.25.59-.41.87a5.32 5.32 0 0 1-.55.79 5.3 5.3 0 0 1-.67.67 5.32 5.32 0 0 1-.79.55c-.28.16-.57.3-.87.41s-.61.19-.92.25c-.32.05-.64.08-.96.08s-.64-.03-.96-.08c-.31-.06-.62-.14-.92-.25s-.59-.25-.87-.41a5.32 5.32 0 0 1-.79-.55 5.3 5.3 0 0 1-.67-.67 5.32 5.32 0 0 1-.55-.79c-.16-.28-.3-.57-.41-.87s-.19-.61-.25-.92c-.05-.32-.08-.64-.08-.96s.03-.64.08-.96c.06-.31.14-.62.25-.92s.25-.59.41-.87a5.32 5.32 0 0 1 .55-.79 5.3 5.3 0 0 1 .67-.67 5.32 5.32 0 0 1 .79-.55c.28-.16.57-.3.87-.41s.61-.19.92-.25c.32-.05.64-.08.96-.08s.64.03.96.08c.31.06.62.14.92.25s.59.25.87.41a5.32 5.32 0 0 1 .79.55 5.3 5.3 0 0 1 .67.67 5.32 5.32 0 0 1 .55.79c.16.28.3.57.41.87s.19.61.25.92c.05.32.07.8.08.96s.01-.16 0 0"/></defs><path fill="#fff" d="M0 0h379v373H0z"/><path d="M10 10h359M10 10h359m0 0v353m0-353v353m0 0H10m359 0H10m0 0V10m0 353V10" fill="none" class="F G"/><text x="55" y="59" font-size="20" style="white-space:pre" class="B C D E">च</text><text x="336" y="60" font-size="20" style="white-space:pre" class="B C D E">Ch</text><text x="325" y="320" font-size="23.077" style="white-space:pre" class="B C D H">چا</text><text x="205" y="320.75" font-size="25" style="white-space:pre" class="B C D H">بچت</text><text x="69.5" y="322" font-size="29.231" style="white-space:pre" class="B C D H">سچ</text><text x="187" y="61.727" font-size="20" style="white-space:pre" class="B C D E">Chay(چ)</text><g fill="none" class="F G"><path d="M128.613 94.037c.5 20.83-4.5 95.33 3 125s27.67 48 42 53 31-12.5 44-23 28.33-33.33 34-40m-123-115c.5 20.83-4.5 95.33 3 125s27.67 48 42 53 31-12.5 44-23 28.33-33.33 34-40"/><path d="M251.613 210.037l-89-10m89 10l-89-10"/></g><use xlink:href="#A" class="I"/><use xlink:href="#A" fill="none" class="F G"/><use xlink:href="#A" x="13.127" y="-20" class="I"/><use xlink:href="#A" x="13.127" y="-20" fill="none" class="F G"/><use xlink:href="#A" x="27.127" class="I"/><use xlink:href="#A" x="27.127" fill="none" class="F G"/><text x="348.935" y="346.897" font-size="16" style="white-space:pre" class="B C E J">cha</text><text x="231.935" y="346.897" font-size="16" style="white-space:pre" class="B C E J">bacht</text><text x="87.935" y="346.897" font-size="16" style="white-space:pre" class="B C E J">sach</text></svg>