<svg xmlns="http://www.w3.org/2000/svg" width="379" height="373" xmlns:v="https://vecta.io/nano"><style><![CDATA[.B{font-family:Virgil, Segoe UI Emoji}.C{fill:#000}.D{text-anchor:middle}.E{direction:ltr}.F{font-size:16px}.G{direction:rtl}.H{stroke-linecap:round}]]></style><defs><style>@font-face{font-family:"Virgil";src:url("../Virgil.woff2")}</style></defs><path fill="#fff" d="M0 0h379v373H0z"/><path d="M10 10h359M10 10h359m0 0v353m0-353v353m0 0H10m359 0H10m0 0V10m0 353V10" stroke="#000" fill="none" class="H"/><text x="55" y="59" font-size="20" style="white-space:pre" class="B C D E">ह</text><text x="336" y="58.5" style="white-space:pre" class="B C D E F">H/A/Ae</text><text x="325" y="319" font-size="23.077" style="white-space:pre" class="B C D G">ہا</text><text x="195" y="320.75" font-size="25" style="white-space:pre" class="B C D G">کہا</text><text x="65.453" y="317.5" font-size="18.54" style="white-space:pre" class="B C D G">رہ/بچہ</text><text x="187" y="60.227" style="white-space:pre" class="B C D E F">Choti/Gol he(ه)</text><text x="328.411" y="345.366" style="white-space:pre" class="B C D E F">ha</text><text x="202.411" y="345.366" style="white-space:pre" class="B C D E F">kha</text><text x="67.411" y="345.366" style="white-space:pre" class="B C D E F">Bacha/rha</text><text x="189.5" y="263.11" font-size="10.834" style="white-space:pre" class="B C D E">some online font don't render hook underneath the h</text><path d="M147.405 98.875c6.978 2.629 30.053 9.226 41.898 15.767 11.845 6.531 24.145 10.116 29.182 23.469 5.037 13.343 9.579 47.263 1.049 56.631-8.53 9.378-39.273 6.026-52.229-.384-12.966-6.41-20.839-27.258-25.558-38.049-4.728-10.801-5.393-18.447-2.783-26.725s15.363-19.11 18.446-22.934m-10.004-7.775c6.978 2.629 30.053 9.226 41.898 15.767 11.845 6.531 24.145 10.116 29.182 23.469 5.037 13.343 9.579 47.263 1.049 56.631-8.53 9.378-39.273 6.026-52.229-.384-12.966-6.41-20.839-27.258-25.558-38.049-4.728-10.801-5.393-18.447-2.783-26.725s15.363-19.11 18.446-22.934" stroke="#000" stroke-width="2" fill="none" class="H"/></svg>