<svg xmlns="http://www.w3.org/2000/svg" width="379" height="373" xmlns:v="https://vecta.io/nano"><style><![CDATA[.B{font-family:Virgil, Segoe UI Emoji}.C{fill:#000}.D{text-anchor:middle}.E{direction:ltr}.F{direction:rtl}.G{text-anchor:end}.H{stroke-linecap:round}]]></style><defs><style>@font-face{font-family:"Virgil";src:url("../Virgil.woff2")}</style></defs><path fill="#fff" d="M0 0h379v373H0z"/><path d="M10 10h359M10 10h359m0 0v353m0-353v353m0 0H10m359 0H10m0 0V10m0 353V10" stroke="#000" fill="none" class="H"/><text x="55" y="59" font-size="20" style="white-space:pre" class="B C D E">द</text><text x="336" y="60" font-size="20" style="white-space:pre" class="B C D E">D</text><text x="325" y="320" font-size="23.077" style="white-space:pre" class="B C D F">دو</text><text x="205" y="320.75" font-size="25" style="white-space:pre" class="B C D F">دادا</text><text x="69.5" y="322" font-size="29.231" style="white-space:pre" class="B C D F">بد</text><text x="187" y="61.727" font-size="20" style="white-space:pre" class="B C D E">Dal(د)</text><path d="M211.939 150.037c2.39 5.49 13.63 21.1 14.37 32.93.73 11.83-1.34 29.2-9.98 38.05-8.63 8.85-29.71 13.07-41.83 15.06s-25.74-2.61-30.89-3.13m68.33-82.91c2.39 5.49 13.63 21.1 14.37 32.93.73 11.83-1.34 29.2-9.98 38.05-8.63 8.85-29.71 13.07-41.83 15.06s-25.74-2.61-30.89-3.13" stroke="#000" fill="none" class="H"/><text x="344.306" y="343.935" font-size="16" style="white-space:pre" class="B C E G">do</text><text x="232.306" y="343.935" font-size="16" style="white-space:pre" class="B C E G">dada</text><text x="83.306" y="343.935" font-size="16" style="white-space:pre" class="B C E G">bad</text></svg>