<svg xmlns="http://www.w3.org/2000/svg" width="379" height="373" xmlns:v="https://vecta.io/nano"><style><![CDATA[.B{font-family:Virgil, Segoe UI Emoji}.C{fill:#000}.D{text-anchor:middle}.E{direction:ltr}.F{direction:rtl}.G{text-anchor:end}.H{stroke-linecap:round}]]></style><defs><style>@font-face{font-family:"Virgil";src:url("../Virgil.woff2")}</style></defs><path fill="#fff" d="M0 0h379v373H0z"/><path d="M10 10h359M10 10h359m0 0v353m0-353v353m0 0H10m359 0H10m0 0V10m0 353V10" stroke="#000" fill="none" class="H"/><text x="55" y="59" font-size="20" style="white-space:pre" class="B C D E">ड</text><text x="336" y="60" font-size="20" style="white-space:pre" class="B C D E">Ḍ</text><text x="325" y="322" font-size="28" style="white-space:pre" class="B C D F">ڈگر</text><text x="205" y="321.75" font-size="28" style="white-space:pre" class="B C D F">بڈب</text><text x="70.5" y="321.498" font-size="28" style="white-space:pre" class="B C D F">بڈ</text><text x="187" y="61.727" font-size="20" style="white-space:pre" class="B C D F">د+ط= ڈ</text><text x="348.948" y="340.791" font-size="16" style="white-space:pre" class="B C E G">dagr</text><text x="220.948" y="340.791" font-size="16" style="white-space:pre" class="B C E G">bdb</text><text x="77.948" y="340.791" font-size="16" style="white-space:pre" class="B C E G">bd</text><path d="M183.376 84.35l.43 13.05c.07 5.42-1.53 17.58 0 19.44 1.53 1.85 4.95-6.49 9.18-8.33 4.24-1.84 13.32-3.72 16.24-2.71s4.3 6.77 1.29 8.78c-3.02 2.01-13 2.77-19.39 3.26-6.39.5-15.79-.24-18.95-.28m11.2-33.21l.43 13.05c.07 5.42-1.53 17.58 0 19.44 1.53 1.85 4.95-6.49 9.18-8.33 4.24-1.84 13.32-3.72 16.24-2.71s4.3 6.77 1.29 8.78c-3.02 2.01-13 2.77-19.39 3.26-6.39.5-15.79-.24-18.95-.28m21.303 26.162c2.39 5.49 13.63 21.1 14.37 32.93.73 11.83-1.34 29.2-9.98 38.05-8.63 8.85-29.71 13.07-41.83 15.06s-25.74-2.61-30.89-3.13m68.33-82.91c2.39 5.49 13.63 21.1 14.37 32.93.73 11.83-1.34 29.2-9.98 38.05-8.63 8.85-29.71 13.07-41.83 15.06s-25.74-2.61-30.89-3.13" stroke="#000" fill="none" class="H"/></svg>