<svg xmlns="http://www.w3.org/2000/svg" width="379" height="373" xmlns:v="https://vecta.io/nano"><style><![CDATA[.B{font-family:Virgil, Segoe UI Emoji}.C{fill:#000}.D{text-anchor:middle}.E{direction:ltr}.F{direction:rtl}.G{text-anchor:end}.H{stroke-linecap:round}]]></style><defs><style>@font-face{font-family:"Virgil";src:url("../Virgil.woff2")}</style></defs><path fill="#fff" d="M0 0h379v373H0z"/><path d="M10 10h359M10 10h359m0 0v353m0-353v353m0 0H10m359 0H10m0 0V10m0 353V10" stroke="#000" fill="none" class="H"/><text x="55" y="59" font-size="20" style="white-space:pre" class="B C D E">ध</text><text x="336" y="60" font-size="20" style="white-space:pre" class="B C D E">Dh</text><text x="317" y="320" font-size="23.077" style="white-space:pre" class="B C D F">دھنوش</text><text x="197" y="320.75" font-size="25" style="white-space:pre" class="B C D F">دھ</text><text x="69.5" y="322" font-size="29.231" style="white-space:pre" class="B C D F">دھ</text><text x="187" y="61.727" font-size="20" style="white-space:pre" class="B C D F">د+ھ = دھ</text><text x="347.935" y="344.897" font-size="16" style="white-space:pre" class="B C E G">dhanush</text><text x="207.935" y="344.897" font-size="16" style="white-space:pre" class="B C E G">mid</text><text x="86.935" y="344.897" font-size="16" style="white-space:pre" class="B C E G">final</text><path d="M247.726 165.37c2.13 4.47 12.15 17.2 12.81 26.84.65 9.65-1.2 23.8-8.89 31.02-7.7 7.21-26.49 10.65-37.29 12.27s-22.94-2.13-27.53-2.55m60.9-67.58c2.13 4.47 12.15 17.2 12.81 26.84.65 9.65-1.2 23.8-8.89 31.02-7.7 7.21-26.49 10.65-37.29 12.27s-22.94-2.13-27.53-2.55M80.171 222.212c5.36 2.8 22.73 16.27 32.19 16.8 9.45.53 15.1-4.13 24.56-13.6s33.17-33.87 32.18-43.2-31.05-17.47-38.11-12.8-9.88 30.13-4.24 40.8c5.65 10.67 28.38 23.2 38.12 23.2s22.16-12 20.33-23.2c-1.84-11.2-23.44-35.47-31.34-44-7.91-8.53-13.41-6-16.1-7.2m-57.59 63.2c5.36 2.8 22.73 16.27 32.19 16.8 9.45.53 15.1-4.13 24.56-13.6s33.17-33.87 32.18-43.2-31.05-17.47-38.11-12.8-9.88 30.13-4.24 40.8c5.65 10.67 28.38 23.2 38.12 23.2s22.16-12 20.33-23.2c-1.84-11.2-23.44-35.47-31.34-44-7.91-8.53-13.41-6-16.1-7.2" stroke="#000" fill="none" class="H"/></svg>