<svg xmlns="http://www.w3.org/2000/svg" width="379" height="373" xmlns:v="https://vecta.io/nano"><style><![CDATA[.B{font-family:Virgil, Segoe UI Emoji}.C{fill:#000}.D{text-anchor:middle}.E{direction:ltr}.F{direction:rtl}.G{text-anchor:end}.H{stroke-linecap:round}]]></style><defs><style>@font-face{font-family:"Virgil";src:url("../Virgil.woff2")}</style></defs><path fill="#fff" d="M0 0h379v373H0z"/><path d="M10 10h359M10 10h359m0 0v353m0-353v353m0 0H10m359 0H10m0 0V10m0 353V10" stroke="#000" fill="none" class="H"/><text x="55" y="59" font-size="20" style="white-space:pre" class="B C D E">ह</text><text x="336" y="60" font-size="20" style="white-space:pre" class="B C D E">H</text><text x="325" y="320" font-size="23.077" style="white-space:pre" class="B C D F">ھـ</text><text x="205" y="320.75" font-size="25" style="white-space:pre" class="B C D F">ـھـ</text><text x="69.5" y="322" font-size="29.231" style="white-space:pre" class="B C D F">ـھ</text><text x="197.5" y="56.727" font-size="17.325" style="white-space:pre" class="B C D E">Do-cashmī hē(ھ)</text><text x="344.306" y="343.935" font-size="16" style="white-space:pre" class="B C E G">intial</text><text x="216.306" y="343.935" font-size="16" style="white-space:pre" class="B C E G">mid</text><text x="83.306" y="343.935" font-size="16" style="white-space:pre" class="B C E G">final</text><path d="M118.5 208.399c6.33 3.5 26.83 20.33 38 21s17.83-5.17 29-17 39.17-42.33 38-54-36.67-21.83-45-16-11.67 37.67-5 51 33.5 29 45 29 26.17-15 24-29-27.67-44.33-37-55-15.83-7.5-19-9m-68 79c6.33 3.5 26.83 20.33 38 21s17.83-5.17 29-17 39.17-42.33 38-54-36.67-21.83-45-16-11.67 37.67-5 51 33.5 29 45 29 26.17-15 24-29-27.67-44.33-37-55-15.83-7.5-19-9" stroke="#000" fill="none" class="H"/></svg>