<svg xmlns="http://www.w3.org/2000/svg" xmlns:xlink="http://www.w3.org/1999/xlink" width="379" height="373" xmlns:v="https://vecta.io/nano"><style><![CDATA[.B{font-family:Virgil, Segoe UI Emoji}.C{fill:#000}.D{text-anchor:middle}.E{direction:ltr}.F{direction:rtl}.G{font-size:16px}.H{stroke-linecap:round}.I{text-anchor:end}]]></style><defs><style>@font-face{font-family:"Virgil";src:url("../Virgil.woff2")}</style><path id="A" d="M11 5.5c0 .32-.03.64-.08.96-.06.31-.14.62-.25.92s-.25.59-.41.87a5.32 5.32 0 0 1-.55.79 5.3 5.3 0 0 1-.67.67 5.32 5.32 0 0 1-.79.55c-.28.16-.57.3-.87.41s-.61.19-.92.25c-.32.05-.64.08-.96.08s-.64-.03-.96-.08c-.31-.06-.62-.14-.92-.25s-.59-.25-.87-.41a5.32 5.32 0 0 1-.79-.55 5.3 5.3 0 0 1-.67-.67 5.32 5.32 0 0 1-.55-.79c-.16-.28-.3-.57-.41-.87s-.19-.61-.25-.92C.03 6.14 0 5.82 0 5.5s.03-.64.08-.96c.06-.31.14-.62.25-.92s.25-.59.41-.87a5.32 5.32 0 0 1 .55-.79 5.3 5.3 0 0 1 .67-.67 5.32 5.32 0 0 1 .79-.55c.28-.16.57-.3.87-.41s.61-.19.92-.25C4.86.03 5.18 0 5.5 0s.64.03.96.08c.31.06.62.14.92.25s.59.25.87.41a5.32 5.32 0 0 1 .79.55 5.3 5.3 0 0 1 .67.67 5.32 5.32 0 0 1 .55.79c.16.28.3.57.41.87s.19.61.25.92c.05.32.07.8.08.96s.01-.16 0 0"/></defs><path fill="#fff" d="M0 0h379v373H0z"/><path d="M10 10h359M10 10h359m0 0v353m0-353v353m0 0H10m359 0H10m0 0V10m0 353V10" stroke="#000" fill="none" class="H"/><text x="55" y="59" font-size="20" style="white-space:pre" class="B C D E">फ़</text><text x="336" y="60" font-size="20" style="white-space:pre" class="B C D E">Q</text><text x="325" y="322" font-size="28" style="white-space:pre" class="B C D F">فوج</text><g transform="matrix(1 0 0 1 170.722222 295.75)" class="B C D F"><text x="26.5" y="22.5" font-size="24.543" style="white-space:pre">سفید</text></g><text x="70.5" y="321.498" font-size="28" style="white-space:pre" class="B C D F">برف</text><text x="187" y="60.227" style="white-space:pre" class="B C D E G">Fē(ف)</text><text x="345.948" y="342.791" style="white-space:pre" class="B C E G I">fauj</text><text x="222.948" y="340.791" style="white-space:pre" class="B C E G I">safed</text><text x="91.948" y="340.791" style="white-space:pre" class="B C E G I">baraf</text><path d="M109.712 180.854c-.42 4.36-5.39 19.72-2.5 26.17 2.88 6.45 7.94 9.64 19.81 12.53 11.86 2.89 33.81 5.76 51.38 4.8 17.58-.96 40.48-3.21 54.07-10.57 13.59-7.37 23.11-23.02 27.5-33.62 4.39-10.59 3.55-24.94-1.18-29.95s-20.06-2.53-27.23-.11c-7.16 2.42-15.38 8.68-15.75 14.61s6.19 18.28 13.53 20.96c7.34 2.69 25.42-4.04 30.51-4.85m-150.14.03c-.42 4.36-5.39 19.72-2.5 26.17 2.88 6.45 7.94 9.64 19.81 12.53 11.86 2.89 33.81 5.76 51.38 4.8 17.58-.96 40.48-3.21 54.07-10.57 13.59-7.37 23.11-23.02 27.5-33.62 4.39-10.59 3.55-24.94-1.18-29.95s-20.06-2.53-27.23-.11c-7.16 2.42-15.38 8.68-15.75 14.61s6.19 18.28 13.53 20.96c7.34 2.69 25.42-4.04 30.51-4.85" stroke="#000" stroke-width="4" fill="none" class="H"/><g transform="matrix(.567161 -.823607 .823607 .567161 235.834751 129.997788)"><use xlink:href="#A" fill="#fd7e14"/><use xlink:href="#A" stroke="#000" fill="none" class="H"/></g></svg>