<svg xmlns="http://www.w3.org/2000/svg" xmlns:xlink="http://www.w3.org/1999/xlink" width="379" height="373" xmlns:v="https://vecta.io/nano"><style><![CDATA[.B{font-family:Virgil, Segoe UI Emoji}.C{fill:#000}.D{font-size:20px}.E{text-anchor:middle}.F{direction:ltr}.G{stroke-linecap:round}.H{direction:rtl}.I{text-anchor:end}]]></style><defs><style>@font-face{font-family:"Virgil";src:url("../Virgil.woff2")}</style><path id="A" d="M11 5.5c0 .32-.03.64-.08.96-.06.31-.14.62-.25.92s-.25.59-.41.87a5.32 5.32 0 0 1-.55.79 5.3 5.3 0 0 1-.67.67 5.32 5.32 0 0 1-.79.55c-.28.16-.57.3-.87.41s-.61.19-.92.25c-.32.05-.64.08-.96.08s-.64-.03-.96-.08c-.31-.06-.62-.14-.92-.25s-.59-.25-.87-.41a5.32 5.32 0 0 1-.79-.55 5.3 5.3 0 0 1-.67-.67 5.32 5.32 0 0 1-.55-.79c-.16-.28-.3-.57-.41-.87s-.19-.61-.25-.92C.03 6.14 0 5.82 0 5.5s.03-.64.08-.96c.06-.31.14-.62.25-.92s.25-.59.41-.87a5.32 5.32 0 0 1 .55-.79 5.3 5.3 0 0 1 .67-.67 5.32 5.32 0 0 1 .79-.55c.28-.16.57-.3.87-.41s.61-.19.92-.25C4.86.03 5.18 0 5.5 0s.64.03.96.08c.31.06.62.14.92.25s.59.25.87.41a5.32 5.32 0 0 1 .79.55 5.3 5.3 0 0 1 .67.67 5.32 5.32 0 0 1 .55.79c.16.28.3.57.41.87s.19.61.25.92c.05.32.07.8.08.96s.01-.16 0 0"/></defs><path fill="#fff" d="M0 0h379v373H0z"/><path d="M10 10h359M10 10h359m0 0v353m0-353v353m0 0H10m359 0H10m0 0V10m0 353V10" stroke="#000" fill="none" class="G"/><text x="55" y="59" style="white-space:pre" class="B C D E F">ग़</text><text x="336" y="60" style="white-space:pre" class="B C D E F">G</text><text x="328" y="320" style="white-space:pre" class="B C D E H">غار</text><text x="199" y="319.75" style="white-space:pre" class="B C D E H">مغرور</text><text x="68.5" y="319.498" style="white-space:pre" class="B C D E H">باغ/بیغ</text><text x="187" y="61.727" style="white-space:pre" class="B C D E F">Gain(غ)</text><text x="341.948" y="340.791" font-size="16" style="white-space:pre" class="B C F I">gar</text><text x="222.948" y="340.791" font-size="16" style="white-space:pre" class="B C F I">magrur</text><text x="109.948" y="340.791" font-size="16" style="white-space:pre" class="B C F I">teg/baag</text><path d="M174.957 122.239c-6.78 3.41-35.32 12.29-40.67 20.47-5.36 8.18.58 26.78 8.53 28.6 7.94 1.81 37.02-20.08 39.13-17.71s-21.1 20.44-26.48 31.94c-5.38 11.51-12.67 30.87-5.77 37.08 6.89 6.21 32.34 8.63 47.14.2s34.72-42.33 41.67-50.8m-63.55-49.78c-6.78 3.41-35.32 12.29-40.67 20.47-5.36 8.18.58 26.78 8.53 28.6 7.94 1.81 37.02-20.08 39.13-17.71s-21.1 20.44-26.48 31.94c-5.38 11.51-12.67 30.87-5.77 37.08 6.89 6.21 32.34 8.63 47.14.2s34.72-42.33 41.67-50.8" stroke="#000" fill="none" class="G"/><g transform="matrix(.567161 -.823607 .823607 .567161 151.850776 107.910453)"><use xlink:href="#A" fill="#fd7e14"/><use xlink:href="#A" stroke="#000" fill="none" class="G"/></g></svg>