<svg xmlns="http://www.w3.org/2000/svg" width="379" height="373" xmlns:v="https://vecta.io/nano"><style><![CDATA[.B{font-family:Virgil, Segoe UI Emoji}.C{fill:#000}.D{text-anchor:middle}.E{direction:ltr}.F{font-size:16px}.G{direction:rtl}]]></style><defs><style>@font-face{font-family:"Virgil";src:url("../Virgil.woff2")}</style></defs><path fill="#fff" d="M0 0h379v373H0z"/><path d="M189.2 132.93c7.29-.02 16.86 2.75 22.88 6.93s10.73 11.33 13.23 18.15 3.51 15.58 1.76 22.77c-1.74 7.19-6.96 15.33-12.24 20.36-5.29 5.02-12.26 8.32-19.47 9.79-7.2 1.46-16.61 1.5-23.77-.99-7.15-2.49-14.96-7.93-19.15-13.95s-5.91-14.96-6.01-22.17 1.84-15.04 5.38-21.09c3.55-6.04 7.83-11.96 15.9-15.18s25.72-4.54 32.5-4.14 8.66 5.75 8.2 6.53m-3.19-2.3c6.44 2.41 13.47 8.62 17.21 14.55s5.68 13.85 5.25 21.03c-.43 7.17-3.25 15.79-7.83 22.03-4.59 6.24-12.88 12.67-19.67 15.4-6.79 2.72-14.04 2.65-21.06.96-7.02-1.7-15.64-6.01-21.07-11.13-5.43-5.13-9.66-12.78-11.52-19.64-1.85-6.86-1.98-14.79.37-21.49 2.36-6.71 7.54-13.99 13.78-18.72 6.23-4.73 16.05-8.94 23.63-9.66 7.59-.71 18.35 4.29 21.88 5.37 3.53 1.07-.49.44-.7 1.08" fill="#fff"/><path d="M180.76 131.95c6.94-1.32 16.27 1.24 23.02 4.27 6.76 3.04 13.61 7.93 17.54 13.93 3.92 6 6.11 14.81 5.99 22.06-.12 7.26-2.73 15.53-6.7 21.48-3.97 5.94-10.51 11.24-17.11 14.18-6.61 2.94-15.1 4.37-22.55 3.47-7.45-.91-16.55-4.12-22.15-8.9s-9.53-12.82-11.47-19.77-2.26-15.11-.17-21.94c2.09-6.82 6.07-14.15 12.73-19.03s21.91-8.74 27.23-10.25c5.31-1.51 4.89.29 4.68 1.19m6.5.16c6.65 1.63 14.65 8.2 19.32 13.97 4.68 5.77 7.48 13.75 8.71 20.64 1.24 6.88 1.81 14.37-1.29 20.68-3.1 6.3-10.97 13.24-17.32 17.13-6.35 3.88-13.48 6.05-20.77 6.18-7.3.14-16.68-1.27-23.02-5.36-6.34-4.1-11.95-12.71-15.04-19.21s-4.75-13.09-3.48-19.78 6.34-14.88 11.1-20.36c4.77-5.49 10.4-10.61 17.47-12.55 7.07-1.95 20.8 1.02 24.93.87 4.13-.16.15-2.28-.15-1.79M10 10h359M10 10h359m0 0v353m0-353v353m0 0H10m359 0H10m0 0V10m0 353V10" stroke="#000" fill="none" stroke-linecap="round"/><text x="55" y="59" font-size="20" style="white-space:pre" class="B C D E">ह</text><text x="336" y="58.5" style="white-space:pre" class="B C D E F">H/A/Ae</text><text x="325" y="319" font-size="23.077" style="white-space:pre" class="B C D G">ہا</text><text x="195" y="320.75" font-size="25" style="white-space:pre" class="B C D G">کہا</text><text x="65.453" y="317.5" font-size="18.54" style="white-space:pre" class="B C D G">رہ/بچہ</text><text x="187" y="60.227" style="white-space:pre" class="B C D E F">Choti/Gol he(ه)</text><text x="328.411" y="345.366" style="white-space:pre" class="B C D E F">ha</text><text x="202.411" y="345.366" style="white-space:pre" class="B C D E F">kha</text><text x="67.411" y="345.366" style="white-space:pre" class="B C D E F">Bacha/rha</text><text x="189.5" y="263.11" font-size="10.834" style="white-space:pre" class="B C D E">some online font don't render hook underneath the h</text></svg>