<svg xmlns="http://www.w3.org/2000/svg" width="379" height="373" xmlns:v="https://vecta.io/nano"><style><![CDATA[.B{font-family:Virgil, Segoe UI Emoji}.C{fill:#000}.D{text-anchor:middle}.E{direction:ltr}.F{direction:rtl}.G{text-anchor:end}.H{stroke-linecap:round}]]></style><defs><style>@font-face{font-family:"Virgil";src:url("../Virgil.woff2")}</style></defs><path fill="#fff" d="M0 0h379v373H0z"/><path d="M10 10h359M10 10h359m0 0v353m0-353v353m0 0H10m359 0H10m0 0V10m0 353V10" stroke="#000" fill="none" class="H"/><text x="55" y="59" font-size="20" style="white-space:pre" class="B C D E">ह</text><text x="336" y="60" font-size="20" style="white-space:pre" class="B C D E">H</text><text x="325" y="320" font-size="23.077" style="white-space:pre" class="B C D F">حا</text><text x="205" y="320.75" font-size="25" style="white-space:pre" class="B C D F">بحب</text><text x="67.5" y="323" font-size="26.573" style="white-space:pre" class="B C D F">شح</text><text x="187" y="61.727" font-size="20" style="white-space:pre" class="B C D E">Hay(ح)</text><g stroke="#000" fill="none" class="H"><path d="M128.613 94.037c.5 20.83-4.5 95.33 3 125s27.67 48 42 53 31-12.5 44-23 28.33-33.33 34-40m-123-115c.5 20.83-4.5 95.33 3 125s27.67 48 42 53 31-12.5 44-23 28.33-33.33 34-40"/><path d="M251.613 210.037l-89-10m89 10l-89-10"/></g><text x="337.959" y="341.632" font-size="16" style="white-space:pre" class="B C E G">ha</text><text x="219.959" y="341.632" font-size="16" style="white-space:pre" class="B C E G">bhb</text><text x="77.959" y="341.632" font-size="16" style="white-space:pre" class="B C E G">sh</text></svg>