<svg xmlns="http://www.w3.org/2000/svg" width="379" height="373" xmlns:v="https://vecta.io/nano"><style><![CDATA[.B{font-family:Virgil, Segoe UI Emoji}.C{fill:#000}.D{font-size:20px}.E{text-anchor:middle}.F{direction:ltr}.G{stroke-linecap:round}]]></style><defs><style>@font-face{font-family:"Virgil";src:url("../Virgil.woff2")}</style></defs><path fill="#fff" d="M0 0h379v373H0z"/><path d="M10 10h359M10 10h359m0 0v353m0-353v353m0 0H10m359 0H10m0 0V10m0 353V10" stroke="#000" fill="none" class="G"/><text x="55" y="57" style="white-space:pre" class="B C D E F">?</text><text x="336" y="60" style="white-space:pre" class="B C D E F">?</text><text x="316" y="319" style="white-space:pre" class="B C D E F">?</text><text x="180" y="319.75" style="white-space:pre" direction="rtl" class="B C D E">بھائ</text><text x="63.5" y="319.498" style="white-space:pre" direction="rtl" class="B C D E">زائد/لاؤ</text><text x="187" y="61.727" style="white-space:pre" class="B C D E F">Humza(ء)</text><text x="200.948" y="340.791" font-size="16" text-anchor="end" style="white-space:pre" class="B C F">bhai</text><text x="93.948" y="340.791" font-size="16" text-anchor="end" style="white-space:pre" class="B C F">lao/zaid</text><path d="M227.118 116.75c-8.318.204-36.356-5.579-49.922 1.23-13.562 6.8-32.479 30.298-31.497 39.603s24.764 13.935 37.395 16.243 35.373-5.388 38.416-2.397c3.034 2.986-12.496 14.328-20.2 20.332s-21.683 13.057-26.015 15.673m51.823-90.684c-8.318.204-36.356-5.579-49.922 1.23-13.562 6.8-32.479 30.298-31.497 39.603s24.764 13.935 37.395 16.243 35.373-5.388 38.416-2.397c3.034 2.986-12.496 14.328-20.2 20.332s-21.683 13.057-26.015 15.673" stroke="#000" fill="none" class="G"/></svg>