<svg xmlns="http://www.w3.org/2000/svg" xmlns:xlink="http://www.w3.org/1999/xlink" width="375.556" height="377.778" xmlns:v="https://vecta.io/nano"><style><![CDATA[.B{fill:none}.C{stroke-linecap:round}.D{stroke:#000}.E{stroke:#fff}.F{stroke-width:.5}.G{stroke:#c92a2a}.H{stroke-width:1.5}.I{stroke-dasharray:8 9}.J{fill:#fd7e14}.K{font-family:Virgil, Segoe UI Emoji}.L{font-size:16px}.M{direction:ltr}]]></style><defs><style>@font-face{font-family:"Virgil";src:url("../Virgil.woff2")}</style><path id="A" d="M194.204 146.258c0 .32-.03.64-.08.96-.06.31-.14.62-.25.92s-.25.59-.41.87a5.32 5.32 0 0 1-.55.79 5.3 5.3 0 0 1-.67.67 5.32 5.32 0 0 1-.79.55c-.28.16-.57.3-.87.41s-.61.19-.92.25c-.32.05-.64.08-.96.08s-.64-.03-.96-.08c-.31-.06-.62-.14-.92-.25s-.59-.25-.87-.41a5.32 5.32 0 0 1-.79-.55 5.3 5.3 0 0 1-.67-.67 5.32 5.32 0 0 1-.55-.79c-.16-.28-.3-.57-.41-.87s-.19-.61-.25-.92c-.05-.32-.08-.64-.08-.96s.03-.64.08-.96c.06-.31.14-.62.25-.92s.25-.59.41-.87a5.32 5.32 0 0 1 .55-.79 5.3 5.3 0 0 1 .67-.67 5.32 5.32 0 0 1 .79-.55c.28-.16.57-.3.87-.41s.61-.19.92-.25c.32-.05.64-.08.96-.08s.64.03.96.08c.31.06.62.14.92.25s.59.25.87.41a5.32 5.32 0 0 1 .79.55 5.3 5.3 0 0 1 .67.67 5.32 5.32 0 0 1 .55.79c.16.28.3.57.41.87s.19.61.25.92c.05.32.07.8.08.96s.01-.16 0 0"/><path id="B" d="M319.241 329.33c0 .19-.02.39-.05.57-.03.19-.08.38-.15.56-.06.18-.15.36-.24.52-.1.17-.21.33-.33.47a2.65 2.65 0 0 1-.41.41c-.14.12-.3.23-.47.33-.16.09-.34.18-.52.24-.18.07-.37.12-.56.15-.18.03-.38.05-.57.05s-.38-.02-.57-.05-.38-.08-.56-.15c-.18-.06-.35-.15-.52-.24a3.95 3.95 0 0 1-.47-.33 2.65 2.65 0 0 1-.41-.41c-.12-.14-.23-.3-.33-.47-.09-.16-.18-.34-.24-.52-.07-.18-.12-.37-.15-.56-.03-.18-.05-.38-.05-.57s.02-.38.05-.57.08-.38.15-.56c.06-.18.15-.35.24-.52a3.95 3.95 0 0 1 .33-.47 2.65 2.65 0 0 1 .41-.41 3.95 3.95 0 0 1 .47-.33c.17-.09.34-.18.52-.24.18-.07.37-.12.56-.15s.38-.05.57-.05.39.02.57.05c.19.03.38.08.56.15.18.06.36.15.52.24.17.1.33.21.47.33a2.65 2.65 0 0 1 .41.41 3.95 3.95 0 0 1 .33.47c.09.17.18.34.24.52.07.18.12.37.15.56s.04.47.05.57.01-.1 0 0"/><path id="C" d="M194.333 330.104c0 .23-.02.45-.06.68-.04.22-.1.44-.18.65a3.37 3.37 0 0 1-.28.61 4.21 4.21 0 0 1-.39.55 3.63 3.63 0 0 1-.48.48 4.21 4.21 0 0 1-.55.39 3.37 3.37 0 0 1-.61.28c-.21.08-.43.14-.65.18-.23.04-.45.06-.68.06-.22 0-.45-.02-.67-.06s-.44-.1-.65-.18a3.37 3.37 0 0 1-.61-.28c-.2-.11-.38-.25-.56-.39-.17-.14-.33-.31-.47-.48-.15-.17-.28-.36-.39-.55a4.27 4.27 0 0 1-.29-.61c-.07-.21-.13-.43-.17-.65-.04-.23-.06-.45-.06-.68 0-.22.02-.45.06-.67s.1-.44.17-.65a4.27 4.27 0 0 1 .29-.61c.11-.2.24-.38.39-.56a3.48 3.48 0 0 1 .47-.47c.18-.15.36-.28.56-.39a4.27 4.27 0 0 1 .61-.29c.21-.07.43-.13.65-.17s.45-.06.67-.06c.23 0 .45.02.68.06.22.04.44.1.65.17a4.27 4.27 0 0 1 .61.29c.19.11.38.24.55.39.17.14.34.3.48.47.14.18.28.36.39.56a3.37 3.37 0 0 1 .28.61c.08.21.14.43.18.65s.05.56.06.67c.01.12.01-.11 0 0"/><path id="D" d="M70.824 325.52c0 .17-.01.34-.04.5a2.72 2.72 0 0 1-.13.49 3.22 3.22 0 0 1-.21.46 3.19 3.19 0 0 1-.3.42c-.1.12-.23.25-.35.35a3.19 3.19 0 0 1-.42.3 3.22 3.22 0 0 1-.46.21 2.72 2.72 0 0 1-.49.13c-.16.03-.33.04-.5.04s-.34-.01-.51-.04a2.96 2.96 0 0 1-.49-.13 3.82 3.82 0 0 1-.46-.21c-.14-.09-.28-.19-.41-.3-.13-.1-.25-.23-.36-.35-.11-.13-.21-.27-.29-.42a2.4 2.4 0 0 1-.21-.46c-.06-.16-.11-.32-.14-.49-.03-.16-.04-.33-.04-.5s.01-.34.04-.51c.03-.16.08-.33.14-.49.05-.16.13-.31.21-.46.08-.14.18-.28.29-.41a3.06 3.06 0 0 1 .36-.36c.13-.11.27-.21.41-.29.15-.08.3-.16.46-.21.16-.06.33-.11.49-.14.17-.03.34-.04.51-.04s.34.01.5.04c.17.03.33.08.49.14a2.4 2.4 0 0 1 .46.21c.15.08.29.18.42.29.12.11.25.23.35.36.11.13.21.27.3.41a3.82 3.82 0 0 1 .21.46 2.96 2.96 0 0 1 .13.49 3.64 3.64 0 0 1 .04.51c.01.08.01-.09 0 0"/></defs><path fill="#fff" d="M0 0h375.556v377.778H0z"/><path d="M10 10h355.56v357.78H10" fill="#fff"/><path d="M10 10h355.56M10 10h355.56m0 0v357.78m0-357.78v357.78m0 0H10m355.56 0H10m0 0V10m0 357.78V10" class="B C D"/><path d="M94.999 167.433l-41.63 109.46m41.63-109.46l-41.63 109.46m.43-30l-.43 30m.43-30l-.43 30m19.61-22.7l-19.61 22.7m19.61-22.7l-19.61 22.7" class="B C D"/><path d="M185.902 172.941l.617 97.878m-.617-97.878l.617 97.878m-10.439-28.124l10.439 28.124m-10.439-28.124l10.439 28.124m10.089-28.255L186.52 270.82m10.088-28.256L186.52 270.82" class="B C D"/><path d="M280.519 164.637l29.67 102.19m-29.67-102.19l29.67 102.19m-17.72-24.21l17.72 24.21m-17.72-24.21l17.72 24.21m1.99-29.93l-1.99 29.93m1.99-29.93l-1.99 29.93" class="B C D"/><g class="B C"><path d="M97.333 80.436l5.25-6.04m-5.25 6.04l5.25-6.04m-4.86 11.68l10.5-12.07m-10.5 12.07l10.5-12.07m-10.76 18.47l15.75-18.11m-15.75 18.11l15.75-18.11m-15.35 23.75l20.99-24.15m-20.99 24.15l20.99-24.15m-21.26 30.55l26.25-30.19m-26.25 30.19l26.25-30.19m-26.51 36.59l32.15-36.98m-32.15 36.98l32.15-36.98m-31.75 42.62l36.74-42.26m-36.74 42.26l36.74-42.26m-37 48.66l42.64-49.06m-42.64 49.06l42.64-49.06m-42.25 54.7l47.24-54.34m-47.24 54.34l47.24-54.34m-47.5 60.74l53.14-61.13m-53.14 61.13l53.14-61.13m-53.4 67.53l58.39-67.17m-58.39 67.17l58.39-67.17m-58 72.81l63.64-73.21m-63.64 73.21l63.64-73.21m-63.9 79.61l68.89-79.25m-68.89 79.25l68.89-79.25m-68.49 84.89l74.13-85.28m-74.13 85.28l74.13-85.28m-72.43 89.41l77.42-89.05m-77.42 89.05l77.42-89.05m-72.43 89.41l78.07-89.81m-78.07 89.81l78.07-89.81m-72.43 89.42l77.42-89.06m-77.42 89.06l77.42-89.06m-72.43 89.42l78.07-89.81m-78.07 89.81l78.07-89.81m-72.43 89.42l77.42-89.06m-77.42 89.06l77.42-89.06m-72.43 89.42l78.07-89.81m-78.07 89.81l78.07-89.81m-72.43 89.41l77.42-89.05m-77.42 89.05l77.42-89.05m-72.43 89.41l77.41-89.05m-77.41 89.05l77.41-89.05m-71.77 88.66l77.42-89.06m-77.42 89.06l77.42-89.06m-72.43 89.42l77.42-89.06m-77.42 89.06l77.42-89.06m-71.78 88.66l77.42-89.05m-77.42 89.05l77.42-89.05m-72.43 89.41l77.42-89.05m-77.42 89.05l77.42-89.05m-72.43 89.41l78.07-89.81m-78.07 89.81l78.07-89.81m-72.43 89.42l77.42-89.06m-77.42 89.06l77.42-89.06m-72.43 89.42l78.07-89.81m-78.07 89.81l78.07-89.81m-72.43 89.41l77.42-89.05m-77.42 89.05l77.42-89.05m-72.43 89.41l78.07-89.81m-78.07 89.81l78.07-89.81m-72.43 89.42l77.42-89.06m-77.42 89.06l77.42-89.06m-72.43 89.42l78.07-89.81m-78.07 89.81l78.07-89.81m-72.43 89.41l77.42-89.05m-77.42 89.05l77.42-89.05m-72.43 89.41l78.07-89.81m-78.07 89.81l78.07-89.81m-72.43 89.42l75.45-86.79m-75.45 86.79l75.45-86.79m-70.46 87.15l70.2-80.75m-70.2 80.75l70.2-80.75m-64.56 80.36l64.95-74.72m-64.95 74.72l64.95-74.72m-59.96 75.08l59.7-68.68m-59.7 68.68l59.7-68.68m-54.06 68.28l54.45-62.64m-54.45 62.64l54.45-62.64m-49.46 63l49.2-56.6m-49.2 56.6l49.2-56.6m-43.56 56.21l43.3-49.81m-43.3 49.81l43.3-49.81m-38.31 50.17l38.71-44.53m-38.71 44.53l38.71-44.53m-33.07 44.13l32.8-37.73m-32.8 37.73l32.8-37.73m-27.81 38.09l28.21-32.45m-28.21 32.45l28.21-32.45m-22.57 32.06l22.31-25.66m-22.31 25.66l22.31-25.66m-17.32 26.02l17.06-19.63m-17.06 19.63l17.06-19.63m-12.07 19.99l12.46-14.34m-12.46 14.34l12.46-14.34m-6.82 13.94l6.56-7.54m-6.56 7.54l6.56-7.54" class="E F"/><path d="M97.593 74.036h186m0 0v87.78m0 0h-186m0 0v-87.78" class="G H I"/></g><path d="M251.111 94.669c-2.38 5.78 2.76 29.05-14.3 34.66-17.07 5.61-71.22 4.7-88.1-.99-16.87-5.7-10.96-27.65-13.16-33.17m115.56-.5c-2.38 5.78 2.76 29.05-14.3 34.66-17.07 5.61-71.22 4.7-88.1-.99-16.87-5.7-10.96-27.65-13.16-33.17" class="B C D"/><use xlink:href="#A" class="J"/><use xlink:href="#A" class="B C D"/><text y="49.702" fill="#000" style="white-space:pre" x="59.815" class="K L M">Three shapes of letter Bey(пе)</text><g class="B C"><path d="M272.888 287.102l5.25-6.04m-5.25 6.04l5.25-6.04m-4.86 11.68l10.5-12.07m-10.5 12.07l10.5-12.07m-10.76 18.47l15.75-18.11m-15.75 18.11l15.75-18.11m-15.35 23.75l20.99-24.15m-20.99 24.15l20.99-24.15m-21.26 30.55l26.25-30.19m-26.25 30.19l26.25-30.19m-26.51 36.59l32.15-36.98m-32.15 36.98l32.15-36.98m-31.75 42.62l36.74-42.26m-36.74 42.26l36.74-42.26m-37 48.66l42.64-49.06m-42.64 49.06l42.64-49.06m-42.25 54.7l47.24-54.34m-47.24 54.34l47.24-54.34m-46.19 59.23l51.83-59.62m-51.83 59.62l51.83-59.62m-46.84 59.98l51.83-59.62m-51.83 59.62l51.83-59.62m-46.19 59.23l51.83-59.63m-51.83 59.63l51.83-59.63m-46.84 59.99l51.83-59.63m-51.83 59.63l51.83-59.63m-46.84 59.99l50.51-58.12m-50.51 58.12l50.51-58.12m-44.87 57.72l44.61-51.32m-44.61 51.32l44.61-51.32m-39.62 51.68l40.02-46.04m-40.02 46.04l40.02-46.04m-34.38 45.65l34.11-39.25m-34.11 39.25l34.11-39.25m-29.12 39.61l29.52-33.97m-29.52 33.97l29.52-33.97m-23.88 33.57l23.62-27.17m-23.62 27.17l23.62-27.17m-18.63 27.53l18.37-21.13m-18.37 21.13l18.37-21.13m-12.73 20.74l13.12-15.1m-13.12 15.1l13.12-15.1m-8.13 15.46l7.87-9.06m-7.87 9.06l7.87-9.06" class="E F"/><path d="M273.148 280.702h70m0 0v58.89m0 0h-70m0 0v-58.89" class="G H I"/></g><path d="M328.266 297.113c-.5 3.47 4.4 17.43-3.03 20.8-7.42 3.36-34.6-.5-41.52-.6m44.55-20.2c-.5 3.47 4.4 17.43-3.03 20.8-7.42 3.36-34.6-.5-41.52-.6" class="B C D"/><use xlink:href="#B" class="J"/><use xlink:href="#B" class="B C D"/><text y="357.702" fill="#000" style="white-space:pre" x="295.37" class="K L M">intial</text><g class="B C"><path d="M151.777 287.102l5.25-6.04m-5.25 6.04l5.25-6.04m-4.86 11.68l10.5-12.07m-10.5 12.07l10.5-12.07m-10.76 18.47l15.75-18.11m-15.75 18.11l15.75-18.11m-15.35 23.75l20.99-24.15m-20.99 24.15l20.99-24.15m-21.26 30.55l26.25-30.19m-26.25 30.19l26.25-30.19m-26.51 36.59l32.15-36.98m-32.15 36.98l32.15-36.98m-31.75 42.62l36.74-42.26m-36.74 42.26l36.74-42.26m-37 48.66l42.64-49.06m-42.64 49.06l42.64-49.06m-42.25 54.7l47.24-54.34m-47.24 54.34l47.24-54.34m-47.5 60.74l53.14-61.13m-53.14 61.13l53.14-61.13m-50.12 63.75l55.11-63.39m-55.11 63.39l55.11-63.39m-50.12 63.75l55.76-64.15m-55.76 64.15l55.76-64.15m-50.12 63.76l55.11-63.4m-55.11 63.4l55.11-63.4m-50.12 63.76l54.45-62.64m-54.45 62.64l54.45-62.64m-48.81 62.24l49.2-56.6m-49.2 56.6l49.2-56.6m-44.21 56.96l43.95-50.56m-43.95 50.56l43.95-50.56m-38.31 50.17l38.71-44.53m-38.71 44.53l38.71-44.53m-33.72 44.89l33.45-38.49m-33.45 38.49l33.45-38.49m-27.81 38.1l27.55-31.7m-27.55 31.7l27.55-31.7m-22.56 32.06l22.96-26.42m-22.96 26.42l22.96-26.42m-17.32 26.02l17.06-19.62m-17.06 19.62l17.06-19.62m-12.07 19.98l12.46-14.34m-12.46 14.34l12.46-14.34m-6.82 13.95l6.56-7.55m-6.56 7.55l6.56-7.55" class="E F"/><path d="M152.037 280.702h72.22m0 0v61.11m0 0h-72.22m0 0v-61.11" class="G H I"/></g><path d="M217.842 322.283l-28.48-1.42m28.48 1.42l-28.48-1.42m0 0v-21.27m0 21.27v-21.27m0 0v21.63m0-21.63v21.63m0 0l-31.77-.36m31.77.36l-31.77-.36" class="B C D"/><use xlink:href="#C" class="J"/><use xlink:href="#C" class="B C D"/><text y="361.036" fill="#000" style="white-space:pre" x="167.593" class="K L M">middle</text><g class="B C"><path d="M29.555 288.214l5.25-6.04m-5.25 6.04l5.25-6.04m-4.86 11.68l10.5-12.07m-10.5 12.07l10.5-12.07m-10.76 18.47l15.75-18.11m-15.75 18.11l15.75-18.11m-15.35 23.75l20.99-24.15m-20.99 24.15l20.99-24.15m-21.26 30.55l26.25-30.19m-26.25 30.19l26.25-30.19m-26.51 36.59l32.15-36.98m-32.15 36.98l32.15-36.98m-31.75 42.62l36.74-42.26m-36.74 42.26l36.74-42.26m-37 48.66l42.64-49.06m-42.64 49.06l42.64-49.06m-42.25 54.7l47.24-54.34m-47.24 54.34l47.24-54.34m-46.19 59.23l51.83-59.62m-51.83 59.62l51.83-59.62m-46.84 59.98l51.83-59.62m-51.83 59.62l51.83-59.62m-46.19 59.23l51.83-59.63m-51.83 59.63l51.83-59.63m-46.84 59.99l51.83-59.63m-51.83 59.63l51.83-59.63m-46.84 59.99l51.17-58.87m-51.17 58.87l51.17-58.87m-45.53 58.47l45.27-52.07m-45.27 52.07l45.27-52.07m-40.28 52.43l40.02-46.04m-40.02 46.04l40.02-46.04m-34.38 45.65l34.77-40m-34.77 40l34.77-40m-29.78 40.36l29.52-33.97m-29.52 33.97l29.52-33.97m-23.88 33.57l24.27-27.92m-24.27 27.92l24.27-27.92m-19.28 28.28l19.02-21.88m-19.02 21.88l19.02-21.88m-13.38 21.49l13.12-15.1m-13.12 15.1l13.12-15.1m-8.13 15.46l8.53-9.81m-8.53 9.81l8.53-9.81m-2.89 9.41l2.62-3.02m-2.62 3.02l2.62-3.02" class="E F"/><path d="M29.815 281.814h71.11m0 0v58.89m0 0h-71.11m0 0v-58.89" class="G H I"/></g><path d="M49.283 296.534c.5 3.23-3.9 15.85 2.99 19.36 6.89 3.52 31.94 1.44 38.33 1.72m-41.32-21.08c.5 3.23-3.9 15.85 2.99 19.36 6.89 3.52 31.94 1.44 38.33 1.72" class="B C D"/><use xlink:href="#D" class="J"/><use xlink:href="#D" class="B C D"/><text y="359.925" fill="#000" style="white-space:pre" x="50.926" class="K L M">final</text></svg>