<svg xmlns="http://www.w3.org/2000/svg" width="379" height="373" xmlns:v="https://vecta.io/nano"><style><![CDATA[.B{font-family:Virgil, Segoe UI Emoji}.C{direction:ltr}.D{fill:#000}.E{font-size:20px}.F{font-size:16px}]]></style><defs><style>@font-face{font-family:"Virgil";src:url("../Virgil.woff2")}</style></defs><path fill="#fff" d="M0 0h379v373H0z"/><path d="M10 10h359M10 10h359m0 0v353m0-353v353m0 0H10m359 0H10m0 0V10m0 353V10" stroke="#000" fill="none" stroke-linecap="round"/><text y="54" style="white-space:pre" x="107" class="B C D E">How to remember</text><g transform="matrix(1 0 0 1 36 99)" class="B C D E"><text y="18" style="white-space:pre" x="0">1. Hockey khelo: looks like hockey</text><text y="43" style="white-space:pre" x="0">and a ball is placed upon it</text><text y="93" style="white-space:pre" x="0">2. Janch: check/inspect </text><text y="118" style="white-space:pre" x="0">the hockey stick,no playing,balls</text><text y="143" style="white-space:pre" x="0">are below the hockey.</text></g><g transform="matrix(1 0 0 1 47.024794 285.453555)" class="B C D F"><text y="14" style="white-space:pre" x="0">note: these are connected to alif. </text><text y="34" style="white-space:pre" x="0">note the isolated character, it looks</text><text y="54" style="white-space:pre" x="0">like a upside down 2 </text></g><text y="79.454" fill="#e67700" style="white-space:pre" x="88.469" class="B C F">hockey khelo, janch karo</text></svg>