<svg xmlns="http://www.w3.org/2000/svg" width="379" height="373" xmlns:v="https://vecta.io/nano"><style><![CDATA[.B{font-family:Virgil, Segoe UI Emoji}.C{fill:#000}.D{direction:ltr}.E{font-size:22.384px}]]></style><defs><style>@font-face{font-family:"Virgil";src:url("https://excalidraw.com/Virgil.woff2")} @font-face{font-family:"Cascadia";src:url("https://excalidraw.com/Cascadia.woff2")}</style></defs><path fill="#fff" d="M0 0h379v373H0z"/><path d="M9.92 10.99c75.25-3.37 148.55-2.49 358.89-.06M9.43 9.65l359.06.67m-.2.4l1.16 353.18m-1.06-353.87l.16 353.06m-.69-1.04c-96.35 2.93-193.24 3.13-358.81 1.89m359.63-.59c-71.52-1.4-142.76-.65-358.89-.14m.68-.2c-2.04-99.22-1.11-200.26.49-352.6m-.35 352.26L9.67 10.35" stroke="#000" fill="none" stroke-linecap="round"/><text y="56" font-size="20" style="white-space:pre" x="107" class="B C D">उर्दू के 3 नियम</text><g transform="matrix(1 0 0 1 46.666667 85.013829)" class="B C D E"><text y="21.5" style="white-space:pre" x="0">1. उर्दू दाएँ से बाएं पढ़ी/लिखी जाती </text><text y="51" style="white-space:pre" x="0">है।</text><text y="110" style="white-space:pre" x="0">2. एक उर्दू अक्षर के</text><text y="139.5" style="white-space:pre" x="0">आमतौर पर 3 आकार होते हैं।</text><text y="198.5" style="white-space:pre" x="0">3. कभी-कभी कुछ स्वर</text><text y="228" style="white-space:pre" x="0">छोड़ दिया जाते है।</text></g></svg>