<svg xmlns="http://www.w3.org/2000/svg" width="390" height="376.667" xmlns:v="https://vecta.io/nano"><style><![CDATA[.B{font-family:Virgil, Segoe UI Emoji}.C{fill:#000}.D{direction:ltr}.E{font-size:17.956px}.F{text-anchor:middle}]]></style><defs><style>@font-face{font-family:"Virgil";src:url("../Virgil.woff2")}</style></defs><path fill="#fff" d="M0 0h390v376.667H0z"/><g fill="none" stroke-linecap="round"><path d="M9.74 16.4l5.25-6.04M9.74 16.4l5.25-6.04m-4.86 11.68l10.5-12.07m-10.5 12.07l10.5-12.07M9.87 28.44l15.75-18.11M9.87 28.44l15.75-18.11M10.27 34.08L31.26 9.93M10.27 34.08L31.26 9.93M10 40.48l26.25-30.19M10 40.48l26.25-30.19M9.74 46.88L41.89 9.9M9.74 46.88L41.89 9.9M10.14 52.52l36.74-42.26M10.14 52.52l36.74-42.26m-37 48.66L52.52 9.86M9.88 58.92L52.52 9.86m-42.25 54.7l47.24-54.34M10.27 64.56l47.24-54.34m-47.5 60.74L63.15 9.83M10.01 70.96L63.15 9.83M9.75 77.36l58.39-67.17M9.75 77.36l58.39-67.17M10.14 83L73.78 9.79M10.14 83L73.78 9.79M9.88 89.4l68.89-79.25M9.88 89.4l68.89-79.25M10.28 95.04L84.41 9.76M10.28 95.04L84.41 9.76m-74.4 91.68L89.4 10.12m-79.39 91.32L89.4 10.12M9.75 107.84L95.04 9.72M9.75 107.84L95.04 9.72M10.15 113.48l89.88-103.4m-89.88 103.4l89.88-103.4M9.89 119.88L105.67 9.69M9.89 119.88L105.67 9.69M10.28 125.52L110.66 10.05M10.28 125.52L110.66 10.05M10.02 131.92L116.3 9.66M10.02 131.92L116.3 9.66M9.76 138.32l111.53-128.3M9.76 138.32l111.53-128.3M10.15 143.96L126.27 10.38M10.15 143.96L126.27 10.38M9.89 150.36L131.92 9.98M9.89 150.36L131.92 9.98M10.29 156L136.91 10.34M10.29 156L136.91 10.34M10.02 162.4L142.55 9.95M10.02 162.4L142.55 9.95M9.76 168.8L147.54 10.31M9.76 168.8L147.54 10.31M10.16 174.44L153.18 9.91M10.16 174.44L153.18 9.91M9.9 180.84L158.17 10.27M9.9 180.84L158.17 10.27M10.29 186.48L163.81 9.88M10.29 186.48L163.81 9.88m-153.78 183L168.8 10.24M10.03 192.88L168.8 10.24M9.77 199.27L174.44 9.84M9.77 199.27L174.44 9.84M10.16 204.92L179.43 10.2M10.16 204.92L179.43 10.2M9.9 211.32L185.07 9.81M9.9 211.32L185.07 9.81M10.3 216.96L190.06 10.17M10.3 216.96L190.06 10.17M10.03 223.36L195.7 9.77M10.03 223.36L195.7 9.77M9.77 229.75L200.69 10.13M9.77 229.75L200.69 10.13M10.17 235.4L206.33 9.74M10.17 235.4L206.33 9.74M9.91 241.8L211.32 10.1M9.91 241.8L211.32 10.1M10.3 247.44L216.96 9.7M10.3 247.44L216.96 9.7M10.04 253.84L221.95 10.06M10.04 253.84L221.95 10.06M9.78 260.23L227.59 9.67M9.78 260.23L227.59 9.67M10.17 265.88L232.58 10.03M10.17 265.88L232.58 10.03M9.91 272.27L238.22 9.64M9.91 272.27L238.22 9.64M10.3 277.92L243.21 10M10.3 277.92L243.21 10M10.04 284.32L248.19 10.36M10.04 284.32L248.19 10.36M9.78 290.71L253.84 9.96M9.78 290.71L253.84 9.96M10.18 296.36L258.82 10.32M10.18 296.36L258.82 10.32M9.92 302.75L264.47 9.93M9.92 302.75L264.47 9.93M10.31 308.4L269.45 10.29M10.31 308.4L269.45 10.29M10.05 314.8L275.1 9.89M10.05 314.8L275.1 9.89M9.79 321.19L280.08 10.25M9.79 321.19L280.08 10.25M10.18 326.84L285.73 9.86M10.18 326.84L285.73 9.86M9.92 333.23L290.71 10.22M9.92 333.23L290.71 10.22M10.31 338.88L296.36 9.82M10.31 338.88L296.36 9.82M10.05 345.27L301.34 10.18M10.05 345.27L301.34 10.18M9.79 351.67L306.99 9.79M9.79 351.67L306.99 9.79M10.19 357.32L311.97 10.15M10.19 357.32L311.97 10.15M9.92 363.71L317.62 9.75M9.92 363.71L317.62 9.75M11.63 367.85L322.6 10.11M11.63 367.85L322.6 10.11M16.62 368.21L328.25 9.72M16.62 368.21L328.25 9.72M22.26 367.81L333.23 10.08M22.26 367.81L333.23 10.08M27.25 368.17L338.88 9.69M27.25 368.17L338.88 9.69M32.89 367.78L343.86 10.05M32.89 367.78L343.86 10.05M37.88 368.14L349.51 9.65M37.88 368.14L349.51 9.65M43.52 367.74L354.49 10.01M43.52 367.74L354.49 10.01M48.51 368.1L359.48 10.37M48.51 368.1L359.48 10.37M54.15 367.71L365.12 9.98M54.15 367.71L365.12 9.98M59.14 368.07L370.11 10.34M59.14 368.07L370.11 10.34M64.78 367.67L375.75 9.94M64.78 367.67L375.75 9.94M69.77 368.03L380.74 10.3M69.77 368.03L380.74 10.3M75.41 367.64L380.48 16.7M75.41 367.64L380.48 16.7M80.4 368L380.87 22.34M80.4 368L380.87 22.34M86.04 367.61L380.61 28.74M86.04 367.61L380.61 28.74M91.03 367.97L380.35 35.14M91.03 367.97L380.35 35.14M96.02 368.33L380.75 40.78M96.02 368.33L380.75 40.78M101.66 367.93L380.48 47.18M101.66 367.93L380.48 47.18M106.65 368.29L380.88 52.82M106.65 368.29L380.88 52.82M112.29 367.9L380.62 59.22M112.29 367.9L380.62 59.22M117.28 368.26L380.36 65.62M117.28 368.26L380.36 65.62M122.92 367.86l257.83-296.6m-257.83 296.6l257.83-296.6M127.91 368.22L380.49 77.66M127.91 368.22L380.49 77.66M133.55 367.83L380.88 83.3M133.55 367.83L380.88 83.3M138.54 368.19L380.62 89.7M138.54 368.19L380.62 89.7M144.18 367.79L380.36 96.1M144.18 367.79L380.36 96.1M149.17 368.15l231.59-266.41M149.17 368.15l231.59-266.41M154.81 367.76l225.68-259.62M154.81 367.76l225.68-259.62M159.8 368.12l221.09-254.34M159.8 368.12l221.09-254.34M165.44 367.72l215.19-247.54M165.44 367.72l215.19-247.54m-210.2 247.9l209.94-241.5m-209.94 241.5l209.94-241.5m-204.3 241.11l204.69-235.47M176.07 367.69l204.69-235.47m-199.7 235.83L380.5 138.62M181.06 368.05L380.5 138.62M186.7 367.65l194.19-223.39M186.7 367.65l194.19-223.39m-189.2 223.76l188.94-217.36M191.69 368.02l188.94-217.36m-183.3 216.96l183.04-210.56M197.33 367.62l183.04-210.56M202.32 367.98L380.77 162.7M202.32 367.98L380.77 162.7M207.3 368.34L380.5 169.1M207.3 368.34L380.5 169.1M212.95 367.95L380.9 174.74M212.95 367.95L380.9 174.74M217.93 368.31l162.71-187.17M217.93 368.31l162.71-187.17M223.58 367.91l156.8-180.37m-156.8 180.37l156.8-180.37M228.56 368.27l152.21-175.09M228.56 368.27l152.21-175.09m-146.56 174.7l146.3-168.3m-146.3 168.3l146.3-168.3M239.19 368.24l141.06-162.27M239.19 368.24l141.06-162.27M244.84 367.84l135.8-156.22m-135.8 156.22l135.8-156.22M249.82 368.2l130.56-150.18M249.82 368.2l130.56-150.18M255.47 367.81l125.3-144.15m-125.3 144.15l125.3-144.15M260.45 368.17l120.06-138.11M260.45 368.17l120.06-138.11M266.1 367.77l114.15-131.32M266.1 367.77l114.15-131.32M271.08 368.13L380.65 242.1M271.08 368.13L380.65 242.1M276.73 367.74L380.39 248.5M276.73 367.74L380.39 248.5m-98.68 119.6l99.07-113.96M281.71 368.1l99.07-113.96M287.36 367.7l93.16-107.16M287.36 367.7l93.16-107.16m-88.18 107.52l87.92-101.13m-87.92 101.13l87.92-101.13m-82.27 100.74l82.66-95.09m-82.66 95.09l82.66-95.09m-77.68 95.45l77.42-89.06m-77.42 89.06l77.42-89.06m-71.77 88.67l72.16-83.02m-72.16 83.02l72.16-83.02M313.61 368l66.91-76.98M313.61 368l66.91-76.98m-61.93 77.34l61.67-70.95m-61.67 70.95l61.67-70.95m-56.02 70.55l56.42-64.9m-56.42 64.9l56.42-64.9m-51.44 65.26l51.17-58.87m-51.17 58.87l51.17-58.87m-45.52 58.48l45.92-52.83m-45.92 52.83l45.92-52.83m-40.94 53.19l40.68-46.8m-40.68 46.8l40.68-46.8m-35.03 46.4l34.77-40m-34.77 40l34.77-40m-29.79 40.36l30.18-34.71m-30.18 34.71l30.18-34.71m-24.53 34.32l24.27-27.93m-24.27 27.93l24.27-27.93m-19.29 28.29l19.68-22.64m-19.68 22.64l19.68-22.64m-14.03 22.24l13.77-15.85m-13.77 15.85l13.77-15.85m-8.79 16.21l8.53-9.81m-8.53 9.81l8.53-9.81m-2.88 9.42l3.28-3.77m-3.28 3.77l3.28-3.77" stroke="#fff" stroke-width=".5"/><path d="M10 10h370M10 10h370m0 0v356.67M380 10v356.67m0 0H10m370 0H10m0 0V10m0 356.67V10" stroke="#000"/></g><text y="44.569" font-size="20" style="white-space:pre" x="130.497" class="B C D">The H sounds</text><g transform="matrix(1 0 0 1 31.830731 60.457994)" class="B C D E"><text y="16" style="white-space:pre" x="0">1. do chasmi he</text><text y="62" style="white-space:pre" x="0">2. mix them with the letters </text><text y="85" style="white-space:pre" x="0">you already learned, imagine </text><text y="108" style="white-space:pre" x="0">putting on glasses on these letter. </text><text y="131" style="white-space:pre" x="0">They change their sounds</text><text y="177" style="white-space:pre" x="0">3. Imagine letters got their swag on </text><text y="200" style="white-space:pre" x="0">with the glasses, </text><text y="223" style="white-space:pre" x="0">so they be spelled differently with</text><text y="246" style="white-space:pre" x="0">more air </text></g><g transform="matrix(1 0 0 1 82.205764 318.147583)" class="B C D F"><text x="112" y="13" font-size="14.913" style="white-space:pre">Note:there are more H sounds,</text><text x="112" y="32" font-size="14.913" style="white-space:pre">we'll learn them later</text></g></svg>