<svg xmlns="http://www.w3.org/2000/svg" width="379" height="373" xmlns:v="https://vecta.io/nano"><style><![CDATA[.B{font-family:Virgil, Segoe UI Emoji}.C{direction:ltr}.D{fill:#000}.E{font-size:20px}]]></style><defs><style>@font-face{font-family:"Virgil";src:url("../Virgil.woff2")}</style></defs><path fill="#fff" d="M0 0h379v373H0z"/><path d="M10 10h359M10 10h359m0 0v353m0-353v353m0 0H10m359 0H10m0 0V10m0 353V10" stroke="#000" fill="none" stroke-linecap="round"/><text y="54" style="white-space:pre" x="107" class="B C D E">How to remember</text><g transform="matrix(1 0 0 1 36 99)" class="B C D E"><text y="18" style="white-space:pre" x="0">1. The dots placement/sequence</text><text y="68" style="white-space:pre" x="0">2. Baap lives on ground floor so</text><text y="93" style="white-space:pre" x="0">dots below the line</text><text y="143" style="white-space:pre" x="0">3. Nitish is a boy,so he lives on</text><text y="168" style="white-space:pre" x="0">Top floor , dots above line</text></g><g transform="matrix(1 0 0 1 47.024794 285.453555)" class="B C D"><text y="14" font-size="16" style="white-space:pre" x="0">note: key thing to remeber is dot </text><text y="34" font-size="16" style="white-space:pre" x="0">position and their sequence(1,2,3) </text></g><text y="79.454" font-size="16" fill="#e67700" style="white-space:pre" x="116.469" class="B C">baap and nitish</text></svg>