<svg xmlns="http://www.w3.org/2000/svg" width="386.667" height="358.889" xmlns:v="https://vecta.io/nano"><style><![CDATA[.B{font-family:Virgil, Segoe UI Emoji}.C{fill:#000}.D{direction:ltr}.E{font-size:20px}.F{font-size:16.846px}]]></style><defs><style>@font-face{font-family:"Virgil";src:url("../Virgil.woff2")}</style></defs><path fill="#fff" d="M0 0h386.667v358.889H0z"/><g fill="none" stroke-linecap="round"><path d="M9.74 16.4l5.25-6.04M9.74 16.4l5.25-6.04m-4.86 11.68l10.5-12.07m-10.5 12.07l10.5-12.07M9.87 28.44l15.75-18.11M9.87 28.44l15.75-18.11M10.27 34.08L31.26 9.93M10.27 34.08L31.26 9.93M10 40.48l26.25-30.19M10 40.48l26.25-30.19M9.74 46.88L41.89 9.9M9.74 46.88L41.89 9.9M10.14 52.52l36.74-42.26M10.14 52.52l36.74-42.26m-37 48.66L52.52 9.86M9.88 58.92L52.52 9.86m-42.25 54.7l47.24-54.34M10.27 64.56l47.24-54.34m-47.5 60.74L63.15 9.83M10.01 70.96L63.15 9.83M9.75 77.36l58.39-67.17M9.75 77.36l58.39-67.17M10.14 83L73.78 9.79M10.14 83L73.78 9.79M9.88 89.4l68.89-79.25M9.88 89.4l68.89-79.25M10.28 95.04L84.41 9.76M10.28 95.04L84.41 9.76m-74.4 91.68L89.4 10.12m-79.39 91.32L89.4 10.12M9.75 107.84L95.04 9.72M9.75 107.84L95.04 9.72M10.15 113.48l89.88-103.4m-89.88 103.4l89.88-103.4M9.89 119.88L105.67 9.69M9.89 119.88L105.67 9.69M10.28 125.52L110.66 10.05M10.28 125.52L110.66 10.05M10.02 131.92L116.3 9.66M10.02 131.92L116.3 9.66M9.76 138.32l111.53-128.3M9.76 138.32l111.53-128.3M10.15 143.96L126.27 10.38M10.15 143.96L126.27 10.38M9.89 150.36L131.92 9.98M9.89 150.36L131.92 9.98M10.29 156L136.91 10.34M10.29 156L136.91 10.34M10.02 162.4L142.55 9.95M10.02 162.4L142.55 9.95M9.76 168.8L147.54 10.31M9.76 168.8L147.54 10.31M10.16 174.44L153.18 9.91M10.16 174.44L153.18 9.91M9.9 180.84L158.17 10.27M9.9 180.84L158.17 10.27M10.29 186.48L163.81 9.88M10.29 186.48L163.81 9.88m-153.78 183L168.8 10.24M10.03 192.88L168.8 10.24M9.77 199.27L174.44 9.84M9.77 199.27L174.44 9.84M10.16 204.92L179.43 10.2M10.16 204.92L179.43 10.2M9.9 211.32L185.07 9.81M9.9 211.32L185.07 9.81M10.3 216.96L190.06 10.17M10.3 216.96L190.06 10.17M10.03 223.36L195.7 9.77M10.03 223.36L195.7 9.77M9.77 229.75L200.69 10.13M9.77 229.75L200.69 10.13M10.17 235.4L206.33 9.74M10.17 235.4L206.33 9.74M9.91 241.8L211.32 10.1M9.91 241.8L211.32 10.1M10.3 247.44L216.96 9.7M10.3 247.44L216.96 9.7M10.04 253.84L221.95 10.06M10.04 253.84L221.95 10.06M9.78 260.23L227.59 9.67M9.78 260.23L227.59 9.67M10.17 265.88L232.58 10.03M10.17 265.88L232.58 10.03M9.91 272.27L238.22 9.64M9.91 272.27L238.22 9.64M10.3 277.92L243.21 10M10.3 277.92L243.21 10M10.04 284.32L248.19 10.36M10.04 284.32L248.19 10.36M9.78 290.71L253.84 9.96M9.78 290.71L253.84 9.96M10.18 296.36L258.82 10.32M10.18 296.36L258.82 10.32M9.92 302.75L264.47 9.93M9.92 302.75L264.47 9.93M10.31 308.4L269.45 10.29M10.31 308.4L269.45 10.29M10.05 314.8L275.1 9.89M10.05 314.8L275.1 9.89M9.79 321.19L280.08 10.25M9.79 321.19L280.08 10.25M10.18 326.84L285.73 9.86M10.18 326.84L285.73 9.86M9.92 333.23L290.71 10.22M9.92 333.23L290.71 10.22M10.31 338.88L296.36 9.82M10.31 338.88L296.36 9.82M10.05 345.27L301.34 10.18M10.05 345.27L301.34 10.18M11.1 350.16L306.99 9.79M11.1 350.16L306.99 9.79M16.75 349.77L311.97 10.15M16.75 349.77L311.97 10.15M21.73 350.13L317.62 9.75M21.73 350.13L317.62 9.75M27.38 349.73L322.6 10.11M27.38 349.73L322.6 10.11M32.36 350.09L328.25 9.72M32.36 350.09L328.25 9.72M38.01 349.7L333.23 10.08M38.01 349.7L333.23 10.08M42.99 350.06L338.88 9.69M42.99 350.06L338.88 9.69M48.64 349.66L343.86 10.05M48.64 349.66L343.86 10.05M53.62 350.02L349.51 9.65M53.62 350.02L349.51 9.65M59.27 349.63L354.49 10.01M59.27 349.63L354.49 10.01M64.25 349.99L359.48 10.37M64.25 349.99L359.48 10.37M69.24 350.35L365.12 9.98M69.24 350.35L365.12 9.98M74.88 349.96L370.11 10.34M74.88 349.96L370.11 10.34M79.87 350.32L375.75 9.94M79.87 350.32L375.75 9.94M85.51 349.92L379.43 11.81M85.51 349.92L379.43 11.81M90.5 350.28L379.17 18.21M90.5 350.28L379.17 18.21M96.14 349.89L378.91 24.61M96.14 349.89L378.91 24.61M101.13 350.25l278.17-320m-278.17 320l278.17-320m-272.53 319.6l272.27-313.2m-272.27 313.2l272.27-313.2M111.76 350.21L379.43 42.29M111.76 350.21L379.43 42.29M117.4 349.82L379.17 48.69M117.4 349.82L379.17 48.69M122.39 350.18L378.91 55.09M122.39 350.18L378.91 55.09M128.03 349.78L379.31 60.73M128.03 349.78L379.31 60.73M133.02 350.14L379.04 67.13M133.02 350.14L379.04 67.13M138.66 349.75L379.44 72.77M138.66 349.75L379.44 72.77M143.65 350.11L379.18 79.17M143.65 350.11L379.18 79.17M149.3 349.71L378.92 85.57M149.3 349.71L378.92 85.57m-224.64 264.5L379.31 91.21M154.28 350.07L379.31 91.21M159.93 349.68L379.05 97.61M159.93 349.68L379.05 97.61M164.91 350.04l214.53-246.79M164.91 350.04l214.53-246.79m-208.88 246.4l208.62-240m-208.62 240l208.62-240M175.54 350.01l203.38-233.96M175.54 350.01l203.38-233.96M181.19 349.61l198.13-227.92M181.19 349.61l198.13-227.92M186.17 349.97l192.88-221.88M186.17 349.97l192.88-221.88M191.16 350.33l188.29-216.6m-188.29 216.6l188.29-216.6M196.8 349.94l182.39-209.81M196.8 349.94l182.39-209.81M201.79 350.3l177.14-203.77M201.79 350.3l177.14-203.77M207.43 349.9l171.89-197.73M207.43 349.9l171.89-197.73m-166.9 198.09l166.64-191.69M212.42 350.26l166.64-191.69m-161 191.3l161.39-185.66M218.06 349.87l161.39-185.66m-156.4 186.02l156.14-179.62M223.05 350.23l156.14-179.62m-150.5 179.22L378.93 177M228.69 349.83L378.93 177M233.68 350.19l145.64-167.54M233.68 350.19l145.64-167.54m-140 167.15l139.74-160.75M239.32 349.8l139.74-160.75M244.31 350.16l135.15-155.47M244.31 350.16l135.15-155.47M249.95 349.76L379.2 201.09M249.95 349.76L379.2 201.09M254.94 350.12l123.99-142.64M254.94 350.12l123.99-142.64M260.58 349.73l118.75-136.6m-118.75 136.6l118.75-136.6M265.57 350.09l113.5-130.57m-113.5 130.57l113.5-130.57M271.21 349.7l108.25-124.53M271.21 349.7l108.25-124.53M276.2 350.06l103-118.49m-103 118.49l103-118.49m-97.36 118.09l97.1-111.7m-97.1 111.7l97.1-111.7m-92.11 112.06l92.5-106.41m-92.5 106.41l92.5-106.41m-86.86 106.02l86.6-99.63m-86.6 99.63l86.6-99.63m-81.61 99.99l81.35-93.59m-81.35 93.59l81.35-93.59m-76.36 93.95l76.76-88.3m-76.76 88.3l76.76-88.3m-71.12 87.9l70.85-81.51m-70.85 81.51l70.85-81.51m-65.86 81.87l66.26-76.22m-66.26 76.22l66.26-76.22m-60.62 75.83l60.36-69.44m-60.36 69.44l60.36-69.44m-55.37 69.8l55.11-63.4m-55.11 63.4l55.11-63.4m-49.47 63l49.86-57.36m-49.86 57.36l49.86-57.36m-44.87 57.72l44.61-51.32m-44.61 51.32l44.61-51.32m-38.97 50.93l39.36-45.28m-39.36 45.28l39.36-45.28m-34.37 45.64l34.11-39.25m-34.11 39.25l34.11-39.25m-28.47 38.85l28.21-32.45m-28.21 32.45l28.21-32.45m-23.22 32.81L379.22 323m-23.62 27.17L379.22 323m-17.98 26.78l17.71-20.38m-17.71 20.38l17.71-20.38m-12.72 20.74l13.12-15.09m-13.12 15.09l13.12-15.09m-7.48 14.69l7.22-8.3m-7.22 8.3l7.22-8.3" stroke="#fff" stroke-width=".5"/><path d="M10 10h366.67M10 10h366.67m0 0v338.89m0-338.89v338.89m0 0H10m366.67 0H10m0 0V10m0 338.89V10" stroke="#000"/></g><text y="107.667" style="white-space:pre" x="88.889" class="B C D E">L looks like ulti lathi</text><g transform="matrix(1 0 0 1 51.286237 272.128257)" class="B C D F"><text y="15" style="white-space:pre" x="0">be careful: learn to distinguish</text><text y="36" style="white-space:pre" x="0">Alif(he usually stands alone) from </text><text y="57" style="white-space:pre" x="0">Lam(he connects with letters)</text></g><g transform="matrix(1 0 0 1 32.635407 148.494057)" class="B C D E"><text y="18" style="white-space:pre" x="0">Mim just memorize the letter</text><text y="43" style="white-space:pre" x="0">maybe it looks like, </text><text y="68" style="white-space:pre" x="0">mombati ki drop(ulti)(Candle drop)</text></g><text x="178.082" y="48.483" text-anchor="middle" style="white-space:pre" class="B C D E">How to remember</text></svg>