<svg xmlns="http://www.w3.org/2000/svg" width="368" height="364.444" xmlns:v="https://vecta.io/nano"><style><![CDATA[.B{font-family:Virgil, Segoe UI Emoji}.C{font-size:20px}.D{fill:#000}.E{direction:ltr}.F{text-anchor:middle}]]></style><defs><style>@font-face{font-family:"Virgil";src:url("../Virgil.woff2")}</style></defs><path fill="#fff" d="M0 0h368v364.444H0z"/><g fill="none" stroke-linecap="round"><path d="M9.74 16.4l5.25-6.04M9.74 16.4l5.25-6.04m-4.86 11.68l10.5-12.07m-10.5 12.07l10.5-12.07M9.87 28.44l15.75-18.11M9.87 28.44l15.75-18.11M10.27 34.08L31.26 9.93M10.27 34.08L31.26 9.93M10 40.48l26.25-30.19M10 40.48l26.25-30.19M9.74 46.88L41.89 9.9M9.74 46.88L41.89 9.9M10.14 52.52l36.74-42.26M10.14 52.52l36.74-42.26m-37 48.66L52.52 9.86M9.88 58.92L52.52 9.86m-42.25 54.7l47.24-54.34M10.27 64.56l47.24-54.34m-47.5 60.74L63.15 9.83M10.01 70.96L63.15 9.83M9.75 77.36l58.39-67.17M9.75 77.36l58.39-67.17M10.14 83L73.78 9.79M10.14 83L73.78 9.79M9.88 89.4l68.89-79.25M9.88 89.4l68.89-79.25M10.28 95.04L84.41 9.76M10.28 95.04L84.41 9.76m-74.4 91.68L89.4 10.12m-79.39 91.32L89.4 10.12M9.75 107.84L95.04 9.72M9.75 107.84L95.04 9.72M10.15 113.48l89.88-103.4m-89.88 103.4l89.88-103.4M9.89 119.88L105.67 9.69M9.89 119.88L105.67 9.69M10.28 125.52L110.66 10.05M10.28 125.52L110.66 10.05M10.02 131.92L116.3 9.66M10.02 131.92L116.3 9.66M9.76 138.32l111.53-128.3M9.76 138.32l111.53-128.3M10.15 143.96L126.27 10.38M10.15 143.96L126.27 10.38M9.89 150.36L131.92 9.98M9.89 150.36L131.92 9.98M10.29 156L136.91 10.34M10.29 156L136.91 10.34M10.02 162.4L142.55 9.95M10.02 162.4L142.55 9.95M9.76 168.8L147.54 10.31M9.76 168.8L147.54 10.31M10.16 174.44L153.18 9.91M10.16 174.44L153.18 9.91M9.9 180.84L158.17 10.27M9.9 180.84L158.17 10.27M10.29 186.48L163.81 9.88M10.29 186.48L163.81 9.88m-153.78 183L168.8 10.24M10.03 192.88L168.8 10.24M9.77 199.27L174.44 9.84M9.77 199.27L174.44 9.84M10.16 204.92L179.43 10.2M10.16 204.92L179.43 10.2M9.9 211.32L185.07 9.81M9.9 211.32L185.07 9.81M10.3 216.96L190.06 10.17M10.3 216.96L190.06 10.17M10.03 223.36L195.7 9.77M10.03 223.36L195.7 9.77M9.77 229.75L200.69 10.13M9.77 229.75L200.69 10.13M10.17 235.4L206.33 9.74M10.17 235.4L206.33 9.74M9.91 241.8L211.32 10.1M9.91 241.8L211.32 10.1M10.3 247.44L216.96 9.7M10.3 247.44L216.96 9.7M10.04 253.84L221.95 10.06M10.04 253.84L221.95 10.06M9.78 260.23L227.59 9.67M9.78 260.23L227.59 9.67M10.17 265.88L232.58 10.03M10.17 265.88L232.58 10.03M9.91 272.27L238.22 9.64M9.91 272.27L238.22 9.64M10.3 277.92L243.21 10M10.3 277.92L243.21 10M10.04 284.32L248.19 10.36M10.04 284.32L248.19 10.36M9.78 290.71L253.84 9.96M9.78 290.71L253.84 9.96M10.18 296.36L258.82 10.32M10.18 296.36L258.82 10.32M9.92 302.75L264.47 9.93M9.92 302.75L264.47 9.93M10.31 308.4L269.45 10.29M10.31 308.4L269.45 10.29M10.05 314.8L275.1 9.89M10.05 314.8L275.1 9.89M9.79 321.19L280.08 10.25M9.79 321.19L280.08 10.25M10.18 326.84L285.73 9.86M10.18 326.84L285.73 9.86M9.92 333.23L290.71 10.22M9.92 333.23L290.71 10.22M10.31 338.88L296.36 9.82M10.31 338.88L296.36 9.82M10.05 345.27L301.34 10.18M10.05 345.27L301.34 10.18M9.79 351.67L306.99 9.79M9.79 351.67L306.99 9.79M11.5 355.81L311.97 10.15M11.5 355.81L311.97 10.15M17.14 355.41L317.62 9.75M17.14 355.41L317.62 9.75M22.13 355.77L322.6 10.11M22.13 355.77L322.6 10.11M27.12 356.13L328.25 9.72M27.12 356.13L328.25 9.72M32.76 355.74L333.23 10.08M32.76 355.74L333.23 10.08M37.75 356.1L338.88 9.69M37.75 356.1L338.88 9.69M43.39 355.7L343.86 10.05M43.39 355.7L343.86 10.05M48.38 356.06L349.51 9.65M48.38 356.06L349.51 9.65M54.02 355.67L354.49 10.01M54.02 355.67L354.49 10.01M59.01 356.03l299.81-344.9M59.01 356.03l299.81-344.9M64.65 355.63L359.22 16.77M64.65 355.63L359.22 16.77M69.64 355.99L358.96 23.17M69.64 355.99L358.96 23.17M75.28 355.6L359.35 28.81M75.28 355.6L359.35 28.81M80.27 355.96L359.09 35.21M80.27 355.96L359.09 35.21M85.91 355.56L358.83 41.61M85.91 355.56L358.83 41.61M90.9 355.92L359.22 47.25M90.9 355.92L359.22 47.25M96.54 355.53L358.96 53.65M96.54 355.53L358.96 53.65M101.53 355.89L358.7 60.04M101.53 355.89L358.7 60.04M107.17 355.5L359.1 65.69M107.17 355.5L359.1 65.69M112.16 355.86L358.83 72.08M112.16 355.86L358.83 72.08M117.8 355.46L359.23 77.73M117.8 355.46L359.23 77.73M122.79 355.82L358.97 84.13M122.79 355.82L358.97 84.13m-230.54 271.3L358.71 90.52M128.43 355.43L358.71 90.52M133.42 355.79L359.1 96.17M133.42 355.79L359.1 96.17M138.4 356.15l220.44-253.59M138.4 356.15l220.44-253.59M144.05 355.75l215.18-247.54M144.05 355.75l215.18-247.54m-210.2 247.9l209.94-241.5m-209.94 241.5l209.94-241.5M154.68 355.72L358.71 121M154.68 355.72L358.71 121M159.66 356.08l199.45-229.43M159.66 356.08l199.45-229.43m-193.8 229.03l193.53-222.64M165.31 355.68l193.53-222.64m-188.55 223l188.95-217.35M170.29 356.04l188.95-217.35m-183.3 216.96l183.04-210.57M175.94 355.65l183.04-210.57M180.92 356.01l177.8-204.53m-177.8 204.53l177.8-204.53M186.57 355.61l172.54-198.48M186.57 355.61l172.54-198.48M191.55 355.97l167.3-192.45m-167.3 192.45l167.3-192.45M197.2 355.58l162.04-186.41M197.2 355.58l162.04-186.41M202.18 355.94l156.8-180.38m-156.8 180.38l156.8-180.38M207.83 355.55l150.89-173.59M207.83 355.55l150.89-173.59M212.81 355.91l146.31-168.3m-146.31 168.3l146.31-168.3m-140.66 167.9L358.85 194M218.46 355.51L358.85 194M223.44 355.87l135.81-156.22M223.44 355.87l135.81-156.22M229.09 355.48l129.9-149.44m-129.9 149.44l129.9-149.44m-124.92 149.8l124.66-143.4m-124.66 143.4l124.66-143.4m-119.01 143l119.4-137.36m-119.4 137.36l119.4-137.36M244.7 355.8l114.16-131.32M244.7 355.8l114.16-131.32M250.35 355.41l108.9-125.28m-108.9 125.28l108.9-125.28M255.33 355.77l103.66-119.25M255.33 355.77l103.66-119.25m-98.67 119.61l98.41-113.21m-98.41 113.21l98.41-113.21m-92.77 112.81l93.16-107.17m-93.16 107.17l93.16-107.17m-88.17 107.53l87.91-101.13m-87.91 101.13l87.91-101.13M276.59 355.7l82.67-95.1m-82.67 95.1l82.67-95.1m-77.68 95.46L359 267m-77.42 89.06L359 267m-71.78 88.66l71.52-82.26m-71.52 82.26l71.52-82.26m-66.53 82.62l66.92-76.98m-66.92 76.98l66.92-76.98m-61.28 76.59l61.02-70.19m-61.02 70.19l61.02-70.19m-56.03 70.55l56.42-64.91m-56.42 64.91l56.42-64.91m-50.78 64.51L359 297.48m-50.52 58.11L359 297.48m-45.53 58.47l45.27-52.07m-45.27 52.07l45.27-52.07m-39.63 51.68l40.02-46.04m-40.02 46.04l40.02-46.04m-35.03 46.4l34.77-40m-34.77 40l34.77-40m-29.12 39.61l29.52-33.97m-29.52 33.97l29.52-33.97m-24.54 34.33l24.28-27.93m-24.28 27.93l24.28-27.93m-18.63 27.53l18.36-21.13m-18.36 21.13l18.36-21.13m-13.38 21.49L359.14 340m-13.78 15.85L359.14 340m-8.13 15.46l7.87-9.06m-7.87 9.06l7.87-9.06m-2.89 9.42l3.28-3.78m-3.28 3.78l3.28-3.78" stroke="#fff" stroke-width=".5"/><path d="M10 10h348M10 10h348m0 0v344.44M358 10v344.44m0 0H10m348 0H10m0 0V10m0 344.44V10" stroke="#000"/></g><g transform="matrix(1 0 0 1 33.777778 77.666667)" class="B C D E"><text y="18" style="white-space:pre" x="0">let's make them letters</text><text y="43" style="white-space:pre" x="0">bulky or heavy using this symbol</text><text y="68" style="white-space:pre" x="0">looks like </text></g><text y="148.095" fill="#e67700" text-anchor="end" style="white-space:pre" direction="rtl" x="125.179" class="B C"> ط </text><text x="167.615" y="192.651" style="white-space:pre" class="B C D E F">(soft t)+ط = Ṭ(Hard T) </text><text x="184.152" y="230.899" style="white-space:pre" class="B C D E F">daal+ط = Ḍ(Hard D)</text><text x="157.589" y="269.093" style="white-space:pre" class="B C D E F">ray+ط = AṚ</text><text y="55.176" style="white-space:pre" x="88.181" class="B C D E">How to remember</text><text y="339.429" style="white-space:pre" x="72.401" class="B C D E">toye letter looks the same</text><text y="340.12" fill="#e67700" text-anchor="end" style="white-space:pre" direction="rtl" x="31.125" class="B C"> ط </text></svg>