<svg xmlns="http://www.w3.org/2000/svg" width="379" height="373" xmlns:v="https://vecta.io/nano"><style><![CDATA[.B{font-family:Virgil, Segoe UI Emoji}.C{fill:#000}.D{direction:ltr}.E{font-size:20.943px}]]></style><defs><style>@font-face{font-family:"Virgil";src:url("https://excalidraw.com/Virgil.woff2")} @font-face{font-family:"Cascadia";src:url("https://excalidraw.com/Cascadia.woff2")}</style></defs><path fill="#fff" d="M0 0h379v373H0z"/><path d="M10 10h359M10 10h359m0 0v353m0-353v353m0 0H10m359 0H10m0 0V10m0 353V10" stroke="#000" fill="none" stroke-linecap="round"/><text y="54" font-size="20" style="white-space:pre" x="114" class="B C D">कुछ और नियम</text><g transform="matrix(1 0 0 1 22.444444 76.111111)" class="B C D E"><text y="19.75" style="white-space:pre" x="0">1. उर्दू के अक्षर को</text><text y="47.5" style="white-space:pre" x="0">जोड़ के लिखा जाता है</text><text y="103" style="white-space:pre" x="0">2. नकाश और नस्तालीक़ फ़ॉन्ट</text><text y="130.75" style="white-space:pre" x="0">उपयोग किया जाता है</text><text y="186.25" style="white-space:pre" x="0">3. हम नकाश का उपयोग करने जा रहे हैं,</text><text y="214" style="white-space:pre" x="0">सीखना थोड़ा आसान है।</text></g><g transform="matrix(1 0 0 1 22.674043 314.766478)" class="B C D"><text y="15" font-size="15.491" style="white-space:pre" x="0">प्रकाशनों में नास्तिक फ़ॉन्ट का उपयोग किया जाता है। </text><text y="36" font-size="15.491" style="white-space:pre" x="0">ऑनलाइन नक्श लोकप्रिय है</text></g></svg>