<svg xmlns="http://www.w3.org/2000/svg" width="379" height="373" xmlns:v="https://vecta.io/nano"><style><![CDATA[.S{font-family:Virgil,Segoe UI Emoji}.T{fill:#000}.U{direction:ltr}.V{text-anchor:middle}.W{font-size:16px}.X{direction:rtl}.Y{text-anchor:end}.Z{stroke-linecap:round}.a{stroke-dasharray:1.5 7}]]></style><defs><style>@font-face{font-family:"Virgil";src:url("https://excalidraw.com/Virgil.woff2")} @font-face{font-family:"Cascadia";src:url("https://excalidraw.com/Cascadia.woff2")}</style></defs><path fill="#fff" d="M0 0h379v373H0z"/><path d="M10 10h359M10 10h359m0 0v353m0-353v353m0 0H10m359 0H10m0 0V10m0 353V10" stroke="#000" fill="none" class="Z"/><text x="55" y="57" font-size="20" style="white-space:pre" class="S T U V">*</text><text x="313" y="58.5" style="white-space:pre" class="S T U V W">sukoon/jazm</text><text x="325" y="320" font-size="23.077" style="white-space:pre" class="S T V X">ر̂ونگ</text><text x="205" y="320.75" font-size="25" style="white-space:pre" class="S T V X">سُكُونْ</text><text x="69.5" y="319" font-size="20" style="white-space:pre" class="S T U V">?</text><text x="187" y="61.727" font-size="20" style="white-space:pre" class="S T V X">ا +  ̂  = اُ</text><text x="337.935" y="344.897" style="white-space:pre" class="S T U W Y">rọng</text><text x="218.935" y="344.897" style="white-space:pre" class="S T U W Y">sukūn</text><text x="74.935" y="344.897" style="white-space:pre" class="S T U W Y">?</text><g stroke="#000" fill="none" class="Z"><path d="M241.9 186.944l-119.254-.178" stroke-width="1.5" class="a"/><path d="M129.568 142.545l19.909-29.799m-19.909 29.799l19.909-29.799m0 0l15.081 29.84m-15.081-29.84l15.081 29.84m70.146-24.526c4.928 3.374 29.655 14.386 29.59 20.217-.064 5.841-24.992 12.313-29.995 14.77m.404-34.987c4.928 3.374 29.655 14.386 29.59 20.217-.064 5.841-24.992 12.313-29.995 14.77"/><path d="M189.905 167.867l4.594-33.693m0 0l4.594-33.693" stroke-width="1.5" class="a"/></g><g class="S U"><text y="248.063" font-size="13.24" style="white-space:pre" x="25.5"> ̂ (jazm) or ْ (sukūn) indicates the absence of </text><text y="265.063" font-size="13.24" style="white-space:pre" x="25.5">a vowel following the letter over which it is written</text></g></svg>