<svg xmlns="http://www.w3.org/2000/svg" xmlns:xlink="http://www.w3.org/1999/xlink" width="379" height="373" xmlns:v="https://vecta.io/nano"><style><![CDATA[.B{font-family:Virgil, Segoe UI Emoji}.C{fill:#000}.D{text-anchor:middle}.E{direction:ltr}.F{stroke-linecap:round}.G{direction:rtl}.H{text-anchor:end}]]></style><defs><style>@font-face{font-family:"Virgil";src:url("../Virgil.woff2")}</style><path id="A" d="M238 260.5c0 .32-.03.64-.08.96-.06.31-.14.62-.25.92s-.25.59-.41.87a5.32 5.32 0 0 1-.55.79 5.3 5.3 0 0 1-.67.67 5.32 5.32 0 0 1-.79.55c-.28.16-.57.3-.87.41s-.61.19-.92.25c-.32.05-.64.08-.96.08s-.64-.03-.96-.08c-.31-.06-.62-.14-.92-.25s-.59-.25-.87-.41a5.32 5.32 0 0 1-.79-.55 5.3 5.3 0 0 1-.67-.67 5.32 5.32 0 0 1-.55-.79c-.16-.28-.3-.57-.41-.87s-.19-.61-.25-.92c-.05-.32-.08-.64-.08-.96s.03-.64.08-.96c.06-.31.14-.62.25-.92s.25-.59.41-.87a5.32 5.32 0 0 1 .55-.79 5.3 5.3 0 0 1 .67-.67 5.32 5.32 0 0 1 .79-.55c.28-.16.57-.3.87-.41s.61-.19.92-.25c.32-.05.64-.08.96-.08s.64.03.96.08c.31.06.62.14.92.25s.59.25.87.41a5.32 5.32 0 0 1 .79.55 5.3 5.3 0 0 1 .67.67 5.32 5.32 0 0 1 .55.79c.16.28.3.57.41.87s.19.61.25.92c.05.32.07.8.08.96s.01-.16 0 0"/></defs><path fill="#fff" d="M0 0h379v373H0z"/><path d="M10 10h359M10 10h359m0 0v353m0-353v353m0 0H10m359 0H10m0 0V10m0 353V10" stroke="#000" fill="none" class="F"/><use xlink:href="#A" fill="#fd7e14"/><use xlink:href="#A" stroke="#000" fill="none" class="F"/><text x="55" y="59" font-size="20" style="white-space:pre" class="B C D E">ज</text><text x="336" y="60" font-size="20" style="white-space:pre" class="B C D E">J</text><text x="325" y="320" font-size="23.077" style="white-space:pre" class="B C D G">جا</text><text x="205" y="320.75" font-size="25" style="white-space:pre" class="B C D G">بجن</text><text x="69.5" y="322" font-size="29.231" style="white-space:pre" class="B C D G">بج</text><text x="187" y="61.727" font-size="20" style="white-space:pre" class="B C D E">Jeem(ج)</text><g stroke="#000" fill="none" class="F"><path d="M128.613 94.037c.5 20.83-4.5 95.33 3 125s27.67 48 42 53 31-12.5 44-23 28.33-33.33 34-40m-123-115c.5 20.83-4.5 95.33 3 125s27.67 48 42 53 31-12.5 44-23 28.33-33.33 34-40"/><path d="M251.613 210.037l-89-10m89 10l-89-10"/></g><text x="339.634" y="346.293" font-size="16" style="white-space:pre" class="B C E H">ja</text><text x="221.634" y="346.293" font-size="16" style="white-space:pre" class="B C E H">bjb</text><text x="80.634" y="346.293" font-size="16" style="white-space:pre" class="B C E H">bj</text></svg>