<svg xmlns="http://www.w3.org/2000/svg" width="379" height="373" xmlns:v="https://vecta.io/nano"><style><![CDATA[.B{font-family:Virgil, Segoe UI Emoji}.C{fill:#000}.D{text-anchor:middle}.E{direction:ltr}.F{direction:rtl}.G{text-anchor:end}.H{stroke-linecap:round}]]></style><defs><style>@font-face{font-family:"Virgil";src:url("../Virgil.woff2")}</style></defs><path fill="#fff" d="M0 0h379v373H0z"/><path d="M10 10h359M10 10h359m0 0v353m0-353v353m0 0H10m359 0H10m0 0V10m0 353V10" stroke="#000" fill="none" class="H"/><text x="55" y="59" font-size="20" style="white-space:pre" class="B C D E">क</text><text x="336" y="60" font-size="20" style="white-space:pre" class="B C D E">K</text><text x="325" y="322" font-size="28" style="white-space:pre" class="B C D F">کان</text><text x="205" y="321.75" font-size="28" style="white-space:pre" class="B C D F">تکیہ</text><text x="70.5" y="321.498" font-size="28" style="white-space:pre" class="B C D F">ناک</text><text x="187" y="61.727" font-size="20" style="white-space:pre" class="B C D E">Kaaf(ک)</text><path d="M281.466 98.474c-12.65 6.58-70.57 20.8-75.92 39.49-5.36 18.68 46.24 54.14 43.79 72.63-2.46 18.5-36.63 33.81-58.53 38.35-21.9 4.53-59.33-2.9-72.88-11.14-13.56-8.25-7.02-31.96-8.43-38.35m171.97-100.98c-12.65 6.58-70.57 20.8-75.92 39.49-5.36 18.68 46.24 54.14 43.79 72.63-2.46 18.5-36.63 33.81-58.53 38.35-21.9 4.53-59.33-2.9-72.88-11.14-13.56-8.25-7.02-31.96-8.43-38.35" stroke="#000" fill="none" class="H"/><text x="348.948" y="340.791" font-size="16" style="white-space:pre" class="B C E G">kaan</text><text x="236.948" y="340.791" font-size="16" style="white-space:pre" class="B C E G">takiya</text><text x="87.948" y="340.791" font-size="16" style="white-space:pre" class="B C E G">naak</text></svg>