<svg xmlns="http://www.w3.org/2000/svg" width="379" height="373" xmlns:v="https://vecta.io/nano"><style><![CDATA[.B{font-family:Virgil, Segoe UI Emoji}.C{fill:#000}.D{text-anchor:middle}.E{direction:ltr}.F{direction:rtl}.G{text-anchor:end}.H{stroke-linecap:round}]]></style><defs><style>@font-face{font-family:"Virgil";src:url("../Virgil.woff2")}</style></defs><path fill="#fff" d="M0 0h379v373H0z"/><path d="M10 10h359M10 10h359m0 0v353m0-353v353m0 0H10m359 0H10m0 0V10m0 353V10" stroke="#000" fill="none" class="H"/><text x="55" y="59" font-size="20" style="white-space:pre" class="B C D E">ख</text><text x="336" y="60" font-size="20" style="white-space:pre" class="B C D E">Kha</text><text x="325" y="322" font-size="28" style="white-space:pre" class="B C D F">کھانا</text><text x="205" y="321.75" font-size="28" style="white-space:pre" class="B C D F">ـکھـ</text><text x="70.5" y="321.498" font-size="28" style="white-space:pre" class="B C D F">ـکھ</text><text x="187" y="61.727" font-size="20" style="white-space:pre" class="B C D E">Kha(کھ)</text><text x="348.948" y="340.791" font-size="16" style="white-space:pre" class="B C E G">khana</text><text x="219.948" y="340.791" font-size="16" style="white-space:pre" class="B C E G">mid</text><text x="87.948" y="340.791" font-size="16" style="white-space:pre" class="B C E G">final</text><g stroke="#000" fill="none" class="H"><path d="M247.165 117.07c-8.59 4.47-47.91 14.12-51.54 26.81-3.64 12.68 29.36 37.32 29.73 49.31.36 11.99-17.85 18.09-27.52 22.64-9.66 4.55-21.95 4.03-30.47 4.65-8.52.63-17.21-.76-20.65-.91m100.45-102.5c-8.59 4.47-47.91 14.12-51.54 26.81-3.64 12.68 29.36 37.32 29.73 49.31.36 11.99-17.85 18.09-27.52 22.64-9.66 4.55-21.95 4.03-30.47 4.65-8.52.63-17.21-.76-20.65-.91"/><path d="M171.82 220.209c-4.23-.28-19.25 1.97-25.39-1.7-6.15-3.67-11.25-14.5-11.47-20.31-.23-5.8 7.33-14.49 10.1-14.55 2.78-.05 6.15 8.01 6.56 14.22.41 6.2-2.23 16.52-4.1 23.01-1.87 6.48-7.1 10.32-7.1 15.9s4.82 16.36 7.1 17.6 5.64-6.43 6.56-10.16c.91-3.72.09-8.06-1.1-12.18-1.18-4.11-1-10.32-6.01-12.52-5-2.2-20.02-.56-24.03-.67m48.88 1.36c-4.23-.28-19.25 1.97-25.39-1.7-6.15-3.67-11.25-14.5-11.47-20.31-.23-5.8 7.33-14.49 10.1-14.55 2.78-.05 6.15 8.01 6.56 14.22.41 6.2-2.23 16.52-4.1 23.01-1.87 6.48-7.1 10.32-7.1 15.9s4.82 16.36 7.1 17.6 5.64-6.43 6.56-10.16c.91-3.72.09-8.06-1.1-12.18-1.18-4.11-1-10.32-6.01-12.52-5-2.2-20.02-.56-24.03-.67"/></g></svg>