<svg xmlns="http://www.w3.org/2000/svg" width="379" height="373" xmlns:v="https://vecta.io/nano"><style><![CDATA[.B{font-family:Virgil, Segoe UI Emoji}.C{fill:#000}.D{text-anchor:middle}.E{direction:ltr}.F{direction:rtl}.G{stroke-linecap:round}]]></style><defs><style>@font-face{font-family:"Virgil";src:url("../Virgil.woff2")}</style></defs><path fill="#fff" d="M0 0h379v373H0z"/><path d="M10 10h359M10 10h359m0 0v353m0-353v353m0 0H10m359 0H10m0 0V10m0 353V10" stroke="#000" fill="none" class="G"/><text x="55" y="59" font-size="20" style="white-space:pre" class="B C D E">ल</text><text x="336" y="60" font-size="20" style="white-space:pre" class="B C D E">L</text><text x="325" y="320" font-size="23.077" style="white-space:pre" class="B C D F">لا/لـ</text><text x="194" y="320.75" font-size="25" style="white-space:pre" class="B C D F">ـلـ</text><text x="69.5" y="322" font-size="29.231" style="white-space:pre" class="B C D F">ـل</text><text x="187" y="61.727" font-size="20" style="white-space:pre" class="B C D E">Lām(ل)</text><path d="M140.28 233.611c5.643 2.379 23.907 15.067 33.89 14.283 9.974-.784 21.092-6.96 25.991-18.995 4.899-12.025 3.186-33.564 3.404-53.183.228-19.629-1.727-53.784-2.069-64.54M140.28 233.611c5.643 2.379 23.907 15.067 33.89 14.283 9.974-.784 21.092-6.96 25.991-18.995 4.899-12.025 3.186-33.564 3.404-53.183.228-19.629-1.727-53.784-2.069-64.54" stroke="#000" fill="none" class="G"/><text x="329.411" y="345.366" font-size="16" style="white-space:pre" class="B C D E">intial/La</text><text x="194.411" y="345.366" font-size="16" style="white-space:pre" class="B C D E">mid</text><text x="67.411" y="345.366" font-size="16" style="white-space:pre" class="B C D E">final</text></svg>