<svg xmlns="http://www.w3.org/2000/svg" width="379" height="373" xmlns:v="https://vecta.io/nano"><style><![CDATA[.B{font-family:Virgil, Segoe UI Emoji}.C{fill:#000}.D{text-anchor:middle}.E{direction:ltr}.F{direction:rtl}.G{stroke-linecap:round}]]></style><defs><style>@font-face{font-family:"Virgil";src:url("../Virgil.woff2")}</style></defs><path fill="#fff" d="M0 0h379v373H0z"/><path d="M10 10h359M10 10h359m0 0v353m0-353v353m0 0H10m359 0H10m0 0V10m0 353V10" stroke="#000" fill="none" class="G"/><text x="55" y="59" font-size="20" style="white-space:pre" class="B C D E">म</text><text x="336" y="60" font-size="20" style="white-space:pre" class="B C D E">M</text><text x="325" y="320" font-size="23.077" style="white-space:pre" class="B C D F">مـ</text><text x="205" y="320.75" font-size="25" style="white-space:pre" class="B C D F">ـ‍م‍ـ</text><text x="69.5" y="322" font-size="29.231" style="white-space:pre" class="B C D F">ـ‍م</text><text x="187" y="61.727" font-size="20" style="white-space:pre" class="B C D E">Mīm(م)</text><path d="M179.978 157.037c.09-6.21-5.57-34.65.52-37.28s34.82 12.96 36.03 21.51-24.27 11.39-28.75 29.78c-4.49 18.4 1.53 67.15 1.84 80.58m-9.64-94.59c.09-6.21-5.57-34.65.52-37.28s34.82 12.96 36.03 21.51-24.27 11.39-28.75 29.78c-4.49 18.4 1.53 67.15 1.84 80.58" stroke="#000" fill="none" class="G"/><text x="328.411" y="345.366" font-size="16" style="white-space:pre" class="B C D E">intial</text><text x="210.411" y="345.366" font-size="16" style="white-space:pre" class="B C D E">mid</text><text x="67.411" y="345.366" font-size="16" style="white-space:pre" class="B C D E">final</text></svg>