<svg xmlns="http://www.w3.org/2000/svg" width="379" height="373" filter="invert(93%) hue-rotate(180deg)" xmlns:v="https://vecta.io/nano"><style><![CDATA[.B{font-family:Virgil, Segoe UI Emoji}.C{fill:#000}.D{text-anchor:middle}.E{direction:ltr}.F{direction:rtl}.G{stroke-linecap:round}]]></style><defs><style>@font-face{font-family:"Virgil";src:url("../Virgil.woff2")}</style></defs><path fill="#fff" d="M0 0h379v373H0z"/><path d="M0 0h359M0 0h359m0 0v353m0-353v353m0 0H0m359 0H0m0 0V0m0 353V0" stroke="#000" fill="none" transform="translate(10 10)" class="G"/><g transform="matrix(1 0 0 1 49 39)" class="B C D E"><text x="6" y="20" font-size="20" style="white-space:pre">म</text></g><g transform="matrix(1 0 0 1 328 42)" class="B C D E"><text x="8" y="18" font-size="20" style="white-space:pre">M</text></g><g transform="matrix(1 0 0 1 315 299)" class="B C D F"><text x="10" y="21" font-size="23.077" style="white-space:pre">مـ</text></g><g transform="matrix(1 0 0 1 190 297.75)" class="B C D F"><text x="15" y="23" font-size="25" style="white-space:pre">ـ‍م‍ـ</text></g><g transform="matrix(1 0 0 1 55 295)" class="B C D F"><text x="14.5" y="27" font-size="29.231" style="white-space:pre">ـ‍م</text></g><g transform="matrix(1 0 0 1 156.5 42.727282)" class="B C D E"><text x="30.5" y="19" font-size="20" style="white-space:pre">Mīm(م)</text></g><path d="M0 0c.09-6.21-5.57-34.65.52-37.28s34.82 12.96 36.03 21.51S12.28-4.38 7.8 14.01c-4.49 18.4 1.53 67.15 1.84 80.58M0 0c.09-6.21-5.57-34.65.52-37.28s34.82 12.96 36.03 21.51S12.28-4.38 7.8 14.01c-4.49 18.4 1.53 67.15 1.84 80.58" stroke="#000" fill="none" transform="translate(179.978 157.037)" class="G"/><g transform="matrix(1 0 0 1 308.910584 331.366338)" class="B C D E"><text x="19.5" y="14" font-size="16" style="white-space:pre">intial</text></g><g transform="matrix(1 0 0 1 198.410584 331.366338)" class="B C D E"><text x="12" y="14" font-size="16" style="white-space:pre">mid</text></g><g transform="matrix(1 0 0 1 49.910584 331.366338)" class="B C D E"><text x="17.5" y="14" font-size="16" style="white-space:pre">final</text></g></svg>