<svg xmlns="http://www.w3.org/2000/svg" xmlns:xlink="http://www.w3.org/1999/xlink" width="379" height="373" xmlns:v="https://vecta.io/nano"><style><![CDATA[.B{fill:#000}.C{font-family:Virgil, Segoe UI Emoji}.D{direction:ltr}.E{text-anchor:end}.F{font-family:Helvetica, Segoe UI Emoji}.G{direction:rtl}.H{stroke-linecap:round}]]></style><defs><style>@font-face{font-family:"Virgil";src:url("../Virgil.woff2")}</style><path id="A" d="M193 151.5c0 .32-.03.64-.08.96-.06.31-.14.62-.25.92s-.25.59-.41.87a5.32 5.32 0 0 1-.55.79 5.3 5.3 0 0 1-.67.67 5.32 5.32 0 0 1-.79.55c-.28.16-.57.3-.87.41s-.61.19-.92.25c-.32.05-.64.08-.96.08s-.64-.03-.96-.08c-.31-.06-.62-.14-.92-.25s-.59-.25-.87-.41a5.32 5.32 0 0 1-.79-.55 5.3 5.3 0 0 1-.67-.67 5.32 5.32 0 0 1-.55-.79c-.16-.28-.3-.57-.41-.87s-.19-.61-.25-.92c-.05-.32-.08-.64-.08-.96s.03-.64.08-.96c.06-.31.14-.62.25-.92s.25-.59.41-.87a5.32 5.32 0 0 1 .55-.79 5.3 5.3 0 0 1 .67-.67 5.32 5.32 0 0 1 .79-.55c.28-.16.57-.3.87-.41s.61-.19.92-.25c.32-.05.64-.08.96-.08s.64.03.96.08c.31.06.62.14.92.25s.59.25.87.41a5.32 5.32 0 0 1 .79.55 5.3 5.3 0 0 1 .67.67 5.32 5.32 0 0 1 .55.79c.16.28.3.57.41.87s.19.61.25.92c.05.32.07.8.08.96s.01-.16 0 0"/></defs><path fill="#fff" d="M0 0h379v373H0z"/><path d="M10 10h359M10 10h359m0 0v353m0-353v353m0 0H10m359 0H10m0 0V10m0 353V10m90 174h167m-167 0h167" stroke="#000" fill="none" class="H"/><use xlink:href="#A" fill="#fd7e14"/><use xlink:href="#A" stroke="#000" fill="none" class="H"/><text y="59" font-size="20" style="white-space:pre" x="49" class="B C D">न</text><text y="60" font-size="20" style="white-space:pre" x="329" class="B C D">N</text><text y="320" font-size="23.077" style="white-space:pre" x="309" class="B E F G">ناپ</text><text y="320.75" font-size="25" style="white-space:pre" x="176" class="B E F G">جنگ</text><text y="321.5" font-size="26.698" style="white-space:pre" x="45" class="B E F G">کان</text><text x="187" y="61.727" font-size="20" text-anchor="middle" style="white-space:pre" class="B C D">Noon(ن)</text><text x="339.566" y="343.899" font-size="16" style="white-space:pre" class="B C D E">naap</text><text x="215.566" y="343.899" font-size="16" style="white-space:pre" class="B C D E">jang</text><text x="84.566" y="343.899" font-size="16" style="white-space:pre" class="B C D E">kaan</text></svg>