<svg xmlns="http://www.w3.org/2000/svg" width="379" height="373" xmlns:v="https://vecta.io/nano"><style><![CDATA[.B{font-family:Virgil, Segoe UI Emoji}.C{fill:#000}.D{text-anchor:middle}.E{direction:ltr}.F{font-size:20px}.G{direction:rtl}.H{text-anchor:end}.I{stroke-linecap:round}]]></style><defs><style>@font-face{font-family:"Virgil";src:url("../Virgil.woff2")}</style></defs><path fill="#fff" d="M0 0h379v373H0z"/><path d="M10 10h359M10 10h359m0 0v353m0-353v353m0 0H10m359 0H10m0 0V10m0 353V10" stroke="#000" fill="none" class="I"/><text x="55" y="59" style="white-space:pre" class="B C D E F">उ/u</text><text x="336" y="60" style="white-space:pre" class="B C D E F">pesh</text><text x="325" y="320" font-size="23.077" style="white-space:pre" class="B C D G">پُل</text><text x="205" y="320.75" font-size="25" style="white-space:pre" class="B C D G">سُن</text><text x="69.5" y="320" style="white-space:pre" class="B C D F G">چُ</text><text x="187" y="61.727" style="white-space:pre" class="B C D F G">ا + ُ = اُ</text><text x="337.935" y="344.897" font-size="16" style="white-space:pre" class="B C E H">pul</text><text x="218.935" y="344.897" font-size="16" style="white-space:pre" class="B C E H">sun</text><text x="86.935" y="344.897" font-size="16" style="white-space:pre" class="B C E H">chu</text><g stroke="#000" fill="none" class="I"><path d="M241.9 186.944l-119.254-.178" stroke-width="1.5" stroke-dasharray="1.5 7"/><path d="M188.853 146.389c4.16-5.62 21.8-32.08 24.96-33.73 3.17-1.64-.18 17.89-5.97 23.85-5.78 5.95-19.87 8.68-28.75 11.89-8.87 3.21-20.41 6.13-24.49 7.36m34.25-9.37c4.16-5.62 21.8-32.08 24.96-33.73 3.17-1.64-.18 17.89-5.97 23.85-5.78 5.95-19.87 8.68-28.75 11.89-8.87 3.21-20.41 6.13-24.49 7.36"/></g></svg>