<svg xmlns="http://www.w3.org/2000/svg" width="379" height="373" xmlns:v="https://vecta.io/nano"><style><![CDATA[.B{font-family:Virgil, Segoe UI Emoji}.C{fill:#000}.D{text-anchor:middle}.E{direction:ltr}.F{direction:rtl}.G{stroke-linecap:round}]]></style><defs><style>@font-face{font-family:"Virgil";src:url("../Virgil.woff2")}</style></defs><path fill="#fff" d="M0 0h379v373H0z"/><path d="M10 10h359M10 10h359m0 0v353m0-353v353m0 0H10m359 0H10m0 0V10m0 353V10" stroke="#000" fill="none" class="G"/><text x="55" y="59" font-size="20" style="white-space:pre" class="B C D E">र</text><text x="336" y="60" font-size="20" style="white-space:pre" class="B C D E">R</text><text x="325" y="320" font-size="23.077" style="white-space:pre" class="B C D F">راز</text><text x="205" y="320.75" font-size="25" style="white-space:pre" class="B C D F">بارش</text><text x="69.5" y="322" font-size="29.231" style="white-space:pre" class="B C D F">چار</text><text x="187" y="61.727" font-size="20" style="white-space:pre" class="B C D E">Ray(ر)</text><path d="M238.978 146.037c.09 6.79 3.09 27.18.52 40.72-2.58 13.54-6.85 30.29-15.97 40.51-9.12 10.21-25.43 15.72-38.75 20.78s-34.3 7.98-41.16 9.58m95.36-111.59c.09 6.79 3.09 27.18.52 40.72-2.58 13.54-6.85 30.29-15.97 40.51-9.12 10.21-25.43 15.72-38.75 20.78s-34.3 7.98-41.16 9.58" stroke="#000" fill="none" class="G"/><text x="328.411" y="345.366" font-size="16" style="white-space:pre" class="B C D E">raaj</text><text x="210.411" y="345.366" font-size="16" style="white-space:pre" class="B C D E">barish</text><text x="67.411" y="345.366" font-size="16" style="white-space:pre" class="B C D E">char</text></svg>