<svg xmlns="http://www.w3.org/2000/svg" width="379" height="373" xmlns:v="https://vecta.io/nano"><style><![CDATA[.B{fill:#000}.C{font-family:Virgil, Segoe UI Emoji}.D{direction:ltr}.E{font-family:Helvetica, Segoe UI Emoji}.F{direction:rtl}.G{stroke-linecap:round}.H{text-anchor:middle}]]></style><defs><style>@font-face{font-family:"Virgil";src:url("../Virgil.woff2")}</style></defs><path fill="#fff" d="M0 0h379v373H0z"/><path d="M10 10h359M10 10h359m0 0v353m0-353v353m0 0H10m359 0H10m0 0V10m0 353V10" stroke="#000" fill="none" class="G"/><text y="59" font-size="20" style="white-space:pre" x="49" class="B C D">स</text><text y="58" font-size="20" style="white-space:pre" x="319" class="B C D">S</text><text x="331.5" y="320" font-size="23.077" style="white-space:pre" class="B E F H">سا</text><text y="320.75" font-size="25" text-anchor="end" style="white-space:pre" x="185" class="B E F">بستی</text><text y="322" font-size="29.231" text-anchor="end" style="white-space:pre" x="54" class="B E F">بس</text><g stroke="#000" fill="none" class="G"><path d="M89.384 178.273c4.83 6.53 15.67 32.72 29 39.17 13.33 6.46 39.83 5.07 51-.44s13.33-27.19 16-32.63m-96-6.1c4.83 6.53 15.67 32.72 29 39.17 13.33 6.46 39.83 5.07 51-.44s13.33-27.19 16-32.63"/><path d="M183.384 183.909c3.5 5.36 7.67 26.72 21 32.17 13.33 5.46 46.5 6.4 59 .56 12.5-5.85 13.33-29.69 16-35.63m-96 2.9c3.5 5.36 7.67 26.72 21 32.17 13.33 5.46 46.5 6.4 59 .56 12.5-5.85 13.33-29.69 16-35.63"/></g><text x="186.708" y="58.5" font-size="20" style="white-space:pre" class="B C D H">Seen(س)</text></svg>