<svg xmlns="http://www.w3.org/2000/svg" xmlns:xlink="http://www.w3.org/1999/xlink" width="379" height="373" xmlns:v="https://vecta.io/nano"><style><![CDATA[.B{fill:#000}.C{font-family:Virgil, Segoe UI Emoji}.D{direction:ltr}.E{text-anchor:end}.F{stroke:#000}.G{stroke-linecap:round}.H{fill:#fd7e14}.I{font-family:Helvetica, Segoe UI Emoji}.J{direction:rtl}]]></style><defs><style>@font-face{font-family:"Virgil";src:url("../Virgil.woff2")}</style><path id="A" d="M205 155.5c0 .32-.03.64-.08.96-.06.31-.14.62-.25.92s-.25.59-.41.87a5.32 5.32 0 0 1-.55.79 5.3 5.3 0 0 1-.67.67 5.32 5.32 0 0 1-.79.55c-.28.16-.57.3-.87.41s-.61.19-.92.25c-.32.05-.64.08-.96.08s-.64-.03-.96-.08c-.31-.06-.62-.14-.92-.25s-.59-.25-.87-.41a5.32 5.32 0 0 1-.79-.55 5.3 5.3 0 0 1-.67-.67 5.32 5.32 0 0 1-.55-.79c-.16-.28-.3-.57-.41-.87s-.19-.61-.25-.92c-.05-.32-.08-.64-.08-.96s.03-.64.08-.96c.06-.31.14-.62.25-.92s.25-.59.41-.87a5.32 5.32 0 0 1 .55-.79 5.3 5.3 0 0 1 .67-.67 5.32 5.32 0 0 1 .79-.55c.28-.16.57-.3.87-.41s.61-.19.92-.25c.32-.05.64-.08.96-.08s.64.03.96.08c.31.06.62.14.92.25s.59.25.87.41a5.32 5.32 0 0 1 .79.55 5.3 5.3 0 0 1 .67.67 5.32 5.32 0 0 1 .55.79c.16.28.3.57.41.87s.19.61.25.92c.05.32.07.8.08.96s.01-.16 0 0"/></defs><path fill="#fff" d="M0 0h379v373H0z"/><text x="181" y="61.5" font-size="20" text-anchor="middle" style="white-space:pre" class="B C D">Sheen(ش)</text><path d="M10 10h359M10 10h359m0 0v353m0-353v353m0 0H10m359 0H10m0 0V10m0 353V10" fill="none" class="F G"/><use xlink:href="#A" class="H"/><use xlink:href="#A" fill="none" class="F G"/><text y="59" font-size="20" style="white-space:pre" x="49" class="B C D">श</text><text y="58" font-size="20" style="white-space:pre" x="319" class="B C D">S</text><text y="320.319" font-size="23.315" style="white-space:pre" x="316.722" class="B E I J">شا</text><text y="321.077" font-size="23.534" style="white-space:pre" x="184.971" class="B E I J">بشا</text><text y="323" font-size="25.157" style="white-space:pre" x="50" class="B E I J">تاش</text><use xlink:href="#A" x="-41.5" y="0.5" class="H"/><use xlink:href="#A" x="-41.5" y="0.5" fill="none" class="F G"/><use xlink:href="#A" x="-20" y="-30" class="H"/><use xlink:href="#A" x="-20" y="-30" fill="none" class="F G"/><g fill="none" class="F G"><path d="M89.384 178.273c4.83 6.53 15.67 32.72 29 39.17 13.33 6.46 39.83 5.07 51-.44s13.33-27.19 16-32.63m-96-6.1c4.83 6.53 15.67 32.72 29 39.17 13.33 6.46 39.83 5.07 51-.44s13.33-27.19 16-32.63"/><path d="M183.384 183.909c3.5 5.36 7.67 26.72 21 32.17 13.33 5.46 46.5 6.4 59 .56 12.5-5.85 13.33-29.69 16-35.63m-96 2.9c3.5 5.36 7.67 26.72 21 32.17 13.33 5.46 46.5 6.4 59 .56 12.5-5.85 13.33-29.69 16-35.63"/></g><text x="341.566" y="344.814" font-size="16" style="white-space:pre" class="B C D E">sa</text><text x="222.566" y="344.814" font-size="16" style="white-space:pre" class="B C D E">bsa</text><text x="96.566" y="344.814" font-size="16" style="white-space:pre" class="B C D E">tasha</text></svg>