<svg xmlns="http://www.w3.org/2000/svg" width="379" height="373" xmlns:v="https://vecta.io/nano"><style><![CDATA[.B{font-family:Virgil, Segoe UI Emoji}.C{fill:#000}.D{text-anchor:middle}.E{direction:ltr}.F{font-size:20px}.G{font-size:16px}.H{direction:rtl}.I{text-anchor:end}]]></style><defs><style>@font-face{font-family:"Virgil";src:url("../Virgil.woff2")}</style></defs><path fill="#fff" d="M0 0h379v373H0z"/><g stroke="#000" fill="none" stroke-linecap="round"><path d="M107.396 164.466c-1.42 5.38-11.39 22.43-8.53 32.26 2.87 9.83 14.25 22.62 25.73 26.72 11.48 4.09 32.54 1.32 43.14-2.15 10.61-3.47 16.88-9.41 20.47-18.66 3.58-9.24-4.79-33.37 1.04-36.81 5.84-3.44 18.36 15.7 33.98 16.17 15.63.47 48.59-6.27 59.76-13.33s10.83-22.47 7.27-29.05c-3.57-6.57-14.43-15.8-28.65-10.4-14.21 5.4-47.2 35.68-56.64 42.82m-97.57-7.57c-1.42 5.38-11.39 22.43-8.53 32.26 2.87 9.83 14.25 22.62 25.73 26.72 11.48 4.09 32.54 1.32 43.14-2.15 10.61-3.47 16.88-9.41 20.47-18.66 3.58-9.24-4.79-33.37 1.04-36.81 5.84-3.44 18.36 15.7 33.98 16.17 15.63.47 48.59-6.27 59.76-13.33s10.83-22.47 7.27-29.05c-3.57-6.57-14.43-15.8-28.65-10.4-14.21 5.4-47.2 35.68-56.64 42.82" stroke-width="4"/><path d="M10 10h359M10 10h359m0 0v353m0-353v353m0 0H10m359 0H10m0 0V10m0 353V10"/></g><text x="55" y="59" style="white-space:pre" class="B C D E F">स़</text><text x="336" y="60" style="white-space:pre" class="B C D E F">Ṣ</text><text x="325" y="320" style="white-space:pre" class="B C D F H">صُبح</text><text x="197.222" y="317.75" style="white-space:pre" class="B C D F H">حصہ</text><text x="70.5" y="319.498" style="white-space:pre" class="B C D F H">شخص</text><text x="187" y="60.227" style="white-space:pre" class="B C D E G">Swaad(ص)</text><text x="348.948" y="340.791" style="white-space:pre" class="B C E G I">subha</text><text x="214.948" y="340.791" style="white-space:pre" class="B C E G I">hisa</text><text x="99.948" y="340.791" style="white-space:pre" class="B C E G I">Shakhs</text></svg>