<svg xmlns="http://www.w3.org/2000/svg" xmlns:xlink="http://www.w3.org/1999/xlink" width="379" height="373" xmlns:v="https://vecta.io/nano"><style><![CDATA[.B{fill:#000}.C{stroke-linecap:round}.D{font-family:Virgil, Segoe UI Emoji}.E{direction:ltr}.F{font-family:Helvetica, Segoe UI Emoji}.G{text-anchor:end}.H{direction:rtl}]]></style><defs><style>@font-face{font-family:"Virgil";src:url("../Virgil.woff2")}</style><path id="A" d="M211 153.5c0 .32-.03.64-.08.96-.06.31-.14.62-.25.92s-.25.59-.41.87a5.32 5.32 0 0 1-.55.79 5.3 5.3 0 0 1-.67.67 5.32 5.32 0 0 1-.79.55c-.28.16-.57.3-.87.41s-.61.19-.92.25c-.32.05-.64.08-.96.08s-.64-.03-.96-.08c-.31-.06-.62-.14-.92-.25s-.59-.25-.87-.41a5.32 5.32 0 0 1-.79-.55 5.3 5.3 0 0 1-.67-.67 5.32 5.32 0 0 1-.55-.79c-.16-.28-.3-.57-.41-.87s-.19-.61-.25-.92c-.05-.32-.08-.64-.08-.96s.03-.64.08-.96c.06-.31.14-.62.25-.92s.25-.59.41-.87a5.32 5.32 0 0 1 .55-.79 5.3 5.3 0 0 1 .67-.67 5.32 5.32 0 0 1 .79-.55c.28-.16.57-.3.87-.41s.61-.19.92-.25c.32-.05.64-.08.96-.08s.64.03.96.08c.31.06.62.14.92.25s.59.25.87.41a5.32 5.32 0 0 1 .79.55 5.3 5.3 0 0 1 .67.67 5.32 5.32 0 0 1 .55.79c.16.28.3.57.41.87s.19.61.25.92c.05.32.07.8.08.96s.01-.16 0 0"/></defs><path fill="#fff" d="M0 0h379v373H0z"/><path d="M10 10h359M10 10h359m0 0v353m0-353v353m0 0H10m359 0H10m0 0V10m0 353V10m90 174h167m-167 0h167" stroke="#000" fill="none" class="C"/><use xlink:href="#A" fill="#fd7e14"/><use xlink:href="#A" stroke="#000" fill="none" class="C"/><text y="59" font-size="20" style="white-space:pre" x="49" class="B D E">त</text><text y="58" font-size="20" style="white-space:pre" x="319" class="B D E">T</text><text y="320" font-size="23.077" style="white-space:pre" x="318" class="B F G H">تا</text><text y="320.75" font-size="25" style="white-space:pre" x="185" class="B F G H">بتب</text><text y="322" font-size="29.231" style="white-space:pre" x="54" class="B F G H">بت</text><use xlink:href="#A" x="-41.5" y="0.5" fill="#fd7e14"/><use xlink:href="#A" x="-41.5" y="0.5" stroke="#000" fill="none" class="C"/><text x="183" y="65.803" font-size="20" text-anchor="middle" style="white-space:pre" class="B D E">Tey(ت)</text></svg>