<svg xmlns="http://www.w3.org/2000/svg" width="379" height="373" xmlns:v="https://vecta.io/nano"><style><![CDATA[.B{font-family:Virgil, Segoe UI Emoji}.C{fill:#000}.D{text-anchor:middle}.E{direction:ltr}.F{font-size:20px}.G{direction:rtl}.H{font-size:16px}.I{text-anchor:end}.J{stroke-linecap:round}]]></style><defs><style>@font-face{font-family:"Virgil";src:url("../Virgil.woff2")}</style></defs><path fill="#fff" d="M0 0h379v373H0z"/><path d="M10 10h359M10 10h359m0 0v353m0-353v353m0 0H10m359 0H10m0 0V10m0 353V10" stroke="#000" fill="none" class="J"/><text x="55" y="59" style="white-space:pre" class="B C D E F">ब्ब/bb</text><text x="328" y="60" style="white-space:pre" class="B C D E F">tashdid</text><text x="325" y="320" font-size="23.077" style="white-space:pre" class="B C D G">ابّا</text><text x="205" y="320.75" font-size="25" style="white-space:pre" class="B C D G">بلّی</text><text x="69.5" y="320" style="white-space:pre" class="B C D F G">امّا</text><text x="187" y="61.727" style="white-space:pre" class="B C D F G">ب + ّ = بّ</text><text x="337.935" y="344.897" style="white-space:pre" class="B C E H I">abba</text><text x="217.935" y="344.897" style="white-space:pre" class="B C E H I">billi</text><text x="86.935" y="344.897" style="white-space:pre" class="B C E H I">amma</text><g stroke="#000" fill="none" class="J"><path d="M241.9 186.944l-119.254-.178" stroke-width="1.5" stroke-dasharray="1.5 7"/><path d="M136.413 108.245c1.634 5.754 3.165 28.766 9.818 34.556 6.643 5.79 25.395 6.349 30.068.173 4.673-6.165-2.812-37.586-2.021-37.195.801.39 1.807 32.981 6.818 39.555 5 6.565 18.21 4.651 23.244-.121 5.024-4.781 5.835-20.533 6.949-28.55s-.208-16.3-.243-19.553m-74.631 11.134c1.634 5.754 3.165 28.766 9.818 34.556 6.643 5.79 25.395 6.349 30.068.173 4.673-6.165-2.812-37.586-2.021-37.195.801.39 1.807 32.981 6.818 39.555 5 6.565 18.21 4.651 23.244-.121 5.024-4.781 5.835-20.533 6.949-28.55s-.208-16.3-.243-19.553"/></g><text y="235.003" style="white-space:pre" x="110.014" class="B C E H">doubles the letter</text></svg>