<svg xmlns="http://www.w3.org/2000/svg" width="379" height="373" xmlns:v="https://vecta.io/nano"><style><![CDATA[.B{font-family:Virgil, Segoe UI Emoji}.C{fill:#000}.D{text-anchor:middle}.E{direction:ltr}.F{direction:rtl}.G{text-anchor:end}.H{stroke-linecap:round}]]></style><defs><style>@font-face{font-family:"Virgil";src:url("../Virgil.woff2")}</style></defs><path fill="#fff" d="M0 0h379v373H0z"/><path d="M204.792 118.638l.31 9.56c.05 3.97-1.11 12.88 0 14.24s3.59-4.75 6.66-6.1c3.08-1.35 9.66-2.73 11.78-1.99 2.11.74 3.12 4.97.93 6.44-2.18 1.47-9.42 2.02-14.06 2.39-4.63.36-11.45-.18-13.74-.21m8.12-24.33l.31 9.56c.05 3.97-1.11 12.88 0 14.24s3.59-4.75 6.66-6.1c3.08-1.35 9.66-2.73 11.78-1.99 2.11.74 3.12 4.97.93 6.44-2.18 1.47-9.42 2.02-14.06 2.39-4.63.36-11.45-.18-13.74-.21M10 10h359M10 10h359m0 0v353m0-353v353m0 0H10m359 0H10m0 0V10m0 353V10" stroke="#000" fill="none" class="H"/><text x="55" y="59" font-size="20" style="white-space:pre" class="B C D E">ठ</text><text x="336" y="60" font-size="20" style="white-space:pre" class="B C D E">Ṭh</text><text x="325" y="320" font-size="23.077" style="white-space:pre" class="B C D F">ٹھوکر</text><text x="205" y="320.75" font-size="25" style="white-space:pre" class="B C D F">ـٹھـ</text><text x="69.5" y="322" font-size="29.231" style="white-space:pre" class="B C D F">ـٹھ</text><text x="187" y="61.727" font-size="20" style="white-space:pre" class="B C D F">ٹ+ھ = ٹھ</text><text x="347.935" y="344.897" font-size="16" style="white-space:pre" class="B C E G">thokar</text><text x="218.935" y="344.897" font-size="16" style="white-space:pre" class="B C E G">mid</text><text x="86.935" y="344.897" font-size="16" style="white-space:pre" class="B C E G">final</text><path d="M143.302 196.558c-2.33-4.12-13.7-17.67-13.98-24.75s8.93-17.66 12.32-17.73c3.38-.07 7.49 9.76 7.98 17.32.5 7.56-2.71 20.14-4.99 28.05-2.27 7.9-8.65 12.58-8.65 19.38 0 6.81 5.88 19.94 8.65 21.45 2.78 1.51 6.88-7.84 7.99-12.37 1.11-4.54.11-9.83-1.33-14.85s-1.22-12.58-7.32-15.26c-6.11-2.68-24.42-.69-29.3-.83m28.63-.41c-2.33-4.12-13.7-17.67-13.98-24.75s8.93-17.66 12.32-17.73c3.38-.07 7.49 9.76 7.98 17.32.5 7.56-2.71 20.14-4.99 28.05-2.27 7.9-8.65 12.58-8.65 19.38 0 6.81 5.88 19.94 8.65 21.45 2.78 1.51 6.88-7.84 7.99-12.37 1.11-4.54.11-9.83-1.33-14.85s-1.22-12.58-7.32-15.26c-6.11-2.68-24.42-.69-29.3-.83m98.511-38.869c-.88 6.39 5.69 31.49-5.27 38.31-10.97 6.83-50.43 2.2-60.51 2.64m65.78-40.95c-.88 6.39 5.69 31.49-5.27 38.31-10.97 6.83-50.43 2.2-60.51 2.64" stroke="#000" fill="none" class="H"/></svg>