<svg xmlns="http://www.w3.org/2000/svg" width="379" height="373" xmlns:v="https://vecta.io/nano"><style><![CDATA[.B{font-family:Virgil, Segoe UI Emoji}.C{fill:#000}.D{font-size:20px}.E{text-anchor:middle}.F{direction:ltr}.G{direction:rtl}.H{text-anchor:end}.I{stroke-linecap:round}]]></style><defs><style>@font-face{font-family:"Virgil";src:url("../Virgil.woff2")}</style></defs><path fill="#fff" d="M0 0h379v373H0z"/><path d="M10 10h359M10 10h359m0 0v353m0-353v353m0 0H10m359 0H10m0 0V10m0 353V10" stroke="#000" fill="none" class="I"/><text x="55" y="59" style="white-space:pre" class="B C D E F">त</text><text x="336" y="60" style="white-space:pre" class="B C D E F">Ṭ</text><text x="299" y="320" style="white-space:pre" class="B C D E G">طوطا/طیارہ</text><text x="180" y="319.75" style="white-space:pre" class="B C D E G">بطب</text><text x="57.5" y="319.498" style="white-space:pre" class="B C D E G">خط</text><text x="187" y="61.727" style="white-space:pre" class="B C D E F">Toye(ط)</text><text x="348.948" y="340.791" font-size="16" style="white-space:pre" class="B C F H">tayara/tota</text><text x="195.948" y="340.791" font-size="16" style="white-space:pre" class="B C F H">btb</text><text x="77.948" y="340.791" font-size="16" style="white-space:pre" class="B C F H">khat</text><path d="M160.788 127.461l.86 26.62c.14 11.05-3.06 35.87 0 39.65 3.06 3.77 9.89-13.23 18.36-16.98s26.62-7.6 32.46-5.54 8.61 13.82 2.58 17.91c-6.03 4.1-25.98 5.65-38.76 6.66-12.77 1.01-31.58-.49-37.89-.59m22.39-67.73l.86 26.62c.14 11.05-3.06 35.87 0 39.65 3.06 3.77 9.89-13.23 18.36-16.98s26.62-7.6 32.46-5.54 8.61 13.82 2.58 17.91c-6.03 4.1-25.98 5.65-38.76 6.66-12.77 1.01-31.58-.49-37.89-.59" stroke="#000" fill="none" class="I"/></svg>