<svg xmlns="http://www.w3.org/2000/svg" width="379" height="373" xmlns:v="https://vecta.io/nano"><style><![CDATA[.B{font-family:Virgil, Segoe UI Emoji}.C{fill:#000}.D{text-anchor:middle}.E{direction:ltr}.F{direction:rtl}.G{text-anchor:end}.H{stroke-linecap:round}]]></style><defs><style>@font-face{font-family:"Virgil";src:url("../Virgil.woff2")}</style></defs><path fill="#fff" d="M0 0h379v373H0z"/><path d="M10 10h359M10 10h359m0 0v353m0-353v353m0 0H10m359 0H10m0 0V10m0 353V10" stroke="#000" fill="none" class="H"/><text x="55" y="59" font-size="20" style="white-space:pre" class="B C D E">ट</text><text x="336" y="60" font-size="20" style="white-space:pre" class="B C D E">Ṭ</text><text x="325" y="322" font-size="28" style="white-space:pre" class="B C D F">ٹکٹ</text><text x="205" y="321.75" font-size="28" style="white-space:pre" class="B C D F">بٹب</text><text x="70.5" y="321.498" font-size="28" style="white-space:pre" class="B C D F">چاٹ</text><text x="187" y="61.727" font-size="20" style="white-space:pre" class="B C D F">ت+ط= ٹ</text><text x="348.948" y="340.791" font-size="16" style="white-space:pre" class="B C E G">tiket</text><text x="220.948" y="340.791" font-size="16" style="white-space:pre" class="B C E G">btb</text><text x="87.948" y="340.791" font-size="16" style="white-space:pre" class="B C E G">chat</text><path d="M93 203.511h167m-167 0h167M158.566 116.35l.86 26.62c.14 11.05-3.06 35.87 0 39.65 3.06 3.77 9.89-13.23 18.36-16.98s26.62-7.6 32.46-5.54 8.61 13.82 2.58 17.91c-6.03 4.1-25.98 5.65-38.76 6.66-12.77 1.01-31.58-.49-37.89-.59m22.39-67.73l.86 26.62c.14 11.05-3.06 35.87 0 39.65 3.06 3.77 9.89-13.23 18.36-16.98s26.62-7.6 32.46-5.54 8.61 13.82 2.58 17.91c-6.03 4.1-25.98 5.65-38.76 6.66-12.77 1.01-31.58-.49-37.89-.59" stroke="#000" fill="none" class="H"/></svg>