<svg xmlns="http://www.w3.org/2000/svg" width="379" height="373" xmlns:v="https://vecta.io/nano"><style><![CDATA[.B{font-family:Virgil, Segoe UI Emoji}.C{fill:#000}.D{text-anchor:middle}.E{direction:ltr}.F{direction:rtl}.G{text-anchor:end}.H{stroke-linecap:round}]]></style><defs><style>@font-face{font-family:"Virgil";src:url("../Virgil.woff2")}</style></defs><path fill="#fff" d="M0 0h379v373H0z"/><path d="M10 10h359M10 10h359m0 0v353m0-353v353m0 0H10m359 0H10m0 0V10m0 353V10" stroke="#000" fill="none" class="H"/><text x="55" y="59" font-size="20" style="white-space:pre" class="B C D E">ऊ/uu</text><text x="322.889" y="57.5" font-size="17.778" style="white-space:pre" class="B C D E">ulta-pesh</text><text x="325" y="320" font-size="23.077" style="white-space:pre" class="B C D F">اوٗدا</text><text x="205" y="320.75" font-size="25" style="white-space:pre" class="B C D F">دوٗر</text><text x="69.5" y="320" font-size="20" style="white-space:pre" class="B C D F">روٗ</text><text x="187" y="61.727" font-size="20" style="white-space:pre" class="B C D F">ا + وٗ = اوٗ</text><text x="337.935" y="344.897" font-size="16" style="white-space:pre" class="B C E G">uuda</text><text x="218.935" y="344.897" font-size="16" style="white-space:pre" class="B C E G">duur</text><text x="86.935" y="344.897" font-size="16" style="white-space:pre" class="B C E G">ruu</text><g stroke="#000" fill="none" class="H"><path d="M241.9 186.944l-119.254-.178" stroke-width="1.5" stroke-dasharray="1.5 7"/><path d="M179.568 122.4c-3.571 6.011-18.449 34.118-21.426 36.078-2.988 1.952-1.628-17.817 3.531-24.331 5.15-6.503 18.892-10.642 27.402-14.733 8.5-4.089 19.687-8.16 23.621-9.796M179.568 122.4c-3.571 6.011-18.449 34.118-21.426 36.078-2.988 1.952-1.628-17.817 3.531-24.331 5.15-6.503 18.892-10.642 27.402-14.733 8.5-4.089 19.687-8.16 23.621-9.796"/></g></svg>