<svg xmlns="http://www.w3.org/2000/svg" width="379" height="373" xmlns:v="https://vecta.io/nano"><style><![CDATA[.B{font-family:Virgil, Segoe UI Emoji}.C{fill:#000}.D{text-anchor:middle}.E{direction:ltr}.F{stroke-linecap:round}.G{direction:rtl}.H{text-anchor:end}]]></style><defs><style>@font-face{font-family:"Virgil";src:url("../Virgil.woff2")}</style></defs><path fill="#fff" d="M0 0h379v373H0z"/><path d="M10 10h359M10 10h359m0 0v353m0-353v353m0 0H10m359 0H10m0 0V10m0 353V10" stroke="#000" fill="none" class="F"/><text x="55" y="59" font-size="20" style="white-space:pre" class="B C D E">व/ओ</text><text x="336" y="60" font-size="20" style="white-space:pre" class="B C D E">V/oo</text><text x="325" y="320" font-size="23.077" style="white-space:pre" class="B C D G">وار</text><text x="205" y="320.75" font-size="25" style="white-space:pre" class="B C D G">اور</text><text x="69.5" y="322" font-size="29.231" style="white-space:pre" class="B C D G">رو</text><text x="187" y="61.727" font-size="20" style="white-space:pre" class="B C D E">vao(و)</text><path d="M238.978 146.037c.09 6.79 3.09 27.18.52 40.72-2.58 13.54-6.85 30.29-15.97 40.51-9.12 10.21-25.43 15.72-38.75 20.78s-34.3 7.98-41.16 9.58m95.36-111.59c.09 6.79 3.09 27.18.52 40.72-2.58 13.54-6.85 30.29-15.97 40.51-9.12 10.21-25.43 15.72-38.75 20.78s-34.3 7.98-41.16 9.58" stroke="#000" fill="none" class="F"/><g fill="none" class="F"><path d="M180.47 153.87l15.75-18.11m-15.75 18.11l15.75-18.11m-16.01 24.51l24.93-28.68m-24.93 28.68l24.93-28.68m-23.88 33.57l29.52-33.97m-29.52 33.97l29.52-33.97m-28.47 38.85l33.46-38.49m-33.46 38.49l33.46-38.49m-31.75 42.63l36.74-42.27m-36.74 42.27l36.74-42.27m-33.72 44.89l37.39-43.02m-37.39 43.02l37.39-43.02m-35.03 46.4l38.05-43.77m-38.05 43.77l38.05-43.77m-35.03 46.39l38.71-44.52m-38.71 44.52l38.71-44.52m-35.04 46.39l38.05-43.77m-38.05 43.77l38.05-43.77m-34.37 45.64l36.74-42.26m-36.74 42.26l36.74-42.26m-32.41 43.38l35.43-40.76m-35.43 40.76l35.43-40.76m-31.76 42.63l33.46-38.49m-33.46 38.49l33.46-38.49m-28.47 38.85l29.52-33.96m-29.52 33.96l29.52-33.96m-21.25 30.54l19.02-21.88m-19.02 21.88l19.02-21.88" stroke="#fff" stroke-width=".5"/><path d="M240.5 159c0 1.65-.16 3.32-.46 4.95-.31 1.62-.78 3.25-1.38 4.8a27.01 27.01 0 0 1-2.25 4.5 27.87 27.87 0 0 1-3.05 4.07 29.73 29.73 0 0 1-3.75 3.51c-1.36 1.06-2.83 2.03-4.36 2.85-1.53.83-3.16 1.54-4.82 2.1a32.37 32.37 0 0 1-5.13 1.29c-1.74.28-3.53.43-5.3.43s-3.56-.15-5.3-.43a32.37 32.37 0 0 1-5.13-1.29c-1.66-.56-3.29-1.27-4.82-2.1-1.53-.82-3-1.79-4.36-2.85a29.73 29.73 0 0 1-3.75-3.51 27.87 27.87 0 0 1-3.05-4.07 27.01 27.01 0 0 1-2.25-4.5c-.6-1.55-1.07-3.18-1.38-4.8-.3-1.63-.46-3.3-.46-4.95s.16-3.32.46-4.95c.31-1.62.78-3.25 1.38-4.8a27.01 27.01 0 0 1 2.25-4.5 27.87 27.87 0 0 1 3.05-4.07 29.73 29.73 0 0 1 3.75-3.51c1.36-1.06 2.83-2.03 4.36-2.85 1.53-.83 3.16-1.54 4.82-2.1a32.37 32.37 0 0 1 5.13-1.29c1.74-.28 3.53-.43 5.3-.43s3.56.15 5.3.43a32.37 32.37 0 0 1 5.13 1.29c1.66.56 3.29 1.27 4.82 2.1 1.53.82 3 1.79 4.36 2.85a29.73 29.73 0 0 1 3.75 3.51 27.87 27.87 0 0 1 3.05 4.07 27.01 27.01 0 0 1 2.25 4.5c.6 1.55 1.07 3.18 1.38 4.8.3 1.63.38 4.13.46 4.95s.08-.82 0 0" stroke="#000"/></g><text x="339.411" y="343.366" font-size="16" style="white-space:pre" class="B C E H">var</text><text x="218.411" y="343.366" font-size="16" style="white-space:pre" class="B C E H">oor</text><text x="85.411" y="343.366" font-size="16" style="white-space:pre" class="B C E H">roo</text></svg>