<svg xmlns="http://www.w3.org/2000/svg" xmlns:xlink="http://www.w3.org/1999/xlink" width="379" height="373" xmlns:v="https://vecta.io/nano"><style><![CDATA[.B{fill:#000}.C{font-family:Virgil, Segoe UI Emoji}.D{direction:ltr}.E{text-anchor:end}.F{stroke-linecap:round}.G{direction:rtl}.H{font-family:Helvetica, Segoe UI Emoji}.I{text-anchor:middle}]]></style><defs><style>@font-face{font-family:"Virgil";src:url("../Virgil.woff2")}</style><path id="A" d="M210 216.5c0 .32-.03.64-.08.96-.06.31-.14.62-.25.92s-.25.59-.41.87a5.32 5.32 0 0 1-.55.79 5.3 5.3 0 0 1-.67.67 5.32 5.32 0 0 1-.79.55c-.28.16-.57.3-.87.41s-.61.19-.92.25c-.32.05-.64.08-.96.08s-.64-.03-.96-.08c-.31-.06-.62-.14-.92-.25s-.59-.25-.87-.41a5.32 5.32 0 0 1-.79-.55 5.3 5.3 0 0 1-.67-.67 5.32 5.32 0 0 1-.55-.79c-.16-.28-.3-.57-.41-.87s-.19-.61-.25-.92c-.05-.32-.08-.64-.08-.96s.03-.64.08-.96c.06-.31.14-.62.25-.92s.25-.59.41-.87a5.32 5.32 0 0 1 .55-.79 5.3 5.3 0 0 1 .67-.67 5.32 5.32 0 0 1 .79-.55c.28-.16.57-.3.87-.41s.61-.19.92-.25c.32-.05.64-.08.96-.08s.64.03.96.08c.31.06.62.14.92.25s.59.25.87.41a5.32 5.32 0 0 1 .79.55 5.3 5.3 0 0 1 .67.67 5.32 5.32 0 0 1 .55.79c.16.28.3.57.41.87s.19.61.25.92c.05.32.07.8.08.96s.01-.16 0 0"/></defs><path fill="#fff" d="M0 0h379v373H0z"/><path d="M10 10h359M10 10h359m0 0v353m0-353v353m0 0H10m359 0H10m0 0V10m0 353V10m90 174h167m-167 0h167" stroke="#000" fill="none" class="F"/><use xlink:href="#A" fill="#fd7e14"/><use xlink:href="#A" stroke="#000" fill="none" class="F"/><text y="59" font-size="20" style="white-space:pre" x="49" class="B C D">य/ई</text><text y="58" font-size="20" style="white-space:pre" x="319" class="B C D">Yeh</text><text y="320" font-size="23.077" style="white-space:pre" x="318" class="B E G H">یا</text><text x="199" y="320.75" font-size="25" style="white-space:pre" class="B G H I">پير/نایاب</text><text y="319.5" font-size="25.667" style="white-space:pre" x="54" class="B C E G">بستی</text><use xlink:href="#A" x="-41.5" y="0.5" fill="#fd7e14"/><use xlink:href="#A" x="-41.5" y="0.5" stroke="#000" fill="none" class="F"/><text x="191.964" y="60.919" font-size="20" style="white-space:pre" class="B C D I">Choti ye(ی)</text><text x="339.03" y="344.297" font-size="16" style="white-space:pre" class="B C D E">ya</text><text x="242.03" y="344.297" font-size="16" style="white-space:pre" class="B C D E">nayab/peer</text><text x="97.03" y="344.297" font-size="16" style="white-space:pre" class="B C D E">basti</text></svg>