<svg xmlns="http://www.w3.org/2000/svg" xmlns:xlink="http://www.w3.org/1999/xlink" width="379" height="373" xmlns:v="https://vecta.io/nano"><style><![CDATA[.B{font-family:Virgil, Segoe UI Emoji}.C{fill:#000}.D{text-anchor:middle}.E{direction:ltr}.F{font-size:20px}.G{stroke-linecap:round}.H{direction:rtl}.I{text-anchor:end}]]></style><defs><style>@font-face{font-family:"Virgil";src:url("../Virgil.woff2")}</style><path id="A" d="M212.778 132.056c0 .32-.03.64-.08.96-.06.31-.14.62-.25.92s-.25.59-.41.87a5.32 5.32 0 0 1-.55.79 5.3 5.3 0 0 1-.67.67 5.32 5.32 0 0 1-.79.55c-.28.16-.57.3-.87.41s-.61.19-.92.25c-.32.05-.64.08-.96.08s-.64-.03-.96-.08c-.31-.06-.62-.14-.92-.25s-.59-.25-.87-.41a5.32 5.32 0 0 1-.79-.55 5.3 5.3 0 0 1-.67-.67 5.32 5.32 0 0 1-.55-.79c-.16-.28-.3-.57-.41-.87s-.19-.61-.25-.92c-.05-.32-.08-.64-.08-.96s.03-.64.08-.96c.06-.31.14-.62.25-.92s.25-.59.41-.87a5.32 5.32 0 0 1 .55-.79 5.3 5.3 0 0 1 .67-.67 5.32 5.32 0 0 1 .79-.55c.28-.16.57-.3.87-.41s.61-.19.92-.25c.32-.05.64-.08.96-.08s.64.03.96.08c.31.06.62.14.92.25s.59.25.87.41a5.32 5.32 0 0 1 .79.55 5.3 5.3 0 0 1 .67.67 5.32 5.32 0 0 1 .55.79c.16.28.3.57.41.87s.19.61.25.92c.05.32.07.8.08.96s.01-.16 0 0"/></defs><path fill="#fff" d="M0 0h379v373H0z"/><path d="M10 10h359M10 10h359m0 0v353m0-353v353m0 0H10m359 0H10m0 0V10m0 353V10" stroke="#000" fill="none" class="G"/><text x="55" y="59" style="white-space:pre" class="B C D E F">ज़</text><text x="336" y="60" style="white-space:pre" class="B C D E F">Z</text><text x="325" y="320" font-size="23.077" style="white-space:pre" class="B C D H">ذائقہ</text><text x="198" y="319.75" style="white-space:pre" class="B C D F H">غذا/جذبات</text><text x="69.5" y="322" font-size="29.231" style="white-space:pre" class="B C D H">بذ</text><text x="187" y="61.727" style="white-space:pre" class="B C D E F">Zaal(ذ)</text><path d="M211.939 150.037c2.39 5.49 13.63 21.1 14.37 32.93.73 11.83-1.34 29.2-9.98 38.05-8.63 8.85-29.71 13.07-41.83 15.06s-25.74-2.61-30.89-3.13m68.33-82.91c2.39 5.49 13.63 21.1 14.37 32.93.73 11.83-1.34 29.2-9.98 38.05-8.63 8.85-29.71 13.07-41.83 15.06s-25.74-2.61-30.89-3.13" stroke="#000" fill="none" class="G"/><text x="344.306" y="343.935" font-size="16" style="white-space:pre" class="B C E I">zaiqa</text><text x="235.306" y="343.935" font-size="16" style="white-space:pre" class="B C E I">zajbat/gza</text><text x="77.306" y="343.935" font-size="16" style="white-space:pre" class="B C E I">bz</text><use xlink:href="#A" fill="#fd7e14"/><use xlink:href="#A" stroke="#000" fill="none" class="G"/></svg>