<svg xmlns="http://www.w3.org/2000/svg" width="379" height="373" xmlns:v="https://vecta.io/nano"><style><![CDATA[.B{font-family:Virgil, Segoe UI Emoji}.C{fill:#000}.D{text-anchor:middle}.E{direction:ltr}.F{font-size:20px}.G{direction:rtl}.H{text-anchor:end}.I{stroke-linecap:round}]]></style><defs><style>@font-face{font-family:"Virgil";src:url("../Virgil.woff2")}</style></defs><path fill="#fff" d="M0 0h379v373H0z"/><path d="M10 10h359M10 10h359m0 0v353m0-353v353m0 0H10m359 0H10m0 0V10m0 353V10" stroke="#000" fill="none" class="I"/><text x="55" y="59" style="white-space:pre" class="B C D E F">अ/a</text><text x="336" y="60" style="white-space:pre" class="B C D E F">Zabar</text><text x="325" y="320" font-size="23.077" style="white-space:pre" class="B C D G">اَب</text><text x="205" y="320.75" font-size="25" style="white-space:pre" class="B C D G">دَادَا</text><text x="69.5" y="320" style="white-space:pre" class="B C D F G">وَازَن</text><text x="187" y="61.727" style="white-space:pre" class="B C D F G">ا + َ = اَ</text><text x="337.935" y="344.897" font-size="16" style="white-space:pre" class="B C E H">ab</text><text x="218.935" y="344.897" font-size="16" style="white-space:pre" class="B C E H">dada</text><text x="86.935" y="344.897" font-size="16" style="white-space:pre" class="B C E H">vajan</text><g stroke="#000" fill="none" class="I"><path d="M241.9 188.055l-119.254-.178" stroke-width="1.5" stroke-dasharray="1.5 7"/><path d="M205.619 129.916l-52.91 22.578m52.91-22.578l-52.91 22.578"/></g></svg>