<svg xmlns="http://www.w3.org/2000/svg" xmlns:xlink="http://www.w3.org/1999/xlink" width="379" height="373" xmlns:v="https://vecta.io/nano"><style><![CDATA[.B{font-family:Virgil, Segoe UI Emoji}.C{fill:#000}.D{text-anchor:middle}.E{direction:ltr}.F{stroke:#000}.G{stroke-linecap:round}.H{direction:rtl}.I{fill:#fd7e14}]]></style><defs><style>@font-face{font-family:"Virgil";src:url("../Virgil.woff2")}</style><path id="A" d="M226.77 133.167c0 .32-.03.64-.08.96-.06.31-.14.62-.25.92s-.25.59-.41.87a5.32 5.32 0 0 1-.55.79 5.3 5.3 0 0 1-.67.67 5.32 5.32 0 0 1-.79.55c-.28.16-.57.3-.87.41s-.61.19-.92.25c-.32.05-.64.08-.96.08s-.64-.03-.96-.08c-.31-.06-.62-.14-.92-.25s-.59-.25-.87-.41a5.32 5.32 0 0 1-.79-.55 5.3 5.3 0 0 1-.67-.67 5.32 5.32 0 0 1-.55-.79c-.16-.28-.3-.57-.41-.87s-.19-.61-.25-.92c-.05-.32-.08-.64-.08-.96s.03-.64.08-.96c.06-.31.14-.62.25-.92s.25-.59.41-.87a5.32 5.32 0 0 1 .55-.79 5.3 5.3 0 0 1 .67-.67 5.32 5.32 0 0 1 .79-.55c.28-.16.57-.3.87-.41s.61-.19.92-.25c.32-.05.64-.08.96-.08s.64.03.96.08c.31.06.62.14.92.25s.59.25.87.41a5.32 5.32 0 0 1 .79.55 5.3 5.3 0 0 1 .67.67 5.32 5.32 0 0 1 .55.79c.16.28.3.57.41.87s.19.61.25.92c.05.32.07.8.08.96s.01-.16 0 0"/></defs><path fill="#fff" d="M0 0h379v373H0z"/><path d="M10 10h359M10 10h359m0 0v353m0-353v353m0 0H10m359 0H10m0 0V10m0 353V10" fill="none" class="F G"/><text x="55" y="59" font-size="20" style="white-space:pre" class="B C D E">झ़</text><text x="336" y="60" font-size="20" style="white-space:pre" class="B C D E">Z</text><text x="325" y="320" font-size="23.077" style="white-space:pre" class="B C D H">ژالہ</text><text x="197" y="320.75" font-size="25" style="white-space:pre" class="B C D H">اژدھا</text><text x="69.5" y="322" font-size="29.231" style="white-space:pre" class="B C D H">بژ</text><text x="187" y="61.727" font-size="20" style="white-space:pre" class="B C D E">Zhay(ژ)</text><path d="M238.978 146.037c.09 6.79 3.09 27.18.52 40.72-2.58 13.54-6.85 30.29-15.97 40.51-9.12 10.21-25.43 15.72-38.75 20.78s-34.3 7.98-41.16 9.58m95.36-111.59c.09 6.79 3.09 27.18.52 40.72-2.58 13.54-6.85 30.29-15.97 40.51-9.12 10.21-25.43 15.72-38.75 20.78s-34.3 7.98-41.16 9.58" fill="none" class="F G"/><text x="328.411" y="345.366" font-size="16" style="white-space:pre" class="B C D E">žāla</text><text x="201.411" y="345.366" font-size="16" style="white-space:pre" class="B C D E">azdha</text><text x="67.411" y="345.366" font-size="16" style="white-space:pre" class="B C D E">bz</text><use xlink:href="#A" class="I"/><use xlink:href="#A" fill="none" class="F G"/><use xlink:href="#A" x="13.127" y="-20" class="I"/><use xlink:href="#A" x="13.127" y="-20" fill="none" class="F G"/><use xlink:href="#A" x="27.127" class="I"/><use xlink:href="#A" x="27.127" fill="none" class="F G"/></svg>