<svg xmlns="http://www.w3.org/2000/svg" xmlns:xlink="http://www.w3.org/1999/xlink" width="379" height="373" xmlns:v="https://vecta.io/nano"><style><![CDATA[.B{font-family:Virgil, Segoe UI Emoji}.C{fill:#000}.D{font-size:20px}.E{text-anchor:middle}.F{direction:ltr}.G{stroke-linecap:round}.H{direction:rtl}.I{text-anchor:end}]]></style><defs><style>@font-face{font-family:"Virgil";src:url("../Virgil.woff2")}</style><path id="A" d="M11 5.5c0 .32-.03.64-.08.96-.06.31-.14.62-.25.92s-.25.59-.41.87a5.32 5.32 0 0 1-.55.79 5.3 5.3 0 0 1-.67.67 5.32 5.32 0 0 1-.79.55c-.28.16-.57.3-.87.41s-.61.19-.92.25c-.32.05-.64.08-.96.08s-.64-.03-.96-.08c-.31-.06-.62-.14-.92-.25s-.59-.25-.87-.41a5.32 5.32 0 0 1-.79-.55 5.3 5.3 0 0 1-.67-.67 5.32 5.32 0 0 1-.55-.79c-.16-.28-.3-.57-.41-.87s-.19-.61-.25-.92C.03 6.14 0 5.82 0 5.5s.03-.64.08-.96c.06-.31.14-.62.25-.92s.25-.59.41-.87a5.32 5.32 0 0 1 .55-.79 5.3 5.3 0 0 1 .67-.67 5.32 5.32 0 0 1 .79-.55c.28-.16.57-.3.87-.41s.61-.19.92-.25C4.86.03 5.18 0 5.5 0s.64.03.96.08c.31.06.62.14.92.25s.59.25.87.41a5.32 5.32 0 0 1 .79.55 5.3 5.3 0 0 1 .67.67 5.32 5.32 0 0 1 .55.79c.16.28.3.57.41.87s.19.61.25.92c.05.32.07.8.08.96s.01-.16 0 0"/></defs><path fill="#fff" d="M0 0h379v373H0z"/><path d="M10 10h359M10 10h359m0 0v353m0-353v353m0 0H10m359 0H10m0 0V10m0 353V10" stroke="#000" fill="none" class="G"/><text x="55" y="59" style="white-space:pre" class="B C D E F">ज़</text><text x="336" y="60" style="white-space:pre" class="B C D E F">Z</text><text x="325" y="320" style="white-space:pre" class="B C D E H">ظلم </text><text x="205" y="319.75" style="white-space:pre" class="B C D E H">نظم</text><text x="70.5" y="319.498" style="white-space:pre" class="B C D E H">حظ/لفظ</text><text x="187" y="61.727" style="white-space:pre" class="B C D E F">Zoye(ظ)</text><text x="348.948" y="340.791" font-size="16" style="white-space:pre" class="B C F I"> zulm</text><text x="220.948" y="340.791" font-size="16" style="white-space:pre" class="B C F I">nazm</text><text x="102.948" y="340.791" font-size="16" style="white-space:pre" class="B C F I">lafz/haz</text><path d="M160.788 127.461l.86 26.62c.14 11.05-3.06 35.87 0 39.65 3.06 3.77 9.89-13.23 18.36-16.98s26.62-7.6 32.46-5.54 8.61 13.82 2.58 17.91c-6.03 4.1-25.98 5.65-38.76 6.66-12.77 1.01-31.58-.49-37.89-.59m22.39-67.73l.86 26.62c.14 11.05-3.06 35.87 0 39.65 3.06 3.77 9.89-13.23 18.36-16.98s26.62-7.6 32.46-5.54 8.61 13.82 2.58 17.91c-6.03 4.1-25.98 5.65-38.76 6.66-12.77 1.01-31.58-.49-37.89-.59" stroke="#000" fill="none" class="G"/><g transform="matrix(.567161 -.823607 .823607 .567161 179.072999 155.714951)"><use xlink:href="#A" fill="#fd7e14"/><use xlink:href="#A" stroke="#000" fill="none" class="G"/></g></svg>