<svg version="1.1" xmlns="http://www.w3.org/2000/svg" viewBox="0 0 379 373" width="379" height="373" >
  <!-- svg-source:excalidraw -->
  
  <defs>
    <style>
      @font-face {
        font-family: "Virgil";
        src: url("https://excalidraw.com/Virgil.woff2");
      }
      @font-face {
        font-family: "Cascadia";
        src: url("https://excalidraw.com/Cascadia.woff2");
      }
    </style>
  </defs>
  <rect x="0" y="0" width="379" height="373" fill="#ffffff"></rect><g stroke-linecap="round" transform="translate(10 10) rotate(0 179.5 176.5)"><path d="M-0.04 0.52 C82.66 0.36, 166.72 0.55, 359.46 -0.25 M0.01 -0.28 C80.42 0.74, 161.51 1.24, 359.43 0.54 M358.79 1.11 C356.24 78.05, 356.18 157.29, 357.79 351.81 M359.05 0.49 C357.96 127.79, 358.97 254.36, 359.13 353.4 M359.55 351.89 C226.19 353.34, 95.31 352.57, 1.23 353.98 M358.59 352.75 C249.06 354.65, 138.45 354.52, 0.01 352.55 M-0.71 354.11 C-0.34 267.17, -0.32 182.8, -0.76 -0.76 M0.16 352.61 C-0.66 230.52, -0.44 107.84, -0.52 0.25" stroke="#000000" stroke-width="1" fill="none"></path></g><g stroke-linecap="round"><g transform="translate(100 184) rotate(271.193489423982 83.5 0)"><path d="M0 0 C27.83 0, 139.17 0, 167 0 M0 0 C27.83 0, 139.17 0, 167 0" stroke="#000000" stroke-width="1" fill="none"></path></g></g><g transform="translate(49 39) rotate(0 8 13.5)"><text x="0" y="20" font-family="Virgil, Segoe UI Emoji" font-size="20px" fill="#000000" text-anchor="start" style="white-space: pre;" direction="ltr">अ</text></g><g transform="translate(329 42) rotate(0 7 12.5)"><text x="0" y="18" font-family="Virgil, Segoe UI Emoji" font-size="20px" fill="#000000" text-anchor="start" style="white-space: pre;" direction="ltr">A</text></g><g transform="translate(318 299) rotate(0 7 13.5)"><text x="0" y="21" font-family="Helvetica, Segoe UI Emoji" font-size="23.076923076923066px" fill="#000000" text-anchor="end" style="white-space: pre;" direction="rtl">با</text></g><g transform="translate(185 297.75) rotate(0 19.5 14.5)"><text x="0" y="23" font-family="Helvetica, Segoe UI Emoji" font-size="24.999999999999996px" fill="#000000" text-anchor="end" style="white-space: pre;" direction="rtl">باب</text></g><g transform="translate(54 295) rotate(0 18.5 17)"><text x="0" y="27" font-family="Helvetica, Segoe UI Emoji" font-size="29.230769230769223px" fill="#000000" text-anchor="end" style="white-space: pre;" direction="rtl">اب</text></g><g transform="translate(169.9643383026123 42.91873645782471) rotate(0 27 13)"><text x="27" y="19" font-family="Virgil, Segoe UI Emoji" font-size="20px" fill="#000000" text-anchor="middle" style="white-space: pre;" direction="ltr">Alif(ا)</text></g></svg>