<svg version="1.1" xmlns="http://www.w3.org/2000/svg" viewBox="0 0 379 373" width="379" height="373">
  <!-- svg-source:excalidraw -->
  
  <defs>
    <style>
      @font-face {
        font-family: "Virgil";
        src: url("../Virgil.woff2");;
      }
      
    </style>
  </defs>
  <rect x="0" y="0" width="379" height="373" fill="#ffffff"></rect><g stroke-linecap="round" transform="translate(10 10) rotate(0 179.5 176.5)"><path d="M0.15 0.97 C119.85 0.93, 239.93 2.58, 358.81 -0.06 M0.57 -0.05 C124.83 2.06, 248.38 2.01, 358.53 0.33 M358.99 -1.1 C359.51 122.55, 359.38 244.22, 358.69 353.9 M358.88 -0.03 C358.3 113.96, 359.32 228.7, 358.97 353.35 M359.05 352.56 C248.23 354.56, 138.4 354.94, 1.06 352.88 M359.19 353.44 C279.75 351.79, 202.33 351.94, -0.61 353.55 M-0.62 352.77 C2.52 277.79, 1.21 203.26, -0.85 -0.6 M0.16 353.09 C-1.27 228.04, -1.03 103.58, -0.15 0.58" stroke="#000000" stroke-width="1" fill="none"></path></g><g stroke-linecap="round"><g transform="translate(100 191) rotate(271.193489423982 83.5 0)"><path d="M0 0 C27.83 0, 139.17 0, 167 0 M0 0 C27.83 0, 139.17 0, 167 0" stroke="#000000" stroke-width="1" fill="none"></path></g></g><g transform="translate(49 39) rotate(0 10.5 13.5)"><text x="0" y="20" font-family="Virgil, Segoe UI Emoji" font-size="20px" fill="#000000" text-anchor="start" style="white-space: pre;" direction="ltr">आ</text></g><g transform="translate(329 42) rotate(0 7 12.5)"><text x="0" y="18" font-family="Virgil, Segoe UI Emoji" font-size="20px" fill="#000000" text-anchor="start" style="white-space: pre;" direction="ltr">Ā</text></g><g transform="translate(318 299) rotate(0 14.5 13.5)"><text x="0" y="21" font-family="Helvetica, Segoe UI Emoji" font-size="23.076923076923066px" fill="#000000" text-anchor="end" style="white-space: pre;" direction="rtl">آب</text></g><g transform="translate(185 297.75) rotate(0 19.5 14.5)"><text x="0" y="23" font-family="Helvetica, Segoe UI Emoji" font-size="24.999999999999996px" fill="#000000" text-anchor="end" style="white-space: pre;" direction="rtl">بآب</text></g><g transform="translate(50 301) rotate(0 15 12)"><text x="0" y="19" font-family="Helvetica, Segoe UI Emoji" font-size="20px" fill="#000000" text-anchor="end" style="white-space: pre;" direction="rtl">لآ/بآ</text></g><g transform="translate(127.9643383026123 42.91873645782471) rotate(0 69 13)"><text x="69" y="19" font-family="Virgil, Segoe UI Emoji" font-size="20px" fill="#000000" text-anchor="middle" style="white-space: pre;" direction="ltr">Alif mad aa(آ)</text></g><g transform="translate(314.06755447387695 327.297407746315) rotate(0 15 10)"><text x="30" y="14" font-family="Virgil, Segoe UI Emoji" font-size="16px" fill="#000000" text-anchor="end" style="white-space: pre;" direction="ltr">aab</text></g><g transform="translate(183.06755447387695 327.297407746315) rotate(0 19.5 10)"><text x="39" y="14" font-family="Virgil, Segoe UI Emoji" font-size="16px" fill="#000000" text-anchor="end" style="white-space: pre;" direction="ltr">baab</text></g><g transform="translate(46.06755447387695 327.297407746315) rotate(0 32 10)"><text x="64" y="14" font-family="Virgil, Segoe UI Emoji" font-size="16px" fill="#000000" text-anchor="end" style="white-space: pre;" direction="ltr">baa/laa</text></g><g stroke-linecap="round"><g transform="translate(166.5000000000001 92.33527901437503) rotate(0 21.111111111111143 -6.111111111111143)"><path d="M0 0 C2.04 -2.22, 7.78 -13.52, 12.22 -13.33 C16.67 -13.15, 21.67 0.93, 26.67 1.11 C31.67 1.3, 39.63 -10, 42.22 -12.22 M0 0 C2.04 -2.22, 7.78 -13.52, 12.22 -13.33 C16.67 -13.15, 21.67 0.93, 26.67 1.11 C31.67 1.3, 39.63 -10, 42.22 -12.22" stroke="#000000" stroke-width="1" fill="none"></path></g></g></svg>