<svg version="1.1" xmlns="http://www.w3.org/2000/svg" viewBox="0 0 376.66666666666646 367.7777777777776" width="376.66666666666646" height="367.7777777777776">
  <!-- svg-source:excalidraw -->
  
  <defs>
    <style>
      @font-face {
        font-family: "Virgil";
        src: url("https://excalidraw.com/Virgil.woff2");
      }
      @font-face {
        font-family: "Cascadia";
        src: url("https://excalidraw.com/Cascadia.woff2");
      }
    </style>
  </defs>
  <rect x="0" y="0" width="376.66666666666646" height="367.7777777777776" fill="#ffffff"></rect><g stroke-linecap="round" transform="translate(10 10) rotate(0 178.33333333333323 173.8888888888888)"><path d="M0 0 C0 0, 0 0, 0 0 M0 0 C0 0, 0 0, 0 0 M-0.26 6.4 C1.05 4.89, 2.35 3.39, 4.99 0.36 M-0.26 6.4 C1.04 4.9, 2.34 3.4, 4.99 0.36 M0.13 12.04 C2.38 9.46, 4.62 6.87, 10.63 -0.03 M0.13 12.04 C3.53 8.13, 6.93 4.22, 10.63 -0.03 M-0.13 18.44 C5.89 11.52, 11.9 4.6, 15.62 0.33 M-0.13 18.44 C4.73 12.85, 9.59 7.26, 15.62 0.33 M0.27 24.08 C4.47 19.24, 8.68 14.41, 21.26 -0.07 M0.27 24.08 C7.87 15.34, 15.47 6.59, 21.26 -0.07 M0 30.48 C8.41 20.81, 16.81 11.15, 26.25 0.29 M0 30.48 C7.01 22.42, 14.01 14.37, 26.25 0.29 M-0.26 36.88 C6.79 28.78, 13.83 20.67, 31.89 -0.1 M-0.26 36.88 C7.95 27.43, 16.16 17.99, 31.89 -0.1 M0.14 42.52 C11.97 28.91, 23.81 15.29, 36.88 0.26 M0.14 42.52 C12.59 28.2, 25.04 13.88, 36.88 0.26 M-0.12 48.92 C9.45 37.9, 19.03 26.89, 42.52 -0.14 M-0.12 48.92 C14.18 32.46, 28.49 16, 42.52 -0.14 M0.27 54.56 C10.34 42.98, 20.4 31.41, 47.51 0.22 M0.27 54.56 C19.07 32.93, 37.87 11.31, 47.51 0.22 M0.01 60.96 C15.32 43.35, 30.63 25.73, 53.15 -0.17 M0.01 60.96 C12.89 46.14, 25.77 31.33, 53.15 -0.17 M-0.25 67.36 C16.42 48.18, 33.09 29, 58.14 0.19 M-0.25 67.36 C15.84 48.85, 31.92 30.34, 58.14 0.19 M0.14 73 C19.14 51.15, 38.13 29.3, 63.78 -0.21 M0.14 73 C14.38 56.62, 28.62 40.24, 63.78 -0.21 M-0.12 79.4 C27.39 47.76, 54.89 16.11, 68.77 0.15 M-0.12 79.4 C17.83 58.75, 35.78 38.1, 68.77 0.15 M0.28 85.04 C19.66 62.74, 39.04 40.45, 74.41 -0.24 M0.28 85.04 C17.7 64.99, 35.13 44.95, 74.41 -0.24 M0.01 91.44 C22.34 65.75, 44.67 40.06, 79.4 0.12 M0.01 91.44 C31.76 54.91, 63.51 18.39, 79.4 0.12 M-0.25 97.84 C16.82 78.21, 33.88 58.58, 85.04 -0.28 M-0.25 97.84 C20.19 74.32, 40.63 50.81, 85.04 -0.28 M0.15 103.48 C20.43 80.15, 40.71 56.82, 90.03 0.08 M0.15 103.48 C35.96 62.28, 71.77 21.08, 90.03 0.08 M-0.11 109.88 C24.26 81.83, 48.64 53.79, 95.67 -0.31 M-0.11 109.88 C29.45 75.87, 59.01 41.86, 95.67 -0.31 M0.28 115.52 C39.79 70.07, 79.3 24.62, 100.66 0.05 M0.28 115.52 C32.26 78.73, 64.24 41.95, 100.66 0.05 M0.02 121.92 C40.64 75.19, 81.26 28.46, 106.3 -0.34 M0.02 121.92 C34.13 82.68, 68.24 43.44, 106.3 -0.34 M-0.24 128.32 C34.75 88.06, 69.74 47.81, 111.29 0.02 M-0.24 128.32 C31.06 92.31, 62.36 56.29, 111.29 0.02 M0.15 133.96 C30.08 99.53, 60.01 65.1, 116.27 0.38 M0.15 133.96 C30.73 98.79, 61.3 63.62, 116.27 0.38 M-0.11 140.36 C46.47 86.78, 93.04 33.2, 121.92 -0.02 M-0.11 140.36 C44.17 89.42, 88.45 38.48, 121.92 -0.02 M0.29 146 C47.5 91.69, 94.71 37.38, 126.91 0.34 M0.29 146 C42.1 97.9, 83.92 49.79, 126.91 0.34 M0.02 152.4 C47.77 97.47, 95.52 42.54, 132.55 -0.05 M0.02 152.4 C39.93 106.49, 79.84 60.58, 132.55 -0.05 M-0.24 158.8 C46.13 105.46, 92.5 52.12, 137.54 0.31 M-0.24 158.8 C30.65 123.26, 61.54 87.73, 137.54 0.31 M0.16 164.44 C40.15 118.43, 80.15 72.42, 143.18 -0.09 M0.16 164.44 C55.83 100.4, 111.5 36.35, 143.18 -0.09 M-0.1 170.84 C55.49 106.88, 111.08 42.93, 148.17 0.27 M-0.1 170.84 C37.75 127.29, 75.61 83.74, 148.17 0.27 M0.29 176.48 C52.02 116.97, 103.76 57.46, 153.81 -0.12 M0.29 176.48 C58.44 109.58, 116.6 42.68, 153.81 -0.12 M0.03 182.88 C36.76 140.62, 73.5 98.36, 158.8 0.24 M0.03 182.88 C38.39 138.75, 76.74 94.63, 158.8 0.24 M-0.23 189.27 C65.1 114.12, 130.42 38.97, 164.44 -0.16 M-0.23 189.27 C62.21 117.44, 124.65 45.62, 164.44 -0.16 M0.16 194.92 C45.25 143.05, 90.34 91.18, 169.43 0.2 M0.16 194.92 C35.51 154.26, 70.85 113.6, 169.43 0.2 M-0.1 201.32 C50.78 142.78, 101.67 84.25, 175.07 -0.19 M-0.1 201.32 C62.54 129.25, 125.18 57.19, 175.07 -0.19 M0.3 206.96 C64.59 133, 128.88 59.03, 180.06 0.17 M0.3 206.96 C52.54 146.86, 104.79 86.76, 180.06 0.17 M0.03 213.36 C58.9 145.64, 117.77 77.92, 185.7 -0.23 M0.03 213.36 C44.43 162.29, 88.82 111.22, 185.7 -0.23 M-0.23 219.75 C37.98 175.8, 76.18 131.85, 190.69 0.13 M-0.23 219.75 C43.39 169.58, 87 119.41, 190.69 0.13 M0.17 225.4 C67.35 148.12, 134.53 70.83, 196.33 -0.26 M0.17 225.4 C40.68 178.8, 81.18 132.2, 196.33 -0.26 M-0.09 231.8 C41.36 184.1, 82.82 136.41, 201.32 0.1 M-0.09 231.8 C54.6 168.88, 109.29 105.97, 201.32 0.1 M0.3 237.44 C62.27 166.15, 124.24 94.86, 206.96 -0.3 M0.3 237.44 C41.73 189.78, 83.15 142.12, 206.96 -0.3 M0.04 243.84 C43.28 194.09, 86.53 144.34, 211.95 0.06 M0.04 243.84 C58.72 176.33, 117.4 108.82, 211.95 0.06 M-0.22 250.23 C62.86 177.66, 125.95 105.09, 217.59 -0.33 M-0.22 250.23 C47.57 195.25, 95.37 140.27, 217.59 -0.33 M0.17 255.88 C76.08 168.55, 151.99 81.23, 222.58 0.03 M0.17 255.88 C46.76 202.28, 93.35 148.68, 222.58 0.03 M-0.09 262.27 C63.68 188.92, 127.45 115.56, 228.22 -0.36 M-0.09 262.27 C50.07 204.57, 100.23 146.87, 228.22 -0.36 M0.3 267.92 C89.08 165.79, 177.86 63.67, 233.21 0 M0.3 267.92 C56.65 203.1, 112.99 138.29, 233.21 0 M0.04 274.32 C48.54 218.53, 97.04 162.73, 238.19 0.36 M0.04 274.32 C51.33 215.32, 102.61 156.32, 238.19 0.36 M-0.22 280.71 C49.7 223.29, 99.61 165.87, 243.84 -0.04 M-0.22 280.71 C61.94 209.21, 124.1 137.7, 243.84 -0.04 M0.18 286.36 C65.96 210.68, 131.74 135.01, 248.82 0.32 M0.18 286.36 C94.23 178.16, 188.28 69.96, 248.82 0.32 M-0.08 292.75 C78.66 202.17, 157.41 111.58, 254.47 -0.07 M-0.08 292.75 C85.48 194.33, 171.04 95.9, 254.47 -0.07 M0.31 298.4 C60.22 229.48, 120.13 160.56, 259.45 0.29 M0.31 298.4 C87.95 197.58, 175.58 96.77, 259.45 0.29 M0.05 304.8 C82.45 210, 164.86 115.21, 265.1 -0.11 M0.05 304.8 C74.88 218.71, 149.71 132.63, 265.1 -0.11 M-0.21 311.19 C91.64 205.53, 183.49 99.87, 270.08 0.25 M-0.21 311.19 C76.17 223.32, 152.56 135.45, 270.08 0.25 M0.18 316.84 C66.74 240.27, 133.3 163.7, 275.73 -0.14 M0.18 316.84 C82.09 222.62, 163.99 128.4, 275.73 -0.14 M-0.08 323.23 C110.53 195.99, 221.15 68.74, 280.71 0.22 M-0.08 323.23 C72.05 240.26, 144.18 157.28, 280.71 0.22 M0.31 328.88 C72.08 246.32, 143.84 163.77, 286.36 -0.18 M0.31 328.88 C84.01 232.59, 167.71 136.31, 286.36 -0.18 M0.05 335.27 C77.02 246.73, 153.99 158.19, 291.34 0.18 M0.05 335.27 C77 246.76, 153.94 158.24, 291.34 0.18 M-0.21 341.67 C90.64 237.17, 181.48 132.66, 296.99 -0.21 M-0.21 341.67 C115.1 209.03, 230.4 76.39, 296.99 -0.21 M0.19 347.32 C117.45 212.41, 234.72 77.51, 301.97 0.15 M0.19 347.32 C110.46 220.46, 220.73 93.61, 301.97 0.15 M3.21 349.94 C91.45 248.42, 179.7 146.91, 307.62 -0.25 M3.21 349.94 C67.35 276.15, 131.49 202.36, 307.62 -0.25 M8.19 350.3 C91 255.04, 173.8 159.79, 312.6 0.11 M8.19 350.3 C123.68 217.45, 239.16 84.6, 312.6 0.11 M13.18 350.66 C106.12 243.74, 199.07 136.82, 318.25 -0.28 M13.18 350.66 C133.99 211.68, 254.8 72.71, 318.25 -0.28 M18.82 350.27 C136.56 214.82, 254.31 79.37, 323.23 0.08 M18.82 350.27 C135.31 216.26, 251.8 82.26, 323.23 0.08 M23.81 350.63 C136.18 221.35, 248.56 92.08, 328.88 -0.31 M23.81 350.63 C111.32 249.96, 198.83 149.29, 328.88 -0.31 M29.45 350.23 C112.35 254.87, 195.25 159.5, 333.86 0.05 M29.45 350.23 C93.28 276.8, 157.12 203.37, 333.86 0.05 M34.44 350.59 C130.98 239.53, 227.53 128.47, 339.51 -0.35 M34.44 350.59 C105.84 268.45, 177.24 186.32, 339.51 -0.35 M40.08 350.2 C111.69 267.82, 183.3 185.44, 344.49 0.01 M40.08 350.2 C147.43 226.7, 254.78 103.21, 344.49 0.01 M45.07 350.56 C136.91 244.9, 228.76 139.25, 349.48 0.37 M45.07 350.56 C135.24 246.83, 225.41 143.1, 349.48 0.37 M50.71 350.16 C126.62 262.84, 202.52 175.52, 355.12 -0.02 M50.71 350.16 C130.34 258.56, 209.96 166.97, 355.12 -0.02 M55.7 350.52 C144.81 248.02, 233.91 145.51, 358.8 1.85 M55.7 350.52 C158.69 232.05, 261.67 113.58, 358.8 1.85 M61.34 350.13 C137.31 262.73, 213.29 175.33, 358.54 8.24 M61.34 350.13 C133.94 266.61, 206.54 183.1, 358.54 8.24 M66.33 350.49 C177.63 222.45, 288.93 94.42, 358.93 13.89 M66.33 350.49 C165.52 236.38, 264.71 122.28, 358.93 13.89 M71.97 350.09 C147.16 263.59, 222.36 177.1, 358.67 20.28 M71.97 350.09 C177.03 229.24, 282.09 108.38, 358.67 20.28 M76.96 350.45 C151.76 264.4, 226.57 178.35, 359.07 25.93 M76.96 350.45 C154.79 260.92, 232.63 171.38, 359.07 25.93 M82.6 350.06 C150.17 272.33, 217.73 194.61, 358.8 32.33 M82.6 350.06 C179.69 238.37, 276.78 126.69, 358.8 32.33 M87.59 350.42 C187.79 235.15, 287.98 119.89, 358.54 38.72 M87.59 350.42 C152.72 275.49, 217.86 200.57, 358.54 38.72 M93.23 350.02 C158.4 275.06, 223.57 200.09, 358.94 44.37 M93.23 350.02 C167.83 264.21, 242.43 178.39, 358.94 44.37 M98.22 350.38 C184.93 250.63, 271.65 150.88, 358.68 50.76 M98.22 350.38 C184.2 251.48, 270.18 152.57, 358.68 50.76 M103.86 349.99 C173.77 269.57, 243.67 189.16, 359.07 56.41 M103.86 349.99 C178.71 263.89, 253.56 177.79, 359.07 56.41 M108.85 350.35 C186.43 261.1, 264.02 171.85, 358.81 62.81 M108.85 350.35 C196.48 249.54, 284.11 148.73, 358.81 62.81 M114.49 349.95 C165.13 291.7, 215.78 233.44, 358.55 69.2 M114.49 349.95 C184.28 269.67, 254.08 189.38, 358.55 69.2 M119.48 350.31 C185.38 274.5, 251.28 198.69, 358.94 74.85 M119.48 350.31 C194.94 263.51, 270.39 176.71, 358.94 74.85 M125.12 349.92 C192.89 271.96, 260.66 194, 358.68 81.24 M125.12 349.92 C175 292.55, 224.87 235.18, 358.68 81.24 M130.11 350.28 C202.83 266.63, 275.54 182.98, 359.07 86.89 M130.11 350.28 C209.05 259.46, 288 168.65, 359.07 86.89 M135.1 350.64 C187.26 290.63, 239.43 230.62, 358.81 93.28 M135.1 350.64 C222.01 250.66, 308.93 150.67, 358.81 93.28 M140.74 350.25 C215.87 263.82, 291 177.39, 358.55 99.68 M140.74 350.25 C221.02 257.9, 301.3 165.54, 358.55 99.68 M145.73 350.61 C212.9 273.33, 280.08 196.05, 358.95 105.33 M145.73 350.61 C227.01 257.1, 308.3 163.59, 358.95 105.33 M151.37 350.21 C230.53 259.15, 309.69 168.09, 358.69 111.72 M151.37 350.21 C197.64 296.98, 243.91 243.75, 358.69 111.72 M156.36 350.57 C213.42 284.93, 270.48 219.29, 359.08 117.37 M156.36 350.57 C221.19 275.99, 286.03 201.4, 359.08 117.37 M162 350.18 C215.15 289.04, 268.3 227.9, 358.82 123.76 M162 350.18 C231.52 270.2, 301.04 190.23, 358.82 123.76 M166.99 350.54 C213.98 296.48, 260.96 242.43, 358.56 130.16 M166.99 350.54 C241.75 264.53, 316.52 178.52, 358.56 130.16 M172.63 350.14 C241.29 271.15, 309.96 192.16, 358.95 135.8 M172.63 350.14 C230.58 283.48, 288.52 216.83, 358.95 135.8 M177.62 350.5 C247.61 269.98, 317.6 189.47, 358.69 142.2 M177.62 350.5 C238.53 280.44, 299.43 210.37, 358.69 142.2 M183.26 350.11 C227.82 298.85, 272.38 247.58, 359.08 147.85 M183.26 350.11 C228.4 298.18, 273.54 246.26, 359.08 147.85 M188.25 350.47 C231.32 300.92, 274.39 251.37, 358.82 154.24 M188.25 350.47 C249.6 279.89, 310.95 209.31, 358.82 154.24 M193.89 350.07 C229.81 308.75, 265.73 267.44, 358.56 160.64 M193.89 350.07 C236.44 301.13, 278.99 252.18, 358.56 160.64 M198.88 350.43 C240.11 303, 281.35 255.56, 358.96 166.28 M198.88 350.43 C234.03 310, 269.18 269.56, 358.96 166.28 M204.52 350.04 C262.04 283.87, 319.56 217.7, 358.69 172.68 M204.52 350.04 C264.92 280.55, 325.33 211.07, 358.69 172.68 M209.51 350.4 C266.86 284.42, 324.21 218.44, 359.09 178.33 M209.51 350.4 C259.37 293.04, 309.23 235.68, 359.09 178.33 M215.15 350 C264.87 292.81, 314.59 235.62, 358.83 184.72 M215.15 350 C249.71 310.24, 284.28 270.48, 358.83 184.72 M220.14 350.36 C258.73 305.97, 297.33 261.57, 358.57 191.12 M220.14 350.36 C258.33 306.43, 296.53 262.49, 358.57 191.12 M225.78 349.97 C276.64 291.46, 327.5 232.95, 358.96 196.76 M225.78 349.97 C278.54 289.28, 331.29 228.59, 358.96 196.76 M230.77 350.33 C276.79 297.39, 322.8 244.45, 358.7 203.16 M230.77 350.33 C266.61 309.09, 302.46 267.86, 358.7 203.16 M236.41 349.94 C266.19 315.68, 295.97 281.43, 359.09 208.8 M236.41 349.94 C280.3 299.45, 324.18 248.97, 359.09 208.8 M241.4 350.3 C277.72 308.51, 314.05 266.72, 358.83 215.2 M241.4 350.3 C280.95 304.79, 320.51 259.29, 358.83 215.2 M246.39 350.66 C280.92 310.93, 315.45 271.21, 358.57 221.6 M246.39 350.66 C272.46 320.66, 298.53 290.67, 358.57 221.6 M252.03 350.26 C292.45 303.76, 332.88 257.25, 358.97 227.24 M252.03 350.26 C283.49 314.07, 314.96 277.87, 358.97 227.24 M257.02 350.62 C284.84 318.62, 312.65 286.61, 358.7 233.64 M257.02 350.62 C280.92 323.13, 304.82 295.63, 358.7 233.64 M262.66 350.23 C289.99 318.79, 317.32 287.35, 359.1 239.28 M262.66 350.23 C297.25 310.43, 331.85 270.63, 359.1 239.28 M267.65 350.59 C290.78 323.97, 313.92 297.35, 358.84 245.68 M267.65 350.59 C303.06 309.85, 338.47 269.11, 358.84 245.68 M273.29 350.19 C299.74 319.77, 326.18 289.34, 358.58 252.08 M273.29 350.19 C306.92 311.5, 340.56 272.81, 358.58 252.08 M278.28 350.55 C300.79 324.65, 323.31 298.74, 358.97 257.72 M278.28 350.55 C296.25 329.87, 314.23 309.2, 358.97 257.72 M283.92 350.16 C299.63 332.08, 315.35 314, 358.71 264.12 M283.92 350.16 C300.6 330.97, 317.28 311.77, 358.71 264.12 M288.91 350.52 C316.82 318.41, 344.73 286.3, 359.1 269.76 M288.91 350.52 C308.32 328.18, 327.74 305.84, 359.1 269.76 M294.55 350.12 C314 327.75, 333.45 305.37, 358.84 276.16 M294.55 350.12 C315.41 326.12, 336.28 302.12, 358.84 276.16 M299.54 350.48 C321.65 325.04, 343.77 299.6, 358.58 282.56 M299.54 350.48 C322.92 323.58, 346.3 296.68, 358.58 282.56 M305.18 350.09 C325.28 326.96, 345.39 303.83, 358.98 288.2 M305.18 350.09 C323.27 329.28, 341.36 308.46, 358.98 288.2 M310.17 350.45 C329.21 328.54, 348.26 306.62, 358.71 294.6 M310.17 350.45 C321.57 337.33, 332.98 324.21, 358.71 294.6 M315.81 350.05 C332.14 331.27, 348.46 312.49, 359.11 300.24 M315.81 350.05 C331.12 332.44, 346.44 314.82, 359.11 300.24 M320.8 350.41 C334.14 335.07, 347.47 319.72, 358.85 306.64 M320.8 350.41 C334.31 334.87, 347.82 319.33, 358.85 306.64 M326.44 350.02 C337.16 337.69, 347.87 325.36, 358.59 313.04 M326.44 350.02 C333.83 341.52, 341.22 333.02, 358.59 313.04 M331.43 350.38 C341.51 338.78, 351.59 327.18, 358.98 318.68 M331.43 350.38 C340.41 340.05, 349.39 329.71, 358.98 318.68 M337.07 349.99 C342.06 344.25, 347.05 338.51, 358.72 325.08 M337.07 349.99 C343.04 343.12, 349.01 336.25, 358.72 325.08 M342.06 350.35 C346.7 345, 351.35 339.65, 359.11 330.72 M342.06 350.35 C345.89 345.93, 349.73 341.51, 359.11 330.72 M347.7 349.95 C351.3 345.8, 354.91 341.66, 358.85 337.12 M347.7 349.95 C351.72 345.33, 355.74 340.71, 358.85 337.12 M352.69 350.31 C354.58 348.13, 356.48 345.95, 358.59 343.52 M352.69 350.31 C354.68 348.02, 356.67 345.73, 358.59 343.52" stroke="#fff" stroke-width="0.5" fill="none"></path><path d="M0 0 C129.92 0, 259.84 0, 356.67 0 M0 0 C119.36 0, 238.72 0, 356.67 0 M356.67 0 C356.67 70.63, 356.67 141.26, 356.67 347.78 M356.67 0 C356.67 86.28, 356.67 172.56, 356.67 347.78 M356.67 347.78 C247.1 347.78, 137.53 347.78, 0 347.78 M356.67 347.78 C277.27 347.78, 197.88 347.78, 0 347.78 M0 347.78 C0 232.74, 0 117.7, 0 0 M0 347.78 C0 268.46, 0 189.14, 0 0" stroke="#000000" stroke-width="1" fill="none"></path></g><g transform="translate(115.37794587347378 40.1540926031812) rotate(0 60.5 12.5)"><text x="60.5" y="18" font-family="Virgil, Segoe UI Emoji" font-size="20px" fill="#000000" text-anchor="middle" style="white-space: pre;" direction="ltr">All H sounds</text></g><g transform="translate(98.43350142902932 98.70964815873685) rotate(0 21 13)"><text x="21" y="19" font-family="Virgil, Segoe UI Emoji" font-size="20px" fill="#000000" text-anchor="middle" style="white-space: pre;" direction="rtl">حا​​/ح​​</text></g><g transform="translate(156.10016809569595 100.93187038095903) rotate(0 68 12.5)"><text x="68" y="18" font-family="Virgil, Segoe UI Emoji" font-size="20px" fill="#000000" text-anchor="middle" style="white-space: pre;" direction="ltr">Badi Hay/Haa</text></g><g transform="translate(109.60016809569606 147.59853704762554) rotate(0 6.5 12.5)"><text x="6.5" y="18" font-family="Virgil, Segoe UI Emoji" font-size="20px" fill="#000000" text-anchor="middle" style="white-space: pre;" direction="rtl">ہ</text></g><g transform="translate(154.7668347623627 149.04298149207034) rotate(0 77 12.5)"><text x="77" y="18" font-family="Virgil, Segoe UI Emoji" font-size="20px" fill="#000000" text-anchor="middle" style="white-space: pre;" direction="ltr">Gol he/Choti he</text></g><g transform="translate(109.71127920680715 186.82075926984817) rotate(0 7.5 13)"><text x="7.5" y="19" font-family="Virgil, Segoe UI Emoji" font-size="20px" fill="#000000" text-anchor="middle" style="white-space: pre;" direction="rtl">ھ</text></g><g transform="translate(158.87794587347378 189.20964815873685) rotate(0 65 12.5)"><text x="65" y="18" font-family="Virgil, Segoe UI Emoji" font-size="20px" fill="#000000" text-anchor="middle" style="white-space: pre;" direction="ltr">Do chasmi he</text></g><g transform="translate(88.93350142902932 264.2652037142925) rotate(0 30.5 12.5)"><text x="30.5" y="18" font-family="Virgil, Segoe UI Emoji" font-size="20px" fill="#000000" text-anchor="middle" style="white-space: pre;" direction="rtl">ہــــ</text></g><g transform="translate(176.82239031791823 265.82075926984817) rotate(0 67.5 12.5)"><text x="67.5" y="18" font-family="Virgil, Segoe UI Emoji" font-size="20px" fill="#000000" text-anchor="middle" style="white-space: pre;" direction="ltr">Comma like he</text></g><g transform="translate(66.04461254014052 227.2652037142925) rotate(0 54.5 12.5)"><text x="54.5" y="18" font-family="Virgil, Segoe UI Emoji" font-size="20px" fill="#000000" text-anchor="middle" style="white-space: pre;" direction="rtl">ــــہــــ</text></g><g transform="translate(189.32239031791823 230.04298149207034) rotate(0 44 12.5)"><text x="44" y="18" font-family="Virgil, Segoe UI Emoji" font-size="20px" fill="#000000" text-anchor="middle" style="white-space: pre;" direction="ltr">ECG sign</text></g><g transform="translate(65.40448866047188 318.743647093655) rotate(0 130 10)"><text x="0" y="14" font-family="Virgil, Segoe UI Emoji" font-size="16px" fill="#e67700" text-anchor="start" style="white-space: pre;" direction="ltr">Note: Practice choti and badi he</text></g></svg>