<svg version="1.1" xmlns="http://www.w3.org/2000/svg" viewBox="0 0 376.6666666666665 367.7777777777776" width="376.6666666666665" height="367.7777777777776">
  <!-- svg-source:excalidraw -->
  
  <defs>
    <style>
      @font-face {
        font-family: "Virgil";
        src: url("https://excalidraw.com/Virgil.woff2");
      }
      @font-face {
        font-family: "Cascadia";
        src: url("https://excalidraw.com/Cascadia.woff2");
      }
    </style>
  </defs>
  <rect x="0" y="0" width="376.6666666666665" height="367.7777777777776" fill="#ffffff"></rect><g stroke-linecap="round" transform="translate(10 10) rotate(0 178.33333333333326 173.8888888888888)"><path d="M0 0 C0 0, 0 0, 0 0 M0 0 C0 0, 0 0, 0 0 M-0.26 6.4 C0.93 5.03, 2.12 3.66, 4.99 0.36 M-0.26 6.4 C1.84 3.98, 3.94 1.57, 4.99 0.36 M0.13 12.04 C3.48 8.19, 6.82 4.34, 10.63 -0.03 M0.13 12.04 C2.71 9.08, 5.28 6.12, 10.63 -0.03 M-0.13 18.44 C5.39 12.09, 10.92 5.73, 15.62 0.33 M-0.13 18.44 C3.46 14.31, 7.06 10.17, 15.62 0.33 M0.27 24.08 C7.49 15.77, 14.71 7.46, 21.26 -0.07 M0.27 24.08 C7.56 15.69, 14.86 7.3, 21.26 -0.07 M0 30.48 C9.87 19.13, 19.74 7.77, 26.25 0.29 M0 30.48 C9.62 19.42, 19.24 8.35, 26.25 0.29 M-0.26 36.88 C9.85 25.25, 19.96 13.62, 31.89 -0.1 M-0.26 36.88 C10.28 24.76, 20.82 12.64, 31.89 -0.1 M0.14 42.52 C9.4 31.87, 18.66 21.22, 36.88 0.26 M0.14 42.52 C13.72 26.9, 27.3 11.28, 36.88 0.26 M-0.12 48.92 C10.14 37.11, 20.4 25.31, 42.52 -0.14 M-0.12 48.92 C10.17 37.08, 20.45 25.25, 42.52 -0.14 M0.27 54.56 C15.66 36.85, 31.06 19.15, 47.51 0.22 M0.27 54.56 C15.32 37.24, 30.38 19.93, 47.51 0.22 M0.01 60.96 C14.97 43.75, 29.92 26.55, 53.15 -0.17 M0.01 60.96 C17.02 41.39, 34.03 21.83, 53.15 -0.17 M-0.25 67.36 C13.96 51.01, 28.17 34.66, 58.14 0.19 M-0.25 67.36 C18.52 45.76, 37.29 24.17, 58.14 0.19 M0.14 73 C15.71 55.1, 31.27 37.19, 63.78 -0.21 M0.14 73 C17.49 53.04, 34.84 33.08, 63.78 -0.21 M-0.12 79.4 C17.02 59.68, 34.17 39.96, 68.77 0.15 M-0.12 79.4 C14.51 62.57, 29.13 45.75, 68.77 0.15 M0.28 85.04 C21.46 60.67, 42.65 36.29, 74.41 -0.24 M0.28 85.04 C28.75 52.28, 57.23 19.53, 74.41 -0.24 M0.01 91.44 C22.63 65.43, 45.24 39.42, 79.4 0.12 M0.01 91.44 C20.02 68.43, 40.02 45.41, 79.4 0.12 M-0.25 97.84 C17.63 77.27, 35.51 56.71, 85.04 -0.28 M-0.25 97.84 C18.18 76.64, 36.61 55.44, 85.04 -0.28 M0.15 103.48 C26.43 73.24, 52.72 43, 90.03 0.08 M0.15 103.48 C20.64 79.91, 41.13 56.33, 90.03 0.08 M-0.11 109.88 C35.21 69.24, 70.53 28.61, 95.67 -0.31 M-0.11 109.88 C29.27 76.08, 58.65 42.28, 95.67 -0.31 M0.28 115.52 C31.52 79.58, 62.77 43.64, 100.66 0.05 M0.28 115.52 C35.84 74.61, 71.4 33.7, 100.66 0.05 M0.02 121.92 C38.76 77.35, 77.5 32.79, 106.3 -0.34 M0.02 121.92 C28.82 88.79, 57.61 55.66, 106.3 -0.34 M-0.24 128.32 C42.05 79.67, 84.34 31.02, 111.29 0.02 M-0.24 128.32 C41.18 80.67, 82.6 33.02, 111.29 0.02 M0.15 133.96 C40.39 87.67, 80.63 41.38, 116.27 0.38 M0.15 133.96 C34.99 93.89, 69.82 53.82, 116.27 0.38 M-0.11 140.36 C28.28 107.7, 56.67 75.04, 121.92 -0.02 M-0.11 140.36 C29.97 105.76, 60.04 71.16, 121.92 -0.02 M0.29 146 C39.91 100.42, 79.53 54.84, 126.91 0.34 M0.29 146 C33.42 107.88, 66.56 69.76, 126.91 0.34 M0.02 152.4 C27.38 120.92, 54.75 89.45, 132.55 -0.05 M0.02 152.4 C36.23 110.75, 72.43 69.1, 132.55 -0.05 M-0.24 158.8 C28.74 125.47, 57.71 92.14, 137.54 0.31 M-0.24 158.8 C27.41 127, 55.05 95.2, 137.54 0.31 M0.16 164.44 C47.92 109.5, 95.67 54.56, 143.18 -0.09 M0.16 164.44 C53.33 103.27, 106.5 42.11, 143.18 -0.09 M-0.1 170.84 C34.53 130.99, 69.17 91.14, 148.17 0.27 M-0.1 170.84 C35.15 130.28, 70.4 89.73, 148.17 0.27 M0.29 176.48 C38.17 132.9, 76.05 89.32, 153.81 -0.12 M0.29 176.48 C60.01 107.78, 119.73 39.07, 153.81 -0.12 M0.03 182.88 C51.84 123.28, 103.64 63.68, 158.8 0.24 M0.03 182.88 C43 133.44, 85.98 84, 158.8 0.24 M-0.23 189.27 C45.07 137.16, 90.37 85.05, 164.44 -0.16 M-0.23 189.27 C65.36 113.82, 130.95 38.37, 164.44 -0.16 M0.16 194.92 C47.6 140.35, 95.04 85.78, 169.43 0.2 M0.16 194.92 C46.46 141.66, 92.76 88.4, 169.43 0.2 M-0.1 201.32 C60.78 131.28, 121.66 61.25, 175.07 -0.19 M-0.1 201.32 C69.89 120.8, 139.89 40.28, 175.07 -0.19 M0.3 206.96 C42.68 158.21, 85.06 109.45, 180.06 0.17 M0.3 206.96 C71.66 124.86, 143.03 42.76, 180.06 0.17 M0.03 213.36 C54.08 151.18, 108.13 89, 185.7 -0.23 M0.03 213.36 C40.75 166.52, 81.47 119.68, 185.7 -0.23 M-0.23 219.75 C72.62 135.95, 145.47 52.15, 190.69 0.13 M-0.23 219.75 C51.02 160.8, 102.26 101.86, 190.69 0.13 M0.17 225.4 C65.15 150.64, 130.13 75.89, 196.33 -0.26 M0.17 225.4 C41.46 177.89, 82.76 130.39, 196.33 -0.26 M-0.09 231.8 C51.24 172.74, 102.57 113.69, 201.32 0.1 M-0.09 231.8 C58.63 164.24, 117.35 96.69, 201.32 0.1 M0.3 237.44 C81.3 144.26, 162.29 51.09, 206.96 -0.3 M0.3 237.44 C73.22 153.55, 146.14 69.66, 206.96 -0.3 M0.04 243.84 C51.17 185.02, 102.3 126.2, 211.95 0.06 M0.04 243.84 C73.53 159.29, 147.03 74.74, 211.95 0.06 M-0.22 250.23 C85.9 151.16, 172.03 52.08, 217.59 -0.33 M-0.22 250.23 C76.56 161.91, 153.34 73.59, 217.59 -0.33 M0.17 255.88 C61.3 185.56, 122.43 115.24, 222.58 0.03 M0.17 255.88 C64.94 181.37, 129.7 106.87, 222.58 0.03 M-0.09 262.27 C82.67 167.07, 165.44 71.86, 228.22 -0.36 M-0.09 262.27 C78.03 172.41, 156.15 82.54, 228.22 -0.36 M0.3 267.92 C79.04 177.34, 157.78 86.76, 233.21 0 M0.3 267.92 C60.44 198.74, 120.57 129.57, 233.21 0 M0.04 274.32 C74.45 188.73, 148.85 103.14, 238.19 0.36 M0.04 274.32 C90.82 169.88, 181.6 65.45, 238.19 0.36 M-0.22 280.71 C88.1 179.11, 176.43 77.51, 243.84 -0.04 M-0.22 280.71 C87.13 180.24, 174.47 79.76, 243.84 -0.04 M0.18 286.36 C90.39 182.58, 180.6 78.81, 248.82 0.32 M0.18 286.36 C88.55 184.7, 176.92 83.04, 248.82 0.32 M-0.08 292.75 C82.82 197.39, 165.72 102.02, 254.47 -0.07 M-0.08 292.75 C95.86 182.38, 191.81 72.01, 254.47 -0.07 M0.31 298.4 C59.85 229.91, 119.39 161.42, 259.45 0.29 M0.31 298.4 C72.16 215.74, 144.01 133.09, 259.45 0.29 M0.05 304.8 C94.73 195.87, 189.42 86.95, 265.1 -0.11 M0.05 304.8 C73.87 219.88, 147.69 134.96, 265.1 -0.11 M-0.21 311.19 C88.39 209.27, 176.98 107.35, 270.08 0.25 M-0.21 311.19 C104.05 191.26, 208.3 71.32, 270.08 0.25 M0.18 316.84 C64.33 243.04, 128.48 169.25, 275.73 -0.14 M0.18 316.84 C83.51 220.97, 166.85 125.11, 275.73 -0.14 M-0.08 323.23 C75.7 236.06, 151.48 148.89, 280.71 0.22 M-0.08 323.23 C69.09 243.66, 138.27 164.08, 280.71 0.22 M0.31 328.88 C79.57 237.71, 158.82 146.53, 286.36 -0.18 M0.31 328.88 C76.11 241.68, 151.92 154.48, 286.36 -0.18 M0.05 335.27 C107.08 212.16, 214.1 89.04, 291.34 0.18 M0.05 335.27 C73.25 251.08, 146.44 166.88, 291.34 0.18 M-0.21 341.67 C78 251.7, 156.21 161.73, 296.99 -0.21 M-0.21 341.67 C76.8 253.08, 153.81 164.49, 296.99 -0.21 M0.19 347.32 C99.85 232.67, 199.51 118.02, 301.97 0.15 M0.19 347.32 C96.5 236.52, 192.82 125.72, 301.97 0.15 M3.21 349.94 C98.37 240.47, 193.53 130.99, 307.62 -0.25 M3.21 349.94 C111.04 225.88, 218.88 101.83, 307.62 -0.25 M8.19 350.3 C119.8 221.91, 231.41 93.52, 312.6 0.11 M8.19 350.3 C128.51 211.9, 248.82 73.49, 312.6 0.11 M13.18 350.66 C133.82 211.88, 254.46 73.1, 318.25 -0.28 M13.18 350.66 C103.61 246.63, 194.03 142.61, 318.25 -0.28 M18.82 350.27 C105.07 251.05, 191.32 151.83, 323.23 0.08 M18.82 350.27 C125.77 227.24, 232.71 104.22, 323.23 0.08 M23.81 350.63 C94 269.88, 164.19 189.14, 328.88 -0.31 M23.81 350.63 C87.32 277.56, 150.84 204.5, 328.88 -0.31 M29.45 350.23 C146.78 215.26, 264.12 80.28, 333.86 0.05 M29.45 350.23 C116.44 250.16, 203.43 150.09, 333.86 0.05 M34.44 350.59 C151.4 216.04, 268.36 81.5, 339.51 -0.35 M34.44 350.59 C122.52 249.26, 210.61 147.93, 339.51 -0.35 M40.08 350.2 C154.72 218.32, 269.35 86.45, 344.49 0.01 M40.08 350.2 C108.12 271.93, 176.16 193.66, 344.49 0.01 M45.07 350.56 C157.91 220.75, 270.75 90.95, 349.48 0.37 M45.07 350.56 C140.58 240.69, 236.08 130.82, 349.48 0.37 M50.71 350.16 C129.48 259.55, 208.25 168.93, 355.12 -0.02 M50.71 350.16 C116.47 274.51, 182.24 198.86, 355.12 -0.02 M55.7 350.52 C163.51 226.5, 271.32 102.48, 358.8 1.85 M55.7 350.52 C157.39 233.55, 259.07 116.57, 358.8 1.85 M61.34 350.13 C130.43 270.65, 199.52 191.18, 358.54 8.24 M61.34 350.13 C133.08 267.6, 204.82 185.07, 358.54 8.24 M66.33 350.49 C139.66 266.13, 212.99 181.77, 358.93 13.89 M66.33 350.49 C178.34 221.64, 290.35 92.79, 358.93 13.89 M71.97 350.09 C185.67 219.3, 299.37 88.5, 358.67 20.28 M71.97 350.09 C159.19 249.77, 246.4 149.44, 358.67 20.28 M76.96 350.45 C137.91 280.33, 198.87 210.22, 359.07 25.93 M76.96 350.45 C178.82 233.27, 280.69 116.09, 359.07 25.93 M82.6 350.06 C151.22 271.12, 219.84 192.18, 358.8 32.33 M82.6 350.06 C175.3 243.42, 268.01 136.78, 358.8 32.33 M87.59 350.42 C185.43 237.86, 283.27 125.31, 358.54 38.72 M87.59 350.42 C183.04 240.61, 278.5 130.8, 358.54 38.72 M93.23 350.02 C195.22 232.7, 297.21 115.38, 358.94 44.37 M93.23 350.02 C171.2 260.34, 249.16 170.65, 358.94 44.37 M98.22 350.38 C161.57 277.51, 224.92 204.63, 358.68 50.76 M98.22 350.38 C180.25 256.02, 262.28 161.66, 358.68 50.76 M103.86 349.99 C205.17 233.44, 306.49 116.9, 359.07 56.41 M103.86 349.99 C170.7 273.1, 237.54 196.22, 359.07 56.41 M108.85 350.35 C200.92 244.43, 293 138.51, 358.81 62.81 M108.85 350.35 C204.86 239.9, 300.88 129.45, 358.81 62.81 M114.49 349.95 C207.36 243.13, 300.22 136.3, 358.55 69.2 M114.49 349.95 C200.37 251.16, 286.25 152.37, 358.55 69.2 M119.48 350.31 C189.13 270.19, 258.79 190.06, 358.94 74.85 M119.48 350.31 C208.43 247.99, 297.39 145.66, 358.94 74.85 M125.12 349.92 C177.8 289.33, 230.47 228.73, 358.68 81.24 M125.12 349.92 C172.03 295.96, 218.94 242, 358.68 81.24 M130.11 350.28 C201.91 267.68, 273.71 185.09, 359.07 86.89 M130.11 350.28 C190.83 280.43, 251.56 210.57, 359.07 86.89 M135.1 350.64 C207.03 267.89, 278.97 185.13, 358.81 93.28 M135.1 350.64 C196.11 280.45, 257.13 210.26, 358.81 93.28 M140.74 350.25 C225.19 253.09, 309.65 155.94, 358.55 99.68 M140.74 350.25 C212.64 267.54, 284.54 184.83, 358.55 99.68 M145.73 350.61 C200.43 287.68, 255.13 224.75, 358.95 105.33 M145.73 350.61 C222.09 262.76, 298.45 174.92, 358.95 105.33 M151.37 350.21 C195.53 299.41, 239.69 248.62, 358.69 111.72 M151.37 350.21 C194.38 300.73, 237.39 251.25, 358.69 111.72 M156.36 350.57 C220.61 276.66, 284.86 202.75, 359.08 117.37 M156.36 350.57 C211.93 286.64, 267.51 222.71, 359.08 117.37 M162 350.18 C228.43 273.76, 294.85 197.35, 358.82 123.76 M162 350.18 C204.36 301.45, 246.72 252.72, 358.82 123.76 M166.99 350.54 C241.22 265.14, 315.46 179.74, 358.56 130.16 M166.99 350.54 C236.8 270.22, 306.62 189.91, 358.56 130.16 M172.63 350.14 C220.67 294.88, 268.7 239.63, 358.95 135.8 M172.63 350.14 C218.8 297.03, 264.97 243.91, 358.95 135.8 M177.62 350.5 C223.18 298.09, 268.73 245.69, 358.69 142.2 M177.62 350.5 C249.91 267.34, 322.21 184.17, 358.69 142.2 M183.26 350.11 C239.33 285.61, 295.4 221.1, 359.08 147.85 M183.26 350.11 C231.83 294.23, 280.41 238.35, 359.08 147.85 M188.25 350.47 C237.87 293.39, 287.48 236.31, 358.82 154.24 M188.25 350.47 C235.23 296.42, 282.21 242.38, 358.82 154.24 M193.89 350.07 C229.17 309.49, 264.44 268.91, 358.56 160.64 M193.89 350.07 C234.75 303.07, 275.62 256.06, 358.56 160.64 M198.88 350.43 C260.59 279.44, 322.31 208.45, 358.96 166.28 M198.88 350.43 C249.51 292.19, 300.13 233.95, 358.96 166.28 M204.52 350.04 C248.56 299.38, 292.6 248.72, 358.69 172.68 M204.52 350.04 C264.28 281.29, 324.05 212.54, 358.69 172.68 M209.51 350.4 C241.53 313.56, 273.56 276.72, 359.09 178.33 M209.51 350.4 C265.11 286.43, 320.72 222.46, 359.09 178.33 M215.15 350 C247.26 313.07, 279.36 276.14, 358.83 184.72 M215.15 350 C257.59 301.18, 300.04 252.35, 358.83 184.72 M220.14 350.36 C269.09 294.05, 318.05 237.73, 358.57 191.12 M220.14 350.36 C264.2 299.67, 308.27 248.98, 358.57 191.12 M225.78 349.97 C274.58 293.83, 323.38 237.69, 358.96 196.76 M225.78 349.97 C258.91 311.86, 292.04 273.75, 358.96 196.76 M230.77 350.33 C279.34 294.46, 327.91 238.59, 358.7 203.16 M230.77 350.33 C276.7 297.49, 322.64 244.64, 358.7 203.16 M236.41 349.94 C261.16 321.47, 285.91 293, 359.09 208.8 M236.41 349.94 C273.4 307.39, 310.39 264.84, 359.09 208.8 M241.4 350.3 C284.38 300.86, 327.35 251.41, 358.83 215.2 M241.4 350.3 C279.4 306.58, 317.4 262.86, 358.83 215.2 M246.39 350.66 C276.11 316.46, 305.84 282.26, 358.57 221.6 M246.39 350.66 C289.47 301.09, 332.55 251.53, 358.57 221.6 M252.03 350.26 C293.2 302.9, 334.36 255.54, 358.97 227.24 M252.03 350.26 C291.39 304.98, 330.75 259.7, 358.97 227.24 M257.02 350.62 C281.44 322.52, 305.87 294.42, 358.7 233.64 M257.02 350.62 C277.69 326.84, 298.37 303.05, 358.7 233.64 M262.66 350.23 C282.66 327.21, 302.67 304.2, 359.1 239.28 M262.66 350.23 C289.2 319.69, 315.75 289.15, 359.1 239.28 M267.65 350.59 C291.35 323.31, 315.06 296.04, 358.84 245.68 M267.65 350.59 C298.91 314.62, 330.18 278.65, 358.84 245.68 M273.29 350.19 C290.56 330.32, 307.84 310.45, 358.58 252.08 M273.29 350.19 C303.51 315.42, 333.74 280.65, 358.58 252.08 M278.28 350.55 C294.83 331.5, 311.39 312.46, 358.97 257.72 M278.28 350.55 C307.55 316.87, 336.83 283.2, 358.97 257.72 M283.92 350.16 C301.72 329.68, 319.51 309.21, 358.71 264.12 M283.92 350.16 C309.45 320.78, 334.99 291.41, 358.71 264.12 M288.91 350.52 C303.31 333.95, 317.71 317.38, 359.1 269.76 M288.91 350.52 C309.94 326.31, 330.98 302.11, 359.1 269.76 M294.55 350.12 C318.97 322.03, 343.39 293.94, 358.84 276.16 M294.55 350.12 C313.76 328.03, 332.96 305.93, 358.84 276.16 M299.54 350.48 C319.48 327.54, 339.43 304.59, 358.58 282.56 M299.54 350.48 C321.2 325.57, 342.86 300.65, 358.58 282.56 M305.18 350.09 C326.3 325.79, 347.42 301.5, 358.98 288.2 M305.18 350.09 C322.14 330.57, 339.1 311.06, 358.98 288.2 M310.17 350.45 C326.15 332.06, 342.14 313.67, 358.71 294.6 M310.17 350.45 C322.49 336.27, 334.82 322.08, 358.71 294.6 M315.81 350.05 C326.17 338.14, 336.53 326.22, 359.11 300.24 M315.81 350.05 C324.76 339.76, 333.71 329.46, 359.11 300.24 M320.8 350.41 C330.47 339.28, 340.15 328.15, 358.85 306.64 M320.8 350.41 C329.45 340.46, 338.1 330.51, 358.85 306.64 M326.44 350.02 C338.69 335.92, 350.95 321.83, 358.59 313.04 M326.44 350.02 C333.35 342.07, 340.27 334.11, 358.59 313.04 M331.43 350.38 C337.93 342.9, 344.43 335.42, 358.98 318.68 M331.43 350.38 C337.76 343.09, 344.1 335.8, 358.98 318.68 M337.07 349.99 C343.09 343.05, 349.12 336.12, 358.72 325.08 M337.07 349.99 C343.76 342.29, 350.45 334.59, 358.72 325.08 M342.06 350.35 C347.96 343.56, 353.86 336.77, 359.11 330.72 M342.06 350.35 C348.56 342.86, 355.06 335.38, 359.11 330.72 M347.7 349.95 C350.92 346.25, 354.14 342.54, 358.85 337.12 M347.7 349.95 C350.86 346.31, 354.03 342.67, 358.85 337.12 M352.69 350.31 C354.48 348.25, 356.28 346.18, 358.59 343.52 M352.69 350.31 C354.32 348.43, 355.96 346.54, 358.59 343.52" stroke="#fff" stroke-width="0.5" fill="none"></path><path d="M0 0 C118.91 0, 237.82 0, 356.67 0 M0 0 C71.44 0, 142.89 0, 356.67 0 M356.67 0 C356.67 97.79, 356.67 195.58, 356.67 347.78 M356.67 0 C356.67 100.35, 356.67 200.7, 356.67 347.78 M356.67 347.78 C284.3 347.78, 211.93 347.78, 0 347.78 M356.67 347.78 C236.96 347.78, 117.26 347.78, 0 347.78 M0 347.78 C0 224.49, 0 101.2, 0 0 M0 347.78 C0 224.68, 0 101.59, 0 0" stroke="#000000" stroke-width="1" fill="none"></path></g><g transform="translate(86.37794587347378 40.1540926031812) rotate(0 107.5 13.5)"><text x="107.5" y="20" font-family="Virgil, Segoe UI Emoji" font-size="20px" fill="#000000" text-anchor="middle" style="white-space: pre;" direction="ltr">सभी 'ज' आवाज़ वाले अक्षर</text></g><g transform="translate(118.43350142902932 83.70964815873685) rotate(0 21 13)"><text x="21" y="19" font-family="Virgil, Segoe UI Emoji" font-size="20px" fill="#000000" text-anchor="middle" style="white-space: pre;" direction="rtl">جا​​/ج​​</text></g><g transform="translate(178.60016809569595 85.93187038095903) rotate(0 30.5 13.5)"><text x="30.5" y="20" font-family="Virgil, Segoe UI Emoji" font-size="20px" fill="#000000" text-anchor="middle" style="white-space: pre;" direction="ltr">जीम/जा</text></g><g transform="translate(126.10016809569606 132.59853704762554) rotate(0 10 13)"><text x="10" y="19" font-family="Virgil, Segoe UI Emoji" font-size="20px" fill="#000000" text-anchor="middle" style="white-space: pre;" direction="rtl">ظ</text></g><g transform="translate(191.7668347623627 134.04298149207034) rotate(0 16 13.5)"><text x="16" y="20" font-family="Virgil, Segoe UI Emoji" font-size="20px" fill="#000000" text-anchor="middle" style="white-space: pre;" direction="ltr">ज़ोये</text></g><g transform="translate(124.71127920680715 171.82075926984817) rotate(0 12.5 13)"><text x="12.5" y="19" font-family="Virgil, Segoe UI Emoji" font-size="20px" fill="#000000" text-anchor="middle" style="white-space: pre;" direction="rtl">ض</text></g><g transform="translate(186.37794587347378 174.20964815873685) rotate(0 19.5 13.5)"><text x="19.5" y="20" font-family="Virgil, Segoe UI Emoji" font-size="20px" fill="#000000" text-anchor="middle" style="white-space: pre;" direction="ltr">ज़्वाद</text></g><g transform="translate(133.98905698458498 292.1540926031812) rotate(0 5 13)"><text x="5" y="19" font-family="Virgil, Segoe UI Emoji" font-size="20px" fill="#000000" text-anchor="middle" style="white-space: pre;" direction="rtl">ذ</text></g><g transform="translate(186.71127920680715 292.04298149207034) rotate(0 17.5 13.5)"><text x="17.5" y="20" font-family="Virgil, Segoe UI Emoji" font-size="20px" fill="#000000" text-anchor="middle" style="white-space: pre;" direction="ltr">ज़ाल</text></g><g transform="translate(133.93350142902932 249.2652037142925) rotate(0 5.5 13)"><text x="5.5" y="19" font-family="Virgil, Segoe UI Emoji" font-size="20px" fill="#000000" text-anchor="middle" style="white-space: pre;" direction="rtl">ژ</text></g><g transform="translate(195.82239031791823 250.82075926984817) rotate(0 7.5 13.5)"><text x="7.5" y="20" font-family="Virgil, Segoe UI Emoji" font-size="20px" fill="#000000" text-anchor="middle" style="white-space: pre;" direction="ltr">झ़े</text></g><g transform="translate(135.04461254014052 212.2652037142925) rotate(0 5.5 13)"><text x="5.5" y="19" font-family="Virgil, Segoe UI Emoji" font-size="20px" fill="#000000" text-anchor="middle" style="white-space: pre;" direction="rtl">ز</text></g><g transform="translate(197.82239031791823 215.04298149207034) rotate(0 7.5 13.5)"><text x="7.5" y="20" font-family="Virgil, Segoe UI Emoji" font-size="20px" fill="#000000" text-anchor="middle" style="white-space: pre;" direction="ltr">ज़े</text></g><g transform="translate(45.8333333333328 327.3297893438073) rotate(0 145.5 11)"><text x="0" y="16" font-family="Virgil, Segoe UI Emoji" font-size="16px" fill="#e67700" text-anchor="start" style="white-space: pre;" direction="ltr">Note: सभी 'ज' आवाज़/अक्षर का अभ्यास करें</text></g></svg>