<svg version="1.1" xmlns="http://www.w3.org/2000/svg" viewBox="0 0 376.6666666666664 367.7777777777776" width="376.6666666666664" height="367.7777777777776">
  <!-- svg-source:excalidraw -->
  
  <defs>
    <style>
      @font-face {
        font-family: "Virgil";
        src: url("https://excalidraw.com/Virgil.woff2");
      }
      @font-face {
        font-family: "Cascadia";
        src: url("https://excalidraw.com/Cascadia.woff2");
      }
    </style>
  </defs>
  <rect x="0" y="0" width="376.6666666666664" height="367.7777777777776" fill="#ffffff"></rect><g stroke-linecap="round" transform="translate(10 10) rotate(0 178.3333333333332 173.8888888888888)"><path d="M0 0 C0 0, 0 0, 0 0 M0 0 C0 0, 0 0, 0 0 M-0.26 6.4 C1.76 4.07, 3.78 1.75, 4.99 0.36 M-0.26 6.4 C1.18 4.74, 2.61 3.09, 4.99 0.36 M0.13 12.04 C4.12 7.45, 8.11 2.86, 10.63 -0.03 M0.13 12.04 C3.01 8.73, 5.89 5.42, 10.63 -0.03 M-0.13 18.44 C5.03 12.5, 10.19 6.57, 15.62 0.33 M-0.13 18.44 C5.94 11.46, 12.01 4.47, 15.62 0.33 M0.27 24.08 C7.27 16.03, 14.26 7.98, 21.26 -0.07 M0.27 24.08 C7.62 15.62, 14.98 7.15, 21.26 -0.07 M0 30.48 C9.75 19.27, 19.49 8.06, 26.25 0.29 M0 30.48 C5.95 23.64, 11.9 16.79, 26.25 0.29 M-0.26 36.88 C9.14 26.06, 18.54 15.25, 31.89 -0.1 M-0.26 36.88 C7.04 28.48, 14.35 20.08, 31.89 -0.1 M0.14 42.52 C12.42 28.39, 24.71 14.25, 36.88 0.26 M0.14 42.52 C9.73 31.49, 19.32 20.46, 36.88 0.26 M-0.12 48.92 C13.99 32.68, 28.1 16.45, 42.52 -0.14 M-0.12 48.92 C15.84 30.55, 31.81 12.19, 42.52 -0.14 M0.27 54.56 C10.72 42.54, 21.16 30.53, 47.51 0.22 M0.27 54.56 C14.01 38.76, 27.74 22.96, 47.51 0.22 M0.01 60.96 C13.76 45.14, 27.51 29.33, 53.15 -0.17 M0.01 60.96 C13.39 45.57, 26.77 30.18, 53.15 -0.17 M-0.25 67.36 C18.53 45.75, 37.31 24.15, 58.14 0.19 M-0.25 67.36 C20.63 43.34, 41.51 19.31, 58.14 0.19 M0.14 73 C20.58 49.48, 41.03 25.97, 63.78 -0.21 M0.14 73 C13.37 57.78, 26.6 42.56, 63.78 -0.21 M-0.12 79.4 C21.36 54.69, 42.85 29.97, 68.77 0.15 M-0.12 79.4 C16.56 60.21, 33.23 41.03, 68.77 0.15 M0.28 85.04 C22.52 59.46, 44.76 33.87, 74.41 -0.24 M0.28 85.04 C28.47 52.61, 56.66 20.18, 74.41 -0.24 M0.01 91.44 C28.1 59.13, 56.19 26.81, 79.4 0.12 M0.01 91.44 C28.9 58.22, 57.78 24.99, 79.4 0.12 M-0.25 97.84 C17.88 76.99, 36 56.13, 85.04 -0.28 M-0.25 97.84 C33.5 59.01, 67.25 20.19, 85.04 -0.28 M0.15 103.48 C35.7 62.58, 71.25 21.69, 90.03 0.08 M0.15 103.48 C25.45 74.37, 50.76 45.26, 90.03 0.08 M-0.11 109.88 C20.21 86.5, 40.53 63.12, 95.67 -0.31 M-0.11 109.88 C25.74 80.14, 51.59 50.4, 95.67 -0.31 M0.28 115.52 C27.46 84.25, 54.64 52.99, 100.66 0.05 M0.28 115.52 C39.73 70.13, 79.19 24.75, 100.66 0.05 M0.02 121.92 C30.66 86.67, 61.29 51.43, 106.3 -0.34 M0.02 121.92 C32.72 84.31, 65.41 46.69, 106.3 -0.34 M-0.24 128.32 C44.3 77.08, 88.84 25.84, 111.29 0.02 M-0.24 128.32 C25.99 98.14, 52.22 67.97, 111.29 0.02 M0.15 133.96 C42.66 85.06, 85.17 36.15, 116.27 0.38 M0.15 133.96 C23.7 106.87, 47.25 79.77, 116.27 0.38 M-0.11 140.36 C34.92 100.06, 69.95 59.77, 121.92 -0.02 M-0.11 140.36 C46.73 86.48, 93.57 32.6, 121.92 -0.02 M0.29 146 C26.48 115.87, 52.67 85.74, 126.91 0.34 M0.29 146 C43.13 96.72, 85.97 47.43, 126.91 0.34 M0.02 152.4 C29.91 118.02, 59.79 83.65, 132.55 -0.05 M0.02 152.4 C46.93 98.44, 93.84 44.48, 132.55 -0.05 M-0.24 158.8 C42.15 110.03, 84.54 61.27, 137.54 0.31 M-0.24 158.8 C39.2 113.43, 78.64 68.06, 137.54 0.31 M0.16 164.44 C56.26 99.89, 112.37 35.35, 143.18 -0.09 M0.16 164.44 C43.01 115.15, 85.85 65.86, 143.18 -0.09 M-0.1 170.84 C29.8 136.44, 59.7 102.04, 148.17 0.27 M-0.1 170.84 C45.5 118.37, 91.11 65.91, 148.17 0.27 M0.29 176.48 C54.18 114.49, 108.07 52.49, 153.81 -0.12 M0.29 176.48 C48.47 121.05, 96.65 65.63, 153.81 -0.12 M0.03 182.88 C56.84 117.52, 113.66 52.16, 158.8 0.24 M0.03 182.88 C40.11 136.76, 80.2 90.65, 158.8 0.24 M-0.23 189.27 C57.6 122.75, 115.43 56.22, 164.44 -0.16 M-0.23 189.27 C53.92 126.98, 108.07 64.69, 164.44 -0.16 M0.16 194.92 C47.75 140.17, 95.34 85.43, 169.43 0.2 M0.16 194.92 C44.19 144.27, 88.21 93.63, 169.43 0.2 M-0.1 201.32 C39.87 155.34, 79.84 109.36, 175.07 -0.19 M-0.1 201.32 C37.71 157.83, 75.51 114.34, 175.07 -0.19 M0.3 206.96 C38.49 163.02, 76.69 119.08, 180.06 0.17 M0.3 206.96 C46.8 153.46, 93.3 99.97, 180.06 0.17 M0.03 213.36 C56.36 148.56, 112.68 83.77, 185.7 -0.23 M0.03 213.36 C52.96 152.48, 105.88 91.59, 185.7 -0.23 M-0.23 219.75 C43.43 169.54, 87.08 119.32, 190.69 0.13 M-0.23 219.75 C50.47 161.43, 101.17 103.11, 190.69 0.13 M0.17 225.4 C55.89 161.3, 111.61 97.2, 196.33 -0.26 M0.17 225.4 C75.86 138.32, 151.55 51.25, 196.33 -0.26 M-0.09 231.8 C68.88 152.45, 137.86 73.1, 201.32 0.1 M-0.09 231.8 C57.73 165.27, 115.56 98.75, 201.32 0.1 M0.3 237.44 C75.42 151.03, 150.53 64.62, 206.96 -0.3 M0.3 237.44 C43.01 188.3, 85.73 139.17, 206.96 -0.3 M0.04 243.84 C42.97 194.44, 85.91 145.05, 211.95 0.06 M0.04 243.84 C46.39 190.51, 92.75 137.18, 211.95 0.06 M-0.22 250.23 C69.65 169.85, 139.53 89.47, 217.59 -0.33 M-0.22 250.23 C81.45 156.28, 163.12 62.33, 217.59 -0.33 M0.17 255.88 C87.74 155.14, 175.31 54.41, 222.58 0.03 M0.17 255.88 C76.9 167.61, 153.62 79.35, 222.58 0.03 M-0.09 262.27 C50.4 204.19, 100.9 146.1, 228.22 -0.36 M-0.09 262.27 C81.47 168.45, 163.02 74.63, 228.22 -0.36 M0.3 267.92 C78.65 177.79, 157 87.66, 233.21 0 M0.3 267.92 C56.05 203.79, 111.8 139.65, 233.21 0 M0.04 274.32 C75.2 187.86, 150.36 101.39, 238.19 0.36 M0.04 274.32 C85.56 175.95, 171.07 77.57, 238.19 0.36 M-0.22 280.71 C94.27 172.02, 188.75 63.33, 243.84 -0.04 M-0.22 280.71 C64.34 206.45, 128.9 132.18, 243.84 -0.04 M0.18 286.36 C84.99 188.79, 169.8 91.23, 248.82 0.32 M0.18 286.36 C56.16 221.96, 112.14 157.56, 248.82 0.32 M-0.08 292.75 C86.06 193.65, 172.21 94.55, 254.47 -0.07 M-0.08 292.75 C69.19 213.06, 138.47 133.37, 254.47 -0.07 M0.31 298.4 C57.47 232.65, 114.62 166.89, 259.45 0.29 M0.31 298.4 C88.21 197.28, 176.1 96.17, 259.45 0.29 M0.05 304.8 C84.5 207.64, 168.95 110.49, 265.1 -0.11 M0.05 304.8 C80.35 212.42, 160.65 120.04, 265.1 -0.11 M-0.21 311.19 C97.87 198.36, 195.96 85.52, 270.08 0.25 M-0.21 311.19 C87.35 210.47, 174.9 109.74, 270.08 0.25 M0.18 316.84 C80.66 224.25, 161.15 131.67, 275.73 -0.14 M0.18 316.84 C79.21 225.92, 158.24 135.01, 275.73 -0.14 M-0.08 323.23 C101.81 206.03, 203.69 88.82, 280.71 0.22 M-0.08 323.23 C95.74 213, 191.57 102.77, 280.71 0.22 M0.31 328.88 C103.02 210.72, 205.73 92.57, 286.36 -0.18 M0.31 328.88 C98.29 216.16, 196.27 103.45, 286.36 -0.18 M0.05 335.27 C87.79 234.34, 175.53 133.41, 291.34 0.18 M0.05 335.27 C114.26 203.9, 228.46 72.52, 291.34 0.18 M-0.21 341.67 C75.81 254.23, 151.82 166.78, 296.99 -0.21 M-0.21 341.67 C82.44 246.6, 165.08 151.53, 296.99 -0.21 M0.19 347.32 C74.01 262.39, 147.84 177.46, 301.97 0.15 M0.19 347.32 C65.46 272.22, 130.74 197.13, 301.97 0.15 M3.21 349.94 C80.64 260.87, 158.07 171.79, 307.62 -0.25 M3.21 349.94 C91.62 248.23, 180.04 146.51, 307.62 -0.25 M8.19 350.3 C113.43 229.24, 218.67 108.17, 312.6 0.11 M8.19 350.3 C127.83 212.68, 247.46 75.05, 312.6 0.11 M13.18 350.66 C93.38 258.4, 173.58 166.14, 318.25 -0.28 M13.18 350.66 C94.24 257.42, 175.29 164.17, 318.25 -0.28 M18.82 350.27 C123.24 230.15, 227.66 110.02, 323.23 0.08 M18.82 350.27 C91.96 266.13, 165.1 182, 323.23 0.08 M23.81 350.63 C123.08 236.43, 222.35 122.23, 328.88 -0.31 M23.81 350.63 C108.91 252.73, 194 154.84, 328.88 -0.31 M29.45 350.23 C108.91 258.82, 188.38 167.41, 333.86 0.05 M29.45 350.23 C125.41 239.84, 221.37 129.45, 333.86 0.05 M34.44 350.59 C132.63 237.64, 230.81 124.69, 339.51 -0.35 M34.44 350.59 C124.25 247.28, 214.05 143.97, 339.51 -0.35 M40.08 350.2 C134.51 241.57, 228.93 132.95, 344.49 0.01 M40.08 350.2 C135.71 240.19, 231.33 130.19, 344.49 0.01 M45.07 350.56 C126.69 256.67, 208.3 162.78, 349.48 0.37 M45.07 350.56 C125.81 257.67, 206.56 164.79, 349.48 0.37 M50.71 350.16 C168.47 214.7, 286.22 79.24, 355.12 -0.02 M50.71 350.16 C164.02 219.81, 277.33 89.47, 355.12 -0.02 M55.7 350.52 C121.18 275.2, 186.66 199.87, 358.8 1.85 M55.7 350.52 C126.58 268.98, 197.46 187.44, 358.8 1.85 M61.34 350.13 C172.28 222.51, 283.21 94.89, 358.54 8.24 M61.34 350.13 C169.48 225.73, 277.62 101.32, 358.54 8.24 M66.33 350.49 C169.73 231.54, 273.12 112.6, 358.93 13.89 M66.33 350.49 C134.09 272.54, 201.85 194.59, 358.93 13.89 M71.97 350.09 C140.13 271.68, 208.3 193.27, 358.67 20.28 M71.97 350.09 C130.02 283.32, 188.07 216.54, 358.67 20.28 M76.96 350.45 C162.67 251.85, 248.39 153.25, 359.07 25.93 M76.96 350.45 C183.83 227.51, 290.71 104.56, 359.07 25.93 M82.6 350.06 C174.97 243.8, 267.34 137.54, 358.8 32.33 M82.6 350.06 C176.64 241.88, 270.68 133.7, 358.8 32.33 M87.59 350.42 C149.12 279.64, 210.64 208.86, 358.54 38.72 M87.59 350.42 C191.95 230.36, 296.31 110.31, 358.54 38.72 M93.23 350.02 C173.86 257.28, 254.48 164.53, 358.94 44.37 M93.23 350.02 C164.82 267.67, 236.41 185.32, 358.94 44.37 M98.22 350.38 C181.22 254.9, 264.22 159.43, 358.68 50.76 M98.22 350.38 C163.1 275.75, 227.97 201.12, 358.68 50.76 M103.86 349.99 C198.5 241.13, 293.13 132.26, 359.07 56.41 M103.86 349.99 C159.99 285.43, 216.11 220.87, 359.07 56.41 M108.85 350.35 C186.37 261.17, 263.89 172, 358.81 62.81 M108.85 350.35 C198.39 247.34, 287.94 144.33, 358.81 62.81 M114.49 349.95 C175.15 280.18, 235.81 210.4, 358.55 69.2 M114.49 349.95 C178.33 276.51, 242.17 203.08, 358.55 69.2 M119.48 350.31 C207.82 248.69, 296.17 147.06, 358.94 74.85 M119.48 350.31 C212.7 243.08, 305.92 135.84, 358.94 74.85 M125.12 349.92 C179.9 286.9, 234.69 223.88, 358.68 81.24 M125.12 349.92 C172.57 295.34, 220.02 240.75, 358.68 81.24 M130.11 350.28 C221.34 245.34, 312.57 140.39, 359.07 86.89 M130.11 350.28 C177.74 295.49, 225.37 240.7, 359.07 86.89 M135.1 350.64 C205.06 270.16, 275.01 189.69, 358.81 93.28 M135.1 350.64 C200.51 275.39, 265.93 200.13, 358.81 93.28 M140.74 350.25 C214.36 265.56, 287.98 180.87, 358.55 99.68 M140.74 350.25 C221.16 257.74, 301.57 165.23, 358.55 99.68 M145.73 350.61 C199.63 288.6, 253.53 226.59, 358.95 105.33 M145.73 350.61 C213.15 273.05, 280.56 195.5, 358.95 105.33 M151.37 350.21 C205.87 287.52, 260.37 224.82, 358.69 111.72 M151.37 350.21 C196.3 298.52, 241.23 246.83, 358.69 111.72 M156.36 350.57 C219.32 278.14, 282.29 205.71, 359.08 117.37 M156.36 350.57 C217.25 280.52, 278.15 210.46, 359.08 117.37 M162 350.18 C217.95 285.81, 273.91 221.44, 358.82 123.76 M162 350.18 C237.49 263.34, 312.98 176.5, 358.82 123.76 M166.99 350.54 C229.77 278.31, 292.55 206.09, 358.56 130.16 M166.99 350.54 C207.21 304.26, 247.44 257.99, 358.56 130.16 M172.63 350.14 C219.09 296.69, 265.56 243.24, 358.95 135.8 M172.63 350.14 C226.96 287.64, 281.3 225.13, 358.95 135.8 M177.62 350.5 C219.6 302.21, 261.58 253.92, 358.69 142.2 M177.62 350.5 C222.7 298.64, 267.79 246.77, 358.69 142.2 M183.26 350.11 C225.67 301.32, 268.08 252.53, 359.08 147.85 M183.26 350.11 C227.57 299.13, 271.89 248.16, 359.08 147.85 M188.25 350.47 C245.64 284.45, 303.03 218.42, 358.82 154.24 M188.25 350.47 C249.74 279.72, 311.24 208.98, 358.82 154.24 M193.89 350.07 C239.8 297.26, 285.72 244.44, 358.56 160.64 M193.89 350.07 C253.98 280.95, 314.06 211.83, 358.56 160.64 M198.88 350.43 C237.47 306.04, 276.07 261.64, 358.96 166.28 M198.88 350.43 C251.18 290.27, 303.48 230.11, 358.96 166.28 M204.52 350.04 C238 311.53, 271.48 273.02, 358.69 172.68 M204.52 350.04 C238.35 311.13, 272.17 272.22, 358.69 172.68 M209.51 350.4 C259.04 293.42, 308.58 236.43, 359.09 178.33 M209.51 350.4 C249.71 304.15, 289.92 257.9, 359.09 178.33 M215.15 350 C250.65 309.16, 286.15 268.33, 358.83 184.72 M215.15 350 C271.73 284.92, 328.3 219.84, 358.83 184.72 M220.14 350.36 C258.62 306.09, 297.11 261.82, 358.57 191.12 M220.14 350.36 C268.17 295.11, 316.21 239.85, 358.57 191.12 M225.78 349.97 C278.45 289.38, 331.12 228.79, 358.96 196.76 M225.78 349.97 C273.11 295.53, 320.44 241.08, 358.96 196.76 M230.77 350.33 C274.13 300.45, 317.5 250.56, 358.7 203.16 M230.77 350.33 C264.12 311.96, 297.48 273.59, 358.7 203.16 M236.41 349.94 C264.03 318.17, 291.64 286.4, 359.09 208.8 M236.41 349.94 C280.64 299.06, 324.87 248.18, 359.09 208.8 M241.4 350.3 C271.61 315.54, 301.82 280.79, 358.83 215.2 M241.4 350.3 C282.31 303.24, 323.21 256.18, 358.83 215.2 M246.39 350.66 C283.93 307.47, 321.47 264.28, 358.57 221.6 M246.39 350.66 C286.17 304.88, 325.96 259.11, 358.57 221.6 M252.03 350.26 C290.74 305.73, 329.46 261.19, 358.97 227.24 M252.03 350.26 C282.76 314.91, 313.48 279.57, 358.97 227.24 M257.02 350.62 C283.33 320.35, 309.64 290.08, 358.7 233.64 M257.02 350.62 C284.71 318.77, 312.4 286.91, 358.7 233.64 M262.66 350.23 C288.54 320.45, 314.43 290.67, 359.1 239.28 M262.66 350.23 C300.68 306.49, 338.7 262.75, 359.1 239.28 M267.65 350.59 C301.21 311.98, 334.77 273.37, 358.84 245.68 M267.65 350.59 C298.38 315.23, 329.11 279.88, 358.84 245.68 M273.29 350.19 C305.48 313.16, 337.68 276.12, 358.58 252.08 M273.29 350.19 C300.97 318.34, 328.66 286.5, 358.58 252.08 M278.28 350.55 C308.05 316.3, 337.82 282.05, 358.97 257.72 M278.28 350.55 C307.44 317, 336.6 283.45, 358.97 257.72 M283.92 350.16 C312.06 317.79, 340.19 285.42, 358.71 264.12 M283.92 350.16 C311.82 318.06, 339.73 285.95, 358.71 264.12 M288.91 350.52 C303.23 334.04, 317.55 317.57, 359.1 269.76 M288.91 350.52 C306.26 330.56, 323.61 310.6, 359.1 269.76 M294.55 350.12 C316.25 325.16, 337.95 300.2, 358.84 276.16 M294.55 350.12 C318.56 322.5, 342.57 294.88, 358.84 276.16 M299.54 350.48 C320.29 326.6, 341.05 302.72, 358.58 282.56 M299.54 350.48 C316.37 331.12, 333.2 311.76, 358.58 282.56 M305.18 350.09 C317.03 336.46, 328.88 322.83, 358.98 288.2 M305.18 350.09 C326.62 325.43, 348.05 300.77, 358.98 288.2 M310.17 350.45 C325.99 332.24, 341.82 314.04, 358.71 294.6 M310.17 350.45 C322.54 336.22, 334.91 321.99, 358.71 294.6 M315.81 350.05 C331.8 331.66, 347.78 313.27, 359.11 300.24 M315.81 350.05 C327.07 337.1, 338.32 324.16, 359.11 300.24 M320.8 350.41 C335.16 333.89, 349.53 317.36, 358.85 306.64 M320.8 350.41 C333.18 336.17, 345.56 321.93, 358.85 306.64 M326.44 350.02 C333.36 342.06, 340.27 334.1, 358.59 313.04 M326.44 350.02 C333.15 342.3, 339.86 334.57, 358.59 313.04 M331.43 350.38 C342.24 337.94, 353.05 325.5, 358.98 318.68 M331.43 350.38 C341.2 339.14, 350.97 327.89, 358.98 318.68 M337.07 349.99 C345.18 340.65, 353.3 331.32, 358.72 325.08 M337.07 349.99 C342.16 344.13, 347.25 338.28, 358.72 325.08 M342.06 350.35 C348.75 342.64, 355.45 334.93, 359.11 330.72 M342.06 350.35 C348.7 342.7, 355.35 335.05, 359.11 330.72 M347.7 349.95 C351.61 345.45, 355.52 340.95, 358.85 337.12 M347.7 349.95 C351.8 345.23, 355.9 340.52, 358.85 337.12 M352.69 350.31 C354.08 348.7, 355.48 347.1, 358.59 343.52 M352.69 350.31 C354.85 347.82, 357.01 345.33, 358.59 343.52" stroke="#fff" stroke-width="0.5" fill="none"></path><path d="M0 0 C127.52 0, 255.05 0, 356.67 0 M0 0 C99.05 0, 198.1 0, 356.67 0 M356.67 0 C356.67 90.6, 356.67 181.21, 356.67 347.78 M356.67 0 C356.67 97.82, 356.67 195.64, 356.67 347.78 M356.67 347.78 C258.18 347.78, 159.7 347.78, 0 347.78 M356.67 347.78 C219.18 347.78, 81.69 347.78, 0 347.78 M0 347.78 C0 274.2, 0 200.63, 0 0 M0 347.78 C0 254.73, 0 161.68, 0 0" stroke="#000000" stroke-width="1" fill="none"></path></g><g transform="translate(114.87794587347378 40.154092603181425) rotate(0 61 12.5)"><text x="61" y="18" font-family="Virgil, Segoe UI Emoji" font-size="20px" fill="#000000" text-anchor="middle" style="white-space: pre;" direction="ltr">All J sounds</text></g><g transform="translate(103.43350142902932 94.70964815873685) rotate(0 21 13)"><text x="21" y="19" font-family="Virgil, Segoe UI Emoji" font-size="20px" fill="#000000" text-anchor="middle" style="white-space: pre;" direction="rtl">جا​​/ج​​</text></g><g transform="translate(167.10016809569595 96.93187038095903) rotate(0 24 12.5)"><text x="24" y="18" font-family="Virgil, Segoe UI Emoji" font-size="20px" fill="#000000" text-anchor="middle" style="white-space: pre;" direction="ltr">Jeem</text></g><g transform="translate(111.10016809569606 143.59853704762577) rotate(0 10 13)"><text x="10" y="19" font-family="Virgil, Segoe UI Emoji" font-size="20px" fill="#000000" text-anchor="middle" style="white-space: pre;" direction="rtl">ظ</text></g><g transform="translate(168.7668347623627 145.04298149207034) rotate(0 24 12.5)"><text x="24" y="18" font-family="Virgil, Segoe UI Emoji" font-size="20px" fill="#000000" text-anchor="middle" style="white-space: pre;" direction="ltr">Zoye</text></g><g transform="translate(109.71127920680715 182.82075926984817) rotate(0 12.5 13)"><text x="12.5" y="19" font-family="Virgil, Segoe UI Emoji" font-size="20px" fill="#000000" text-anchor="middle" style="white-space: pre;" direction="rtl">ض</text></g><g transform="translate(165.37794587347378 185.20964815873685) rotate(0 33.5 12.5)"><text x="33.5" y="18" font-family="Virgil, Segoe UI Emoji" font-size="20px" fill="#000000" text-anchor="middle" style="white-space: pre;" direction="ltr">Zwaad</text></g><g transform="translate(118.98905698458498 303.1540926031814) rotate(0 5 13)"><text x="5" y="19" font-family="Virgil, Segoe UI Emoji" font-size="20px" fill="#000000" text-anchor="middle" style="white-space: pre;" direction="rtl">ذ</text></g><g transform="translate(161.71127920680715 303.04298149207034) rotate(0 24.5 12.5)"><text x="24.5" y="18" font-family="Virgil, Segoe UI Emoji" font-size="20px" fill="#000000" text-anchor="middle" style="white-space: pre;" direction="ltr">Zaal</text></g><g transform="translate(118.93350142902932 260.2652037142925) rotate(0 5.5 13)"><text x="5.5" y="19" font-family="Virgil, Segoe UI Emoji" font-size="20px" fill="#000000" text-anchor="middle" style="white-space: pre;" direction="rtl">ژ</text></g><g transform="translate(163.32239031791823 261.82075926984817) rotate(0 25 12.5)"><text x="25" y="18" font-family="Virgil, Segoe UI Emoji" font-size="20px" fill="#000000" text-anchor="middle" style="white-space: pre;" direction="ltr">Zhay</text></g><g transform="translate(120.04461254014052 223.2652037142925) rotate(0 5.5 13)"><text x="5.5" y="19" font-family="Virgil, Segoe UI Emoji" font-size="20px" fill="#000000" text-anchor="middle" style="white-space: pre;" direction="rtl">ز</text></g><g transform="translate(164.32239031791823 226.04298149207034) rotate(0 20 12.5)"><text x="20" y="18" font-family="Virgil, Segoe UI Emoji" font-size="20px" fill="#000000" text-anchor="middle" style="white-space: pre;" direction="ltr">Zay</text></g></svg>