<svg version="1.1" xmlns="http://www.w3.org/2000/svg" viewBox="0 0 377 367.7777777777776" width="377" height="367.7777777777776">
  <!-- svg-source:excalidraw -->
  
  <defs>
    <style>
      @font-face {
        font-family: "Virgil";
        src: url("https://excalidraw.com/Virgil.woff2");
      }
      @font-face {
        font-family: "Cascadia";
        src: url("https://excalidraw.com/Cascadia.woff2");
      }
    </style>
  </defs>
  <rect x="0" y="0" width="377" height="367.7777777777776" fill="#ffffff"></rect><g stroke-linecap="round" transform="translate(10 10) rotate(0 178.5 173.8888888888888)"><path d="M0 0 C0 0, 0 0, 0 0 M0 0 C0 0, 0 0, 0 0 M-0.26 6.4 C1.19 4.72, 2.65 3.05, 4.99 0.36 M-0.26 6.4 C1.16 4.76, 2.59 3.12, 4.99 0.36 M0.13 12.04 C3.05 8.69, 5.96 5.33, 10.63 -0.03 M0.13 12.04 C4.25 7.31, 8.36 2.57, 10.63 -0.03 M-0.13 18.44 C3.22 14.58, 6.57 10.73, 15.62 0.33 M-0.13 18.44 C3.17 14.65, 6.46 10.86, 15.62 0.33 M0.27 24.08 C5.03 18.6, 9.79 13.13, 21.26 -0.07 M0.27 24.08 C7.92 15.28, 15.57 6.48, 21.26 -0.07 M0 30.48 C8.9 20.25, 17.8 10.01, 26.25 0.29 M0 30.48 C9.03 20.09, 18.06 9.71, 26.25 0.29 M-0.26 36.88 C11.89 22.9, 24.04 8.93, 31.89 -0.1 M-0.26 36.88 C12.47 22.24, 25.19 7.61, 31.89 -0.1 M0.14 42.52 C8.06 33.41, 15.98 24.3, 36.88 0.26 M0.14 42.52 C12.78 27.98, 25.42 13.44, 36.88 0.26 M-0.12 48.92 C12.77 34.08, 25.67 19.25, 42.52 -0.14 M-0.12 48.92 C12.9 33.93, 25.93 18.95, 42.52 -0.14 M0.27 54.56 C14.49 38.21, 28.7 21.86, 47.51 0.22 M0.27 54.56 C14.66 38.01, 29.04 21.46, 47.51 0.22 M0.01 60.96 C11.73 47.48, 23.44 34, 53.15 -0.17 M0.01 60.96 C20.71 37.15, 41.4 13.34, 53.15 -0.17 M-0.25 67.36 C14.44 50.45, 29.14 33.54, 58.14 0.19 M-0.25 67.36 C14.2 50.74, 28.64 34.12, 58.14 0.19 M0.14 73 C19.27 51, 38.4 28.99, 63.78 -0.21 M0.14 73 C20.54 49.54, 40.93 26.08, 63.78 -0.21 M-0.12 79.4 C15.25 61.72, 30.61 44.05, 68.77 0.15 M-0.12 79.4 C15.11 61.88, 30.33 44.37, 68.77 0.15 M0.28 85.04 C26.92 54.39, 53.57 23.73, 74.41 -0.24 M0.28 85.04 C18.63 63.93, 36.99 42.81, 74.41 -0.24 M0.01 91.44 C29.28 57.78, 58.54 24.12, 79.4 0.12 M0.01 91.44 C15.91 73.15, 31.81 54.86, 79.4 0.12 M-0.25 97.84 C30.67 62.27, 61.58 26.71, 85.04 -0.28 M-0.25 97.84 C25.04 68.74, 50.33 39.65, 85.04 -0.28 M0.15 103.48 C30.74 68.29, 61.33 33.1, 90.03 0.08 M0.15 103.48 C34.9 63.5, 69.65 23.53, 90.03 0.08 M-0.11 109.88 C30.86 74.25, 61.83 38.61, 95.67 -0.31 M-0.11 109.88 C25.7 80.18, 51.52 50.48, 95.67 -0.31 M0.28 115.52 C39.3 70.63, 78.33 25.74, 100.66 0.05 M0.28 115.52 C31.21 79.94, 62.15 44.35, 100.66 0.05 M0.02 121.92 C21.74 96.93, 43.45 71.95, 106.3 -0.34 M0.02 121.92 C36.73 79.68, 73.44 37.45, 106.3 -0.34 M-0.24 128.32 C29.06 94.6, 58.37 60.89, 111.29 0.02 M-0.24 128.32 C35.39 87.32, 71.03 46.33, 111.29 0.02 M0.15 133.96 C25.23 105.11, 50.32 76.25, 116.27 0.38 M0.15 133.96 C44.24 83.24, 88.33 32.53, 116.27 0.38 M-0.11 140.36 C37.68 96.89, 75.46 53.42, 121.92 -0.02 M-0.11 140.36 C36.72 97.99, 73.55 55.62, 121.92 -0.02 M0.29 146 C40.47 99.77, 80.66 53.54, 126.91 0.34 M0.29 146 C26.13 116.26, 51.98 86.53, 126.91 0.34 M0.02 152.4 C49.75 95.19, 99.48 37.98, 132.55 -0.05 M0.02 152.4 C48.11 97.09, 96.19 41.78, 132.55 -0.05 M-0.24 158.8 C43.3 108.71, 86.84 58.62, 137.54 0.31 M-0.24 158.8 C44.87 106.9, 89.99 55.01, 137.54 0.31 M0.16 164.44 C43.6 114.47, 87.04 64.5, 143.18 -0.09 M0.16 164.44 C48.33 109.02, 96.5 53.6, 143.18 -0.09 M-0.1 170.84 C54.43 108.1, 108.97 45.36, 148.17 0.27 M-0.1 170.84 C34.68 130.82, 69.46 90.81, 148.17 0.27 M0.29 176.48 C36.79 134.49, 73.29 92.5, 153.81 -0.12 M0.29 176.48 C44 126.2, 87.71 75.91, 153.81 -0.12 M0.03 182.88 C44.04 132.25, 88.04 81.63, 158.8 0.24 M0.03 182.88 C45.64 130.41, 91.24 77.95, 158.8 0.24 M-0.23 189.27 C52.2 128.95, 104.64 68.63, 164.44 -0.16 M-0.23 189.27 C64.63 114.65, 129.5 40.04, 164.44 -0.16 M0.16 194.92 C67.34 117.64, 134.52 40.36, 169.43 0.2 M0.16 194.92 C38.02 151.37, 75.88 107.82, 169.43 0.2 M-0.1 201.32 C67.39 123.68, 134.88 46.04, 175.07 -0.19 M-0.1 201.32 C48.67 145.22, 97.43 89.12, 175.07 -0.19 M0.3 206.96 C59.29 139.1, 118.28 71.24, 180.06 0.17 M0.3 206.96 C46.77 153.49, 93.25 100.03, 180.06 0.17 M0.03 213.36 C51.32 154.36, 102.61 95.35, 185.7 -0.23 M0.03 213.36 C51.78 153.83, 103.53 94.3, 185.7 -0.23 M-0.23 219.75 C41.91 171.28, 84.05 122.8, 190.69 0.13 M-0.23 219.75 C72.94 135.58, 146.12 51.4, 190.69 0.13 M0.17 225.4 C64.46 151.44, 128.75 77.48, 196.33 -0.26 M0.17 225.4 C71.18 143.71, 142.19 62.02, 196.33 -0.26 M-0.09 231.8 C54.83 168.61, 109.75 105.43, 201.32 0.1 M-0.09 231.8 C53.43 170.23, 106.94 108.66, 201.32 0.1 M0.3 237.44 C57.05 172.15, 113.8 106.87, 206.96 -0.3 M0.3 237.44 C46.16 184.68, 92.02 131.92, 206.96 -0.3 M0.04 243.84 C48.91 187.62, 97.77 131.41, 211.95 0.06 M0.04 243.84 C74.28 158.43, 148.52 73.02, 211.95 0.06 M-0.22 250.23 C76.04 162.5, 152.3 74.77, 217.59 -0.33 M-0.22 250.23 C82.26 155.34, 164.75 60.45, 217.59 -0.33 M0.17 255.88 C64.55 181.82, 128.93 107.76, 222.58 0.03 M0.17 255.88 C79.83 164.24, 159.5 72.6, 222.58 0.03 M-0.09 262.27 C88.04 160.89, 176.17 59.51, 228.22 -0.36 M-0.09 262.27 C63.65 188.95, 127.38 115.63, 228.22 -0.36 M0.3 267.92 C91.77 162.7, 183.23 57.49, 233.21 0 M0.3 267.92 C90.39 164.28, 180.48 60.65, 233.21 0 M0.04 274.32 C74.44 188.73, 148.84 103.15, 238.19 0.36 M0.04 274.32 C94.51 165.64, 188.98 56.97, 238.19 0.36 M-0.22 280.71 C80.86 187.45, 161.93 94.18, 243.84 -0.04 M-0.22 280.71 C51.12 221.66, 102.46 162.6, 243.84 -0.04 M0.18 286.36 C64.3 212.59, 128.42 138.83, 248.82 0.32 M0.18 286.36 C82.51 191.64, 164.85 96.93, 248.82 0.32 M-0.08 292.75 C63.11 220.06, 126.3 147.36, 254.47 -0.07 M-0.08 292.75 C96.53 181.61, 193.14 70.47, 254.47 -0.07 M0.31 298.4 C64.97 224.02, 129.63 149.64, 259.45 0.29 M0.31 298.4 C80.4 206.27, 160.49 114.14, 259.45 0.29 M0.05 304.8 C87.41 204.29, 174.78 103.79, 265.1 -0.11 M0.05 304.8 C85.3 206.73, 170.55 108.66, 265.1 -0.11 M-0.21 311.19 C84.31 213.96, 168.84 116.72, 270.08 0.25 M-0.21 311.19 C76.41 223.05, 153.03 134.9, 270.08 0.25 M0.18 316.84 C86.55 217.48, 172.93 118.12, 275.73 -0.14 M0.18 316.84 C66.45 240.61, 132.71 164.38, 275.73 -0.14 M-0.08 323.23 C104.21 203.26, 208.5 83.29, 280.71 0.22 M-0.08 323.23 C65.63 247.64, 131.34 172.05, 280.71 0.22 M0.31 328.88 C110.56 202.06, 220.8 75.23, 286.36 -0.18 M0.31 328.88 C62.23 257.65, 124.15 186.42, 286.36 -0.18 M0.05 335.27 C101.41 218.68, 202.76 102.09, 291.34 0.18 M0.05 335.27 C77.79 245.85, 155.52 156.43, 291.34 0.18 M-0.21 341.67 C82.87 246.11, 165.94 150.54, 296.99 -0.21 M-0.21 341.67 C90.89 236.87, 182 132.07, 296.99 -0.21 M0.19 347.32 C79.58 255.98, 158.98 164.65, 301.97 0.15 M0.19 347.32 C95.17 238.05, 190.16 128.78, 301.97 0.15 M3.21 349.94 C118.37 217.46, 233.53 84.99, 307.62 -0.25 M3.21 349.94 C77.55 264.41, 151.9 178.88, 307.62 -0.25 M8.19 350.3 C110.49 232.62, 212.78 114.95, 312.6 0.11 M8.19 350.3 C80.33 267.32, 152.46 184.34, 312.6 0.11 M13.18 350.66 C78.06 276.02, 142.94 201.39, 318.25 -0.28 M13.18 350.66 C116.79 231.47, 220.4 112.28, 318.25 -0.28 M18.82 350.27 C105.42 250.65, 192.02 151.03, 323.23 0.08 M18.82 350.27 C116.05 238.42, 213.27 126.58, 323.23 0.08 M23.81 350.63 C134.25 223.58, 244.68 96.54, 328.88 -0.31 M23.81 350.63 C139.54 217.49, 255.28 84.35, 328.88 -0.31 M29.45 350.23 C97.78 271.62, 166.11 193.02, 333.86 0.05 M29.45 350.23 C143.43 219.11, 257.41 87.99, 333.86 0.05 M34.44 350.59 C142.47 226.32, 250.49 102.05, 339.51 -0.35 M34.44 350.59 C134.09 235.95, 233.75 121.31, 339.51 -0.35 M40.08 350.2 C152.88 220.43, 265.68 90.67, 344.49 0.01 M40.08 350.2 C113.47 265.77, 186.87 181.34, 344.49 0.01 M45.07 350.56 C156.25 222.66, 267.42 94.77, 349.48 0.37 M45.07 350.56 C112.43 273.07, 179.79 195.58, 349.48 0.37 M50.71 350.16 C152.9 232.61, 255.08 115.06, 355.12 -0.02 M50.71 350.16 C137.45 250.38, 224.19 150.6, 355.12 -0.02 M55.7 350.52 C152.7 238.93, 249.7 127.35, 358.8 1.85 M55.7 350.52 C140.43 253.05, 225.16 155.57, 358.8 1.85 M61.34 350.13 C130.23 270.89, 199.11 191.64, 359.19 7.49 M61.34 350.13 C150.12 248, 238.89 145.88, 359.19 7.49 M66.33 350.49 C180.93 218.65, 295.53 86.82, 358.93 13.89 M66.33 350.49 C181.73 217.74, 297.12 84.99, 358.93 13.89 M71.97 350.09 C177.23 229, 282.49 107.92, 358.67 20.28 M71.97 350.09 C186.4 218.45, 300.84 86.82, 358.67 20.28 M76.96 350.45 C162.06 252.55, 247.17 154.65, 359.07 25.93 M76.96 350.45 C143.32 274.12, 209.67 197.78, 359.07 25.93 M82.6 350.06 C179.71 238.34, 276.82 126.63, 358.8 32.33 M82.6 350.06 C174.69 244.12, 266.79 138.18, 358.8 32.33 M87.59 350.42 C147.36 281.66, 207.13 212.91, 359.2 37.97 M87.59 350.42 C182.13 241.66, 276.68 132.9, 359.2 37.97 M93.23 350.02 C197.21 230.41, 301.19 110.8, 358.94 44.37 M93.23 350.02 C192.26 236.1, 291.29 122.18, 358.94 44.37 M98.22 350.38 C167.3 270.92, 236.38 191.45, 358.68 50.76 M98.22 350.38 C164.78 273.81, 231.35 197.24, 358.68 50.76 M103.86 349.99 C203.77 235.06, 303.68 120.12, 359.07 56.41 M103.86 349.99 C158.82 286.76, 213.79 223.54, 359.07 56.41 M108.85 350.35 C159.86 291.67, 210.88 232.98, 358.81 62.81 M108.85 350.35 C198.04 247.75, 287.22 145.15, 358.81 62.81 M114.49 349.95 C177.06 277.98, 239.62 206.01, 359.2 68.45 M114.49 349.95 C184.55 269.36, 254.62 188.76, 359.2 68.45 M119.48 350.31 C203.75 253.37, 288.02 156.43, 358.94 74.85 M119.48 350.31 C173.96 287.64, 228.44 224.97, 358.94 74.85 M125.12 349.92 C215.25 246.24, 305.39 142.55, 358.68 81.24 M125.12 349.92 C180.48 286.24, 235.84 222.55, 358.68 81.24 M130.11 350.28 C192.5 278.51, 254.89 206.74, 359.07 86.89 M130.11 350.28 C203.37 266, 276.63 181.73, 359.07 86.89 M135.1 350.64 C220.7 252.16, 306.31 153.68, 358.81 93.28 M135.1 350.64 C190.04 287.44, 244.98 224.23, 358.81 93.28 M140.74 350.25 C201.46 280.39, 262.19 210.54, 359.21 98.93 M140.74 350.25 C198.19 284.15, 255.65 218.06, 359.21 98.93 M145.73 350.61 C219.25 266.03, 292.77 181.45, 358.95 105.33 M145.73 350.61 C213.23 272.95, 280.74 195.29, 358.95 105.33 M151.37 350.21 C219.57 271.76, 287.76 193.31, 358.69 111.72 M151.37 350.21 C226.41 263.89, 301.45 177.56, 358.69 111.72 M156.36 350.57 C231.31 264.35, 306.26 178.13, 359.08 117.37 M156.36 350.57 C233.64 261.66, 310.93 172.76, 359.08 117.37 M162 350.18 C227.84 274.43, 293.69 198.69, 358.82 123.76 M162 350.18 C220.82 282.51, 279.65 214.84, 358.82 123.76 M166.99 350.54 C215.65 294.55, 264.32 238.57, 359.21 129.41 M166.99 350.54 C243.35 262.7, 319.71 174.85, 359.21 129.41 M172.63 350.14 C219.62 296.09, 266.61 242.03, 358.95 135.8 M172.63 350.14 C215.9 300.37, 259.17 250.59, 358.95 135.8 M177.62 350.5 C248.12 269.4, 318.62 188.3, 358.69 142.2 M177.62 350.5 C222.69 298.65, 267.76 246.81, 358.69 142.2 M183.26 350.11 C251.46 271.65, 319.66 193.2, 359.08 147.85 M183.26 350.11 C235.5 290.01, 287.74 229.92, 359.08 147.85 M188.25 350.47 C234.46 297.3, 280.68 244.14, 358.82 154.24 M188.25 350.47 C230.4 301.98, 272.55 253.49, 358.82 154.24 M193.89 350.07 C242.82 293.79, 291.75 237.5, 359.22 159.89 M193.89 350.07 C244.34 292.03, 294.8 233.99, 359.22 159.89 M198.88 350.43 C261.15 278.8, 323.42 207.17, 358.96 166.28 M198.88 350.43 C235.58 308.22, 272.28 266, 358.96 166.28 M204.52 350.04 C247.57 300.52, 290.61 251, 358.69 172.68 M204.52 350.04 C242.23 306.66, 279.95 263.27, 358.69 172.68 M209.51 350.4 C259.33 293.09, 309.15 235.77, 359.09 178.33 M209.51 350.4 C248.3 305.77, 287.1 261.14, 359.09 178.33 M215.15 350 C256.66 302.26, 298.17 254.51, 358.83 184.72 M215.15 350 C269.78 287.16, 324.4 224.33, 358.83 184.72 M220.14 350.36 C260.63 303.79, 301.12 257.21, 359.22 190.37 M220.14 350.36 C265.75 297.89, 311.37 245.42, 359.22 190.37 M225.78 349.97 C255.71 315.54, 285.64 281.12, 358.96 196.76 M225.78 349.97 C272.83 295.85, 319.88 241.72, 358.96 196.76 M230.77 350.33 C275.49 298.89, 320.2 247.45, 358.7 203.16 M230.77 350.33 C263.03 313.22, 295.29 276.11, 358.7 203.16 M236.41 349.94 C265.21 316.8, 294.01 283.67, 359.09 208.8 M236.41 349.94 C270.97 310.17, 305.54 270.41, 359.09 208.8 M241.4 350.3 C287.57 297.18, 333.74 244.06, 358.83 215.2 M241.4 350.3 C285.52 299.54, 329.63 248.79, 358.83 215.2 M246.39 350.66 C270.72 322.67, 295.05 294.68, 359.23 220.85 M246.39 350.66 C275.73 316.9, 305.07 283.15, 359.23 220.85 M252.03 350.26 C273.98 325, 295.94 299.75, 358.97 227.24 M252.03 350.26 C280.76 317.21, 309.5 284.15, 358.97 227.24 M257.02 350.62 C288.77 314.09, 320.52 277.57, 358.7 233.64 M257.02 350.62 C283.37 320.3, 309.73 289.98, 358.7 233.64 M262.66 350.23 C298.11 309.44, 333.57 268.65, 359.1 239.28 M262.66 350.23 C284.65 324.92, 306.65 299.62, 359.1 239.28 M267.65 350.59 C287.54 327.7, 307.43 304.82, 358.84 245.68 M267.65 350.59 C288.33 326.8, 309 303.01, 358.84 245.68 M273.29 350.19 C304.26 314.57, 335.22 278.94, 359.23 251.33 M273.29 350.19 C305.7 312.91, 338.11 275.62, 359.23 251.33 M278.28 350.55 C300.47 325.02, 322.67 299.48, 358.97 257.72 M278.28 350.55 C309.5 314.63, 340.73 278.71, 358.97 257.72 M283.92 350.16 C303.51 327.62, 323.1 305.08, 358.71 264.12 M283.92 350.16 C311.28 318.69, 338.63 287.21, 358.71 264.12 M288.91 350.52 C315.12 320.36, 341.34 290.2, 359.1 269.76 M288.91 350.52 C312.8 323.03, 336.7 295.53, 359.1 269.76 M294.55 350.12 C310.59 331.67, 326.64 313.21, 358.84 276.16 M294.55 350.12 C311.95 330.11, 329.34 310.1, 358.84 276.16 M299.54 350.48 C314.58 333.18, 329.62 315.87, 359.24 281.8 M299.54 350.48 C321.3 325.45, 343.06 300.42, 359.24 281.8 M305.18 350.09 C321.24 331.61, 337.3 313.13, 358.98 288.2 M305.18 350.09 C321.02 331.86, 336.87 313.63, 358.98 288.2 M310.17 350.45 C329.48 328.23, 348.79 306.01, 358.71 294.6 M310.17 350.45 C325.36 332.97, 340.55 315.5, 358.71 294.6 M315.81 350.05 C328.06 335.96, 340.31 321.87, 359.11 300.24 M315.81 350.05 C327.38 336.74, 338.95 323.43, 359.11 300.24 M320.8 350.41 C333.98 335.24, 347.17 320.07, 358.85 306.64 M320.8 350.41 C332.83 336.57, 344.86 322.74, 358.85 306.64 M326.44 350.02 C335.46 339.64, 344.48 329.26, 359.24 312.28 M326.44 350.02 C337.75 337, 349.07 323.99, 359.24 312.28 M331.43 350.38 C341.96 338.26, 352.5 326.14, 358.98 318.68 M331.43 350.38 C339.17 341.47, 346.92 332.56, 358.98 318.68 M337.07 349.99 C342.38 343.87, 347.7 337.76, 358.72 325.08 M337.07 349.99 C343.79 342.26, 350.51 334.53, 358.72 325.08 M342.06 350.35 C346.11 345.68, 350.17 341.02, 359.11 330.72 M342.06 350.35 C348.73 342.66, 355.41 334.98, 359.11 330.72 M347.7 349.95 C351.75 345.28, 355.81 340.62, 358.85 337.12 M347.7 349.95 C350.74 346.45, 353.78 342.95, 358.85 337.12 M352.69 350.31 C355.27 347.34, 357.85 344.37, 359.25 342.76 M352.69 350.31 C354.04 348.75, 355.4 347.19, 359.25 342.76" stroke="#fff" stroke-width="0.5" fill="none"></path><path d="M0 0 C126.15 0, 252.31 0, 357 0 M0 0 C100.67 0, 201.34 0, 357 0 M357 0 C357 80.26, 357 160.53, 357 347.78 M357 0 C357 84.55, 357 169.11, 357 347.78 M357 347.78 C235.09 347.78, 113.18 347.78, 0 347.78 M357 347.78 C239.6 347.78, 122.2 347.78, 0 347.78 M0 347.78 C0 218.79, 0 89.8, 0 0 M0 347.78 C0 212.94, 0 78.1, 0 0" stroke="#000000" stroke-width="1" fill="none"></path></g><g transform="translate(46.377945873473664 39.1540926031812) rotate(0 144.5 13.5)"><text x="144.5" y="20" font-family="Virgil, Segoe UI Emoji" font-size="20px" fill="#000000" text-anchor="middle" style="white-space: pre;" direction="ltr">सभी ह की आवाज़ वाले अक्षर/आकार</text></g><g transform="translate(98.43350142902932 98.70964815873685) rotate(0 21 13)"><text x="21" y="19" font-family="Virgil, Segoe UI Emoji" font-size="20px" fill="#000000" text-anchor="middle" style="white-space: pre;" direction="rtl">حا​​/ح​​</text></g><g transform="translate(120.60016809569584 100.93187038095903) rotate(0 57.5 13.5)"><text x="57.5" y="20" font-family="Virgil, Segoe UI Emoji" font-size="20px" fill="#000000" text-anchor="middle" style="white-space: pre;" direction="ltr">    बड़ी हे/हा</text></g><g transform="translate(109.60016809569606 147.59853704762554) rotate(0 6.5 12.5)"><text x="6.5" y="18" font-family="Virgil, Segoe UI Emoji" font-size="20px" fill="#000000" text-anchor="middle" style="white-space: pre;" direction="rtl">ہ</text></g><g transform="translate(156.7668347623628 149.04298149207034) rotate(0 58 13.5)"><text x="58" y="20" font-family="Virgil, Segoe UI Emoji" font-size="20px" fill="#000000" text-anchor="middle" style="white-space: pre;" direction="ltr">छोटी हे/गोल हे</text></g><g transform="translate(109.71127920680715 186.82075926984749) rotate(0 7.5 13)"><text x="7.5" y="19" font-family="Virgil, Segoe UI Emoji" font-size="20px" fill="#000000" text-anchor="middle" style="white-space: pre;" direction="rtl">ھ</text></g><g transform="translate(164.37794587347366 189.20964815873594) rotate(0 42.5 13.500000000000114)"><text x="42.5" y="20" font-family="Virgil, Segoe UI Emoji" font-size="20px" fill="#000000" text-anchor="middle" style="white-space: pre;" direction="ltr">दो चश्मा हे</text></g><g transform="translate(88.93350142902932 264.26520371429274) rotate(0 30.5 12.5)"><text x="30.5" y="18" font-family="Virgil, Segoe UI Emoji" font-size="20px" fill="#000000" text-anchor="middle" style="white-space: pre;" direction="rtl">ہــــ</text></g><g transform="translate(168.32239031791823 265.8207592698484) rotate(0 76 13.5)"><text x="76" y="20" font-family="Virgil, Segoe UI Emoji" font-size="20px" fill="#000000" text-anchor="middle" style="white-space: pre;" direction="ltr">नीचे कॉमा वाली हे </text></g><g transform="translate(66.04461254014063 227.26520371429274) rotate(0 54.5 12.5)"><text x="54.5" y="18" font-family="Virgil, Segoe UI Emoji" font-size="20px" fill="#000000" text-anchor="middle" style="white-space: pre;" direction="rtl">ــــہــــ</text></g><g transform="translate(189.32239031791823 230.0429814920701) rotate(0 44 12.5)"><text x="44" y="18" font-family="Virgil, Segoe UI Emoji" font-size="20px" fill="#000000" text-anchor="middle" style="white-space: pre;" direction="ltr">ECG sign</text></g><g transform="translate(52.59990305129861 316.9723388522559) rotate(0 133 11)"><text x="0" y="16" font-family="Virgil, Segoe UI Emoji" font-size="16px" fill="#e67700" text-anchor="start" style="white-space: pre;" direction="ltr">Note: अभ्यास करें छोटी और बड़ी हे का </text></g></svg>