<svg version="1.1" xmlns="http://www.w3.org/2000/svg" viewBox="0 0 379 373" width="379" height="373">
  <!-- svg-source:excalidraw -->
  
  <defs>
    <style>
      @font-face {
        font-family: "Virgil";
        src: url("https://excalidraw.com/Virgil.woff2");
      }
      @font-face {
        font-family: "Cascadia";
        src: url("https://excalidraw.com/Cascadia.woff2");
      }
    </style>
  </defs>
  <rect x="0" y="0" width="379" height="373" fill="#ffffff"></rect><g stroke-linecap="round" transform="translate(10 10) rotate(0 179.5 176.5)"><path d="M0 0 C76.01 0, 152.02 0, 359 0 M0 0 C95.28 0, 190.57 0, 359 0 M359 0 C359 105.78, 359 211.57, 359 353 M359 0 C359 123.8, 359 247.6, 359 353 M359 353 C248.43 353, 137.86 353, 0 353 M359 353 C242.58 353, 126.16 353, 0 353 M0 353 C0 247.42, 0 141.84, 0 0 M0 353 C0 272.11, 0 191.22, 0 0" stroke="#000000" stroke-width="1" fill="none"></path></g><g transform="translate(48.5 39) rotate(0 6.5 13.5)"><text x="6.5" y="20" font-family="Virgil, Segoe UI Emoji" font-size="20px" fill="#000000" text-anchor="middle" style="white-space: pre;" direction="ltr">ड़</text></g><g transform="translate(322.5 42) rotate(0 13.5 12.5)"><text x="13.5" y="18" font-family="Virgil, Segoe UI Emoji" font-size="20px" fill="#000000" text-anchor="middle" style="white-space: pre;" direction="ltr">AṚ</text></g><g transform="translate(314 296) rotate(0 11 18)"><text x="11" y="26" font-family="Virgil, Segoe UI Emoji" font-size="28px" fill="#000000" text-anchor="middle" style="white-space: pre;" direction="rtl">ڑا</text></g><g transform="translate(179.5 295.75) rotate(0 25.5 18)"><text x="25.5" y="26" font-family="Virgil, Segoe UI Emoji" font-size="28px" fill="#000000" text-anchor="middle" style="white-space: pre;" direction="rtl">بڑب</text></g><g transform="translate(58.5 295.4981818181823) rotate(0 12 18)"><text x="12" y="26" font-family="Virgil, Segoe UI Emoji" font-size="28px" fill="#000000" text-anchor="middle" style="white-space: pre;" direction="rtl">بڑ</text></g><g transform="translate(150 42.72728228569031) rotate(0 37 13)"><text x="37" y="19" font-family="Virgil, Segoe UI Emoji" font-size="20px" fill="#000000" text-anchor="middle" style="white-space: pre;" direction="rtl">ر+ط= ڑ</text></g><g transform="translate(315.9476624727249 326.79078912734985) rotate(0 9.5 10)"><text x="19" y="14" font-family="Virgil, Segoe UI Emoji" font-size="16px" fill="#000000" text-anchor="end" style="white-space: pre;" direction="ltr">ra</text></g><g transform="translate(196.94766247272491 326.79078912734985) rotate(0 12 10)"><text x="24" y="14" font-family="Virgil, Segoe UI Emoji" font-size="16px" fill="#000000" text-anchor="end" style="white-space: pre;" direction="ltr">brb</text></g><g transform="translate(61.947662472724915 326.79078912734985) rotate(0 8 10)"><text x="16" y="14" font-family="Virgil, Segoe UI Emoji" font-size="16px" fill="#000000" text-anchor="end" style="white-space: pre;" direction="ltr">br</text></g><g stroke-linecap="round"><g transform="translate(183.3737528726274 84.35019422997993) rotate(0 8.814716313438453 16.829764705882326)"><path d="M0 0 C0.07 2.18, 0.36 7.64, 0.43 13.05 C0.5 18.47, -1.1 30.63, 0.43 32.49 C1.96 34.34, 5.38 26, 9.61 24.16 C13.85 22.32, 22.93 20.44, 25.85 21.45 C28.77 22.46, 30.16 28.22, 27.14 30.23 C24.13 32.24, 14.15 33, 7.75 33.49 C1.36 33.99, -8.04 33.25, -11.2 33.21 M0 0 C0.07 2.18, 0.36 7.64, 0.43 13.05 C0.5 18.47, -1.1 30.63, 0.43 32.49 C1.96 34.34, 5.38 26, 9.61 24.16 C13.85 22.32, 22.93 20.44, 25.85 21.45 C28.77 22.46, 30.16 28.22, 27.14 30.23 C24.13 32.24, 14.15 33, 7.75 33.49 C1.36 33.99, -8.04 33.25, -11.2 33.21" stroke="#000000" stroke-width="1" fill="none"></path></g></g><g stroke-linecap="round"><g transform="translate(200.92280265055297 127.59749817610373) rotate(0 -46.90286586177024 55.793737294667835)"><path d="M0 0 C0.09 6.79, 3.09 27.18, 0.52 40.72 C-2.06 54.26, -6.33 71.01, -15.45 81.23 C-24.57 91.44, -40.88 96.95, -54.2 102.01 C-67.52 107.07, -88.5 109.99, -95.36 111.59 M0 0 C0.09 6.79, 3.09 27.18, 0.52 40.72 C-2.06 54.26, -6.33 71.01, -15.45 81.23 C-24.57 91.44, -40.88 96.95, -54.2 102.01 C-67.52 107.07, -88.5 109.99, -95.36 111.59" stroke="#000000" stroke-width="1" fill="none"></path></g></g></svg>