<svg version="1.1" xmlns="http://www.w3.org/2000/svg" viewBox="0 0 379 373" width="379" height="373">
  <!-- svg-source:excalidraw -->
  
  <defs>
    <style>
      @font-face {
        font-family: "Virgil";
        src: url("https://excalidraw.com/Virgil.woff2");
      }
      @font-face {
        font-family: "Cascadia";
        src: url("https://excalidraw.com/Cascadia.woff2");
      }
    </style>
  </defs>
  <rect x="0" y="0" width="379" height="373" fill="#ffffff"></rect><g stroke-linecap="round" transform="translate(10 10) rotate(0 179.5 176.5)"><path d="M0 0 C135.07 0, 270.14 0, 359 0 M0 0 C115.96 0, 231.91 0, 359 0 M359 0 C359 105.31, 359 210.61, 359 353 M359 0 C359 109.47, 359 218.94, 359 353 M359 353 C272.44 353, 185.89 353, 0 353 M359 353 C250.6 353, 142.19 353, 0 353 M0 353 C0 241.87, 0 130.75, 0 0 M0 353 C0 243.32, 0 133.64, 0 0" stroke="#000000" stroke-width="1" fill="none"></path></g><g transform="translate(47 39) rotate(0 8 13.5)"><text x="8" y="20" font-family="Virgil, Segoe UI Emoji" font-size="20px" fill="#000000" text-anchor="middle" style="white-space: pre;" direction="ltr">अ</text></g><g transform="translate(329 42) rotate(0 7 12.5)"><text x="7" y="18" font-family="Virgil, Segoe UI Emoji" font-size="20px" fill="#000000" text-anchor="middle" style="white-space: pre;" direction="ltr">A</text></g><g transform="translate(290 301) rotate(0 26 13)"><text x="26" y="19" font-family="Virgil, Segoe UI Emoji" font-size="20px" fill="#000000" text-anchor="middle" style="white-space: pre;" direction="rtl">عورت</text></g><g transform="translate(141 300.75) rotate(0 39 13)"><text x="39" y="19" font-family="Virgil, Segoe UI Emoji" font-size="20px" fill="#000000" text-anchor="middle" style="white-space: pre;" direction="rtl">ـعـ/جمعہ</text></g><g transform="translate(39.5 300.4981818181841) rotate(0 18 13)"><text x="18" y="19" font-family="Virgil, Segoe UI Emoji" font-size="20px" fill="#000000" text-anchor="middle" style="white-space: pre;" direction="rtl">جمع</text></g><g transform="translate(157.00000000000023 42.72728228569031) rotate(0 30 13)"><text x="30" y="19" font-family="Virgil, Segoe UI Emoji" font-size="20px" fill="#000000" text-anchor="middle" style="white-space: pre;" direction="ltr">Ayn(ع)</text></g><g transform="translate(296.9476624727249 326.79078912734985) rotate(0 23.5 10)"><text x="47" y="14" font-family="Virgil, Segoe UI Emoji" font-size="16px" fill="#000000" text-anchor="end" style="white-space: pre;" direction="ltr">aurat</text></g><g transform="translate(139.94766247272491 326.79078912734985) rotate(0 48.5 10)"><text x="97" y="14" font-family="Virgil, Segoe UI Emoji" font-size="16px" fill="#000000" text-anchor="end" style="white-space: pre;" direction="ltr">jumah/middle</text></g><g transform="translate(39.947662472724915 326.79078912734985) rotate(0 19 10)"><text x="38" y="14" font-family="Virgil, Segoe UI Emoji" font-size="16px" fill="#000000" text-anchor="end" style="white-space: pre;" direction="ltr">jama</text></g><g stroke-linecap="round"><g transform="translate(174.9573507140401 122.23908311887135) rotate(0 10.411507695657349 53.00780619930538)"><path d="M0 0 C-6.78 3.41, -35.32 12.29, -40.67 20.47 C-46.03 28.65, -40.09 47.25, -32.14 49.07 C-24.2 50.88, 4.88 28.99, 6.99 31.36 C9.1 33.73, -14.11 51.8, -19.49 63.3 C-24.87 74.81, -32.16 94.17, -25.26 100.38 C-18.37 106.59, 7.08 109.01, 21.88 100.58 C36.68 92.15, 56.6 58.25, 63.55 49.78 M0 0 C-6.78 3.41, -35.32 12.29, -40.67 20.47 C-46.03 28.65, -40.09 47.25, -32.14 49.07 C-24.2 50.88, 4.88 28.99, 6.99 31.36 C9.1 33.73, -14.11 51.8, -19.49 63.3 C-24.87 74.81, -32.16 94.17, -25.26 100.38 C-18.37 106.59, 7.08 109.01, 21.88 100.58 C36.68 92.15, 56.6 58.25, 63.55 49.78" stroke="#000000" stroke-width="1" fill="none"></path></g></g></svg>