<svg version="1.1" xmlns="http://www.w3.org/2000/svg" viewBox="0 0 376.6666666666665 367.7777777777776" width="376.6666666666665" height="367.7777777777776">
  <!-- svg-source:excalidraw -->
  
  <defs>
    <style>
      @font-face {
        font-family: "Virgil";
        src: url("https://excalidraw.com/Virgil.woff2");
      }
      @font-face {
        font-family: "Cascadia";
        src: url("https://excalidraw.com/Cascadia.woff2");
      }
    </style>
  </defs>
  <rect x="0" y="0" width="376.6666666666665" height="367.7777777777776" fill="#ffffff"></rect><g stroke-linecap="round" transform="translate(10 10) rotate(0 178.33333333333326 173.8888888888888)"><path d="M0 0 C0 0, 0 0, 0 0 M0 0 C0 0, 0 0, 0 0 M-0.26 6.4 C1.57 4.29, 3.41 2.18, 4.99 0.36 M-0.26 6.4 C1.38 4.5, 3.03 2.61, 4.99 0.36 M0.13 12.04 C4.16 7.41, 8.19 2.78, 10.63 -0.03 M0.13 12.04 C2.71 9.08, 5.28 6.12, 10.63 -0.03 M-0.13 18.44 C3.93 13.77, 7.99 9.1, 15.62 0.33 M-0.13 18.44 C5.75 11.67, 11.63 4.91, 15.62 0.33 M0.27 24.08 C5.57 17.98, 10.88 11.87, 21.26 -0.07 M0.27 24.08 C8.62 14.47, 16.98 4.85, 21.26 -0.07 M0 30.48 C6.06 23.51, 12.12 16.54, 26.25 0.29 M0 30.48 C5.61 24.03, 11.21 17.59, 26.25 0.29 M-0.26 36.88 C11.28 23.6, 22.82 10.33, 31.89 -0.1 M-0.26 36.88 C7.33 28.15, 14.92 19.42, 31.89 -0.1 M0.14 42.52 C12.27 28.56, 24.4 14.61, 36.88 0.26 M0.14 42.52 C8.7 32.67, 17.26 22.83, 36.88 0.26 M-0.12 48.92 C12.05 34.91, 24.22 20.91, 42.52 -0.14 M-0.12 48.92 C10.53 36.66, 21.18 24.41, 42.52 -0.14 M0.27 54.56 C11.39 41.77, 22.52 28.97, 47.51 0.22 M0.27 54.56 C11.56 41.58, 22.85 28.59, 47.51 0.22 M0.01 60.96 C20.34 37.57, 40.68 14.18, 53.15 -0.17 M0.01 60.96 C20.62 37.26, 41.22 13.55, 53.15 -0.17 M-0.25 67.36 C19.77 44.32, 39.8 21.28, 58.14 0.19 M-0.25 67.36 C19.97 44.09, 40.2 20.82, 58.14 0.19 M0.14 73 C17.2 53.38, 34.25 33.76, 63.78 -0.21 M0.14 73 C22.81 46.92, 45.48 20.85, 63.78 -0.21 M-0.12 79.4 C18.23 58.29, 36.58 37.18, 68.77 0.15 M-0.12 79.4 C19.02 57.38, 38.16 35.36, 68.77 0.15 M0.28 85.04 C24.46 57.22, 48.65 29.39, 74.41 -0.24 M0.28 85.04 C23.95 57.81, 47.62 30.58, 74.41 -0.24 M0.01 91.44 C26.73 60.7, 53.45 29.96, 79.4 0.12 M0.01 91.44 C20.96 67.34, 41.92 43.24, 79.4 0.12 M-0.25 97.84 C17.61 77.29, 35.47 56.75, 85.04 -0.28 M-0.25 97.84 C33.77 58.71, 67.78 19.57, 85.04 -0.28 M0.15 103.48 C27.25 72.3, 54.35 41.12, 90.03 0.08 M0.15 103.48 C30.96 68.03, 61.78 32.58, 90.03 0.08 M-0.11 109.88 C32.12 72.79, 64.36 35.71, 95.67 -0.31 M-0.11 109.88 C35.77 68.6, 71.65 27.32, 95.67 -0.31 M0.28 115.52 C23.02 89.37, 45.75 63.21, 100.66 0.05 M0.28 115.52 C26.46 85.41, 52.63 55.3, 100.66 0.05 M0.02 121.92 C41.89 73.75, 83.76 25.59, 106.3 -0.34 M0.02 121.92 C40.84 74.96, 81.67 27.99, 106.3 -0.34 M-0.24 128.32 C43.68 77.79, 87.6 27.26, 111.29 0.02 M-0.24 128.32 C41.2 80.64, 82.65 32.96, 111.29 0.02 M0.15 133.96 C27.46 102.55, 54.77 71.13, 116.27 0.38 M0.15 133.96 C26.01 104.21, 51.87 74.47, 116.27 0.38 M-0.11 140.36 C24.68 111.84, 49.46 83.33, 121.92 -0.02 M-0.11 140.36 C41.03 93.03, 82.17 45.71, 121.92 -0.02 M0.29 146 C48.5 90.53, 96.72 35.06, 126.91 0.34 M0.29 146 C31.11 110.54, 61.94 75.07, 126.91 0.34 M0.02 152.4 C35.96 111.06, 71.89 69.72, 132.55 -0.05 M0.02 152.4 C30.09 117.81, 60.16 83.22, 132.55 -0.05 M-0.24 158.8 C43.68 108.27, 87.6 57.75, 137.54 0.31 M-0.24 158.8 C35.23 117.99, 70.7 77.19, 137.54 0.31 M0.16 164.44 C47.62 109.83, 95.09 55.23, 143.18 -0.09 M0.16 164.44 C31.37 128.54, 62.57 92.64, 143.18 -0.09 M-0.1 170.84 C30.16 136.02, 60.43 101.2, 148.17 0.27 M-0.1 170.84 C34.5 131.03, 69.1 91.23, 148.17 0.27 M0.29 176.48 C51.95 117.06, 103.6 57.63, 153.81 -0.12 M0.29 176.48 C45.78 124.15, 91.27 71.82, 153.81 -0.12 M0.03 182.88 C57.04 117.29, 114.06 51.7, 158.8 0.24 M0.03 182.88 C63.19 110.22, 126.35 37.56, 158.8 0.24 M-0.23 189.27 C57.94 122.36, 116.11 55.44, 164.44 -0.16 M-0.23 189.27 C58.09 122.18, 116.42 55.09, 164.44 -0.16 M0.16 194.92 C63.32 122.27, 126.47 49.61, 169.43 0.2 M0.16 194.92 C56.91 129.64, 113.65 64.36, 169.43 0.2 M-0.1 201.32 C46.8 147.37, 93.7 93.42, 175.07 -0.19 M-0.1 201.32 C51.16 142.35, 102.42 83.38, 175.07 -0.19 M0.3 206.96 C36.75 165.02, 73.21 123.08, 180.06 0.17 M0.3 206.96 C52.03 147.44, 103.77 87.93, 180.06 0.17 M0.03 213.36 C52.51 152.99, 104.98 92.63, 185.7 -0.23 M0.03 213.36 C59.49 144.95, 118.96 76.55, 185.7 -0.23 M-0.23 219.75 C51.69 160.03, 103.61 100.3, 190.69 0.13 M-0.23 219.75 C48.56 163.63, 97.35 107.5, 190.69 0.13 M0.17 225.4 C42.9 176.24, 85.63 127.08, 196.33 -0.26 M0.17 225.4 C49.9 168.19, 99.63 110.98, 196.33 -0.26 M-0.09 231.8 C74.74 145.71, 149.58 59.62, 201.32 0.1 M-0.09 231.8 C59.59 163.14, 119.27 94.49, 201.32 0.1 M0.3 237.44 C43.79 187.41, 87.28 137.38, 206.96 -0.3 M0.3 237.44 C45.07 185.94, 89.84 134.44, 206.96 -0.3 M0.04 243.84 C76.28 156.13, 152.52 68.42, 211.95 0.06 M0.04 243.84 C47.87 188.81, 95.71 133.78, 211.95 0.06 M-0.22 250.23 C46.55 196.43, 93.32 142.63, 217.59 -0.33 M-0.22 250.23 C74.2 164.63, 148.61 79.02, 217.59 -0.33 M0.17 255.88 C58.45 188.84, 116.73 121.79, 222.58 0.03 M0.17 255.88 C70.74 174.7, 141.3 93.52, 222.58 0.03 M-0.09 262.27 C68.89 182.92, 137.87 103.57, 228.22 -0.36 M-0.09 262.27 C61.21 191.76, 122.5 121.25, 228.22 -0.36 M0.3 267.92 C86.67 168.56, 173.04 69.21, 233.21 0 M0.3 267.92 C47.41 213.73, 94.51 159.55, 233.21 0 M0.04 274.32 C86.09 175.33, 172.14 76.34, 238.19 0.36 M0.04 274.32 C58.34 207.26, 116.63 140.2, 238.19 0.36 M-0.22 280.71 C84.21 183.59, 168.64 86.47, 243.84 -0.04 M-0.22 280.71 C90 176.93, 180.22 73.14, 243.84 -0.04 M0.18 286.36 C99.17 172.48, 198.16 58.6, 248.82 0.32 M0.18 286.36 C56.38 221.71, 112.58 157.06, 248.82 0.32 M-0.08 292.75 C79.91 200.73, 159.9 108.71, 254.47 -0.07 M-0.08 292.75 C67.75 214.72, 135.59 136.68, 254.47 -0.07 M0.31 298.4 C61.35 228.18, 122.4 157.95, 259.45 0.29 M0.31 298.4 C97.63 186.44, 194.95 74.49, 259.45 0.29 M0.05 304.8 C98.1 192, 196.14 79.21, 265.1 -0.11 M0.05 304.8 C105.39 183.62, 210.72 62.44, 265.1 -0.11 M-0.21 311.19 C57.59 244.7, 115.39 178.21, 270.08 0.25 M-0.21 311.19 C98.29 197.87, 196.8 84.55, 270.08 0.25 M0.18 316.84 C75.75 229.91, 151.31 142.98, 275.73 -0.14 M0.18 316.84 C62.17 245.52, 124.16 174.21, 275.73 -0.14 M-0.08 323.23 C81.45 229.44, 162.99 135.65, 280.71 0.22 M-0.08 323.23 C76.2 235.48, 152.48 147.73, 280.71 0.22 M0.31 328.88 C102.06 211.84, 203.8 94.8, 286.36 -0.18 M0.31 328.88 C77.4 240.2, 154.48 151.53, 286.36 -0.18 M0.05 335.27 C99.01 221.44, 197.97 107.6, 291.34 0.18 M0.05 335.27 C82.76 240.13, 165.47 144.99, 291.34 0.18 M-0.21 341.67 C62.19 269.89, 124.58 198.11, 296.99 -0.21 M-0.21 341.67 C61.94 270.18, 124.08 198.69, 296.99 -0.21 M0.19 347.32 C76.74 259.25, 153.3 171.18, 301.97 0.15 M0.19 347.32 C119.64 209.9, 239.1 72.48, 301.97 0.15 M3.21 349.94 C124.94 209.9, 246.67 69.86, 307.62 -0.25 M3.21 349.94 C118.82 216.94, 234.43 83.94, 307.62 -0.25 M8.19 350.3 C81.61 265.84, 155.04 181.38, 312.6 0.11 M8.19 350.3 C102.47 241.85, 196.74 133.4, 312.6 0.11 M13.18 350.66 C121.66 225.87, 230.13 101.08, 318.25 -0.28 M13.18 350.66 C97.17 254.03, 181.17 157.41, 318.25 -0.28 M18.82 350.27 C118.8 235.26, 218.77 120.25, 323.23 0.08 M18.82 350.27 C121.02 232.7, 223.23 115.13, 323.23 0.08 M23.81 350.63 C107.47 254.38, 191.13 158.14, 328.88 -0.31 M23.81 350.63 C99.25 263.84, 174.7 177.05, 328.88 -0.31 M29.45 350.23 C108.2 259.64, 186.95 169.06, 333.86 0.05 M29.45 350.23 C118.32 248, 207.18 145.77, 333.86 0.05 M34.44 350.59 C101.65 273.28, 168.86 195.96, 339.51 -0.35 M34.44 350.59 C97.01 278.61, 159.58 206.63, 339.51 -0.35 M40.08 350.2 C159.57 212.74, 279.06 75.29, 344.49 0.01 M40.08 350.2 C102.21 278.73, 164.33 207.26, 344.49 0.01 M45.07 350.56 C113.68 271.62, 182.3 192.69, 349.48 0.37 M45.07 350.56 C141.25 239.91, 237.43 129.27, 349.48 0.37 M50.71 350.16 C113.92 277.45, 177.12 204.75, 355.12 -0.02 M50.71 350.16 C113.37 278.09, 176.02 206.01, 355.12 -0.02 M55.7 350.52 C173.4 215.13, 291.09 79.73, 358.8 1.85 M55.7 350.52 C148.11 244.22, 240.51 137.92, 358.8 1.85 M61.34 350.13 C179.9 213.75, 298.45 77.37, 358.54 8.24 M61.34 350.13 C132.24 268.57, 203.14 187.01, 358.54 8.24 M66.33 350.49 C176.07 224.25, 285.81 98.01, 358.93 13.89 M66.33 350.49 C170.11 231.1, 273.9 111.71, 358.93 13.89 M71.97 350.09 C180.47 225.28, 288.97 100.46, 358.67 20.28 M71.97 350.09 C172.76 234.14, 273.56 118.2, 358.67 20.28 M76.96 350.45 C166.89 247, 256.82 143.55, 359.07 25.93 M76.96 350.45 C135.09 283.58, 193.23 216.7, 359.07 25.93 M82.6 350.06 C186.32 230.74, 290.04 111.43, 358.8 32.33 M82.6 350.06 C138.36 285.92, 194.12 221.78, 358.8 32.33 M87.59 350.42 C174.26 250.72, 260.93 151.02, 358.54 38.72 M87.59 350.42 C157.35 270.17, 227.11 189.92, 358.54 38.72 M93.23 350.02 C182.66 247.15, 272.09 144.27, 358.94 44.37 M93.23 350.02 C187.39 241.71, 281.54 133.4, 358.94 44.37 M98.22 350.38 C188.3 246.75, 278.39 143.13, 358.68 50.76 M98.22 350.38 C167.28 270.94, 236.34 191.49, 358.68 50.76 M103.86 349.99 C161.35 283.85, 218.85 217.72, 359.07 56.41 M103.86 349.99 C201.28 237.93, 298.69 125.87, 359.07 56.41 M108.85 350.35 C191.72 255.02, 274.59 159.69, 358.81 62.81 M108.85 350.35 C169.64 280.41, 230.44 210.48, 358.81 62.81 M114.49 349.95 C193.19 259.43, 271.88 168.9, 358.55 69.2 M114.49 349.95 C203.43 247.65, 292.36 145.34, 358.55 69.2 M119.48 350.31 C186.24 273.52, 252.99 196.72, 358.94 74.85 M119.48 350.31 C206.54 250.17, 293.6 150.02, 358.94 74.85 M125.12 349.92 C201.29 262.3, 277.45 174.68, 358.68 81.24 M125.12 349.92 C216.39 244.93, 307.65 139.95, 358.68 81.24 M130.11 350.28 C211.79 256.32, 293.47 162.36, 359.07 86.89 M130.11 350.28 C188.7 282.88, 247.29 215.48, 359.07 86.89 M135.1 350.64 C191.36 285.92, 247.62 221.2, 358.81 93.28 M135.1 350.64 C192.57 284.53, 250.04 218.42, 358.81 93.28 M140.74 350.25 C184.67 299.71, 228.6 249.18, 358.55 99.68 M140.74 350.25 C207.77 273.14, 274.8 196.03, 358.55 99.68 M145.73 350.61 C216.29 269.43, 286.86 188.25, 358.95 105.33 M145.73 350.61 C223.92 260.66, 302.11 170.71, 358.95 105.33 M151.37 350.21 C196.39 298.43, 241.4 246.64, 358.69 111.72 M151.37 350.21 C226.92 263.3, 302.48 176.38, 358.69 111.72 M156.36 350.57 C220.04 277.32, 283.72 204.06, 359.08 117.37 M156.36 350.57 C203.39 296.47, 250.42 242.36, 359.08 117.37 M162 350.18 C215.88 288.19, 269.76 226.21, 358.82 123.76 M162 350.18 C207.1 298.3, 252.2 246.42, 358.82 123.76 M166.99 350.54 C237.44 269.5, 307.88 188.45, 358.56 130.16 M166.99 350.54 C238.31 268.49, 309.63 186.45, 358.56 130.16 M172.63 350.14 C211.65 305.25, 250.67 260.36, 358.95 135.8 M172.63 350.14 C240.23 272.38, 307.82 194.62, 358.95 135.8 M177.62 350.5 C245.66 272.23, 313.71 193.95, 358.69 142.2 M177.62 350.5 C216.54 305.73, 255.46 260.95, 358.69 142.2 M183.26 350.11 C241.14 283.52, 299.02 216.94, 359.08 147.85 M183.26 350.11 C250.81 272.4, 318.36 194.69, 359.08 147.85 M188.25 350.47 C229.08 303.49, 269.92 256.52, 358.82 154.24 M188.25 350.47 C255.65 272.93, 323.06 195.38, 358.82 154.24 M193.89 350.07 C244.16 292.24, 294.44 234.41, 358.56 160.64 M193.89 350.07 C254.81 280, 315.72 209.92, 358.56 160.64 M198.88 350.43 C259.21 281.03, 319.55 211.62, 358.96 166.28 M198.88 350.43 C239.85 303.3, 280.82 256.17, 358.96 166.28 M204.52 350.04 C247.25 300.88, 289.98 251.72, 358.69 172.68 M204.52 350.04 C259.15 287.19, 313.79 224.34, 358.69 172.68 M209.51 350.4 C242.99 311.88, 276.47 273.36, 359.09 178.33 M209.51 350.4 C261.57 290.51, 313.63 230.62, 359.09 178.33 M215.15 350 C265.64 291.92, 316.13 233.84, 358.83 184.72 M215.15 350 C248.16 312.03, 281.17 274.06, 358.83 184.72 M220.14 350.36 C266.22 297.35, 312.31 244.33, 358.57 191.12 M220.14 350.36 C265.84 297.79, 311.54 245.22, 358.57 191.12 M225.78 349.97 C265.98 303.73, 306.18 257.48, 358.96 196.76 M225.78 349.97 C258.55 312.27, 291.33 274.57, 358.96 196.76 M230.77 350.33 C265.82 310, 300.88 269.68, 358.7 203.16 M230.77 350.33 C265.13 310.8, 299.5 271.26, 358.7 203.16 M236.41 349.94 C269.47 311.91, 302.53 273.88, 359.09 208.8 M236.41 349.94 C274.59 306.01, 312.77 262.09, 359.09 208.8 M241.4 350.3 C280.65 305.14, 319.9 259.99, 358.83 215.2 M241.4 350.3 C281.06 304.67, 320.73 259.04, 358.83 215.2 M246.39 350.66 C275.83 316.79, 305.27 282.92, 358.57 221.6 M246.39 350.66 C279.01 313.13, 311.63 275.6, 358.57 221.6 M252.03 350.26 C275.33 323.46, 298.62 296.66, 358.97 227.24 M252.03 350.26 C286.21 310.94, 320.38 271.63, 358.97 227.24 M257.02 350.62 C283.06 320.66, 309.1 290.7, 358.7 233.64 M257.02 350.62 C288.37 314.56, 319.71 278.49, 358.7 233.64 M262.66 350.23 C296.06 311.81, 329.46 273.38, 359.1 239.28 M262.66 350.23 C291.98 316.5, 321.29 282.77, 359.1 239.28 M267.65 350.59 C294.37 319.84, 321.1 289.1, 358.84 245.68 M267.65 350.59 C289.98 324.89, 312.32 299.19, 358.84 245.68 M273.29 350.19 C303.84 315.04, 334.4 279.89, 358.58 252.08 M273.29 350.19 C306.44 312.06, 339.58 273.93, 358.58 252.08 M278.28 350.55 C309.19 314.99, 340.1 279.44, 358.97 257.72 M278.28 350.55 C297.63 328.28, 316.99 306.01, 358.97 257.72 M283.92 350.16 C299.59 332.13, 315.27 314.1, 358.71 264.12 M283.92 350.16 C312.27 317.55, 340.62 284.93, 358.71 264.12 M288.91 350.52 C303.15 334.13, 317.4 317.74, 359.1 269.76 M288.91 350.52 C316.28 319.02, 343.66 287.53, 359.1 269.76 M294.55 350.12 C312.11 329.92, 329.68 309.71, 358.84 276.16 M294.55 350.12 C313.1 328.79, 331.64 307.45, 358.84 276.16 M299.54 350.48 C322.97 323.52, 346.41 296.56, 358.58 282.56 M299.54 350.48 C314.3 333.5, 329.06 316.52, 358.58 282.56 M305.18 350.09 C318.06 335.27, 330.94 320.45, 358.98 288.2 M305.18 350.09 C317.99 335.35, 330.8 320.62, 358.98 288.2 M310.17 350.45 C323.58 335.02, 336.99 319.59, 358.71 294.6 M310.17 350.45 C326.3 331.88, 342.44 313.32, 358.71 294.6 M315.81 350.05 C325.14 339.32, 334.48 328.58, 359.11 300.24 M315.81 350.05 C331.26 332.28, 346.71 314.51, 359.11 300.24 M320.8 350.41 C332.95 336.43, 345.11 322.44, 358.85 306.64 M320.8 350.41 C328.69 341.33, 336.59 332.25, 358.85 306.64 M326.44 350.02 C333.71 341.65, 340.99 333.28, 358.59 313.04 M326.44 350.02 C335.48 339.62, 344.53 329.21, 358.59 313.04 M331.43 350.38 C338.93 341.75, 346.43 333.12, 358.98 318.68 M331.43 350.38 C337.03 343.93, 342.64 337.47, 358.98 318.68 M337.07 349.99 C343.85 342.18, 350.64 334.38, 358.72 325.08 M337.07 349.99 C342.62 343.6, 348.17 337.22, 358.72 325.08 M342.06 350.35 C346.28 345.49, 350.5 340.64, 359.11 330.72 M342.06 350.35 C347.28 344.33, 352.51 338.32, 359.11 330.72 M347.7 349.95 C350.33 346.93, 352.96 343.9, 358.85 337.12 M347.7 349.95 C350.31 346.95, 352.92 343.95, 358.85 337.12 M352.69 350.31 C354.01 348.78, 355.34 347.25, 358.59 343.52 M352.69 350.31 C354.22 348.54, 355.76 346.78, 358.59 343.52" stroke="#fff" stroke-width="0.5" fill="none"></path><path d="M0 0 C133.7 0, 267.4 0, 356.67 0 M0 0 C127.79 0, 255.58 0, 356.67 0 M356.67 0 C356.67 126.45, 356.67 252.9, 356.67 347.78 M356.67 0 C356.67 131.08, 356.67 262.16, 356.67 347.78 M356.67 347.78 C263.97 347.78, 171.28 347.78, 0 347.78 M356.67 347.78 C242 347.78, 127.32 347.78, 0 347.78 M0 347.78 C0 222.36, 0 96.95, 0 0 M0 347.78 C0 228.59, 0 109.4, 0 0" stroke="#000000" stroke-width="1" fill="none"></path></g><g transform="translate(105.87794587347435 27.154092603181198) rotate(0 82.14285714285711 14.668367346938737)"><text x="82.14285714285708" y="20.336734693877528" font-family="Virgil, Segoe UI Emoji" font-size="23.46938775510202px" fill="#000000" text-anchor="middle" style="white-space: pre;" direction="ltr">Let's practice</text></g><g transform="translate(117.4488086027959 65.83584403168743) rotate(0 22 18)"><text x="22" y="26" font-family="Virgil, Segoe UI Emoji" font-size="28px" fill="#000000" text-anchor="middle" style="white-space: pre;" direction="rtl">ناپ</text></g><g transform="translate(211.56053134670447 71.20778218808846) rotate(0 6 15)"><text x="6" y="21" font-family="Virgil, Segoe UI Emoji" font-size="23.433516823172702px" fill="#000" text-anchor="middle" style="white-space: pre;" direction="ltr">?</text></g><g transform="translate(111.54322246559968 120.11777404388704) rotate(0 24.952380952380963 18.714285714285722)"><text x="24.952380952380963" y="26.428571428571445" font-family="Virgil, Segoe UI Emoji" font-size="29.111111111111125px" fill="#000000" text-anchor="middle" style="white-space: pre;" direction="rtl">پانی</text></g><g transform="translate(217.7978522704484 124.75541808273647) rotate(0 6 15.5)"><text x="6" y="22" font-family="Virgil, Segoe UI Emoji" font-size="24.363418284409725px" fill="#000000" text-anchor="middle" style="white-space: pre;" direction="ltr">?</text></g><g transform="translate(109.13079879704583 169.0735042582205) rotate(0 22.883494777404394 18.72285936333094)"><text x="22.88349477740445" y="26.44571872666183" font-family="Virgil, Segoe UI Emoji" font-size="29.12444789851476px" fill="#000000" text-anchor="middle" style="white-space: pre;" direction="rtl">باپ</text></g><g transform="translate(219.45018354644753 174.8642947920937) rotate(0 6 15.5)"><text x="6" y="22" font-family="Virgil, Segoe UI Emoji" font-size="24.37457999269509px" fill="#000000" text-anchor="middle" style="white-space: pre;" direction="ltr">?</text></g><g transform="translate(111.92806378450314 306.0651638109762) rotate(0 27 18)"><text x="27" y="26" font-family="Virgil, Segoe UI Emoji" font-size="28px" fill="#000000" text-anchor="middle" style="white-space: pre;" direction="rtl">شین</text></g><g transform="translate(216.3774209159119 312.70319167134085) rotate(0 6 15)"><text x="6" y="21" font-family="Virgil, Segoe UI Emoji" font-size="23.433516823172702px" fill="#000000" text-anchor="middle" style="white-space: pre;" direction="ltr">?</text></g><g transform="translate(114.448808602795 259.81328884572804) rotate(0 25 18)"><text x="25" y="26" font-family="Virgil, Segoe UI Emoji" font-size="28px" fill="#000000" text-anchor="middle" style="white-space: pre;" direction="rtl">سپنا</text></g><g transform="translate(220.02263464396083 264.40410977469037) rotate(0 6 15)"><text x="6" y="21" font-family="Virgil, Segoe UI Emoji" font-size="23.433516823172702px" fill="#000000" text-anchor="middle" style="white-space: pre;" direction="ltr">?</text></g><g transform="translate(106.75067064852738 216.4612827228584) rotate(0 34 18)"><text x="34" y="26" font-family="Virgil, Segoe UI Emoji" font-size="28px" fill="#000000" text-anchor="middle" style="white-space: pre;" direction="rtl">سانپ</text></g><g transform="translate(221.19431048512024 222.48415190212586) rotate(0 6 15)"><text x="6" y="21" font-family="Virgil, Segoe UI Emoji" font-size="23.433516823172702px" fill="#000000" text-anchor="middle" style="white-space: pre;" direction="ltr">?</text></g></svg>