<svg version="1.1" xmlns="http://www.w3.org/2000/svg" viewBox="0 0 376.6666666666665 367.7777777777776" width="376.6666666666665" height="367.7777777777776">
  <!-- svg-source:excalidraw -->
  
  <defs>
    <style>
      @font-face {
        font-family: "Virgil";
        src: url("https://excalidraw.com/Virgil.woff2");
      }
      @font-face {
        font-family: "Cascadia";
        src: url("https://excalidraw.com/Cascadia.woff2");
      }
    </style>
  </defs>
  <rect x="0" y="0" width="376.6666666666665" height="367.7777777777776" fill="#ffffff"></rect><g stroke-linecap="round" transform="translate(10.000000000000227 10) rotate(0 178.33333333333326 173.8888888888888)"><path d="M0 0 C0 0, 0 0, 0 0 M0 0 C0 0, 0 0, 0 0 M-0.26 6.4 C1.72 4.12, 3.7 1.84, 4.99 0.36 M-0.26 6.4 C1.11 4.82, 2.49 3.23, 4.99 0.36 M0.13 12.04 C3.54 8.12, 6.95 4.2, 10.63 -0.03 M0.13 12.04 C3.59 8.06, 7.05 4.09, 10.63 -0.03 M-0.13 18.44 C3.46 14.31, 7.05 10.18, 15.62 0.33 M-0.13 18.44 C5.97 11.42, 12.07 4.41, 15.62 0.33 M0.27 24.08 C7.71 15.51, 15.16 6.95, 21.26 -0.07 M0.27 24.08 C5.99 17.5, 11.71 10.92, 21.26 -0.07 M0 30.48 C6.09 23.47, 12.18 16.47, 26.25 0.29 M0 30.48 C7.57 21.77, 15.14 13.06, 26.25 0.29 M-0.26 36.88 C8.4 26.91, 17.06 16.95, 31.89 -0.1 M-0.26 36.88 C7.21 28.29, 14.67 19.7, 31.89 -0.1 M0.14 42.52 C10.45 30.66, 20.76 18.8, 36.88 0.26 M0.14 42.52 C12.03 28.84, 23.92 15.17, 36.88 0.26 M-0.12 48.92 C12.9 33.93, 25.93 18.95, 42.52 -0.14 M-0.12 48.92 C9.8 37.5, 19.73 26.08, 42.52 -0.14 M0.27 54.56 C15.95 36.53, 31.62 18.5, 47.51 0.22 M0.27 54.56 C10.11 43.24, 19.96 31.92, 47.51 0.22 M0.01 60.96 C16.87 41.56, 33.73 22.16, 53.15 -0.17 M0.01 60.96 C16.27 42.25, 32.54 23.54, 53.15 -0.17 M-0.25 67.36 C17.92 46.46, 36.09 25.55, 58.14 0.19 M-0.25 67.36 C18.21 46.12, 36.67 24.88, 58.14 0.19 M0.14 73 C17.73 52.77, 35.31 32.54, 63.78 -0.21 M0.14 73 C25.1 44.29, 50.05 15.58, 63.78 -0.21 M-0.12 79.4 C14.42 62.67, 28.97 45.94, 68.77 0.15 M-0.12 79.4 C25.95 49.41, 52.01 19.43, 68.77 0.15 M0.28 85.04 C27.79 53.38, 55.31 21.73, 74.41 -0.24 M0.28 85.04 C17.97 64.69, 35.66 44.34, 74.41 -0.24 M0.01 91.44 C31.09 55.69, 62.16 19.95, 79.4 0.12 M0.01 91.44 C30.5 56.37, 60.98 21.31, 79.4 0.12 M-0.25 97.84 C26 67.65, 52.24 37.45, 85.04 -0.28 M-0.25 97.84 C25.43 68.3, 51.1 38.77, 85.04 -0.28 M0.15 103.48 C25.22 74.63, 50.3 45.79, 90.03 0.08 M0.15 103.48 C25.31 74.54, 50.46 45.6, 90.03 0.08 M-0.11 109.88 C19.9 86.85, 39.92 63.83, 95.67 -0.31 M-0.11 109.88 C23.12 83.15, 46.36 56.42, 95.67 -0.31 M0.28 115.52 C27.18 84.58, 54.08 53.63, 100.66 0.05 M0.28 115.52 C27.47 84.24, 54.66 52.97, 100.66 0.05 M0.02 121.92 C33.51 83.39, 67 44.87, 106.3 -0.34 M0.02 121.92 C24.94 93.25, 49.86 64.58, 106.3 -0.34 M-0.24 128.32 C24.26 100.13, 48.76 71.94, 111.29 0.02 M-0.24 128.32 C35.38 87.34, 71 46.36, 111.29 0.02 M0.15 133.96 C33.08 96.08, 66 58.21, 116.27 0.38 M0.15 133.96 C29.84 99.81, 59.53 65.66, 116.27 0.38 M-0.11 140.36 C44.14 89.46, 88.38 38.56, 121.92 -0.02 M-0.11 140.36 C29.89 105.85, 59.88 71.35, 121.92 -0.02 M0.29 146 C36.86 103.92, 73.44 61.85, 126.91 0.34 M0.29 146 C50.02 88.78, 99.76 31.57, 126.91 0.34 M0.02 152.4 C52.02 92.58, 104.02 32.76, 132.55 -0.05 M0.02 152.4 C30.28 117.6, 60.53 82.8, 132.55 -0.05 M-0.24 158.8 C44.25 107.62, 88.73 56.45, 137.54 0.31 M-0.24 158.8 C46.68 104.83, 93.59 50.86, 137.54 0.31 M0.16 164.44 C53.35 103.25, 106.53 42.07, 143.18 -0.09 M0.16 164.44 C43.46 114.63, 86.75 64.82, 143.18 -0.09 M-0.1 170.84 C43.56 120.61, 87.22 70.38, 148.17 0.27 M-0.1 170.84 C44.55 119.47, 89.2 68.11, 148.17 0.27 M0.29 176.48 C35.79 135.65, 71.28 94.81, 153.81 -0.12 M0.29 176.48 C40.67 130.03, 81.04 83.59, 153.81 -0.12 M0.03 182.88 C52.4 122.63, 104.78 62.38, 158.8 0.24 M0.03 182.88 C45.26 130.85, 90.48 78.82, 158.8 0.24 M-0.23 189.27 C43.83 138.59, 87.89 87.9, 164.44 -0.16 M-0.23 189.27 C59.15 120.96, 118.54 52.64, 164.44 -0.16 M0.16 194.92 C46.27 141.88, 92.37 88.84, 169.43 0.2 M0.16 194.92 C35.65 154.09, 71.15 113.26, 169.43 0.2 M-0.1 201.32 C42.89 151.87, 85.87 102.41, 175.07 -0.19 M-0.1 201.32 C35.82 160, 71.73 118.68, 175.07 -0.19 M0.3 206.96 C69.06 127.86, 137.82 48.76, 180.06 0.17 M0.3 206.96 C36.5 165.31, 72.71 123.66, 180.06 0.17 M0.03 213.36 C55.05 150.07, 110.06 86.78, 185.7 -0.23 M0.03 213.36 C48.94 157.1, 97.85 100.83, 185.7 -0.23 M-0.23 219.75 C45.21 167.49, 90.64 115.22, 190.69 0.13 M-0.23 219.75 C55.83 155.26, 111.89 90.77, 190.69 0.13 M0.17 225.4 C43.15 175.95, 86.13 126.51, 196.33 -0.26 M0.17 225.4 C70.94 143.98, 141.72 62.56, 196.33 -0.26 M-0.09 231.8 C46.97 177.65, 94.04 123.51, 201.32 0.1 M-0.09 231.8 C65.93 155.84, 131.96 79.88, 201.32 0.1 M0.3 237.44 C78.79 147.15, 157.28 56.86, 206.96 -0.3 M0.3 237.44 C78.84 147.09, 157.38 56.74, 206.96 -0.3 M0.04 243.84 C59.73 175.17, 119.43 106.5, 211.95 0.06 M0.04 243.84 C53.7 182.11, 107.35 120.39, 211.95 0.06 M-0.22 250.23 C45.85 197.23, 91.93 144.22, 217.59 -0.33 M-0.22 250.23 C78.57 159.59, 157.37 68.95, 217.59 -0.33 M0.17 255.88 C69.41 176.23, 138.65 96.58, 222.58 0.03 M0.17 255.88 C50.62 197.84, 101.07 139.81, 222.58 0.03 M-0.09 262.27 C71.76 179.62, 143.61 96.97, 228.22 -0.36 M-0.09 262.27 C46.59 208.58, 93.26 154.89, 228.22 -0.36 M0.3 267.92 C86.24 169.06, 172.18 70.2, 233.21 0 M0.3 267.92 C73.34 183.9, 146.37 99.89, 233.21 0 M0.04 274.32 C85.03 176.55, 170.01 78.79, 238.19 0.36 M0.04 274.32 C86.81 174.5, 173.58 74.68, 238.19 0.36 M-0.22 280.71 C77.48 191.34, 155.17 101.96, 243.84 -0.04 M-0.22 280.71 C94.01 172.31, 188.24 63.91, 243.84 -0.04 M0.18 286.36 C92.85 179.75, 185.52 73.14, 248.82 0.32 M0.18 286.36 C88.59 184.65, 177 82.94, 248.82 0.32 M-0.08 292.75 C86.53 193.12, 173.14 93.48, 254.47 -0.07 M-0.08 292.75 C57.17 226.89, 114.43 161.02, 254.47 -0.07 M0.31 298.4 C68.78 219.63, 137.25 140.86, 259.45 0.29 M0.31 298.4 C65.1 223.87, 129.89 149.34, 259.45 0.29 M0.05 304.8 C61.73 233.84, 123.41 162.89, 265.1 -0.11 M0.05 304.8 C57.92 238.22, 115.8 171.64, 265.1 -0.11 M-0.21 311.19 C81.01 217.76, 162.23 124.32, 270.08 0.25 M-0.21 311.19 C101.79 193.85, 203.79 76.51, 270.08 0.25 M0.18 316.84 C85.86 218.28, 171.54 119.71, 275.73 -0.14 M0.18 316.84 C72.51 233.63, 144.83 150.43, 275.73 -0.14 M-0.08 323.23 C61.09 252.87, 122.26 182.5, 280.71 0.22 M-0.08 323.23 C63.15 250.49, 126.39 177.75, 280.71 0.22 M0.31 328.88 C88.22 227.75, 176.13 126.62, 286.36 -0.18 M0.31 328.88 C75.05 242.91, 149.78 156.94, 286.36 -0.18 M0.05 335.27 C93.19 228.13, 186.33 120.99, 291.34 0.18 M0.05 335.27 C98.74 221.74, 197.43 108.21, 291.34 0.18 M-0.21 341.67 C80.47 248.86, 161.15 156.05, 296.99 -0.21 M-0.21 341.67 C67.08 264.26, 134.38 186.85, 296.99 -0.21 M0.19 347.32 C113.92 216.47, 227.66 85.63, 301.97 0.15 M0.19 347.32 C66.99 270.47, 133.79 193.63, 301.97 0.15 M3.21 349.94 C85.44 255.34, 167.67 160.74, 307.62 -0.25 M3.21 349.94 C118.13 217.73, 233.05 85.53, 307.62 -0.25 M8.19 350.3 C107.77 235.74, 207.35 121.19, 312.6 0.11 M8.19 350.3 C79.36 268.43, 150.53 186.56, 312.6 0.11 M13.18 350.66 C100.82 249.84, 188.47 149.02, 318.25 -0.28 M13.18 350.66 C86.99 265.75, 160.8 180.84, 318.25 -0.28 M18.82 350.27 C133.14 218.76, 247.45 87.26, 323.23 0.08 M18.82 350.27 C108.6 246.99, 198.37 143.72, 323.23 0.08 M23.81 350.63 C122.67 236.9, 221.54 123.17, 328.88 -0.31 M23.81 350.63 C132.06 226.09, 240.32 101.56, 328.88 -0.31 M29.45 350.23 C119.05 247.16, 208.65 144.09, 333.86 0.05 M29.45 350.23 C145.52 216.71, 261.59 83.18, 333.86 0.05 M34.44 350.59 C125.6 245.73, 216.76 140.86, 339.51 -0.35 M34.44 350.59 C144.03 224.52, 253.63 98.44, 339.51 -0.35 M40.08 350.2 C138.4 237.1, 236.71 124, 344.49 0.01 M40.08 350.2 C109.29 270.59, 178.49 190.98, 344.49 0.01 M45.07 350.56 C150.71 229.03, 256.36 107.5, 349.48 0.37 M45.07 350.56 C138.2 243.42, 231.33 136.29, 349.48 0.37 M50.71 350.16 C132.3 256.3, 213.9 162.44, 355.12 -0.02 M50.71 350.16 C119.28 271.28, 187.85 192.4, 355.12 -0.02 M55.7 350.52 C153.14 238.43, 250.58 126.34, 358.8 1.85 M55.7 350.52 C162.85 227.26, 270 103.99, 358.8 1.85 M61.34 350.13 C121.78 280.6, 182.21 211.08, 358.54 8.24 M61.34 350.13 C157.95 238.99, 254.56 127.86, 358.54 8.24 M66.33 350.49 C151.77 252.2, 237.21 153.92, 358.93 13.89 M66.33 350.49 C144.88 260.13, 223.43 169.77, 358.93 13.89 M71.97 350.09 C178.03 228.09, 284.08 106.09, 358.67 20.28 M71.97 350.09 C167.9 239.74, 263.84 129.38, 358.67 20.28 M76.96 350.45 C146.27 270.72, 215.59 190.98, 359.07 25.93 M76.96 350.45 C168.63 245, 260.31 139.54, 359.07 25.93 M82.6 350.06 C158.8 262.4, 235.01 174.74, 358.8 32.33 M82.6 350.06 C143.24 280.3, 203.88 210.55, 358.8 32.33 M87.59 350.42 C192.41 229.84, 297.23 109.26, 358.54 38.72 M87.59 350.42 C143.16 286.49, 198.74 222.56, 358.54 38.72 M93.23 350.02 C198.63 228.78, 304.02 107.54, 358.94 44.37 M93.23 350.02 C147.25 287.88, 201.27 225.74, 358.94 44.37 M98.22 350.38 C159.93 279.4, 221.64 208.41, 358.68 50.76 M98.22 350.38 C176.03 260.87, 253.85 171.35, 358.68 50.76 M103.86 349.99 C173.98 269.33, 244.1 188.66, 359.07 56.41 M103.86 349.99 C172.06 271.54, 240.25 193.1, 359.07 56.41 M108.85 350.35 C192.47 254.15, 276.1 157.95, 358.81 62.81 M108.85 350.35 C159.74 291.8, 210.64 233.26, 358.81 62.81 M114.49 349.95 C168.17 288.21, 221.84 226.46, 358.55 69.2 M114.49 349.95 C175.58 279.68, 236.67 209.41, 358.55 69.2 M119.48 350.31 C199.84 257.87, 280.19 165.43, 358.94 74.85 M119.48 350.31 C173.39 288.3, 227.3 226.28, 358.94 74.85 M125.12 349.92 C173.96 293.74, 222.8 237.55, 358.68 81.24 M125.12 349.92 C206.75 256.01, 288.38 162.11, 358.68 81.24 M130.11 350.28 C201.78 267.83, 273.45 185.39, 359.07 86.89 M130.11 350.28 C193.45 277.42, 256.79 204.55, 359.07 86.89 M135.1 350.64 C221.55 251.19, 308 151.74, 358.81 93.28 M135.1 350.64 C184.21 294.14, 233.32 237.64, 358.81 93.28 M140.74 350.25 C196.74 285.83, 252.73 221.42, 358.55 99.68 M140.74 350.25 C223.34 255.22, 305.95 160.2, 358.55 99.68 M145.73 350.61 C223.16 261.53, 300.59 172.45, 358.95 105.33 M145.73 350.61 C203.92 283.67, 262.1 216.73, 358.95 105.33 M151.37 350.21 C229.15 260.74, 306.93 171.26, 358.69 111.72 M151.37 350.21 C226.4 263.91, 301.42 177.6, 358.69 111.72 M156.36 350.57 C220.79 276.46, 285.21 202.34, 359.08 117.37 M156.36 350.57 C233.38 261.97, 310.41 173.36, 359.08 117.37 M162 350.18 C239.13 261.45, 316.25 172.73, 358.82 123.76 M162 350.18 C233.11 268.37, 304.23 186.57, 358.82 123.76 M166.99 350.54 C223.7 285.29, 280.42 220.05, 358.56 130.16 M166.99 350.54 C237.64 269.26, 308.3 187.98, 358.56 130.16 M172.63 350.14 C219.02 296.78, 265.4 243.42, 358.95 135.8 M172.63 350.14 C232.64 281.11, 292.65 212.08, 358.95 135.8 M177.62 350.5 C233.89 285.77, 290.17 221.03, 358.69 142.2 M177.62 350.5 C236.55 282.7, 295.49 214.9, 358.69 142.2 M183.26 350.11 C219.37 308.57, 255.48 267.03, 359.08 147.85 M183.26 350.11 C235.4 290.13, 287.53 230.16, 359.08 147.85 M188.25 350.47 C229.53 302.98, 270.81 255.49, 358.82 154.24 M188.25 350.47 C238.35 292.83, 288.45 235.2, 358.82 154.24 M193.89 350.07 C249.43 286.18, 304.98 222.29, 358.56 160.64 M193.89 350.07 C250.68 284.75, 307.47 219.42, 358.56 160.64 M198.88 350.43 C252.83 288.37, 306.77 226.31, 358.96 166.28 M198.88 350.43 C258.92 281.36, 318.97 212.28, 358.96 166.28 M204.52 350.04 C241.22 307.82, 277.92 265.61, 358.69 172.68 M204.52 350.04 C240.76 308.35, 277.01 266.65, 358.69 172.68 M209.51 350.4 C255.91 297.02, 302.3 243.65, 359.09 178.33 M209.51 350.4 C243.77 310.99, 278.03 271.58, 359.09 178.33 M215.15 350 C260.86 297.43, 306.56 244.85, 358.83 184.72 M215.15 350 C264.43 293.32, 313.7 236.63, 358.83 184.72 M220.14 350.36 C253.8 311.64, 287.46 272.92, 358.57 191.12 M220.14 350.36 C271.73 291.01, 323.33 231.65, 358.57 191.12 M225.78 349.97 C266.44 303.2, 307.09 256.43, 358.96 196.76 M225.78 349.97 C272.68 296.02, 319.58 242.06, 358.96 196.76 M230.77 350.33 C267.2 308.42, 303.63 266.52, 358.7 203.16 M230.77 350.33 C266.74 308.94, 302.72 267.56, 358.7 203.16 M236.41 349.94 C278.66 301.34, 320.9 252.74, 359.09 208.8 M236.41 349.94 C279.85 299.96, 323.29 249.99, 359.09 208.8 M241.4 350.3 C282.61 302.89, 323.82 255.48, 358.83 215.2 M241.4 350.3 C275.14 311.48, 308.88 272.66, 358.83 215.2 M246.39 350.66 C279.76 312.26, 313.13 273.87, 358.57 221.6 M246.39 350.66 C285.42 305.75, 324.46 260.84, 358.57 221.6 M252.03 350.26 C276.08 322.59, 300.13 294.93, 358.97 227.24 M252.03 350.26 C282.15 315.61, 312.28 280.95, 358.97 227.24 M257.02 350.62 C281.82 322.09, 306.63 293.55, 358.7 233.64 M257.02 350.62 C291.68 310.74, 326.35 270.86, 358.7 233.64 M262.66 350.23 C287.45 321.71, 312.23 293.2, 359.1 239.28 M262.66 350.23 C283.18 326.62, 303.71 303, 359.1 239.28 M267.65 350.59 C302.31 310.71, 336.98 270.83, 358.84 245.68 M267.65 350.59 C290.24 324.6, 312.83 298.61, 358.84 245.68 M273.29 350.19 C295.87 324.21, 318.46 298.23, 358.58 252.08 M273.29 350.19 C306.29 312.23, 339.29 274.26, 358.58 252.08 M278.28 350.55 C304.08 320.87, 329.89 291.18, 358.97 257.72 M278.28 350.55 C309.84 314.24, 341.4 277.94, 358.97 257.72 M283.92 350.16 C301.35 330.11, 318.78 310.05, 358.71 264.12 M283.92 350.16 C311.46 318.48, 338.99 286.8, 358.71 264.12 M288.91 350.52 C316.54 318.73, 344.18 286.93, 359.1 269.76 M288.91 350.52 C303.06 334.24, 317.21 317.96, 359.1 269.76 M294.55 350.12 C308.29 334.32, 322.02 318.52, 358.84 276.16 M294.55 350.12 C312.45 329.53, 330.35 308.94, 358.84 276.16 M299.54 350.48 C320.19 326.72, 340.85 302.96, 358.58 282.56 M299.54 350.48 C318.28 328.92, 337.02 307.36, 358.58 282.56 M305.18 350.09 C317.32 336.12, 329.47 322.14, 358.98 288.2 M305.18 350.09 C321.17 331.69, 337.17 313.29, 358.98 288.2 M310.17 350.45 C322.47 336.29, 334.78 322.13, 358.71 294.6 M310.17 350.45 C323.99 334.54, 337.82 318.64, 358.71 294.6 M315.81 350.05 C331.21 332.34, 346.61 314.62, 359.11 300.24 M315.81 350.05 C331.51 332, 347.2 313.94, 359.11 300.24 M320.8 350.41 C335.52 333.47, 350.25 316.53, 358.85 306.64 M320.8 350.41 C330.6 339.14, 340.39 327.87, 358.85 306.64 M326.44 350.02 C334.69 340.52, 342.95 331.03, 358.59 313.04 M326.44 350.02 C335.09 340.06, 343.75 330.11, 358.59 313.04 M331.43 350.38 C341.07 339.28, 350.72 328.19, 358.98 318.68 M331.43 350.38 C339.62 340.95, 347.82 331.52, 358.98 318.68 M337.07 349.99 C342.48 343.76, 347.89 337.54, 358.72 325.08 M337.07 349.99 C345.09 340.75, 353.12 331.52, 358.72 325.08 M342.06 350.35 C348.18 343.29, 354.31 336.24, 359.11 330.72 M342.06 350.35 C346.73 344.97, 351.41 339.59, 359.11 330.72 M347.7 349.95 C350.18 347.09, 352.67 344.23, 358.85 337.12 M347.7 349.95 C350.8 346.39, 353.9 342.82, 358.85 337.12 M352.69 350.31 C354.75 347.94, 356.8 345.57, 358.59 343.52 M352.69 350.31 C354.84 347.83, 356.99 345.35, 358.59 343.52" stroke="#fff" stroke-width="0.5" fill="none"></path><path d="M0 0 C116.63 0, 233.25 0, 356.67 0 M0 0 C133.43 0, 266.86 0, 356.67 0 M356.67 0 C356.67 107.48, 356.67 214.97, 356.67 347.78 M356.67 0 C356.67 103.63, 356.67 207.27, 356.67 347.78 M356.67 347.78 C265.81 347.78, 174.94 347.78, 0 347.78 M356.67 347.78 C272.89 347.78, 189.1 347.78, 0 347.78 M0 347.78 C0 223.71, 0 99.65, 0 0 M0 347.78 C0 273.66, 0 199.54, 0 0" stroke="#000000" stroke-width="1" fill="none"></path></g><g transform="translate(143.02080301633123 27.154092603181198) rotate(0 45 15)"><text x="45" y="21" font-family="Virgil, Segoe UI Emoji" font-size="23.46938775510202px" fill="#000000" text-anchor="middle" style="white-space: pre;" direction="ltr">Answers</text></g><g transform="translate(117.44880860279568 65.83584403168743) rotate(0 22 18)"><text x="22" y="26" font-family="Virgil, Segoe UI Emoji" font-size="28px" fill="#000000" text-anchor="middle" style="white-space: pre;" direction="rtl">ناپ</text></g><g transform="translate(188.2686353177387 71.20778218808869) rotate(0 29.29189602896588 14.64594801448294)"><text x="29.291896028965876" y="20.291896028965876" font-family="Virgil, Segoe UI Emoji" font-size="23.433516823172702px" fill="#000" text-anchor="middle" style="white-space: pre;" direction="ltr">Naap</text></g><g transform="translate(111.54322246559991 120.11777404388704) rotate(0 24.952380952380963 18.714285714285722)"><text x="24.952380952380963" y="26.428571428571445" font-family="Virgil, Segoe UI Emoji" font-size="29.111111111111125px" fill="#000000" text-anchor="middle" style="white-space: pre;" direction="rtl">پانی</text></g><g transform="translate(198.825348528929 124.75541808273647) rotate(0 24.972503741519972 15.22713642775608)"><text x="24.972503741519972" y="21.454272855512155" font-family="Virgil, Segoe UI Emoji" font-size="24.363418284409725px" fill="#000000" text-anchor="middle" style="white-space: pre;" direction="ltr">Pani</text></g><g transform="translate(109.13079879704605 169.07350425822062) rotate(0 22.883494777404508 18.72285936333094)"><text x="22.88349477740445" y="26.44571872666183" font-family="Virgil, Segoe UI Emoji" font-size="29.12444789851476px" fill="#000000" text-anchor="middle" style="white-space: pre;" direction="rtl">باپ</text></g><g transform="translate(193.7632295559447 174.8642947920938) rotate(0 31.68695399050364 15.234112495434431)"><text x="31.68695399050361" y="21.46822499086886" font-family="Virgil, Segoe UI Emoji" font-size="24.37457999269509px" fill="#000000" text-anchor="middle" style="white-space: pre;" direction="ltr">Baap</text></g><g transform="translate(111.92806378450291 306.0651638109762) rotate(0 27 18)"><text x="27" y="26" font-family="Virgil, Segoe UI Emoji" font-size="28px" fill="#000000" text-anchor="middle" style="white-space: pre;" direction="rtl">شین</text></g><g transform="translate(190.74217320462913 312.70319167134096) rotate(0 31.635247711283114 14.64594801448294)"><text x="31.635247711283146" y="20.291896028965876" font-family="Virgil, Segoe UI Emoji" font-size="23.433516823172702px" fill="#000000" text-anchor="middle" style="white-space: pre;" direction="ltr">Sheen</text></g><g transform="translate(114.44880860279545 259.81328884572827) rotate(0 25 18)"><text x="25" y="26" font-family="Virgil, Segoe UI Emoji" font-size="28px" fill="#000000" text-anchor="middle" style="white-space: pre;" direction="rtl">سپنا</text></g><g transform="translate(191.45819732978134 264.4041097746906) rotate(0 34.56443731417971 14.64594801448294)"><text x="34.564437314179735" y="20.291896028965876" font-family="Virgil, Segoe UI Emoji" font-size="23.433516823172702px" fill="#000000" text-anchor="middle" style="white-space: pre;" direction="ltr">Sapna</text></g><g transform="translate(106.75067064852715 216.46128272285864) rotate(0 34 18)"><text x="34" y="26" font-family="Virgil, Segoe UI Emoji" font-size="28px" fill="#000000" text-anchor="middle" style="white-space: pre;" direction="rtl">سانپ</text></g><g transform="translate(192.62987317094007 222.48415190212597) rotate(0 34.56443731417971 14.64594801448294)"><text x="34.564437314179735" y="20.291896028965876" font-family="Virgil, Segoe UI Emoji" font-size="23.433516823172702px" fill="#000000" text-anchor="middle" style="white-space: pre;" direction="ltr">Snaap</text></g></svg>