<svg version="1.1" xmlns="http://www.w3.org/2000/svg" viewBox="0 0 383.4035357465184 374.3467498089103" width="383.4035357465184" height="374.3467498089103">
  <!-- svg-source:excalidraw -->
  
  <defs>
    <style>
      @font-face {
        font-family: "Virgil";
        src: url("https://excalidraw.com/Virgil.woff2");
      }
      @font-face {
        font-family: "Cascadia";
        src: url("https://excalidraw.com/Cascadia.woff2");
      }
    </style>
  </defs>
  <rect x="0" y="0" width="383.4035357465184" height="374.3467498089103" fill="#ffffff"></rect><g stroke-linecap="round"><g transform="translate(10 120.02567941177085) rotate(0 180 0)"><path d="M0 0 C60 0, 300 0, 360 0" stroke="#343a40" stroke-width="1.5" fill="none" stroke-dasharray="1.5 7"></path></g></g><g stroke-linecap="round"><g transform="translate(10 180.02567941177085) rotate(0 180 0)"><path d="M0 0 C60 0, 300 0, 360 0" stroke="#343a40" stroke-width="1.5" fill="none" stroke-dasharray="1.5 7"></path></g></g><g stroke-linecap="round"><g transform="translate(10 220.02567941177085) rotate(0 180 0)"><path d="M0 0 C60 0, 300 0, 360 0" stroke="#343a40" stroke-width="1.5" fill="none" stroke-dasharray="1.5 7"></path></g></g><g stroke-linecap="round"><g transform="translate(10 260.02567941177085) rotate(0 180 0)"><path d="M0 0 C60 0, 300 0, 360 0" stroke="#343a40" stroke-width="1.5" fill="none" stroke-dasharray="1.5 7"></path></g></g><g stroke-linecap="round"><g transform="translate(10 300.02567941177085) rotate(0 180 0)"><path d="M0 0 C60 0, 300 0, 360 0" stroke="#343a40" stroke-width="1.5" fill="none" stroke-dasharray="1.5 7"></path></g></g><g stroke-linecap="round" transform="translate(10 10) rotate(0 181.7017678732592 177.17337490445516)"><path d="M0 0 C0 0, 0 0, 0 0 M0 0 C0 0, 0 0, 0 0 M-0.26 6.4 C1.72 4.12, 3.69 1.85, 4.99 0.36 M-0.26 6.4 C1.03 4.91, 2.32 3.43, 4.99 0.36 M0.13 12.04 C4.25 7.3, 8.38 2.56, 10.63 -0.03 M0.13 12.04 C3.82 7.8, 7.51 3.56, 10.63 -0.03 M-0.13 18.44 C3.08 14.75, 6.29 11.05, 15.62 0.33 M-0.13 18.44 C3.21 14.6, 6.55 10.75, 15.62 0.33 M0.27 24.08 C4.77 18.9, 9.27 13.73, 21.26 -0.07 M0.27 24.08 C5.96 17.53, 11.66 10.97, 21.26 -0.07 M0 30.48 C7.01 22.42, 14.01 14.37, 26.25 0.29 M0 30.48 C9.72 19.3, 19.44 8.12, 26.25 0.29 M-0.26 36.88 C11.54 23.31, 23.34 9.74, 31.89 -0.1 M-0.26 36.88 C6.96 28.57, 14.19 20.26, 31.89 -0.1 M0.14 42.52 C7.81 33.7, 15.48 24.87, 36.88 0.26 M0.14 42.52 C11.13 29.87, 22.12 17.23, 36.88 0.26 M-0.12 48.92 C12.66 34.21, 25.44 19.51, 42.52 -0.14 M-0.12 48.92 C11.96 35.02, 24.04 21.13, 42.52 -0.14 M0.27 54.56 C13.75 39.05, 27.24 23.54, 47.51 0.22 M0.27 54.56 C17.52 34.72, 34.76 14.88, 47.51 0.22 M0.01 60.96 C14.61 44.16, 29.21 27.37, 53.15 -0.17 M0.01 60.96 C16.34 42.17, 32.67 23.39, 53.15 -0.17 M-0.25 67.36 C21.05 42.85, 42.36 18.34, 58.14 0.19 M-0.25 67.36 C18.53 45.75, 37.31 24.14, 58.14 0.19 M0.14 73 C23.45 46.19, 46.76 19.37, 63.78 -0.21 M0.14 73 C22.05 47.8, 43.95 22.6, 63.78 -0.21 M-0.12 79.4 C22.46 53.42, 45.04 27.45, 68.77 0.15 M-0.12 79.4 C21.25 54.82, 42.61 30.24, 68.77 0.15 M0.28 85.04 C19.65 62.75, 39.02 40.47, 74.41 -0.24 M0.28 85.04 C17.25 65.51, 34.22 45.99, 74.41 -0.24 M0.01 91.44 C21.23 67.03, 42.45 42.62, 79.4 0.12 M0.01 91.44 C20.6 67.76, 41.18 44.09, 79.4 0.12 M-0.25 97.84 C21.87 72.4, 43.98 46.96, 85.04 -0.28 M-0.25 97.84 C32.5 60.16, 65.25 22.49, 85.04 -0.28 M0.15 103.48 C26.14 73.58, 52.13 43.68, 90.03 0.08 M0.15 103.48 C25.78 73.99, 51.41 44.5, 90.03 0.08 M-0.11 109.88 C25.95 79.9, 52.01 49.92, 95.67 -0.31 M-0.11 109.88 C20.89 85.72, 41.89 61.56, 95.67 -0.31 M0.28 115.52 C31.55 79.55, 62.81 43.59, 100.66 0.05 M0.28 115.52 C29.56 81.84, 58.83 48.16, 100.66 0.05 M0.02 121.92 C23.84 94.52, 47.65 67.12, 106.3 -0.34 M0.02 121.92 C35.33 81.3, 70.64 40.68, 106.3 -0.34 M-0.24 128.32 C29.3 94.33, 58.85 60.34, 111.29 0.02 M-0.24 128.32 C41.01 80.86, 82.26 33.4, 111.29 0.02 M0.15 133.96 C29.45 100.26, 58.74 66.56, 116.27 0.38 M0.15 133.96 C35.9 92.83, 71.65 51.71, 116.27 0.38 M-0.11 140.36 C35.6 99.27, 71.32 58.19, 121.92 -0.02 M-0.11 140.36 C48.53 84.41, 97.16 28.46, 121.92 -0.02 M0.29 146 C39.03 101.43, 77.77 56.86, 126.91 0.34 M0.29 146 C40.63 99.59, 80.97 53.18, 126.91 0.34 M0.02 152.4 C46.46 98.98, 92.89 45.57, 132.55 -0.05 M0.02 152.4 C32.35 115.21, 64.67 78.03, 132.55 -0.05 M-0.24 158.8 C47.6 103.77, 95.43 48.74, 137.54 0.31 M-0.24 158.8 C44.47 107.37, 89.17 55.94, 137.54 0.31 M0.16 164.44 C29.65 130.51, 59.14 96.59, 143.18 -0.09 M0.16 164.44 C51.59 105.27, 103.03 46.1, 143.18 -0.09 M-0.1 170.84 C51.84 111.09, 103.78 51.34, 148.17 0.27 M-0.1 170.84 C40.36 124.29, 80.82 77.75, 148.17 0.27 M0.29 176.48 C37.26 133.95, 74.23 91.43, 153.81 -0.12 M0.29 176.48 C59.7 108.14, 119.1 39.8, 153.81 -0.12 M0.03 182.88 C48.01 127.68, 95.99 72.48, 158.8 0.24 M0.03 182.88 C47.47 128.3, 94.91 73.73, 158.8 0.24 M-0.23 189.27 C40.5 142.42, 81.24 95.56, 164.44 -0.16 M-0.23 189.27 C58.16 122.1, 116.55 54.93, 164.44 -0.16 M0.16 194.92 C34.41 155.52, 68.66 116.12, 169.43 0.2 M0.16 194.92 C55.12 131.69, 110.08 68.47, 169.43 0.2 M-0.1 201.32 C40.46 154.66, 81.02 108, 175.07 -0.19 M-0.1 201.32 C48.73 145.15, 97.55 88.98, 175.07 -0.19 M0.3 206.96 C47.5 152.65, 94.71 98.35, 180.06 0.17 M0.3 206.96 C47.13 153.08, 93.96 99.21, 180.06 0.17 M0.03 213.36 C39.3 168.18, 78.57 123.01, 185.7 -0.23 M0.03 213.36 C67.45 135.8, 134.87 58.25, 185.7 -0.23 M-0.23 219.75 C58.46 152.24, 117.16 84.72, 190.69 0.13 M-0.23 219.75 C38.67 175.01, 77.57 130.26, 190.69 0.13 M0.17 225.4 C42.91 176.23, 85.66 127.05, 196.33 -0.26 M0.17 225.4 C78.42 135.38, 156.67 45.36, 196.33 -0.26 M-0.09 231.8 C75.17 145.21, 150.44 58.62, 201.32 0.1 M-0.09 231.8 C48.11 176.34, 96.31 120.89, 201.32 0.1 M0.3 237.44 C61.04 167.57, 121.78 97.69, 206.96 -0.3 M0.3 237.44 C75.71 150.69, 151.11 63.95, 206.96 -0.3 M0.04 243.84 C65.91 168.06, 131.79 92.28, 211.95 0.06 M0.04 243.84 C50.84 185.4, 101.64 126.96, 211.95 0.06 M-0.22 250.23 C64.07 176.27, 128.37 102.3, 217.59 -0.33 M-0.22 250.23 C49.26 193.31, 98.75 136.38, 217.59 -0.33 M0.17 255.88 C84.87 158.45, 169.56 61.02, 222.58 0.03 M0.17 255.88 C59.08 188.11, 118 120.33, 222.58 0.03 M-0.09 262.27 C66.1 186.13, 132.29 109.99, 228.22 -0.36 M-0.09 262.27 C77.44 173.09, 154.97 83.9, 228.22 -0.36 M0.3 267.92 C60.38 198.8, 120.46 129.69, 233.21 0 M0.3 267.92 C84.68 170.85, 169.06 73.78, 233.21 0 M0.04 274.32 C85.47 176.04, 170.9 77.76, 238.19 0.36 M0.04 274.32 C57.97 207.67, 115.91 141.03, 238.19 0.36 M-0.22 280.71 C55.73 216.36, 111.67 152, 243.84 -0.04 M-0.22 280.71 C89.33 177.7, 178.87 74.69, 243.84 -0.04 M0.18 286.36 C98.34 173.43, 196.51 60.5, 248.82 0.32 M0.18 286.36 C66.54 210.01, 132.91 133.66, 248.82 0.32 M-0.08 292.75 C100.22 177.37, 200.52 61.98, 254.47 -0.07 M-0.08 292.75 C76.58 204.56, 153.24 116.37, 254.47 -0.07 M0.31 298.4 C79.04 207.83, 157.77 117.26, 259.45 0.29 M0.31 298.4 C84.99 200.98, 169.68 103.56, 259.45 0.29 M0.05 304.8 C70.1 224.21, 140.15 143.63, 265.1 -0.11 M0.05 304.8 C99.46 190.44, 198.87 76.08, 265.1 -0.11 M-0.21 311.19 C54.9 247.79, 110.02 184.38, 270.08 0.25 M-0.21 311.19 C88.05 209.65, 176.32 108.11, 270.08 0.25 M0.18 316.84 C100.59 201.33, 201 85.82, 275.73 -0.14 M0.18 316.84 C106.55 194.47, 212.92 72.11, 275.73 -0.14 M-0.08 323.23 C63.31 250.31, 126.71 177.38, 280.71 0.22 M-0.08 323.23 C100.29 207.77, 200.67 92.3, 280.71 0.22 M0.31 328.88 C66.47 252.77, 132.63 176.66, 286.36 -0.18 M0.31 328.88 C91.57 223.89, 182.83 118.91, 286.36 -0.18 M0.05 335.27 C91.09 230.54, 182.13 125.81, 291.34 0.18 M0.05 335.27 C86.92 235.35, 173.78 135.43, 291.34 0.18 M-0.21 341.67 C63.5 268.38, 127.21 195.09, 296.99 -0.21 M-0.21 341.67 C102.79 223.19, 205.78 104.71, 296.99 -0.21 M0.19 347.32 C66.55 270.97, 132.91 194.63, 301.97 0.15 M0.19 347.32 C65.07 272.68, 129.95 198.04, 301.97 0.15 M-0.08 353.71 C84.71 256.18, 169.49 158.65, 307.62 -0.25 M-0.08 353.71 C70.25 272.82, 140.57 191.92, 307.62 -0.25 M2.94 356.34 C100.8 243.77, 198.66 131.2, 312.6 0.11 M2.94 356.34 C114.89 227.55, 226.84 98.77, 312.6 0.11 M7.93 356.7 C128.72 217.74, 249.51 78.79, 318.25 -0.28 M7.93 356.7 C104.89 245.16, 201.85 133.62, 318.25 -0.28 M13.57 356.3 C131.72 220.39, 249.86 84.48, 323.23 0.08 M13.57 356.3 C130.95 221.28, 248.32 86.26, 323.23 0.08 M18.56 356.66 C124.81 234.44, 231.05 112.22, 328.88 -0.31 M18.56 356.66 C121.97 237.7, 225.38 118.74, 328.88 -0.31 M23.55 357.02 C88.6 282.19, 153.65 207.36, 333.86 0.05 M23.55 357.02 C115.47 251.28, 207.4 145.53, 333.86 0.05 M29.19 356.63 C132.95 237.27, 236.71 117.91, 339.51 -0.35 M29.19 356.63 C95.41 280.46, 161.62 204.28, 339.51 -0.35 M34.18 356.99 C98.09 283.46, 162.01 209.94, 344.49 0.01 M34.18 356.99 C136.37 239.43, 238.56 121.88, 344.49 0.01 M39.82 356.59 C156.59 222.26, 273.36 87.93, 349.48 0.37 M39.82 356.59 C121.21 262.97, 202.6 169.34, 349.48 0.37 M44.81 356.95 C165.43 218.2, 286.05 79.44, 355.12 -0.02 M44.81 356.95 C132.32 256.29, 219.82 155.62, 355.12 -0.02 M50.45 356.56 C141.8 251.47, 233.16 146.38, 360.11 0.34 M50.45 356.56 C167.83 221.53, 285.21 86.5, 360.11 0.34 M55.44 356.92 C175.49 218.82, 295.54 80.71, 364.44 1.45 M55.44 356.92 C162.2 234.11, 268.95 111.3, 364.44 1.45 M61.08 356.53 C159.8 242.96, 258.53 129.39, 364.84 7.09 M61.08 356.53 C136.11 270.21, 211.14 183.9, 364.84 7.09 M66.07 356.89 C140.26 271.53, 214.46 186.18, 364.58 13.49 M66.07 356.89 C155.17 254.38, 244.28 151.87, 364.58 13.49 M71.71 356.49 C164.53 249.71, 257.35 142.94, 364.97 19.14 M71.71 356.49 C171.17 242.08, 270.62 127.67, 364.97 19.14 M76.7 356.85 C141.35 282.47, 206.01 208.09, 364.71 25.53 M76.7 356.85 C165.19 255.05, 253.69 153.25, 364.71 25.53 M82.34 356.46 C175.84 248.9, 269.34 141.34, 364.45 31.93 M82.34 356.46 C171.33 254.09, 260.31 151.72, 364.45 31.93 M87.33 356.82 C194.03 234.07, 300.73 111.32, 364.84 37.57 M87.33 356.82 C177.65 252.92, 267.97 149.02, 364.84 37.57 M92.97 356.42 C159.29 280.13, 225.61 203.84, 364.58 43.97 M92.97 356.42 C153.63 286.64, 214.29 216.86, 364.58 43.97 M97.96 356.78 C153.82 292.52, 209.69 228.25, 364.97 49.61 M97.96 356.78 C176.54 266.38, 255.13 175.97, 364.97 49.61 M103.6 356.39 C192.81 253.76, 282.03 151.13, 364.71 56.01 M103.6 356.39 C181.37 266.93, 259.13 177.47, 364.71 56.01 M108.59 356.75 C208.84 241.42, 309.1 126.09, 364.45 62.41 M108.59 356.75 C196.23 255.93, 283.87 155.11, 364.45 62.41 M114.23 356.35 C195.26 263.14, 276.29 169.93, 364.85 68.05 M114.23 356.35 C204.79 252.18, 295.34 148.01, 364.85 68.05 M119.22 356.71 C177.61 289.54, 236.01 222.36, 364.58 74.45 M119.22 356.71 C214.01 247.67, 308.81 138.62, 364.58 74.45 M124.86 356.32 C197.15 273.16, 269.43 190.01, 364.98 80.09 M124.86 356.32 C178.61 294.49, 232.36 232.65, 364.98 80.09 M129.85 356.68 C192.3 284.84, 254.74 213, 364.72 86.49 M129.85 356.68 C207.22 267.67, 284.59 178.67, 364.72 86.49 M134.84 357.04 C226.51 251.58, 318.19 146.12, 364.46 92.89 M134.84 357.04 C199.78 282.33, 264.72 207.63, 364.46 92.89 M140.48 356.64 C186.73 303.44, 232.98 250.23, 364.85 98.53 M140.48 356.64 C199.49 288.76, 258.5 220.87, 364.85 98.53 M145.47 357 C223.22 267.55, 300.98 178.11, 364.59 104.93 M145.47 357 C216.29 275.53, 287.11 194.06, 364.59 104.93 M151.11 356.61 C194.3 306.92, 237.49 257.23, 364.98 110.57 M151.11 356.61 C207.96 291.21, 264.81 225.81, 364.98 110.57 M156.1 356.97 C222.29 280.82, 288.48 204.68, 364.72 116.97 M156.1 356.97 C222.33 280.78, 288.56 204.59, 364.72 116.97 M161.74 356.57 C204.1 307.84, 246.46 259.11, 364.46 123.37 M161.74 356.57 C203.1 308.99, 244.46 261.41, 364.46 123.37 M166.73 356.93 C215.95 300.31, 265.17 243.69, 364.86 129.01 M166.73 356.93 C211.42 305.52, 256.11 254.11, 364.86 129.01 M172.37 356.54 C248.37 269.11, 324.37 181.69, 364.59 135.41 M172.37 356.54 C236.07 283.26, 299.77 209.98, 364.59 135.41 M177.36 356.9 C237.91 287.24, 298.46 217.58, 364.99 141.05 M177.36 356.9 C251.47 271.65, 325.58 186.39, 364.99 141.05 M183 356.51 C245.11 285.05, 307.22 213.6, 364.73 147.45 M183 356.51 C235.53 296.07, 288.07 235.64, 364.73 147.45 M187.99 356.87 C245.71 290.46, 303.43 224.06, 364.47 153.85 M187.99 356.87 C251.63 283.65, 315.28 210.43, 364.47 153.85 M193.63 356.47 C234.97 308.92, 276.31 261.36, 364.86 159.49 M193.63 356.47 C246 296.23, 298.37 235.99, 364.86 159.49 M198.62 356.83 C241.92 307.01, 285.23 257.2, 364.6 165.89 M198.62 356.83 C239.29 310.04, 279.96 263.26, 364.6 165.89 M204.26 356.44 C252.47 300.98, 300.67 245.53, 364.99 171.53 M204.26 356.44 C268.21 282.87, 332.16 209.31, 364.99 171.53 M209.25 356.8 C261.51 296.68, 313.77 236.56, 364.73 177.93 M209.25 356.8 C264.93 292.74, 320.61 228.69, 364.73 177.93 M214.89 356.4 C265.06 298.68, 315.24 240.96, 364.47 184.33 M214.89 356.4 C270.06 292.93, 325.23 229.47, 364.47 184.33 M219.88 356.76 C274.55 293.86, 329.23 230.96, 364.87 189.97 M219.88 356.76 C277.48 290.49, 335.09 224.22, 364.87 189.97 M225.52 356.37 C278.18 295.78, 330.85 235.2, 364.6 196.37 M225.52 356.37 C254.73 322.76, 283.94 289.16, 364.6 196.37 M230.51 356.73 C260.21 322.56, 289.91 288.39, 365 202.01 M230.51 356.73 C263.81 318.41, 297.12 280.1, 365 202.01 M236.15 356.33 C271.22 315.99, 306.29 275.65, 364.74 208.41 M236.15 356.33 C274.74 311.94, 313.33 267.55, 364.74 208.41 M241.14 356.69 C280.2 311.76, 319.26 266.83, 364.48 214.81 M241.14 356.69 C288.19 302.56, 335.25 248.42, 364.48 214.81 M246.78 356.3 C279.06 319.17, 311.33 282.04, 364.87 220.45 M246.78 356.3 C271.02 328.41, 295.27 300.52, 364.87 220.45 M251.77 356.66 C288.62 314.27, 325.47 271.87, 364.61 226.85 M251.77 356.66 C280.99 323.04, 310.21 289.43, 364.61 226.85 M256.75 357.02 C283.67 326.06, 310.58 295.1, 365 232.49 M256.75 357.02 C286.99 322.24, 317.22 287.46, 365 232.49 M262.4 356.62 C295.65 318.37, 328.9 280.12, 364.74 238.89 M262.4 356.62 C295.9 318.08, 329.4 279.54, 364.74 238.89 M267.38 356.98 C294.5 325.79, 321.61 294.6, 364.48 245.29 M267.38 356.98 C292.95 327.57, 318.52 298.16, 364.48 245.29 M273.03 356.59 C309.64 314.47, 346.25 272.35, 364.88 250.93 M273.03 356.59 C293.39 333.16, 313.75 309.74, 364.88 250.93 M278.01 356.95 C300.39 331.21, 322.77 305.47, 364.61 257.33 M278.01 356.95 C302.79 328.45, 327.57 299.94, 364.61 257.33 M283.66 356.56 C303.76 333.43, 323.86 310.3, 365.01 262.97 M283.66 356.56 C313.31 322.45, 342.96 288.34, 365.01 262.97 M288.64 356.92 C310.84 331.38, 333.04 305.84, 364.75 269.37 M288.64 356.92 C308.72 333.82, 328.8 310.72, 364.75 269.37 M294.29 356.52 C321.12 325.65, 347.96 294.77, 364.49 275.77 M294.29 356.52 C319.95 327, 345.62 297.47, 364.49 275.77 M299.27 356.88 C318.78 334.44, 338.29 311.99, 364.88 281.41 M299.27 356.88 C318.97 334.22, 338.67 311.56, 364.88 281.41 M304.92 356.49 C324.54 333.92, 344.16 311.35, 364.62 287.81 M304.92 356.49 C318.2 341.2, 331.49 325.91, 364.62 287.81 M309.9 356.85 C321.26 343.78, 332.61 330.72, 365.01 293.45 M309.9 356.85 C325.69 338.68, 341.48 320.52, 365.01 293.45 M315.55 356.45 C326.52 343.83, 337.49 331.21, 364.75 299.85 M315.55 356.45 C331.31 338.32, 347.07 320.19, 364.75 299.85 M320.53 356.81 C336.4 338.56, 352.26 320.31, 364.49 306.25 M320.53 356.81 C333.78 341.57, 347.03 326.33, 364.49 306.25 M326.18 356.42 C334.49 346.86, 342.8 337.3, 364.88 311.89 M326.18 356.42 C335.13 346.12, 344.09 335.81, 364.88 311.89 M331.16 356.78 C341.79 344.55, 352.42 332.33, 364.62 318.29 M331.16 356.78 C338.23 348.65, 345.29 340.53, 364.62 318.29 M336.81 356.38 C344.31 347.76, 351.81 339.13, 365.02 323.93 M336.81 356.38 C345.71 346.14, 354.61 335.9, 365.02 323.93 M341.79 356.74 C347.4 350.29, 353.01 343.84, 364.76 330.33 M341.79 356.74 C347.98 349.63, 354.16 342.52, 364.76 330.33 M347.44 356.35 C353.42 349.47, 359.4 342.58, 364.5 336.73 M347.44 356.35 C352.9 350.06, 358.37 343.77, 364.5 336.73 M352.42 356.71 C356.43 352.1, 360.44 347.49, 364.89 342.37 M352.42 356.71 C356.38 352.16, 360.33 347.61, 364.89 342.37 M358.07 356.31 C359.75 354.38, 361.43 352.45, 364.63 348.77 M358.07 356.31 C360.57 353.44, 363.07 350.56, 364.63 348.77" stroke="#fff" stroke-width="0.5" fill="none"></path><path d="M0 0 C74.82 0, 149.65 0, 363.4 0 M0 0 C100.41 0, 200.82 0, 363.4 0 M363.4 0 C363.4 113.25, 363.4 226.5, 363.4 354.35 M363.4 0 C363.4 110.86, 363.4 221.72, 363.4 354.35 M363.4 354.35 C288.33 354.35, 213.26 354.35, 0 354.35 M363.4 354.35 C269.88 354.35, 176.36 354.35, 0 354.35 M0 354.35 C0 228.68, 0 103.02, 0 0 M0 354.35 C0 254.8, 0 155.25, 0 0" stroke="#000000" stroke-width="1" fill="none"></path></g><g transform="translate(143.07481343508994 15.833667211714328) rotate(0 53.5 11.5)"><text x="53.5" y="16" font-family="Virgil, Segoe UI Emoji" font-size="18.012722896827096px" fill="#000000" text-anchor="middle" style="white-space: pre;" direction="ltr">Let's revise</text></g><g transform="translate(27.619466669597386 86.8904947920746) rotate(0 52.5 18)"><text x="52.5" y="26" font-family="Virgil, Segoe UI Emoji" font-size="28.528875703465012px" fill="#000000" text-anchor="middle" style="white-space: pre;" direction="ltr">ba-ya-p</text></g><g transform="translate(171.20768243488942 89.8166793167884) rotate(0 42.5 19.5)"><text x="42.5" y="28" font-family="Virgil, Segoe UI Emoji" font-size="28.528875703465012px" fill="#000" text-anchor="middle" style="white-space: pre;" direction="rtl">ب ی پ</text></g><g transform="translate(29.204922200773126 142.19772458715352) rotate(0 53 19)"><text x="53" y="27" font-family="Virgil, Segoe UI Emoji" font-size="29.66097394566602px" fill="#000000" text-anchor="middle" style="white-space: pre;" direction="ltr">Ni-ti-sh</text></g><g transform="translate(174.9872628113976 144.88518954909387) rotate(0 41 19.5)"><text x="41" y="28" font-family="Virgil, Segoe UI Emoji" font-size="28.528875703465012px" fill="#000000" text-anchor="middle" style="white-space: pre;" direction="rtl">ن ت ث</text></g><g transform="translate(52.23340959372081 172.07815109633566) rotate(0 30.5 19)"><text x="30.5" y="27" font-family="Virgil, Segoe UI Emoji" font-size="29.674562643884656px" fill="#000000" text-anchor="middle" style="white-space: pre;" direction="ltr">s-sh</text></g><g transform="translate(183.67080401118142 175.94054366629007) rotate(0 34 19.5)"><text x="34" y="28" font-family="Virgil, Segoe UI Emoji" font-size="28.528875703465012px" fill="#000000" text-anchor="middle" style="white-space: pre;" direction="rtl">س ش</text></g><g transform="translate(49.78946243142536 264.5318666626281) rotate(0 39.5 18)"><text x="39.5" y="26" font-family="Virgil, Segoe UI Emoji" font-size="28.528875703465012px" fill="#000000" text-anchor="middle" style="white-space: pre;" direction="ltr">Ja-ch</text></g><g transform="translate(173.63183616391507 266.6621798912206) rotate(0 65 19.5)"><text x="65" y="28" font-family="Virgil, Segoe UI Emoji" font-size="28.528875703465012px" fill="#000000" text-anchor="middle" style="white-space: pre;" direction="rtl">ج چ جا چا</text></g><g transform="translate(72.45386510803519 227.8562267264365) rotate(0 29 10)"><text x="29" y="14" font-family="Virgil, Segoe UI Emoji" font-size="16px" fill="#000000" text-anchor="middle" style="white-space: pre;" direction="ltr">Ho-ckey</text></g><g transform="translate(178.66359362450612 223.61509001658897) rotate(0 72 19.5)"><text x="72" y="28" font-family="Virgil, Segoe UI Emoji" font-size="28.528875703465012px" fill="#000000" text-anchor="middle" style="white-space: pre;" direction="rtl">ح خ  حا​ خا</text></g><g transform="translate(82.43509717024017 40.084600538744326) rotate(0 118 10.5)"><text x="118" y="15" font-family="Virgil, Segoe UI Emoji" font-size="16.302214687694292px" fill="#e67700" text-anchor="middle" style="white-space: pre;" direction="ltr">baap-nitish-hockey-khelo-janch</text></g><g transform="translate(118.5 317.52567941177085) rotate(0 71.5 14.5)"><text x="71.5" y="21" font-family="Virgil, Segoe UI Emoji" font-size="21.476510067114102px" fill="#e67700" text-anchor="middle" style="white-space: pre;" direction="ltr">Note: ح+ا=حا </text></g><g transform="translate(78 240.02567941177085) rotate(0 21 10)"><text x="21" y="14" font-family="Virgil, Segoe UI Emoji" font-size="16px" fill="#000000" text-anchor="middle" style="white-space: pre;" direction="ltr">Khelo</text></g></svg>