<svg version="1.1" xmlns="http://www.w3.org/2000/svg" viewBox="0 0 380 367.7777777777774" width="380" height="367.7777777777774">
  <!-- svg-source:excalidraw -->
  
  <defs>
    <style>
      @font-face {
        font-family: "Virgil";
        src: url("https://excalidraw.com/Virgil.woff2");
      }
      @font-face {
        font-family: "Cascadia";
        src: url("https://excalidraw.com/Cascadia.woff2");
      }
    </style>
  </defs>
  <rect x="0" y="0" width="380" height="367.7777777777774" fill="#ffffff"></rect><g stroke-linecap="round" transform="translate(10 10) rotate(0 178.33333333333326 173.8888888888887)"><path d="M0 0 C0 0, 0 0, 0 0 M0 0 C0 0, 0 0, 0 0 M-0.26 6.4 C1.47 4.4, 3.2 2.41, 4.99 0.36 M-0.26 6.4 C1.46 4.42, 3.17 2.45, 4.99 0.36 M0.13 12.04 C4.29 7.26, 8.44 2.48, 10.63 -0.03 M0.13 12.04 C3.5 8.17, 6.87 4.29, 10.63 -0.03 M-0.13 18.44 C3.45 14.32, 7.03 10.2, 15.62 0.33 M-0.13 18.44 C5.11 12.41, 10.36 6.38, 15.62 0.33 M0.27 24.08 C5.65 17.89, 11.04 11.69, 21.26 -0.07 M0.27 24.08 C6.37 17.06, 12.47 10.04, 21.26 -0.07 M0 30.48 C8.62 20.57, 17.23 10.66, 26.25 0.29 M0 30.48 C9.08 20.04, 18.16 9.6, 26.25 0.29 M-0.26 36.88 C6.99 28.54, 14.24 20.2, 31.89 -0.1 M-0.26 36.88 C10.97 23.97, 22.19 11.06, 31.89 -0.1 M0.14 42.52 C14.64 25.84, 29.14 9.16, 36.88 0.26 M0.14 42.52 C12.1 28.76, 24.07 14.99, 36.88 0.26 M-0.12 48.92 C11.42 35.64, 22.96 22.37, 42.52 -0.14 M-0.12 48.92 C14.79 31.76, 29.71 14.6, 42.52 -0.14 M0.27 54.56 C9.77 43.63, 19.28 32.7, 47.51 0.22 M0.27 54.56 C10.66 42.61, 21.05 30.66, 47.51 0.22 M0.01 60.96 C19.81 38.18, 39.61 15.4, 53.15 -0.17 M0.01 60.96 C17.75 40.55, 35.49 20.14, 53.15 -0.17 M-0.25 67.36 C19.28 44.88, 38.82 22.41, 58.14 0.19 M-0.25 67.36 C20.98 42.94, 42.21 18.52, 58.14 0.19 M0.14 73 C20.81 49.23, 41.48 25.45, 63.78 -0.21 M0.14 73 C21.15 48.83, 42.17 24.66, 63.78 -0.21 M-0.12 79.4 C27.04 48.15, 54.21 16.9, 68.77 0.15 M-0.12 79.4 C19.1 57.28, 38.33 35.17, 68.77 0.15 M0.28 85.04 C24.93 56.67, 49.59 28.31, 74.41 -0.24 M0.28 85.04 C26.58 54.78, 52.89 24.52, 74.41 -0.24 M0.01 91.44 C31.16 55.61, 62.3 19.78, 79.4 0.12 M0.01 91.44 C21.95 66.2, 43.89 40.96, 79.4 0.12 M-0.25 97.84 C18.04 76.8, 36.32 55.77, 85.04 -0.28 M-0.25 97.84 C17.8 77.07, 35.85 56.31, 85.04 -0.28 M0.15 103.48 C31.88 66.98, 63.61 30.48, 90.03 0.08 M0.15 103.48 C22.88 77.33, 45.61 51.18, 90.03 0.08 M-0.11 109.88 C19.11 87.76, 38.34 65.64, 95.67 -0.31 M-0.11 109.88 C27.83 77.73, 55.77 45.59, 95.67 -0.31 M0.28 115.52 C31.73 79.35, 63.17 43.17, 100.66 0.05 M0.28 115.52 C29.76 81.6, 59.25 47.68, 100.66 0.05 M0.02 121.92 C35.6 80.99, 71.18 40.05, 106.3 -0.34 M0.02 121.92 C39.75 76.21, 79.49 30.5, 106.3 -0.34 M-0.24 128.32 C35.73 86.93, 71.71 45.55, 111.29 0.02 M-0.24 128.32 C30.01 93.52, 60.26 58.72, 111.29 0.02 M0.15 133.96 C31.77 97.59, 63.38 61.22, 116.27 0.38 M0.15 133.96 C26.19 104.01, 52.22 74.06, 116.27 0.38 M-0.11 140.36 C29.51 106.28, 59.14 72.2, 121.92 -0.02 M-0.11 140.36 C29.83 105.91, 59.77 71.47, 121.92 -0.02 M0.29 146 C35.9 105.03, 71.51 64.06, 126.91 0.34 M0.29 146 C50.49 88.24, 100.7 30.49, 126.91 0.34 M0.02 152.4 C46.18 99.3, 92.33 46.21, 132.55 -0.05 M0.02 152.4 C34.96 112.21, 69.9 72.02, 132.55 -0.05 M-0.24 158.8 C33.17 120.36, 66.59 81.92, 137.54 0.31 M-0.24 158.8 C31.72 122.03, 63.68 85.27, 137.54 0.31 M0.16 164.44 C46.79 110.8, 93.42 57.15, 143.18 -0.09 M0.16 164.44 C51.78 105.05, 103.41 45.66, 143.18 -0.09 M-0.1 170.84 C36.84 128.34, 73.78 85.84, 148.17 0.27 M-0.1 170.84 C38.34 126.61, 76.78 82.39, 148.17 0.27 M0.29 176.48 C42.58 127.83, 84.87 79.19, 153.81 -0.12 M0.29 176.48 C55.53 112.93, 110.77 49.39, 153.81 -0.12 M0.03 182.88 C32.87 145.1, 65.71 107.32, 158.8 0.24 M0.03 182.88 C62.69 110.79, 125.36 38.71, 158.8 0.24 M-0.23 189.27 C50.56 130.84, 101.35 72.41, 164.44 -0.16 M-0.23 189.27 C44.26 138.09, 88.75 86.91, 164.44 -0.16 M0.16 194.92 C39.73 149.4, 79.29 103.89, 169.43 0.2 M0.16 194.92 C58.03 128.35, 115.9 61.78, 169.43 0.2 M-0.1 201.32 C61.11 130.9, 122.32 60.49, 175.07 -0.19 M-0.1 201.32 C50.61 142.98, 101.33 84.64, 175.07 -0.19 M0.3 206.96 C47.13 153.08, 93.96 99.21, 180.06 0.17 M0.3 206.96 C70.77 125.88, 141.25 44.81, 180.06 0.17 M0.03 213.36 C62.29 141.74, 124.55 70.12, 185.7 -0.23 M0.03 213.36 C37.68 170.05, 75.32 126.75, 185.7 -0.23 M-0.23 219.75 C43.75 169.16, 87.73 118.57, 190.69 0.13 M-0.23 219.75 C42.53 170.57, 85.29 121.38, 190.69 0.13 M0.17 225.4 C42.44 176.76, 84.72 128.13, 196.33 -0.26 M0.17 225.4 C75.17 139.11, 150.18 52.83, 196.33 -0.26 M-0.09 231.8 C60.11 162.54, 120.31 93.28, 201.32 0.1 M-0.09 231.8 C61.09 161.41, 122.28 91.02, 201.32 0.1 M0.3 237.44 C73.03 153.77, 145.76 70.1, 206.96 -0.3 M0.3 237.44 C80.55 145.12, 160.8 52.81, 206.96 -0.3 M0.04 243.84 C49.69 186.72, 99.35 129.59, 211.95 0.06 M0.04 243.84 C60.48 174.3, 120.93 104.77, 211.95 0.06 M-0.22 250.23 C69.26 170.3, 138.75 90.37, 217.59 -0.33 M-0.22 250.23 C79.95 158.01, 160.12 65.78, 217.59 -0.33 M0.17 255.88 C48.49 200.29, 96.82 144.7, 222.58 0.03 M0.17 255.88 C46.78 202.27, 93.38 148.66, 222.58 0.03 M-0.09 262.27 C69.23 182.53, 138.56 102.78, 228.22 -0.36 M-0.09 262.27 C58.49 194.88, 117.08 127.49, 228.22 -0.36 M0.3 267.92 C56.42 203.37, 112.53 138.82, 233.21 0 M0.3 267.92 C71.43 186.1, 142.56 104.27, 233.21 0 M0.04 274.32 C72.73 190.69, 145.43 107.07, 238.19 0.36 M0.04 274.32 C89.67 171.21, 179.29 68.11, 238.19 0.36 M-0.22 280.71 C75.67 193.42, 151.56 106.12, 243.84 -0.04 M-0.22 280.71 C94.72 171.5, 189.66 62.28, 243.84 -0.04 M0.18 286.36 C83.65 190.33, 167.13 94.3, 248.82 0.32 M0.18 286.36 C59.17 218.49, 118.16 150.63, 248.82 0.32 M-0.08 292.75 C62.41 220.87, 124.9 148.98, 254.47 -0.07 M-0.08 292.75 C67.14 215.42, 134.37 138.08, 254.47 -0.07 M0.31 298.4 C57.19 232.96, 114.07 167.53, 259.45 0.29 M0.31 298.4 C87.6 197.99, 174.88 97.57, 259.45 0.29 M0.05 304.8 C73 220.88, 145.95 136.96, 265.1 -0.11 M0.05 304.8 C85.37 206.65, 170.68 108.5, 265.1 -0.11 M-0.21 311.19 C106.15 188.84, 212.5 66.49, 270.08 0.25 M-0.21 311.19 C97.09 199.25, 194.4 87.31, 270.08 0.25 M0.18 316.84 C67.23 239.71, 134.28 162.57, 275.73 -0.14 M0.18 316.84 C94.16 208.72, 188.14 100.61, 275.73 -0.14 M-0.08 323.23 C86.15 224.03, 172.39 124.83, 280.71 0.22 M-0.08 323.23 C106.41 200.73, 212.9 78.23, 280.71 0.22 M0.31 328.88 C59.08 261.27, 117.85 193.67, 286.36 -0.18 M0.31 328.88 C82.66 234.15, 165 139.43, 286.36 -0.18 M0.05 335.27 C64.8 260.79, 129.54 186.31, 291.34 0.18 M0.05 335.27 C74.19 249.99, 148.33 164.71, 291.34 0.18 M-0.21 341.67 C68.07 263.12, 136.36 184.57, 296.99 -0.21 M-0.21 341.67 C93.7 233.65, 187.6 125.62, 296.99 -0.21 M0.19 347.32 C64.58 273.23, 128.98 199.15, 301.97 0.15 M0.19 347.32 C70.58 266.33, 140.98 185.35, 301.97 0.15 M3.21 349.94 C124.03 210.95, 244.86 71.95, 307.62 -0.25 M3.21 349.94 C114.81 221.56, 226.41 93.17, 307.62 -0.25 M8.19 350.3 C120.02 221.65, 231.86 93, 312.6 0.11 M8.19 350.3 C114.88 227.57, 221.57 104.84, 312.6 0.11 M13.18 350.66 C74.22 280.44, 135.26 210.23, 318.25 -0.28 M13.18 350.66 C125.6 221.34, 238.01 92.02, 318.25 -0.28 M18.82 350.27 C135.61 215.92, 252.39 81.57, 323.23 0.08 M18.82 350.27 C88.41 270.22, 157.99 190.17, 323.23 0.08 M23.81 350.63 C129.04 229.58, 234.26 108.53, 328.88 -0.31 M23.81 350.63 C96.37 267.16, 168.92 183.69, 328.88 -0.31 M29.45 350.23 C143.34 219.22, 257.22 88.22, 333.86 0.05 M29.45 350.23 C113.95 253.03, 198.44 155.83, 333.86 0.05 M34.44 350.59 C141.1 227.9, 247.75 105.2, 339.51 -0.35 M34.44 350.59 C119.35 252.91, 204.26 155.23, 339.51 -0.35 M40.08 350.2 C120.2 258.03, 200.32 165.87, 344.49 0.01 M40.08 350.2 C129.85 246.93, 219.62 143.66, 344.49 0.01 M45.07 350.56 C150.04 229.81, 255 109.06, 349.48 0.37 M45.07 350.56 C161.11 217.06, 277.16 83.57, 349.48 0.37 M50.71 350.16 C168.76 214.36, 286.81 78.56, 355.12 -0.02 M50.71 350.16 C131.53 257.19, 212.35 164.21, 355.12 -0.02 M55.7 350.52 C138.65 255.1, 221.6 159.67, 358.8 1.85 M55.7 350.52 C123.95 272.01, 192.2 193.5, 358.8 1.85 M61.34 350.13 C149.71 248.47, 238.07 146.82, 358.54 8.24 M61.34 350.13 C168.89 226.41, 276.43 102.7, 358.54 8.24 M66.33 350.49 C151.73 252.24, 237.14 153.99, 358.93 13.89 M66.33 350.49 C147.21 257.44, 228.1 164.39, 358.93 13.89 M71.97 350.09 C173.39 233.43, 274.8 116.77, 358.67 20.28 M71.97 350.09 C170.58 236.66, 269.19 123.22, 358.67 20.28 M76.96 350.45 C180.66 231.16, 284.35 111.88, 359.07 25.93 M76.96 350.45 C186.61 224.31, 296.27 98.17, 359.07 25.93 M82.6 350.06 C174.13 244.76, 265.67 139.47, 358.8 32.33 M82.6 350.06 C181.81 235.93, 281.02 121.8, 358.8 32.33 M87.59 350.42 C163.85 262.7, 240.1 174.97, 358.54 38.72 M87.59 350.42 C142.64 287.09, 197.69 223.76, 358.54 38.72 M93.23 350.02 C150.95 283.62, 208.68 217.22, 358.94 44.37 M93.23 350.02 C184.26 245.31, 275.29 140.59, 358.94 44.37 M98.22 350.38 C157.25 282.48, 216.27 214.58, 358.68 50.76 M98.22 350.38 C189.01 245.94, 279.81 141.49, 358.68 50.76 M103.86 349.99 C157.63 288.14, 211.4 226.28, 359.07 56.41 M103.86 349.99 C159.14 286.41, 214.41 222.82, 359.07 56.41 M108.85 350.35 C161.04 290.31, 213.23 230.27, 358.81 62.81 M108.85 350.35 C169.13 281.01, 229.4 211.67, 358.81 62.81 M114.49 349.95 C193.48 259.09, 272.46 168.23, 358.55 69.2 M114.49 349.95 C185.54 268.22, 256.59 186.49, 358.55 69.2 M119.48 350.31 C178.42 282.51, 237.36 214.71, 358.94 74.85 M119.48 350.31 C187.62 271.93, 255.76 193.54, 358.94 74.85 M125.12 349.92 C213.99 247.69, 302.86 145.45, 358.68 81.24 M125.12 349.92 C186.71 279.07, 248.3 208.22, 358.68 81.24 M130.11 350.28 C214.66 253.01, 299.21 155.75, 359.07 86.89 M130.11 350.28 C191.94 279.16, 253.76 208.04, 359.07 86.89 M135.1 350.64 C183.92 294.48, 232.74 238.32, 358.81 93.28 M135.1 350.64 C184.14 294.22, 233.19 237.8, 358.81 93.28 M140.74 350.25 C188.97 294.77, 237.19 239.29, 358.55 99.68 M140.74 350.25 C222.69 255.97, 304.65 161.69, 358.55 99.68 M145.73 350.61 C206.75 280.41, 267.77 210.21, 358.95 105.33 M145.73 350.61 C194.82 294.14, 243.91 237.67, 358.95 105.33 M151.37 350.21 C204.9 288.64, 258.42 227.06, 358.69 111.72 M151.37 350.21 C227.97 262.09, 304.57 173.97, 358.69 111.72 M156.36 350.57 C206.29 293.13, 256.23 235.68, 359.08 117.37 M156.36 350.57 C228.65 267.41, 300.95 184.24, 359.08 117.37 M162 350.18 C230.45 271.44, 298.9 192.69, 358.82 123.76 M162 350.18 C202.03 304.12, 242.07 258.07, 358.82 123.76 M166.99 350.54 C238.45 268.33, 309.91 186.12, 358.56 130.16 M166.99 350.54 C214.09 296.35, 261.19 242.17, 358.56 130.16 M172.63 350.14 C241.73 270.66, 310.82 191.17, 358.95 135.8 M172.63 350.14 C213.48 303.15, 254.33 256.16, 358.95 135.8 M177.62 350.5 C241.58 276.92, 305.54 203.34, 358.69 142.2 M177.62 350.5 C237.91 281.15, 298.19 211.8, 358.69 142.2 M183.26 350.11 C222.04 305.5, 260.82 260.89, 359.08 147.85 M183.26 350.11 C244.04 280.19, 304.82 210.27, 359.08 147.85 M188.25 350.47 C237.09 294.28, 285.94 238.09, 358.82 154.24 M188.25 350.47 C229.24 303.31, 270.23 256.16, 358.82 154.24 M193.89 350.07 C227.25 311.7, 260.6 273.33, 358.56 160.64 M193.89 350.07 C243.12 293.44, 292.35 236.81, 358.56 160.64 M198.88 350.43 C244.39 298.08, 289.9 245.73, 358.96 166.28 M198.88 350.43 C259.37 280.84, 319.87 211.25, 358.96 166.28 M204.52 350.04 C240.76 308.36, 276.99 266.67, 358.69 172.68 M204.52 350.04 C263.53 282.15, 322.54 214.27, 358.69 172.68 M209.51 350.4 C250.11 303.69, 290.72 256.97, 359.09 178.33 M209.51 350.4 C260.85 291.34, 312.19 232.27, 359.09 178.33 M215.15 350 C250.87 308.91, 286.59 267.82, 358.83 184.72 M215.15 350 C256.58 302.35, 298 254.7, 358.83 184.72 M220.14 350.36 C273.4 289.09, 326.67 227.81, 358.57 191.12 M220.14 350.36 C264.6 299.21, 309.07 248.06, 358.57 191.12 M225.78 349.97 C277.26 290.75, 328.74 231.53, 358.96 196.76 M225.78 349.97 C264.98 304.87, 304.18 259.78, 358.96 196.76 M230.77 350.33 C278.57 295.34, 326.38 240.34, 358.7 203.16 M230.77 350.33 C267.14 308.49, 303.52 266.64, 358.7 203.16 M236.41 349.94 C261.49 321.09, 286.56 292.25, 359.09 208.8 M236.41 349.94 C269.17 312.25, 301.93 274.56, 359.09 208.8 M241.4 350.3 C264.89 323.27, 288.38 296.25, 358.83 215.2 M241.4 350.3 C287.5 297.27, 333.59 244.24, 358.83 215.2 M246.39 350.66 C276.72 315.76, 307.05 280.87, 358.57 221.6 M246.39 350.66 C275.57 317.09, 304.75 283.52, 358.57 221.6 M252.03 350.26 C277.51 320.94, 303 291.63, 358.97 227.24 M252.03 350.26 C294.09 301.88, 336.14 253.5, 358.97 227.24 M257.02 350.62 C294.15 307.91, 331.28 265.19, 358.7 233.64 M257.02 350.62 C289.03 313.8, 321.04 276.97, 358.7 233.64 M262.66 350.23 C289.22 319.68, 315.77 289.13, 359.1 239.28 M262.66 350.23 C284.02 325.65, 305.39 301.07, 359.1 239.28 M267.65 350.59 C293.35 321.02, 319.05 291.45, 358.84 245.68 M267.65 350.59 C291.33 323.34, 315.02 296.09, 358.84 245.68 M273.29 350.19 C299.78 319.71, 326.28 289.23, 358.58 252.08 M273.29 350.19 C307.39 310.97, 341.48 271.74, 358.58 252.08 M278.28 350.55 C296.53 329.56, 314.78 308.56, 358.97 257.72 M278.28 350.55 C303.39 321.66, 328.51 292.77, 358.97 257.72 M283.92 350.16 C310.55 319.52, 337.18 288.88, 358.71 264.12 M283.92 350.16 C301.72 329.68, 319.51 309.21, 358.71 264.12 M288.91 350.52 C304.09 333.05, 319.27 315.58, 359.1 269.76 M288.91 350.52 C308.07 328.47, 327.23 306.43, 359.1 269.76 M294.55 350.12 C309.73 332.66, 324.9 315.2, 358.84 276.16 M294.55 350.12 C309.56 332.85, 324.58 315.58, 358.84 276.16 M299.54 350.48 C316.24 331.27, 332.94 312.06, 358.58 282.56 M299.54 350.48 C319.38 327.65, 339.23 304.82, 358.58 282.56 M305.18 350.09 C326.02 326.11, 346.87 302.13, 358.98 288.2 M305.18 350.09 C319.78 333.29, 334.38 316.49, 358.98 288.2 M310.17 350.45 C323.23 335.42, 336.29 320.4, 358.71 294.6 M310.17 350.45 C323.73 334.84, 337.3 319.24, 358.71 294.6 M315.81 350.05 C327.06 337.11, 338.31 324.17, 359.11 300.24 M315.81 350.05 C325.52 338.89, 335.22 327.72, 359.11 300.24 M320.8 350.41 C329.57 340.33, 338.33 330.24, 358.85 306.64 M320.8 350.41 C331.03 338.64, 341.27 326.86, 358.85 306.64 M326.44 350.02 C336.56 338.37, 346.69 326.73, 358.59 313.04 M326.44 350.02 C337.74 337.01, 349.05 324.01, 358.59 313.04 M331.43 350.38 C337.91 342.92, 344.39 335.46, 358.98 318.68 M331.43 350.38 C338.56 342.18, 345.69 333.97, 358.98 318.68 M337.07 349.99 C341.99 344.33, 346.91 338.67, 358.72 325.08 M337.07 349.99 C343.6 342.48, 350.12 334.97, 358.72 325.08 M342.06 350.35 C348.27 343.2, 354.48 336.05, 359.11 330.72 M342.06 350.35 C348.71 342.7, 355.35 335.05, 359.11 330.72 M347.7 349.95 C350.86 346.31, 354.03 342.67, 358.85 337.12 M347.7 349.95 C351.14 345.99, 354.58 342.04, 358.85 337.12 M352.69 350.31 C354.52 348.2, 356.35 346.09, 358.59 343.52 M352.69 350.31 C354.99 347.66, 357.3 345, 358.59 343.52" stroke="#fff" stroke-width="0.5" fill="none"></path><path d="M0 0 C131.16 0, 262.33 0, 356.67 0 M0 0 C77.77 0, 155.54 0, 356.67 0 M356.67 0 C356.67 125.83, 356.67 251.66, 356.67 347.78 M356.67 0 C356.67 81.39, 356.67 162.79, 356.67 347.78 M356.67 347.78 C218.18 347.78, 79.69 347.78, 0 347.78 M356.67 347.78 C224.88 347.78, 93.08 347.78, 0 347.78 M0 347.78 C0 247.85, 0 147.92, 0 0 M0 347.78 C0 224.05, 0 100.31, 0 0" stroke="#000000" stroke-width="1" fill="none"></path></g><g transform="translate(55.61604111156794 15.72552117460873) rotate(0 137.5 11)"><text x="137.5" y="16" font-family="Virgil, Segoe UI Emoji" font-size="17.678798363929268px" fill="#000000" text-anchor="middle" style="white-space: pre;" direction="ltr">Let's practice what we learned</text></g><g transform="translate(95.9488086027959 65.83584403168788) rotate(0 22.5 19.5)"><text x="22.5" y="27" font-family="Virgil, Segoe UI Emoji" font-size="28px" fill="#000000" text-anchor="middle" style="white-space: pre;" direction="rtl">بحث</text></g><g transform="translate(172.06053134670583 71.20778218808846) rotate(0 37.5 16)"><text x="37.5" y="23" font-family="Virgil, Segoe UI Emoji" font-size="23.433516823172702px" fill="#000" text-anchor="middle" style="white-space: pre;" direction="rtl">ب+ح+ث</text></g><g transform="translate(96.5 110) rotate(0 25.5 20)"><text x="25.5" y="28" font-family="Virgil, Segoe UI Emoji" font-size="29.111111111111125px" fill="#000000" text-anchor="middle" style="white-space: pre;" direction="rtl">سیب</text></g><g transform="translate(174.05224885246753 115.88764403884852) rotate(0 43 17)"><text x="43" y="24" font-family="Virgil, Segoe UI Emoji" font-size="24.363418284409725px" fill="#000000" text-anchor="middle" style="white-space: pre;" direction="rtl">س+ی+ب</text></g><g transform="translate(97.51429357445068 149.07350425822005) rotate(0 23.5 20)"><text x="23.5" y="28" font-family="Virgil, Segoe UI Emoji" font-size="29.12444789851476px" fill="#000000" text-anchor="middle" style="white-space: pre;" direction="rtl">پانی</text></g><g transform="translate(163.9501835464489 154.86429479209255) rotate(0 49.5 17)"><text x="49.5" y="24" font-family="Virgil, Segoe UI Emoji" font-size="24.37457999269509px" fill="#000000" text-anchor="middle" style="white-space: pre;" direction="rtl">پ+ا+ن+ی</text></g><g transform="translate(94.89309131968002 269.03846385762154) rotate(0 25.5 17.5)"><text x="25.5" y="25" font-family="Virgil, Segoe UI Emoji" font-size="25.788077483364958px" fill="#000000" text-anchor="middle" style="white-space: pre;" direction="rtl">جشن</text></g><g transform="translate(177.0376601533651 274.495961592233) rotate(0 37 15.5)"><text x="37" y="22" font-family="Virgil, Segoe UI Emoji" font-size="22.07832636829211px" fill="#000000" text-anchor="middle" style="white-space: pre;" direction="rtl">ج+ش+ن</text></g><g transform="translate(69.97440430139795 239.35735040838608) rotate(0 38 19.5)"><text x="38" y="28" font-family="Virgil, Segoe UI Emoji" font-size="28.35461878459899px" fill="#000000" text-anchor="middle" style="white-space: pre;" direction="rtl">چاشنی</text></g><g transform="translate(169.02263464396128 244.40410977469037) rotate(0 65 16)"><text x="65" y="23" font-family="Virgil, Segoe UI Emoji" font-size="23.433516823172702px" fill="#000000" text-anchor="middle" style="white-space: pre;" direction="rtl">چ+ا+ش+ن+ی</text></g><g transform="translate(111.25067064852738 196.4612827228575) rotate(0 17.5 19.5)"><text x="17.5" y="27" font-family="Virgil, Segoe UI Emoji" font-size="28px" fill="#000000" text-anchor="middle" style="white-space: pre;" direction="rtl">پاپا</text></g><g transform="translate(170.1943104851216 202.48415190212654) rotate(0 45 16)"><text x="45" y="23" font-family="Virgil, Segoe UI Emoji" font-size="23.433516823172702px" fill="#000000" text-anchor="middle" style="white-space: pre;" direction="rtl">پ+ا+پ+ا</text></g><g transform="translate(30 70) rotate(0 30 10)"><text x="30" y="14" font-family="Virgil, Segoe UI Emoji" font-size="16px" fill="#e67700" text-anchor="middle" style="white-space: pre;" direction="ltr">(bahas)</text></g><g transform="translate(30 110) rotate(0 20 10)"><text x="20" y="14" font-family="Virgil, Segoe UI Emoji" font-size="16px" fill="#e67700" text-anchor="middle" style="white-space: pre;" direction="ltr">(seb)</text></g><g transform="translate(30 150) rotate(0 22 10)"><text x="22" y="14" font-family="Virgil, Segoe UI Emoji" font-size="16px" fill="#e67700" text-anchor="middle" style="white-space: pre;" direction="ltr">(pani)</text></g><g transform="translate(23.976190476189913 194.17460317460245) rotate(0 25.5 10)"><text x="25.5" y="14" font-family="Virgil, Segoe UI Emoji" font-size="16px" fill="#e67700" text-anchor="middle" style="white-space: pre;" direction="ltr">(papa)</text></g><g transform="translate(30 270) rotate(0 23 10)"><text x="23" y="14" font-family="Virgil, Segoe UI Emoji" font-size="16px" fill="#e67700" text-anchor="middle" style="white-space: pre;" direction="ltr">(jasn)</text></g><g transform="translate(165.4047619047633 39.52688440443853) rotate(0 31.5 10)"><text x="31.5" y="14" font-family="Virgil, Segoe UI Emoji" font-size="16px" fill="#e67700" text-anchor="middle" style="white-space: pre;" direction="ltr">Answers</text></g><g transform="translate(270 70) rotate(0 28.5 10)"><text x="28.5" y="14" font-family="Virgil, Segoe UI Emoji" font-size="16px" fill="#d9480f" text-anchor="middle" style="white-space: pre;" direction="ltr">(Argue)</text></g><g transform="translate(290 110) rotate(0 26.5 10)"><text x="26.5" y="14" font-family="Virgil, Segoe UI Emoji" font-size="16px" fill="#d9480f" text-anchor="middle" style="white-space: pre;" direction="ltr">(apple)</text></g><g transform="translate(290 150) rotate(0 29.5 10)"><text x="29.5" y="14" font-family="Virgil, Segoe UI Emoji" font-size="16px" fill="#d9480f" text-anchor="middle" style="white-space: pre;" direction="ltr">(water)</text></g><g transform="translate(295.21482085626576 197.36665253644514) rotate(0 23 10)"><text x="23" y="14" font-family="Virgil, Segoe UI Emoji" font-size="16px" fill="#d9480f" text-anchor="middle" style="white-space: pre;" direction="ltr">(Dad)</text></g><g transform="translate(253.4291065705513 236.22379539358826) rotate(0 52.5 10)"><text x="52.5" y="14" font-family="Virgil, Segoe UI Emoji" font-size="16px" fill="#d9480f" text-anchor="middle" style="white-space: pre;" direction="ltr">(sugar syrup)</text></g><g transform="translate(293.07196371340865 282.41055810116313) rotate(0 28 10)"><text x="28" y="14" font-family="Virgil, Segoe UI Emoji" font-size="16px" fill="#d9480f" text-anchor="middle" style="white-space: pre;" direction="ltr">(party)</text></g><g stroke-linecap="round"><g transform="translate(10 70) rotate(0 180 0)"><path d="M0 0 C60 0, 300 0, 360 0" stroke="#495057" stroke-width="1.5" fill="none" stroke-dasharray="1.5 7"></path></g></g><g stroke-linecap="round"><g transform="translate(10 110) rotate(0 180 0)"><path d="M0 0 C60 0, 300 0, 360 0" stroke="#495057" stroke-width="1.5" fill="none" stroke-dasharray="1.5 7"></path></g></g><g stroke-linecap="round"><g transform="translate(10 150) rotate(0 180 0)"><path d="M0 0 C60 0, 300 0, 360 0" stroke="#495057" stroke-width="1.5" fill="none" stroke-dasharray="1.5 7"></path></g></g><g stroke-linecap="round"><g transform="translate(10 190) rotate(0 180 0)"><path d="M0 0 C60 0, 300 0, 360 0" stroke="#495057" stroke-width="1.5" fill="none" stroke-dasharray="1.5 7"></path></g></g><g stroke-linecap="round"><g transform="translate(10 230) rotate(0 180 0)"><path d="M0 0 C60 0, 300 0, 360 0" stroke="#495057" stroke-width="1.5" fill="none" stroke-dasharray="1.5 7"></path></g></g><g transform="translate(16.5 230) rotate(0 30 10)"><text x="30" y="14" font-family="Virgil, Segoe UI Emoji" font-size="16px" fill="#e67700" text-anchor="middle" style="white-space: pre;" direction="ltr">(chasni)</text></g><g stroke-linecap="round"><g transform="translate(10 270) rotate(0 180 0)"><path d="M0 0 C60 0, 300 0, 360 0" stroke="#495057" stroke-width="1.5" fill="none" stroke-dasharray="1.5 7"></path></g></g><g stroke-linecap="round"><g transform="translate(10 310) rotate(0 180 0)"><path d="M0 0 C60 0, 300 0, 360 0" stroke="#495057" stroke-width="1.5" fill="none" stroke-dasharray="1.5 7"></path></g></g><g transform="translate(33.698330243555574 324.5617098859939) rotate(0 160 10)"><text x="160" y="14" font-family="Virgil, Segoe UI Emoji" font-size="16px" fill="#e67700" text-anchor="middle" style="white-space: pre;" direction="ltr">Note: ALif refuses to connect from left</text></g></svg>