<svg version="1.1" xmlns="http://www.w3.org/2000/svg" viewBox="0 0 376.6666666666665 367.7777777777774" width="376.6666666666665" height="367.7777777777774">
  <!-- svg-source:excalidraw -->
  
  <defs>
    <style>
      @font-face {
        font-family: "Virgil";
        src: url("https://excalidraw.com/Virgil.woff2");
      }
      @font-face {
        font-family: "Cascadia";
        src: url("https://excalidraw.com/Cascadia.woff2");
      }
    </style>
  </defs>
  <rect x="0" y="0" width="376.6666666666665" height="367.7777777777774" fill="#ffffff"></rect><g stroke-linecap="round" transform="translate(10 10) rotate(0 178.33333333333326 173.8888888888887)"><path d="M0 0 C0 0, 0 0, 0 0 M0 0 C0 0, 0 0, 0 0 M-0.26 6.4 C1.07 4.87, 2.39 3.35, 4.99 0.36 M-0.26 6.4 C1.52 4.35, 3.3 2.3, 4.99 0.36 M0.13 12.04 C3.64 8, 7.15 3.96, 10.63 -0.03 M0.13 12.04 C4.15 7.42, 8.16 2.81, 10.63 -0.03 M-0.13 18.44 C4.29 13.36, 8.7 8.28, 15.62 0.33 M-0.13 18.44 C5.99 11.4, 12.12 4.35, 15.62 0.33 M0.27 24.08 C8.52 14.58, 16.78 5.08, 21.26 -0.07 M0.27 24.08 C5.08 18.54, 9.89 13.01, 21.26 -0.07 M0 30.48 C10.49 18.42, 20.98 6.36, 26.25 0.29 M0 30.48 C8.18 21.07, 16.36 11.66, 26.25 0.29 M-0.26 36.88 C10.19 24.86, 20.64 12.83, 31.89 -0.1 M-0.26 36.88 C9.63 25.51, 19.51 14.13, 31.89 -0.1 M0.14 42.52 C13.73 26.88, 27.32 11.25, 36.88 0.26 M0.14 42.52 C10.29 30.84, 20.45 19.16, 36.88 0.26 M-0.12 48.92 C16.23 30.11, 32.58 11.29, 42.52 -0.14 M-0.12 48.92 C16.57 29.72, 33.26 10.52, 42.52 -0.14 M0.27 54.56 C16.29 36.13, 32.31 17.7, 47.51 0.22 M0.27 54.56 C12.73 40.23, 25.18 25.91, 47.51 0.22 M0.01 60.96 C11.16 48.14, 22.3 35.31, 53.15 -0.17 M0.01 60.96 C14.24 44.59, 28.47 28.22, 53.15 -0.17 M-0.25 67.36 C13.89 51.09, 28.03 34.83, 58.14 0.19 M-0.25 67.36 C15.31 49.45, 30.88 31.54, 58.14 0.19 M0.14 73 C14.94 55.98, 29.74 38.95, 63.78 -0.21 M0.14 73 C21.54 48.39, 42.93 23.78, 63.78 -0.21 M-0.12 79.4 C13.75 63.44, 27.62 47.49, 68.77 0.15 M-0.12 79.4 C19.92 56.34, 39.96 33.29, 68.77 0.15 M0.28 85.04 C20.15 62.17, 40.03 39.31, 74.41 -0.24 M0.28 85.04 C15.73 67.26, 31.18 49.48, 74.41 -0.24 M0.01 91.44 C25.95 61.6, 51.89 31.77, 79.4 0.12 M0.01 91.44 C28.18 59.04, 56.34 26.64, 79.4 0.12 M-0.25 97.84 C27.06 66.42, 54.37 35.01, 85.04 -0.28 M-0.25 97.84 C26.11 67.52, 52.47 37.19, 85.04 -0.28 M0.15 103.48 C28.53 70.83, 56.91 38.19, 90.03 0.08 M0.15 103.48 C26.11 73.62, 52.06 43.76, 90.03 0.08 M-0.11 109.88 C36.28 68.02, 72.66 26.16, 95.67 -0.31 M-0.11 109.88 C26.21 79.59, 52.54 49.31, 95.67 -0.31 M0.28 115.52 C25.71 86.26, 51.15 57.01, 100.66 0.05 M0.28 115.52 C34.03 76.7, 67.77 37.88, 100.66 0.05 M0.02 121.92 C24.04 94.28, 48.07 66.65, 106.3 -0.34 M0.02 121.92 C37.78 78.48, 75.53 35.05, 106.3 -0.34 M-0.24 128.32 C23.41 101.11, 47.06 73.9, 111.29 0.02 M-0.24 128.32 C39.08 83.08, 78.41 37.83, 111.29 0.02 M0.15 133.96 C26.25 103.93, 52.36 73.9, 116.27 0.38 M0.15 133.96 C24.79 105.61, 49.44 77.26, 116.27 0.38 M-0.11 140.36 C30.62 105.01, 61.34 69.67, 121.92 -0.02 M-0.11 140.36 C25.06 111.41, 50.22 82.46, 121.92 -0.02 M0.29 146 C42.05 97.95, 83.82 49.91, 126.91 0.34 M0.29 146 C40.82 99.37, 81.35 52.74, 126.91 0.34 M0.02 152.4 C29.18 118.86, 58.33 85.32, 132.55 -0.05 M0.02 152.4 C50.07 94.82, 100.12 37.25, 132.55 -0.05 M-0.24 158.8 C38.68 114.03, 77.59 69.27, 137.54 0.31 M-0.24 158.8 C50.17 100.8, 100.59 42.81, 137.54 0.31 M0.16 164.44 C50.45 106.58, 100.74 48.73, 143.18 -0.09 M0.16 164.44 C51.66 105.19, 103.17 45.93, 143.18 -0.09 M-0.1 170.84 C31.22 134.8, 62.55 98.76, 148.17 0.27 M-0.1 170.84 C36.81 128.37, 73.72 85.91, 148.17 0.27 M0.29 176.48 C41.62 128.94, 82.95 81.39, 153.81 -0.12 M0.29 176.48 C40.09 130.69, 79.9 84.9, 153.81 -0.12 M0.03 182.88 C36.95 140.4, 73.88 97.92, 158.8 0.24 M0.03 182.88 C44.68 131.51, 89.33 80.15, 158.8 0.24 M-0.23 189.27 C62.78 116.79, 125.79 44.3, 164.44 -0.16 M-0.23 189.27 C64.53 114.78, 129.29 40.28, 164.44 -0.16 M0.16 194.92 C42.48 146.23, 84.8 97.55, 169.43 0.2 M0.16 194.92 C65.69 119.54, 131.21 44.17, 169.43 0.2 M-0.1 201.32 C50.6 142.99, 101.3 84.67, 175.07 -0.19 M-0.1 201.32 C51.18 142.32, 102.46 83.33, 175.07 -0.19 M0.3 206.96 C64.08 133.58, 127.87 60.2, 180.06 0.17 M0.3 206.96 C54.85 144.2, 109.41 81.43, 180.06 0.17 M0.03 213.36 C69.56 133.37, 139.09 53.39, 185.7 -0.23 M0.03 213.36 C55.9 149.09, 111.77 84.81, 185.7 -0.23 M-0.23 219.75 C42.87 170.17, 85.98 120.59, 190.69 0.13 M-0.23 219.75 C72.29 136.33, 144.81 52.91, 190.69 0.13 M0.17 225.4 C41.42 177.94, 82.68 130.48, 196.33 -0.26 M0.17 225.4 C73.42 141.13, 146.67 56.87, 196.33 -0.26 M-0.09 231.8 C66.16 155.57, 132.42 79.35, 201.32 0.1 M-0.09 231.8 C76.05 144.2, 152.19 56.61, 201.32 0.1 M0.3 237.44 C74.04 152.61, 147.79 67.77, 206.96 -0.3 M0.3 237.44 C57.84 171.25, 115.37 105.06, 206.96 -0.3 M0.04 243.84 C67.47 166.27, 134.89 88.7, 211.95 0.06 M0.04 243.84 C57.78 177.41, 115.53 110.98, 211.95 0.06 M-0.22 250.23 C78.53 159.64, 157.28 69.05, 217.59 -0.33 M-0.22 250.23 C86.15 150.87, 172.53 51.5, 217.59 -0.33 M0.17 255.88 C52.35 195.85, 104.54 135.82, 222.58 0.03 M0.17 255.88 C55.81 191.88, 111.44 127.88, 222.58 0.03 M-0.09 262.27 C81.96 167.88, 164.01 73.49, 228.22 -0.36 M-0.09 262.27 C73.21 177.95, 146.51 93.63, 228.22 -0.36 M0.3 267.92 C71.81 185.67, 143.31 103.41, 233.21 0 M0.3 267.92 C72.59 184.76, 144.88 101.6, 233.21 0 M0.04 274.32 C65.02 199.57, 129.99 124.82, 238.19 0.36 M0.04 274.32 C61.37 203.76, 122.7 133.21, 238.19 0.36 M-0.22 280.71 C85.57 182.03, 171.35 83.34, 243.84 -0.04 M-0.22 280.71 C64.49 206.28, 129.2 131.84, 243.84 -0.04 M0.18 286.36 C52.85 225.76, 105.52 165.17, 248.82 0.32 M0.18 286.36 C55.91 222.24, 111.65 158.13, 248.82 0.32 M-0.08 292.75 C94.57 183.86, 189.23 74.97, 254.47 -0.07 M-0.08 292.75 C86.16 193.54, 172.4 94.33, 254.47 -0.07 M0.31 298.4 C71.28 216.76, 142.24 135.12, 259.45 0.29 M0.31 298.4 C65.51 223.39, 130.71 148.39, 259.45 0.29 M0.05 304.8 C95.28 195.25, 190.5 85.7, 265.1 -0.11 M0.05 304.8 C97.67 192.49, 195.29 80.19, 265.1 -0.11 M-0.21 311.19 C92.73 204.27, 185.67 97.36, 270.08 0.25 M-0.21 311.19 C103.32 192.09, 206.85 73, 270.08 0.25 M0.18 316.84 C80.77 224.13, 161.36 131.42, 275.73 -0.14 M0.18 316.84 C56.14 252.46, 112.1 188.09, 275.73 -0.14 M-0.08 323.23 C82.56 228.17, 165.19 133.11, 280.71 0.22 M-0.08 323.23 C76.89 234.69, 153.85 146.16, 280.71 0.22 M0.31 328.88 C96.9 217.77, 193.48 106.66, 286.36 -0.18 M0.31 328.88 C87.56 228.51, 174.8 128.15, 286.36 -0.18 M0.05 335.27 C112.24 206.22, 224.43 77.16, 291.34 0.18 M0.05 335.27 C114.53 203.59, 229 71.9, 291.34 0.18 M-0.21 341.67 C73.65 256.7, 147.52 171.73, 296.99 -0.21 M-0.21 341.67 C103.37 222.52, 206.95 103.37, 296.99 -0.21 M0.19 347.32 C79.81 255.72, 159.44 164.12, 301.97 0.15 M0.19 347.32 C66.68 270.82, 133.18 194.32, 301.97 0.15 M3.21 349.94 C114.71 221.66, 226.22 93.39, 307.62 -0.25 M3.21 349.94 C70.33 272.72, 137.46 195.49, 307.62 -0.25 M8.19 350.3 C119.42 222.35, 230.64 94.4, 312.6 0.11 M8.19 350.3 C84.1 262.98, 160 175.66, 312.6 0.11 M13.18 350.66 C80.21 273.55, 147.23 196.45, 318.25 -0.28 M13.18 350.66 C80.43 273.3, 147.67 195.94, 318.25 -0.28 M18.82 350.27 C113.86 240.94, 208.89 131.61, 323.23 0.08 M18.82 350.27 C136.22 215.22, 253.62 80.17, 323.23 0.08 M23.81 350.63 C122.94 236.59, 222.06 122.56, 328.88 -0.31 M23.81 350.63 C103.18 259.32, 182.55 168.02, 328.88 -0.31 M29.45 350.23 C125.12 240.18, 220.78 130.14, 333.86 0.05 M29.45 350.23 C135.21 228.57, 240.97 106.91, 333.86 0.05 M34.44 350.59 C152.1 215.23, 269.77 79.88, 339.51 -0.35 M34.44 350.59 C115.02 257.89, 195.6 165.2, 339.51 -0.35 M40.08 350.2 C152.42 220.97, 264.75 91.74, 344.49 0.01 M40.08 350.2 C120.85 257.28, 201.62 164.37, 344.49 0.01 M45.07 350.56 C134.33 247.88, 223.58 145.2, 349.48 0.37 M45.07 350.56 C157.48 221.25, 269.88 91.94, 349.48 0.37 M50.71 350.16 C130.3 258.6, 209.9 167.04, 355.12 -0.02 M50.71 350.16 C136.71 251.23, 222.71 152.3, 355.12 -0.02 M55.7 350.52 C154.57 236.79, 253.43 123.05, 358.8 1.85 M55.7 350.52 C154.19 237.22, 252.68 123.92, 358.8 1.85 M61.34 350.13 C169.53 225.67, 277.72 101.22, 358.54 8.24 M61.34 350.13 C166.75 228.87, 272.15 107.62, 358.54 8.24 M66.33 350.49 C168.98 232.4, 271.64 114.31, 358.93 13.89 M66.33 350.49 C152.09 251.83, 237.86 153.17, 358.93 13.89 M71.97 350.09 C139.83 272.03, 207.69 193.97, 358.67 20.28 M71.97 350.09 C143.63 267.66, 215.29 185.22, 358.67 20.28 M76.96 350.45 C139.27 278.78, 201.57 207.1, 359.07 25.93 M76.96 350.45 C146.97 269.92, 216.98 189.38, 359.07 25.93 M82.6 350.06 C145.27 277.97, 207.94 205.88, 358.8 32.33 M82.6 350.06 C179 239.17, 275.4 128.27, 358.8 32.33 M87.59 350.42 C189.87 232.76, 292.15 115.1, 358.54 38.72 M87.59 350.42 C189.75 232.9, 291.9 115.38, 358.54 38.72 M93.23 350.02 C164.87 267.62, 236.5 185.21, 358.94 44.37 M93.23 350.02 C158.34 275.13, 223.44 200.23, 358.94 44.37 M98.22 350.38 C163.18 275.65, 228.14 200.93, 358.68 50.76 M98.22 350.38 C170.92 266.76, 243.61 183.13, 358.68 50.76 M103.86 349.99 C177.18 265.64, 250.5 181.3, 359.07 56.41 M103.86 349.99 C191.57 249.1, 279.27 148.2, 359.07 56.41 M108.85 350.35 C172.05 277.64, 235.26 204.93, 358.81 62.81 M108.85 350.35 C200.42 245.01, 291.99 139.68, 358.81 62.81 M114.49 349.95 C209.65 240.48, 304.82 131.01, 358.55 69.2 M114.49 349.95 C178.7 276.1, 242.9 202.24, 358.55 69.2 M119.48 350.31 C213.24 242.46, 306.99 134.61, 358.94 74.85 M119.48 350.31 C182.48 277.84, 245.49 205.36, 358.94 74.85 M125.12 349.92 C189.34 276.05, 253.55 202.18, 358.68 81.24 M125.12 349.92 C179.76 287.07, 234.39 224.22, 358.68 81.24 M130.11 350.28 C188.87 282.69, 247.63 215.09, 359.07 86.89 M130.11 350.28 C177.35 295.93, 224.6 241.59, 359.07 86.89 M135.1 350.64 C185.95 292.14, 236.8 233.64, 358.81 93.28 M135.1 350.64 C202.08 273.59, 269.05 196.54, 358.81 93.28 M140.74 350.25 C190.16 293.4, 239.58 236.55, 358.55 99.68 M140.74 350.25 C194.2 288.75, 247.66 227.25, 358.55 99.68 M145.73 350.61 C213.85 272.24, 281.97 193.87, 358.95 105.33 M145.73 350.61 C212.92 273.31, 280.11 196.02, 358.95 105.33 M151.37 350.21 C207.03 286.18, 262.7 222.14, 358.69 111.72 M151.37 350.21 C201.61 292.42, 251.85 234.62, 358.69 111.72 M156.36 350.57 C199.23 301.26, 242.1 251.94, 359.08 117.37 M156.36 350.57 C227.17 269.12, 297.98 187.66, 359.08 117.37 M162 350.18 C227.97 274.29, 293.94 198.4, 358.82 123.76 M162 350.18 C215.43 288.72, 268.85 227.26, 358.82 123.76 M166.99 350.54 C234.17 273.26, 301.34 195.98, 358.56 130.16 M166.99 350.54 C221.12 288.27, 275.25 226, 358.56 130.16 M172.63 350.14 C241.22 271.23, 309.82 192.32, 358.95 135.8 M172.63 350.14 C213.56 303.06, 254.49 255.98, 358.95 135.8 M177.62 350.5 C244.99 273, 312.36 195.5, 358.69 142.2 M177.62 350.5 C215.3 307.16, 252.98 263.81, 358.69 142.2 M183.26 350.11 C235.32 290.22, 287.39 230.32, 359.08 147.85 M183.26 350.11 C251.2 271.95, 319.15 193.79, 359.08 147.85 M188.25 350.47 C239.1 291.97, 289.96 233.46, 358.82 154.24 M188.25 350.47 C227.74 305.03, 267.24 259.6, 358.82 154.24 M193.89 350.07 C232.63 305.51, 271.38 260.94, 358.56 160.64 M193.89 350.07 C240.6 296.34, 287.3 242.62, 358.56 160.64 M198.88 350.43 C253.12 288.04, 307.35 225.64, 358.96 166.28 M198.88 350.43 C242.28 300.51, 285.67 250.59, 358.96 166.28 M204.52 350.04 C249.13 298.72, 293.74 247.4, 358.69 172.68 M204.52 350.04 C240.86 308.24, 277.2 266.43, 358.69 172.68 M209.51 350.4 C253.12 300.22, 296.74 250.05, 359.09 178.33 M209.51 350.4 C248.01 306.1, 286.52 261.81, 359.09 178.33 M215.15 350 C265.37 292.23, 315.59 234.46, 358.83 184.72 M215.15 350 C269.68 287.27, 324.21 224.54, 358.83 184.72 M220.14 350.36 C267.4 296, 314.66 241.63, 358.57 191.12 M220.14 350.36 C266.32 297.23, 312.51 244.1, 358.57 191.12 M225.78 349.97 C265.01 304.84, 304.25 259.71, 358.96 196.76 M225.78 349.97 C261.02 309.44, 296.25 268.9, 358.96 196.76 M230.77 350.33 C264.12 311.96, 297.48 273.59, 358.7 203.16 M230.77 350.33 C263.45 312.74, 296.13 275.14, 358.7 203.16 M236.41 349.94 C284.34 294.8, 332.27 239.67, 359.09 208.8 M236.41 349.94 C267.41 314.27, 298.42 278.61, 359.09 208.8 M241.4 350.3 C266 321.99, 290.6 293.69, 358.83 215.2 M241.4 350.3 C287.32 297.47, 333.24 244.65, 358.83 215.2 M246.39 350.66 C279.09 313.04, 311.79 275.42, 358.57 221.6 M246.39 350.66 C282.1 309.57, 317.82 268.48, 358.57 221.6 M252.03 350.26 C287.87 309.03, 323.72 267.79, 358.97 227.24 M252.03 350.26 C286.35 310.77, 320.68 271.29, 358.97 227.24 M257.02 350.62 C281.25 322.74, 305.48 294.87, 358.7 233.64 M257.02 350.62 C282.28 321.56, 307.54 292.5, 358.7 233.64 M262.66 350.23 C298.61 308.87, 334.56 267.51, 359.1 239.28 M262.66 350.23 C285.66 323.76, 308.67 297.3, 359.1 239.28 M267.65 350.59 C291.34 323.33, 315.03 296.08, 358.84 245.68 M267.65 350.59 C289.75 325.16, 311.85 299.73, 358.84 245.68 M273.29 350.19 C294.16 326.18, 315.03 302.17, 358.58 252.08 M273.29 350.19 C303.08 315.92, 332.88 281.65, 358.58 252.08 M278.28 350.55 C308.31 316, 338.34 281.45, 358.97 257.72 M278.28 350.55 C303.46 321.58, 328.64 292.61, 358.97 257.72 M283.92 350.16 C303.44 327.7, 322.96 305.25, 358.71 264.12 M283.92 350.16 C304.23 326.8, 324.53 303.44, 358.71 264.12 M288.91 350.52 C315.52 319.9, 342.14 289.28, 359.1 269.76 M288.91 350.52 C308.7 327.75, 328.49 304.98, 359.1 269.76 M294.55 350.12 C315.06 326.53, 335.57 302.94, 358.84 276.16 M294.55 350.12 C309.71 332.68, 324.87 315.24, 358.84 276.16 M299.54 350.48 C315.59 332.01, 331.65 313.54, 358.58 282.56 M299.54 350.48 C322.5 324.07, 345.46 297.65, 358.58 282.56 M305.18 350.09 C321.52 331.29, 337.86 312.49, 358.98 288.2 M305.18 350.09 C320.53 332.43, 335.87 314.78, 358.98 288.2 M310.17 350.45 C321.3 337.64, 332.43 324.84, 358.71 294.6 M310.17 350.45 C323.87 334.68, 337.58 318.91, 358.71 294.6 M315.81 350.05 C328.26 335.72, 340.72 321.4, 359.11 300.24 M315.81 350.05 C327.75 336.32, 339.68 322.59, 359.11 300.24 M320.8 350.41 C329.06 340.9, 337.33 331.39, 358.85 306.64 M320.8 350.41 C329.33 340.6, 337.86 330.79, 358.85 306.64 M326.44 350.02 C337.07 337.79, 347.7 325.56, 358.59 313.04 M326.44 350.02 C335.28 339.85, 344.13 329.67, 358.59 313.04 M331.43 350.38 C342.17 338.02, 352.91 325.67, 358.98 318.68 M331.43 350.38 C339.39 341.22, 347.35 332.06, 358.98 318.68 M337.07 349.99 C343.14 343, 349.21 336.01, 358.72 325.08 M337.07 349.99 C344.96 340.91, 352.84 331.84, 358.72 325.08 M342.06 350.35 C346.97 344.69, 351.88 339.04, 359.11 330.72 M342.06 350.35 C348.25 343.22, 354.45 336.09, 359.11 330.72 M347.7 349.95 C351.85 345.18, 355.99 340.41, 358.85 337.12 M347.7 349.95 C350.34 346.92, 352.97 343.89, 358.85 337.12 M352.69 350.31 C354.11 348.68, 355.53 347.04, 358.59 343.52 M352.69 350.31 C354.73 347.95, 356.78 345.6, 358.59 343.52" stroke="#fff" stroke-width="0.5" fill="none"></path><path d="M0 0 C96.59 0, 193.18 0, 356.67 0 M0 0 C97.03 0, 194.05 0, 356.67 0 M356.67 0 C356.67 128.4, 356.67 256.8, 356.67 347.78 M356.67 0 C356.67 87.79, 356.67 175.59, 356.67 347.78 M356.67 347.78 C228.92 347.78, 101.17 347.78, 0 347.78 M356.67 347.78 C232.96 347.78, 109.26 347.78, 0 347.78 M0 347.78 C0 228.13, 0 108.49, 0 0 M0 347.78 C0 275.22, 0 202.65, 0 0" stroke="#000000" stroke-width="1" fill="none"></path></g><g transform="translate(55.61604111156794 15.72552117460873) rotate(0 137.5 11)"><text x="137.5" y="16" font-family="Virgil, Segoe UI Emoji" font-size="17.678798363929268px" fill="#000000" text-anchor="middle" style="white-space: pre;" direction="ltr">Let's practice what we learned</text></g><g transform="translate(75.9488086027959 65.83584403168788) rotate(0 22.5 19.5)"><text x="22.5" y="27" font-family="Virgil, Segoe UI Emoji" font-size="28px" fill="#000000" text-anchor="middle" style="white-space: pre;" direction="rtl">بحث</text></g><g transform="translate(172.06053134670583 71.20778218808846) rotate(0 37.5 16)"><text x="37.5" y="23" font-family="Virgil, Segoe UI Emoji" font-size="23.433516823172702px" fill="#000" text-anchor="middle" style="white-space: pre;" direction="rtl">ب+ح+ث</text></g><g transform="translate(74.99560341798133 120.11777404388704) rotate(0 25.5 20)"><text x="25.5" y="28" font-family="Virgil, Segoe UI Emoji" font-size="29.111111111111125px" fill="#000000" text-anchor="middle" style="white-space: pre;" direction="rtl">سیب</text></g><g transform="translate(168.79785227044886 124.75541808273556) rotate(0 43 17)"><text x="43" y="24" font-family="Virgil, Segoe UI Emoji" font-size="24.363418284409725px" fill="#000000" text-anchor="middle" style="white-space: pre;" direction="rtl">س+ی+ب</text></g><g transform="translate(77.51429357445068 169.07350425822005) rotate(0 23.5 20)"><text x="23.5" y="28" font-family="Virgil, Segoe UI Emoji" font-size="29.12444789851476px" fill="#000000" text-anchor="middle" style="white-space: pre;" direction="rtl">پانی</text></g><g transform="translate(163.9501835464489 174.86429479209255) rotate(0 49.5 17)"><text x="49.5" y="24" font-family="Virgil, Segoe UI Emoji" font-size="24.37457999269509px" fill="#000000" text-anchor="middle" style="white-space: pre;" direction="rtl">پ+ا+ن+ی</text></g><g transform="translate(59.42806378450405 306.0651638109757) rotate(0 27.5 19.5)"><text x="27.5" y="27" font-family="Virgil, Segoe UI Emoji" font-size="28px" fill="#000000" text-anchor="middle" style="white-space: pre;" direction="rtl">جشن</text></g><g transform="translate(169.82027591803035 311.99076786842033) rotate(0 40.5 16.5)"><text x="40.5" y="23" font-family="Virgil, Segoe UI Emoji" font-size="23.97205215126855px" fill="#000000" text-anchor="middle" style="white-space: pre;" direction="rtl">ج+ش+ن</text></g><g transform="translate(49.94880860279591 259.8132888457276) rotate(0 37.5 19.5)"><text x="37.5" y="27" font-family="Virgil, Segoe UI Emoji" font-size="28px" fill="#000000" text-anchor="middle" style="white-space: pre;" direction="rtl">چاشنی</text></g><g transform="translate(169.02263464396128 264.40410977469037) rotate(0 65 16)"><text x="65" y="23" font-family="Virgil, Segoe UI Emoji" font-size="23.433516823172702px" fill="#000000" text-anchor="middle" style="white-space: pre;" direction="rtl">چ+ا+ش+ن+ی</text></g><g transform="translate(91.25067064852738 216.4612827228575) rotate(0 17.5 19.5)"><text x="17.5" y="27" font-family="Virgil, Segoe UI Emoji" font-size="28px" fill="#000000" text-anchor="middle" style="white-space: pre;" direction="rtl">پاپا</text></g><g transform="translate(170.1943104851216 222.48415190212654) rotate(0 45 16)"><text x="45" y="23" font-family="Virgil, Segoe UI Emoji" font-size="23.433516823172702px" fill="#000000" text-anchor="middle" style="white-space: pre;" direction="rtl">پ+ا+پ+ا</text></g><g transform="translate(81.40476190476329 39.52688440443853) rotate(0 115.5 10)"><text x="115.5" y="14" font-family="Virgil, Segoe UI Emoji" font-size="16px" fill="#e67700" text-anchor="middle" style="white-space: pre;" direction="ltr">baap-nitish-hockey-khelo-janch</text></g></svg>