<svg version="1.1" xmlns="http://www.w3.org/2000/svg" viewBox="0 0 379 373" width="379" height="373">
  <!-- svg-source:excalidraw -->
  
  <defs>
    <style>
      @font-face {
        font-family: "Virgil";
        src: url("https://excalidraw.com/Virgil.woff2");
      }
      @font-face {
        font-family: "Cascadia";
        src: url("https://excalidraw.com/Cascadia.woff2");
      }
    </style>
  </defs>
  <rect x="0" y="0" width="379" height="373" fill="#ffffff"></rect><g stroke-linecap="round" transform="translate(145.5 132.1101874113083) rotate(0 41 40)"><path d="M43.7 0.82 C50.99 0.8, 60.56 3.57, 66.58 7.75 C72.6 11.93, 77.31 19.08, 79.81 25.9 C82.31 32.72, 83.32 41.48, 81.57 48.67 C79.83 55.86, 74.61 64, 69.33 69.03 C64.04 74.05, 57.07 77.35, 49.86 78.82 C42.66 80.28, 33.25 80.32, 26.09 77.83 C18.94 75.34, 11.13 69.9, 6.94 63.88 C2.75 57.86, 1.03 48.92, 0.93 41.71 C0.83 34.5, 2.77 26.67, 6.31 20.62 C9.86 14.58, 14.14 8.66, 22.21 5.44 C30.28 2.22, 47.93 0.9, 54.71 1.3 C61.49 1.7, 63.37 7.05, 62.91 7.83 M59.72 5.53 C66.16 7.94, 73.19 14.15, 76.93 20.08 C80.67 26.01, 82.61 33.93, 82.18 41.11 C81.75 48.28, 78.93 56.9, 74.35 63.14 C69.76 69.38, 61.47 75.81, 54.68 78.54 C47.89 81.26, 40.64 81.19, 33.62 79.5 C26.6 77.8, 17.98 73.49, 12.55 68.37 C7.12 63.24, 2.89 55.59, 1.03 48.73 C-0.82 41.87, -0.95 33.94, 1.4 27.24 C3.76 20.53, 8.94 13.25, 15.18 8.52 C21.41 3.79, 31.23 -0.42, 38.81 -1.14 C46.4 -1.85, 57.16 3.15, 60.69 4.23 C64.22 5.3, 60.2 4.67, 59.99 5.31" stroke="none" stroke-width="0" fill="#fff"></path><path d="M35.26 -0.16 C42.2 -1.48, 51.53 1.08, 58.28 4.11 C65.04 7.15, 71.89 12.04, 75.82 18.04 C79.74 24.04, 81.93 32.85, 81.81 40.1 C81.69 47.36, 79.08 55.63, 75.11 61.58 C71.14 67.52, 64.6 72.82, 58 75.76 C51.39 78.7, 42.9 80.13, 35.45 79.23 C28 78.32, 18.9 75.11, 13.3 70.33 C7.7 65.55, 3.77 57.51, 1.83 50.56 C-0.11 43.61, -0.43 35.45, 1.66 28.62 C3.75 21.8, 7.73 14.47, 14.39 9.59 C21.05 4.71, 36.3 0.85, 41.62 -0.66 C46.93 -2.17, 46.51 -0.37, 46.3 0.53 M52.8 0.69 C59.45 2.32, 67.45 8.89, 72.12 14.66 C76.8 20.43, 79.6 28.41, 80.83 35.3 C82.07 42.18, 82.64 49.67, 79.54 55.98 C76.44 62.28, 68.57 69.22, 62.22 73.11 C55.87 76.99, 48.74 79.16, 41.45 79.29 C34.15 79.43, 24.77 78.02, 18.43 73.93 C12.09 69.83, 6.48 61.22, 3.39 54.72 C0.3 48.22, -1.36 41.63, -0.09 34.94 C1.18 28.25, 6.25 20.06, 11.01 14.58 C15.78 9.09, 21.41 3.97, 28.48 2.03 C35.55 0.08, 49.28 3.05, 53.41 2.9 C57.54 2.74, 53.56 0.62, 53.26 1.11" stroke="#000000" stroke-width="1" fill="none"></path></g><g stroke-linecap="round" transform="translate(10 10) rotate(0 179.5 176.5)"><path d="M0 0 C86.07 0, 172.14 0, 359 0 M0 0 C84.85 0, 169.7 0, 359 0 M359 0 C359 84.49, 359 168.97, 359 353 M359 0 C359 104.66, 359 209.33, 359 353 M359 353 C232.14 353, 105.29 353, 0 353 M359 353 C269.39 353, 179.79 353, 0 353 M0 353 C0 213.24, 0 73.49, 0 0 M0 353 C0 221.86, 0 90.71, 0 0" stroke="#000000" stroke-width="1" fill="none"></path></g><g transform="translate(49.5 39) rotate(0 5.5 13.5)"><text x="5.5" y="20" font-family="Virgil, Segoe UI Emoji" font-size="20px" fill="#000000" text-anchor="middle" style="white-space: pre;" direction="ltr">ह</text></g><g transform="translate(308 44.5) rotate(0 28 10)"><text x="28" y="14" font-family="Virgil, Segoe UI Emoji" font-size="16px" fill="#000000" text-anchor="middle" style="white-space: pre;" direction="ltr">H/A/Ae</text></g><g transform="translate(310.5 299) rotate(0 14.5 14.5)"><text x="14.5" y="20" font-family="Virgil, Segoe UI Emoji" font-size="23.076923076923066px" fill="#000000" text-anchor="middle" style="white-space: pre;" direction="rtl">ہا</text></g><g transform="translate(177 297.75) rotate(0 18 16)"><text x="18" y="23" font-family="Virgil, Segoe UI Emoji" font-size="24.999999999999996px" fill="#000000" text-anchor="middle" style="white-space: pre;" direction="rtl">کہا</text></g><g transform="translate(55 295) rotate(0 14.5 19)"><text x="14.5" y="27" font-family="Virgil, Segoe UI Emoji" font-size="29.230769230769223px" fill="#000000" text-anchor="middle" style="white-space: pre;" direction="rtl">ـ‍م/ـہ</text></g><g transform="translate(127.5 45.22728228569031) rotate(0 59.5 10.5)"><text x="59.5" y="15" font-family="Virgil, Segoe UI Emoji" font-size="16px" fill="#000000" text-anchor="middle" style="white-space: pre;" direction="ltr">Choti/Gol he(ه)</text></g><g transform="translate(318.41058373451233 331.3663375377655) rotate(0 10 10)"><text x="10" y="14" font-family="Virgil, Segoe UI Emoji" font-size="16px" fill="#000000" text-anchor="middle" style="white-space: pre;" direction="ltr">ha</text></g><g transform="translate(188.91058373451233 331.3663375377655) rotate(0 13.5 10)"><text x="13.5" y="14" font-family="Virgil, Segoe UI Emoji" font-size="16px" fill="#000000" text-anchor="middle" style="white-space: pre;" direction="ltr">kha</text></g><g transform="translate(49.91058373451233 331.3663375377655) rotate(0 17.5 10)"><text x="17.5" y="14" font-family="Virgil, Segoe UI Emoji" font-size="16px" fill="#000000" text-anchor="middle" style="white-space: pre;" direction="ltr">final</text></g><g transform="translate(49 253.1101874113083) rotate(0 140.5 7)"><text x="140.5" y="10" font-family="Virgil, Segoe UI Emoji" font-size="10.83373493975904px" fill="#000000" text-anchor="middle" style="white-space: pre;" direction="ltr">some online font don't render hook underneath the h</text></g></svg>