<svg version="1.1" xmlns="http://www.w3.org/2000/svg" viewBox="0 0 379 373" width="379" height="373">
  <!-- svg-source:excalidraw -->
  
  <defs>
    <style>
      @font-face {
        font-family: "Virgil";
        src: url("../Virgil.woff2");;
      }
      
    </style>
  </defs>
  <rect x="0" y="0" width="379" height="373" fill="#ffffff"></rect><g stroke-linecap="round" transform="translate(10 10) rotate(0 179.5 176.5)"><path d="M0 0 C86.07 0, 172.14 0, 359 0 M0 0 C84.85 0, 169.7 0, 359 0 M359 0 C359 84.49, 359 168.97, 359 353 M359 0 C359 104.66, 359 209.33, 359 353 M359 353 C232.14 353, 105.29 353, 0 353 M359 353 C269.39 353, 179.79 353, 0 353 M0 353 C0 213.24, 0 73.49, 0 0 M0 353 C0 221.86, 0 90.71, 0 0" stroke="#000000" stroke-width="1" fill="none"></path></g><g transform="translate(49.5 39) rotate(0 5.5 13.5)"><text x="5.5" y="20" font-family="Virgil, Segoe UI Emoji" font-size="20px" fill="#000000" text-anchor="middle" style="white-space: pre;" direction="ltr">ह</text></g><g transform="translate(308 44.5) rotate(0 28 10)"><text x="28" y="14" font-family="Virgil, Segoe UI Emoji" font-size="16px" fill="#000000" text-anchor="middle" style="white-space: pre;" direction="ltr">H/A/Ae</text></g><g transform="translate(310.5 299) rotate(0 14.5 14.5)"><text x="14.5" y="20" font-family="Virgil, Segoe UI Emoji" font-size="23.076923076923066px" fill="#000000" text-anchor="middle" style="white-space: pre;" direction="rtl">ہا</text></g><g transform="translate(177 297.75) rotate(0 18 16)"><text x="18" y="23" font-family="Virgil, Segoe UI Emoji" font-size="24.999999999999996px" fill="#000000" text-anchor="middle" style="white-space: pre;" direction="rtl">کہا</text></g><g transform="translate(35.90476190476261 300.16666666666697) rotate(0 29.547619047618696 12.166666666666515)"><text x="29.54761904761868" y="17.33333333333303" font-family="Virgil, Segoe UI Emoji" font-size="18.53968253968231px" fill="#000000" text-anchor="middle" style="white-space: pre;" direction="rtl">رہ/بچہ</text></g><g transform="translate(127.5 45.22728228569031) rotate(0 59.5 10.5)"><text x="59.5" y="15" font-family="Virgil, Segoe UI Emoji" font-size="16px" fill="#000000" text-anchor="middle" style="white-space: pre;" direction="ltr">Choti/Gol he(ه)</text></g><g transform="translate(318.41058373451233 331.3663375377655) rotate(0 10 10)"><text x="10" y="14" font-family="Virgil, Segoe UI Emoji" font-size="16px" fill="#000000" text-anchor="middle" style="white-space: pre;" direction="ltr">ha</text></g><g transform="translate(188.91058373451233 331.3663375377655) rotate(0 13.5 10)"><text x="13.5" y="14" font-family="Virgil, Segoe UI Emoji" font-size="16px" fill="#000000" text-anchor="middle" style="white-space: pre;" direction="ltr">kha</text></g><g transform="translate(25.91058373451233 331.3663375377655) rotate(0 41.5 10)"><text x="41.5" y="14" font-family="Virgil, Segoe UI Emoji" font-size="16px" fill="#000000" text-anchor="middle" style="white-space: pre;" direction="ltr">Bacha/rha</text></g><g transform="translate(49.5 253.1101874113083) rotate(0 140 7)"><text x="140" y="10" font-family="Virgil, Segoe UI Emoji" font-size="10.83373493975904px" fill="#000000" text-anchor="middle" style="white-space: pre;" direction="ltr">some online font don't render hook underneath the h</text></g><g stroke-linecap="round"><g transform="translate(231.55495827316804 115.82032694884401) rotate(270.4869094577391 -50.61980818760185 33.96111079604543)"><path d="M0 0 C-2.57 7, -8.97 30.13, -15.41 42.03 C-21.84 53.93, -25.32 66.26, -38.63 71.41 C-51.93 76.56, -85.81 81.39, -95.25 72.94 C-104.7 64.49, -101.61 33.72, -95.31 20.71 C-89.01 7.69, -68.23 -0.36, -57.48 -5.17 C-46.72 -9.99, -39.08 -10.72, -30.78 -8.18 C-22.48 -5.64, -11.54 7.02, -7.69 10.07 M0 0 C-2.57 7, -8.97 30.13, -15.41 42.03 C-21.84 53.93, -25.32 66.26, -38.63 71.41 C-51.93 76.56, -85.81 81.39, -95.25 72.94 C-104.7 64.49, -101.61 33.72, -95.31 20.71 C-89.01 7.69, -68.23 -0.36, -57.48 -5.17 C-46.72 -9.99, -39.08 -10.72, -30.78 -8.18 C-22.48 -5.64, -11.54 7.02, -7.69 10.07" stroke="#000000" stroke-width="2" fill="none"></path></g></g></svg>