<svg version="1.1" xmlns="http://www.w3.org/2000/svg" viewBox="0 0 379 373" width="379" height="373">
  <!-- svg-source:excalidraw -->
  
  <defs>
    <style>
      @font-face {
        font-family: "Virgil";
        src: url("https://excalidraw.com/Virgil.woff2");
      }
      @font-face {
        font-family: "Cascadia";
        src: url("https://excalidraw.com/Cascadia.woff2");
      }
    </style>
  </defs>
  <rect x="0" y="0" width="379" height="373" fill="#ffffff"></rect><g stroke-linecap="round" transform="translate(10 10) rotate(0 179.5 176.5)"><path d="M0 0 C128.67 0, 257.34 0, 359 0 M0 0 C107.85 0, 215.7 0, 359 0 M359 0 C359 88.58, 359 177.16, 359 353 M359 0 C359 123.91, 359 247.82, 359 353 M359 353 C225.5 353, 92 353, 0 353 M359 353 C218.03 353, 77.06 353, 0 353 M0 353 C0 219.34, 0 85.67, 0 0 M0 353 C0 265.94, 0 178.88, 0 0" stroke="#000000" stroke-width="1" fill="none"></path></g><g transform="translate(49 39) rotate(0 6 13.5)"><text x="6" y="20" font-family="Virgil, Segoe UI Emoji" font-size="20px" fill="#000000" text-anchor="middle" style="white-space: pre;" direction="ltr">द</text></g><g transform="translate(327.5 42) rotate(0 8.5 12.5)"><text x="8.5" y="18" font-family="Virgil, Segoe UI Emoji" font-size="20px" fill="#000000" text-anchor="middle" style="white-space: pre;" direction="ltr">D</text></g><g transform="translate(314 299) rotate(0 11 15)"><text x="11" y="21" font-family="Virgil, Segoe UI Emoji" font-size="23.076923076923066px" fill="#000000" text-anchor="middle" style="white-space: pre;" direction="rtl">دو</text></g><g transform="translate(186.5 297.75) rotate(0 18.5 16)"><text x="18.5" y="23" font-family="Virgil, Segoe UI Emoji" font-size="24.999999999999996px" fill="#000000" text-anchor="middle" style="white-space: pre;" direction="rtl">دادا</text></g><g transform="translate(57.5 295) rotate(0 12 19)"><text x="12" y="27" font-family="Virgil, Segoe UI Emoji" font-size="29.230769230769223px" fill="#000000" text-anchor="middle" style="white-space: pre;" direction="rtl">بد</text></g><g transform="translate(157.5 42.72728228569031) rotate(0 29.5 13)"><text x="29.5" y="19" font-family="Virgil, Segoe UI Emoji" font-size="20px" fill="#000000" text-anchor="middle" style="white-space: pre;" direction="ltr">Dal(د)</text></g><g stroke-linecap="round"><g transform="translate(211.93871676855542 150.03724908828735) rotate(0 -26.913448047091833 43.26382552124346)"><path d="M0 0 C2.39 5.49, 13.63 21.1, 14.37 32.93 C15.1 44.76, 13.03 62.13, 4.39 70.98 C-4.24 79.83, -25.32 84.05, -37.44 86.04 C-49.56 88.03, -63.18 83.43, -68.33 82.91 M0 0 C2.39 5.49, 13.63 21.1, 14.37 32.93 C15.1 44.76, 13.03 62.13, 4.39 70.98 C-4.24 79.83, -25.32 84.05, -37.44 86.04 C-49.56 88.03, -63.18 83.43, -68.33 82.91" stroke="#000000" stroke-width="1" fill="none"></path></g></g><g transform="translate(325.30589962005615 329.9353584051132) rotate(0 9.5 10)"><text x="19" y="14" font-family="Virgil, Segoe UI Emoji" font-size="16px" fill="#000000" text-anchor="end" style="white-space: pre;" direction="ltr">do</text></g><g transform="translate(191.30589962005615 329.9353584051132) rotate(0 20.5 10)"><text x="41" y="14" font-family="Virgil, Segoe UI Emoji" font-size="16px" fill="#000000" text-anchor="end" style="white-space: pre;" direction="ltr">dada</text></g><g transform="translate(54.30589962005615 329.9353584051132) rotate(0 14.5 10)"><text x="29" y="14" font-family="Virgil, Segoe UI Emoji" font-size="16px" fill="#000000" text-anchor="end" style="white-space: pre;" direction="ltr">bad</text></g></svg>