<svg version="1.1" xmlns="http://www.w3.org/2000/svg" viewBox="0 0 379 373" width="379" height="373">
  <!-- svg-source:excalidraw -->
  
  <defs>
    <style>
      @font-face {
        font-family: "Virgil";
        src: url("../Virgil.woff2");;
      }
      
    </style>
  </defs>
  <rect x="0" y="0" width="379" height="373" fill="#ffffff"></rect><g stroke-linecap="round" transform="translate(10 10) rotate(0 179.5 176.5)"><path d="M0 0 C137.61 0, 275.21 0, 359 0 M0 0 C109.42 0, 218.85 0, 359 0 M359 0 C359 71.42, 359 142.84, 359 353 M359 0 C359 137.58, 359 275.16, 359 353 M359 353 C233.54 353, 108.09 353, 0 353 M359 353 C260.12 353, 161.24 353, 0 353 M0 353 C0 232.27, 0 111.55, 0 0 M0 353 C0 234.96, 0 116.93, 0 0" stroke="#000000" stroke-width="1" fill="none"></path></g><g transform="translate(48.5 39) rotate(0 6.5 13.5)"><text x="6.5" y="20" font-family="Virgil, Segoe UI Emoji" font-size="20px" fill="#000000" text-anchor="middle" style="white-space: pre;" direction="ltr">ड</text></g><g transform="translate(328.5 42) rotate(0 7.5 12.5)"><text x="7.5" y="18" font-family="Virgil, Segoe UI Emoji" font-size="20px" fill="#000000" text-anchor="middle" style="white-space: pre;" direction="ltr">Ḍ</text></g><g transform="translate(304 296) rotate(0 21 18)"><text x="21" y="26" font-family="Virgil, Segoe UI Emoji" font-size="28px" fill="#000000" text-anchor="middle" style="white-space: pre;" direction="rtl">ڈگر</text></g><g transform="translate(180 295.75) rotate(0 25 18)"><text x="25" y="26" font-family="Virgil, Segoe UI Emoji" font-size="28px" fill="#000000" text-anchor="middle" style="white-space: pre;" direction="rtl">بڈب</text></g><g transform="translate(58.5 295.4981818181823) rotate(0 12 18)"><text x="12" y="26" font-family="Virgil, Segoe UI Emoji" font-size="28px" fill="#000000" text-anchor="middle" style="white-space: pre;" direction="rtl">بڈ</text></g><g transform="translate(151 42.72728228569031) rotate(0 36 13)"><text x="36" y="19" font-family="Virgil, Segoe UI Emoji" font-size="20px" fill="#000000" text-anchor="middle" style="white-space: pre;" direction="rtl">د+ط= ڈ</text></g><g transform="translate(312.9476624727249 326.79078912734985) rotate(0 18 10)"><text x="36" y="14" font-family="Virgil, Segoe UI Emoji" font-size="16px" fill="#000000" text-anchor="end" style="white-space: pre;" direction="ltr">dagr</text></g><g transform="translate(194.94766247272491 326.79078912734985) rotate(0 13 10)"><text x="26" y="14" font-family="Virgil, Segoe UI Emoji" font-size="16px" fill="#000000" text-anchor="end" style="white-space: pre;" direction="ltr">bdb</text></g><g transform="translate(59.947662472724915 326.79078912734985) rotate(0 9 10)"><text x="18" y="14" font-family="Virgil, Segoe UI Emoji" font-size="16px" fill="#000000" text-anchor="end" style="white-space: pre;" direction="ltr">bd</text></g><g stroke-linecap="round"><g transform="translate(194.5660826953308 84.35019422997993) rotate(0 -2.3776135092647337 16.829764705882326)"><path d="M-11.19 0 C-11.12 2.18, -10.83 7.64, -10.76 13.05 C-10.69 18.47, -12.29 30.63, -10.76 32.49 C-9.23 34.34, -5.81 26, -1.58 24.16 C2.66 22.32, 11.74 20.44, 14.66 21.45 C17.58 22.46, 18.96 28.22, 15.95 30.23 C12.93 32.24, 2.95 33, -3.44 33.49 C-9.83 33.99, -19.23 33.25, -22.39 33.21 M-11.19 0 C-11.12 2.18, -10.83 7.64, -10.76 13.05 C-10.69 18.47, -12.29 30.63, -10.76 32.49 C-9.23 34.34, -5.81 26, -1.58 24.16 C2.66 22.32, 11.74 20.44, 14.66 21.45 C17.58 22.46, 18.96 28.22, 15.95 30.23 C12.93 32.24, 2.95 33, -3.44 33.49 C-9.83 33.99, -19.23 33.25, -22.39 33.21" stroke="#000000" stroke-width="1" fill="none"></path></g></g><g stroke-linecap="round"><g transform="translate(193.4793663280093 143.722302901876) rotate(0 -26.913448047091833 43.26382552124346)"><path d="M0 0 C2.39 5.49, 13.63 21.1, 14.37 32.93 C15.1 44.76, 13.03 62.13, 4.39 70.98 C-4.24 79.83, -25.32 84.05, -37.44 86.04 C-49.56 88.03, -63.18 83.43, -68.33 82.91 M0 0 C2.39 5.49, 13.63 21.1, 14.37 32.93 C15.1 44.76, 13.03 62.13, 4.39 70.98 C-4.24 79.83, -25.32 84.05, -37.44 86.04 C-49.56 88.03, -63.18 83.43, -68.33 82.91" stroke="#000000" stroke-width="1" fill="none"></path></g></g></svg>