<svg version="1.1" xmlns="http://www.w3.org/2000/svg" viewBox="0 0 379 373" width="379" height="373">
  <!-- svg-source:excalidraw -->
  
  <defs>
    <style>
      @font-face {
        font-family: "Virgil";
        src: url("../Virgil.woff2");;
      }
      
    </style>
  </defs>
  <rect x="0" y="0" width="379" height="373" fill="#ffffff"></rect><g stroke-linecap="round" transform="translate(10 10) rotate(0 179.5 176.5)"><path d="M0 0 C73.11 0, 146.22 0, 359 0 M0 0 C98.41 0, 196.83 0, 359 0 M359 0 C359 140.46, 359 280.92, 359 353 M359 0 C359 135.86, 359 271.72, 359 353 M359 353 C232.24 353, 105.48 353, 0 353 M359 353 C267.12 353, 175.24 353, 0 353 M0 353 C0 219.34, 0 85.69, 0 0 M0 353 C0 258.48, 0 163.96, 0 0" stroke="#000000" stroke-width="1" fill="none"></path></g><g transform="translate(48 39) rotate(0 7 13.5)"><text x="7" y="20" font-family="Virgil, Segoe UI Emoji" font-size="20px" fill="#000000" text-anchor="middle" style="white-space: pre;" direction="ltr">ध</text></g><g transform="translate(323 42) rotate(0 13 12.5)"><text x="13" y="18" font-family="Virgil, Segoe UI Emoji" font-size="20px" fill="#000000" text-anchor="middle" style="white-space: pre;" direction="ltr">Dh</text></g><g transform="translate(282 299) rotate(0 35 15)"><text x="35" y="21" font-family="Virgil, Segoe UI Emoji" font-size="23.076923076923066px" fill="#000000" text-anchor="middle" style="white-space: pre;" direction="rtl">دھنوش</text></g><g transform="translate(182 297.75) rotate(0 15 16)"><text x="15" y="23" font-family="Virgil, Segoe UI Emoji" font-size="24.999999999999996px" fill="#000000" text-anchor="middle" style="white-space: pre;" direction="rtl">دھ</text></g><g transform="translate(52.5 295) rotate(0 17 19)"><text x="17" y="27" font-family="Virgil, Segoe UI Emoji" font-size="29.230769230769223px" fill="#000000" text-anchor="middle" style="white-space: pre;" direction="rtl">دھ</text></g><g transform="translate(141 42.72728228569031) rotate(0 46 13)"><text x="46" y="19" font-family="Virgil, Segoe UI Emoji" font-size="20px" fill="#000000" text-anchor="middle" style="white-space: pre;" direction="rtl">د+ھ = دھ</text></g><g transform="translate(285.9351814985275 330.8966397047043) rotate(0 31 10)"><text x="62" y="14" font-family="Virgil, Segoe UI Emoji" font-size="16px" fill="#000000" text-anchor="end" style="white-space: pre;" direction="ltr">dhanush</text></g><g transform="translate(183.93518149852753 330.8966397047043) rotate(0 12 10)"><text x="24" y="14" font-family="Virgil, Segoe UI Emoji" font-size="16px" fill="#000000" text-anchor="end" style="white-space: pre;" direction="ltr">mid</text></g><g transform="translate(51.93518149852753 330.8966397047043) rotate(0 17.5 10)"><text x="35" y="14" font-family="Virgil, Segoe UI Emoji" font-size="16px" fill="#000000" text-anchor="end" style="white-space: pre;" direction="ltr">final</text></g><g stroke-linecap="round"><g transform="translate(247.72574329763074 165.3699245334974) rotate(0 -23.988951136327046 35.263825521243234)"><path d="M0 0 C2.13 4.47, 12.15 17.2, 12.81 26.84 C13.46 36.49, 11.61 50.64, 3.92 57.86 C-3.78 65.07, -22.57 68.51, -33.37 70.13 C-44.17 71.75, -56.31 68, -60.9 67.58 M0 0 C2.13 4.47, 12.15 17.2, 12.81 26.84 C13.46 36.49, 11.61 50.64, 3.92 57.86 C-3.78 65.07, -22.57 68.51, -33.37 70.13 C-44.17 71.75, -56.31 68, -60.9 67.58" stroke="#000000" stroke-width="1" fill="none"></path></g></g><g stroke-linecap="round"><g transform="translate(80.17087388038635 222.2120481609636) rotate(0 52.58249999999998 -23.19811895220755)"><path d="M0 0 C5.36 2.8, 22.73 16.27, 32.19 16.8 C41.64 17.33, 47.29 12.67, 56.75 3.2 C66.21 -6.27, 89.92 -30.67, 88.93 -40 C87.94 -49.33, 57.88 -57.47, 50.82 -52.8 C43.76 -48.13, 40.94 -22.67, 46.58 -12 C52.23 -1.33, 74.96 11.2, 84.7 11.2 C94.44 11.2, 106.86 -0.8, 105.03 -12 C103.19 -23.2, 81.59 -47.47, 73.69 -56 C65.78 -64.53, 60.28 -62, 57.59 -63.2 M0 0 C5.36 2.8, 22.73 16.27, 32.19 16.8 C41.64 17.33, 47.29 12.67, 56.75 3.2 C66.21 -6.27, 89.92 -30.67, 88.93 -40 C87.94 -49.33, 57.88 -57.47, 50.82 -52.8 C43.76 -48.13, 40.94 -22.67, 46.58 -12 C52.23 -1.33, 74.96 11.2, 84.7 11.2 C94.44 11.2, 106.86 -0.8, 105.03 -12 C103.19 -23.2, 81.59 -47.47, 73.69 -56 C65.78 -64.53, 60.28 -62, 57.59 -63.2" stroke="#000000" stroke-width="1" fill="none"></path></g></g></svg>