<svg version="1.1" xmlns="http://www.w3.org/2000/svg" viewBox="0 0 362.72023809523034 361.10011727469646" width="362.72023809523034" height="361.10011727469646">
  <!-- svg-source:excalidraw -->
  
  <defs>
    <style>
      @font-face {
        font-family: "Virgil";
        src: url("https://excalidraw.com/Virgil.woff2");
      }
      @font-face {
        font-family: "Cascadia";
        src: url("https://excalidraw.com/Cascadia.woff2");
      }
    </style>
  </defs>
  <rect x="0" y="0" width="362.72023809523034" height="361.10011727469646" fill="#ffffff"></rect><g stroke-opacity="0.7" fill-opacity="0.7" stroke-linecap="round" transform="translate(12.720238095230343 10) rotate(0 170 170)"><path d="M0 0 C82.2 0, 164.4 0, 340 0 M0 0 C88.69 0, 177.38 0, 340 0 M340 0 C340 81.35, 340 162.71, 340 340 M340 0 C340 78.4, 340 156.8, 340 340 M340 340 C258.57 340, 177.13 340, 0 340 M340 340 C207.92 340, 75.85 340, 0 340 M0 340 C0 268.19, 0 196.39, 0 0 M0 340 C0 257.26, 0 174.53, 0 0" stroke="#000000" stroke-width="1" fill="none"></path></g><g stroke-opacity="0.7" fill-opacity="0.7" transform="translate(30.59034365699017 27.489024328811865) rotate(0 51 8.5)"><text x="51" y="12" font-family="Virgil, Segoe UI Emoji" font-size="13.634638516864046px" fill="#d9480f" text-anchor="middle" style="white-space: pre;" direction="ltr">bey + diacritcs</text></g><g stroke-opacity="0.7" fill-opacity="0.7" transform="translate(175.4732666015625 22.64285714286052) rotate(0 19.5 10)"><text x="19.5" y="14" font-family="Virgil, Segoe UI Emoji" font-size="16px" fill="#d9480f" text-anchor="middle" style="white-space: pre;" direction="ltr">name</text></g><g stroke-opacity="0.7" fill-opacity="0.7" transform="translate(260.423828125 26.42343575614177) rotate(0 26.5 10)"><text x="26.5" y="14" font-family="Virgil, Segoe UI Emoji" font-size="16px" fill="#d9480f" text-anchor="middle" style="white-space: pre;" direction="ltr">English</text></g><g stroke-opacity="0.7" fill-opacity="0.7" transform="translate(64.375 49.14285714286052) rotate(0 10 19.5)"><text x="10" y="27" font-family="Virgil, Segoe UI Emoji" font-size="28px" fill="#000000" text-anchor="middle" style="white-space: pre;" direction="rtl">بَ</text></g><g stroke-opacity="0.7" fill-opacity="0.7" transform="translate(60.375 85.64285714286052) rotate(0 10 19.5)"><text x="10" y="27" font-family="Virgil, Segoe UI Emoji" font-size="28px" fill="#000000" text-anchor="middle" style="white-space: pre;" direction="rtl">بِ</text></g><g stroke-opacity="0.7" fill-opacity="0.7" transform="translate(60.375 147.14285714286052) rotate(0 10 19.5)"><text x="10" y="27" font-family="Virgil, Segoe UI Emoji" font-size="28px" fill="#000000" text-anchor="middle" style="white-space: pre;" direction="rtl">بُ</text></g><g stroke-opacity="0.7" fill-opacity="0.7" transform="translate(58.375 201.64285714286052) rotate(0 10 19.5)"><text x="10" y="27" font-family="Virgil, Segoe UI Emoji" font-size="28px" fill="#000000" text-anchor="middle" style="white-space: pre;" direction="rtl">بّ</text></g><g stroke-opacity="0.7" fill-opacity="0.7" transform="translate(145.5 58.39285714286052) rotate(0 29.5 12.5)"><text x="29.5" y="18" font-family="Virgil, Segoe UI Emoji" font-size="20px" fill="#000000" text-anchor="middle" style="white-space: pre;" direction="ltr">zabar</text></g><g stroke-opacity="0.7" fill-opacity="0.7" transform="translate(158.5 98.89285714286052) rotate(0 16.5 12.5)"><text x="16.5" y="18" font-family="Virgil, Segoe UI Emoji" font-size="20px" fill="#000000" text-anchor="middle" style="white-space: pre;" direction="ltr">zer</text></g><g stroke-opacity="0.7" fill-opacity="0.7" transform="translate(160.5 143.89285714286052) rotate(0 22 12.5)"><text x="22" y="18" font-family="Virgil, Segoe UI Emoji" font-size="20px" fill="#000000" text-anchor="middle" style="white-space: pre;" direction="ltr">pesh</text></g><g stroke-opacity="0.7" fill-opacity="0.7" transform="translate(141.25 213.89285714286052) rotate(0 46 12.5)"><text x="46" y="18" font-family="Virgil, Segoe UI Emoji" font-size="20px" fill="#000000" text-anchor="middle" style="white-space: pre;" direction="ltr">tashdeed</text></g><g stroke-opacity="0.7" fill-opacity="0.7" transform="translate(184.95578002929688 319.46432168143474) rotate(0 78 12.5)"><text x="78" y="18" font-family="Virgil, Segoe UI Emoji" font-size="20px" fill="#000000" text-anchor="middle" style="white-space: pre;" direction="ltr">khari zer/zabar</text></g><g stroke-opacity="0.7" fill-opacity="0.7" transform="translate(68.16064453125 324.10011727469646) rotate(0 4 13.5)"><text x="4" y="19" font-family="Virgil, Segoe UI Emoji" font-size="20px" fill="#000000" text-anchor="middle" style="white-space: pre;" direction="rtl">اً</text></g><g stroke-opacity="0.7" fill-opacity="0.7" transform="translate(83.15628051757812 319.56515938895427) rotate(0 30 12.5)"><text x="30" y="18" font-family="Virgil, Segoe UI Emoji" font-size="20px" fill="#000000" text-anchor="middle" style="white-space: pre;" direction="ltr">tanvin</text></g><g stroke-opacity="0.7" fill-opacity="0.7" transform="translate(10 318.8928571428605) rotate(0 22.5 12.5)"><text x="22.5" y="18" font-family="Virgil, Segoe UI Emoji" font-size="20px" fill="#000000" text-anchor="middle" style="white-space: pre;" direction="ltr">misc:</text></g><g stroke-opacity="0.7" fill-opacity="0.7" transform="translate(159.72023809523034 250) rotate(0 30.5 25)"><text x="30.5" y="18" font-family="Virgil, Segoe UI Emoji" font-size="20px" fill="#000000" text-anchor="middle" style="white-space: pre;" direction="ltr">Jazm/</text><text x="30.5" y="43" font-family="Virgil, Segoe UI Emoji" font-size="20px" fill="#000000" text-anchor="middle" style="white-space: pre;" direction="ltr">sukun</text></g><g stroke-opacity="0.7" fill-opacity="0.7" transform="translate(56.124999999999545 268.1428571428587) rotate(0 10 19.5)"><text x="10" y="27" font-family="Virgil, Segoe UI Emoji" font-size="28px" fill="#000000" text-anchor="middle" style="white-space: pre;" direction="rtl">بْ</text></g><g stroke-opacity="0.7" fill-opacity="0.7" transform="translate(271.12499999999955 60.1428571428587) rotate(0 13 12.5)"><text x="13" y="18" font-family="Virgil, Segoe UI Emoji" font-size="20px" fill="#000000" text-anchor="middle" style="white-space: pre;" direction="ltr">ba</text></g><g stroke-opacity="0.7" fill-opacity="0.7" transform="translate(277.62499999999955 94.1428571428587) rotate(0 8.5 12.5)"><text x="8.5" y="18" font-family="Virgil, Segoe UI Emoji" font-size="20px" fill="#000000" text-anchor="middle" style="white-space: pre;" direction="ltr">bi</text></g><g stroke-opacity="0.7" fill-opacity="0.7" transform="translate(274.12499999999955 154.1428571428587) rotate(0 12 12.5)"><text x="12" y="18" font-family="Virgil, Segoe UI Emoji" font-size="20px" fill="#000000" text-anchor="middle" style="white-space: pre;" direction="ltr">bu</text></g><g stroke-opacity="0.7" fill-opacity="0.7" transform="translate(275.12499999999955 214.1428571428587) rotate(0 11 12.5)"><text x="11" y="18" font-family="Virgil, Segoe UI Emoji" font-size="20px" fill="#000000" text-anchor="middle" style="white-space: pre;" direction="ltr">bb</text></g><g stroke-opacity="0.7" fill-opacity="0.7" transform="translate(251.62499999999955 276.1428571428587) rotate(0 34.5 12.5)"><text x="34.5" y="18" font-family="Virgil, Segoe UI Emoji" font-size="20px" fill="#000000" text-anchor="middle" style="white-space: pre;" direction="ltr">b(rest)</text></g><g stroke-linecap="round"><g stroke-opacity="0.7" fill-opacity="0.7" transform="translate(132.72023809523034 10) rotate(0 0 150)"><path d="M0 0 C0 50, 0 250, 0 300 M0 0 C0 50, 0 250, 0 300" stroke="#000000" stroke-width="1" fill="none"></path></g></g><g stroke-linecap="round"><g stroke-opacity="0.7" fill-opacity="0.7" transform="translate(232.72023809523034 10) rotate(0 0 150)"><path d="M0 0 C0 50, 0 250, 0 300 M0 0 C0 50, 0 250, 0 300" stroke="#000000" stroke-width="1" fill="none"></path></g></g><g stroke-linecap="round"><g stroke-opacity="0.7" fill-opacity="0.7" transform="translate(12.720238095230343 50) rotate(0 170 0)"><path d="M0 0 C56.67 0, 283.33 0, 340 0 M0 0 C56.67 0, 283.33 0, 340 0" stroke="#000000" stroke-width="1" fill="none"></path></g></g><g stroke-linecap="round"><g stroke-opacity="0.7" fill-opacity="0.7" transform="translate(12.720238095230343 310) rotate(0 170 0)"><path d="M0 0 C56.67 0, 283.33 0, 340 0 M0 0 C56.67 0, 283.33 0, 340 0" stroke="#000000" stroke-width="1" fill="none"></path></g></g><g stroke-linecap="round"><g stroke-opacity="0.7" fill-opacity="0.7" transform="translate(12.720238095230343 250) rotate(0 170 0)"><path d="M0 0 C56.67 0, 283.33 0, 340 0 M0 0 C56.67 0, 283.33 0, 340 0" stroke="#000000" stroke-width="1" fill="none"></path></g></g><g stroke-linecap="round"><g stroke-opacity="0.7" fill-opacity="0.7" transform="translate(12.720238095230343 190) rotate(0 170 0)"><path d="M0 0 C56.67 0, 283.33 0, 340 0 M0 0 C56.67 0, 283.33 0, 340 0" stroke="#000000" stroke-width="1" fill="none"></path></g></g><g stroke-linecap="round"><g stroke-opacity="0.7" fill-opacity="0.7" transform="translate(12.720238095230343 130) rotate(0 170 0)"><path d="M0 0 C56.67 0, 283.33 0, 340 0 M0 0 C56.67 0, 283.33 0, 340 0" stroke="#000000" stroke-width="1" fill="none"></path></g></g><g stroke-linecap="round"><g stroke-opacity="0.7" fill-opacity="0.7" transform="translate(12.720238095230343 90) rotate(0 170 0)"><path d="M0 0 C56.67 0, 283.33 0, 340 0 M0 0 C56.67 0, 283.33 0, 340 0" stroke="#000000" stroke-width="1" fill="none"></path></g></g></svg>