<svg version="1.1" xmlns="http://www.w3.org/2000/svg" viewBox="0 0 380 367.7777777777774" width="380" height="367.7777777777774">
  <!-- svg-source:excalidraw -->
  
  <defs>
    <style>
      @font-face {
        font-family: "Virgil";
        src: url("https://excalidraw.com/Virgil.woff2");
      }
      @font-face {
        font-family: "Cascadia";
        src: url("https://excalidraw.com/Cascadia.woff2");
      }
    </style>
  </defs>
  <rect x="0" y="0" width="380" height="367.7777777777774" fill="#ffffff"></rect><g stroke-linecap="round" transform="translate(10 10) rotate(0 178.33333333333326 173.8888888888887)"><path d="M0 0 C0 0, 0 0, 0 0 M0 0 C0 0, 0 0, 0 0 M-0.26 6.4 C1.79 4.04, 3.84 1.67, 4.99 0.36 M-0.26 6.4 C1.59 4.26, 3.45 2.13, 4.99 0.36 M0.13 12.04 C3.6 8.05, 7.06 4.07, 10.63 -0.03 M0.13 12.04 C2.37 9.47, 4.6 6.91, 10.63 -0.03 M-0.13 18.44 C5.13 12.39, 10.39 6.34, 15.62 0.33 M-0.13 18.44 C6.09 11.28, 12.31 4.13, 15.62 0.33 M0.27 24.08 C4.76 18.92, 9.25 13.75, 21.26 -0.07 M0.27 24.08 C6.01 17.47, 11.76 10.86, 21.26 -0.07 M0 30.48 C9.04 20.08, 18.08 9.68, 26.25 0.29 M0 30.48 C7.75 21.56, 15.5 12.65, 26.25 0.29 M-0.26 36.88 C12.23 22.52, 24.71 8.15, 31.89 -0.1 M-0.26 36.88 C7.98 27.4, 16.22 17.93, 31.89 -0.1 M0.14 42.52 C8.29 33.15, 16.44 23.77, 36.88 0.26 M0.14 42.52 C13.98 26.6, 27.82 10.67, 36.88 0.26 M-0.12 48.92 C10.93 36.21, 21.98 23.49, 42.52 -0.14 M-0.12 48.92 C15.93 30.45, 31.99 11.97, 42.52 -0.14 M0.27 54.56 C18.13 34.02, 35.99 13.47, 47.51 0.22 M0.27 54.56 C16.78 35.57, 33.28 16.59, 47.51 0.22 M0.01 60.96 C13 46.01, 25.99 31.07, 53.15 -0.17 M0.01 60.96 C12.68 46.39, 25.34 31.82, 53.15 -0.17 M-0.25 67.36 C13.62 51.4, 27.5 35.43, 58.14 0.19 M-0.25 67.36 C17.89 46.49, 36.03 25.62, 58.14 0.19 M0.14 73 C24.01 45.55, 47.87 18.09, 63.78 -0.21 M0.14 73 C14.96 55.95, 29.78 38.9, 63.78 -0.21 M-0.12 79.4 C16.23 60.59, 32.59 41.77, 68.77 0.15 M-0.12 79.4 C23.69 52.01, 47.49 24.63, 68.77 0.15 M0.28 85.04 C22.06 59.98, 43.85 34.92, 74.41 -0.24 M0.28 85.04 C25.39 56.15, 50.5 27.26, 74.41 -0.24 M0.01 91.44 C18.02 70.73, 36.02 50.02, 79.4 0.12 M0.01 91.44 C25.94 61.62, 51.86 31.8, 79.4 0.12 M-0.25 97.84 C21.65 72.64, 43.55 47.45, 85.04 -0.28 M-0.25 97.84 C27.24 66.22, 54.73 34.6, 85.04 -0.28 M0.15 103.48 C24.21 75.8, 48.28 48.11, 90.03 0.08 M0.15 103.48 C28.33 71.06, 56.51 38.64, 90.03 0.08 M-0.11 109.88 C31.67 73.31, 63.46 36.74, 95.67 -0.31 M-0.11 109.88 C32.18 72.73, 64.47 35.59, 95.67 -0.31 M0.28 115.52 C23.83 88.43, 47.39 61.33, 100.66 0.05 M0.28 115.52 C35.81 74.64, 71.35 33.77, 100.66 0.05 M0.02 121.92 C42.51 73.04, 85 24.15, 106.3 -0.34 M0.02 121.92 C34.5 82.25, 68.99 42.58, 106.3 -0.34 M-0.24 128.32 C23.67 100.81, 47.58 73.3, 111.29 0.02 M-0.24 128.32 C31.31 92.02, 62.87 55.72, 111.29 0.02 M0.15 133.96 C41.23 86.7, 82.31 39.45, 116.27 0.38 M0.15 133.96 C24.89 105.5, 49.64 77.03, 116.27 0.38 M-0.11 140.36 C37.29 97.34, 74.68 54.32, 121.92 -0.02 M-0.11 140.36 C39.28 95.05, 78.66 49.74, 121.92 -0.02 M0.29 146 C38.19 102.39, 76.1 58.78, 126.91 0.34 M0.29 146 C40.69 99.52, 81.1 53.03, 126.91 0.34 M0.02 152.4 C29.54 118.45, 59.05 84.49, 132.55 -0.05 M0.02 152.4 C37.59 109.18, 75.16 65.97, 132.55 -0.05 M-0.24 158.8 C48.65 102.55, 97.54 46.31, 137.54 0.31 M-0.24 158.8 C47.48 103.9, 95.2 49.01, 137.54 0.31 M0.16 164.44 C41.29 117.13, 82.41 69.81, 143.18 -0.09 M0.16 164.44 C52 104.8, 103.85 45.16, 143.18 -0.09 M-0.1 170.84 C37.09 128.05, 74.28 85.27, 148.17 0.27 M-0.1 170.84 C57.12 105.01, 114.34 39.18, 148.17 0.27 M0.29 176.48 C36.82 134.46, 73.35 92.43, 153.81 -0.12 M0.29 176.48 C53.23 115.58, 106.17 54.68, 153.81 -0.12 M0.03 182.88 C52.5 122.52, 104.97 62.16, 158.8 0.24 M0.03 182.88 C50.3 125.05, 100.56 67.22, 158.8 0.24 M-0.23 189.27 C36.53 146.98, 73.3 104.68, 164.44 -0.16 M-0.23 189.27 C33.18 150.84, 66.6 112.4, 164.44 -0.16 M0.16 194.92 C59.31 126.87, 118.46 58.83, 169.43 0.2 M0.16 194.92 C34.79 155.08, 69.42 115.24, 169.43 0.2 M-0.1 201.32 C35.89 159.92, 71.88 118.52, 175.07 -0.19 M-0.1 201.32 C51.88 141.53, 103.85 81.74, 175.07 -0.19 M0.3 206.96 C49.9 149.9, 99.5 92.84, 180.06 0.17 M0.3 206.96 C54.87 144.18, 109.44 81.41, 180.06 0.17 M0.03 213.36 C66.67 136.7, 133.3 60.05, 185.7 -0.23 M0.03 213.36 C69.41 133.54, 138.8 53.73, 185.7 -0.23 M-0.23 219.75 C55.25 155.94, 110.72 92.12, 190.69 0.13 M-0.23 219.75 C48.41 163.8, 97.05 107.85, 190.69 0.13 M0.17 225.4 C53.23 164.35, 106.3 103.31, 196.33 -0.26 M0.17 225.4 C72.51 142.18, 144.85 58.95, 196.33 -0.26 M-0.09 231.8 C77.76 142.23, 155.61 52.67, 201.32 0.1 M-0.09 231.8 C57.69 165.32, 115.48 98.84, 201.32 0.1 M0.3 237.44 C70.51 156.67, 140.72 75.9, 206.96 -0.3 M0.3 237.44 C42.56 188.82, 84.83 140.2, 206.96 -0.3 M0.04 243.84 C78.34 153.76, 156.64 63.69, 211.95 0.06 M0.04 243.84 C45.85 191.14, 91.66 138.44, 211.95 0.06 M-0.22 250.23 C82.21 155.4, 164.65 60.57, 217.59 -0.33 M-0.22 250.23 C84.89 152.32, 170.01 54.41, 217.59 -0.33 M0.17 255.88 C57.47 189.97, 114.76 124.06, 222.58 0.03 M0.17 255.88 C54.95 192.86, 109.73 129.84, 222.58 0.03 M-0.09 262.27 C48.11 206.82, 96.32 151.37, 228.22 -0.36 M-0.09 262.27 C51.29 203.17, 102.68 144.06, 228.22 -0.36 M0.3 267.92 C65.88 192.48, 131.45 117.05, 233.21 0 M0.3 267.92 C86.13 169.19, 171.95 70.46, 233.21 0 M0.04 274.32 C65.45 199.08, 130.85 123.84, 238.19 0.36 M0.04 274.32 C93.47 166.83, 186.91 59.35, 238.19 0.36 M-0.22 280.71 C69.21 200.85, 138.63 120.99, 243.84 -0.04 M-0.22 280.71 C88 179.23, 176.21 77.75, 243.84 -0.04 M0.18 286.36 C54.48 223.89, 108.78 161.43, 248.82 0.32 M0.18 286.36 C90.94 181.95, 181.7 77.53, 248.82 0.32 M-0.08 292.75 C81.89 198.46, 163.86 104.16, 254.47 -0.07 M-0.08 292.75 C99.55 178.14, 199.18 63.53, 254.47 -0.07 M0.31 298.4 C79.17 207.68, 158.02 116.97, 259.45 0.29 M0.31 298.4 C52.95 237.84, 105.59 177.28, 259.45 0.29 M0.05 304.8 C69.59 224.79, 139.14 144.79, 265.1 -0.11 M0.05 304.8 C56.25 240.14, 112.45 175.49, 265.1 -0.11 M-0.21 311.19 C55.68 246.89, 111.57 182.6, 270.08 0.25 M-0.21 311.19 C95.5 201.09, 191.22 90.98, 270.08 0.25 M0.18 316.84 C106.61 194.41, 213.03 71.98, 275.73 -0.14 M0.18 316.84 C100.64 201.27, 201.1 85.7, 275.73 -0.14 M-0.08 323.23 C59.67 254.5, 119.41 185.77, 280.71 0.22 M-0.08 323.23 C70.93 241.54, 141.95 159.85, 280.71 0.22 M0.31 328.88 C110.93 201.63, 221.55 74.37, 286.36 -0.18 M0.31 328.88 C108.37 204.58, 216.42 80.28, 286.36 -0.18 M0.05 335.27 C64.62 260.99, 129.19 186.71, 291.34 0.18 M0.05 335.27 C93.85 227.38, 187.64 119.48, 291.34 0.18 M-0.21 341.67 C109.61 215.34, 219.42 89.02, 296.99 -0.21 M-0.21 341.67 C109.08 215.95, 218.37 90.22, 296.99 -0.21 M0.19 347.32 C104.42 227.41, 208.65 107.5, 301.97 0.15 M0.19 347.32 C112.25 218.41, 224.3 89.5, 301.97 0.15 M3.21 349.94 C80.15 261.43, 157.09 172.91, 307.62 -0.25 M3.21 349.94 C75.74 266.5, 148.27 183.06, 307.62 -0.25 M8.19 350.3 C102.06 242.32, 195.92 134.34, 312.6 0.11 M8.19 350.3 C129.46 210.8, 250.72 71.31, 312.6 0.11 M13.18 350.66 C125.18 221.81, 237.19 92.97, 318.25 -0.28 M13.18 350.66 C98.77 252.2, 184.35 153.75, 318.25 -0.28 M18.82 350.27 C94.15 263.61, 169.48 176.96, 323.23 0.08 M18.82 350.27 C136.95 214.37, 255.08 78.48, 323.23 0.08 M23.81 350.63 C101.85 260.85, 179.9 171.07, 328.88 -0.31 M23.81 350.63 C137.69 219.62, 251.57 88.62, 328.88 -0.31 M29.45 350.23 C124.47 240.93, 219.48 131.63, 333.86 0.05 M29.45 350.23 C124.7 240.66, 219.94 131.09, 333.86 0.05 M34.44 350.59 C118.17 254.27, 201.9 157.95, 339.51 -0.35 M34.44 350.59 C151.19 216.29, 267.94 81.98, 339.51 -0.35 M40.08 350.2 C120.53 257.65, 200.98 165.11, 344.49 0.01 M40.08 350.2 C141.39 233.65, 242.7 117.11, 344.49 0.01 M45.07 350.56 C164.16 213.55, 283.26 76.55, 349.48 0.37 M45.07 350.56 C155.42 223.62, 265.76 96.68, 349.48 0.37 M50.71 350.16 C135.43 252.7, 220.15 155.24, 355.12 -0.02 M50.71 350.16 C171.04 211.74, 291.37 73.32, 355.12 -0.02 M55.7 350.52 C172.93 215.66, 290.16 80.8, 358.8 1.85 M55.7 350.52 C162.96 227.13, 270.22 103.74, 358.8 1.85 M61.34 350.13 C162.73 233.49, 264.12 116.85, 358.54 8.24 M61.34 350.13 C131.26 269.7, 201.18 189.26, 358.54 8.24 M66.33 350.49 C140.73 264.9, 215.13 179.31, 358.93 13.89 M66.33 350.49 C179.15 220.7, 291.97 90.92, 358.93 13.89 M71.97 350.09 C144.29 266.91, 216.6 183.72, 358.67 20.28 M71.97 350.09 C179.55 226.34, 287.12 102.59, 358.67 20.28 M76.96 350.45 C189.63 220.84, 302.3 91.23, 359.07 25.93 M76.96 350.45 C154.2 261.6, 231.43 172.75, 359.07 25.93 M82.6 350.06 C144.31 279.07, 206.03 208.08, 358.8 32.33 M82.6 350.06 C172.4 246.76, 262.19 143.46, 358.8 32.33 M87.59 350.42 C152.7 275.52, 217.8 200.63, 358.54 38.72 M87.59 350.42 C147.8 281.15, 208.01 211.89, 358.54 38.72 M93.23 350.02 C167.41 264.69, 241.59 179.35, 358.94 44.37 M93.23 350.02 C194.84 233.14, 296.44 116.26, 358.94 44.37 M98.22 350.38 C152.3 288.18, 206.37 225.97, 358.68 50.76 M98.22 350.38 C156.07 283.84, 213.91 217.3, 358.68 50.76 M103.86 349.99 C169.3 274.71, 234.73 199.44, 359.07 56.41 M103.86 349.99 C163.08 281.87, 222.29 213.75, 359.07 56.41 M108.85 350.35 C194.98 251.27, 281.11 152.19, 358.81 62.81 M108.85 350.35 C171.87 277.86, 234.89 205.36, 358.81 62.81 M114.49 349.95 C164.4 292.54, 214.31 235.13, 358.55 69.2 M114.49 349.95 C199.05 252.68, 283.61 155.4, 358.55 69.2 M119.48 350.31 C192.94 265.8, 266.41 181.29, 358.94 74.85 M119.48 350.31 C186.17 273.6, 252.86 196.88, 358.94 74.85 M125.12 349.92 C215.13 246.38, 305.14 142.84, 358.68 81.24 M125.12 349.92 C215.21 246.29, 305.3 142.65, 358.68 81.24 M130.11 350.28 C213.1 254.81, 296.08 159.35, 359.07 86.89 M130.11 350.28 C188.48 283.13, 246.86 215.98, 359.07 86.89 M135.1 350.64 C196.28 280.26, 257.45 209.88, 358.81 93.28 M135.1 350.64 C223.95 248.42, 312.81 146.2, 358.81 93.28 M140.74 350.25 C226.17 251.98, 311.59 153.71, 358.55 99.68 M140.74 350.25 C211.02 269.4, 281.3 188.54, 358.55 99.68 M145.73 350.61 C221.56 263.37, 297.4 176.13, 358.95 105.33 M145.73 350.61 C191.75 297.66, 237.78 244.72, 358.95 105.33 M151.37 350.21 C211.33 281.24, 271.29 212.26, 358.69 111.72 M151.37 350.21 C194.99 300.03, 238.61 249.86, 358.69 111.72 M156.36 350.57 C223.54 273.28, 290.73 196, 359.08 117.37 M156.36 350.57 C209.91 288.96, 263.47 227.35, 359.08 117.37 M162 350.18 C232.69 268.86, 303.38 187.54, 358.82 123.76 M162 350.18 C208.12 297.12, 254.24 244.07, 358.82 123.76 M166.99 350.54 C226.87 281.65, 286.76 212.76, 358.56 130.16 M166.99 350.54 C234.45 272.93, 301.9 195.33, 358.56 130.16 M172.63 350.14 C232.29 281.51, 291.95 212.88, 358.95 135.8 M172.63 350.14 C228.18 286.23, 283.74 222.33, 358.95 135.8 M177.62 350.5 C218.12 303.92, 258.61 257.33, 358.69 142.2 M177.62 350.5 C227.81 292.77, 277.99 235.03, 358.69 142.2 M183.26 350.11 C236.53 288.82, 289.81 227.54, 359.08 147.85 M183.26 350.11 C234.8 290.82, 286.34 231.53, 359.08 147.85 M188.25 350.47 C222.62 310.93, 256.98 271.4, 358.82 154.24 M188.25 350.47 C226.5 306.47, 264.75 262.46, 358.82 154.24 M193.89 350.07 C235.17 302.58, 276.46 255.09, 358.56 160.64 M193.89 350.07 C242.95 293.64, 292.01 237.2, 358.56 160.64 M198.88 350.43 C262.19 277.6, 325.5 204.77, 358.96 166.28 M198.88 350.43 C257.44 283.07, 316 215.7, 358.96 166.28 M204.52 350.04 C253.7 293.46, 302.88 236.89, 358.69 172.68 M204.52 350.04 C262.92 282.86, 321.32 215.68, 358.69 172.68 M209.51 350.4 C264.5 287.14, 319.49 223.88, 359.09 178.33 M209.51 350.4 C248.68 305.34, 287.85 260.28, 359.09 178.33 M215.15 350 C254.81 304.38, 294.47 258.75, 358.83 184.72 M215.15 350 C271.1 285.65, 327.04 221.29, 358.83 184.72 M220.14 350.36 C260.59 303.82, 301.05 257.29, 358.57 191.12 M220.14 350.36 C256.11 308.99, 292.08 267.61, 358.57 191.12 M225.78 349.97 C266.07 303.62, 306.36 257.28, 358.96 196.76 M225.78 349.97 C275.19 293.14, 324.59 236.3, 358.96 196.76 M230.77 350.33 C276.35 297.89, 321.94 245.45, 358.7 203.16 M230.77 350.33 C268.47 306.96, 306.17 263.59, 358.7 203.16 M236.41 349.94 C284.45 294.68, 332.48 239.42, 359.09 208.8 M236.41 349.94 C279.62 300.23, 322.83 250.52, 359.09 208.8 M241.4 350.3 C283.59 301.77, 325.77 253.23, 358.83 215.2 M241.4 350.3 C275.32 311.27, 309.25 272.24, 358.83 215.2 M246.39 350.66 C285.52 305.64, 324.65 260.62, 358.57 221.6 M246.39 350.66 C285.58 305.57, 324.77 260.48, 358.57 221.6 M252.03 350.26 C285.49 311.77, 318.95 273.27, 358.97 227.24 M252.03 350.26 C289.71 306.91, 327.4 263.56, 358.97 227.24 M257.02 350.62 C296.93 304.71, 336.84 258.79, 358.7 233.64 M257.02 350.62 C294.24 307.79, 331.47 264.97, 358.7 233.64 M262.66 350.23 C285.97 323.41, 309.29 296.58, 359.1 239.28 M262.66 350.23 C299.57 307.77, 336.47 265.31, 359.1 239.28 M267.65 350.59 C299.86 313.53, 332.07 276.47, 358.84 245.68 M267.65 350.59 C303.54 309.29, 339.44 267.99, 358.84 245.68 M273.29 350.19 C305.93 312.64, 338.57 275.1, 358.58 252.08 M273.29 350.19 C295.86 324.22, 318.44 298.25, 358.58 252.08 M278.28 350.55 C300.4 325.1, 322.53 299.64, 358.97 257.72 M278.28 350.55 C295.28 330.99, 312.29 311.43, 358.97 257.72 M283.92 350.16 C312.72 317.02, 341.53 283.89, 358.71 264.12 M283.92 350.16 C304.18 326.85, 324.44 303.54, 358.71 264.12 M288.91 350.52 C303.72 333.47, 318.54 316.42, 359.1 269.76 M288.91 350.52 C315.83 319.54, 342.76 288.57, 359.1 269.76 M294.55 350.12 C314.54 327.12, 334.54 304.12, 358.84 276.16 M294.55 350.12 C311.35 330.8, 328.14 311.48, 358.84 276.16 M299.54 350.48 C313.24 334.72, 326.94 318.96, 358.58 282.56 M299.54 350.48 C315.23 332.43, 330.93 314.37, 358.58 282.56 M305.18 350.09 C317.8 335.57, 330.43 321.04, 358.98 288.2 M305.18 350.09 C320.42 332.56, 335.65 315.03, 358.98 288.2 M310.17 350.45 C320.73 338.29, 331.3 326.13, 358.71 294.6 M310.17 350.45 C329.52 328.18, 348.88 305.91, 358.71 294.6 M315.81 350.05 C326.34 337.94, 336.86 325.84, 359.11 300.24 M315.81 350.05 C331.91 331.54, 348 313.02, 359.11 300.24 M320.8 350.41 C330.74 338.98, 340.68 327.54, 358.85 306.64 M320.8 350.41 C332.63 336.8, 344.46 323.19, 358.85 306.64 M326.44 350.02 C334.02 341.3, 341.59 332.59, 358.59 313.04 M326.44 350.02 C337.67 337.1, 348.9 324.18, 358.59 313.04 M331.43 350.38 C338.82 341.87, 346.21 333.37, 358.98 318.68 M331.43 350.38 C340.21 340.27, 349 330.16, 358.98 318.68 M337.07 349.99 C344.09 341.91, 351.11 333.83, 358.72 325.08 M337.07 349.99 C341.96 344.36, 346.85 338.73, 358.72 325.08 M342.06 350.35 C348.15 343.34, 354.24 336.33, 359.11 330.72 M342.06 350.35 C347.62 343.95, 353.18 337.55, 359.11 330.72 M347.7 349.95 C350.3 346.95, 352.91 343.96, 358.85 337.12 M347.7 349.95 C352.15 344.83, 356.6 339.71, 358.85 337.12 M352.69 350.31 C354.21 348.56, 355.74 346.8, 358.59 343.52 M352.69 350.31 C354.01 348.79, 355.33 347.27, 358.59 343.52" stroke="#fff" stroke-width="0.5" fill="none"></path><path d="M0 0 C126.28 0, 252.56 0, 356.67 0 M0 0 C74.65 0, 149.29 0, 356.67 0 M356.67 0 C356.67 129.71, 356.67 259.43, 356.67 347.78 M356.67 0 C356.67 102.45, 356.67 204.9, 356.67 347.78 M356.67 347.78 C258.7 347.78, 160.74 347.78, 0 347.78 M356.67 347.78 C239.71 347.78, 122.76 347.78, 0 347.78 M0 347.78 C0 233.37, 0 118.97, 0 0 M0 347.78 C0 265.73, 0 183.69, 0 0" stroke="#000000" stroke-width="1" fill="none"></path></g><g transform="translate(142.52080301633214 27.154092603181198) rotate(0 45.5 15)"><text x="45.5" y="21" font-family="Virgil, Segoe UI Emoji" font-size="23.46938775510202px" fill="#000000" text-anchor="middle" style="white-space: pre;" direction="ltr">Answers</text></g><g transform="translate(90.4488086027959 85.83584403168743) rotate(0 29 19.5)"><text x="29" y="27" font-family="Virgil, Segoe UI Emoji" font-size="28px" fill="#000000" text-anchor="middle" style="white-space: pre;" direction="rtl">جانور</text></g><g transform="translate(176.560531346704 91.20778218808846) rotate(0 81 15)"><text x="81" y="21" font-family="Virgil, Segoe UI Emoji" font-size="23.433516823172702px" fill="#000" text-anchor="middle" style="white-space: pre;" direction="ltr">janwar(animal)</text></g><g transform="translate(90.49560341798042 120.11777404388704) rotate(0 26 20)"><text x="26" y="28" font-family="Virgil, Segoe UI Emoji" font-size="29.111111111111125px" fill="#000000" text-anchor="middle" style="white-space: pre;" direction="rtl">جادو</text></g><g transform="translate(176.79785227044886 124.75541808273647) rotate(0 67 15.5)"><text x="67" y="22" font-family="Virgil, Segoe UI Emoji" font-size="24.363418284409725px" fill="#000000" text-anchor="middle" style="white-space: pre;" direction="ltr">jadu(magic)</text></g><g transform="translate(84.51429357445159 169.07350425822096) rotate(0 27.5 20)"><text x="27.5" y="28" font-family="Virgil, Segoe UI Emoji" font-size="29.12444789851476px" fill="#000000" text-anchor="middle" style="white-space: pre;" direction="rtl">واپس</text></g><g transform="translate(183.45018354644708 174.86429479209346) rotate(0 82 15.5)"><text x="82" y="22" font-family="Virgil, Segoe UI Emoji" font-size="24.37457999269509px" fill="#000000" text-anchor="middle" style="white-space: pre;" direction="ltr">vapas(return)</text></g><g transform="translate(100.42806378450405 286.0651638109766) rotate(0 18.5 19.5)"><text x="18.5" y="27" font-family="Virgil, Segoe UI Emoji" font-size="28px" fill="#000000" text-anchor="middle" style="white-space: pre;" direction="rtl">رات</text></g><g transform="translate(178.8774209159128 292.7031916713413) rotate(0 63.5 15)"><text x="63.5" y="21" font-family="Virgil, Segoe UI Emoji" font-size="23.433516823172702px" fill="#000000" text-anchor="middle" style="white-space: pre;" direction="ltr">raat(night)</text></g><g transform="translate(88.9488086027959 259.8132888457285) rotate(0 30.5 19.5)"><text x="30.5" y="27" font-family="Virgil, Segoe UI Emoji" font-size="28px" fill="#000000" text-anchor="middle" style="white-space: pre;" direction="rtl">دوست</text></g><g transform="translate(178.02263464396128 264.40410977469037) rotate(0 68 15)"><text x="68" y="21" font-family="Virgil, Segoe UI Emoji" font-size="23.433516823172702px" fill="#000000" text-anchor="middle" style="white-space: pre;" direction="ltr">dost(friend)</text></g><g transform="translate(94.25067064852738 216.4612827228584) rotate(0 26.5 19.5)"><text x="26.5" y="27" font-family="Virgil, Segoe UI Emoji" font-size="28px" fill="#000000" text-anchor="middle" style="white-space: pre;" direction="rtl">بارش</text></g><g transform="translate(183.1943104851198 222.48415190212563) rotate(0 64 15)"><text x="64" y="21" font-family="Virgil, Segoe UI Emoji" font-size="23.433516823172702px" fill="#000000" text-anchor="middle" style="white-space: pre;" direction="ltr">barish(rain)</text></g><g stroke-linecap="round"><g transform="translate(10 70) rotate(0 180 0)"><path d="M0 0 C60 0, 300 0, 360 0" stroke="#343a40" stroke-width="1.5" fill="none" stroke-dasharray="1.5 7"></path></g></g><g stroke-linecap="round"><g transform="translate(10 130) rotate(0 180 0)"><path d="M0 0 C60 0, 300 0, 360 0" stroke="#343a40" stroke-width="1.5" fill="none" stroke-dasharray="1.5 7"></path></g></g><g stroke-linecap="round"><g transform="translate(10 210) rotate(0 180 0)"><path d="M0 0 C60 0, 300 0, 360 0" stroke="#343a40" stroke-width="1.5" fill="none" stroke-dasharray="1.5 7"></path></g></g><g stroke-linecap="round"><g transform="translate(10 250) rotate(0 180 0)"><path d="M0 0 C60 0, 300 0, 360 0" stroke="#343a40" stroke-width="1.5" fill="none" stroke-dasharray="1.5 7"></path></g></g><g stroke-linecap="round"><g transform="translate(10 170) rotate(0 180 0)"><path d="M0 0 C60 0, 300 0, 360 0" stroke="#343a40" stroke-width="1.5" fill="none" stroke-dasharray="1.5 7"></path></g></g><g stroke-linecap="round"><g transform="translate(10 290) rotate(0 180 0)"><path d="M0 0 C60 0, 300 0, 360 0" stroke="#343a40" stroke-width="1.5" fill="none" stroke-dasharray="1.5 7"></path></g></g><g stroke-linecap="round"><g transform="translate(170 70) rotate(0 0 140)"><path d="M0 0 C0 46.67, 0 233.33, 0 280" stroke="#343a40" stroke-width="1.5" fill="none" stroke-dasharray="1.5 7"></path></g></g><g transform="translate(29.991086465714034 330) rotate(0 165 12)"><text x="165" y="17" font-family="Virgil, Segoe UI Emoji" font-size="18.748987098376595px" fill="#e67700" text-anchor="middle" style="white-space: pre;" direction="ltr">In barish('choti e' vowel is ommited)</text></g></svg>