<svg version="1.1" xmlns="http://www.w3.org/2000/svg" viewBox="0 0 380 367.7777777777776" width="380" height="367.7777777777776">
  <!-- svg-source:excalidraw -->
  
  <defs>
    <style>
      @font-face {
        font-family: "Virgil";
        src: url("https://excalidraw.com/Virgil.woff2");
      }
      @font-face {
        font-family: "Cascadia";
        src: url("https://excalidraw.com/Cascadia.woff2");
      }
    </style>
  </defs>
  <rect x="0" y="0" width="380" height="367.7777777777776" fill="#ffffff"></rect><g stroke-linecap="round" transform="translate(10 10) rotate(0 178.33333333333326 173.8888888888888)"><path d="M0 0 C0 0, 0 0, 0 0 M0 0 C0 0, 0 0, 0 0 M-0.26 6.4 C1.8 4.03, 3.85 1.66, 4.99 0.36 M-0.26 6.4 C1.54 4.32, 3.35 2.25, 4.99 0.36 M0.13 12.04 C2.69 9.09, 5.26 6.15, 10.63 -0.03 M0.13 12.04 C4.23 7.33, 8.32 2.63, 10.63 -0.03 M-0.13 18.44 C6.12 11.25, 12.37 4.06, 15.62 0.33 M-0.13 18.44 C5.01 12.52, 10.16 6.61, 15.62 0.33 M0.27 24.08 C5.81 17.71, 11.34 11.34, 21.26 -0.07 M0.27 24.08 C5.27 18.33, 10.27 12.58, 21.26 -0.07 M0 30.48 C6.11 23.46, 12.21 16.43, 26.25 0.29 M0 30.48 C10.41 18.51, 20.82 6.53, 26.25 0.29 M-0.26 36.88 C10.67 24.3, 21.6 11.73, 31.89 -0.1 M-0.26 36.88 C12.2 22.55, 24.66 8.22, 31.89 -0.1 M0.14 42.52 C12.88 27.86, 25.63 13.2, 36.88 0.26 M0.14 42.52 C8.75 32.61, 17.37 22.7, 36.88 0.26 M-0.12 48.92 C8.99 38.44, 18.1 27.95, 42.52 -0.14 M-0.12 48.92 C13.72 32.99, 27.57 17.06, 42.52 -0.14 M0.27 54.56 C17.97 34.2, 35.67 13.84, 47.51 0.22 M0.27 54.56 C16.02 36.45, 31.77 18.33, 47.51 0.22 M0.01 60.96 C11.36 47.9, 22.71 34.84, 53.15 -0.17 M0.01 60.96 C18.57 39.61, 37.12 18.27, 53.15 -0.17 M-0.25 67.36 C19.5 44.63, 39.26 21.9, 58.14 0.19 M-0.25 67.36 C23.04 40.56, 46.34 13.76, 58.14 0.19 M0.14 73 C16.43 54.26, 32.72 35.52, 63.78 -0.21 M0.14 73 C23.87 45.71, 47.6 18.41, 63.78 -0.21 M-0.12 79.4 C16.96 59.75, 34.03 40.11, 68.77 0.15 M-0.12 79.4 C23.95 51.71, 48.01 24.03, 68.77 0.15 M0.28 85.04 C18.4 64.19, 36.53 43.33, 74.41 -0.24 M0.28 85.04 C24.01 57.74, 47.74 30.44, 74.41 -0.24 M0.01 91.44 C23.89 63.97, 47.76 36.51, 79.4 0.12 M0.01 91.44 C25.04 62.65, 50.06 33.86, 79.4 0.12 M-0.25 97.84 C22.82 71.3, 45.89 44.76, 85.04 -0.28 M-0.25 97.84 C27.72 65.66, 55.69 33.49, 85.04 -0.28 M0.15 103.48 C25.48 74.33, 50.82 45.19, 90.03 0.08 M0.15 103.48 C21.7 78.69, 43.25 53.89, 90.03 0.08 M-0.11 109.88 C20.24 86.47, 40.59 63.05, 95.67 -0.31 M-0.11 109.88 C33 71.79, 66.11 33.7, 95.67 -0.31 M0.28 115.52 C36.8 73.51, 73.32 31.5, 100.66 0.05 M0.28 115.52 C28.26 83.34, 56.23 51.16, 100.66 0.05 M0.02 121.92 C35.81 80.74, 71.61 39.57, 106.3 -0.34 M0.02 121.92 C35.65 80.93, 71.29 39.93, 106.3 -0.34 M-0.24 128.32 C33.93 89, 68.11 49.68, 111.29 0.02 M-0.24 128.32 C22.08 102.64, 44.39 76.97, 111.29 0.02 M0.15 133.96 C34.65 94.27, 69.15 54.59, 116.27 0.38 M0.15 133.96 C31.64 97.74, 63.12 61.52, 116.27 0.38 M-0.11 140.36 C31.28 104.25, 62.67 68.14, 121.92 -0.02 M-0.11 140.36 C46.83 86.36, 93.77 32.36, 121.92 -0.02 M0.29 146 C42.65 97.26, 85.02 48.52, 126.91 0.34 M0.29 146 C43.36 96.45, 86.44 46.89, 126.91 0.34 M0.02 152.4 C46.56 98.86, 93.1 45.32, 132.55 -0.05 M0.02 152.4 C29.92 118.01, 59.81 83.63, 132.55 -0.05 M-0.24 158.8 C38.07 114.72, 76.39 70.65, 137.54 0.31 M-0.24 158.8 C46.86 104.62, 93.96 50.44, 137.54 0.31 M0.16 164.44 C44.6 113.32, 89.03 62.2, 143.18 -0.09 M0.16 164.44 C47.13 110.4, 94.1 56.37, 143.18 -0.09 M-0.1 170.84 C50.85 112.22, 101.81 53.6, 148.17 0.27 M-0.1 170.84 C42.6 121.71, 85.3 72.59, 148.17 0.27 M0.29 176.48 C38.03 133.07, 75.76 89.66, 153.81 -0.12 M0.29 176.48 C48.11 121.47, 95.92 66.47, 153.81 -0.12 M0.03 182.88 C53.24 121.67, 106.44 60.46, 158.8 0.24 M0.03 182.88 C32.27 145.79, 64.51 108.7, 158.8 0.24 M-0.23 189.27 C41.58 141.17, 83.39 93.07, 164.44 -0.16 M-0.23 189.27 C33.58 150.38, 67.39 111.49, 164.44 -0.16 M0.16 194.92 C41.4 147.48, 82.64 100.03, 169.43 0.2 M0.16 194.92 C55 131.83, 109.84 68.75, 169.43 0.2 M-0.1 201.32 C38.44 156.98, 76.98 112.65, 175.07 -0.19 M-0.1 201.32 C44.25 150.3, 88.59 99.29, 175.07 -0.19 M0.3 206.96 C44.86 155.69, 89.43 104.42, 180.06 0.17 M0.3 206.96 C54.25 144.89, 108.21 82.82, 180.06 0.17 M0.03 213.36 C40.24 167.11, 80.45 120.85, 185.7 -0.23 M0.03 213.36 C57.71 147.01, 115.38 80.66, 185.7 -0.23 M-0.23 219.75 C59.76 150.75, 119.75 81.74, 190.69 0.13 M-0.23 219.75 C74.9 133.33, 150.02 46.91, 190.69 0.13 M0.17 225.4 C59.7 156.91, 119.23 88.43, 196.33 -0.26 M0.17 225.4 C48.41 169.9, 96.65 114.41, 196.33 -0.26 M-0.09 231.8 C79.7 140, 159.49 48.21, 201.32 0.1 M-0.09 231.8 C55.98 167.29, 112.06 102.78, 201.32 0.1 M0.3 237.44 C68.14 159.39, 135.99 81.35, 206.96 -0.3 M0.3 237.44 C70.5 156.68, 140.7 75.92, 206.96 -0.3 M0.04 243.84 C49.85 186.54, 99.66 129.24, 211.95 0.06 M0.04 243.84 C51.28 184.89, 102.53 125.94, 211.95 0.06 M-0.22 250.23 C70.76 168.57, 141.75 86.91, 217.59 -0.33 M-0.22 250.23 C61.88 178.8, 123.97 107.36, 217.59 -0.33 M0.17 255.88 C80.14 163.89, 160.1 71.9, 222.58 0.03 M0.17 255.88 C85.38 157.85, 170.6 59.83, 222.58 0.03 M-0.09 262.27 C72.7 178.54, 145.49 94.8, 228.22 -0.36 M-0.09 262.27 C88.45 160.42, 176.99 58.57, 228.22 -0.36 M0.3 267.92 C66.88 191.33, 133.46 114.74, 233.21 0 M0.3 267.92 C50.21 210.51, 100.12 153.1, 233.21 0 M0.04 274.32 C75.53 187.48, 151.02 100.64, 238.19 0.36 M0.04 274.32 C87.2 174.05, 174.36 73.78, 238.19 0.36 M-0.22 280.71 C77.32 191.51, 154.86 102.31, 243.84 -0.04 M-0.22 280.71 C63.15 207.81, 126.52 134.91, 243.84 -0.04 M0.18 286.36 C79.21 195.44, 158.24 104.53, 248.82 0.32 M0.18 286.36 C87.28 186.16, 174.38 85.96, 248.82 0.32 M-0.08 292.75 C88.07 191.34, 176.23 89.93, 254.47 -0.07 M-0.08 292.75 C65.13 217.74, 130.34 142.72, 254.47 -0.07 M0.31 298.4 C79.7 207.06, 159.1 115.73, 259.45 0.29 M0.31 298.4 C73.88 213.77, 147.45 129.13, 259.45 0.29 M0.05 304.8 C66.41 228.45, 132.78 152.1, 265.1 -0.11 M0.05 304.8 C93.68 197.08, 187.32 89.37, 265.1 -0.11 M-0.21 311.19 C68.72 231.89, 137.65 152.59, 270.08 0.25 M-0.21 311.19 C86.95 210.93, 174.1 110.66, 270.08 0.25 M0.18 316.84 C81.78 222.97, 163.38 129.1, 275.73 -0.14 M0.18 316.84 C86.38 217.67, 172.59 118.5, 275.73 -0.14 M-0.08 323.23 C90.84 218.65, 181.75 114.06, 280.71 0.22 M-0.08 323.23 C65.66 247.6, 131.41 171.97, 280.71 0.22 M0.31 328.88 C96.78 217.9, 193.25 106.93, 286.36 -0.18 M0.31 328.88 C88.79 227.1, 177.27 125.32, 286.36 -0.18 M0.05 335.27 C75.81 248.12, 151.57 160.97, 291.34 0.18 M0.05 335.27 C116.46 201.37, 232.86 67.46, 291.34 0.18 M-0.21 341.67 C63.68 268.18, 127.57 194.68, 296.99 -0.21 M-0.21 341.67 C97.74 228.99, 195.69 116.32, 296.99 -0.21 M0.19 347.32 C120.57 208.83, 240.95 70.35, 301.97 0.15 M0.19 347.32 C64.18 273.7, 128.16 200.09, 301.97 0.15 M3.21 349.94 C112.18 224.58, 221.16 99.21, 307.62 -0.25 M3.21 349.94 C116.77 219.3, 230.34 88.65, 307.62 -0.25 M8.19 350.3 C88.15 258.32, 168.11 166.33, 312.6 0.11 M8.19 350.3 C92.54 253.27, 176.88 156.25, 312.6 0.11 M13.18 350.66 C129.88 216.41, 246.58 82.17, 318.25 -0.28 M13.18 350.66 C89.96 262.33, 166.75 174, 318.25 -0.28 M18.82 350.27 C128.83 223.71, 238.85 97.16, 323.23 0.08 M18.82 350.27 C83.63 275.71, 148.43 201.16, 323.23 0.08 M23.81 350.63 C112.98 248.05, 202.15 145.47, 328.88 -0.31 M23.81 350.63 C142.75 213.8, 261.68 76.98, 328.88 -0.31 M29.45 350.23 C148.93 212.78, 268.42 75.33, 333.86 0.05 M29.45 350.23 C105.6 262.63, 181.75 175.03, 333.86 0.05 M34.44 350.59 C119.4 252.86, 204.36 155.12, 339.51 -0.35 M34.44 350.59 C102.93 271.8, 171.42 193.01, 339.51 -0.35 M40.08 350.2 C113.44 265.81, 186.79 181.43, 344.49 0.01 M40.08 350.2 C110.71 268.95, 181.34 187.7, 344.49 0.01 M45.07 350.56 C142.43 238.55, 239.8 126.55, 349.48 0.37 M45.07 350.56 C107.48 278.76, 169.89 206.96, 349.48 0.37 M50.71 350.16 C166.16 217.35, 281.61 84.54, 355.12 -0.02 M50.71 350.16 C115.9 275.17, 181.1 200.17, 355.12 -0.02 M55.7 350.52 C171.65 217.14, 287.6 83.75, 358.8 1.85 M55.7 350.52 C174.92 213.38, 294.14 76.23, 358.8 1.85 M61.34 350.13 C140.79 258.74, 220.23 167.35, 358.54 8.24 M61.34 350.13 C140.02 259.62, 218.7 169.11, 358.54 8.24 M66.33 350.49 C130.8 276.32, 195.27 202.16, 358.93 13.89 M66.33 350.49 C143.53 261.68, 220.73 172.87, 358.93 13.89 M71.97 350.09 C173.07 233.8, 274.16 117.5, 358.67 20.28 M71.97 350.09 C147.78 262.89, 223.58 175.69, 358.67 20.28 M76.96 350.45 C182.58 228.95, 288.19 107.46, 359.07 25.93 M76.96 350.45 C162.57 251.97, 248.18 153.48, 359.07 25.93 M82.6 350.06 C157.21 264.24, 231.81 178.41, 358.8 32.33 M82.6 350.06 C167.22 252.72, 251.83 155.39, 358.8 32.33 M87.59 350.42 C188.77 234.02, 289.96 117.62, 358.54 38.72 M87.59 350.42 C144.93 284.45, 202.28 218.49, 358.54 38.72 M93.23 350.02 C157.6 275.97, 221.98 201.92, 358.94 44.37 M93.23 350.02 C171.94 259.48, 250.64 168.94, 358.94 44.37 M98.22 350.38 C185.13 250.4, 272.05 150.42, 358.68 50.76 M98.22 350.38 C176.42 260.42, 254.62 170.46, 358.68 50.76 M103.86 349.99 C175.08 268.07, 246.29 186.14, 359.07 56.41 M103.86 349.99 C193.74 246.6, 283.62 143.21, 359.07 56.41 M108.85 350.35 C198.55 247.16, 288.25 143.97, 358.81 62.81 M108.85 350.35 C182.27 265.89, 255.68 181.44, 358.81 62.81 M114.49 349.95 C206.72 243.86, 298.95 137.76, 358.55 69.2 M114.49 349.95 C164.5 292.43, 214.5 234.91, 358.55 69.2 M119.48 350.31 C200.93 256.61, 282.39 162.91, 358.94 74.85 M119.48 350.31 C198.25 259.69, 277.03 169.07, 358.94 74.85 M125.12 349.92 C200.75 262.92, 276.38 175.92, 358.68 81.24 M125.12 349.92 C217.97 243.12, 310.81 136.31, 358.68 81.24 M130.11 350.28 C211.69 256.44, 293.26 162.59, 359.07 86.89 M130.11 350.28 C211.49 256.67, 292.86 163.06, 359.07 86.89 M135.1 350.64 C199.8 276.21, 264.5 201.78, 358.81 93.28 M135.1 350.64 C199.02 277.1, 262.95 203.57, 358.81 93.28 M140.74 350.25 C200.3 281.73, 259.87 213.21, 358.55 99.68 M140.74 350.25 C213.7 266.32, 286.65 182.4, 358.55 99.68 M145.73 350.61 C195.64 293.19, 245.55 235.77, 358.95 105.33 M145.73 350.61 C196.41 292.3, 247.1 234, 358.95 105.33 M151.37 350.21 C222.98 267.84, 294.58 185.47, 358.69 111.72 M151.37 350.21 C201.54 292.5, 251.71 234.78, 358.69 111.72 M156.36 350.57 C218.37 279.24, 280.38 207.9, 359.08 117.37 M156.36 350.57 C203.81 295.98, 251.27 241.39, 359.08 117.37 M162 350.18 C203.98 301.88, 245.96 253.59, 358.82 123.76 M162 350.18 C213.86 290.52, 265.72 230.86, 358.82 123.76 M166.99 350.54 C212.88 297.74, 258.78 244.95, 358.56 130.16 M166.99 350.54 C218.34 291.47, 269.69 232.4, 358.56 130.16 M172.63 350.14 C229.62 284.58, 286.61 219.02, 358.95 135.8 M172.63 350.14 C246.94 264.66, 321.25 179.17, 358.95 135.8 M177.62 350.5 C242.37 276.01, 307.12 201.52, 358.69 142.2 M177.62 350.5 C240.13 278.59, 302.64 206.68, 358.69 142.2 M183.26 350.11 C225.34 301.7, 267.43 253.28, 359.08 147.85 M183.26 350.11 C228.96 297.53, 274.66 244.96, 359.08 147.85 M188.25 350.47 C251.35 277.88, 314.45 205.28, 358.82 154.24 M188.25 350.47 C236.66 294.77, 285.08 239.08, 358.82 154.24 M193.89 350.07 C229.69 308.89, 265.5 267.7, 358.56 160.64 M193.89 350.07 C238.55 298.7, 283.21 247.33, 358.56 160.64 M198.88 350.43 C258.76 281.55, 318.63 212.67, 358.96 166.28 M198.88 350.43 C249.22 292.52, 299.57 234.6, 358.96 166.28 M204.52 350.04 C240.18 309.01, 275.85 267.99, 358.69 172.68 M204.52 350.04 C246.08 302.23, 287.64 254.42, 358.69 172.68 M209.51 350.4 C247.64 306.54, 285.76 262.68, 359.09 178.33 M209.51 350.4 C251.45 302.15, 293.4 253.9, 359.09 178.33 M215.15 350 C252.47 307.08, 289.78 264.15, 358.83 184.72 M215.15 350 C258.89 299.69, 302.63 249.38, 358.83 184.72 M220.14 350.36 C259.58 304.99, 299.02 259.62, 358.57 191.12 M220.14 350.36 C252.97 312.59, 285.81 274.82, 358.57 191.12 M225.78 349.97 C261.59 308.78, 297.4 267.59, 358.96 196.76 M225.78 349.97 C257.44 313.55, 289.09 277.14, 358.96 196.76 M230.77 350.33 C272.23 302.63, 313.7 254.93, 358.7 203.16 M230.77 350.33 C263.14 313.09, 295.52 275.84, 358.7 203.16 M236.41 349.94 C262.48 319.95, 288.54 289.97, 359.09 208.8 M236.41 349.94 C278.59 301.41, 320.77 252.89, 359.09 208.8 M241.4 350.3 C267.22 320.59, 293.05 290.88, 358.83 215.2 M241.4 350.3 C265.9 322.11, 290.4 293.92, 358.83 215.2 M246.39 350.66 C272.38 320.75, 298.37 290.85, 358.57 221.6 M246.39 350.66 C281.12 310.69, 315.86 270.73, 358.57 221.6 M252.03 350.26 C274.19 324.76, 296.36 299.26, 358.97 227.24 M252.03 350.26 C294.5 301.41, 336.96 252.55, 358.97 227.24 M257.02 350.62 C282.98 320.76, 308.94 290.89, 358.7 233.64 M257.02 350.62 C280.88 323.17, 304.74 295.72, 358.7 233.64 M262.66 350.23 C292.43 315.98, 322.2 281.73, 359.1 239.28 M262.66 350.23 C293.92 314.26, 325.18 278.3, 359.1 239.28 M267.65 350.59 C304.08 308.68, 340.51 266.77, 358.84 245.68 M267.65 350.59 C288.69 326.38, 309.73 302.17, 358.84 245.68 M273.29 350.19 C301.78 317.41, 330.27 284.64, 358.58 252.08 M273.29 350.19 C299.55 319.98, 325.81 289.78, 358.58 252.08 M278.28 350.55 C307.97 316.39, 337.66 282.23, 358.97 257.72 M278.28 350.55 C296.21 329.92, 314.15 309.28, 358.97 257.72 M283.92 350.16 C304.93 325.99, 325.94 301.81, 358.71 264.12 M283.92 350.16 C304.79 326.15, 325.65 302.15, 358.71 264.12 M288.91 350.52 C306.59 330.17, 324.28 309.82, 359.1 269.76 M288.91 350.52 C313.21 322.55, 337.52 294.59, 359.1 269.76 M294.55 350.12 C316.04 325.4, 337.53 300.68, 358.84 276.16 M294.55 350.12 C319.02 321.97, 343.5 293.81, 358.84 276.16 M299.54 350.48 C319.03 328.06, 338.52 305.63, 358.58 282.56 M299.54 350.48 C320.32 326.57, 341.11 302.66, 358.58 282.56 M305.18 350.09 C319.51 333.6, 333.84 317.12, 358.98 288.2 M305.18 350.09 C325.01 327.28, 344.83 304.47, 358.98 288.2 M310.17 350.45 C323.21 335.44, 336.26 320.43, 358.71 294.6 M310.17 350.45 C319.95 339.19, 329.74 327.93, 358.71 294.6 M315.81 350.05 C326.09 338.23, 336.36 326.41, 359.11 300.24 M315.81 350.05 C324.94 339.55, 334.06 329.05, 359.11 300.24 M320.8 350.41 C333.03 336.34, 345.26 322.27, 358.85 306.64 M320.8 350.41 C331.04 338.63, 341.28 326.84, 358.85 306.64 M326.44 350.02 C339.13 335.42, 351.81 320.83, 358.59 313.04 M326.44 350.02 C335.7 339.37, 344.96 328.71, 358.59 313.04 M331.43 350.38 C340.51 339.93, 349.59 329.49, 358.98 318.68 M331.43 350.38 C340.85 339.54, 350.27 328.7, 358.98 318.68 M337.07 349.99 C342.98 343.18, 348.9 336.38, 358.72 325.08 M337.07 349.99 C345.59 340.18, 354.11 330.38, 358.72 325.08 M342.06 350.35 C347.54 344.03, 353.03 337.72, 359.11 330.72 M342.06 350.35 C345.79 346.05, 349.53 341.75, 359.11 330.72 M347.7 349.95 C352.11 344.88, 356.52 339.8, 358.85 337.12 M347.7 349.95 C351.41 345.68, 355.13 341.41, 358.85 337.12 M352.69 350.31 C354.54 348.18, 356.4 346.04, 358.59 343.52 M352.69 350.31 C354.53 348.19, 356.38 346.06, 358.59 343.52" stroke="#fff" stroke-width="0.5" fill="none"></path><path d="M0 0 C115.13 0, 230.26 0, 356.67 0 M0 0 C131.55 0, 263.1 0, 356.67 0 M356.67 0 C356.67 77.62, 356.67 155.24, 356.67 347.78 M356.67 0 C356.67 132.01, 356.67 264.02, 356.67 347.78 M356.67 347.78 C233.28 347.78, 109.9 347.78, 0 347.78 M356.67 347.78 C245.81 347.78, 134.96 347.78, 0 347.78 M0 347.78 C0 223.17, 0 98.56, 0 0 M0 347.78 C0 215.61, 0 83.45, 0 0" stroke="#000000" stroke-width="1" fill="none"></path></g><g transform="translate(105.52080301633214 27.154092603181198) rotate(0 82.5 15)"><text x="82.5" y="21" font-family="Virgil, Segoe UI Emoji" font-size="23.46938775510202px" fill="#000000" text-anchor="middle" style="white-space: pre;" direction="ltr">Let's practice</text></g><g transform="translate(90.4488086027959 85.83584403168743) rotate(0 29 19.5)"><text x="29" y="27" font-family="Virgil, Segoe UI Emoji" font-size="28px" fill="#000000" text-anchor="middle" style="white-space: pre;" direction="rtl">جانور</text></g><g transform="translate(201.560531346704 91.20778218808846) rotate(0 56 16)"><text x="56" y="23" font-family="Virgil, Segoe UI Emoji" font-size="23.433516823172702px" fill="#000" text-anchor="middle" style="white-space: pre;" direction="rtl">ج+ا+ن+و+ر</text></g><g transform="translate(90.49560341798042 120.11777404388704) rotate(0 26 20)"><text x="26" y="28" font-family="Virgil, Segoe UI Emoji" font-size="29.111111111111125px" fill="#000000" text-anchor="middle" style="white-space: pre;" direction="rtl">جادو</text></g><g transform="translate(199.29785227044886 124.75541808273624) rotate(0 44.5 17)"><text x="44.5" y="24" font-family="Virgil, Segoe UI Emoji" font-size="24.363418284409725px" fill="#000000" text-anchor="middle" style="white-space: pre;" direction="rtl">ج+ا+د+و</text></g><g transform="translate(84.51429357445113 169.07350425822074) rotate(0 27.5 20)"><text x="27.5" y="28" font-family="Virgil, Segoe UI Emoji" font-size="29.12444789851476px" fill="#000000" text-anchor="middle" style="white-space: pre;" direction="rtl">واپس</text></g><g transform="translate(194.45018354644708 174.86429479209323) rotate(0 51 17)"><text x="51" y="24" font-family="Virgil, Segoe UI Emoji" font-size="24.37457999269509px" fill="#000000" text-anchor="middle" style="white-space: pre;" direction="rtl">و+ا+پ+س</text></g><g transform="translate(100.42806378450405 306.0651638109764) rotate(0 18.5 19.5)"><text x="18.5" y="27" font-family="Virgil, Segoe UI Emoji" font-size="28px" fill="#000000" text-anchor="middle" style="white-space: pre;" direction="rtl">رات</text></g><g transform="translate(190.8774209159128 312.7031916713411) rotate(0 31.5 16)"><text x="31.5" y="23" font-family="Virgil, Segoe UI Emoji" font-size="23.433516823172702px" fill="#000000" text-anchor="middle" style="white-space: pre;" direction="rtl">ر+ا+ت</text></g><g transform="translate(88.9488086027959 259.81328884572827) rotate(0 30.5 19.5)"><text x="30.5" y="27" font-family="Virgil, Segoe UI Emoji" font-size="28px" fill="#000000" text-anchor="middle" style="white-space: pre;" direction="rtl">دوست</text></g><g transform="translate(195.52263464396128 264.4041097746906) rotate(0 50.5 16)"><text x="50.5" y="23" font-family="Virgil, Segoe UI Emoji" font-size="23.433516823172702px" fill="#000000" text-anchor="middle" style="white-space: pre;" direction="rtl">د+و+س+ت</text></g><g transform="translate(94.25067064852738 216.4612827228582) rotate(0 26.5 19.5)"><text x="26.5" y="27" font-family="Virgil, Segoe UI Emoji" font-size="28px" fill="#000000" text-anchor="middle" style="white-space: pre;" direction="rtl">بارش</text></g><g transform="translate(197.6943104851198 222.48415190212586) rotate(0 49.5 16)"><text x="49.5" y="23" font-family="Virgil, Segoe UI Emoji" font-size="23.433516823172702px" fill="#000000" text-anchor="middle" style="white-space: pre;" direction="rtl">ب+ا+ر+ش</text></g><g stroke-linecap="round"><g transform="translate(10 70) rotate(0 180 0)"><path d="M0 0 C60 0, 300 0, 360 0" stroke="#343a40" stroke-width="1.5" fill="none" stroke-dasharray="1.5 7"></path></g></g><g stroke-linecap="round"><g transform="translate(10 130) rotate(0 180 0)"><path d="M0 0 C60 0, 300 0, 360 0" stroke="#343a40" stroke-width="1.5" fill="none" stroke-dasharray="1.5 7"></path></g></g><g stroke-linecap="round"><g transform="translate(10 210) rotate(0 180 0)"><path d="M0 0 C60 0, 300 0, 360 0" stroke="#343a40" stroke-width="1.5" fill="none" stroke-dasharray="1.5 7"></path></g></g><g stroke-linecap="round"><g transform="translate(10 250) rotate(0 180 0)"><path d="M0 0 C60 0, 300 0, 360 0" stroke="#343a40" stroke-width="1.5" fill="none" stroke-dasharray="1.5 7"></path></g></g><g stroke-linecap="round"><g transform="translate(10 170) rotate(0 180 0)"><path d="M0 0 C60 0, 300 0, 360 0" stroke="#343a40" stroke-width="1.5" fill="none" stroke-dasharray="1.5 7"></path></g></g><g stroke-linecap="round"><g transform="translate(10 290) rotate(0 180 0)"><path d="M0 0 C60 0, 300 0, 360 0" stroke="#343a40" stroke-width="1.5" fill="none" stroke-dasharray="1.5 7"></path></g></g><g stroke-linecap="round"><g transform="translate(170 70) rotate(0 0 140)"><path d="M0 0 C0 46.67, 0 233.33, 0 280" stroke="#343a40" stroke-width="1.5" fill="none" stroke-dasharray="1.5 7"></path></g></g></svg>