<svg version="1.1" xmlns="http://www.w3.org/2000/svg" viewBox="0 0 376.6666666666665 367.7777777777778" width="376.6666666666665" height="367.7777777777778">
  <!-- svg-source:excalidraw -->
  
  <defs>
    <style>
      @font-face {
        font-family: "Virgil";
        src: url("https://excalidraw.com/Virgil.woff2");
      }
      @font-face {
        font-family: "Cascadia";
        src: url("https://excalidraw.com/Cascadia.woff2");
      }
    </style>
  </defs>
  <rect x="0" y="0" width="376.6666666666665" height="367.7777777777778" fill="#ffffff"></rect><g stroke-linecap="round" transform="translate(10 10) rotate(0 178.33333333333326 173.8888888888889)"><path d="M0 0 C0 0, 0 0, 0 0 M0 0 C0 0, 0 0, 0 0 M-0.26 6.4 C1.37 4.52, 3.01 2.64, 4.99 0.36 M-0.26 6.4 C0.95 5.01, 2.16 3.61, 4.99 0.36 M0.13 12.04 C2.26 9.6, 4.38 7.15, 10.63 -0.03 M0.13 12.04 C2.51 9.3, 4.89 6.57, 10.63 -0.03 M-0.13 18.44 C3.95 13.75, 8.02 9.06, 15.62 0.33 M-0.13 18.44 C4.45 13.17, 9.02 7.91, 15.62 0.33 M0.27 24.08 C8.21 14.94, 16.15 5.8, 21.26 -0.07 M0.27 24.08 C5.56 17.99, 10.86 11.89, 21.26 -0.07 M0 30.48 C7.15 22.26, 14.3 14.03, 26.25 0.29 M0 30.48 C8.6 20.59, 17.19 10.71, 26.25 0.29 M-0.26 36.88 C12.38 22.34, 25.02 7.8, 31.89 -0.1 M-0.26 36.88 C10.63 24.35, 21.52 11.83, 31.89 -0.1 M0.14 42.52 C13.45 27.21, 26.76 11.9, 36.88 0.26 M0.14 42.52 C8.89 32.45, 17.64 22.39, 36.88 0.26 M-0.12 48.92 C12.61 34.28, 25.33 19.63, 42.52 -0.14 M-0.12 48.92 C13.91 32.78, 27.94 16.64, 42.52 -0.14 M0.27 54.56 C11.91 41.18, 23.54 27.79, 47.51 0.22 M0.27 54.56 C18.56 33.52, 36.85 12.48, 47.51 0.22 M0.01 60.96 C16.15 42.39, 32.29 23.83, 53.15 -0.17 M0.01 60.96 C15.09 43.61, 30.17 26.26, 53.15 -0.17 M-0.25 67.36 C14.37 50.54, 28.99 33.72, 58.14 0.19 M-0.25 67.36 C17.63 46.78, 35.51 26.21, 58.14 0.19 M0.14 73 C17.71 52.8, 35.27 32.59, 63.78 -0.21 M0.14 73 C24.38 45.12, 48.61 17.24, 63.78 -0.21 M-0.12 79.4 C14.22 62.91, 28.55 46.42, 68.77 0.15 M-0.12 79.4 C27.03 48.17, 54.17 16.94, 68.77 0.15 M0.28 85.04 C18.1 64.54, 35.92 44.03, 74.41 -0.24 M0.28 85.04 C16.21 66.71, 32.15 48.38, 74.41 -0.24 M0.01 91.44 C28.66 58.48, 57.31 25.53, 79.4 0.12 M0.01 91.44 C17.21 71.66, 34.4 51.88, 79.4 0.12 M-0.25 97.84 C23.62 70.38, 47.48 42.93, 85.04 -0.28 M-0.25 97.84 C25.19 68.57, 50.63 39.31, 85.04 -0.28 M0.15 103.48 C23.34 76.8, 46.52 50.13, 90.03 0.08 M0.15 103.48 C18.76 82.07, 37.37 60.65, 90.03 0.08 M-0.11 109.88 C22.38 84, 44.87 58.13, 95.67 -0.31 M-0.11 109.88 C34.37 70.2, 68.86 30.53, 95.67 -0.31 M0.28 115.52 C26.02 85.91, 51.77 56.29, 100.66 0.05 M0.28 115.52 C37.01 73.27, 73.73 31.03, 100.66 0.05 M0.02 121.92 C21.69 96.99, 43.37 72.05, 106.3 -0.34 M0.02 121.92 C26.25 91.75, 52.48 61.57, 106.3 -0.34 M-0.24 128.32 C24.43 99.94, 49.1 71.56, 111.29 0.02 M-0.24 128.32 C39.96 82.06, 80.17 35.81, 111.29 0.02 M0.15 133.96 C28.41 101.45, 56.67 68.94, 116.27 0.38 M0.15 133.96 C25.94 104.29, 51.73 74.63, 116.27 0.38 M-0.11 140.36 C27.33 108.8, 54.76 77.24, 121.92 -0.02 M-0.11 140.36 C27.44 108.67, 54.98 76.98, 121.92 -0.02 M0.29 146 C34.13 107.07, 67.97 68.14, 126.91 0.34 M0.29 146 C34.07 107.14, 67.85 68.28, 126.91 0.34 M0.02 152.4 C32.87 114.61, 65.72 76.82, 132.55 -0.05 M0.02 152.4 C34.94 112.23, 69.86 72.06, 132.55 -0.05 M-0.24 158.8 C47.64 103.72, 95.51 48.65, 137.54 0.31 M-0.24 158.8 C51.97 98.74, 104.17 38.69, 137.54 0.31 M0.16 164.44 C40.01 118.59, 79.86 72.75, 143.18 -0.09 M0.16 164.44 C49.2 108.03, 98.23 51.61, 143.18 -0.09 M-0.1 170.84 C31.59 134.37, 63.29 97.91, 148.17 0.27 M-0.1 170.84 C40.48 124.15, 81.06 77.47, 148.17 0.27 M0.29 176.48 C33.03 138.82, 65.77 101.15, 153.81 -0.12 M0.29 176.48 C31.03 141.12, 61.76 105.77, 153.81 -0.12 M0.03 182.88 C56.17 118.29, 112.32 53.7, 158.8 0.24 M0.03 182.88 C45.04 131.09, 90.06 79.31, 158.8 0.24 M-0.23 189.27 C58.33 121.9, 116.9 54.53, 164.44 -0.16 M-0.23 189.27 C55.59 125.06, 111.41 60.85, 164.44 -0.16 M0.16 194.92 C53.04 134.09, 105.92 73.26, 169.43 0.2 M0.16 194.92 C43.83 144.69, 87.49 94.46, 169.43 0.2 M-0.1 201.32 C55.52 137.33, 111.14 73.34, 175.07 -0.19 M-0.1 201.32 C57.68 134.85, 115.46 68.38, 175.07 -0.19 M0.3 206.96 C70.98 125.64, 141.67 44.32, 180.06 0.17 M0.3 206.96 C47.72 152.41, 95.14 97.85, 180.06 0.17 M0.03 213.36 C59.17 145.33, 118.3 77.31, 185.7 -0.23 M0.03 213.36 C57.72 146.99, 115.41 80.63, 185.7 -0.23 M-0.23 219.75 C67.95 141.33, 136.12 62.9, 190.69 0.13 M-0.23 219.75 C54.19 157.16, 108.6 94.56, 190.69 0.13 M0.17 225.4 C56.25 160.88, 112.33 96.37, 196.33 -0.26 M0.17 225.4 C56.39 160.72, 112.61 96.05, 196.33 -0.26 M-0.09 231.8 C64.91 157.01, 129.92 82.23, 201.32 0.1 M-0.09 231.8 C64.9 157.02, 129.9 82.25, 201.32 0.1 M0.3 237.44 C73.64 153.07, 146.99 68.7, 206.96 -0.3 M0.3 237.44 C47.78 182.81, 95.27 128.19, 206.96 -0.3 M0.04 243.84 C56.58 178.79, 113.12 113.75, 211.95 0.06 M0.04 243.84 C62.61 171.86, 125.18 99.88, 211.95 0.06 M-0.22 250.23 C80.04 157.9, 160.31 65.56, 217.59 -0.33 M-0.22 250.23 C82.47 155.11, 165.16 59.98, 217.59 -0.33 M0.17 255.88 C72.15 173.07, 144.13 90.27, 222.58 0.03 M0.17 255.88 C75.38 169.36, 150.59 82.84, 222.58 0.03 M-0.09 262.27 C86.11 163.11, 172.31 63.95, 228.22 -0.36 M-0.09 262.27 C78.18 172.23, 156.45 82.19, 228.22 -0.36 M0.3 267.92 C66.79 191.43, 133.28 114.95, 233.21 0 M0.3 267.92 C71.14 186.43, 141.98 104.94, 233.21 0 M0.04 274.32 C81.16 181, 162.28 87.68, 238.19 0.36 M0.04 274.32 C93.67 166.61, 187.3 58.91, 238.19 0.36 M-0.22 280.71 C73.57 195.83, 147.35 110.96, 243.84 -0.04 M-0.22 280.71 C63.99 206.85, 128.21 132.98, 243.84 -0.04 M0.18 286.36 C55.91 222.24, 111.65 158.12, 248.82 0.32 M0.18 286.36 C92.57 180.08, 184.95 73.79, 248.82 0.32 M-0.08 292.75 C97.16 180.88, 194.41 69.01, 254.47 -0.07 M-0.08 292.75 C51.36 233.57, 102.81 174.39, 254.47 -0.07 M0.31 298.4 C78.67 208.25, 157.04 118.1, 259.45 0.29 M0.31 298.4 C100.41 183.24, 200.52 68.09, 259.45 0.29 M0.05 304.8 C76.98 216.29, 153.91 127.79, 265.1 -0.11 M0.05 304.8 C86.31 205.57, 172.57 106.34, 265.1 -0.11 M-0.21 311.19 C69.36 231.16, 138.93 151.12, 270.08 0.25 M-0.21 311.19 C84.3 213.97, 168.81 116.75, 270.08 0.25 M0.18 316.84 C69.19 237.45, 138.2 158.06, 275.73 -0.14 M0.18 316.84 C97.88 204.45, 195.58 92.06, 275.73 -0.14 M-0.08 323.23 C78.27 233.1, 156.62 142.97, 280.71 0.22 M-0.08 323.23 C82.26 228.51, 164.61 133.78, 280.71 0.22 M0.31 328.88 C70.08 248.63, 139.84 168.38, 286.36 -0.18 M0.31 328.88 C65.57 253.81, 130.82 178.75, 286.36 -0.18 M0.05 335.27 C106.37 212.97, 212.68 90.67, 291.34 0.18 M0.05 335.27 C69.32 255.59, 138.59 175.91, 291.34 0.18 M-0.21 341.67 C91.82 235.81, 183.84 129.94, 296.99 -0.21 M-0.21 341.67 C59.81 272.63, 119.83 203.59, 296.99 -0.21 M0.19 347.32 C66.8 270.69, 133.41 194.06, 301.97 0.15 M0.19 347.32 C97.73 235.1, 195.27 122.89, 301.97 0.15 M3.21 349.94 C77.68 264.27, 152.15 178.6, 307.62 -0.25 M3.21 349.94 C109.46 227.7, 215.72 105.46, 307.62 -0.25 M8.19 350.3 C117.65 224.38, 227.12 98.46, 312.6 0.11 M8.19 350.3 C97.58 247.47, 186.97 144.64, 312.6 0.11 M13.18 350.66 C105.79 244.12, 198.41 137.58, 318.25 -0.28 M13.18 350.66 C92.4 259.53, 171.62 168.39, 318.25 -0.28 M18.82 350.27 C80.52 279.29, 142.22 208.32, 323.23 0.08 M18.82 350.27 C128.52 224.07, 238.22 97.87, 323.23 0.08 M23.81 350.63 C115.02 245.7, 206.24 140.77, 328.88 -0.31 M23.81 350.63 C127.9 230.88, 231.99 111.14, 328.88 -0.31 M29.45 350.23 C144.8 217.54, 260.15 84.84, 333.86 0.05 M29.45 350.23 C121.35 244.51, 213.25 138.8, 333.86 0.05 M34.44 350.59 C126.33 244.89, 218.22 139.18, 339.51 -0.35 M34.44 350.59 C131.51 238.92, 228.59 127.25, 339.51 -0.35 M40.08 350.2 C108.6 271.38, 177.11 192.56, 344.49 0.01 M40.08 350.2 C150.85 222.77, 261.62 95.34, 344.49 0.01 M45.07 350.56 C148.07 232.06, 251.08 113.57, 349.48 0.37 M45.07 350.56 C146.28 234.13, 247.48 117.71, 349.48 0.37 M50.71 350.16 C137.68 250.12, 224.64 150.08, 355.12 -0.02 M50.71 350.16 C160.06 224.37, 269.41 98.58, 355.12 -0.02 M55.7 350.52 C145.55 247.16, 235.41 143.79, 358.8 1.85 M55.7 350.52 C129.34 265.81, 202.97 181.1, 358.8 1.85 M61.34 350.13 C124.68 277.27, 188.02 204.4, 358.54 8.24 M61.34 350.13 C170.69 224.34, 280.04 98.54, 358.54 8.24 M66.33 350.49 C130.48 276.7, 194.62 202.9, 358.93 13.89 M66.33 350.49 C161.66 240.83, 256.98 131.17, 358.93 13.89 M71.97 350.09 C148.68 261.85, 225.39 173.61, 358.67 20.28 M71.97 350.09 C140 271.83, 208.04 193.57, 358.67 20.28 M76.96 350.45 C135.71 282.86, 194.47 215.27, 359.07 25.93 M76.96 350.45 C182.56 228.97, 288.16 107.49, 359.07 25.93 M82.6 350.06 C142.54 281.11, 202.48 212.16, 358.8 32.33 M82.6 350.06 C160.41 260.55, 238.22 171.04, 358.8 32.33 M87.59 350.42 C175.11 249.74, 262.62 149.06, 358.54 38.72 M87.59 350.42 C195.72 226.02, 303.86 101.63, 358.54 38.72 M93.23 350.02 C156.27 277.51, 219.31 204.99, 358.94 44.37 M93.23 350.02 C194.95 233.02, 296.66 116.01, 358.94 44.37 M98.22 350.38 C171.31 266.31, 244.39 182.23, 358.68 50.76 M98.22 350.38 C183.59 252.17, 268.97 153.96, 358.68 50.76 M103.86 349.99 C157.95 287.77, 212.03 225.56, 359.07 56.41 M103.86 349.99 C177.72 265.03, 251.57 180.07, 359.07 56.41 M108.85 350.35 C197.87 247.94, 286.89 145.54, 358.81 62.81 M108.85 350.35 C185.16 262.56, 261.48 174.77, 358.81 62.81 M114.49 349.95 C171.22 284.69, 227.95 219.43, 358.55 69.2 M114.49 349.95 C191.97 260.83, 269.44 171.71, 358.55 69.2 M119.48 350.31 C187.11 272.52, 254.73 194.72, 358.94 74.85 M119.48 350.31 C213.77 241.85, 308.06 133.38, 358.94 74.85 M125.12 349.92 C194.74 269.84, 264.36 189.75, 358.68 81.24 M125.12 349.92 C183.55 282.71, 241.97 215.5, 358.68 81.24 M130.11 350.28 C210.27 258.07, 290.42 165.86, 359.07 86.89 M130.11 350.28 C192.47 278.54, 254.84 206.8, 359.07 86.89 M135.1 350.64 C183.39 295.09, 231.68 239.54, 358.81 93.28 M135.1 350.64 C188.31 289.42, 241.53 228.21, 358.81 93.28 M140.74 350.25 C207.74 273.17, 274.75 196.09, 358.55 99.68 M140.74 350.25 C214.28 265.64, 287.83 181.04, 358.55 99.68 M145.73 350.61 C209.83 276.86, 273.94 203.12, 358.95 105.33 M145.73 350.61 C209.3 277.47, 272.88 204.34, 358.95 105.33 M151.37 350.21 C205.54 287.9, 259.71 225.58, 358.69 111.72 M151.37 350.21 C193.5 301.75, 235.63 253.28, 358.69 111.72 M156.36 350.57 C212.14 286.41, 267.92 222.24, 359.08 117.37 M156.36 350.57 C200.1 300.25, 243.84 249.93, 359.08 117.37 M162 350.18 C235.84 265.23, 309.69 180.28, 358.82 123.76 M162 350.18 C240.71 259.63, 319.42 169.09, 358.82 123.76 M166.99 350.54 C237.84 269.03, 308.69 187.53, 358.56 130.16 M166.99 350.54 C213.47 297.07, 259.95 243.6, 358.56 130.16 M172.63 350.14 C241.79 270.58, 310.95 191.02, 358.95 135.8 M172.63 350.14 C224.01 291.04, 275.39 231.93, 358.95 135.8 M177.62 350.5 C218 304.04, 258.39 257.58, 358.69 142.2 M177.62 350.5 C249.65 267.63, 321.69 184.77, 358.69 142.2 M183.26 350.11 C223.53 303.78, 263.8 257.45, 359.08 147.85 M183.26 350.11 C235.3 290.25, 287.33 230.38, 359.08 147.85 M188.25 350.47 C253.21 275.73, 318.18 201, 358.82 154.24 M188.25 350.47 C250.97 278.32, 313.69 206.16, 358.82 154.24 M193.89 350.07 C241.03 295.85, 288.17 241.62, 358.56 160.64 M193.89 350.07 C250.36 285.11, 306.83 220.15, 358.56 160.64 M198.88 350.43 C262.47 277.28, 326.05 204.14, 358.96 166.28 M198.88 350.43 C231.81 312.55, 264.74 274.67, 358.96 166.28 M204.52 350.04 C256.66 290.07, 308.79 230.09, 358.69 172.68 M204.52 350.04 C237.86 311.69, 271.2 273.34, 358.69 172.68 M209.51 350.4 C259.45 292.95, 309.39 235.49, 359.09 178.33 M209.51 350.4 C244.3 310.38, 279.09 270.36, 359.09 178.33 M215.15 350 C263.7 294.16, 312.25 238.31, 358.83 184.72 M215.15 350 C262.95 295.02, 310.74 240.04, 358.83 184.72 M220.14 350.36 C256.18 308.9, 292.23 267.43, 358.57 191.12 M220.14 350.36 C266.67 296.84, 313.2 243.31, 358.57 191.12 M225.78 349.97 C265.26 304.55, 304.74 259.13, 358.96 196.76 M225.78 349.97 C255.9 315.32, 286.02 280.67, 358.96 196.76 M230.77 350.33 C276.07 298.21, 321.37 246.1, 358.7 203.16 M230.77 350.33 C265.49 310.38, 300.22 270.44, 358.7 203.16 M236.41 349.94 C283.35 295.94, 330.28 241.95, 359.09 208.8 M236.41 349.94 C266.82 314.95, 297.24 279.96, 359.09 208.8 M241.4 350.3 C264.91 323.24, 288.43 296.19, 358.83 215.2 M241.4 350.3 C283.76 301.56, 326.12 252.83, 358.83 215.2 M246.39 350.66 C271.39 321.89, 296.39 293.13, 358.57 221.6 M246.39 350.66 C276.25 316.3, 306.11 281.95, 358.57 221.6 M252.03 350.26 C283.23 314.37, 314.43 278.48, 358.97 227.24 M252.03 350.26 C294.1 301.86, 336.18 253.46, 358.97 227.24 M257.02 350.62 C277.53 327.02, 298.05 303.42, 358.7 233.64 M257.02 350.62 C294.29 307.74, 331.56 264.86, 358.7 233.64 M262.66 350.23 C294.43 313.67, 326.21 277.12, 359.1 239.28 M262.66 350.23 C294.12 314.04, 325.58 277.85, 359.1 239.28 M267.65 350.59 C300.6 312.67, 333.56 274.76, 358.84 245.68 M267.65 350.59 C299.72 313.69, 331.79 276.79, 358.84 245.68 M273.29 350.19 C300.75 318.6, 328.21 287.01, 358.58 252.08 M273.29 350.19 C305.94 312.63, 338.59 275.08, 358.58 252.08 M278.28 350.55 C302.63 322.53, 326.99 294.51, 358.97 257.72 M278.28 350.55 C297.77 328.13, 317.26 305.71, 358.97 257.72 M283.92 350.16 C305.29 325.57, 326.66 300.99, 358.71 264.12 M283.92 350.16 C310.41 319.68, 336.91 289.2, 358.71 264.12 M288.91 350.52 C308.63 327.83, 328.35 305.15, 359.1 269.76 M288.91 350.52 C315.1 320.38, 341.3 290.25, 359.1 269.76 M294.55 350.12 C316.73 324.6, 338.91 299.09, 358.84 276.16 M294.55 350.12 C313.75 328.03, 332.95 305.94, 358.84 276.16 M299.54 350.48 C318.09 329.13, 336.65 307.79, 358.58 282.56 M299.54 350.48 C317.3 330.05, 335.06 309.61, 358.58 282.56 M305.18 350.09 C317.65 335.74, 330.12 321.4, 358.98 288.2 M305.18 350.09 C318.17 335.14, 331.16 320.2, 358.98 288.2 M310.17 350.45 C323.54 335.07, 336.91 319.68, 358.71 294.6 M310.17 350.45 C324.54 333.92, 338.91 317.38, 358.71 294.6 M315.81 350.05 C332.52 330.83, 349.24 311.6, 359.11 300.24 M315.81 350.05 C327.73 336.34, 339.65 322.63, 359.11 300.24 M320.8 350.41 C335.85 333.1, 350.9 315.78, 358.85 306.64 M320.8 350.41 C330.21 339.59, 339.62 328.76, 358.85 306.64 M326.44 350.02 C334.65 340.58, 342.86 331.13, 358.59 313.04 M326.44 350.02 C334.79 340.42, 343.13 330.81, 358.59 313.04 M331.43 350.38 C341.45 338.85, 351.48 327.31, 358.98 318.68 M331.43 350.38 C341.36 338.95, 351.3 327.52, 358.98 318.68 M337.07 349.99 C345.63 340.14, 354.18 330.3, 358.72 325.08 M337.07 349.99 C344.03 341.97, 351 333.96, 358.72 325.08 M342.06 350.35 C345.93 345.89, 349.8 341.43, 359.11 330.72 M342.06 350.35 C346.47 345.26, 350.89 340.18, 359.11 330.72 M347.7 349.95 C351.81 345.22, 355.93 340.48, 358.85 337.12 M347.7 349.95 C351.66 345.39, 355.63 340.83, 358.85 337.12 M352.69 350.31 C354.4 348.34, 356.11 346.37, 358.59 343.52 M352.69 350.31 C354.35 348.39, 356.02 346.47, 358.59 343.52" stroke="#fff" stroke-width="0.5" fill="none"></path><path d="M0 0 C92.59 0, 185.18 0, 356.67 0 M0 0 C84.89 0, 169.78 0, 356.67 0 M356.67 0 C356.67 108.72, 356.67 217.44, 356.67 347.78 M356.67 0 C356.67 134.66, 356.67 269.33, 356.67 347.78 M356.67 347.78 C231.77 347.78, 106.88 347.78, 0 347.78 M356.67 347.78 C260.41 347.78, 164.15 347.78, 0 347.78 M0 347.78 C0 268.7, 0 189.62, 0 0 M0 347.78 C0 272.32, 0 196.86, 0 0" stroke="#000000" stroke-width="1" fill="none"></path></g><g transform="translate(55.61604111156794 15.72552117460873) rotate(0 137.5 11)"><text x="137.5" y="16" font-family="Virgil, Segoe UI Emoji" font-size="17.678798363929268px" fill="#000000" text-anchor="middle" style="white-space: pre;" direction="ltr">Let's practice what we learned</text></g><g transform="translate(75.44880860279045 65.83584403168788) rotate(0 23 19.5)"><text x="23" y="27" font-family="Virgil, Segoe UI Emoji" font-size="28px" fill="#000000" text-anchor="middle" style="white-space: pre;" direction="rtl">آنکھ</text></g><g transform="translate(162.56053134670583 71.20778218808846) rotate(0 47 16)"><text x="47" y="23" font-family="Virgil, Segoe UI Emoji" font-size="23.433516823172702px" fill="#000" text-anchor="middle" style="white-space: pre;" direction="rtl">آ+ن+ک+ھ</text></g><g transform="translate(73.99560341798133 114.11777404388704) rotate(0 32.5 20)"><text x="32.5" y="28" font-family="Virgil, Segoe UI Emoji" font-size="29.111111111111125px" fill="#000000" text-anchor="middle" style="white-space: pre;" direction="rtl">جھوٹ</text></g><g transform="translate(167.79785227044886 117.75541808273556) rotate(0 50 17)"><text x="50" y="24" font-family="Virgil, Segoe UI Emoji" font-size="24.363418284409725px" fill="#000000" text-anchor="middle" style="white-space: pre;" direction="rtl">ج+ھ+و+ٹ</text></g><g transform="translate(79.51429357445068 165.07350425822005) rotate(0 27.5 20)"><text x="27.5" y="28" font-family="Virgil, Segoe UI Emoji" font-size="29.12444789851476px" fill="#000000" text-anchor="middle" style="white-space: pre;" direction="rtl">دھونا</text></g><g transform="translate(161.9501835464489 170.86429479209255) rotate(0 57.5 17)"><text x="57.5" y="24" font-family="Virgil, Segoe UI Emoji" font-size="24.37457999269509px" fill="#000000" text-anchor="middle" style="white-space: pre;" direction="rtl">د+ھ+و+ن+ا</text></g><g transform="translate(63.42806378450405 253.06516381097572) rotate(0 33.5 19.5)"><text x="33.5" y="27" font-family="Virgil, Segoe UI Emoji" font-size="28px" fill="#000000" text-anchor="middle" style="white-space: pre;" direction="rtl">پیچھے</text></g><g transform="translate(152.5855820404795 246.49076786842033) rotate(0 90 22.5)"><text x="90" y="31" font-family="Virgil, Segoe UI Emoji" font-size="32.57142857142864px" fill="#000000" text-anchor="middle" style="white-space: pre;" direction="rtl">پ+ی+چ+ھ+ے</text></g><g transform="translate(75.4488086027959 288.8132888457276) rotate(0 20 19.5)"><text x="20" y="27" font-family="Virgil, Segoe UI Emoji" font-size="28px" fill="#000000" text-anchor="middle" style="white-space: pre;" direction="rtl">گھر</text></g><g transform="translate(199.02263464396128 293.40410977469037) rotate(0 35 16)"><text x="35" y="23" font-family="Virgil, Segoe UI Emoji" font-size="23.433516823172702px" fill="#000000" text-anchor="middle" style="white-space: pre;" direction="rtl">گ+ھ+ر</text></g><g transform="translate(69.009931476176 210.44893495265933) rotate(0 28 20.5)"><text x="28" y="29" font-family="Virgil, Segoe UI Emoji" font-size="30.342937154598552px" fill="#000000" text-anchor="middle" style="white-space: pre;" direction="rtl">ابھی</text></g><g transform="translate(181.70537923777783 212.64107039474993) rotate(0 51.5 17.5)"><text x="51.5" y="24" font-family="Virgil, Segoe UI Emoji" font-size="25.394347438455615px" fill="#000000" text-anchor="middle" style="white-space: pre;" direction="rtl">ا+ب+ھ+ی</text></g><g transform="translate(146.9047619047633 39.52688440443853) rotate(0 50 10)"><text x="50" y="14" font-family="Virgil, Segoe UI Emoji" font-size="16px" fill="#e67700" text-anchor="middle" style="white-space: pre;" direction="ltr">do-chasmi he</text></g><g transform="translate(112.02010068387699 336.2450589363016) rotate(0 76.5 8.5)"><text x="76.5" y="12" font-family="Virgil, Segoe UI Emoji" font-size="12.181818181818201px" fill="#e67700" text-anchor="middle" style="white-space: pre;" direction="ltr">note: ے is badi e. آ is aa</text></g></svg>