<svg version="1.1" xmlns="http://www.w3.org/2000/svg" viewBox="0 0 379 373" width="379" height="373">
  <!-- svg-source:excalidraw -->
  
  <defs>
    <style>
      @font-face {
        font-family: "Virgil";
        src: url("../Virgil.woff2");;
      }
      
    </style>
  </defs>
  <rect x="0" y="0" width="379" height="373" fill="#ffffff"></rect><g stroke-linecap="round" transform="translate(10 10) rotate(0 179.5 176.5)"><path d="M0 0 C77.39 0, 154.77 0, 359 0 M0 0 C138.2 0, 276.39 0, 359 0 M359 0 C359 84.92, 359 169.84, 359 353 M359 0 C359 109.48, 359 218.96, 359 353 M359 353 C255.64 353, 152.29 353, 0 353 M359 353 C245.54 353, 132.08 353, 0 353 M0 353 C0 268.55, 0 184.11, 0 0 M0 353 C0 231.3, 0 109.61, 0 0" stroke="#000000" stroke-width="1" fill="none"></path></g><g transform="translate(49 39) rotate(0 6 13.5)"><text x="6" y="20" font-family="Virgil, Segoe UI Emoji" font-size="20px" fill="#000000" text-anchor="middle" style="white-space: pre;" direction="ltr">ह</text></g><g transform="translate(327.5 42) rotate(0 8.5 12.5)"><text x="8.5" y="18" font-family="Virgil, Segoe UI Emoji" font-size="20px" fill="#000000" text-anchor="middle" style="white-space: pre;" direction="ltr">H</text></g><g transform="translate(315 299) rotate(0 10 15)"><text x="10" y="21" font-family="Virgil, Segoe UI Emoji" font-size="23.076923076923066px" fill="#000000" text-anchor="middle" style="white-space: pre;" direction="rtl">ھـ</text></g><g transform="translate(191.5 297.75) rotate(0 13.5 16)"><text x="13.5" y="23" font-family="Virgil, Segoe UI Emoji" font-size="24.999999999999996px" fill="#000000" text-anchor="middle" style="white-space: pre;" direction="rtl">ـھـ</text></g><g transform="translate(55.5 295) rotate(0 14 19)"><text x="14" y="27" font-family="Virgil, Segoe UI Emoji" font-size="29.230769230769223px" fill="#000000" text-anchor="middle" style="white-space: pre;" direction="rtl">ـھ</text></g><g transform="translate(129.5 40.20498929205951) rotate(0 68 11.2611464968154)"><text x="68" y="16.522292993630575" font-family="Virgil, Segoe UI Emoji" font-size="17.324840764331203px" fill="#000000" text-anchor="middle" style="white-space: pre;" direction="ltr">Do-cashmī hē(ھ)</text></g><g transform="translate(305.30589962005615 329.9353584051132) rotate(0 19.5 10)"><text x="39" y="14" font-family="Virgil, Segoe UI Emoji" font-size="16px" fill="#000000" text-anchor="end" style="white-space: pre;" direction="ltr">intial</text></g><g transform="translate(192.30589962005615 329.9353584051132) rotate(0 12 10)"><text x="24" y="14" font-family="Virgil, Segoe UI Emoji" font-size="16px" fill="#000000" text-anchor="end" style="white-space: pre;" direction="ltr">mid</text></g><g transform="translate(48.30589962005615 329.9353584051132) rotate(0 17.5 10)"><text x="35" y="14" font-family="Virgil, Segoe UI Emoji" font-size="16px" fill="#000000" text-anchor="end" style="white-space: pre;" direction="ltr">final</text></g><g stroke-linecap="round"><g transform="translate(118.5 208.39853143692017) rotate(0 62.08249999999998 -28.997249999999894)"><path d="M0 0 C6.33 3.5, 26.83 20.33, 38 21 C49.17 21.67, 55.83 15.83, 67 4 C78.17 -7.83, 106.17 -38.33, 105 -50 C103.83 -61.67, 68.33 -71.83, 60 -66 C51.67 -60.17, 48.33 -28.33, 55 -15 C61.67 -1.67, 88.5 14, 100 14 C111.5 14, 126.17 -1, 124 -15 C121.83 -29, 96.33 -59.33, 87 -70 C77.67 -80.67, 71.17 -77.5, 68 -79 M0 0 C6.33 3.5, 26.83 20.33, 38 21 C49.17 21.67, 55.83 15.83, 67 4 C78.17 -7.83, 106.17 -38.33, 105 -50 C103.83 -61.67, 68.33 -71.83, 60 -66 C51.67 -60.17, 48.33 -28.33, 55 -15 C61.67 -1.67, 88.5 14, 100 14 C111.5 14, 126.17 -1, 124 -15 C121.83 -29, 96.33 -59.33, 87 -70 C77.67 -80.67, 71.17 -77.5, 68 -79" stroke="#000000" stroke-width="1" fill="none"></path></g></g></svg>