<svg version="1.1" xmlns="http://www.w3.org/2000/svg" viewBox="0 0 380 367.7777777777778" width="380" height="367.7777777777778">
  <!-- svg-source:excalidraw -->
  
  <defs>
    <style>
      @font-face {
        font-family: "Virgil";
        src: url("https://excalidraw.com/Virgil.woff2");
      }
      @font-face {
        font-family: "Cascadia";
        src: url("https://excalidraw.com/Cascadia.woff2");
      }
    </style>
  </defs>
  <rect x="0" y="0" width="380" height="367.7777777777778" fill="#ffffff"></rect><g stroke-linecap="round" transform="translate(11.41666666666697 10) rotate(0 178.33333333333326 173.8888888888889)"><path d="M0 0 C0 0, 0 0, 0 0 M0 0 C0 0, 0 0, 0 0 M-0.26 6.4 C1.37 4.52, 3 2.64, 4.99 0.36 M-0.26 6.4 C1.22 4.69, 2.7 2.99, 4.99 0.36 M0.13 12.04 C3.65 7.99, 7.17 3.94, 10.63 -0.03 M0.13 12.04 C3.83 7.79, 7.53 3.53, 10.63 -0.03 M-0.13 18.44 C5.96 11.43, 12.06 4.42, 15.62 0.33 M-0.13 18.44 C4.97 12.58, 10.06 6.72, 15.62 0.33 M0.27 24.08 C5.04 18.58, 9.82 13.09, 21.26 -0.07 M0.27 24.08 C5.17 18.44, 10.08 12.8, 21.26 -0.07 M0 30.48 C6.94 22.51, 13.87 14.53, 26.25 0.29 M0 30.48 C6.6 22.9, 13.19 15.31, 26.25 0.29 M-0.26 36.88 C8.43 26.89, 17.11 16.9, 31.89 -0.1 M-0.26 36.88 C6.33 29.3, 12.92 21.71, 31.89 -0.1 M0.14 42.52 C7.76 33.75, 15.39 24.98, 36.88 0.26 M0.14 42.52 C7.91 33.58, 15.69 24.63, 36.88 0.26 M-0.12 48.92 C14.76 31.79, 29.65 14.67, 42.52 -0.14 M-0.12 48.92 C8.57 38.92, 17.26 28.92, 42.52 -0.14 M0.27 54.56 C14.42 38.28, 28.57 22, 47.51 0.22 M0.27 54.56 C17.22 35.07, 34.16 15.58, 47.51 0.22 M0.01 60.96 C16.91 41.51, 33.82 22.07, 53.15 -0.17 M0.01 60.96 C12 47.17, 23.98 33.38, 53.15 -0.17 M-0.25 67.36 C19.59 44.53, 39.43 21.71, 58.14 0.19 M-0.25 67.36 C20.43 43.56, 41.11 19.77, 58.14 0.19 M0.14 73 C19.1 51.2, 38.05 29.39, 63.78 -0.21 M0.14 73 C14.35 56.66, 28.55 40.32, 63.78 -0.21 M-0.12 79.4 C23.65 52.05, 47.42 24.71, 68.77 0.15 M-0.12 79.4 C18.32 58.19, 36.76 36.97, 68.77 0.15 M0.28 85.04 C28.16 52.96, 56.05 20.88, 74.41 -0.24 M0.28 85.04 C15.68 67.32, 31.08 49.6, 74.41 -0.24 M0.01 91.44 C19.8 68.68, 39.59 45.91, 79.4 0.12 M0.01 91.44 C21.96 66.19, 43.91 40.94, 79.4 0.12 M-0.25 97.84 C26.03 67.61, 52.3 37.38, 85.04 -0.28 M-0.25 97.84 C29.44 63.69, 59.12 29.54, 85.04 -0.28 M0.15 103.48 C18.44 82.43, 36.74 61.38, 90.03 0.08 M0.15 103.48 C33.03 65.65, 65.91 27.83, 90.03 0.08 M-0.11 109.88 C20.56 86.09, 41.24 62.3, 95.67 -0.31 M-0.11 109.88 C25.81 80.06, 51.73 50.24, 95.67 -0.31 M0.28 115.52 C28.01 83.62, 55.75 51.71, 100.66 0.05 M0.28 115.52 C23.24 89.11, 46.19 62.71, 100.66 0.05 M0.02 121.92 C30.73 86.59, 61.45 51.25, 106.3 -0.34 M0.02 121.92 C38.27 77.92, 76.52 33.92, 106.3 -0.34 M-0.24 128.32 C39.13 83.03, 78.49 37.74, 111.29 0.02 M-0.24 128.32 C40.56 81.38, 81.37 34.44, 111.29 0.02 M0.15 133.96 C33.13 96.02, 66.11 58.09, 116.27 0.38 M0.15 133.96 C30.12 99.49, 60.09 65.01, 116.27 0.38 M-0.11 140.36 C28.73 107.18, 57.57 74.01, 121.92 -0.02 M-0.11 140.36 C46.99 86.18, 94.09 32, 121.92 -0.02 M0.29 146 C28.74 113.27, 57.19 80.53, 126.91 0.34 M0.29 146 C46.52 92.81, 92.76 39.62, 126.91 0.34 M0.02 152.4 C45.91 99.61, 91.8 46.83, 132.55 -0.05 M0.02 152.4 C40.5 105.83, 80.98 59.26, 132.55 -0.05 M-0.24 158.8 C41.39 110.91, 83.02 63.02, 137.54 0.31 M-0.24 158.8 C46.47 105.06, 93.18 51.33, 137.54 0.31 M0.16 164.44 C31.59 128.27, 63.03 92.11, 143.18 -0.09 M0.16 164.44 C35.7 123.55, 71.25 82.65, 143.18 -0.09 M-0.1 170.84 C55.42 106.96, 110.94 43.09, 148.17 0.27 M-0.1 170.84 C58.51 103.41, 117.12 35.99, 148.17 0.27 M0.29 176.48 C32.73 139.16, 65.17 101.85, 153.81 -0.12 M0.29 176.48 C53.61 115.14, 106.93 53.81, 153.81 -0.12 M0.03 182.88 C42.43 134.1, 84.83 85.33, 158.8 0.24 M0.03 182.88 C32.97 144.99, 65.9 107.1, 158.8 0.24 M-0.23 189.27 C64.34 114.99, 128.92 40.7, 164.44 -0.16 M-0.23 189.27 C39.55 143.51, 79.34 97.74, 164.44 -0.16 M0.16 194.92 C46.28 141.87, 92.39 88.82, 169.43 0.2 M0.16 194.92 C35.16 154.66, 70.16 114.4, 169.43 0.2 M-0.1 201.32 C43.88 150.73, 87.85 100.14, 175.07 -0.19 M-0.1 201.32 C66.31 124.92, 132.72 48.52, 175.07 -0.19 M0.3 206.96 C45.3 155.19, 90.31 103.41, 180.06 0.17 M0.3 206.96 C51.04 148.58, 101.79 90.2, 180.06 0.17 M0.03 213.36 C73.15 129.24, 146.27 45.13, 185.7 -0.23 M0.03 213.36 C58.59 146, 117.14 78.64, 185.7 -0.23 M-0.23 219.75 C62.35 147.77, 124.92 75.78, 190.69 0.13 M-0.23 219.75 C53.42 158.04, 107.06 96.33, 190.69 0.13 M0.17 225.4 C47.92 170.46, 95.68 115.52, 196.33 -0.26 M0.17 225.4 C42.07 177.19, 83.97 128.99, 196.33 -0.26 M-0.09 231.8 C80.22 139.4, 160.54 47.01, 201.32 0.1 M-0.09 231.8 C61.84 160.54, 123.78 89.29, 201.32 0.1 M0.3 237.44 C70.6 156.56, 140.91 75.69, 206.96 -0.3 M0.3 237.44 C71.6 155.42, 142.89 73.4, 206.96 -0.3 M0.04 243.84 C47.65 189.07, 95.25 134.3, 211.95 0.06 M0.04 243.84 C47.6 189.13, 95.15 134.42, 211.95 0.06 M-0.22 250.23 C52.36 189.74, 104.95 129.25, 217.59 -0.33 M-0.22 250.23 C84.38 152.9, 168.99 55.57, 217.59 -0.33 M0.17 255.88 C74.44 170.44, 148.71 85, 222.58 0.03 M0.17 255.88 C78.47 165.81, 156.76 75.74, 222.58 0.03 M-0.09 262.27 C50.54 204.04, 101.16 145.8, 228.22 -0.36 M-0.09 262.27 C75.41 175.42, 150.91 88.57, 228.22 -0.36 M0.3 267.92 C75.37 181.57, 150.43 95.22, 233.21 0 M0.3 267.92 C86.13 169.18, 171.96 70.45, 233.21 0 M0.04 274.32 C88.85 172.15, 177.66 69.99, 238.19 0.36 M0.04 274.32 C87.28 173.96, 174.52 73.6, 238.19 0.36 M-0.22 280.71 C85.83 181.73, 171.88 82.74, 243.84 -0.04 M-0.22 280.71 C50.99 221.81, 102.19 162.9, 243.84 -0.04 M0.18 286.36 C75.73 199.44, 151.29 112.52, 248.82 0.32 M0.18 286.36 C99.06 172.61, 197.94 58.86, 248.82 0.32 M-0.08 292.75 C64.78 218.13, 129.65 143.51, 254.47 -0.07 M-0.08 292.75 C94.02 184.49, 188.13 76.24, 254.47 -0.07 M0.31 298.4 C62.71 226.61, 125.12 154.82, 259.45 0.29 M0.31 298.4 C87.11 198.55, 173.9 98.7, 259.45 0.29 M0.05 304.8 C60.04 235.79, 120.03 166.78, 265.1 -0.11 M0.05 304.8 C106.01 182.9, 211.97 61.01, 265.1 -0.11 M-0.21 311.19 C88.18 209.51, 176.58 107.82, 270.08 0.25 M-0.21 311.19 C106.85 188.03, 213.92 64.86, 270.08 0.25 M0.18 316.84 C91.52 211.76, 182.86 106.69, 275.73 -0.14 M0.18 316.84 C57.89 250.45, 115.6 184.06, 275.73 -0.14 M-0.08 323.23 C90.64 218.88, 181.35 114.52, 280.71 0.22 M-0.08 323.23 C58.04 256.37, 116.17 189.51, 280.71 0.22 M0.31 328.88 C58.07 262.44, 115.82 196, 286.36 -0.18 M0.31 328.88 C104.98 208.48, 209.64 88.08, 286.36 -0.18 M0.05 335.27 C89.37 232.52, 178.69 129.77, 291.34 0.18 M0.05 335.27 C87.79 234.34, 175.53 133.41, 291.34 0.18 M-0.21 341.67 C99.77 226.66, 199.74 111.65, 296.99 -0.21 M-0.21 341.67 C116.94 206.91, 234.08 72.16, 296.99 -0.21 M0.19 347.32 C112.64 217.95, 225.09 88.59, 301.97 0.15 M0.19 347.32 C66.64 270.87, 133.09 194.43, 301.97 0.15 M3.21 349.94 C64.38 279.57, 125.56 209.19, 307.62 -0.25 M3.21 349.94 C87.56 252.91, 171.91 155.87, 307.62 -0.25 M8.19 350.3 C109.6 233.64, 211.01 116.99, 312.6 0.11 M8.19 350.3 C73.08 275.65, 137.97 201, 312.6 0.11 M13.18 350.66 C113.48 235.28, 213.77 119.9, 318.25 -0.28 M13.18 350.66 C121.58 225.96, 229.98 101.26, 318.25 -0.28 M18.82 350.27 C85 274.13, 151.18 198, 323.23 0.08 M18.82 350.27 C121.47 232.18, 224.12 114.09, 323.23 0.08 M23.81 350.63 C90.98 273.35, 158.16 196.08, 328.88 -0.31 M23.81 350.63 C93.16 270.85, 162.51 191.07, 328.88 -0.31 M29.45 350.23 C142.67 219.99, 255.88 89.75, 333.86 0.05 M29.45 350.23 C138.18 225.15, 246.91 100.08, 333.86 0.05 M34.44 350.59 C108.5 265.39, 182.57 180.19, 339.51 -0.35 M34.44 350.59 C110.51 263.08, 186.59 175.56, 339.51 -0.35 M40.08 350.2 C149.77 224.02, 259.46 97.84, 344.49 0.01 M40.08 350.2 C114.89 264.14, 189.7 178.08, 344.49 0.01 M45.07 350.56 C145.91 234.55, 246.76 118.54, 349.48 0.37 M45.07 350.56 C116.77 268.07, 188.47 185.59, 349.48 0.37 M50.71 350.16 C130.91 257.9, 211.11 165.65, 355.12 -0.02 M50.71 350.16 C136.99 250.91, 223.27 151.66, 355.12 -0.02 M55.7 350.52 C142.87 250.24, 230.05 149.96, 358.8 1.85 M55.7 350.52 C164.13 225.79, 272.56 101.05, 358.8 1.85 M61.34 350.13 C174.08 220.44, 286.81 90.76, 358.54 8.24 M61.34 350.13 C167.89 227.56, 274.44 104.99, 358.54 8.24 M66.33 350.49 C148.52 255.94, 230.71 161.39, 358.93 13.89 M66.33 350.49 C138.21 267.79, 210.1 185.1, 358.93 13.89 M71.97 350.09 C164.62 243.51, 257.27 136.94, 358.67 20.28 M71.97 350.09 C148.56 261.99, 225.14 173.89, 358.67 20.28 M76.96 350.45 C174.97 237.7, 272.98 124.96, 359.07 25.93 M76.96 350.45 C157.89 257.35, 238.82 164.26, 359.07 25.93 M82.6 350.06 C173.01 246.05, 263.42 142.05, 358.8 32.33 M82.6 350.06 C141.49 282.32, 200.37 214.58, 358.8 32.33 M87.59 350.42 C166.36 259.81, 245.13 169.19, 358.54 38.72 M87.59 350.42 C176.1 248.59, 264.62 146.77, 358.54 38.72 M93.23 350.02 C183.96 245.66, 274.68 141.29, 358.94 44.37 M93.23 350.02 C175.19 255.74, 257.15 161.46, 358.94 44.37 M98.22 350.38 C197.56 236.1, 296.91 121.82, 358.68 50.76 M98.22 350.38 C194.13 240.05, 290.04 129.72, 358.68 50.76 M103.86 349.99 C188.66 252.44, 273.46 154.88, 359.07 56.41 M103.86 349.99 C173.4 270, 242.94 190, 359.07 56.41 M108.85 350.35 C173.19 276.33, 237.54 202.31, 358.81 62.81 M108.85 350.35 C176.96 271.99, 245.08 193.64, 358.81 62.81 M114.49 349.95 C208.16 242.21, 301.82 134.46, 358.55 69.2 M114.49 349.95 C195.67 256.57, 276.85 163.19, 358.55 69.2 M119.48 350.31 C173.06 288.67, 226.65 227.03, 358.94 74.85 M119.48 350.31 C181.32 279.17, 243.16 208.03, 358.94 74.85 M125.12 349.92 C217.87 243.23, 310.61 136.54, 358.68 81.24 M125.12 349.92 C200.81 262.85, 276.5 175.78, 358.68 81.24 M130.11 350.28 C210.87 257.38, 291.62 164.48, 359.07 86.89 M130.11 350.28 C176.38 297.05, 222.65 243.83, 359.07 86.89 M135.1 350.64 C222.47 250.13, 309.85 149.61, 358.81 93.28 M135.1 350.64 C222.3 250.32, 309.51 150, 358.81 93.28 M140.74 350.25 C224.3 254.12, 307.87 157.99, 358.55 99.68 M140.74 350.25 C214.44 265.46, 288.15 180.67, 358.55 99.68 M145.73 350.61 C230.95 252.56, 316.18 154.52, 358.95 105.33 M145.73 350.61 C205.57 281.77, 265.41 212.93, 358.95 105.33 M151.37 350.21 C197.65 296.97, 243.93 243.74, 358.69 111.72 M151.37 350.21 C225.87 264.51, 300.38 178.8, 358.69 111.72 M156.36 350.57 C232.83 262.6, 309.31 174.62, 359.08 117.37 M156.36 350.57 C208.1 291.05, 259.84 231.53, 359.08 117.37 M162 350.18 C210.27 294.65, 258.54 239.12, 358.82 123.76 M162 350.18 C224.01 278.84, 286.02 207.51, 358.82 123.76 M166.99 350.54 C223.13 285.96, 279.27 221.37, 358.56 130.16 M166.99 350.54 C239.77 266.81, 312.56 183.08, 358.56 130.16 M172.63 350.14 C245.42 266.4, 318.22 182.67, 358.95 135.8 M172.63 350.14 C231.01 282.99, 289.38 215.84, 358.95 135.8 M177.62 350.5 C220.03 301.71, 262.44 252.92, 358.69 142.2 M177.62 350.5 C219.09 302.79, 260.57 255.08, 358.69 142.2 M183.26 350.11 C230.33 295.96, 277.41 241.8, 359.08 147.85 M183.26 350.11 C221.9 305.66, 260.53 261.22, 359.08 147.85 M188.25 350.47 C240.28 290.61, 292.32 230.75, 358.82 154.24 M188.25 350.47 C253.86 275, 319.46 199.52, 358.82 154.24 M193.89 350.07 C235.35 302.38, 276.8 254.69, 358.56 160.64 M193.89 350.07 C252.82 282.29, 311.74 214.5, 358.56 160.64 M198.88 350.43 C251.22 290.22, 303.56 230.01, 358.96 166.28 M198.88 350.43 C252.75 288.47, 306.61 226.5, 358.96 166.28 M204.52 350.04 C263.92 281.7, 323.33 213.37, 358.69 172.68 M204.52 350.04 C236.72 313, 268.92 275.95, 358.69 172.68 M209.51 350.4 C260.16 292.13, 310.81 233.86, 359.09 178.33 M209.51 350.4 C266.71 284.6, 323.9 218.8, 359.09 178.33 M215.15 350 C255.11 304.04, 295.06 258.07, 358.83 184.72 M215.15 350 C259.97 298.45, 304.78 246.9, 358.83 184.72 M220.14 350.36 C261.1 303.25, 302.06 256.13, 358.57 191.12 M220.14 350.36 C265.51 298.17, 310.88 245.98, 358.57 191.12 M225.78 349.97 C253.36 318.24, 280.95 286.51, 358.96 196.76 M225.78 349.97 C274.24 294.22, 322.7 238.47, 358.96 196.76 M230.77 350.33 C278.32 295.62, 325.88 240.91, 358.7 203.16 M230.77 350.33 C280.14 293.53, 329.51 236.74, 358.7 203.16 M236.41 349.94 C262.96 319.39, 289.51 288.85, 359.09 208.8 M236.41 349.94 C275.61 304.85, 314.8 259.76, 359.09 208.8 M241.4 350.3 C271.51 315.66, 301.62 281.02, 358.83 215.2 M241.4 350.3 C274.05 312.74, 306.7 275.18, 358.83 215.2 M246.39 350.66 C270.77 322.6, 295.15 294.55, 358.57 221.6 M246.39 350.66 C279.06 313.07, 311.73 275.49, 358.57 221.6 M252.03 350.26 C279.54 318.61, 307.05 286.96, 358.97 227.24 M252.03 350.26 C287.63 309.3, 323.24 268.34, 358.97 227.24 M257.02 350.62 C286.34 316.89, 315.67 283.15, 358.7 233.64 M257.02 350.62 C282.38 321.44, 307.75 292.26, 358.7 233.64 M262.66 350.23 C301.13 305.97, 339.61 261.7, 359.1 239.28 M262.66 350.23 C300.03 307.24, 337.4 264.25, 359.1 239.28 M267.65 350.59 C301.86 311.23, 336.08 271.86, 358.84 245.68 M267.65 350.59 C297.04 316.77, 326.44 282.95, 358.84 245.68 M273.29 350.19 C300.85 318.48, 328.42 286.77, 358.58 252.08 M273.29 350.19 C297.69 322.12, 322.1 294.04, 358.58 252.08 M278.28 350.55 C309.8 314.29, 341.33 278.02, 358.97 257.72 M278.28 350.55 C302.15 323.09, 326.02 295.63, 358.97 257.72 M283.92 350.16 C313.01 316.69, 342.1 283.22, 358.71 264.12 M283.92 350.16 C312.44 317.35, 340.96 284.54, 358.71 264.12 M288.91 350.52 C311.01 325.09, 333.11 299.66, 359.1 269.76 M288.91 350.52 C310.93 325.19, 332.95 299.85, 359.1 269.76 M294.55 350.12 C318.49 322.58, 342.44 295.03, 358.84 276.16 M294.55 350.12 C309.54 332.87, 324.54 315.63, 358.84 276.16 M299.54 350.48 C316.95 330.45, 334.37 310.41, 358.58 282.56 M299.54 350.48 C321.83 324.84, 344.12 299.2, 358.58 282.56 M305.18 350.09 C324.92 327.38, 344.65 304.68, 358.98 288.2 M305.18 350.09 C321.84 330.92, 338.51 311.75, 358.98 288.2 M310.17 350.45 C326.94 331.15, 343.71 311.86, 358.71 294.6 M310.17 350.45 C322.14 336.67, 334.12 322.89, 358.71 294.6 M315.81 350.05 C328.06 335.96, 340.31 321.87, 359.11 300.24 M315.81 350.05 C328.23 335.77, 340.65 321.48, 359.11 300.24 M320.8 350.41 C330.23 339.56, 339.67 328.71, 358.85 306.64 M320.8 350.41 C333.68 335.6, 346.56 320.78, 358.85 306.64 M326.44 350.02 C337.63 337.15, 348.82 324.27, 358.59 313.04 M326.44 350.02 C337.63 337.15, 348.81 324.28, 358.59 313.04 M331.43 350.38 C338.35 342.42, 345.27 334.45, 358.98 318.68 M331.43 350.38 C337.7 343.16, 343.98 335.93, 358.98 318.68 M337.07 349.99 C341.56 344.82, 346.05 339.65, 358.72 325.08 M337.07 349.99 C343.23 342.89, 349.4 335.8, 358.72 325.08 M342.06 350.35 C348.39 343.06, 354.72 335.77, 359.11 330.72 M342.06 350.35 C347.99 343.52, 353.92 336.7, 359.11 330.72 M347.7 349.95 C350.19 347.09, 352.68 344.22, 358.85 337.12 M347.7 349.95 C352.12 344.87, 356.54 339.78, 358.85 337.12 M352.69 350.31 C354.41 348.33, 356.13 346.35, 358.59 343.52 M352.69 350.31 C354.39 348.35, 356.09 346.39, 358.59 343.52" stroke="#fff" stroke-width="0.5" fill="none"></path><path d="M0 0 C108.73 0, 217.47 0, 356.67 0 M0 0 C85.48 0, 170.97 0, 356.67 0 M356.67 0 C356.67 134.5, 356.67 268.99, 356.67 347.78 M356.67 0 C356.67 109.53, 356.67 219.05, 356.67 347.78 M356.67 347.78 C252.4 347.78, 148.13 347.78, 0 347.78 M356.67 347.78 C214.63 347.78, 72.59 347.78, 0 347.78 M0 347.78 C0 247.72, 0 147.67, 0 0 M0 347.78 C0 246.98, 0 146.19, 0 0" stroke="#000000" stroke-width="1" fill="none"></path></g><g transform="translate(57.03270777823491 15.72552117460873) rotate(0 137.5 11)"><text x="137.5" y="16" font-family="Virgil, Segoe UI Emoji" font-size="17.678798363929268px" fill="#000000" text-anchor="middle" style="white-space: pre;" direction="ltr">Let's practice what we learned</text></g><g transform="translate(83.09411535901836 73.33584403168788) rotate(0 22 18.5)"><text x="22" y="26" font-family="Virgil, Segoe UI Emoji" font-size="27.239762092714148px" fill="#000000" text-anchor="middle" style="white-space: pre;" direction="rtl">آنکھ</text></g><g transform="translate(167.68900440386642 78.56192679444212) rotate(0 45.5 15.5)"><text x="45.5" y="22" font-family="Virgil, Segoe UI Emoji" font-size="22.797265116387106px" fill="#000" text-anchor="middle" style="white-space: pre;" direction="rtl">آ+ن+ک+ھ</text></g><g transform="translate(75.58533692395667 123.14394615546189) rotate(0 31.5 19.5)"><text x="31.5" y="28" font-family="Virgil, Segoe UI Emoji" font-size="28.32070503290123px" fill="#000000" text-anchor="middle" style="white-space: pre;" direction="rtl">جھوٹ</text></g><g transform="translate(166.86557903557332 127.65567188006571) rotate(0 48.5 16)"><text x="48.5" y="23" font-family="Virgil, Segoe UI Emoji" font-size="23.701918494021527px" fill="#000000" text-anchor="middle" style="white-space: pre;" direction="rtl">ج+ھ+و+ٹ</text></g><g transform="translate(80.5899439404584 173.7704620166587) rotate(0 27 19.5)"><text x="27" y="28" font-family="Virgil, Segoe UI Emoji" font-size="28.33367970847109px" fill="#000000" text-anchor="middle" style="white-space: pre;" direction="rtl">دھونا</text></g><g transform="translate(160.9730472804522 175.40402474778148) rotate(0 56 16)"><text x="56" y="23" font-family="Virgil, Segoe UI Emoji" font-size="23.71277714681587px" fill="#000000" text-anchor="middle" style="white-space: pre;" direction="rtl">د+ھ+و+ن+ا</text></g><g transform="translate(82.11466082137667 256.0426125489148) rotate(0 32.5 18.5)"><text x="32.5" y="26" font-family="Virgil, Segoe UI Emoji" font-size="27.239762092714148px" fill="#000000" text-anchor="middle" style="white-space: pre;" direction="rtl">پیچھے</text></g><g transform="translate(159.92812088151277 257.91593384925545) rotate(0 65 16)"><text x="65" y="23" font-family="Virgil, Segoe UI Emoji" font-size="23.321178481238984px" fill="#000000" text-anchor="middle" style="white-space: pre;" direction="rtl">پ+ی+چ+ھ+ے</text></g><g transform="translate(82.67556942051306 300.0465386062242) rotate(0 19.5 18.5)"><text x="19.5" y="26" font-family="Virgil, Segoe UI Emoji" font-size="27.239762092714148px" fill="#000000" text-anchor="middle" style="white-space: pre;" direction="rtl">گھر</text></g><g transform="translate(189.98692847903203 304.51271253176765) rotate(0 34 15.5)"><text x="34" y="22" font-family="Virgil, Segoe UI Emoji" font-size="22.79726511638711px" fill="#000000" text-anchor="middle" style="white-space: pre;" direction="rtl">گ+ھ+ر</text></g><g transform="translate(90.0362194253239 224.7358413717502) rotate(0 22 16)"><text x="22" y="23" font-family="Virgil, Segoe UI Emoji" font-size="23.456461802059447px" fill="#000000" text-anchor="middle" style="white-space: pre;" direction="rtl">ابھی</text></g><g transform="translate(183.3711539193373 221.83954368333616) rotate(0 46 15.5)"><text x="46" y="22" font-family="Virgil, Segoe UI Emoji" font-size="22.79726511638711px" fill="#000000" text-anchor="middle" style="white-space: pre;" direction="rtl">ا+ب+ھ+ی</text></g><g transform="translate(171.32142857143026 39.52688440443853) rotate(0 27 10)"><text x="27" y="14" font-family="Virgil, Segoe UI Emoji" font-size="16px" fill="#e67700" text-anchor="middle" style="white-space: pre;" direction="ltr">Answer</text></g><g transform="translate(284 73.05030533009085) rotate(0 19.5 10)"><text x="19.5" y="14" font-family="Virgil, Segoe UI Emoji" font-size="16px" fill="#d9480f" text-anchor="middle" style="white-space: pre;" direction="ltr">(eye)</text></g><g transform="translate(307.75 131.55030533009085) rotate(0 15.5 10)"><text x="15.5" y="14" font-family="Virgil, Segoe UI Emoji" font-size="16px" fill="#d9480f" text-anchor="middle" style="white-space: pre;" direction="ltr">(lie)</text></g><g transform="translate(277.75 182.55030533009085) rotate(0 38.5 10)"><text x="38.5" y="14" font-family="Virgil, Segoe UI Emoji" font-size="16px" fill="#d9480f" text-anchor="middle" style="white-space: pre;" direction="ltr">(to wash)</text></g><g transform="translate(308.75 226.80030533009085) rotate(0 20 10)"><text x="20" y="14" font-family="Virgil, Segoe UI Emoji" font-size="16px" fill="#d9480f" text-anchor="middle" style="white-space: pre;" direction="ltr">(now)</text></g><g transform="translate(301.25 272.80030533009085) rotate(0 29.5 10)"><text x="29.5" y="14" font-family="Virgil, Segoe UI Emoji" font-size="16px" fill="#d9480f" text-anchor="middle" style="white-space: pre;" direction="ltr">(behind)</text></g><g transform="translate(291 313.05030533009085) rotate(0 25 10)"><text x="25" y="14" font-family="Virgil, Segoe UI Emoji" font-size="16px" fill="#d9480f" text-anchor="middle" style="white-space: pre;" direction="ltr">(home)</text></g><g transform="translate(29.5 76.80030533009085) rotate(0 24 10)"><text x="24" y="14" font-family="Virgil, Segoe UI Emoji" font-size="16px" fill="#e67700" text-anchor="middle" style="white-space: pre;" direction="ltr">(ankh)</text></g><g transform="translate(36.75 125.55030533009085) rotate(0 16.5 10)"><text x="16.5" y="14" font-family="Virgil, Segoe UI Emoji" font-size="16px" fill="#e67700" text-anchor="middle" style="white-space: pre;" direction="ltr">juth</text></g><g transform="translate(21.5 179.05030533009085) rotate(0 29 10)"><text x="29" y="14" font-family="Virgil, Segoe UI Emoji" font-size="16px" fill="#e67700" text-anchor="middle" style="white-space: pre;" direction="ltr">(dhona)</text></g><g transform="translate(29.818181818181984 233.05030533009085) rotate(0 20 9.5)"><text x="20" y="13" font-family="Virgil, Segoe UI Emoji" font-size="14.43356643356643px" fill="#e67700" text-anchor="middle" style="white-space: pre;" direction="ltr">(abhi)</text></g><g transform="translate(31.75 266.80030533009085) rotate(0 25 10)"><text x="25" y="14" font-family="Virgil, Segoe UI Emoji" font-size="16px" fill="#e67700" text-anchor="middle" style="white-space: pre;" direction="ltr">(piche)</text></g><g transform="translate(30.5 314.30030533009085) rotate(0 24 10)"><text x="24" y="14" font-family="Virgil, Segoe UI Emoji" font-size="16px" fill="#e67700" text-anchor="middle" style="white-space: pre;" direction="ltr">(ghar)</text></g><g stroke-linecap="round"><g transform="translate(10 69.30030533009085) rotate(0 180 0)"><path d="M0 0 C30 0, 120 0, 180 0 C240 0, 330 0, 360 0" stroke="#495057" stroke-width="1.5" fill="none" stroke-dasharray="1.5 7"></path></g></g><g stroke-linecap="round"><g transform="translate(11.863900982844825 112.07979487194007) rotate(0 178.18181818181824 0)"><path d="M0 0 C59.39 0, 296.97 0, 356.36 0" stroke="#000000" stroke-width="1.5" fill="none" stroke-dasharray="1.5 7"></path></g></g><g stroke-linecap="round"><g transform="translate(11.772991891936726 164.26161305375717) rotate(0 177.27272727272725 0.9090909090912191)"><path d="M0 0 C59.09 0.3, 295.45 1.52, 354.55 1.82" stroke="#000000" stroke-width="1.5" fill="none" stroke-dasharray="1.5 7"></path></g></g><g stroke-linecap="round"><g transform="translate(10.863900982845735 212.98888578103106) rotate(0 177.72727272727252 -0.4545454545452685)"><path d="M0 0 C59.24 -0.15, 296.21 -0.76, 355.45 -0.91" stroke="#000000" stroke-width="1.5" fill="none" stroke-dasharray="1.5 7"></path></g></g><g stroke-linecap="round"><g transform="translate(12.448016559535972 299.2747215345644) rotate(0 178.63636363636363 0.9090909090909918)"><path d="M0 0 C59.55 0.3, 297.73 1.52, 357.27 1.82" stroke="#000000" stroke-width="1.5" fill="none" stroke-dasharray="1.5 7"></path></g></g><g transform="translate(99.58438019589994 337.3201760800184) rotate(0 76.5 8.5)"><text x="76.5" y="12" font-family="Virgil, Segoe UI Emoji" font-size="12.181818181818201px" fill="#e67700" text-anchor="middle" style="white-space: pre;" direction="ltr">note: ے is badi e. آ is aa</text></g><g stroke-linecap="round"><g transform="translate(10.844155844155466 258.62914862914886) rotate(0 177.72727272727252 -0.4545454545452685)"><path d="M0 0 C59.24 -0.15, 296.21 -0.76, 355.45 -0.91" stroke="#000000" stroke-width="1.5" fill="none" stroke-dasharray="1.5 7"></path></g></g></svg>