<svg version="1.1" xmlns="http://www.w3.org/2000/svg" viewBox="0 0 379 373" width="379" height="373">
  <!-- svg-source:excalidraw -->
  
  <defs>
    <style>
      @font-face {
        font-family: "Virgil";
        src: url("https://excalidraw.com/Virgil.woff2");
      }
      @font-face {
        font-family: "Cascadia";
        src: url("https://excalidraw.com/Cascadia.woff2");
      }
    </style>
  </defs>
  <rect x="0" y="0" width="379" height="373" fill="#ffffff"></rect><g stroke-linecap="round" transform="translate(10 10) rotate(0 179.5 176.5)"><path d="M0 0 C130.1 0, 260.2 0, 359 0 M0 0 C124.7 0, 249.4 0, 359 0 M359 0 C359 92.45, 359 184.89, 359 353 M359 0 C359 101.87, 359 203.75, 359 353 M359 353 C235.36 353, 111.72 353, 0 353 M359 353 C235.52 353, 112.04 353, 0 353 M0 353 C0 254.22, 0 155.44, 0 0 M0 353 C0 257.72, 0 162.45, 0 0" stroke="#000000" stroke-width="1" fill="none"></path></g><g transform="translate(47 39) rotate(0 8 13.5)"><text x="8" y="20" font-family="Virgil, Segoe UI Emoji" font-size="20px" fill="#000000" text-anchor="middle" style="white-space: pre;" direction="ltr">फ़</text></g><g transform="translate(328.4999999999991 42) rotate(0 7.5 12.5)"><text x="7.5" y="18" font-family="Virgil, Segoe UI Emoji" font-size="20px" fill="#000000" text-anchor="middle" style="white-space: pre;" direction="ltr">Q</text></g><g transform="translate(301.4999999999991 296) rotate(0 23.5 18)"><text x="23.5" y="26" font-family="Virgil, Segoe UI Emoji" font-size="28px" fill="#000000" text-anchor="middle" style="white-space: pre;" direction="rtl">فوج</text></g><g transform="translate(170.72222222222126 295.75) rotate(0 26.5 31.5)"><text x="26.5" y="22.5" font-family="Virgil, Segoe UI Emoji" font-size="24.54320987654329px" fill="#000000" text-anchor="middle" style="white-space: pre;" direction="rtl">سفید</text><text x="26.5" y="54" font-family="Virgil, Segoe UI Emoji" font-size="24.54320987654329px" fill="#000000" text-anchor="middle" style="white-space: pre;" direction="rtl"></text></g><g transform="translate(44 295.4981818181841) rotate(0 26.5 18)"><text x="26.5" y="26" font-family="Virgil, Segoe UI Emoji" font-size="28px" fill="#000000" text-anchor="middle" style="white-space: pre;" direction="rtl">برف</text></g><g transform="translate(163 45.22728228569031) rotate(0 24 10.5)"><text x="24" y="15" font-family="Virgil, Segoe UI Emoji" font-size="16px" fill="#000000" text-anchor="middle" style="white-space: pre;" direction="ltr">Fē(ف)</text></g><g transform="translate(311.947662472724 328.79078912734985) rotate(0 17 10)"><text x="34" y="14" font-family="Virgil, Segoe UI Emoji" font-size="16px" fill="#000000" text-anchor="end" style="white-space: pre;" direction="ltr">fauj</text></g><g transform="translate(176.947662472724 326.79078912734985) rotate(0 23 10)"><text x="46" y="14" font-family="Virgil, Segoe UI Emoji" font-size="16px" fill="#000000" text-anchor="end" style="white-space: pre;" direction="ltr">safed</text></g><g transform="translate(46.947662472724915 326.79078912734985) rotate(0 22.5 10)"><text x="45" y="14" font-family="Virgil, Segoe UI Emoji" font-size="16px" fill="#000000" text-anchor="end" style="white-space: pre;" direction="ltr">baraf</text></g><g stroke-linecap="round"><g transform="translate(109.71230147394908 180.85417105324814) rotate(0 74.86587195989591 5.070854431195585)"><path d="M0 0 C-0.42 4.36, -5.39 19.72, -2.5 26.17 C0.38 32.62, 5.44 35.81, 17.31 38.7 C29.17 41.59, 51.12 44.46, 68.69 43.5 C86.27 42.54, 109.17 40.29, 122.76 32.93 C136.35 25.56, 145.87 9.91, 150.26 -0.69 C154.65 -11.28, 153.81 -25.63, 149.08 -30.64 C144.35 -35.65, 129.02 -33.17, 121.85 -30.75 C114.69 -28.33, 106.47 -22.07, 106.1 -16.14 C105.73 -10.21, 112.29 2.14, 119.63 4.82 C126.97 7.51, 145.05 0.78, 150.14 -0.03 M0 0 C-0.42 4.36, -5.39 19.72, -2.5 26.17 C0.38 32.62, 5.44 35.81, 17.31 38.7 C29.17 41.59, 51.12 44.46, 68.69 43.5 C86.27 42.54, 109.17 40.29, 122.76 32.93 C136.35 25.56, 145.87 9.91, 150.26 -0.69 C154.65 -11.28, 153.81 -25.63, 149.08 -30.64 C144.35 -35.65, 129.02 -33.17, 121.85 -30.75 C114.69 -28.33, 106.47 -22.07, 106.1 -16.14 C105.73 -10.21, 112.29 2.14, 119.63 4.82 C126.97 7.51, 145.05 0.78, 150.14 -0.03" stroke="#000" stroke-width="4" fill="none"></path></g></g><g stroke-linecap="round" transform="translate(237.9839742252634 123.08733536031286) rotate(304.5524875944234 5.5 5.5)"><path d="M11 5.5 C11 5.82, 10.97 6.14, 10.92 6.46 C10.86 6.77, 10.78 7.08, 10.67 7.38 C10.56 7.68, 10.42 7.97, 10.26 8.25 C10.1 8.53, 9.92 8.79, 9.71 9.04 C9.51 9.28, 9.28 9.51, 9.04 9.71 C8.79 9.92, 8.53 10.1, 8.25 10.26 C7.97 10.42, 7.68 10.56, 7.38 10.67 C7.08 10.78, 6.77 10.86, 6.46 10.92 C6.14 10.97, 5.82 11, 5.5 11 C5.18 11, 4.86 10.97, 4.54 10.92 C4.23 10.86, 3.92 10.78, 3.62 10.67 C3.32 10.56, 3.03 10.42, 2.75 10.26 C2.47 10.1, 2.21 9.92, 1.96 9.71 C1.72 9.51, 1.49 9.28, 1.29 9.04 C1.08 8.79, 0.9 8.53, 0.74 8.25 C0.58 7.97, 0.44 7.68, 0.33 7.38 C0.22 7.08, 0.14 6.77, 0.08 6.46 C0.03 6.14, 0 5.82, 0 5.5 C0 5.18, 0.03 4.86, 0.08 4.54 C0.14 4.23, 0.22 3.92, 0.33 3.62 C0.44 3.32, 0.58 3.03, 0.74 2.75 C0.9 2.47, 1.08 2.21, 1.29 1.96 C1.49 1.72, 1.72 1.49, 1.96 1.29 C2.21 1.08, 2.47 0.9, 2.75 0.74 C3.03 0.58, 3.32 0.44, 3.62 0.33 C3.92 0.22, 4.23 0.14, 4.54 0.08 C4.86 0.03, 5.18 0, 5.5 0 C5.82 0, 6.14 0.03, 6.46 0.08 C6.77 0.14, 7.08 0.22, 7.38 0.33 C7.68 0.44, 7.97 0.58, 8.25 0.74 C8.53 0.9, 8.79 1.08, 9.04 1.29 C9.28 1.49, 9.51 1.72, 9.71 1.96 C9.92 2.21, 10.1 2.47, 10.26 2.75 C10.42 3.03, 10.56 3.32, 10.67 3.62 C10.78 3.92, 10.86 4.23, 10.92 4.54 C10.97 4.86, 10.99 5.34, 11 5.5 C11.01 5.66, 11.01 5.34, 11 5.5" stroke="none" stroke-width="0" fill="#fd7e14"></path><path d="M11 5.5 C11 5.82, 10.97 6.14, 10.92 6.46 C10.86 6.77, 10.78 7.08, 10.67 7.38 C10.56 7.68, 10.42 7.97, 10.26 8.25 C10.1 8.53, 9.92 8.79, 9.71 9.04 C9.51 9.28, 9.28 9.51, 9.04 9.71 C8.79 9.92, 8.53 10.1, 8.25 10.26 C7.97 10.42, 7.68 10.56, 7.38 10.67 C7.08 10.78, 6.77 10.86, 6.46 10.92 C6.14 10.97, 5.82 11, 5.5 11 C5.18 11, 4.86 10.97, 4.54 10.92 C4.23 10.86, 3.92 10.78, 3.62 10.67 C3.32 10.56, 3.03 10.42, 2.75 10.26 C2.47 10.1, 2.21 9.92, 1.96 9.71 C1.72 9.51, 1.49 9.28, 1.29 9.04 C1.08 8.79, 0.9 8.53, 0.74 8.25 C0.58 7.97, 0.44 7.68, 0.33 7.38 C0.22 7.08, 0.14 6.77, 0.08 6.46 C0.03 6.14, 0 5.82, 0 5.5 C0 5.18, 0.03 4.86, 0.08 4.54 C0.14 4.23, 0.22 3.92, 0.33 3.62 C0.44 3.32, 0.58 3.03, 0.74 2.75 C0.9 2.47, 1.08 2.21, 1.29 1.96 C1.49 1.72, 1.72 1.49, 1.96 1.29 C2.21 1.08, 2.47 0.9, 2.75 0.74 C3.03 0.58, 3.32 0.44, 3.62 0.33 C3.92 0.22, 4.23 0.14, 4.54 0.08 C4.86 0.03, 5.18 0, 5.5 0 C5.82 0, 6.14 0.03, 6.46 0.08 C6.77 0.14, 7.08 0.22, 7.38 0.33 C7.68 0.44, 7.97 0.58, 8.25 0.74 C8.53 0.9, 8.79 1.08, 9.04 1.29 C9.28 1.49, 9.51 1.72, 9.71 1.96 C9.92 2.21, 10.1 2.47, 10.26 2.75 C10.42 3.03, 10.56 3.32, 10.67 3.62 C10.78 3.92, 10.86 4.23, 10.92 4.54 C10.97 4.86, 10.99 5.34, 11 5.5 C11.01 5.66, 11.01 5.34, 11 5.5" stroke="#000000" stroke-width="1" fill="none"></path></g></svg>