<svg version="1.1" xmlns="http://www.w3.org/2000/svg" viewBox="0 0 379 373" width="379" height="373">
  <!-- svg-source:excalidraw -->
  
  <defs>
    <style>
      @font-face {
        font-family: "Virgil";
        src: url("https://excalidraw.com/Virgil.woff2");
      }
      @font-face {
        font-family: "Cascadia";
        src: url("https://excalidraw.com/Cascadia.woff2");
      }
    </style>
  </defs>
  <rect x="0" y="0" width="379" height="373" fill="#ffffff"></rect><g stroke-linecap="round"><g transform="translate(273.5 81.5) rotate(4.93921554212618 -36.5 18.5)"><path d="M0 0 C-12.17 6.17, -60.83 30.83, -73 37 M0 0 C-12.17 6.17, -60.83 30.83, -73 37" stroke="#000000" stroke-width="1" fill="none"></path></g></g><g stroke-linecap="round" transform="translate(10 10) rotate(0 179.5 176.5)"><path d="M0 0 C88.93 0, 177.86 0, 359 0 M0 0 C80.61 0, 161.21 0, 359 0 M359 0 C359 125.37, 359 250.74, 359 353 M359 0 C359 124.19, 359 248.38, 359 353 M359 353 C258.2 353, 157.41 353, 0 353 M359 353 C260.82 353, 162.63 353, 0 353 M0 353 C0 263.71, 0 174.41, 0 0 M0 353 C0 232.01, 0 111.02, 0 0" stroke="#000000" stroke-width="1" fill="none"></path></g><g transform="translate(49.5 39) rotate(0 5.5 13.5)"><text x="5.5" y="20" font-family="Virgil, Segoe UI Emoji" font-size="20px" fill="#000000" text-anchor="middle" style="white-space: pre;" direction="ltr">ग</text></g><g transform="translate(327.5 42) rotate(0 8.5 12.5)"><text x="8.5" y="18" font-family="Virgil, Segoe UI Emoji" font-size="20px" fill="#000000" text-anchor="middle" style="white-space: pre;" direction="ltr">G</text></g><g transform="translate(305.5 296) rotate(0 19.5 16.5)"><text x="19.5" y="26" font-family="Helvetica, Segoe UI Emoji" font-size="28px" fill="#000000" text-anchor="middle" style="white-space: pre;" direction="rtl">گانا</text></g><g transform="translate(178.5 295.75) rotate(0 26.5 16.5)"><text x="26.5" y="26" font-family="Helvetica, Segoe UI Emoji" font-size="28px" fill="#000000" text-anchor="middle" style="white-space: pre;" direction="rtl">نگان</text></g><g transform="translate(48.5 296) rotate(0 21 16.5)"><text x="21" y="26" font-family="Helvetica, Segoe UI Emoji" font-size="28px" fill="#000000" text-anchor="middle" style="white-space: pre;" direction="rtl">ناگ</text></g><g transform="translate(144 42.72728228569031) rotate(0 43 13)"><text x="43" y="19" font-family="Virgil, Segoe UI Emoji" font-size="20px" fill="#000000" text-anchor="middle" style="white-space: pre;" direction="ltr">Gaaf(گ)</text></g><g stroke-linecap="round"><g transform="translate(281.46628875896204 98.473916888237) rotate(0 -86.15538286779372 75.92072748654869)"><path d="M0 0 C-12.65 6.58, -70.57 20.8, -75.92 39.49 C-81.28 58.17, -29.68 93.63, -32.13 112.12 C-34.59 130.62, -68.76 145.93, -90.66 150.47 C-112.56 155, -149.99 147.57, -163.54 139.33 C-177.1 131.08, -170.56 107.37, -171.97 100.98 M0 0 C-12.65 6.58, -70.57 20.8, -75.92 39.49 C-81.28 58.17, -29.68 93.63, -32.13 112.12 C-34.59 130.62, -68.76 145.93, -90.66 150.47 C-112.56 155, -149.99 147.57, -163.54 139.33 C-177.1 131.08, -170.56 107.37, -171.97 100.98" stroke="#000000" stroke-width="1" fill="none"></path></g></g><g transform="translate(313.4476624727249 331.6115779876709) rotate(0 19 10)"><text x="38" y="14" font-family="Virgil, Segoe UI Emoji" font-size="16px" fill="#000000" text-anchor="end" style="white-space: pre;" direction="ltr">gana</text></g><g transform="translate(185.44766247272491 331.6115779876709) rotate(0 19 10)"><text x="38" y="14" font-family="Virgil, Segoe UI Emoji" font-size="16px" fill="#000000" text-anchor="end" style="white-space: pre;" direction="ltr">nagin</text></g><g transform="translate(52.447662472724915 331.6115779876709) rotate(0 19 10)"><text x="38" y="14" font-family="Virgil, Segoe UI Emoji" font-size="16px" fill="#000000" text-anchor="end" style="white-space: pre;" direction="ltr">naag</text></g></svg>