<svg version="1.1" xmlns="http://www.w3.org/2000/svg" viewBox="0 0 379 373" width="379" height="373">
  <!-- svg-source:excalidraw -->
  
  <defs>
    <style>
      @font-face {
        font-family: "Virgil";
        src: url("../Virgil.woff2");;
      }
      
    </style>
  </defs>
  <rect x="0" y="0" width="379" height="373" fill="#ffffff"></rect><g stroke-linecap="round"><g transform="translate(242.72559154843543 125.16788588943928) rotate(0 -50.22648346283779 51.78572428217285)"><path d="M0 0 C-8.59 4.47, -47.91 14.12, -51.54 26.81 C-55.18 39.49, -22.18 64.13, -21.81 76.12 C-21.45 88.11, -39.66 94.21, -49.33 98.76 C-58.99 103.31, -71.28 102.79, -79.8 103.41 C-88.32 104.04, -97.01 102.65, -100.45 102.5 M0 0 C-8.59 4.47, -47.91 14.12, -51.54 26.81 C-55.18 39.49, -22.18 64.13, -21.81 76.12 C-21.45 88.11, -39.66 94.21, -49.33 98.76 C-58.99 103.31, -71.28 102.79, -79.8 103.41 C-88.32 104.04, -97.01 102.65, -100.45 102.5" stroke="#000000" stroke-width="1" fill="none"></path></g></g><g stroke-linecap="round"><g transform="translate(167.3801447904841 228.3068962811558) rotate(0 -24.440072395242055 -1.1360511830812356)"><path d="M0 0 C-4.23 -0.28, -19.25 1.97, -25.39 -1.7 C-31.54 -5.37, -36.64 -16.2, -36.86 -22.01 C-37.09 -27.81, -29.53 -36.5, -26.76 -36.56 C-23.98 -36.61, -20.61 -28.55, -20.2 -22.34 C-19.79 -16.14, -22.43 -5.82, -24.3 0.67 C-26.17 7.15, -31.4 10.99, -31.4 16.57 C-31.4 22.15, -26.58 32.93, -24.3 34.17 C-22.02 35.41, -18.66 27.74, -17.74 24.01 C-16.83 20.29, -17.65 15.95, -18.84 11.83 C-20.02 7.72, -19.84 1.51, -24.85 -0.69 C-29.85 -2.89, -44.87 -1.25, -48.88 -1.36 M0 0 C-4.23 -0.28, -19.25 1.97, -25.39 -1.7 C-31.54 -5.37, -36.64 -16.2, -36.86 -22.01 C-37.09 -27.81, -29.53 -36.5, -26.76 -36.56 C-23.98 -36.61, -20.61 -28.55, -20.2 -22.34 C-19.79 -16.14, -22.43 -5.82, -24.3 0.67 C-26.17 7.15, -31.4 10.99, -31.4 16.57 C-31.4 22.15, -26.58 32.93, -24.3 34.17 C-22.02 35.41, -18.66 27.74, -17.74 24.01 C-16.83 20.29, -17.65 15.95, -18.84 11.83 C-20.02 7.72, -19.84 1.51, -24.85 -0.69 C-29.85 -2.89, -44.87 -1.25, -48.88 -1.36" stroke="#000000" stroke-width="1" fill="none"></path></g></g><g stroke-linecap="round"><g transform="translate(237.3870994675067 100.60711770908983) rotate(4.93921554212618 -25.387099467506914 13.524716917107753)"><path d="M0 0 C-8.46 4.51, -42.31 22.54, -50.77 27.05 M0 0 C-8.46 4.51, -42.31 22.54, -50.77 27.05" stroke="#000000" stroke-width="1" fill="none"></path></g></g><g stroke-linecap="round" transform="translate(10 10) rotate(0 179.5 176.5)"><path d="M0 0 C143.34 0, 286.68 0, 359 0 M0 0 C109.4 0, 218.79 0, 359 0 M359 0 C359 133.59, 359 267.17, 359 353 M359 0 C359 71.47, 359 142.95, 359 353 M359 353 C217.88 353, 76.77 353, 0 353 M359 353 C230.09 353, 101.18 353, 0 353 M0 353 C0 262.97, 0 172.93, 0 0 M0 353 C0 211.82, 0 70.63, 0 0" stroke="#000000" stroke-width="1" fill="none"></path></g><g transform="translate(48.5 39) rotate(0 6.5 13.5)"><text x="6.5" y="20" font-family="Virgil, Segoe UI Emoji" font-size="20px" fill="#000000" text-anchor="middle" style="white-space: pre;" direction="ltr">घ</text></g><g transform="translate(322.5 42) rotate(0 13.5 12.5)"><text x="13.5" y="18" font-family="Virgil, Segoe UI Emoji" font-size="20px" fill="#000000" text-anchor="middle" style="white-space: pre;" direction="ltr">Gh</text></g><g transform="translate(293.5 296) rotate(0 31.5 18)"><text x="31.5" y="26" font-family="Virgil, Segoe UI Emoji" font-size="28px" fill="#000000" text-anchor="middle" style="white-space: pre;" direction="rtl">گھوڑا</text></g><g transform="translate(182 295.75) rotate(0 23 18)"><text x="23" y="26" font-family="Virgil, Segoe UI Emoji" font-size="28px" fill="#000000" text-anchor="middle" style="white-space: pre;" direction="rtl">ـگھـ</text></g><g transform="translate(49.5 295.4981818181823) rotate(0 21 18)"><text x="21" y="26" font-family="Virgil, Segoe UI Emoji" font-size="28px" fill="#000000" text-anchor="middle" style="white-space: pre;" direction="rtl">ـگھ</text></g><g transform="translate(155 42.72728228569031) rotate(0 32 13)"><text x="32" y="19" font-family="Virgil, Segoe UI Emoji" font-size="20px" fill="#000000" text-anchor="middle" style="white-space: pre;" direction="ltr">Gh(گھ)</text></g><g transform="translate(302.9476624727249 326.79078912734985) rotate(0 23 10)"><text x="46" y="14" font-family="Virgil, Segoe UI Emoji" font-size="16px" fill="#000000" text-anchor="end" style="white-space: pre;" direction="ltr">ghoda</text></g><g transform="translate(195.94766247272491 326.79078912734985) rotate(0 12 10)"><text x="24" y="14" font-family="Virgil, Segoe UI Emoji" font-size="16px" fill="#000000" text-anchor="end" style="white-space: pre;" direction="ltr">mid</text></g><g transform="translate(52.947662472724915 326.79078912734985) rotate(0 17.5 10)"><text x="35" y="14" font-family="Virgil, Segoe UI Emoji" font-size="16px" fill="#000000" text-anchor="end" style="white-space: pre;" direction="ltr">final</text></g></svg>