<svg version="1.1" xmlns="http://www.w3.org/2000/svg" viewBox="0 0 379 373" width="379" height="373">
  <!-- svg-source:excalidraw -->
  
  <defs>
    <style>
      @font-face {
        font-family: "Virgil";
        src: url("https://excalidraw.com/Virgil.woff2");
      }
      @font-face {
        font-family: "Cascadia";
        src: url("https://excalidraw.com/Cascadia.woff2");
      }
    </style>
  </defs>
  <rect x="0" y="0" width="379" height="373" fill="#ffffff"></rect><g stroke-linecap="round" transform="translate(10 10) rotate(0 179.5 176.5)"><path d="M0 0 C82.55 0, 165.09 0, 359 0 M0 0 C97.34 0, 194.68 0, 359 0 M359 0 C359 71.57, 359 143.13, 359 353 M359 0 C359 105.76, 359 211.51, 359 353 M359 353 C241.4 353, 123.8 353, 0 353 M359 353 C229.33 353, 99.65 353, 0 353 M0 353 C0 224.56, 0 96.11, 0 0 M0 353 C0 218.35, 0 83.7, 0 0" stroke="#000000" stroke-width="1" fill="none"></path></g><g transform="translate(47 39) rotate(0 8 13.5)"><text x="8" y="20" font-family="Virgil, Segoe UI Emoji" font-size="20px" fill="#000000" text-anchor="middle" style="white-space: pre;" direction="ltr">अ</text></g><g transform="translate(327.5000000000002 42) rotate(0 8.5 12.5)"><text x="8.5" y="18" font-family="Virgil, Segoe UI Emoji" font-size="20px" fill="#000000" text-anchor="middle" style="white-space: pre;" direction="ltr">G</text></g><g transform="translate(314.5000000000002 301) rotate(0 13.5 13)"><text x="13.5" y="19" font-family="Virgil, Segoe UI Emoji" font-size="20px" fill="#000000" text-anchor="middle" style="white-space: pre;" direction="rtl">غار</text></g><g transform="translate(173.00000000000023 300.75) rotate(0 26 13)"><text x="26" y="19" font-family="Virgil, Segoe UI Emoji" font-size="20px" fill="#000000" text-anchor="middle" style="white-space: pre;" direction="rtl">مغرور</text></g><g transform="translate(40 300.4981818181841) rotate(0 28.5 13)"><text x="28.5" y="19" font-family="Virgil, Segoe UI Emoji" font-size="20px" fill="#000000" text-anchor="middle" style="white-space: pre;" direction="rtl">باغ/بیغ</text></g><g transform="translate(151.50000000000023 42.72728228569031) rotate(0 35.5 13)"><text x="35.5" y="19" font-family="Virgil, Segoe UI Emoji" font-size="20px" fill="#000000" text-anchor="middle" style="white-space: pre;" direction="ltr">Gain(غ)</text></g><g transform="translate(314.94766247272514 326.79078912734985) rotate(0 13.5 10)"><text x="27" y="14" font-family="Virgil, Segoe UI Emoji" font-size="16px" fill="#000000" text-anchor="end" style="white-space: pre;" direction="ltr">gar</text></g><g transform="translate(169.94766247272514 326.79078912734985) rotate(0 26.5 10)"><text x="53" y="14" font-family="Virgil, Segoe UI Emoji" font-size="16px" fill="#000000" text-anchor="end" style="white-space: pre;" direction="ltr">magrur</text></g><g transform="translate(37.947662472724915 326.79078912734985) rotate(0 36 10)"><text x="72" y="14" font-family="Virgil, Segoe UI Emoji" font-size="16px" fill="#000000" text-anchor="end" style="white-space: pre;" direction="ltr">teg/baag</text></g><g stroke-linecap="round"><g transform="translate(174.9573507140401 122.23908311886771) rotate(0 10.411507695657406 53.00780619930538)"><path d="M0 0 C-6.78 3.41, -35.32 12.29, -40.67 20.47 C-46.03 28.65, -40.09 47.25, -32.14 49.07 C-24.2 50.88, 4.88 28.99, 6.99 31.36 C9.1 33.73, -14.11 51.8, -19.49 63.3 C-24.87 74.81, -32.16 94.17, -25.26 100.38 C-18.37 106.59, 7.08 109.01, 21.88 100.58 C36.68 92.15, 56.6 58.25, 63.55 49.78 M0 0 C-6.78 3.41, -35.32 12.29, -40.67 20.47 C-46.03 28.65, -40.09 47.25, -32.14 49.07 C-24.2 50.88, 4.88 28.99, 6.99 31.36 C9.1 33.73, -14.11 51.8, -19.49 63.3 C-24.87 74.81, -32.16 94.17, -25.26 100.38 C-18.37 106.59, 7.08 109.01, 21.88 100.58 C36.68 92.15, 56.6 58.25, 63.55 49.78" stroke="#000000" stroke-width="1" fill="none"></path></g></g><g stroke-linecap="round" transform="translate(154 100.99999999999818) rotate(304.5524875944234 5.5 5.5)"><path d="M11 5.5 C11 5.82, 10.97 6.14, 10.92 6.46 C10.86 6.77, 10.78 7.08, 10.67 7.38 C10.56 7.68, 10.42 7.97, 10.26 8.25 C10.1 8.53, 9.92 8.79, 9.71 9.04 C9.51 9.28, 9.28 9.51, 9.04 9.71 C8.79 9.92, 8.53 10.1, 8.25 10.26 C7.97 10.42, 7.68 10.56, 7.38 10.67 C7.08 10.78, 6.77 10.86, 6.46 10.92 C6.14 10.97, 5.82 11, 5.5 11 C5.18 11, 4.86 10.97, 4.54 10.92 C4.23 10.86, 3.92 10.78, 3.62 10.67 C3.32 10.56, 3.03 10.42, 2.75 10.26 C2.47 10.1, 2.21 9.92, 1.96 9.71 C1.72 9.51, 1.49 9.28, 1.29 9.04 C1.08 8.79, 0.9 8.53, 0.74 8.25 C0.58 7.97, 0.44 7.68, 0.33 7.38 C0.22 7.08, 0.14 6.77, 0.08 6.46 C0.03 6.14, 0 5.82, 0 5.5 C0 5.18, 0.03 4.86, 0.08 4.54 C0.14 4.23, 0.22 3.92, 0.33 3.62 C0.44 3.32, 0.58 3.03, 0.74 2.75 C0.9 2.47, 1.08 2.21, 1.29 1.96 C1.49 1.72, 1.72 1.49, 1.96 1.29 C2.21 1.08, 2.47 0.9, 2.75 0.74 C3.03 0.58, 3.32 0.44, 3.62 0.33 C3.92 0.22, 4.23 0.14, 4.54 0.08 C4.86 0.03, 5.18 0, 5.5 0 C5.82 0, 6.14 0.03, 6.46 0.08 C6.77 0.14, 7.08 0.22, 7.38 0.33 C7.68 0.44, 7.97 0.58, 8.25 0.74 C8.53 0.9, 8.79 1.08, 9.04 1.29 C9.28 1.49, 9.51 1.72, 9.71 1.96 C9.92 2.21, 10.1 2.47, 10.26 2.75 C10.42 3.03, 10.56 3.32, 10.67 3.62 C10.78 3.92, 10.86 4.23, 10.92 4.54 C10.97 4.86, 10.99 5.34, 11 5.5 C11.01 5.66, 11.01 5.34, 11 5.5" stroke="none" stroke-width="0" fill="#fd7e14"></path><path d="M11 5.5 C11 5.82, 10.97 6.14, 10.92 6.46 C10.86 6.77, 10.78 7.08, 10.67 7.38 C10.56 7.68, 10.42 7.97, 10.26 8.25 C10.1 8.53, 9.92 8.79, 9.71 9.04 C9.51 9.28, 9.28 9.51, 9.04 9.71 C8.79 9.92, 8.53 10.1, 8.25 10.26 C7.97 10.42, 7.68 10.56, 7.38 10.67 C7.08 10.78, 6.77 10.86, 6.46 10.92 C6.14 10.97, 5.82 11, 5.5 11 C5.18 11, 4.86 10.97, 4.54 10.92 C4.23 10.86, 3.92 10.78, 3.62 10.67 C3.32 10.56, 3.03 10.42, 2.75 10.26 C2.47 10.1, 2.21 9.92, 1.96 9.71 C1.72 9.51, 1.49 9.28, 1.29 9.04 C1.08 8.79, 0.9 8.53, 0.74 8.25 C0.58 7.97, 0.44 7.68, 0.33 7.38 C0.22 7.08, 0.14 6.77, 0.08 6.46 C0.03 6.14, 0 5.82, 0 5.5 C0 5.18, 0.03 4.86, 0.08 4.54 C0.14 4.23, 0.22 3.92, 0.33 3.62 C0.44 3.32, 0.58 3.03, 0.74 2.75 C0.9 2.47, 1.08 2.21, 1.29 1.96 C1.49 1.72, 1.72 1.49, 1.96 1.29 C2.21 1.08, 2.47 0.9, 2.75 0.74 C3.03 0.58, 3.32 0.44, 3.62 0.33 C3.92 0.22, 4.23 0.14, 4.54 0.08 C4.86 0.03, 5.18 0, 5.5 0 C5.82 0, 6.14 0.03, 6.46 0.08 C6.77 0.14, 7.08 0.22, 7.38 0.33 C7.68 0.44, 7.97 0.58, 8.25 0.74 C8.53 0.9, 8.79 1.08, 9.04 1.29 C9.28 1.49, 9.51 1.72, 9.71 1.96 C9.92 2.21, 10.1 2.47, 10.26 2.75 C10.42 3.03, 10.56 3.32, 10.67 3.62 C10.78 3.92, 10.86 4.23, 10.92 4.54 C10.97 4.86, 10.99 5.34, 11 5.5 C11.01 5.66, 11.01 5.34, 11 5.5" stroke="#000000" stroke-width="1" fill="none"></path></g></svg>