<svg version="1.1" xmlns="http://www.w3.org/2000/svg" viewBox="0 0 380 367.7777777777774" width="380" height="367.7777777777774">
  <!-- svg-source:excalidraw -->
  
  <defs>
    <style>
      @font-face {
        font-family: "Virgil";
        src: url("https://excalidraw.com/Virgil.woff2");
      }
      @font-face {
        font-family: "Cascadia";
        src: url("https://excalidraw.com/Cascadia.woff2");
      }
    </style>
  </defs>
  <rect x="0" y="0" width="380" height="367.7777777777774" fill="#ffffff"></rect><g stroke-linecap="round" transform="translate(11.41666666666697 10) rotate(0 178.33333333333326 173.8888888888887)"><path d="M0 0 C0 0, 0 0, 0 0 M0 0 C0 0, 0 0, 0 0 M-0.26 6.4 C1.54 4.32, 3.35 2.24, 4.99 0.36 M-0.26 6.4 C1.44 4.44, 3.14 2.49, 4.99 0.36 M0.13 12.04 C2.94 8.81, 5.75 5.58, 10.63 -0.03 M0.13 12.04 C3.02 8.72, 5.9 5.4, 10.63 -0.03 M-0.13 18.44 C4.19 13.48, 8.5 8.51, 15.62 0.33 M-0.13 18.44 C3.55 14.21, 7.23 9.97, 15.62 0.33 M0.27 24.08 C6.95 16.39, 13.64 8.7, 21.26 -0.07 M0.27 24.08 C8.12 15.04, 15.98 6.01, 21.26 -0.07 M0 30.48 C5.42 24.26, 10.83 18.03, 26.25 0.29 M0 30.48 C9.96 19.03, 19.91 7.58, 26.25 0.29 M-0.26 36.88 C10.16 24.9, 20.57 12.92, 31.89 -0.1 M-0.26 36.88 C6.48 29.13, 13.22 21.37, 31.89 -0.1 M0.14 42.52 C13.77 26.84, 27.41 11.15, 36.88 0.26 M0.14 42.52 C10.17 30.98, 20.2 19.45, 36.88 0.26 M-0.12 48.92 C12.29 34.64, 24.69 20.37, 42.52 -0.14 M-0.12 48.92 C16.6 29.68, 33.33 10.43, 42.52 -0.14 M0.27 54.56 C9.82 43.58, 19.37 32.59, 47.51 0.22 M0.27 54.56 C17.96 34.21, 35.66 13.85, 47.51 0.22 M0.01 60.96 C17.52 40.81, 35.04 20.66, 53.15 -0.17 M0.01 60.96 C20.2 37.73, 40.4 14.5, 53.15 -0.17 M-0.25 67.36 C19.36 44.79, 38.98 22.23, 58.14 0.19 M-0.25 67.36 C16.7 47.85, 33.66 28.35, 58.14 0.19 M0.14 73 C16.23 54.49, 32.33 35.98, 63.78 -0.21 M0.14 73 C17.82 52.66, 35.5 32.33, 63.78 -0.21 M-0.12 79.4 C14.5 62.59, 29.11 45.77, 68.77 0.15 M-0.12 79.4 C25.62 49.79, 51.36 20.18, 68.77 0.15 M0.28 85.04 C28.23 52.88, 56.18 20.73, 74.41 -0.24 M0.28 85.04 C17.86 64.81, 35.45 44.57, 74.41 -0.24 M0.01 91.44 C21.73 66.45, 43.45 41.47, 79.4 0.12 M0.01 91.44 C25.78 61.8, 51.55 32.16, 79.4 0.12 M-0.25 97.84 C27.18 66.28, 54.61 34.73, 85.04 -0.28 M-0.25 97.84 C21.67 72.62, 43.59 47.41, 85.04 -0.28 M0.15 103.48 C33.06 65.61, 65.98 27.75, 90.03 0.08 M0.15 103.48 C35.21 63.14, 70.28 22.8, 90.03 0.08 M-0.11 109.88 C19.9 86.85, 39.92 63.83, 95.67 -0.31 M-0.11 109.88 C36.52 67.73, 73.16 25.58, 95.67 -0.31 M0.28 115.52 C34.32 76.37, 68.35 37.21, 100.66 0.05 M0.28 115.52 C36.84 73.46, 73.41 31.4, 100.66 0.05 M0.02 121.92 C28.16 89.55, 56.3 57.17, 106.3 -0.34 M0.02 121.92 C32.55 84.5, 65.08 47.08, 106.3 -0.34 M-0.24 128.32 C27.02 96.96, 54.28 65.6, 111.29 0.02 M-0.24 128.32 C43 78.57, 86.24 28.83, 111.29 0.02 M0.15 133.96 C25.45 104.86, 50.74 75.76, 116.27 0.38 M0.15 133.96 C42.76 84.94, 85.37 35.93, 116.27 0.38 M-0.11 140.36 C41.08 92.98, 82.26 45.6, 121.92 -0.02 M-0.11 140.36 C42.37 91.49, 84.85 42.62, 121.92 -0.02 M0.29 146 C38.27 102.31, 76.25 58.61, 126.91 0.34 M0.29 146 C44.75 94.85, 89.21 43.7, 126.91 0.34 M0.02 152.4 C36.71 110.19, 73.4 67.98, 132.55 -0.05 M0.02 152.4 C37.13 109.71, 74.24 67.02, 132.55 -0.05 M-0.24 158.8 C33.69 119.77, 67.62 80.74, 137.54 0.31 M-0.24 158.8 C39.95 112.56, 80.14 66.33, 137.54 0.31 M0.16 164.44 C46.49 111.14, 92.83 57.83, 143.18 -0.09 M0.16 164.44 C52.33 104.42, 104.51 44.39, 143.18 -0.09 M-0.1 170.84 C43.6 120.56, 87.31 70.28, 148.17 0.27 M-0.1 170.84 C39.69 125.05, 79.49 79.27, 148.17 0.27 M0.29 176.48 C53.04 115.8, 105.78 55.12, 153.81 -0.12 M0.29 176.48 C51.07 118.07, 101.85 59.65, 153.81 -0.12 M0.03 182.88 C61.44 112.23, 122.85 41.58, 158.8 0.24 M0.03 182.88 C33.05 144.89, 66.08 106.89, 158.8 0.24 M-0.23 189.27 C33.28 150.72, 66.79 112.17, 164.44 -0.16 M-0.23 189.27 C41.43 141.35, 83.1 93.42, 164.44 -0.16 M0.16 194.92 C62.24 123.51, 124.31 52.1, 169.43 0.2 M0.16 194.92 C48.24 139.61, 96.32 84.3, 169.43 0.2 M-0.1 201.32 C65.54 125.81, 131.17 50.3, 175.07 -0.19 M-0.1 201.32 C61.84 130.06, 123.78 58.81, 175.07 -0.19 M0.3 206.96 C68.98 127.95, 137.66 48.94, 180.06 0.17 M0.3 206.96 C57.28 141.4, 114.27 75.85, 180.06 0.17 M0.03 213.36 C61.53 142.61, 123.03 71.86, 185.7 -0.23 M0.03 213.36 C37.42 170.34, 74.82 127.33, 185.7 -0.23 M-0.23 219.75 C53.89 157.5, 108.01 95.24, 190.69 0.13 M-0.23 219.75 C71.22 137.57, 142.66 55.38, 190.69 0.13 M0.17 225.4 C68.88 146.35, 137.59 67.31, 196.33 -0.26 M0.17 225.4 C61.41 154.95, 122.64 84.5, 196.33 -0.26 M-0.09 231.8 C45.15 179.74, 90.4 127.69, 201.32 0.1 M-0.09 231.8 C74.4 146.09, 148.9 60.39, 201.32 0.1 M0.3 237.44 C64.82 163.22, 129.34 89, 206.96 -0.3 M0.3 237.44 C72.34 154.56, 144.39 71.68, 206.96 -0.3 M0.04 243.84 C55.67 179.84, 111.3 115.84, 211.95 0.06 M0.04 243.84 C56.21 179.21, 112.39 114.59, 211.95 0.06 M-0.22 250.23 C65.21 174.96, 130.64 99.69, 217.59 -0.33 M-0.22 250.23 C69.52 170, 139.27 89.77, 217.59 -0.33 M0.17 255.88 C79.59 164.52, 159.01 73.15, 222.58 0.03 M0.17 255.88 C59.73 187.36, 119.29 118.85, 222.58 0.03 M-0.09 262.27 C45.91 209.35, 91.92 156.43, 228.22 -0.36 M-0.09 262.27 C87.44 161.59, 174.96 60.9, 228.22 -0.36 M0.3 267.92 C86.83 168.39, 173.35 68.86, 233.21 0 M0.3 267.92 C54.53 205.54, 108.76 143.15, 233.21 0 M0.04 274.32 C72.71 190.72, 145.39 107.12, 238.19 0.36 M0.04 274.32 C57.52 208.2, 115 142.08, 238.19 0.36 M-0.22 280.71 C66.16 204.35, 132.54 127.99, 243.84 -0.04 M-0.22 280.71 C63.71 207.18, 127.63 133.64, 243.84 -0.04 M0.18 286.36 C75.81 199.35, 151.45 112.33, 248.82 0.32 M0.18 286.36 C85.79 187.87, 171.4 89.39, 248.82 0.32 M-0.08 292.75 C83.39 196.72, 166.87 100.69, 254.47 -0.07 M-0.08 292.75 C77.21 203.84, 154.5 114.93, 254.47 -0.07 M0.31 298.4 C76.65 210.58, 152.99 122.76, 259.45 0.29 M0.31 298.4 C75.27 212.17, 150.23 125.94, 259.45 0.29 M0.05 304.8 C82.72 209.7, 165.38 114.6, 265.1 -0.11 M0.05 304.8 C93.72 197.03, 187.4 89.27, 265.1 -0.11 M-0.21 311.19 C101.25 194.47, 202.72 77.75, 270.08 0.25 M-0.21 311.19 C59.28 242.75, 118.77 174.31, 270.08 0.25 M0.18 316.84 C82.7 221.91, 165.22 126.98, 275.73 -0.14 M0.18 316.84 C70.07 236.43, 139.97 156.03, 275.73 -0.14 M-0.08 323.23 C69.78 242.87, 139.64 162.51, 280.71 0.22 M-0.08 323.23 C63.83 249.71, 127.75 176.18, 280.71 0.22 M0.31 328.88 C77.38 240.22, 154.45 151.57, 286.36 -0.18 M0.31 328.88 C84.27 232.3, 168.22 135.72, 286.36 -0.18 M0.05 335.27 C64.18 261.51, 128.3 187.75, 291.34 0.18 M0.05 335.27 C101.84 218.18, 203.63 101.08, 291.34 0.18 M-0.21 341.67 C90.03 237.86, 180.27 134.05, 296.99 -0.21 M-0.21 341.67 C61.92 270.2, 124.05 198.72, 296.99 -0.21 M0.19 347.32 C120.25 209.19, 240.32 71.07, 301.97 0.15 M0.19 347.32 C111.88 218.83, 223.57 90.34, 301.97 0.15 M3.21 349.94 C121.05 214.37, 238.9 78.81, 307.62 -0.25 M3.21 349.94 C119.88 215.72, 236.56 81.49, 307.62 -0.25 M8.19 350.3 C97.54 247.51, 186.89 144.73, 312.6 0.11 M8.19 350.3 C75.47 272.91, 142.74 195.52, 312.6 0.11 M13.18 350.66 C76.64 277.65, 140.1 204.65, 318.25 -0.28 M13.18 350.66 C88.24 264.32, 163.29 177.97, 318.25 -0.28 M18.82 350.27 C86.35 272.58, 153.88 194.9, 323.23 0.08 M18.82 350.27 C134.62 217.06, 250.41 83.85, 323.23 0.08 M23.81 350.63 C132.9 225.13, 241.99 99.64, 328.88 -0.31 M23.81 350.63 C107.39 254.47, 190.98 158.32, 328.88 -0.31 M29.45 350.23 C120.97 244.95, 212.48 139.68, 333.86 0.05 M29.45 350.23 C112.69 254.48, 195.92 158.73, 333.86 0.05 M34.44 350.59 C135.18 234.7, 235.92 118.82, 339.51 -0.35 M34.44 350.59 C153.64 213.46, 272.85 76.34, 339.51 -0.35 M40.08 350.2 C116.44 262.36, 192.8 174.52, 344.49 0.01 M40.08 350.2 C122.92 254.9, 205.77 159.6, 344.49 0.01 M45.07 350.56 C143.52 237.31, 241.96 124.05, 349.48 0.37 M45.07 350.56 C156.71 222.12, 268.36 93.69, 349.48 0.37 M50.71 350.16 C171.42 211.3, 292.13 72.44, 355.12 -0.02 M50.71 350.16 C140.64 246.71, 230.57 143.26, 355.12 -0.02 M55.7 350.52 C127.77 267.61, 199.85 184.7, 358.8 1.85 M55.7 350.52 C122.19 274.04, 188.68 197.55, 358.8 1.85 M61.34 350.13 C140.08 259.56, 218.81 168.98, 358.54 8.24 M61.34 350.13 C123.46 278.66, 185.59 207.2, 358.54 8.24 M66.33 350.49 C147.42 257.21, 228.51 163.92, 358.93 13.89 M66.33 350.49 C128.59 278.87, 190.84 207.25, 358.93 13.89 M71.97 350.09 C182.73 222.68, 293.48 95.27, 358.67 20.28 M71.97 350.09 C136.66 275.68, 201.34 201.27, 358.67 20.28 M76.96 350.45 C175.22 237.42, 273.48 124.38, 359.07 25.93 M76.96 350.45 C149.76 266.71, 222.56 182.96, 359.07 25.93 M82.6 350.06 C163.85 256.59, 245.1 163.13, 358.8 32.33 M82.6 350.06 C166.77 253.24, 250.93 156.42, 358.8 32.33 M87.59 350.42 C158.4 268.96, 229.22 187.49, 358.54 38.72 M87.59 350.42 C172.45 252.8, 257.31 155.18, 358.54 38.72 M93.23 350.02 C179.6 250.67, 265.97 151.32, 358.94 44.37 M93.23 350.02 C186.95 242.21, 280.67 134.4, 358.94 44.37 M98.22 350.38 C184.01 251.7, 269.8 153.01, 358.68 50.76 M98.22 350.38 C197.98 235.63, 297.73 120.87, 358.68 50.76 M103.86 349.99 C159.67 285.8, 215.47 221.6, 359.07 56.41 M103.86 349.99 C160.75 284.55, 217.64 219.11, 359.07 56.41 M108.85 350.35 C201 244.35, 293.14 138.34, 358.81 62.81 M108.85 350.35 C188.64 258.56, 268.43 166.78, 358.81 62.81 M114.49 349.95 C192.06 260.73, 269.62 171.5, 358.55 69.2 M114.49 349.95 C191.47 261.41, 268.44 172.86, 358.55 69.2 M119.48 350.31 C190.97 268.07, 262.46 185.83, 358.94 74.85 M119.48 350.31 C172.25 289.61, 225.03 228.9, 358.94 74.85 M125.12 349.92 C211.18 250.92, 297.24 151.92, 358.68 81.24 M125.12 349.92 C213.23 248.57, 301.34 147.21, 358.68 81.24 M130.11 350.28 C208.32 260.31, 286.54 170.33, 359.07 86.89 M130.11 350.28 C183.23 289.18, 236.34 228.07, 359.07 86.89 M135.1 350.64 C206.62 268.37, 278.14 186.09, 358.81 93.28 M135.1 350.64 C202.73 272.84, 270.36 195.04, 358.81 93.28 M140.74 350.25 C189.4 294.27, 238.07 238.28, 358.55 99.68 M140.74 350.25 C216.18 263.46, 291.62 176.68, 358.55 99.68 M145.73 350.61 C214.74 271.22, 283.75 191.82, 358.95 105.33 M145.73 350.61 C216.39 269.32, 287.05 188.03, 358.95 105.33 M151.37 350.21 C228.65 261.31, 305.93 172.41, 358.69 111.72 M151.37 350.21 C193.39 301.87, 235.41 253.53, 358.69 111.72 M156.36 350.57 C224.42 272.27, 292.48 193.97, 359.08 117.37 M156.36 350.57 C207.47 291.77, 258.59 232.97, 359.08 117.37 M162 350.18 C225.29 277.37, 288.58 204.57, 358.82 123.76 M162 350.18 C218.5 285.18, 275.01 220.18, 358.82 123.76 M166.99 350.54 C227.21 281.26, 287.43 211.98, 358.56 130.16 M166.99 350.54 C243.43 262.59, 319.88 174.65, 358.56 130.16 M172.63 350.14 C229.41 284.82, 286.2 219.5, 358.95 135.8 M172.63 350.14 C234.58 278.88, 296.53 207.61, 358.95 135.8 M177.62 350.5 C217.65 304.45, 257.68 258.4, 358.69 142.2 M177.62 350.5 C223.53 297.69, 269.44 244.87, 358.69 142.2 M183.26 350.11 C229.07 297.41, 274.88 244.71, 359.08 147.85 M183.26 350.11 C239.31 285.63, 295.35 221.16, 359.08 147.85 M188.25 350.47 C225.88 307.18, 263.51 263.89, 358.82 154.24 M188.25 350.47 C229.85 302.61, 271.45 254.76, 358.82 154.24 M193.89 350.07 C231.79 306.48, 269.69 262.88, 358.56 160.64 M193.89 350.07 C238.78 298.44, 283.66 246.8, 358.56 160.64 M198.88 350.43 C243.82 298.73, 288.76 247.03, 358.96 166.28 M198.88 350.43 C254.14 286.86, 309.4 223.29, 358.96 166.28 M204.52 350.04 C259.71 286.55, 314.89 223.07, 358.69 172.68 M204.52 350.04 C245.77 302.59, 287.02 255.14, 358.69 172.68 M209.51 350.4 C265.22 286.31, 320.94 222.21, 359.09 178.33 M209.51 350.4 C251.32 302.3, 293.14 254.19, 359.09 178.33 M215.15 350 C257.03 301.83, 298.91 253.65, 358.83 184.72 M215.15 350 C247.35 312.96, 279.55 275.92, 358.83 184.72 M220.14 350.36 C257.49 307.39, 294.85 264.42, 358.57 191.12 M220.14 350.36 C263.85 300.07, 307.57 249.78, 358.57 191.12 M225.78 349.97 C276.57 291.54, 327.36 233.12, 358.96 196.76 M225.78 349.97 C267.02 302.53, 308.25 255.1, 358.96 196.76 M230.77 350.33 C275.55 298.81, 320.33 247.3, 358.7 203.16 M230.77 350.33 C265.28 310.63, 299.78 270.94, 358.7 203.16 M236.41 349.94 C270.93 310.23, 305.45 270.52, 359.09 208.8 M236.41 349.94 C277.91 302.2, 319.41 254.46, 359.09 208.8 M241.4 350.3 C287.6 297.15, 333.8 243.99, 358.83 215.2 M241.4 350.3 C277.1 309.23, 312.8 268.16, 358.83 215.2 M246.39 350.66 C285.47 305.7, 324.55 260.74, 358.57 221.6 M246.39 350.66 C288.02 302.76, 329.66 254.86, 358.57 221.6 M252.03 350.26 C293.03 303.09, 334.03 255.92, 358.97 227.24 M252.03 350.26 C287.11 309.9, 322.2 269.54, 358.97 227.24 M257.02 350.62 C281.66 322.27, 306.31 293.92, 358.7 233.64 M257.02 350.62 C289.17 313.63, 321.33 276.64, 358.7 233.64 M262.66 350.23 C292.23 316.21, 321.8 282.2, 359.1 239.28 M262.66 350.23 C301.09 306.02, 339.51 261.81, 359.1 239.28 M267.65 350.59 C297.42 316.33, 327.2 282.08, 358.84 245.68 M267.65 350.59 C297.58 316.15, 327.52 281.71, 358.84 245.68 M273.29 350.19 C303.37 315.59, 333.44 280.99, 358.58 252.08 M273.29 350.19 C300.44 318.96, 327.59 287.73, 358.58 252.08 M278.28 350.55 C299.83 325.76, 321.38 300.97, 358.97 257.72 M278.28 350.55 C295.15 331.14, 312.02 311.73, 358.97 257.72 M283.92 350.16 C307.44 323.1, 330.95 296.05, 358.71 264.12 M283.92 350.16 C301.71 329.69, 319.5 309.23, 358.71 264.12 M288.91 350.52 C305.29 331.67, 321.68 312.82, 359.1 269.76 M288.91 350.52 C303.45 333.78, 318 317.05, 359.1 269.76 M294.55 350.12 C319.49 321.44, 344.42 292.75, 358.84 276.16 M294.55 350.12 C310.88 331.33, 327.22 312.54, 358.84 276.16 M299.54 350.48 C317.13 330.24, 334.73 309.99, 358.58 282.56 M299.54 350.48 C312.42 335.67, 325.3 320.85, 358.58 282.56 M305.18 350.09 C325.19 327.07, 345.2 304.05, 358.98 288.2 M305.18 350.09 C316.52 337.04, 327.87 323.99, 358.98 288.2 M310.17 350.45 C321.65 337.23, 333.14 324.02, 358.71 294.6 M310.17 350.45 C328.82 328.99, 347.47 307.54, 358.71 294.6 M315.81 350.05 C327.46 336.65, 339.11 323.25, 359.11 300.24 M315.81 350.05 C328.76 335.16, 341.71 320.26, 359.11 300.24 M320.8 350.41 C333.27 336.06, 345.75 321.71, 358.85 306.64 M320.8 350.41 C332 337.52, 343.21 324.63, 358.85 306.64 M326.44 350.02 C335.58 339.5, 344.72 328.99, 358.59 313.04 M326.44 350.02 C334.67 340.55, 342.91 331.07, 358.59 313.04 M331.43 350.38 C341.17 339.17, 350.92 327.95, 358.98 318.68 M331.43 350.38 C342.04 338.17, 352.66 325.96, 358.98 318.68 M337.07 349.99 C341.97 344.35, 346.87 338.71, 358.72 325.08 M337.07 349.99 C345.01 340.85, 352.95 331.71, 358.72 325.08 M342.06 350.35 C348.86 342.51, 355.67 334.68, 359.11 330.72 M342.06 350.35 C347.84 343.69, 353.63 337.03, 359.11 330.72 M347.7 349.95 C351.12 346.02, 354.54 342.08, 358.85 337.12 M347.7 349.95 C350.63 346.58, 353.55 343.22, 358.85 337.12 M352.69 350.31 C354.18 348.6, 355.67 346.88, 358.59 343.52 M352.69 350.31 C354.38 348.36, 356.07 346.42, 358.59 343.52" stroke="#fff" stroke-width="0.5" fill="none"></path><path d="M0 0 C114.41 0, 228.82 0, 356.67 0 M0 0 C137.65 0, 275.3 0, 356.67 0 M356.67 0 C356.67 134.19, 356.67 268.38, 356.67 347.78 M356.67 0 C356.67 102.6, 356.67 205.19, 356.67 347.78 M356.67 347.78 C243.32 347.78, 129.98 347.78, 0 347.78 M356.67 347.78 C258.71 347.78, 160.75 347.78, 0 347.78 M0 347.78 C0 212.35, 0 76.92, 0 0 M0 347.78 C0 249.02, 0 150.26, 0 0" stroke="#000000" stroke-width="1" fill="none"></path></g><g transform="translate(57.03270777823491 15.72552117460873) rotate(0 137.5 11)"><text x="137.5" y="16" font-family="Virgil, Segoe UI Emoji" font-size="17.678798363929268px" fill="#000000" text-anchor="middle" style="white-space: pre;" direction="ltr">Let's practice what we learned</text></g><g transform="translate(66.07468079068258 73.41719595396353) rotate(0 31.5 21.5)"><text x="31.5" y="33" font-family="Cascadia, Segoe UI Emoji" font-size="33.62141640038658px" fill="#000000" text-anchor="middle" style="white-space: pre;" direction="rtl">جگہ</text></g><g transform="translate(173.77610314000822 72.54579776218361) rotate(0 47 20)"><text x="47" y="30" font-family="Cascadia, Segoe UI Emoji" font-size="30.883190404948092px" fill="#000" text-anchor="middle" style="white-space: pre;" direction="rtl">ج+گ+ہ</text></g><g transform="translate(62.604567693187164 111.64394615546189) rotate(0 33.5 23)"><text x="33.5" y="35" font-family="Cascadia, Segoe UI Emoji" font-size="36px" fill="#000000" text-anchor="middle" style="white-space: pre;" direction="rtl">بہن</text></g><g transform="translate(164.86557903557332 114.05567188006717) rotate(0 54.5 23)"><text x="54.5" y="35" font-family="Cascadia, Segoe UI Emoji" font-size="36px" fill="#000000" text-anchor="middle" style="white-space: pre;" direction="rtl">ب+ہ+ن</text></g><g transform="translate(54.5899439404584 167.7704620166587) rotate(0 44 23)"><text x="44" y="35" font-family="Cascadia, Segoe UI Emoji" font-size="36px" fill="#000000" text-anchor="middle" style="white-space: pre;" direction="rtl">تکیہ</text></g><g transform="translate(152.4730472804522 172.4040247477824) rotate(0 59 18)"><text x="59" y="27" font-family="Cascadia, Segoe UI Emoji" font-size="28px" fill="#000000" text-anchor="middle" style="white-space: pre;" direction="rtl">ت+ک+ی+ہ</text></g><g transform="translate(55.36380741306084 298.7956080897393) rotate(0 55 23)"><text x="55" y="35" font-family="Cascadia, Segoe UI Emoji" font-size="36px" fill="#000000" text-anchor="middle" style="white-space: pre;" direction="rtl">یہودی</text></g><g transform="translate(138.73471709953174 303.92759584314535) rotate(0 87 20.5)"><text x="87" y="31" font-family="Cascadia, Segoe UI Emoji" font-size="32.194964019737746px" fill="#000000" text-anchor="middle" style="white-space: pre;" direction="rtl">ی+ہ+و+د+ی</text></g><g transform="translate(49.17556942051306 255.5465386062242) rotate(0 44 23)"><text x="44" y="35" font-family="Cascadia, Segoe UI Emoji" font-size="36px" fill="#000000" text-anchor="middle" style="white-space: pre;" direction="rtl">پنجہ</text></g><g transform="translate(149.48692847903203 257.01271253176674) rotate(0 76 23)"><text x="76" y="35" font-family="Cascadia, Segoe UI Emoji" font-size="36px" fill="#000000" text-anchor="middle" style="white-space: pre;" direction="rtl">پ+ن+ج+ہ</text></g><g transform="translate(56.53621942532391 215.7358413717484) rotate(0 44 23)"><text x="44" y="35" font-family="Cascadia, Segoe UI Emoji" font-size="36px" fill="#000000" text-anchor="middle" style="white-space: pre;" direction="rtl">سجدہ</text></g><g transform="translate(140.8711539193373 212.33954368333434) rotate(0 76 23)"><text x="76" y="35" font-family="Cascadia, Segoe UI Emoji" font-size="36px" fill="#000000" text-anchor="middle" style="white-space: pre;" direction="rtl">س+ج+د+ہ</text></g><g transform="translate(142.32142857143026 39.52688440443853) rotate(0 56 10)"><text x="56" y="14" font-family="Virgil, Segoe UI Emoji" font-size="16px" fill="#e67700" text-anchor="middle" style="white-space: pre;" direction="ltr">gol he(Answer)</text></g><g transform="translate(311.5 73.05030533009085) rotate(0 21 10)"><text x="21" y="14" font-family="Virgil, Segoe UI Emoji" font-size="16px" fill="#d9480f" text-anchor="middle" style="white-space: pre;" direction="ltr">place</text></g><g transform="translate(309.25 131.55030533009085) rotate(0 24 10)"><text x="24" y="14" font-family="Virgil, Segoe UI Emoji" font-size="16px" fill="#d9480f" text-anchor="middle" style="white-space: pre;" direction="ltr">sister</text></g><g transform="translate(307.25 182.55030533009085) rotate(0 20 10)"><text x="20" y="14" font-family="Virgil, Segoe UI Emoji" font-size="16px" fill="#d9480f" text-anchor="middle" style="white-space: pre;" direction="ltr">pillow</text></g><g transform="translate(314.25 226.80030533009085) rotate(0 14.5 10)"><text x="14.5" y="14" font-family="Virgil, Segoe UI Emoji" font-size="16px" fill="#d9480f" text-anchor="middle" style="white-space: pre;" direction="ltr">bow</text></g><g transform="translate(315.25 272.80030533009085) rotate(0 17.5 10)"><text x="17.5" y="14" font-family="Virgil, Segoe UI Emoji" font-size="16px" fill="#d9480f" text-anchor="middle" style="white-space: pre;" direction="ltr">claw</text></g><g transform="translate(317 313.05030533009085) rotate(0 13 10)"><text x="13" y="14" font-family="Virgil, Segoe UI Emoji" font-size="16px" fill="#d9480f" text-anchor="middle" style="white-space: pre;" direction="ltr">jew</text></g><g transform="translate(31 76.80030533009085) rotate(0 22.5 10)"><text x="22.5" y="14" font-family="Virgil, Segoe UI Emoji" font-size="16px" fill="#e67700" text-anchor="middle" style="white-space: pre;" direction="ltr">jagah</text></g><g transform="translate(31.25 120.55030533009085) rotate(0 17 10)"><text x="17" y="14" font-family="Virgil, Segoe UI Emoji" font-size="16px" fill="#e67700" text-anchor="middle" style="white-space: pre;" direction="ltr">bhen</text></g><g transform="translate(24.5 179.05030533009085) rotate(0 24 10)"><text x="24" y="14" font-family="Virgil, Segoe UI Emoji" font-size="16px" fill="#e67700" text-anchor="middle" style="white-space: pre;" direction="ltr">takya</text></g><g transform="translate(28.818181818181984 233.05030533009085) rotate(0 21 9.5)"><text x="21" y="13" font-family="Virgil, Segoe UI Emoji" font-size="14.43356643356643px" fill="#e67700" text-anchor="middle" style="white-space: pre;" direction="ltr">sajda</text></g><g transform="translate(23.75 266.80030533009085) rotate(0 22 10)"><text x="22" y="14" font-family="Virgil, Segoe UI Emoji" font-size="16px" fill="#e67700" text-anchor="middle" style="white-space: pre;" direction="ltr">panja</text></g><g transform="translate(25.5 314.30030533009085) rotate(0 25 10)"><text x="25" y="14" font-family="Virgil, Segoe UI Emoji" font-size="16px" fill="#e67700" text-anchor="middle" style="white-space: pre;" direction="ltr">yahudi</text></g><g stroke-linecap="round"><g transform="translate(10 69.30030533009085) rotate(0 180 0)"><path d="M0 0 C30 0, 120 0, 180 0 C240 0, 330 0, 360 0" stroke="#495057" stroke-width="1.5" fill="none" stroke-dasharray="1.5 7"></path></g></g><g stroke-linecap="round"><g transform="translate(11.863900982844825 112.07979487194098) rotate(0 178.18181818181824 0)"><path d="M0 0 C59.39 0, 296.97 0, 356.36 0" stroke="#000000" stroke-width="1.5" fill="none" stroke-dasharray="1.5 7"></path></g></g><g stroke-linecap="round"><g transform="translate(11.772991891936726 164.26161305375717) rotate(0 177.27272727272725 0.9090909090914465)"><path d="M0 0 C59.09 0.3, 295.45 1.52, 354.55 1.82" stroke="#000000" stroke-width="1.5" fill="none" stroke-dasharray="1.5 7"></path></g></g><g stroke-linecap="round"><g transform="translate(10.863900982845735 212.98888578102924) rotate(0 177.72727272727252 -0.4545454545454959)"><path d="M0 0 C59.24 -0.15, 296.21 -0.76, 355.45 -0.91" stroke="#000000" stroke-width="1.5" fill="none" stroke-dasharray="1.5 7"></path></g></g><g stroke-linecap="round"><g transform="translate(12.682082801026809 259.079794871941) rotate(0 176.81818181818176 0)"><path d="M0 0 C58.94 0, 294.7 0, 353.64 0" stroke="#000000" stroke-width="1.5" fill="none" stroke-dasharray="1.5 7"></path></g></g><g stroke-linecap="round"><g transform="translate(12.448016559535972 299.2747215345644) rotate(0 178.63636363636363 0.9090909090909918)"><path d="M0 0 C59.55 0.3, 297.73 1.52, 357.27 1.82" stroke="#000000" stroke-width="1.5" fill="none" stroke-dasharray="1.5 7"></path></g></g></svg>