<svg version="1.1" xmlns="http://www.w3.org/2000/svg" viewBox="0 0 376.6666666666665 367.7777777777774" width="376.6666666666665" height="367.7777777777774">
  <!-- svg-source:excalidraw -->
  
  <defs>
    <style>
      @font-face {
        font-family: "Virgil";
        src: url("https://excalidraw.com/Virgil.woff2");
      }
      @font-face {
        font-family: "Cascadia";
        src: url("https://excalidraw.com/Cascadia.woff2");
      }
    </style>
  </defs>
  <rect x="0" y="0" width="376.6666666666665" height="367.7777777777774" fill="#ffffff"></rect><g stroke-linecap="round" transform="translate(10 10) rotate(0 178.33333333333326 173.8888888888887)"><path d="M0 0 C0 0, 0 0, 0 0 M0 0 C0 0, 0 0, 0 0 M-0.26 6.4 C1.14 4.79, 2.53 3.18, 4.99 0.36 M-0.26 6.4 C1.8 4.03, 3.85 1.66, 4.99 0.36 M0.13 12.04 C2.34 9.5, 4.55 6.96, 10.63 -0.03 M0.13 12.04 C2.65 9.15, 5.16 6.25, 10.63 -0.03 M-0.13 18.44 C3.91 13.79, 7.95 9.14, 15.62 0.33 M-0.13 18.44 C5.92 11.48, 11.97 4.53, 15.62 0.33 M0.27 24.08 C6.61 16.79, 12.95 9.49, 21.26 -0.07 M0.27 24.08 C6 17.48, 11.74 10.89, 21.26 -0.07 M0 30.48 C9.76 19.26, 19.51 8.04, 26.25 0.29 M0 30.48 C5.7 23.92, 11.41 17.37, 26.25 0.29 M-0.26 36.88 C12.18 22.57, 24.62 8.26, 31.89 -0.1 M-0.26 36.88 C10.05 25.03, 20.35 13.18, 31.89 -0.1 M0.14 42.52 C12.44 28.37, 24.74 14.21, 36.88 0.26 M0.14 42.52 C7.94 33.54, 15.74 24.57, 36.88 0.26 M-0.12 48.92 C9.97 37.3, 20.07 25.69, 42.52 -0.14 M-0.12 48.92 C16.04 30.33, 32.19 11.74, 42.52 -0.14 M0.27 54.56 C15.23 37.35, 30.19 20.14, 47.51 0.22 M0.27 54.56 C14.14 38.6, 28.02 22.64, 47.51 0.22 M0.01 60.96 C19.7 38.31, 39.39 15.66, 53.15 -0.17 M0.01 60.96 C18.57 39.61, 37.13 18.26, 53.15 -0.17 M-0.25 67.36 C19.28 44.89, 38.81 22.42, 58.14 0.19 M-0.25 67.36 C22.42 41.28, 45.09 15.19, 58.14 0.19 M0.14 73 C16.31 54.4, 32.47 35.81, 63.78 -0.21 M0.14 73 C15.1 55.79, 30.06 38.58, 63.78 -0.21 M-0.12 79.4 C17.27 59.39, 34.66 39.39, 68.77 0.15 M-0.12 79.4 C15.49 61.45, 31.09 43.5, 68.77 0.15 M0.28 85.04 C22.51 59.47, 44.73 33.9, 74.41 -0.24 M0.28 85.04 C25.74 55.75, 51.2 26.46, 74.41 -0.24 M0.01 91.44 C30.31 56.58, 60.61 21.73, 79.4 0.12 M0.01 91.44 C27.15 60.22, 54.29 29, 79.4 0.12 M-0.25 97.84 C22.57 71.58, 45.39 45.33, 85.04 -0.28 M-0.25 97.84 C24 69.95, 48.24 42.06, 85.04 -0.28 M0.15 103.48 C25.33 74.52, 50.5 45.55, 90.03 0.08 M0.15 103.48 C24.49 75.48, 48.83 47.47, 90.03 0.08 M-0.11 109.88 C25.13 80.83, 50.38 51.79, 95.67 -0.31 M-0.11 109.88 C35.39 69.03, 70.9 28.19, 95.67 -0.31 M0.28 115.52 C35.68 74.8, 71.07 34.09, 100.66 0.05 M0.28 115.52 C35.73 74.74, 71.18 33.96, 100.66 0.05 M0.02 121.92 C36.27 80.21, 72.53 38.5, 106.3 -0.34 M0.02 121.92 C23.29 95.14, 46.57 68.37, 106.3 -0.34 M-0.24 128.32 C27.74 96.13, 55.72 63.94, 111.29 0.02 M-0.24 128.32 C36.75 85.76, 73.74 43.21, 111.29 0.02 M0.15 133.96 C35.03 93.83, 69.91 53.71, 116.27 0.38 M0.15 133.96 C40.63 87.4, 81.1 40.84, 116.27 0.38 M-0.11 140.36 C33.26 101.97, 66.64 63.57, 121.92 -0.02 M-0.11 140.36 C42.88 90.9, 85.87 41.45, 121.92 -0.02 M0.29 146 C36.79 104, 73.3 62, 126.91 0.34 M0.29 146 C48.64 90.37, 96.99 34.75, 126.91 0.34 M0.02 152.4 C48.52 96.62, 97.01 40.83, 132.55 -0.05 M0.02 152.4 C48.28 96.89, 96.53 41.38, 132.55 -0.05 M-0.24 158.8 C54.72 95.57, 109.68 32.35, 137.54 0.31 M-0.24 158.8 C33.46 120.03, 67.16 81.26, 137.54 0.31 M0.16 164.44 C45.99 111.71, 91.82 58.99, 143.18 -0.09 M0.16 164.44 C45.82 111.9, 91.49 59.37, 143.18 -0.09 M-0.1 170.84 C40.35 124.3, 80.81 77.76, 148.17 0.27 M-0.1 170.84 C54.09 108.49, 108.28 46.15, 148.17 0.27 M0.29 176.48 C58.07 110.01, 115.84 43.55, 153.81 -0.12 M0.29 176.48 C57.59 110.57, 114.88 44.65, 153.81 -0.12 M0.03 182.88 C47.32 128.48, 94.61 74.08, 158.8 0.24 M0.03 182.88 C43.92 132.39, 87.81 81.9, 158.8 0.24 M-0.23 189.27 C35.94 147.66, 72.12 106.04, 164.44 -0.16 M-0.23 189.27 C46.58 135.42, 93.4 81.56, 164.44 -0.16 M0.16 194.92 C35.44 154.34, 70.71 113.76, 169.43 0.2 M0.16 194.92 C36.12 153.55, 72.08 112.19, 169.43 0.2 M-0.1 201.32 C67.06 124.06, 134.22 46.8, 175.07 -0.19 M-0.1 201.32 C37.41 158.17, 74.92 115.02, 175.07 -0.19 M0.3 206.96 C51.69 147.84, 103.07 88.72, 180.06 0.17 M0.3 206.96 C56.31 142.52, 112.33 78.08, 180.06 0.17 M0.03 213.36 C45.96 160.52, 91.89 107.69, 185.7 -0.23 M0.03 213.36 C60.81 143.44, 121.59 73.52, 185.7 -0.23 M-0.23 219.75 C68.23 141, 136.69 62.25, 190.69 0.13 M-0.23 219.75 C40.87 172.48, 81.96 125.21, 190.69 0.13 M0.17 225.4 C46.9 171.64, 93.63 117.87, 196.33 -0.26 M0.17 225.4 C77.03 136.97, 153.9 48.54, 196.33 -0.26 M-0.09 231.8 C40.52 185.07, 81.14 138.34, 201.32 0.1 M-0.09 231.8 C53.83 169.77, 107.75 107.74, 201.32 0.1 M0.3 237.44 C47.76 182.84, 95.22 128.25, 206.96 -0.3 M0.3 237.44 C78.53 147.44, 156.76 57.45, 206.96 -0.3 M0.04 243.84 C71.48 161.65, 142.92 79.47, 211.95 0.06 M0.04 243.84 C67.11 166.67, 134.19 89.51, 211.95 0.06 M-0.22 250.23 C74.27 164.54, 148.77 78.84, 217.59 -0.33 M-0.22 250.23 C56.74 184.71, 113.7 119.18, 217.59 -0.33 M0.17 255.88 C52.19 196.04, 104.2 136.2, 222.58 0.03 M0.17 255.88 C69.63 175.97, 139.1 96.06, 222.58 0.03 M-0.09 262.27 C78.15 172.27, 156.4 82.26, 228.22 -0.36 M-0.09 262.27 C49.67 205.03, 99.43 147.79, 228.22 -0.36 M0.3 267.92 C71.96 185.48, 143.63 103.05, 233.21 0 M0.3 267.92 C72.24 185.17, 144.17 102.42, 233.21 0 M0.04 274.32 C58.61 206.94, 117.17 139.57, 238.19 0.36 M0.04 274.32 C54.38 211.8, 108.73 149.29, 238.19 0.36 M-0.22 280.71 C78.17 190.54, 156.56 100.36, 243.84 -0.04 M-0.22 280.71 C63.97 206.87, 128.16 133.03, 243.84 -0.04 M0.18 286.36 C77.94 196.9, 155.69 107.45, 248.82 0.32 M0.18 286.36 C68.71 207.51, 137.25 128.67, 248.82 0.32 M-0.08 292.75 C97.64 180.33, 195.37 67.91, 254.47 -0.07 M-0.08 292.75 C59.68 224, 119.45 155.24, 254.47 -0.07 M0.31 298.4 C65.38 223.54, 130.45 148.68, 259.45 0.29 M0.31 298.4 C90.21 194.98, 180.11 91.56, 259.45 0.29 M0.05 304.8 C93.42 197.38, 186.79 89.97, 265.1 -0.11 M0.05 304.8 C102.72 186.69, 205.39 68.58, 265.1 -0.11 M-0.21 311.19 C58.14 244.07, 116.49 176.94, 270.08 0.25 M-0.21 311.19 C62.41 239.15, 125.04 167.1, 270.08 0.25 M0.18 316.84 C63.42 244.08, 126.67 171.33, 275.73 -0.14 M0.18 316.84 C106.8 194.18, 213.42 71.53, 275.73 -0.14 M-0.08 323.23 C58.54 255.8, 117.15 188.37, 280.71 0.22 M-0.08 323.23 C90.56 218.96, 181.21 114.69, 280.71 0.22 M0.31 328.88 C104.95 208.51, 209.59 88.14, 286.36 -0.18 M0.31 328.88 C58.37 262.1, 116.42 195.32, 286.36 -0.18 M0.05 335.27 C81.13 242.01, 162.2 148.75, 291.34 0.18 M0.05 335.27 C63.03 262.83, 126.01 190.38, 291.34 0.18 M-0.21 341.67 C76.51 253.42, 153.23 165.16, 296.99 -0.21 M-0.21 341.67 C91.29 236.42, 182.79 131.16, 296.99 -0.21 M0.19 347.32 C96.77 236.21, 193.35 125.1, 301.97 0.15 M0.19 347.32 C94.02 239.37, 187.86 131.42, 301.97 0.15 M3.21 349.94 C109.89 227.22, 216.57 104.5, 307.62 -0.25 M3.21 349.94 C87.63 252.82, 172.06 155.69, 307.62 -0.25 M8.19 350.3 C92.28 253.56, 176.37 156.83, 312.6 0.11 M8.19 350.3 C71.88 277.03, 135.58 203.76, 312.6 0.11 M13.18 350.66 C84.4 268.72, 155.63 186.79, 318.25 -0.28 M13.18 350.66 C132.2 213.74, 251.22 76.82, 318.25 -0.28 M18.82 350.27 C121.14 232.56, 223.47 114.85, 323.23 0.08 M18.82 350.27 C115.13 239.47, 211.44 128.68, 323.23 0.08 M23.81 350.63 C98.51 264.69, 173.22 178.75, 328.88 -0.31 M23.81 350.63 C93.41 270.56, 163.01 190.49, 328.88 -0.31 M29.45 350.23 C131.67 232.64, 233.9 115.05, 333.86 0.05 M29.45 350.23 C102.77 265.89, 176.09 181.54, 333.86 0.05 M34.44 350.59 C116.56 256.13, 198.67 161.66, 339.51 -0.35 M34.44 350.59 C118.75 253.6, 203.06 156.62, 339.51 -0.35 M40.08 350.2 C149.12 224.76, 258.16 99.32, 344.49 0.01 M40.08 350.2 C160.09 212.15, 280.09 74.1, 344.49 0.01 M45.07 350.56 C147.89 232.28, 250.71 114, 349.48 0.37 M45.07 350.56 C143.37 237.47, 241.67 124.39, 349.48 0.37 M50.71 350.16 C152.13 233.49, 253.56 116.82, 355.12 -0.02 M50.71 350.16 C169.79 213.18, 288.86 76.2, 355.12 -0.02 M55.7 350.52 C125.08 270.7, 194.47 190.88, 358.8 1.85 M55.7 350.52 C134.23 260.19, 212.76 169.85, 358.8 1.85 M61.34 350.13 C131.9 268.96, 202.46 187.79, 358.54 8.24 M61.34 350.13 C135.5 264.82, 209.65 179.52, 358.54 8.24 M66.33 350.49 C144.68 260.35, 223.04 170.21, 358.93 13.89 M66.33 350.49 C148.04 256.49, 229.74 162.5, 358.93 13.89 M71.97 350.09 C156.41 252.95, 240.86 155.81, 358.67 20.28 M71.97 350.09 C183.85 221.39, 295.73 92.69, 358.67 20.28 M76.96 350.45 C169.03 244.53, 261.11 138.62, 359.07 25.93 M76.96 350.45 C156.2 259.29, 235.45 168.14, 359.07 25.93 M82.6 350.06 C186.17 230.92, 289.73 111.78, 358.8 32.33 M82.6 350.06 C148.16 274.64, 213.72 199.22, 358.8 32.33 M87.59 350.42 C148.18 280.72, 208.76 211.02, 358.54 38.72 M87.59 350.42 C159.31 267.92, 231.03 185.41, 358.54 38.72 M93.23 350.02 C198.47 228.97, 303.7 107.91, 358.94 44.37 M93.23 350.02 C151.19 283.35, 209.15 216.68, 358.94 44.37 M98.22 350.38 C182.93 252.94, 267.64 155.49, 358.68 50.76 M98.22 350.38 C185.31 250.2, 272.4 150.01, 358.68 50.76 M103.86 349.99 C186.04 255.46, 268.22 160.92, 359.07 56.41 M103.86 349.99 C196.46 243.47, 289.06 136.94, 359.07 56.41 M108.85 350.35 C194.81 251.46, 280.77 152.57, 358.81 62.81 M108.85 350.35 C183.05 264.99, 257.25 179.63, 358.81 62.81 M114.49 349.95 C203.3 247.79, 292.12 145.62, 358.55 69.2 M114.49 349.95 C188.92 264.34, 263.34 178.73, 358.55 69.2 M119.48 350.31 C200.69 256.89, 281.9 163.47, 358.94 74.85 M119.48 350.31 C182.24 278.11, 245.01 205.91, 358.94 74.85 M125.12 349.92 C213.81 247.9, 302.49 145.88, 358.68 81.24 M125.12 349.92 C190.76 274.42, 256.39 198.92, 358.68 81.24 M130.11 350.28 C202.77 266.69, 275.43 183.11, 359.07 86.89 M130.11 350.28 C185.82 286.2, 241.52 222.12, 359.07 86.89 M135.1 350.64 C196.45 280.06, 257.81 209.48, 358.81 93.28 M135.1 350.64 C209.09 265.52, 283.09 180.4, 358.81 93.28 M140.74 350.25 C191.23 292.17, 241.71 234.09, 358.55 99.68 M140.74 350.25 C218.43 260.88, 296.11 171.51, 358.55 99.68 M145.73 350.61 C230.85 252.68, 315.98 154.75, 358.95 105.33 M145.73 350.61 C209.05 277.76, 272.37 204.92, 358.95 105.33 M151.37 350.21 C230.69 258.96, 310.01 167.72, 358.69 111.72 M151.37 350.21 C197.31 297.36, 243.25 244.51, 358.69 111.72 M156.36 350.57 C227.97 268.19, 299.59 185.8, 359.08 117.37 M156.36 350.57 C202.1 297.95, 247.84 245.34, 359.08 117.37 M162 350.18 C204.68 301.08, 247.35 251.99, 358.82 123.76 M162 350.18 C232.98 268.53, 303.95 186.88, 358.82 123.76 M166.99 350.54 C240.13 266.4, 313.27 182.26, 358.56 130.16 M166.99 350.54 C237.06 269.93, 307.14 189.31, 358.56 130.16 M172.63 350.14 C233.81 279.76, 294.99 209.38, 358.95 135.8 M172.63 350.14 C247.04 264.55, 321.44 178.95, 358.95 135.8 M177.62 350.5 C245.91 271.94, 314.2 193.38, 358.69 142.2 M177.62 350.5 C244.55 273.5, 311.49 196.5, 358.69 142.2 M183.26 350.11 C228.62 297.93, 273.97 245.76, 359.08 147.85 M183.26 350.11 C230.13 296.19, 276.99 242.28, 359.08 147.85 M188.25 350.47 C235.76 295.81, 283.27 241.16, 358.82 154.24 M188.25 350.47 C238.15 293.06, 288.05 235.66, 358.82 154.24 M193.89 350.07 C242.18 294.52, 290.48 238.96, 358.56 160.64 M193.89 350.07 C258.79 275.42, 323.69 200.76, 358.56 160.64 M198.88 350.43 C242.42 300.34, 285.97 250.25, 358.96 166.28 M198.88 350.43 C261.77 278.08, 324.67 205.73, 358.96 166.28 M204.52 350.04 C245.97 302.36, 287.41 254.68, 358.69 172.68 M204.52 350.04 C253.4 293.81, 302.28 237.58, 358.69 172.68 M209.51 350.4 C267.94 283.19, 326.36 215.97, 359.09 178.33 M209.51 350.4 C259.22 293.22, 308.93 236.03, 359.09 178.33 M215.15 350 C267.74 289.51, 320.33 229.01, 358.83 184.72 M215.15 350 C254.44 304.8, 293.74 259.6, 358.83 184.72 M220.14 350.36 C263.62 300.35, 307.1 250.33, 358.57 191.12 M220.14 350.36 C272.11 290.57, 324.09 230.78, 358.57 191.12 M225.78 349.97 C267.48 302, 309.18 254.03, 358.96 196.76 M225.78 349.97 C253.04 318.61, 280.3 287.25, 358.96 196.76 M230.77 350.33 C278 295.99, 325.24 241.65, 358.7 203.16 M230.77 350.33 C280.68 292.91, 330.6 235.48, 358.7 203.16 M236.41 349.94 C283.68 295.56, 330.94 241.19, 359.09 208.8 M236.41 349.94 C279.97 299.83, 323.52 249.73, 359.09 208.8 M241.4 350.3 C280.1 305.78, 318.8 261.26, 358.83 215.2 M241.4 350.3 C270.45 316.87, 299.51 283.45, 358.83 215.2 M246.39 350.66 C269.33 324.26, 292.27 297.87, 358.57 221.6 M246.39 350.66 C276.9 315.55, 307.42 280.44, 358.57 221.6 M252.03 350.26 C275.08 323.75, 298.12 297.23, 358.97 227.24 M252.03 350.26 C275.68 323.05, 299.34 295.83, 358.97 227.24 M257.02 350.62 C291.56 310.88, 326.1 271.14, 358.7 233.64 M257.02 350.62 C278 326.49, 298.98 302.35, 358.7 233.64 M262.66 350.23 C291.06 317.55, 319.46 284.88, 359.1 239.28 M262.66 350.23 C300.16 307.09, 337.65 263.96, 359.1 239.28 M267.65 350.59 C295.61 318.42, 323.57 286.25, 358.84 245.68 M267.65 350.59 C296.07 317.89, 324.49 285.2, 358.84 245.68 M273.29 350.19 C297.23 322.65, 321.17 295.11, 358.58 252.08 M273.29 350.19 C292.95 327.58, 312.61 304.96, 358.58 252.08 M278.28 350.55 C307.97 316.39, 337.66 282.23, 358.97 257.72 M278.28 350.55 C298.04 327.81, 317.81 305.08, 358.97 257.72 M283.92 350.16 C308.99 321.32, 334.06 292.48, 358.71 264.12 M283.92 350.16 C301.1 330.39, 318.29 310.62, 358.71 264.12 M288.91 350.52 C312.3 323.61, 335.69 296.7, 359.1 269.76 M288.91 350.52 C314.61 320.95, 340.31 291.38, 359.1 269.76 M294.55 350.12 C311.65 330.46, 328.74 310.79, 358.84 276.16 M294.55 350.12 C312.11 329.92, 329.67 309.72, 358.84 276.16 M299.54 350.48 C320.72 326.11, 341.9 301.74, 358.58 282.56 M299.54 350.48 C319.52 327.49, 339.51 304.5, 358.58 282.56 M305.18 350.09 C322.81 329.81, 340.44 309.52, 358.98 288.2 M305.18 350.09 C318.64 334.6, 332.11 319.11, 358.98 288.2 M310.17 350.45 C327.06 331.02, 343.95 311.59, 358.71 294.6 M310.17 350.45 C326.1 332.12, 342.03 313.8, 358.71 294.6 M315.81 350.05 C325.44 338.98, 335.06 327.9, 359.11 300.24 M315.81 350.05 C326.81 337.39, 337.82 324.74, 359.11 300.24 M320.8 350.41 C334.14 335.06, 347.49 319.71, 358.85 306.64 M320.8 350.41 C328.58 341.46, 336.36 332.51, 358.85 306.64 M326.44 350.02 C336.03 338.99, 345.62 327.95, 358.59 313.04 M326.44 350.02 C338.67 335.95, 350.91 321.87, 358.59 313.04 M331.43 350.38 C341.47 338.83, 351.51 327.28, 358.98 318.68 M331.43 350.38 C340.8 339.6, 350.17 328.82, 358.98 318.68 M337.07 349.99 C344.67 341.24, 352.27 332.49, 358.72 325.08 M337.07 349.99 C344.18 341.8, 351.3 333.61, 358.72 325.08 M342.06 350.35 C347.73 343.82, 353.4 337.29, 359.11 330.72 M342.06 350.35 C345.65 346.21, 349.24 342.08, 359.11 330.72 M347.7 349.95 C350.19 347.09, 352.68 344.22, 358.85 337.12 M347.7 349.95 C349.94 347.38, 352.17 344.8, 358.85 337.12 M352.69 350.31 C354.73 347.96, 356.78 345.61, 358.59 343.52 M352.69 350.31 C355.02 347.63, 357.35 344.95, 358.59 343.52" stroke="#fff" stroke-width="0.5" fill="none"></path><path d="M0 0 C134.15 0, 268.3 0, 356.67 0 M0 0 C140.03 0, 280.07 0, 356.67 0 M356.67 0 C356.67 138.83, 356.67 277.66, 356.67 347.78 M356.67 0 C356.67 91.49, 356.67 182.99, 356.67 347.78 M356.67 347.78 C266.72 347.78, 176.77 347.78, 0 347.78 M356.67 347.78 C235.76 347.78, 114.85 347.78, 0 347.78 M0 347.78 C0 235.2, 0 122.63, 0 0 M0 347.78 C0 235.35, 0 122.93, 0 0" stroke="#000000" stroke-width="1" fill="none"></path></g><g transform="translate(55.61604111156794 15.72552117460873) rotate(0 137.5 11)"><text x="137.5" y="16" font-family="Virgil, Segoe UI Emoji" font-size="17.678798363929268px" fill="#000000" text-anchor="middle" style="white-space: pre;" direction="ltr">Let's practice what we learned</text></g><g transform="translate(56.94880860279591 59.835844031687884) rotate(0 33.5 23)"><text x="33.5" y="35" font-family="Cascadia, Segoe UI Emoji" font-size="36px" fill="#000000" text-anchor="middle" style="white-space: pre;" direction="rtl">جگہ</text></g><g transform="translate(147.56053134670583 63.70778218808846) rotate(0 54.5 23)"><text x="54.5" y="35" font-family="Cascadia, Segoe UI Emoji" font-size="36px" fill="#000" text-anchor="middle" style="white-space: pre;" direction="rtl">ج+گ+ہ</text></g><g transform="translate(57.99560341798133 115.11777404388704) rotate(0 33.5 23)"><text x="33.5" y="35" font-family="Cascadia, Segoe UI Emoji" font-size="36px" fill="#000000" text-anchor="middle" style="white-space: pre;" direction="rtl">بہن</text></g><g transform="translate(169.29785227044886 114.75541808273556) rotate(0 54.5 23)"><text x="54.5" y="35" font-family="Cascadia, Segoe UI Emoji" font-size="36px" fill="#000000" text-anchor="middle" style="white-space: pre;" direction="rtl">ب+ہ+ن</text></g><g transform="translate(48.014293574450676 164.07350425822005) rotate(0 44 23)"><text x="44" y="35" font-family="Cascadia, Segoe UI Emoji" font-size="36px" fill="#000000" text-anchor="middle" style="white-space: pre;" direction="rtl">تکیہ</text></g><g transform="translate(150.9501835464489 166.86429479209255) rotate(0 76 23)"><text x="76" y="35" font-family="Cascadia, Segoe UI Emoji" font-size="36px" fill="#000000" text-anchor="middle" style="white-space: pre;" direction="rtl">ت+ک+ی+ہ</text></g><g transform="translate(30.928063784504047 300.0651638109757) rotate(0 55 23)"><text x="55" y="35" font-family="Cascadia, Segoe UI Emoji" font-size="36px" fill="#000000" text-anchor="middle" style="white-space: pre;" direction="rtl">یہودی</text></g><g transform="translate(132.82027591803035 298.99076786842124) rotate(0 97 23)"><text x="97" y="35" font-family="Cascadia, Segoe UI Emoji" font-size="36px" fill="#000000" text-anchor="middle" style="white-space: pre;" direction="rtl">ی+ہ+و+د+ی</text></g><g transform="translate(42.44880860279591 253.81328884572758) rotate(0 44 23)"><text x="44" y="35" font-family="Cascadia, Segoe UI Emoji" font-size="36px" fill="#000000" text-anchor="middle" style="white-space: pre;" direction="rtl">پنجہ</text></g><g transform="translate(146.02263464396128 253.40410977469037) rotate(0 76 23)"><text x="76" y="35" font-family="Cascadia, Segoe UI Emoji" font-size="36px" fill="#000000" text-anchor="middle" style="white-space: pre;" direction="rtl">پ+ن+ج+ہ</text></g><g transform="translate(45.750670648527375 212.4612827228575) rotate(0 44 23)"><text x="44" y="35" font-family="Cascadia, Segoe UI Emoji" font-size="36px" fill="#000000" text-anchor="middle" style="white-space: pre;" direction="rtl">سجدہ</text></g><g transform="translate(146.1943104851216 210.48415190212654) rotate(0 76 23)"><text x="76" y="35" font-family="Cascadia, Segoe UI Emoji" font-size="36px" fill="#000000" text-anchor="middle" style="white-space: pre;" direction="rtl">س+ج+د+ہ</text></g><g transform="translate(172.9047619047633 39.52688440443853) rotate(0 24 10)"><text x="24" y="14" font-family="Virgil, Segoe UI Emoji" font-size="16px" fill="#e67700" text-anchor="middle" style="white-space: pre;" direction="ltr">gol he</text></g></svg>