<svg version="1.1" xmlns="http://www.w3.org/2000/svg" viewBox="0 0 379 373" width="379" height="373">
  <!-- svg-source:excalidraw -->
  
  <defs>
    <style>
      @font-face {
        font-family: "Virgil";
        src: url("../Virgil.woff2");;
      }
      
    </style>
  </defs>
  <rect x="0" y="0" width="379" height="373" fill="#ffffff"></rect><g stroke-linecap="round" transform="translate(10 10) rotate(0 179.5 176.5)"><path d="M0 0 C101.61 0, 203.23 0, 359 0 M0 0 C93.73 0, 187.45 0, 359 0 M359 0 C359 133.99, 359 267.98, 359 353 M359 0 C359 139.64, 359 279.29, 359 353 M359 353 C230.91 353, 102.82 353, 0 353 M359 353 C222.57 353, 86.13 353, 0 353 M0 353 C0 233.25, 0 113.5, 0 0 M0 353 C0 245.72, 0 138.44, 0 0" stroke="#000000" stroke-width="1" fill="none"></path></g><g transform="translate(49.5 39) rotate(0 5.5 13.5)"><text x="5.5" y="20" font-family="Virgil, Segoe UI Emoji" font-size="20px" fill="#000000" text-anchor="middle" style="white-space: pre;" direction="ltr">ह</text></g><g transform="translate(330 42) rotate(0 6 12.5)"><text x="6" y="18" font-family="Virgil, Segoe UI Emoji" font-size="20px" fill="#000000" text-anchor="middle" style="white-space: pre;" direction="ltr">H</text></g><g transform="translate(314 299) rotate(0 11 15)"><text x="11" y="21" font-family="Virgil, Segoe UI Emoji" font-size="23.076923076923066px" fill="#000000" text-anchor="middle" style="white-space: pre;" direction="rtl">حا</text></g><g transform="translate(180.5 297.75) rotate(0 24.5 16)"><text x="24.5" y="23" font-family="Virgil, Segoe UI Emoji" font-size="24.999999999999996px" fill="#000000" text-anchor="middle" style="white-space: pre;" direction="rtl">بحب</text></g><g transform="translate(47.5 298.4545454545455) rotate(0 20 17.272727272727252)"><text x="20" y="24.54545454545454" font-family="Virgil, Segoe UI Emoji" font-size="26.573426573426566px" fill="#000000" text-anchor="middle" style="white-space: pre;" direction="rtl">شح</text></g><g transform="translate(155.5 42.72728228569031) rotate(0 31.5 13)"><text x="31.5" y="19" font-family="Virgil, Segoe UI Emoji" font-size="20px" fill="#000000" text-anchor="middle" style="white-space: pre;" direction="ltr">Hay(ح)</text></g><g stroke-linecap="round"><g transform="translate(128.61284124851227 94.03724908828735) rotate(0 60.92399999999998 89.42724999999996)"><path d="M0 0 C0.5 20.83, -4.5 95.33, 3 125 C10.5 154.67, 30.67 173, 45 178 C59.33 183, 76 165.5, 89 155 C102 144.5, 117.33 121.67, 123 115 M0 0 C0.5 20.83, -4.5 95.33, 3 125 C10.5 154.67, 30.67 173, 45 178 C59.33 183, 76 165.5, 89 155 C102 144.5, 117.33 121.67, 123 115" stroke="#000000" stroke-width="1" fill="none"></path></g></g><g stroke-linecap="round"><g transform="translate(251.61284124851227 210.03724908828735) rotate(0 -44.5 -5)"><path d="M0 0 C-14.83 -1.67, -74.17 -8.33, -89 -10 M0 0 C-14.83 -1.67, -74.17 -8.33, -89 -10" stroke="#000000" stroke-width="1" fill="none"></path></g></g><g transform="translate(317.9587856531143 327.63226318359375) rotate(0 10 10)"><text x="20" y="14" font-family="Virgil, Segoe UI Emoji" font-size="16px" fill="#000000" text-anchor="end" style="white-space: pre;" direction="ltr">ha</text></g><g transform="translate(194.95878565311432 327.63226318359375) rotate(0 12.5 10)"><text x="25" y="14" font-family="Virgil, Segoe UI Emoji" font-size="16px" fill="#000000" text-anchor="end" style="white-space: pre;" direction="ltr">bhb</text></g><g transform="translate(59.95878565311432 327.63226318359375) rotate(0 9 10)"><text x="18" y="14" font-family="Virgil, Segoe UI Emoji" font-size="16px" fill="#000000" text-anchor="end" style="white-space: pre;" direction="ltr">sh</text></g></svg>