<svg version="1.1" xmlns="http://www.w3.org/2000/svg" viewBox="0 0 376.6666666666665 367.7777777777774" width="376.6666666666665" height="367.7777777777774">
  <!-- svg-source:excalidraw -->
  
  <defs>
    <style>
      @font-face {
        font-family: "Virgil";
        src: url("https://excalidraw.com/Virgil.woff2");
      }
      @font-face {
        font-family: "Cascadia";
        src: url("https://excalidraw.com/Cascadia.woff2");
      }
    </style>
  </defs>
  <rect x="0" y="0" width="376.6666666666665" height="367.7777777777774" fill="#ffffff"></rect><g stroke-linecap="round" transform="translate(10 10) rotate(0 178.33333333333326 173.8888888888887)"><path d="M0 0 C0 0, 0 0, 0 0 M0 0 C0 0, 0 0, 0 0 M-0.26 6.4 C1.36 4.53, 2.98 2.66, 4.99 0.36 M-0.26 6.4 C1.54 4.32, 3.34 2.25, 4.99 0.36 M0.13 12.04 C3.91 7.7, 7.68 3.36, 10.63 -0.03 M0.13 12.04 C3.45 8.23, 6.77 4.41, 10.63 -0.03 M-0.13 18.44 C3.47 14.29, 7.08 10.15, 15.62 0.33 M-0.13 18.44 C4.37 13.26, 8.87 8.08, 15.62 0.33 M0.27 24.08 C5.68 17.85, 11.09 11.63, 21.26 -0.07 M0.27 24.08 C8.42 14.7, 16.58 5.31, 21.26 -0.07 M0 30.48 C6.08 23.49, 12.16 16.5, 26.25 0.29 M0 30.48 C8.82 20.34, 17.63 10.2, 26.25 0.29 M-0.26 36.88 C9.79 25.32, 19.84 13.76, 31.89 -0.1 M-0.26 36.88 C10.41 24.61, 21.08 12.33, 31.89 -0.1 M0.14 42.52 C10.28 30.86, 20.41 19.2, 36.88 0.26 M0.14 42.52 C10.74 30.32, 21.34 18.13, 36.88 0.26 M-0.12 48.92 C10.26 36.97, 20.65 25.02, 42.52 -0.14 M-0.12 48.92 C14.45 32.16, 29.01 15.4, 42.52 -0.14 M0.27 54.56 C15.32 37.25, 30.36 19.94, 47.51 0.22 M0.27 54.56 C12.83 40.12, 25.38 25.67, 47.51 0.22 M0.01 60.96 C16.98 41.44, 33.95 21.91, 53.15 -0.17 M0.01 60.96 C20.77 37.08, 41.52 13.2, 53.15 -0.17 M-0.25 67.36 C12.27 52.95, 24.8 38.54, 58.14 0.19 M-0.25 67.36 C12.36 52.85, 24.97 38.35, 58.14 0.19 M0.14 73 C16.48 54.2, 32.82 35.4, 63.78 -0.21 M0.14 73 C21.01 49, 41.87 25, 63.78 -0.21 M-0.12 79.4 C14.87 62.16, 29.85 44.92, 68.77 0.15 M-0.12 79.4 C14.62 62.45, 29.35 45.5, 68.77 0.15 M0.28 85.04 C24.08 57.65, 47.89 30.26, 74.41 -0.24 M0.28 85.04 C28.38 52.71, 56.48 20.38, 74.41 -0.24 M0.01 91.44 C22.2 65.91, 44.39 40.39, 79.4 0.12 M0.01 91.44 C28.69 58.46, 57.36 25.47, 79.4 0.12 M-0.25 97.84 C19.05 75.64, 38.34 53.45, 85.04 -0.28 M-0.25 97.84 C20.78 73.64, 41.81 49.45, 85.04 -0.28 M0.15 103.48 C31.7 67.19, 63.25 30.89, 90.03 0.08 M0.15 103.48 C25.84 73.93, 51.53 44.38, 90.03 0.08 M-0.11 109.88 C22.32 84.07, 44.75 58.27, 95.67 -0.31 M-0.11 109.88 C19.92 86.83, 39.96 63.78, 95.67 -0.31 M0.28 115.52 C28.48 83.09, 56.67 50.65, 100.66 0.05 M0.28 115.52 C24.62 87.53, 48.95 59.53, 100.66 0.05 M0.02 121.92 C27.19 90.67, 54.35 59.41, 106.3 -0.34 M0.02 121.92 C23.65 94.74, 47.27 67.56, 106.3 -0.34 M-0.24 128.32 C35.06 87.71, 70.35 47.11, 111.29 0.02 M-0.24 128.32 C23.43 101.09, 47.09 73.86, 111.29 0.02 M0.15 133.96 C40.75 87.26, 81.35 40.55, 116.27 0.38 M0.15 133.96 C25.45 104.86, 50.75 75.75, 116.27 0.38 M-0.11 140.36 C24.73 111.78, 49.57 83.2, 121.92 -0.02 M-0.11 140.36 C24.65 111.88, 49.4 83.4, 121.92 -0.02 M0.29 146 C28.61 113.42, 56.93 80.84, 126.91 0.34 M0.29 146 C26.17 116.23, 52.05 86.45, 126.91 0.34 M0.02 152.4 C37.98 108.74, 75.93 65.08, 132.55 -0.05 M0.02 152.4 C46.24 99.23, 92.46 46.06, 132.55 -0.05 M-0.24 158.8 C45.74 105.91, 91.71 53.02, 137.54 0.31 M-0.24 158.8 C50.33 100.63, 100.89 42.46, 137.54 0.31 M0.16 164.44 C29.84 130.29, 59.52 96.14, 143.18 -0.09 M0.16 164.44 C30.29 129.78, 60.42 95.11, 143.18 -0.09 M-0.1 170.84 C56.84 105.32, 113.79 39.81, 148.17 0.27 M-0.1 170.84 C54.36 108.19, 108.82 45.54, 148.17 0.27 M0.29 176.48 C32.25 139.72, 64.21 102.95, 153.81 -0.12 M0.29 176.48 C42.68 127.72, 85.06 78.96, 153.81 -0.12 M0.03 182.88 C36.17 141.3, 72.31 99.73, 158.8 0.24 M0.03 182.88 C38.69 138.4, 77.36 93.92, 158.8 0.24 M-0.23 189.27 C37.27 146.13, 74.78 102.98, 164.44 -0.16 M-0.23 189.27 C42.42 140.21, 85.07 91.15, 164.44 -0.16 M0.16 194.92 C62.04 123.73, 123.92 52.55, 169.43 0.2 M0.16 194.92 C52.71 134.47, 105.25 74.03, 169.43 0.2 M-0.1 201.32 C35.69 160.15, 71.48 118.98, 175.07 -0.19 M-0.1 201.32 C69.95 120.73, 140.01 40.14, 175.07 -0.19 M0.3 206.96 C44.81 155.75, 89.32 104.54, 180.06 0.17 M0.3 206.96 C46.92 153.33, 93.54 99.7, 180.06 0.17 M0.03 213.36 C69.51 133.44, 138.98 53.51, 185.7 -0.23 M0.03 213.36 C67.99 135.19, 135.94 57.02, 185.7 -0.23 M-0.23 219.75 C70.77 138.08, 141.77 56.41, 190.69 0.13 M-0.23 219.75 C49.06 163.05, 98.35 106.35, 190.69 0.13 M0.17 225.4 C73.19 141.39, 146.21 57.39, 196.33 -0.26 M0.17 225.4 C69 146.22, 137.83 67.04, 196.33 -0.26 M-0.09 231.8 C77.43 142.62, 154.95 53.44, 201.32 0.1 M-0.09 231.8 C50.53 173.55, 101.16 115.31, 201.32 0.1 M0.3 237.44 C68.87 158.56, 137.43 79.69, 206.96 -0.3 M0.3 237.44 C77.76 148.33, 155.22 59.22, 206.96 -0.3 M0.04 243.84 C80.92 150.79, 161.8 57.75, 211.95 0.06 M0.04 243.84 C55.13 180.46, 110.21 117.09, 211.95 0.06 M-0.22 250.23 C83.52 153.9, 167.27 57.56, 217.59 -0.33 M-0.22 250.23 C83.56 153.86, 167.34 57.48, 217.59 -0.33 M0.17 255.88 C45.91 203.26, 91.65 150.65, 222.58 0.03 M0.17 255.88 C62.78 183.85, 125.4 111.82, 222.58 0.03 M-0.09 262.27 C82.22 167.59, 164.52 72.91, 228.22 -0.36 M-0.09 262.27 C80.66 169.38, 161.41 76.49, 228.22 -0.36 M0.3 267.92 C81.51 174.5, 162.72 81.08, 233.21 0 M0.3 267.92 C91.18 163.37, 182.06 58.83, 233.21 0 M0.04 274.32 C68.74 195.29, 137.43 116.27, 238.19 0.36 M0.04 274.32 C90.99 169.7, 181.93 65.08, 238.19 0.36 M-0.22 280.71 C61.06 210.22, 122.34 139.73, 243.84 -0.04 M-0.22 280.71 C57.55 214.25, 115.33 147.8, 243.84 -0.04 M0.18 286.36 C73.61 201.88, 147.04 117.41, 248.82 0.32 M0.18 286.36 C98.57 173.17, 196.96 59.99, 248.82 0.32 M-0.08 292.75 C51.24 233.72, 102.56 174.68, 254.47 -0.07 M-0.08 292.75 C88.58 190.76, 177.25 88.76, 254.47 -0.07 M0.31 298.4 C79.76 207, 159.22 115.6, 259.45 0.29 M0.31 298.4 C64.64 224.4, 128.96 150.4, 259.45 0.29 M0.05 304.8 C62.98 232.4, 125.91 160.01, 265.1 -0.11 M0.05 304.8 C60.71 235.02, 121.37 165.24, 265.1 -0.11 M-0.21 311.19 C93.36 203.55, 186.93 95.91, 270.08 0.25 M-0.21 311.19 C59 243.08, 118.21 174.96, 270.08 0.25 M0.18 316.84 C67.46 239.44, 134.74 162.04, 275.73 -0.14 M0.18 316.84 C71.47 234.83, 142.76 152.82, 275.73 -0.14 M-0.08 323.23 C66.3 246.87, 132.68 170.51, 280.71 0.22 M-0.08 323.23 C88.2 221.68, 176.47 120.13, 280.71 0.22 M0.31 328.88 C73.51 244.67, 146.71 160.47, 286.36 -0.18 M0.31 328.88 C113.26 198.94, 226.21 69.01, 286.36 -0.18 M0.05 335.27 C86.87 235.4, 173.69 135.52, 291.34 0.18 M0.05 335.27 C106.93 212.32, 213.82 89.37, 291.34 0.18 M-0.21 341.67 C105.32 220.27, 210.85 98.88, 296.99 -0.21 M-0.21 341.67 C80.28 249.08, 160.76 156.5, 296.99 -0.21 M0.19 347.32 C75.73 260.41, 151.28 173.5, 301.97 0.15 M0.19 347.32 C101.58 230.67, 202.98 114.03, 301.97 0.15 M3.21 349.94 C116.65 219.43, 230.1 88.92, 307.62 -0.25 M3.21 349.94 C93.51 246.05, 183.82 142.17, 307.62 -0.25 M8.19 350.3 C102.83 241.43, 197.48 132.55, 312.6 0.11 M8.19 350.3 C71.34 277.65, 134.49 205.01, 312.6 0.11 M13.18 350.66 C131.56 214.48, 249.94 78.29, 318.25 -0.28 M13.18 350.66 C122.71 224.66, 232.24 98.66, 318.25 -0.28 M18.82 350.27 C108.88 246.67, 198.94 143.07, 323.23 0.08 M18.82 350.27 C108.23 247.41, 197.65 144.55, 323.23 0.08 M23.81 350.63 C93.67 270.26, 163.53 189.89, 328.88 -0.31 M23.81 350.63 C121.78 237.92, 219.75 125.22, 328.88 -0.31 M29.45 350.23 C126.77 238.28, 224.08 126.33, 333.86 0.05 M29.45 350.23 C131.07 233.34, 232.68 116.44, 333.86 0.05 M34.44 350.59 C147.86 220.12, 261.28 89.64, 339.51 -0.35 M34.44 350.59 C132.9 237.32, 231.37 124.05, 339.51 -0.35 M40.08 350.2 C130 246.76, 219.92 143.32, 344.49 0.01 M40.08 350.2 C159.79 212.49, 279.5 74.78, 344.49 0.01 M45.07 350.56 C118.46 266.13, 191.84 181.71, 349.48 0.37 M45.07 350.56 C130.38 252.42, 215.68 154.29, 349.48 0.37 M50.71 350.16 C122.05 268.09, 193.39 186.02, 355.12 -0.02 M50.71 350.16 C161.56 222.64, 272.42 95.12, 355.12 -0.02 M55.7 350.52 C149.66 242.43, 243.62 134.34, 358.8 1.85 M55.7 350.52 C172.83 215.78, 289.96 81.04, 358.8 1.85 M61.34 350.13 C164.3 231.69, 267.26 113.25, 358.54 8.24 M61.34 350.13 C140.16 259.46, 218.98 168.79, 358.54 8.24 M66.33 350.49 C124.88 283.13, 183.43 215.77, 358.93 13.89 M66.33 350.49 C128.02 279.52, 189.72 208.54, 358.93 13.89 M71.97 350.09 C169.42 237.99, 266.86 125.9, 358.67 20.28 M71.97 350.09 C169.92 237.41, 267.88 124.73, 358.67 20.28 M76.96 350.45 C184.56 226.68, 292.15 102.9, 359.07 25.93 M76.96 350.45 C189.65 220.81, 302.35 91.18, 359.07 25.93 M82.6 350.06 C171.38 247.93, 260.17 145.8, 358.8 32.33 M82.6 350.06 C183.5 233.99, 284.39 117.93, 358.8 32.33 M87.59 350.42 C161.37 265.54, 235.16 180.66, 358.54 38.72 M87.59 350.42 C189.17 233.56, 290.75 116.71, 358.54 38.72 M93.23 350.02 C171.94 259.48, 250.65 168.93, 358.94 44.37 M93.23 350.02 C182.11 247.79, 270.98 145.55, 358.94 44.37 M98.22 350.38 C186.7 248.6, 275.18 146.82, 358.68 50.76 M98.22 350.38 C159.76 279.59, 221.3 208.8, 358.68 50.76 M103.86 349.99 C172.22 271.35, 240.59 192.71, 359.07 56.41 M103.86 349.99 C199.35 240.14, 294.84 130.3, 359.07 56.41 M108.85 350.35 C208.56 235.65, 308.26 120.95, 358.81 62.81 M108.85 350.35 C173.66 275.79, 238.48 201.23, 358.81 62.81 M114.49 349.95 C197.07 254.96, 279.65 159.97, 358.55 69.2 M114.49 349.95 C172.04 283.75, 229.59 217.56, 358.55 69.2 M119.48 350.31 C194.58 263.92, 269.68 177.53, 358.94 74.85 M119.48 350.31 C214.37 241.16, 309.26 132, 358.94 74.85 M125.12 349.92 C173.74 293.99, 222.37 238.06, 358.68 81.24 M125.12 349.92 C217.95 243.13, 310.78 136.35, 358.68 81.24 M130.11 350.28 C197.9 272.3, 265.69 194.32, 359.07 86.89 M130.11 350.28 C216.19 251.25, 302.28 152.23, 359.07 86.89 M135.1 350.64 C196.89 279.55, 258.69 208.47, 358.81 93.28 M135.1 350.64 C216.48 257.03, 297.85 163.41, 358.81 93.28 M140.74 350.25 C185.8 298.42, 230.85 246.59, 358.55 99.68 M140.74 350.25 C185.14 299.17, 229.53 248.1, 358.55 99.68 M145.73 350.61 C218.19 267.25, 290.64 183.9, 358.95 105.33 M145.73 350.61 C223.74 260.87, 301.75 171.13, 358.95 105.33 M151.37 350.21 C204.24 289.39, 257.12 228.56, 358.69 111.72 M151.37 350.21 C205.65 287.77, 259.93 225.33, 358.69 111.72 M156.36 350.57 C216.12 281.83, 275.88 213.08, 359.08 117.37 M156.36 350.57 C209.38 289.58, 262.39 228.59, 359.08 117.37 M162 350.18 C220.68 282.68, 279.35 215.18, 358.82 123.76 M162 350.18 C203.02 302.99, 244.04 255.8, 358.82 123.76 M166.99 350.54 C212.06 298.69, 257.14 246.83, 358.56 130.16 M166.99 350.54 C212.02 298.74, 257.04 246.94, 358.56 130.16 M172.63 350.14 C236.36 276.83, 300.09 203.52, 358.95 135.8 M172.63 350.14 C224.57 290.4, 276.5 230.65, 358.95 135.8 M177.62 350.5 C241.72 276.76, 305.82 203.02, 358.69 142.2 M177.62 350.5 C231.45 288.58, 285.28 226.65, 358.69 142.2 M183.26 350.11 C225.66 301.34, 268.06 252.56, 359.08 147.85 M183.26 350.11 C250.85 272.35, 318.45 194.59, 359.08 147.85 M188.25 350.47 C229.53 302.98, 270.81 255.49, 358.82 154.24 M188.25 350.47 C254.03 274.79, 319.82 199.11, 358.82 154.24 M193.89 350.07 C259.47 274.63, 325.05 199.19, 358.56 160.64 M193.89 350.07 C229.08 309.59, 264.27 269.11, 358.56 160.64 M198.88 350.43 C261.12 278.83, 323.37 207.22, 358.96 166.28 M198.88 350.43 C241.17 301.79, 283.46 253.14, 358.96 166.28 M204.52 350.04 C245.32 303.11, 286.11 256.18, 358.69 172.68 M204.52 350.04 C255.6 291.28, 306.67 232.53, 358.69 172.68 M209.51 350.4 C251.76 301.79, 294.01 253.19, 359.09 178.33 M209.51 350.4 C242.92 311.96, 276.33 273.52, 359.09 178.33 M215.15 350 C249.62 310.35, 284.09 270.7, 358.83 184.72 M215.15 350 C255.17 303.96, 295.2 257.92, 358.83 184.72 M220.14 350.36 C262.95 301.12, 305.76 251.87, 358.57 191.12 M220.14 350.36 C272.79 289.79, 325.45 229.22, 358.57 191.12 M225.78 349.97 C275.36 292.94, 324.93 235.91, 358.96 196.76 M225.78 349.97 C262.19 308.08, 298.6 266.2, 358.96 196.76 M230.77 350.33 C263.28 312.93, 295.78 275.54, 358.7 203.16 M230.77 350.33 C279.24 294.57, 327.7 238.82, 358.7 203.16 M236.41 349.94 C268.09 313.5, 299.76 277.06, 359.09 208.8 M236.41 349.94 C274.47 306.15, 312.54 262.36, 359.09 208.8 M241.4 350.3 C264.91 323.24, 288.43 296.19, 358.83 215.2 M241.4 350.3 C275.34 311.25, 309.29 272.2, 358.83 215.2 M246.39 350.66 C284.84 306.42, 323.29 262.19, 358.57 221.6 M246.39 350.66 C275.57 317.08, 304.76 283.5, 358.57 221.6 M252.03 350.26 C276.56 322.04, 301.09 293.82, 358.97 227.24 M252.03 350.26 C284.94 312.4, 317.85 274.54, 358.97 227.24 M257.02 350.62 C279.32 324.96, 301.63 299.3, 358.7 233.64 M257.02 350.62 C294.71 307.26, 332.41 263.89, 358.7 233.64 M262.66 350.23 C293.68 314.54, 324.71 278.84, 359.1 239.28 M262.66 350.23 C287.57 321.56, 312.49 292.9, 359.1 239.28 M267.65 350.59 C297.72 315.98, 327.8 281.38, 358.84 245.68 M267.65 350.59 C301.02 312.19, 334.4 273.79, 358.84 245.68 M273.29 350.19 C295.1 325.1, 316.92 300, 358.58 252.08 M273.29 350.19 C298.09 321.67, 322.88 293.14, 358.58 252.08 M278.28 350.55 C299.62 325.99, 320.97 301.43, 358.97 257.72 M278.28 350.55 C306.26 318.36, 334.25 286.16, 358.97 257.72 M283.92 350.16 C307 323.6, 330.09 297.05, 358.71 264.12 M283.92 350.16 C312.45 317.34, 340.98 284.52, 358.71 264.12 M288.91 350.52 C307.31 329.34, 325.72 308.16, 359.1 269.76 M288.91 350.52 C309.29 327.07, 329.67 303.62, 359.1 269.76 M294.55 350.12 C317.42 323.81, 340.29 297.5, 358.84 276.16 M294.55 350.12 C309.56 332.85, 324.57 315.58, 358.84 276.16 M299.54 350.48 C317.84 329.42, 336.15 308.36, 358.58 282.56 M299.54 350.48 C320.23 326.67, 340.93 302.87, 358.58 282.56 M305.18 350.09 C325.14 327.13, 345.1 304.17, 358.98 288.2 M305.18 350.09 C325.43 326.79, 345.69 303.49, 358.98 288.2 M310.17 350.45 C321.99 336.84, 333.82 323.23, 358.71 294.6 M310.17 350.45 C327.53 330.48, 344.89 310.5, 358.71 294.6 M315.81 350.05 C329.96 333.78, 344.11 317.5, 359.11 300.24 M315.81 350.05 C327.36 336.77, 338.9 323.49, 359.11 300.24 M320.8 350.41 C330.2 339.6, 339.6 328.79, 358.85 306.64 M320.8 350.41 C332.92 336.46, 345.05 322.51, 358.85 306.64 M326.44 350.02 C335.88 339.16, 345.33 328.29, 358.59 313.04 M326.44 350.02 C338.87 335.72, 351.3 321.42, 358.59 313.04 M331.43 350.38 C341.15 339.2, 350.87 328.01, 358.98 318.68 M331.43 350.38 C340.17 340.32, 348.91 330.27, 358.98 318.68 M337.07 349.99 C344.46 341.49, 351.84 332.99, 358.72 325.08 M337.07 349.99 C344.56 341.37, 352.05 332.75, 358.72 325.08 M342.06 350.35 C347.89 343.64, 353.71 336.93, 359.11 330.72 M342.06 350.35 C345.69 346.16, 349.33 341.97, 359.11 330.72 M347.7 349.95 C350.34 346.91, 352.98 343.87, 358.85 337.12 M347.7 349.95 C351.94 345.07, 356.18 340.19, 358.85 337.12 M352.69 350.31 C354.12 348.66, 355.56 347, 358.59 343.52 M352.69 350.31 C354.71 347.98, 356.74 345.64, 358.59 343.52" stroke="#fff" stroke-width="0.5" fill="none"></path><path d="M0 0 C117.43 0, 234.86 0, 356.67 0 M0 0 C110.31 0, 220.62 0, 356.67 0 M356.67 0 C356.67 97.03, 356.67 194.05, 356.67 347.78 M356.67 0 C356.67 80.96, 356.67 161.92, 356.67 347.78 M356.67 347.78 C251.76 347.78, 146.85 347.78, 0 347.78 M356.67 347.78 C256.49 347.78, 156.32 347.78, 0 347.78 M0 347.78 C0 273.67, 0 199.56, 0 0 M0 347.78 C0 229.62, 0 111.46, 0 0" stroke="#000000" stroke-width="1" fill="none"></path></g><g transform="translate(55.61604111156794 15.72552117460873) rotate(0 137.5 11)"><text x="137.5" y="16" font-family="Virgil, Segoe UI Emoji" font-size="17.678798363929268px" fill="#000000" text-anchor="middle" style="white-space: pre;" direction="ltr">Let's practice what we learned</text></g><g transform="translate(83.4488086027959 65.83584403168788) rotate(0 15 19.5)"><text x="15" y="27" font-family="Virgil, Segoe UI Emoji" font-size="28px" fill="#000000" text-anchor="middle" style="white-space: pre;" direction="rtl">بڑا</text></g><g transform="translate(178.06053134670583 71.20778218808846) rotate(0 31.5 16)"><text x="31.5" y="23" font-family="Virgil, Segoe UI Emoji" font-size="23.433516823172702px" fill="#000" text-anchor="middle" style="white-space: pre;" direction="rtl">ب+ڑ+ا</text></g><g transform="translate(78.49560341798133 120.11777404388704) rotate(0 22 20)"><text x="22" y="28" font-family="Virgil, Segoe UI Emoji" font-size="29.111111111111125px" fill="#000000" text-anchor="middle" style="white-space: pre;" direction="rtl">تڑکا</text></g><g transform="translate(163.29785227044886 124.75541808273556) rotate(0 48.5 17)"><text x="48.5" y="24" font-family="Virgil, Segoe UI Emoji" font-size="24.363418284409725px" fill="#000000" text-anchor="middle" style="white-space: pre;" direction="rtl">ت+ڑ+ک+ا</text></g><g transform="translate(80.51429357445068 169.07350425822005) rotate(0 20.5 20)"><text x="20.5" y="28" font-family="Virgil, Segoe UI Emoji" font-size="29.12444789851476px" fill="#000000" text-anchor="middle" style="white-space: pre;" direction="rtl">بوٹ</text></g><g transform="translate(176.9501835464489 174.86429479209255) rotate(0 36.5 17)"><text x="36.5" y="24" font-family="Virgil, Segoe UI Emoji" font-size="24.37457999269509px" fill="#000000" text-anchor="middle" style="white-space: pre;" direction="rtl">ب+و+ٹ</text></g><g transform="translate(80.42806378450405 306.0651638109757) rotate(0 16.5 19.5)"><text x="16.5" y="27" font-family="Virgil, Segoe UI Emoji" font-size="28px" fill="#000000" text-anchor="middle" style="white-space: pre;" direction="rtl">دنڈ</text></g><g transform="translate(178.32027591803035 307.99076786842033) rotate(0 32 16.5)"><text x="32" y="23" font-family="Virgil, Segoe UI Emoji" font-size="23.97205215126855px" fill="#000000" text-anchor="middle" style="white-space: pre;" direction="rtl">د+ن+ڈ</text></g><g transform="translate(76.4488086027959 259.8132888457276) rotate(0 19 19.5)"><text x="19" y="27" font-family="Virgil, Segoe UI Emoji" font-size="28px" fill="#000000" text-anchor="middle" style="white-space: pre;" direction="rtl">بینڈ</text></g><g transform="translate(185.02263464396128 264.40410977469037) rotate(0 49 16)"><text x="49" y="23" font-family="Virgil, Segoe UI Emoji" font-size="23.433516823172702px" fill="#000000" text-anchor="middle" style="white-space: pre;" direction="rtl">ب+ی+ن+ڈ</text></g><g transform="translate(61.250670648527375 216.4612827228575) rotate(0 33.5 19.5)"><text x="33.5" y="27" font-family="Virgil, Segoe UI Emoji" font-size="28px" fill="#000000" text-anchor="middle" style="white-space: pre;" direction="rtl">اخروٹ</text></g><g transform="translate(177.6943104851216 222.48415190212654) rotate(0 57.5 16)"><text x="57.5" y="23" font-family="Virgil, Segoe UI Emoji" font-size="23.433516823172702px" fill="#000000" text-anchor="middle" style="white-space: pre;" direction="rtl">ا+خ+ر+و+ٹ</text></g><g transform="translate(118.90476190476329 39.52688440443853) rotate(0 78 11)"><text x="78" y="16" font-family="Virgil, Segoe UI Emoji" font-size="16px" fill="#e67700" text-anchor="middle" style="white-space: pre;" direction="ltr">heavy letter with ط</text></g><g transform="translate(29.02010068387699 336.2450589363016) rotate(0 159.5 8.5)"><text x="159.5" y="12" font-family="Virgil, Segoe UI Emoji" font-size="12.181818181818201px" fill="#e67700" text-anchor="middle" style="white-space: pre;" direction="ltr">Remember: ی and و have two sounds. Pick accordingly</text></g></svg>