<svg version="1.1" xmlns="http://www.w3.org/2000/svg" viewBox="0 0 380 367.7777777777774" width="380" height="367.7777777777774">
  <!-- svg-source:excalidraw -->
  
  <defs>
    <style>
      @font-face {
        font-family: "Virgil";
        src: url("https://excalidraw.com/Virgil.woff2");
      }
      @font-face {
        font-family: "Cascadia";
        src: url("https://excalidraw.com/Cascadia.woff2");
      }
    </style>
  </defs>
  <rect x="0" y="0" width="380" height="367.7777777777774" fill="#ffffff"></rect><g stroke-linecap="round" transform="translate(11.41666666666697 10) rotate(0 178.33333333333326 173.8888888888887)"><path d="M0 0 C0 0, 0 0, 0 0 M0 0 C0 0, 0 0, 0 0 M-0.26 6.4 C1.83 3.99, 3.93 1.58, 4.99 0.36 M-0.26 6.4 C1.3 4.61, 2.85 2.82, 4.99 0.36 M0.13 12.04 C3.31 8.38, 6.5 4.72, 10.63 -0.03 M0.13 12.04 C3.59 8.07, 7.04 4.09, 10.63 -0.03 M-0.13 18.44 C4.21 13.45, 8.54 8.47, 15.62 0.33 M-0.13 18.44 C3.52 14.25, 7.16 10.05, 15.62 0.33 M0.27 24.08 C5.79 17.73, 11.31 11.38, 21.26 -0.07 M0.27 24.08 C5.16 18.46, 10.05 12.83, 21.26 -0.07 M0 30.48 C6.76 22.71, 13.51 14.95, 26.25 0.29 M0 30.48 C8.9 20.25, 17.79 10.02, 26.25 0.29 M-0.26 36.88 C7.04 28.48, 14.34 20.09, 31.89 -0.1 M-0.26 36.88 C7.69 27.74, 15.63 18.6, 31.89 -0.1 M0.14 42.52 C13.12 27.58, 26.11 12.64, 36.88 0.26 M0.14 42.52 C13.5 27.15, 26.86 11.78, 36.88 0.26 M-0.12 48.92 C15.44 31.02, 31 13.11, 42.52 -0.14 M-0.12 48.92 C13.43 33.33, 26.98 17.74, 42.52 -0.14 M0.27 54.56 C17.78 34.42, 35.28 14.29, 47.51 0.22 M0.27 54.56 C18.12 34.03, 35.97 13.49, 47.51 0.22 M0.01 60.96 C21.02 36.79, 42.02 12.63, 53.15 -0.17 M0.01 60.96 C19.53 38.5, 39.05 16.04, 53.15 -0.17 M-0.25 67.36 C12.23 53, 24.71 38.64, 58.14 0.19 M-0.25 67.36 C16.09 48.56, 32.43 29.76, 58.14 0.19 M0.14 73 C18.28 52.14, 36.42 31.27, 63.78 -0.21 M0.14 73 C25.29 44.07, 50.43 15.15, 63.78 -0.21 M-0.12 79.4 C26.51 48.76, 53.14 18.13, 68.77 0.15 M-0.12 79.4 C20.17 56.06, 40.46 32.72, 68.77 0.15 M0.28 85.04 C26.17 55.25, 52.06 25.47, 74.41 -0.24 M0.28 85.04 C28.2 52.91, 56.13 20.78, 74.41 -0.24 M0.01 91.44 C23.12 64.85, 46.23 38.27, 79.4 0.12 M0.01 91.44 C21.71 66.48, 43.41 41.52, 79.4 0.12 M-0.25 97.84 C29.77 63.31, 59.78 28.78, 85.04 -0.28 M-0.25 97.84 C30.84 62.08, 61.92 26.32, 85.04 -0.28 M0.15 103.48 C29.61 69.59, 59.06 35.71, 90.03 0.08 M0.15 103.48 C35.59 62.71, 71.03 21.93, 90.03 0.08 M-0.11 109.88 C19.53 87.28, 39.18 64.68, 95.67 -0.31 M-0.11 109.88 C36.96 67.22, 74.04 24.57, 95.67 -0.31 M0.28 115.52 C39.97 69.86, 79.66 24.2, 100.66 0.05 M0.28 115.52 C26.6 85.25, 52.91 54.97, 100.66 0.05 M0.02 121.92 C28.65 88.98, 57.29 56.04, 106.3 -0.34 M0.02 121.92 C37.23 79.11, 74.44 36.31, 106.3 -0.34 M-0.24 128.32 C43.42 78.09, 87.08 27.86, 111.29 0.02 M-0.24 128.32 C22.96 101.63, 46.16 74.94, 111.29 0.02 M0.15 133.96 C29.64 100.03, 59.13 66.11, 116.27 0.38 M0.15 133.96 C39.1 89.16, 78.05 44.35, 116.27 0.38 M-0.11 140.36 C37.93 96.6, 75.96 52.85, 121.92 -0.02 M-0.11 140.36 C47.43 85.67, 94.97 30.98, 121.92 -0.02 M0.29 146 C40.32 99.94, 80.36 53.88, 126.91 0.34 M0.29 146 C38.46 102.08, 76.64 58.16, 126.91 0.34 M0.02 152.4 C46.44 99, 92.86 45.6, 132.55 -0.05 M0.02 152.4 C38.62 108, 77.21 63.61, 132.55 -0.05 M-0.24 158.8 C49.65 101.41, 99.54 44.02, 137.54 0.31 M-0.24 158.8 C52.6 98.01, 105.44 37.22, 137.54 0.31 M0.16 164.44 C57.35 98.65, 114.54 32.86, 143.18 -0.09 M0.16 164.44 C32.16 127.63, 64.15 90.82, 143.18 -0.09 M-0.1 170.84 C51.2 111.82, 102.5 52.81, 148.17 0.27 M-0.1 170.84 C58.18 103.79, 116.47 36.74, 148.17 0.27 M0.29 176.48 C54.26 114.39, 108.24 52.3, 153.81 -0.12 M0.29 176.48 C34.77 136.82, 69.25 97.15, 153.81 -0.12 M0.03 182.88 C58.88 115.17, 117.74 47.47, 158.8 0.24 M0.03 182.88 C50.58 124.72, 101.14 66.56, 158.8 0.24 M-0.23 189.27 C64.8 114.47, 129.83 39.66, 164.44 -0.16 M-0.23 189.27 C58.68 121.5, 117.59 53.73, 164.44 -0.16 M0.16 194.92 C65.75 119.47, 131.33 44.02, 169.43 0.2 M0.16 194.92 C38.12 151.25, 76.09 107.58, 169.43 0.2 M-0.1 201.32 C55.58 137.27, 111.26 73.22, 175.07 -0.19 M-0.1 201.32 C37.35 158.23, 74.81 115.15, 175.07 -0.19 M0.3 206.96 C53.5 145.75, 106.71 84.54, 180.06 0.17 M0.3 206.96 C63.57 134.17, 126.84 61.38, 180.06 0.17 M0.03 213.36 C38.43 169.19, 76.82 125.02, 185.7 -0.23 M0.03 213.36 C39 168.54, 77.96 123.71, 185.7 -0.23 M-0.23 219.75 C46.43 166.08, 93.08 112.41, 190.69 0.13 M-0.23 219.75 C41.67 171.56, 83.57 123.36, 190.69 0.13 M0.17 225.4 C68.15 147.19, 136.13 68.98, 196.33 -0.26 M0.17 225.4 C56.97 160.06, 113.77 94.72, 196.33 -0.26 M-0.09 231.8 C66.21 155.52, 132.51 79.25, 201.32 0.1 M-0.09 231.8 C64.59 157.39, 129.27 82.98, 201.32 0.1 M0.3 237.44 C66.53 161.25, 132.75 85.07, 206.96 -0.3 M0.3 237.44 C46.42 184.39, 92.54 131.33, 206.96 -0.3 M0.04 243.84 C62.64 171.82, 125.24 99.81, 211.95 0.06 M0.04 243.84 C48.37 188.24, 96.69 132.65, 211.95 0.06 M-0.22 250.23 C67.34 172.51, 134.9 94.79, 217.59 -0.33 M-0.22 250.23 C66.75 173.19, 133.72 96.15, 217.59 -0.33 M0.17 255.88 C52.77 195.37, 105.36 134.87, 222.58 0.03 M0.17 255.88 C64.18 182.25, 128.19 108.61, 222.58 0.03 M-0.09 262.27 C90.3 158.3, 180.68 54.32, 228.22 -0.36 M-0.09 262.27 C60.61 192.45, 121.3 122.63, 228.22 -0.36 M0.3 267.92 C68.84 189.07, 137.38 110.23, 233.21 0 M0.3 267.92 C75.88 180.98, 151.45 94.04, 233.21 0 M0.04 274.32 C61.05 204.14, 122.05 133.96, 238.19 0.36 M0.04 274.32 C82.97 178.91, 165.91 83.51, 238.19 0.36 M-0.22 280.71 C87.42 179.9, 175.06 79.08, 243.84 -0.04 M-0.22 280.71 C82.48 185.58, 165.18 90.44, 243.84 -0.04 M0.18 286.36 C66.82 209.69, 133.47 133.02, 248.82 0.32 M0.18 286.36 C57.64 220.26, 115.1 154.15, 248.82 0.32 M-0.08 292.75 C94.02 184.5, 188.13 76.24, 254.47 -0.07 M-0.08 292.75 C52.91 231.8, 105.89 170.84, 254.47 -0.07 M0.31 298.4 C53.94 236.7, 107.57 175, 259.45 0.29 M0.31 298.4 C82.59 203.75, 164.86 109.1, 259.45 0.29 M0.05 304.8 C56.57 239.78, 113.09 174.76, 265.1 -0.11 M0.05 304.8 C102.42 187.03, 204.8 69.26, 265.1 -0.11 M-0.21 311.19 C93.54 203.34, 187.29 95.5, 270.08 0.25 M-0.21 311.19 C63.86 237.49, 127.93 163.78, 270.08 0.25 M0.18 316.84 C62.28 245.4, 124.38 173.96, 275.73 -0.14 M0.18 316.84 C56.26 252.33, 112.33 187.82, 275.73 -0.14 M-0.08 323.23 C101.02 206.94, 202.11 90.64, 280.71 0.22 M-0.08 323.23 C97.05 211.49, 194.19 99.75, 280.71 0.22 M0.31 328.88 C83.3 233.41, 166.29 137.94, 286.36 -0.18 M0.31 328.88 C105.26 208.15, 210.2 87.43, 286.36 -0.18 M0.05 335.27 C63.35 262.46, 126.65 189.64, 291.34 0.18 M0.05 335.27 C66.14 259.25, 132.23 183.23, 291.34 0.18 M-0.21 341.67 C100.84 225.43, 201.89 109.18, 296.99 -0.21 M-0.21 341.67 C77.04 252.81, 154.28 163.95, 296.99 -0.21 M0.19 347.32 C87.06 247.38, 173.93 147.45, 301.97 0.15 M0.19 347.32 C117.64 212.2, 235.09 77.09, 301.97 0.15 M3.21 349.94 C81.12 260.31, 159.04 170.67, 307.62 -0.25 M3.21 349.94 C77.08 264.96, 150.95 179.98, 307.62 -0.25 M8.19 350.3 C81.05 266.48, 153.92 182.66, 312.6 0.11 M8.19 350.3 C120.44 221.17, 232.69 92.04, 312.6 0.11 M13.18 350.66 C125.24 221.75, 237.31 92.83, 318.25 -0.28 M13.18 350.66 C120.51 227.2, 227.83 103.73, 318.25 -0.28 M18.82 350.27 C121.68 231.95, 224.53 113.63, 323.23 0.08 M18.82 350.27 C88.21 270.44, 157.61 190.61, 323.23 0.08 M23.81 350.63 C131.18 227.11, 238.55 103.59, 328.88 -0.31 M23.81 350.63 C84.98 280.25, 146.16 209.88, 328.88 -0.31 M29.45 350.23 C135.38 228.38, 241.3 106.53, 333.86 0.05 M29.45 350.23 C107.33 260.65, 185.2 171.07, 333.86 0.05 M34.44 350.59 C136.96 232.65, 239.48 114.72, 339.51 -0.35 M34.44 350.59 C119.43 252.82, 204.43 155.04, 339.51 -0.35 M40.08 350.2 C110.88 268.76, 181.67 187.31, 344.49 0.01 M40.08 350.2 C121.63 256.39, 203.17 162.58, 344.49 0.01 M45.07 350.56 C165.11 212.47, 285.14 74.38, 349.48 0.37 M45.07 350.56 C121.89 262.18, 198.72 173.8, 349.48 0.37 M50.71 350.16 C127.76 261.53, 204.8 172.9, 355.12 -0.02 M50.71 350.16 C143.94 242.92, 237.17 135.67, 355.12 -0.02 M55.7 350.52 C131.44 263.39, 207.18 176.27, 358.8 1.85 M55.7 350.52 C135.94 258.22, 216.17 165.92, 358.8 1.85 M61.34 350.13 C141.4 258.03, 221.46 165.94, 358.54 8.24 M61.34 350.13 C162.28 234.01, 263.21 117.9, 358.54 8.24 M66.33 350.49 C175.84 224.5, 285.36 98.52, 358.93 13.89 M66.33 350.49 C135.12 271.35, 203.92 192.21, 358.93 13.89 M71.97 350.09 C140.69 271.04, 209.42 191.98, 358.67 20.28 M71.97 350.09 C176.11 230.3, 280.25 110.5, 358.67 20.28 M76.96 350.45 C158.07 257.15, 239.18 163.84, 359.07 25.93 M76.96 350.45 C178.39 233.77, 279.83 117.08, 359.07 25.93 M82.6 350.06 C171.2 248.14, 259.8 146.22, 358.8 32.33 M82.6 350.06 C165.15 255.1, 247.7 160.14, 358.8 32.33 M87.59 350.42 C157.5 269.99, 227.42 189.57, 358.54 38.72 M87.59 350.42 C144.67 284.76, 201.75 219.09, 358.54 38.72 M93.23 350.02 C190.95 237.62, 288.66 125.21, 358.94 44.37 M93.23 350.02 C171.59 259.89, 249.94 169.75, 358.94 44.37 M98.22 350.38 C151.01 289.66, 203.8 228.93, 358.68 50.76 M98.22 350.38 C160.09 279.21, 221.96 208.03, 358.68 50.76 M103.86 349.99 C163.64 281.23, 223.41 212.46, 359.07 56.41 M103.86 349.99 C161.6 283.56, 219.35 217.14, 359.07 56.41 M108.85 350.35 C205.53 239.13, 302.21 127.91, 358.81 62.81 M108.85 350.35 C175.32 273.88, 241.8 197.41, 358.81 62.81 M114.49 349.95 C180.93 273.53, 247.36 197.11, 358.55 69.2 M114.49 349.95 C210.75 239.22, 307.02 128.48, 358.55 69.2 M119.48 350.31 C197.08 261.04, 274.69 171.77, 358.94 74.85 M119.48 350.31 C214.81 240.65, 310.14 130.99, 358.94 74.85 M125.12 349.92 C179.35 287.54, 233.57 225.16, 358.68 81.24 M125.12 349.92 C178.25 288.81, 231.37 227.69, 358.68 81.24 M130.11 350.28 C193.48 277.38, 256.84 204.49, 359.07 86.89 M130.11 350.28 C201.74 267.88, 273.37 185.47, 359.07 86.89 M135.1 350.64 C216.31 257.22, 297.52 163.79, 358.81 93.28 M135.1 350.64 C220.11 252.85, 305.11 155.06, 358.81 93.28 M140.74 350.25 C218.16 261.19, 295.57 172.13, 358.55 99.68 M140.74 350.25 C220.37 258.64, 300.01 167.03, 358.55 99.68 M145.73 350.61 C212.27 274.06, 278.81 197.51, 358.95 105.33 M145.73 350.61 C195.44 293.42, 245.15 236.23, 358.95 105.33 M151.37 350.21 C196.8 297.95, 242.24 245.68, 358.69 111.72 M151.37 350.21 C211.14 281.45, 270.92 212.69, 358.69 111.72 M156.36 350.57 C202 298.06, 247.65 245.55, 359.08 117.37 M156.36 350.57 C236.38 258.52, 316.4 166.47, 359.08 117.37 M162 350.18 C235.89 265.17, 309.78 180.17, 358.82 123.76 M162 350.18 C218.98 284.63, 275.96 219.08, 358.82 123.76 M166.99 350.54 C214.2 296.23, 261.41 241.92, 358.56 130.16 M166.99 350.54 C243.42 262.61, 319.86 174.68, 358.56 130.16 M172.63 350.14 C224.84 290.09, 277.04 230.03, 358.95 135.8 M172.63 350.14 C238.64 274.21, 304.64 198.28, 358.95 135.8 M177.62 350.5 C217.2 304.97, 256.78 259.44, 358.69 142.2 M177.62 350.5 C215.07 307.42, 252.52 264.34, 358.69 142.2 M183.26 350.11 C225.07 302.01, 266.88 253.91, 359.08 147.85 M183.26 350.11 C243.78 280.49, 304.3 210.87, 359.08 147.85 M188.25 350.47 C253.52 275.38, 318.8 200.28, 358.82 154.24 M188.25 350.47 C240.38 290.49, 292.52 230.52, 358.82 154.24 M193.89 350.07 C243.47 293.04, 293.05 236.01, 358.56 160.64 M193.89 350.07 C242.89 293.7, 291.9 237.33, 358.56 160.64 M198.88 350.43 C243.42 299.19, 287.96 247.95, 358.96 166.28 M198.88 350.43 C232.4 311.87, 265.93 273.3, 358.96 166.28 M204.52 350.04 C261.76 284.19, 319 218.35, 358.69 172.68 M204.52 350.04 C255.26 291.67, 306.01 233.29, 358.69 172.68 M209.51 350.4 C245.9 308.54, 282.29 266.68, 359.09 178.33 M209.51 350.4 C263.17 288.67, 316.83 226.93, 359.09 178.33 M215.15 350 C257.97 300.75, 300.79 251.49, 358.83 184.72 M215.15 350 C262.59 295.43, 310.03 240.86, 358.83 184.72 M220.14 350.36 C263.62 300.34, 307.11 250.32, 358.57 191.12 M220.14 350.36 C250.69 315.22, 281.25 280.07, 358.57 191.12 M225.78 349.97 C276.32 291.83, 326.87 233.69, 358.96 196.76 M225.78 349.97 C261.56 308.81, 297.34 267.65, 358.96 196.76 M230.77 350.33 C272.43 302.4, 314.1 254.47, 358.7 203.16 M230.77 350.33 C280.53 293.08, 330.3 235.83, 358.7 203.16 M236.41 349.94 C268.58 312.92, 300.76 275.91, 359.09 208.8 M236.41 349.94 C271.87 309.15, 307.33 268.36, 359.09 208.8 M241.4 350.3 C266.2 321.77, 291 293.24, 358.83 215.2 M241.4 350.3 C274.73 311.95, 308.07 273.6, 358.83 215.2 M246.39 350.66 C273.45 319.52, 300.51 288.39, 358.57 221.6 M246.39 350.66 C270.2 323.26, 294.01 295.87, 358.57 221.6 M252.03 350.26 C284.36 313.07, 316.69 275.87, 358.97 227.24 M252.03 350.26 C278.98 319.25, 305.94 288.24, 358.97 227.24 M257.02 350.62 C293.62 308.51, 330.22 266.41, 358.7 233.64 M257.02 350.62 C281.01 323.02, 305.01 295.41, 358.7 233.64 M262.66 350.23 C284.78 324.78, 306.9 299.34, 359.1 239.28 M262.66 350.23 C288.41 320.6, 314.16 290.98, 359.1 239.28 M267.65 350.59 C295.93 318.04, 324.22 285.5, 358.84 245.68 M267.65 350.59 C289.01 326.01, 310.38 301.43, 358.84 245.68 M273.29 350.19 C292.12 328.53, 310.95 306.87, 358.58 252.08 M273.29 350.19 C292.78 327.76, 312.28 305.34, 358.58 252.08 M278.28 350.55 C305.09 319.7, 331.91 288.85, 358.97 257.72 M278.28 350.55 C299.09 326.61, 319.91 302.66, 358.97 257.72 M283.92 350.16 C299.15 332.64, 314.38 315.12, 358.71 264.12 M283.92 350.16 C303.61 327.5, 323.31 304.85, 358.71 264.12 M288.91 350.52 C311.02 325.07, 333.14 299.63, 359.1 269.76 M288.91 350.52 C305.35 331.6, 321.79 312.69, 359.1 269.76 M294.55 350.12 C314.05 327.68, 333.56 305.25, 358.84 276.16 M294.55 350.12 C308.97 333.54, 323.38 316.95, 358.84 276.16 M299.54 350.48 C316.99 330.4, 334.45 310.32, 358.58 282.56 M299.54 350.48 C315.29 332.35, 331.05 314.23, 358.58 282.56 M305.18 350.09 C323.68 328.8, 342.18 307.52, 358.98 288.2 M305.18 350.09 C326.21 325.89, 347.25 301.7, 358.98 288.2 M310.17 350.45 C327.62 330.37, 345.08 310.28, 358.71 294.6 M310.17 350.45 C326.5 331.66, 342.83 312.87, 358.71 294.6 M315.81 350.05 C330.86 332.74, 345.91 315.42, 359.11 300.24 M315.81 350.05 C331.82 331.64, 347.82 313.22, 359.11 300.24 M320.8 350.41 C333.77 335.49, 346.75 320.56, 358.85 306.64 M320.8 350.41 C336 332.92, 351.21 315.42, 358.85 306.64 M326.44 350.02 C334 341.32, 341.56 332.62, 358.59 313.04 M326.44 350.02 C339.08 335.48, 351.72 320.94, 358.59 313.04 M331.43 350.38 C340.31 340.16, 349.2 329.94, 358.98 318.68 M331.43 350.38 C339.42 341.18, 347.42 331.98, 358.98 318.68 M337.07 349.99 C344.13 341.87, 351.19 333.75, 358.72 325.08 M337.07 349.99 C341.85 344.49, 346.62 339, 358.72 325.08 M342.06 350.35 C347.77 343.78, 353.48 337.21, 359.11 330.72 M342.06 350.35 C345.78 346.06, 349.5 341.78, 359.11 330.72 M347.7 349.95 C350.35 346.9, 353 343.85, 358.85 337.12 M347.7 349.95 C350.35 346.9, 353.01 343.84, 358.85 337.12 M352.69 350.31 C354.21 348.56, 355.73 346.81, 358.59 343.52 M352.69 350.31 C354.28 348.47, 355.88 346.64, 358.59 343.52" stroke="#fff" stroke-width="0.5" fill="none"></path><path d="M0 0 C97.64 0, 195.29 0, 356.67 0 M0 0 C131.28 0, 262.56 0, 356.67 0 M356.67 0 C356.67 112.6, 356.67 225.19, 356.67 347.78 M356.67 0 C356.67 137.56, 356.67 275.12, 356.67 347.78 M356.67 347.78 C264.89 347.78, 173.11 347.78, 0 347.78 M356.67 347.78 C231.38 347.78, 106.1 347.78, 0 347.78 M0 347.78 C0 236.8, 0 125.82, 0 0 M0 347.78 C0 272.91, 0 198.04, 0 0" stroke="#000000" stroke-width="1" fill="none"></path></g><g transform="translate(57.03270777823491 15.72552117460873) rotate(0 137.5 11)"><text x="137.5" y="16" font-family="Virgil, Segoe UI Emoji" font-size="17.678798363929268px" fill="#000000" text-anchor="middle" style="white-space: pre;" direction="ltr">Let's practice what we learned</text></g><g transform="translate(90.59411535901927 73.33584403168788) rotate(0 14.5 18.5)"><text x="14.5" y="26" font-family="Virgil, Segoe UI Emoji" font-size="27.239762092714148px" fill="#000000" text-anchor="middle" style="white-space: pre;" direction="rtl">بڑا</text></g><g transform="translate(182.68900440386597 78.56192679444212) rotate(0 30.5 15.5)"><text x="30.5" y="22" font-family="Virgil, Segoe UI Emoji" font-size="22.797265116387106px" fill="#000" text-anchor="middle" style="white-space: pre;" direction="rtl">ب+ڑ+ا</text></g><g transform="translate(85.58533692395667 123.14394615546144) rotate(0 21.5 19.5)"><text x="21.5" y="28" font-family="Virgil, Segoe UI Emoji" font-size="28.32070503290123px" fill="#000000" text-anchor="middle" style="white-space: pre;" direction="rtl">تڑکا</text></g><g transform="translate(167.86557903557332 127.65567188006617) rotate(0 47.5 16)"><text x="47.5" y="23" font-family="Virgil, Segoe UI Emoji" font-size="23.701918494021527px" fill="#000000" text-anchor="middle" style="white-space: pre;" direction="rtl">ت+ڑ+ک+ا</text></g><g transform="translate(87.5899439404584 173.77046201665917) rotate(0 20 19.5)"><text x="20" y="28" font-family="Virgil, Segoe UI Emoji" font-size="28.33367970847109px" fill="#000000" text-anchor="middle" style="white-space: pre;" direction="rtl">بوٹ</text></g><g transform="translate(181.47304728045174 175.40402474778148) rotate(0 35.5 16)"><text x="35.5" y="23" font-family="Virgil, Segoe UI Emoji" font-size="23.71277714681587px" fill="#000000" text-anchor="middle" style="white-space: pre;" direction="rtl">ب+و+ٹ</text></g><g transform="translate(87.61466082137576 307.0426125489148) rotate(0 16 18.5)"><text x="16" y="26" font-family="Virgil, Segoe UI Emoji" font-size="27.239762092714148px" fill="#000000" text-anchor="middle" style="white-space: pre;" direction="rtl">دنڈ</text></g><g transform="translate(182.42812088151277 308.9159338492559) rotate(0 31.5 16)"><text x="31.5" y="23" font-family="Virgil, Segoe UI Emoji" font-size="23.321178481238984px" fill="#000000" text-anchor="middle" style="white-space: pre;" direction="rtl">د+ن+ڈ</text></g><g transform="translate(83.67556942051397 262.04653860622466) rotate(0 18.5 18.5)"><text x="18.5" y="26" font-family="Virgil, Segoe UI Emoji" font-size="27.239762092714148px" fill="#000000" text-anchor="middle" style="white-space: pre;" direction="rtl">بینڈ</text></g><g transform="translate(189.48692847903158 266.51271253176765) rotate(0 47.5 15.5)"><text x="47.5" y="22" font-family="Virgil, Segoe UI Emoji" font-size="22.79726511638711px" fill="#000000" text-anchor="middle" style="white-space: pre;" direction="rtl">ب+ی+ن+ڈ</text></g><g transform="translate(84.03621942532345 224.73584137174976) rotate(0 28 16)"><text x="28" y="23" font-family="Virgil, Segoe UI Emoji" font-size="23.456461802059447px" fill="#000000" text-anchor="middle" style="white-space: pre;" direction="rtl">اخروٹ</text></g><g transform="translate(173.3711539193373 221.8395436833357) rotate(0 56 15.5)"><text x="56" y="22" font-family="Virgil, Segoe UI Emoji" font-size="22.79726511638711px" fill="#000000" text-anchor="middle" style="white-space: pre;" direction="rtl">ا+خ+ر+و+ٹ</text></g><g transform="translate(171.32142857143026 39.52688440443853) rotate(0 27 10)"><text x="27" y="14" font-family="Virgil, Segoe UI Emoji" font-size="16px" fill="#e67700" text-anchor="middle" style="white-space: pre;" direction="ltr">Answer</text></g><g transform="translate(286.5 73.05030533009085) rotate(0 17 10)"><text x="17" y="14" font-family="Virgil, Segoe UI Emoji" font-size="16px" fill="#d9480f" text-anchor="middle" style="white-space: pre;" direction="ltr">(big)</text></g><g transform="translate(280.25 131.55030533009085) rotate(0 43 10)"><text x="43" y="14" font-family="Virgil, Segoe UI Emoji" font-size="16px" fill="#d9480f" text-anchor="middle" style="white-space: pre;" direction="ltr">(seasoning)</text></g><g transform="translate(282.75 182.55030533009085) rotate(0 24.5 10)"><text x="24.5" y="14" font-family="Virgil, Segoe UI Emoji" font-size="16px" fill="#d9480f" text-anchor="middle" style="white-space: pre;" direction="ltr">(boot)</text></g><g transform="translate(296.75 226.80030533009085) rotate(0 32 10)"><text x="32" y="14" font-family="Virgil, Segoe UI Emoji" font-size="16px" fill="#d9480f" text-anchor="middle" style="white-space: pre;" direction="ltr">(walnut)</text></g><g transform="translate(314.25 272.80030533009085) rotate(0 24.5 10)"><text x="24.5" y="14" font-family="Virgil, Segoe UI Emoji" font-size="16px" fill="#d9480f" text-anchor="middle" style="white-space: pre;" direction="ltr">(band)</text></g><g transform="translate(269 313.05030533009085) rotate(0 47 10)"><text x="47" y="14" font-family="Virgil, Segoe UI Emoji" font-size="16px" fill="#d9480f" text-anchor="middle" style="white-space: pre;" direction="ltr">(punishment)</text></g><g transform="translate(27 76.80030533009085) rotate(0 26.5 10)"><text x="26.5" y="14" font-family="Virgil, Segoe UI Emoji" font-size="16px" fill="#e67700" text-anchor="middle" style="white-space: pre;" direction="ltr">(bada)</text></g><g transform="translate(28.75 125.55030533009085) rotate(0 24.5 10)"><text x="24.5" y="14" font-family="Virgil, Segoe UI Emoji" font-size="16px" fill="#e67700" text-anchor="middle" style="white-space: pre;" direction="ltr">tadka</text></g><g transform="translate(33 179.05030533009085) rotate(0 24.5 10)"><text x="24.5" y="14" font-family="Virgil, Segoe UI Emoji" font-size="16px" fill="#e67700" text-anchor="middle" style="white-space: pre;" direction="ltr">(boot)</text></g><g transform="translate(20.318181818181984 233.05030533009085) rotate(0 29.5 9.5)"><text x="29.5" y="13" font-family="Virgil, Segoe UI Emoji" font-size="14.43356643356643px" fill="#e67700" text-anchor="middle" style="white-space: pre;" direction="ltr">(akhrot)</text></g><g transform="translate(32.25 266.80030533009085) rotate(0 24.5 10)"><text x="24.5" y="14" font-family="Virgil, Segoe UI Emoji" font-size="16px" fill="#e67700" text-anchor="middle" style="white-space: pre;" direction="ltr">(band)</text></g><g transform="translate(30 314.30030533009085) rotate(0 24.5 10)"><text x="24.5" y="14" font-family="Virgil, Segoe UI Emoji" font-size="16px" fill="#e67700" text-anchor="middle" style="white-space: pre;" direction="ltr">(dund)</text></g><g stroke-linecap="round"><g transform="translate(10 69.30030533009085) rotate(0 180 0)"><path d="M0 0 C30 0, 120 0, 180 0 C240 0, 330 0, 360 0" stroke="#495057" stroke-width="1.5" fill="none" stroke-dasharray="1.5 7"></path></g></g><g stroke-linecap="round"><g transform="translate(11.863900982844825 112.07979487194007) rotate(0 178.18181818181824 0)"><path d="M0 0 C59.39 0, 296.97 0, 356.36 0" stroke="#000000" stroke-width="1.5" fill="none" stroke-dasharray="1.5 7"></path></g></g><g stroke-linecap="round"><g transform="translate(11.772991891936272 164.26161305375763) rotate(0 177.27272727272725 0.9090909090912191)"><path d="M0 0 C59.09 0.3, 295.45 1.52, 354.55 1.82" stroke="#000000" stroke-width="1.5" fill="none" stroke-dasharray="1.5 7"></path></g></g><g stroke-linecap="round"><g transform="translate(10.863900982845735 212.9888857810306) rotate(0 177.72727272727252 -0.4545454545452685)"><path d="M0 0 C59.24 -0.15, 296.21 -0.76, 355.45 -0.91" stroke="#000000" stroke-width="1.5" fill="none" stroke-dasharray="1.5 7"></path></g></g><g stroke-linecap="round"><g transform="translate(12.682082801027263 259.07979487194007) rotate(0 176.81818181818176 0)"><path d="M0 0 C58.94 0, 294.7 0, 353.64 0" stroke="#000000" stroke-width="1.5" fill="none" stroke-dasharray="1.5 7"></path></g></g><g stroke-linecap="round"><g transform="translate(12.448016559535972 299.2747215345644) rotate(0 178.63636363636363 0.9090909090909918)"><path d="M0 0 C59.55 0.3, 297.73 1.52, 357.27 1.82" stroke="#000000" stroke-width="1.5" fill="none" stroke-dasharray="1.5 7"></path></g></g><g transform="translate(67.08438019589994 337.3201760800184) rotate(0 109 8.5)"><text x="109" y="12" font-family="Virgil, Segoe UI Emoji" font-size="12.181818181818201px" fill="#e67700" text-anchor="middle" style="white-space: pre;" direction="ltr">Remember: ی and و have two sounds</text></g></svg>