<svg version="1.1" xmlns="http://www.w3.org/2000/svg" viewBox="0 0 376.6666666666665 367.7777777777776" width="376.6666666666665" height="367.7777777777776" >
  <!-- svg-source:excalidraw -->
  
  <defs>
    <style>
      @font-face {
        font-family: "Virgil";
        src: url("../Virgil.woff2");;
      }
    </style>
  </defs>
  <rect x="0" y="0" width="376.6666666666665" height="367.7777777777776" fill="#ffffff"></rect><g stroke-linecap="round" transform="translate(10 10) rotate(0 178.33333333333326 173.8888888888888)"><path d="M0 0 C0 0, 0 0, 0 0 M0 0 C0 0, 0 0, 0 0 M-0.26 6.4 C1.82 4, 3.9 1.61, 4.99 0.36 M-0.26 6.4 C1.43 4.45, 3.13 2.5, 4.99 0.36 M0.13 12.04 C3.72 7.91, 7.31 3.78, 10.63 -0.03 M0.13 12.04 C3.85 7.77, 7.57 3.49, 10.63 -0.03 M-0.13 18.44 C5.53 11.93, 11.19 5.42, 15.62 0.33 M-0.13 18.44 C6.12 11.25, 12.37 4.06, 15.62 0.33 M0.27 24.08 C8.38 14.75, 16.49 5.42, 21.26 -0.07 M0.27 24.08 C5.43 18.15, 10.59 12.21, 21.26 -0.07 M0 30.48 C6.26 23.28, 12.51 16.09, 26.25 0.29 M0 30.48 C7.47 21.89, 14.94 13.3, 26.25 0.29 M-0.26 36.88 C11.7 23.12, 23.66 9.36, 31.89 -0.1 M-0.26 36.88 C10.2 24.85, 20.65 12.83, 31.89 -0.1 M0.14 42.52 C9.24 32.05, 18.35 21.57, 36.88 0.26 M0.14 42.52 C9.13 32.18, 18.12 21.84, 36.88 0.26 M-0.12 48.92 C12.32 34.6, 24.76 20.29, 42.52 -0.14 M-0.12 48.92 C9.38 37.98, 18.89 27.05, 42.52 -0.14 M0.27 54.56 C12.49 40.5, 24.71 26.44, 47.51 0.22 M0.27 54.56 C18.22 33.91, 36.17 13.26, 47.51 0.22 M0.01 60.96 C20.97 36.85, 41.93 12.74, 53.15 -0.17 M0.01 60.96 C11.36 47.9, 22.71 34.84, 53.15 -0.17 M-0.25 67.36 C23 40.61, 46.24 13.87, 58.14 0.19 M-0.25 67.36 C13.58 51.45, 27.41 35.53, 58.14 0.19 M0.14 73 C24.65 44.8, 49.17 16.6, 63.78 -0.21 M0.14 73 C13.86 57.22, 27.57 41.45, 63.78 -0.21 M-0.12 79.4 C17.06 59.64, 34.23 39.88, 68.77 0.15 M-0.12 79.4 C14.04 63.11, 28.19 46.83, 68.77 0.15 M0.28 85.04 C16.99 65.81, 33.71 46.58, 74.41 -0.24 M0.28 85.04 C29.23 51.73, 58.19 18.42, 74.41 -0.24 M0.01 91.44 C20.01 68.44, 40.01 45.43, 79.4 0.12 M0.01 91.44 C25.4 62.24, 50.78 33.04, 79.4 0.12 M-0.25 97.84 C28.15 65.17, 56.55 32.5, 85.04 -0.28 M-0.25 97.84 C29.15 64.02, 58.54 30.21, 85.04 -0.28 M0.15 103.48 C27.26 72.3, 54.36 41.11, 90.03 0.08 M0.15 103.48 C23.26 76.89, 46.38 50.29, 90.03 0.08 M-0.11 109.88 C36.44 67.83, 73 25.78, 95.67 -0.31 M-0.11 109.88 C31.22 73.83, 62.55 37.79, 95.67 -0.31 M0.28 115.52 C35.46 75.05, 70.64 34.58, 100.66 0.05 M0.28 115.52 C34.34 76.34, 68.39 37.16, 100.66 0.05 M0.02 121.92 C32.07 85.04, 64.13 48.17, 106.3 -0.34 M0.02 121.92 C24.61 93.63, 49.19 65.35, 106.3 -0.34 M-0.24 128.32 C22.83 101.77, 45.9 75.23, 111.29 0.02 M-0.24 128.32 C36.69 85.83, 73.62 43.34, 111.29 0.02 M0.15 133.96 C32.59 96.65, 65.02 59.34, 116.27 0.38 M0.15 133.96 C45.94 81.29, 91.73 28.61, 116.27 0.38 M-0.11 140.36 C40.81 93.29, 81.73 46.22, 121.92 -0.02 M-0.11 140.36 C29.38 106.44, 58.87 72.51, 121.92 -0.02 M0.29 146 C45.54 93.94, 90.8 41.88, 126.91 0.34 M0.29 146 C50.52 88.21, 100.76 30.42, 126.91 0.34 M0.02 152.4 C34.03 113.28, 68.04 74.16, 132.55 -0.05 M0.02 152.4 C42.89 103.09, 85.75 53.78, 132.55 -0.05 M-0.24 158.8 C32.12 121.57, 64.48 84.34, 137.54 0.31 M-0.24 158.8 C36.03 117.08, 72.3 75.36, 137.54 0.31 M0.16 164.44 C49.9 107.22, 99.64 50, 143.18 -0.09 M0.16 164.44 C39.19 119.54, 78.22 74.64, 143.18 -0.09 M-0.1 170.84 C39.46 125.32, 79.03 79.8, 148.17 0.27 M-0.1 170.84 C38.74 126.15, 77.58 81.47, 148.17 0.27 M0.29 176.48 C37.47 133.71, 74.65 90.94, 153.81 -0.12 M0.29 176.48 C35.63 135.83, 70.97 95.18, 153.81 -0.12 M0.03 182.88 C42.07 134.52, 84.11 86.16, 158.8 0.24 M0.03 182.88 C48.45 127.17, 96.88 71.46, 158.8 0.24 M-0.23 189.27 C37.53 145.84, 75.29 102.4, 164.44 -0.16 M-0.23 189.27 C62.21 117.45, 124.64 45.62, 164.44 -0.16 M0.16 194.92 C50.32 137.22, 100.48 79.52, 169.43 0.2 M0.16 194.92 C59.08 127.14, 118 59.36, 169.43 0.2 M-0.1 201.32 C44.57 149.93, 89.23 98.55, 175.07 -0.19 M-0.1 201.32 C60.77 131.3, 121.63 61.28, 175.07 -0.19 M0.3 206.96 C51.6 147.94, 102.91 88.91, 180.06 0.17 M0.3 206.96 C70.53 126.16, 140.77 45.36, 180.06 0.17 M0.03 213.36 C59.68 144.74, 119.33 76.12, 185.7 -0.23 M0.03 213.36 C38.38 169.25, 76.72 125.14, 185.7 -0.23 M-0.23 219.75 C40.29 173.14, 80.81 126.53, 190.69 0.13 M-0.23 219.75 C52.5 159.1, 105.23 98.44, 190.69 0.13 M0.17 225.4 C56.36 160.75, 112.56 96.11, 196.33 -0.26 M0.17 225.4 C53.4 164.15, 106.64 102.91, 196.33 -0.26 M-0.09 231.8 C62.99 159.23, 126.06 86.67, 201.32 0.1 M-0.09 231.8 C58.61 164.26, 117.32 96.72, 201.32 0.1 M0.3 237.44 C55.09 174.41, 109.88 111.39, 206.96 -0.3 M0.3 237.44 C62.51 165.87, 124.72 94.31, 206.96 -0.3 M0.04 243.84 C59.58 175.34, 119.12 106.85, 211.95 0.06 M0.04 243.84 C77.89 154.28, 155.74 64.73, 211.95 0.06 M-0.22 250.23 C49.44 193.1, 99.1 135.97, 217.59 -0.33 M-0.22 250.23 C64.7 175.55, 129.61 100.87, 217.59 -0.33 M0.17 255.88 C59 188.21, 117.82 120.53, 222.58 0.03 M0.17 255.88 C62.08 184.66, 123.99 113.44, 222.58 0.03 M-0.09 262.27 C46.08 209.16, 92.25 156.05, 228.22 -0.36 M-0.09 262.27 C70.42 181.16, 140.93 100.05, 228.22 -0.36 M0.3 267.92 C62.94 195.86, 125.58 123.8, 233.21 0 M0.3 267.92 C56.83 202.89, 113.37 137.86, 233.21 0 M0.04 274.32 C64.59 200.07, 129.13 125.81, 238.19 0.36 M0.04 274.32 C53.27 213.08, 106.51 151.84, 238.19 0.36 M-0.22 280.71 C86.61 180.83, 173.43 80.95, 243.84 -0.04 M-0.22 280.71 C78.48 190.18, 157.18 99.65, 243.84 -0.04 M0.18 286.36 C93.17 179.38, 186.16 72.41, 248.82 0.32 M0.18 286.36 C93.67 178.81, 187.16 71.26, 248.82 0.32 M-0.08 292.75 C61.67 221.72, 123.42 150.68, 254.47 -0.07 M-0.08 292.75 C56.77 227.35, 113.62 161.95, 254.47 -0.07 M0.31 298.4 C79.85 206.9, 159.38 115.41, 259.45 0.29 M0.31 298.4 C89.43 195.87, 178.55 93.35, 259.45 0.29 M0.05 304.8 C80.46 212.3, 160.86 119.8, 265.1 -0.11 M0.05 304.8 C78.2 214.89, 156.36 124.98, 265.1 -0.11 M-0.21 311.19 C86.78 211.12, 173.78 111.04, 270.08 0.25 M-0.21 311.19 C94.02 202.79, 188.26 94.39, 270.08 0.25 M0.18 316.84 C101.66 200.1, 203.14 83.36, 275.73 -0.14 M0.18 316.84 C91.2 212.13, 182.22 107.43, 275.73 -0.14 M-0.08 323.23 C91.77 217.58, 183.61 111.92, 280.71 0.22 M-0.08 323.23 C71.61 240.77, 143.3 158.3, 280.71 0.22 M0.31 328.88 C92.92 222.35, 185.52 115.82, 286.36 -0.18 M0.31 328.88 C105.2 208.21, 210.09 87.55, 286.36 -0.18 M0.05 335.27 C83.71 239.04, 167.37 142.8, 291.34 0.18 M0.05 335.27 C108.65 210.35, 217.25 85.42, 291.34 0.18 M-0.21 341.67 C92.65 234.86, 185.5 128.04, 296.99 -0.21 M-0.21 341.67 C84.42 244.32, 169.05 146.97, 296.99 -0.21 M0.19 347.32 C67.47 269.91, 134.76 192.51, 301.97 0.15 M0.19 347.32 C76.78 259.2, 153.38 171.09, 301.97 0.15 M3.21 349.94 C104.66 233.23, 206.11 116.52, 307.62 -0.25 M3.21 349.94 C66.83 276.74, 130.46 203.55, 307.62 -0.25 M8.19 350.3 C72.55 276.26, 136.92 202.22, 312.6 0.11 M8.19 350.3 C97.89 247.11, 187.59 143.93, 312.6 0.11 M13.18 350.66 C86.84 265.92, 160.5 181.19, 318.25 -0.28 M13.18 350.66 C107.06 242.66, 200.94 134.66, 318.25 -0.28 M18.82 350.27 C136.3 215.12, 253.78 79.98, 323.23 0.08 M18.82 350.27 C120.95 232.78, 223.09 115.29, 323.23 0.08 M23.81 350.63 C130.09 228.36, 236.38 106.1, 328.88 -0.31 M23.81 350.63 C143.68 212.73, 263.55 74.83, 328.88 -0.31 M29.45 350.23 C131.72 232.58, 234 114.93, 333.86 0.05 M29.45 350.23 C108.67 259.1, 187.89 167.97, 333.86 0.05 M34.44 350.59 C102.09 272.77, 169.74 194.94, 339.51 -0.35 M34.44 350.59 C132.17 238.16, 229.91 125.73, 339.51 -0.35 M40.08 350.2 C133.65 242.56, 227.22 134.92, 344.49 0.01 M40.08 350.2 C160.78 211.35, 281.48 72.5, 344.49 0.01 M45.07 350.56 C131.97 250.59, 218.88 150.61, 349.48 0.37 M45.07 350.56 C163.65 214.14, 282.23 77.73, 349.48 0.37 M50.71 350.16 C112.27 279.35, 173.82 208.54, 355.12 -0.02 M50.71 350.16 C146.8 239.62, 242.89 129.08, 355.12 -0.02 M55.7 350.52 C122.3 273.9, 188.9 197.29, 358.8 1.85 M55.7 350.52 C159.88 230.67, 264.07 110.82, 358.8 1.85 M61.34 350.13 C173.91 220.64, 286.47 91.15, 358.54 8.24 M61.34 350.13 C130.55 270.51, 199.76 190.9, 358.54 8.24 M66.33 350.49 C171.95 228.99, 277.56 107.49, 358.93 13.89 M66.33 350.49 C174.57 225.97, 282.82 101.45, 358.93 13.89 M71.97 350.09 C144.1 267.13, 216.22 184.16, 358.67 20.28 M71.97 350.09 C131.32 281.82, 190.67 213.55, 358.67 20.28 M76.96 350.45 C162.1 252.51, 247.24 154.56, 359.07 25.93 M76.96 350.45 C161.29 253.45, 245.61 156.44, 359.07 25.93 M82.6 350.06 C163.1 257.46, 243.59 164.86, 358.8 32.33 M82.6 350.06 C176.71 241.8, 270.82 133.54, 358.8 32.33 M87.59 350.42 C166.5 259.65, 245.4 168.87, 358.54 38.72 M87.59 350.42 C143.19 286.46, 198.79 222.5, 358.54 38.72 M93.23 350.02 C153.13 281.12, 213.03 212.21, 358.94 44.37 M93.23 350.02 C194.3 233.76, 295.37 117.49, 358.94 44.37 M98.22 350.38 C159.26 280.16, 220.31 209.94, 358.68 50.76 M98.22 350.38 C152.14 288.35, 206.07 226.32, 358.68 50.76 M103.86 349.99 C164.31 280.46, 224.75 210.92, 359.07 56.41 M103.86 349.99 C184.54 257.18, 265.23 164.36, 359.07 56.41 M108.85 350.35 C182.01 266.19, 255.17 182.03, 358.81 62.81 M108.85 350.35 C175.45 273.74, 242.05 197.12, 358.81 62.81 M114.49 349.95 C203.63 247.42, 292.76 144.88, 358.55 69.2 M114.49 349.95 C207.69 242.74, 300.89 135.53, 358.55 69.2 M119.48 350.31 C187.45 272.13, 255.42 193.94, 358.94 74.85 M119.48 350.31 C212.67 243.11, 305.86 135.91, 358.94 74.85 M125.12 349.92 C196.68 267.6, 268.24 185.29, 358.68 81.24 M125.12 349.92 C184.73 281.35, 244.35 212.77, 358.68 81.24 M130.11 350.28 C194.62 276.07, 259.13 201.86, 359.07 86.89 M130.11 350.28 C181.57 291.09, 233.02 231.89, 359.07 86.89 M135.1 350.64 C182.6 295.99, 230.11 241.34, 358.81 93.28 M135.1 350.64 C192.72 284.35, 250.35 218.06, 358.81 93.28 M140.74 350.25 C187.92 295.97, 235.1 241.7, 358.55 99.68 M140.74 350.25 C198.77 283.49, 256.8 216.74, 358.55 99.68 M145.73 350.61 C207.87 279.12, 270.01 207.63, 358.95 105.33 M145.73 350.61 C221.22 263.76, 296.72 176.91, 358.95 105.33 M151.37 350.21 C208.35 284.67, 265.32 219.12, 358.69 111.72 M151.37 350.21 C203.45 290.3, 255.52 230.4, 358.69 111.72 M156.36 350.57 C198.57 302.01, 240.78 253.46, 359.08 117.37 M156.36 350.57 C228.04 268.11, 299.72 185.65, 359.08 117.37 M162 350.18 C220.87 282.46, 279.73 214.74, 358.82 123.76 M162 350.18 C232.83 268.7, 303.65 187.22, 358.82 123.76 M166.99 350.54 C221.29 288.07, 275.59 225.6, 358.56 130.16 M166.99 350.54 C226.14 282.49, 285.29 214.44, 358.56 130.16 M172.63 350.14 C244.98 266.91, 317.34 183.68, 358.95 135.8 M172.63 350.14 C213.05 303.65, 253.46 257.16, 358.95 135.8 M177.62 350.5 C230.89 289.22, 284.17 227.93, 358.69 142.2 M177.62 350.5 C234.84 284.68, 292.06 218.85, 358.69 142.2 M183.26 350.11 C235.6 289.9, 287.94 229.68, 359.08 147.85 M183.26 350.11 C234.36 291.33, 285.45 232.55, 359.08 147.85 M188.25 350.47 C234.95 296.74, 281.66 243.01, 358.82 154.24 M188.25 350.47 C242.05 288.57, 295.86 226.68, 358.82 154.24 M193.89 350.07 C233.19 304.87, 272.48 259.66, 358.56 160.64 M193.89 350.07 C242.13 294.58, 290.38 239.08, 358.56 160.64 M198.88 350.43 C248.79 293.02, 298.69 235.61, 358.96 166.28 M198.88 350.43 C245.45 296.86, 292.02 243.29, 358.96 166.28 M204.52 350.04 C247.51 300.59, 290.5 251.14, 358.69 172.68 M204.52 350.04 C263.07 282.69, 321.62 215.34, 358.69 172.68 M209.51 350.4 C262.45 289.5, 315.39 228.6, 359.09 178.33 M209.51 350.4 C249.91 303.92, 290.32 257.44, 359.09 178.33 M215.15 350 C264.31 293.45, 313.48 236.89, 358.83 184.72 M215.15 350 C265.5 292.08, 315.86 234.15, 358.83 184.72 M220.14 350.36 C248.14 318.15, 276.14 285.94, 358.57 191.12 M220.14 350.36 C265.05 298.7, 309.96 247.04, 358.57 191.12 M225.78 349.97 C253.6 317.97, 281.42 285.96, 358.96 196.76 M225.78 349.97 C258.86 311.92, 291.94 273.87, 358.96 196.76 M230.77 350.33 C271.09 303.95, 311.41 257.56, 358.7 203.16 M230.77 350.33 C277.97 296.03, 325.17 241.74, 358.7 203.16 M236.41 349.94 C275.1 305.43, 313.79 260.92, 359.09 208.8 M236.41 349.94 C280.64 299.06, 324.86 248.18, 359.09 208.8 M241.4 350.3 C265.72 322.31, 290.05 294.33, 358.83 215.2 M241.4 350.3 C283.98 301.31, 326.56 252.33, 358.83 215.2 M246.39 350.66 C286.13 304.93, 325.88 259.21, 358.57 221.6 M246.39 350.66 C270.79 322.58, 295.2 294.5, 358.57 221.6 M252.03 350.26 C278.66 319.63, 305.28 289, 358.97 227.24 M252.03 350.26 C284.96 312.37, 317.9 274.48, 358.97 227.24 M257.02 350.62 C284.94 318.5, 312.86 286.38, 358.7 233.64 M257.02 350.62 C297.1 304.51, 337.18 258.41, 358.7 233.64 M262.66 350.23 C288.48 320.52, 314.31 290.81, 359.1 239.28 M262.66 350.23 C286.92 322.32, 311.18 294.41, 359.1 239.28 M267.65 350.59 C293.31 321.06, 318.97 291.54, 358.84 245.68 M267.65 350.59 C295.77 318.23, 323.9 285.87, 358.84 245.68 M273.29 350.19 C302.87 316.17, 332.44 282.14, 358.58 252.08 M273.29 350.19 C297.46 322.39, 321.63 294.59, 358.58 252.08 M278.28 350.55 C297.34 328.62, 316.4 306.69, 358.97 257.72 M278.28 350.55 C296.23 329.9, 314.19 309.24, 358.97 257.72 M283.92 350.16 C300.79 330.75, 317.66 311.34, 358.71 264.12 M283.92 350.16 C309.15 321.13, 334.38 292.11, 358.71 264.12 M288.91 350.52 C306.93 329.79, 324.95 309.05, 359.1 269.76 M288.91 350.52 C305.9 330.97, 322.9 311.42, 359.1 269.76 M294.55 350.12 C313.84 327.94, 333.12 305.75, 358.84 276.16 M294.55 350.12 C319.7 321.19, 344.85 292.26, 358.84 276.16 M299.54 350.48 C318.24 328.97, 336.94 307.45, 358.58 282.56 M299.54 350.48 C318.24 328.97, 336.94 307.46, 358.58 282.56 M305.18 350.09 C317.12 336.35, 329.06 322.61, 358.98 288.2 M305.18 350.09 C319.5 333.62, 333.81 317.15, 358.98 288.2 M310.17 350.45 C322.14 336.68, 334.11 322.91, 358.71 294.6 M310.17 350.45 C321.8 337.07, 333.43 323.68, 358.71 294.6 M315.81 350.05 C328.8 335.11, 341.78 320.17, 359.11 300.24 M315.81 350.05 C325.66 338.72, 335.51 327.39, 359.11 300.24 M320.8 350.41 C333.45 335.86, 346.1 321.3, 358.85 306.64 M320.8 350.41 C330.23 339.57, 339.65 328.72, 358.85 306.64 M326.44 350.02 C336.03 338.99, 345.62 327.95, 358.59 313.04 M326.44 350.02 C338.78 335.82, 351.13 321.62, 358.59 313.04 M331.43 350.38 C340.17 340.32, 348.92 330.26, 358.98 318.68 M331.43 350.38 C337.54 343.34, 343.66 336.3, 358.98 318.68 M337.07 349.99 C342.22 344.06, 347.38 338.13, 358.72 325.08 M337.07 349.99 C343.31 342.8, 349.56 335.62, 358.72 325.08 M342.06 350.35 C345.47 346.42, 348.88 342.5, 359.11 330.72 M342.06 350.35 C346.95 344.72, 351.84 339.09, 359.11 330.72 M347.7 349.95 C352.12 344.87, 356.54 339.79, 358.85 337.12 M347.7 349.95 C351.46 345.63, 355.22 341.3, 358.85 337.12 M352.69 350.31 C354.08 348.71, 355.47 347.11, 358.59 343.52 M352.69 350.31 C353.93 348.88, 355.17 347.45, 358.59 343.52" stroke="#fff" stroke-width="0.5" fill="none"></path><path d="M0 0 C133.36 0, 266.72 0, 356.67 0 M0 0 C126.02 0, 252.04 0, 356.67 0 M356.67 0 C356.67 84.36, 356.67 168.72, 356.67 347.78 M356.67 0 C356.67 138.93, 356.67 277.86, 356.67 347.78 M356.67 347.78 C218.34 347.78, 80.02 347.78, 0 347.78 M356.67 347.78 C274.92 347.78, 193.17 347.78, 0 347.78 M0 347.78 C0 211.52, 0 75.27, 0 0 M0 347.78 C0 261.63, 0 175.49, 0 0" stroke="#000000" stroke-width="1" fill="none"></path></g><g transform="translate(142.52080301633214 27.154092603181198) rotate(0 45.5 15)"><text x="45.5" y="21" font-family="Virgil, Segoe UI Emoji" font-size="23.46938775510202px" fill="#000000" text-anchor="middle" style="white-space: pre;" direction="ltr">Answers</text></g><g transform="translate(99.9488086027959 65.83584403168788) rotate(0 27.5 18)"><text x="27.5" y="26" font-family="Virgil, Segoe UI Emoji" font-size="28px" fill="#000000" text-anchor="middle" style="white-space: pre;" direction="rtl">بحث</text></g><g transform="translate(172.06053134670583 71.20778218808846) rotate(0 37.5 15)"><text x="37.5" y="21" font-family="Virgil, Segoe UI Emoji" font-size="23.433516823172702px" fill="#000" text-anchor="middle" style="white-space: pre;" direction="ltr">Bahas</text></g><g transform="translate(88.99560341798133 120.11777404388704) rotate(0 35.5 19)"><text x="35.5" y="27" font-family="Virgil, Segoe UI Emoji" font-size="29.111111111111125px" fill="#000000" text-anchor="middle" style="white-space: pre;" direction="rtl">حبیبی</text></g><g transform="translate(178.29785227044886 124.75541808273647) rotate(0 33.5 15.5)"><text x="33.5" y="22" font-family="Virgil, Segoe UI Emoji" font-size="24.363418284409725px" fill="#000000" text-anchor="middle" style="white-space: pre;" direction="ltr">Habibi</text></g><g transform="translate(93.01429357445068 169.07350425822096) rotate(0 27 19)"><text x="27" y="27" font-family="Virgil, Segoe UI Emoji" font-size="29.12444789851476px" fill="#000000" text-anchor="middle" style="white-space: pre;" direction="rtl">سیخ</text></g><g transform="translate(179.9501835464489 174.86429479209346) rotate(0 33.5 15.5)"><text x="33.5" y="22" font-family="Virgil, Segoe UI Emoji" font-size="24.37457999269509px" fill="#000000" text-anchor="middle" style="white-space: pre;" direction="ltr">Seekh</text></g><g transform="translate(97.42806378450405 306.0651638109766) rotate(0 29.5 18)"><text x="29.5" y="26" font-family="Virgil, Segoe UI Emoji" font-size="28px" fill="#000000" text-anchor="middle" style="white-space: pre;" direction="rtl">چابی</text></g><g transform="translate(180.8774209159128 312.7031916713412) rotate(0 30.5 15)"><text x="30.5" y="21" font-family="Virgil, Segoe UI Emoji" font-size="23.433516823172702px" fill="#000000" text-anchor="middle" style="white-space: pre;" direction="ltr">Chabi</text></g><g transform="translate(100.9488086027959 259.8132888457286) rotate(0 26.5 18)"><text x="26.5" y="26" font-family="Virgil, Segoe UI Emoji" font-size="28px" fill="#000000" text-anchor="middle" style="white-space: pre;" direction="rtl">چبانا</text></g><g transform="translate(172.52263464396128 264.4041097746908) rotate(0 41.5 15)"><text x="41.5" y="21" font-family="Virgil, Segoe UI Emoji" font-size="23.433516823172702px" fill="#000000" text-anchor="middle" style="white-space: pre;" direction="ltr">Chabna</text></g><g transform="translate(106.75067064852738 216.46128272285853) rotate(0 22 18)"><text x="22" y="26" font-family="Virgil, Segoe UI Emoji" font-size="28px" fill="#000000" text-anchor="middle" style="white-space: pre;" direction="rtl">جانا</text></g><g transform="translate(185.6943104851216 222.4841519021262) rotate(0 29.5 15)"><text x="29.5" y="21" font-family="Virgil, Segoe UI Emoji" font-size="23.433516823172702px" fill="#000000" text-anchor="middle" style="white-space: pre;" direction="ltr">Jana</text></g><g transform="translate(252.6904761904757 79.74603174603158) rotate(0 28.5 10)"><text x="28.5" y="14" font-family="Virgil, Segoe UI Emoji" font-size="16px" fill="#e67700" text-anchor="middle" style="white-space: pre;" direction="ltr">(argue)</text></g><g transform="translate(250.90476190476147 129.60317460317447) rotate(0 35 10)"><text x="35" y="14" font-family="Virgil, Segoe UI Emoji" font-size="16px" fill="#e67700" text-anchor="middle" style="white-space: pre;" direction="ltr">(beloved)</text></g><g transform="translate(256.4761904761899 179.60317460317447) rotate(0 33 10)"><text x="33" y="14" font-family="Virgil, Segoe UI Emoji" font-size="16px" fill="#e67700" text-anchor="middle" style="white-space: pre;" direction="ltr">(Skewer)</text></g><g transform="translate(260.9761904761899 228.17460317460302) rotate(0 28.5 10)"><text x="28.5" y="14" font-family="Virgil, Segoe UI Emoji" font-size="16px" fill="#e67700" text-anchor="middle" style="white-space: pre;" direction="ltr">(to go)</text></g><g transform="translate(258.1904761904757 269.60317460317447) rotate(0 37 10)"><text x="37" y="14" font-family="Virgil, Segoe UI Emoji" font-size="16px" fill="#e67700" text-anchor="middle" style="white-space: pre;" direction="ltr">(to chew)</text></g><g transform="translate(259.4761904761899 318.174603174603) rotate(0 19 10)"><text x="19" y="14" font-family="Virgil, Segoe UI Emoji" font-size="16px" fill="#e67700" text-anchor="middle" style="white-space: pre;" direction="ltr">(key)</text></g></svg>