<svg version="1.1" xmlns="http://www.w3.org/2000/svg" viewBox="0 0 376.6666666666665 367.7777777777776" width="376.6666666666665" height="367.7777777777776" >
  <!-- svg-source:excalidraw -->
  
  <defs>
    <style>
      @font-face {
        font-family: "Virgil";
        src: url("../Virgil.woff2");;
      }
    </style>
  </defs>
  <rect x="0" y="0" width="376.6666666666665" height="367.7777777777776" fill="#ffffff"></rect><g stroke-linecap="round" transform="translate(10 10) rotate(0 178.33333333333326 173.8888888888888)"><path d="M0 0 C0 0, 0 0, 0 0 M0 0 C0 0, 0 0, 0 0 M-0.26 6.4 C1.57 4.29, 3.41 2.18, 4.99 0.36 M-0.26 6.4 C0.82 5.16, 1.9 3.91, 4.99 0.36 M0.13 12.04 C3.68 7.96, 7.23 3.88, 10.63 -0.03 M0.13 12.04 C3.19 8.52, 6.25 5.01, 10.63 -0.03 M-0.13 18.44 C3.49 14.27, 7.12 10.1, 15.62 0.33 M-0.13 18.44 C4.55 13.06, 9.23 7.67, 15.62 0.33 M0.27 24.08 C8.57 14.53, 16.88 4.97, 21.26 -0.07 M0.27 24.08 C7.82 15.39, 15.38 6.7, 21.26 -0.07 M0 30.48 C8.75 20.42, 17.49 10.37, 26.25 0.29 M0 30.48 C9.33 19.75, 18.66 9.02, 26.25 0.29 M-0.26 36.88 C7.21 28.29, 14.67 19.7, 31.89 -0.1 M-0.26 36.88 C10.61 24.38, 21.47 11.89, 31.89 -0.1 M0.14 42.52 C12.48 28.33, 24.81 14.13, 36.88 0.26 M0.14 42.52 C13.97 26.6, 27.81 10.69, 36.88 0.26 M-0.12 48.92 C12.8 34.05, 25.72 19.19, 42.52 -0.14 M-0.12 48.92 C16.66 29.62, 33.44 10.31, 42.52 -0.14 M0.27 54.56 C17.81 34.38, 35.36 14.2, 47.51 0.22 M0.27 54.56 C9.76 43.65, 19.25 32.73, 47.51 0.22 M0.01 60.96 C16.99 41.43, 33.97 21.9, 53.15 -0.17 M0.01 60.96 C18.01 40.25, 36.01 19.55, 53.15 -0.17 M-0.25 67.36 C13.14 51.95, 26.54 36.54, 58.14 0.19 M-0.25 67.36 C17.98 46.39, 36.2 25.42, 58.14 0.19 M0.14 73 C16 54.75, 31.87 36.51, 63.78 -0.21 M0.14 73 C14.73 56.22, 29.32 39.43, 63.78 -0.21 M-0.12 79.4 C24.38 51.21, 48.88 23.03, 68.77 0.15 M-0.12 79.4 C16.29 60.53, 32.69 41.66, 68.77 0.15 M0.28 85.04 C23.72 58.07, 47.17 31.1, 74.41 -0.24 M0.28 85.04 C27.31 53.94, 54.35 22.84, 74.41 -0.24 M0.01 91.44 C20.03 68.41, 40.05 45.38, 79.4 0.12 M0.01 91.44 C27.81 59.47, 55.6 27.49, 79.4 0.12 M-0.25 97.84 C16.87 78.15, 33.98 58.46, 85.04 -0.28 M-0.25 97.84 C24.34 69.55, 48.92 41.27, 85.04 -0.28 M0.15 103.48 C25.07 74.81, 50 46.13, 90.03 0.08 M0.15 103.48 C23.81 76.26, 47.47 49.04, 90.03 0.08 M-0.11 109.88 C22.77 83.55, 45.65 57.23, 95.67 -0.31 M-0.11 109.88 C36.95 67.24, 74.02 24.6, 95.67 -0.31 M0.28 115.52 C24.93 87.16, 49.58 58.8, 100.66 0.05 M0.28 115.52 C24.02 88.21, 47.76 60.91, 100.66 0.05 M0.02 121.92 C23.79 94.58, 47.56 67.23, 106.3 -0.34 M0.02 121.92 C31.01 86.27, 62 50.61, 106.3 -0.34 M-0.24 128.32 C25.16 99.09, 50.57 69.86, 111.29 0.02 M-0.24 128.32 C41.29 80.54, 82.82 32.76, 111.29 0.02 M0.15 133.96 C23.82 106.73, 47.49 79.5, 116.27 0.38 M0.15 133.96 C32.28 97, 64.4 60.05, 116.27 0.38 M-0.11 140.36 C42.72 91.08, 85.55 41.81, 121.92 -0.02 M-0.11 140.36 C26.42 109.84, 52.94 79.33, 121.92 -0.02 M0.29 146 C36.32 104.54, 72.36 63.08, 126.91 0.34 M0.29 146 C33.25 108.08, 66.22 70.15, 126.91 0.34 M0.02 152.4 C52.83 91.65, 105.64 30.89, 132.55 -0.05 M0.02 152.4 C47.94 97.27, 95.86 42.15, 132.55 -0.05 M-0.24 158.8 C31.1 122.75, 62.44 86.7, 137.54 0.31 M-0.24 158.8 C27.97 126.34, 56.19 93.89, 137.54 0.31 M0.16 164.44 C30.17 129.91, 60.18 95.39, 143.18 -0.09 M0.16 164.44 C34.32 125.13, 68.49 85.83, 143.18 -0.09 M-0.1 170.84 C36.96 128.19, 74.03 85.55, 148.17 0.27 M-0.1 170.84 C46.7 117, 93.5 63.16, 148.17 0.27 M0.29 176.48 C43.4 126.89, 86.51 77.29, 153.81 -0.12 M0.29 176.48 C50.48 118.74, 100.67 61, 153.81 -0.12 M0.03 182.88 C35.94 141.57, 71.85 100.25, 158.8 0.24 M0.03 182.88 C38.53 138.59, 77.02 94.31, 158.8 0.24 M-0.23 189.27 C59.63 120.42, 119.49 51.56, 164.44 -0.16 M-0.23 189.27 C56.93 123.52, 114.09 57.76, 164.44 -0.16 M0.16 194.92 C48.6 139.19, 97.05 83.47, 169.43 0.2 M0.16 194.92 C47.31 140.68, 94.45 86.45, 169.43 0.2 M-0.1 201.32 C46.53 147.68, 93.15 94.04, 175.07 -0.19 M-0.1 201.32 C46.24 148, 92.59 94.69, 175.07 -0.19 M0.3 206.96 C39.2 162.2, 78.11 117.45, 180.06 0.17 M0.3 206.96 C65.16 132.34, 130.02 57.73, 180.06 0.17 M0.03 213.36 C47.08 159.23, 94.13 105.11, 185.7 -0.23 M0.03 213.36 C53.53 151.81, 107.03 90.27, 185.7 -0.23 M-0.23 219.75 C49.33 162.74, 98.89 105.73, 190.69 0.13 M-0.23 219.75 C51.34 160.43, 102.91 101.11, 190.69 0.13 M0.17 225.4 C48.42 169.89, 96.67 114.38, 196.33 -0.26 M0.17 225.4 C53.24 164.35, 106.3 103.3, 196.33 -0.26 M-0.09 231.8 C63.27 158.9, 126.63 86.01, 201.32 0.1 M-0.09 231.8 C46.42 178.29, 92.93 124.78, 201.32 0.1 M0.3 237.44 C45.96 184.91, 91.63 132.38, 206.96 -0.3 M0.3 237.44 C63.97 164.2, 127.64 90.95, 206.96 -0.3 M0.04 243.84 C71.37 161.78, 142.7 79.72, 211.95 0.06 M0.04 243.84 C66.05 167.9, 132.06 91.96, 211.95 0.06 M-0.22 250.23 C45.87 197.21, 91.97 144.18, 217.59 -0.33 M-0.22 250.23 C74.04 164.8, 148.3 79.37, 217.59 -0.33 M0.17 255.88 C75.14 169.64, 150.11 83.4, 222.58 0.03 M0.17 255.88 C49.96 198.6, 99.76 141.32, 222.58 0.03 M-0.09 262.27 C70.13 181.5, 140.35 100.72, 228.22 -0.36 M-0.09 262.27 C80.51 169.56, 161.1 76.84, 228.22 -0.36 M0.3 267.92 C89.66 165.13, 179.02 62.33, 233.21 0 M0.3 267.92 C75.72 181.17, 151.13 94.41, 233.21 0 M0.04 274.32 C60.66 204.58, 121.28 134.85, 238.19 0.36 M0.04 274.32 C88.61 172.43, 177.18 70.54, 238.19 0.36 M-0.22 280.71 C48.66 224.48, 97.55 168.25, 243.84 -0.04 M-0.22 280.71 C51.22 221.54, 102.66 162.36, 243.84 -0.04 M0.18 286.36 C63.48 213.53, 126.79 140.7, 248.82 0.32 M0.18 286.36 C67.07 209.4, 133.96 132.45, 248.82 0.32 M-0.08 292.75 C93.37 185.24, 186.83 77.74, 254.47 -0.07 M-0.08 292.75 C83.43 196.69, 166.94 100.62, 254.47 -0.07 M0.31 298.4 C95.18 189.26, 190.05 80.13, 259.45 0.29 M0.31 298.4 C93.47 191.22, 186.64 84.05, 259.45 0.29 M0.05 304.8 C85.03 207.03, 170.02 109.27, 265.1 -0.11 M0.05 304.8 C96.18 194.21, 192.31 83.62, 265.1 -0.11 M-0.21 311.19 C81.83 216.82, 163.87 122.44, 270.08 0.25 M-0.21 311.19 C54.45 248.31, 109.11 185.43, 270.08 0.25 M0.18 316.84 C97.58 204.8, 194.97 92.76, 275.73 -0.14 M0.18 316.84 C67.81 239.04, 135.43 161.25, 275.73 -0.14 M-0.08 323.23 C66.67 246.45, 133.41 169.67, 280.71 0.22 M-0.08 323.23 C112.19 194.08, 224.46 64.93, 280.71 0.22 M0.31 328.88 C61.68 258.29, 123.04 187.69, 286.36 -0.18 M0.31 328.88 C100.64 213.46, 200.97 98.05, 286.36 -0.18 M0.05 335.27 C115.32 202.68, 230.58 70.08, 291.34 0.18 M0.05 335.27 C116.19 201.67, 232.33 68.07, 291.34 0.18 M-0.21 341.67 C91.63 236.02, 183.47 130.37, 296.99 -0.21 M-0.21 341.67 C88.04 240.15, 176.29 138.63, 296.99 -0.21 M0.19 347.32 C78.89 256.77, 157.6 166.23, 301.97 0.15 M0.19 347.32 C87.39 246.99, 174.6 146.67, 301.97 0.15 M3.21 349.94 C94.03 245.46, 184.86 140.97, 307.62 -0.25 M3.21 349.94 C108.54 228.77, 213.87 107.6, 307.62 -0.25 M8.19 350.3 C121.6 219.84, 235.01 89.37, 312.6 0.11 M8.19 350.3 C70.46 278.67, 132.72 207.05, 312.6 0.11 M13.18 350.66 C104.77 245.3, 196.36 139.93, 318.25 -0.28 M13.18 350.66 C75.33 279.16, 137.48 207.66, 318.25 -0.28 M18.82 350.27 C118.29 235.84, 217.77 121.41, 323.23 0.08 M18.82 350.27 C117.16 237.14, 215.49 124.02, 323.23 0.08 M23.81 350.63 C111.84 249.36, 199.87 148.09, 328.88 -0.31 M23.81 350.63 C90.8 273.56, 157.8 196.49, 328.88 -0.31 M29.45 350.23 C143.76 218.74, 258.06 87.25, 333.86 0.05 M29.45 350.23 C110.38 257.14, 191.3 164.04, 333.86 0.05 M34.44 350.59 C123.98 247.59, 213.52 144.59, 339.51 -0.35 M34.44 350.59 C152.47 214.82, 270.49 79.04, 339.51 -0.35 M40.08 350.2 C109.19 270.7, 178.3 191.2, 344.49 0.01 M40.08 350.2 C130.83 245.81, 221.57 141.41, 344.49 0.01 M45.07 350.56 C106.41 279.99, 167.75 209.43, 349.48 0.37 M45.07 350.56 C149.36 230.58, 253.65 110.61, 349.48 0.37 M50.71 350.16 C125.57 264.05, 200.43 177.93, 355.12 -0.02 M50.71 350.16 C150.77 235.06, 250.83 119.95, 355.12 -0.02 M55.7 350.52 C163.37 226.66, 271.04 102.8, 358.8 1.85 M55.7 350.52 C167.09 222.39, 278.47 94.25, 358.8 1.85 M61.34 350.13 C136.52 263.64, 211.7 177.16, 358.54 8.24 M61.34 350.13 C153.55 244.05, 245.77 137.97, 358.54 8.24 M66.33 350.49 C169.8 231.46, 273.27 112.43, 358.93 13.89 M66.33 350.49 C179.3 220.53, 292.27 90.57, 358.93 13.89 M71.97 350.09 C165.22 242.83, 258.46 135.57, 358.67 20.28 M71.97 350.09 C140.55 271.2, 209.13 192.31, 358.67 20.28 M76.96 350.45 C148 268.73, 219.05 187, 359.07 25.93 M76.96 350.45 C180.39 231.47, 283.83 112.48, 359.07 25.93 M82.6 350.06 C191.98 224.23, 301.36 98.41, 358.8 32.33 M82.6 350.06 C180.83 237.06, 279.06 124.06, 358.8 32.33 M87.59 350.42 C185.49 237.8, 283.39 125.18, 358.54 38.72 M87.59 350.42 C174.61 250.31, 261.64 150.2, 358.54 38.72 M93.23 350.02 C160.95 272.13, 228.66 194.23, 358.94 44.37 M93.23 350.02 C184.49 245.04, 275.75 140.06, 358.94 44.37 M98.22 350.38 C163.26 275.56, 228.3 200.75, 358.68 50.76 M98.22 350.38 C177.77 258.87, 257.33 167.35, 358.68 50.76 M103.86 349.99 C192.56 247.96, 281.26 145.92, 359.07 56.41 M103.86 349.99 C188.16 253.02, 272.46 156.05, 359.07 56.41 M108.85 350.35 C194.08 252.3, 279.31 154.26, 358.81 62.81 M108.85 350.35 C163.58 287.39, 218.31 224.43, 358.81 62.81 M114.49 349.95 C206.3 244.35, 298.1 138.74, 358.55 69.2 M114.49 349.95 C184.67 269.22, 254.85 188.49, 358.55 69.2 M119.48 350.31 C194.98 263.47, 270.47 176.62, 358.94 74.85 M119.48 350.31 C168.56 293.85, 217.65 237.38, 358.94 74.85 M125.12 349.92 C194.96 269.59, 264.79 189.25, 358.68 81.24 M125.12 349.92 C178.92 288.03, 232.72 226.14, 358.68 81.24 M130.11 350.28 C200.87 268.88, 271.62 187.49, 359.07 86.89 M130.11 350.28 C187.47 284.29, 244.83 218.31, 359.07 86.89 M135.1 350.64 C209.06 265.56, 283.02 180.48, 358.81 93.28 M135.1 350.64 C183.77 294.65, 232.45 238.65, 358.81 93.28 M140.74 350.25 C209.33 271.34, 277.93 192.43, 358.55 99.68 M140.74 350.25 C224.89 253.44, 309.04 156.64, 358.55 99.68 M145.73 350.61 C218.6 266.78, 291.47 182.95, 358.95 105.33 M145.73 350.61 C220.75 264.3, 295.78 177.99, 358.95 105.33 M151.37 350.21 C230.54 259.14, 309.71 168.07, 358.69 111.72 M151.37 350.21 C210.86 281.77, 270.35 213.34, 358.69 111.72 M156.36 350.57 C208.97 290.04, 261.59 229.52, 359.08 117.37 M156.36 350.57 C233.32 262.04, 310.27 173.51, 359.08 117.37 M162 350.18 C204.33 301.48, 246.66 252.79, 358.82 123.76 M162 350.18 C215.27 288.9, 268.53 227.63, 358.82 123.76 M166.99 350.54 C218.18 291.64, 269.38 232.75, 358.56 130.16 M166.99 350.54 C222.73 286.41, 278.47 222.29, 358.56 130.16 M172.63 350.14 C242.67 269.57, 312.71 189, 358.95 135.8 M172.63 350.14 C228.41 285.98, 284.19 221.81, 358.95 135.8 M177.62 350.5 C214.63 307.92, 251.65 265.34, 358.69 142.2 M177.62 350.5 C235.52 283.89, 293.43 217.28, 358.69 142.2 M183.26 350.11 C232.86 293.05, 282.46 235.99, 359.08 147.85 M183.26 350.11 C249.89 273.46, 316.51 196.82, 359.08 147.85 M188.25 350.47 C250.82 278.48, 313.4 206.5, 358.82 154.24 M188.25 350.47 C246.88 283.02, 305.51 215.57, 358.82 154.24 M193.89 350.07 C228.07 310.75, 262.25 271.44, 358.56 160.64 M193.89 350.07 C252.98 282.1, 312.07 214.12, 358.56 160.64 M198.88 350.43 C247.96 293.97, 297.04 237.51, 358.96 166.28 M198.88 350.43 C244.37 298.1, 289.86 245.77, 358.96 166.28 M204.52 350.04 C248.07 299.94, 291.61 249.85, 358.69 172.68 M204.52 350.04 C255.76 291.09, 307 232.15, 358.69 172.68 M209.51 350.4 C244.21 310.48, 278.91 270.56, 359.09 178.33 M209.51 350.4 C255.32 297.7, 301.13 245, 359.09 178.33 M215.15 350 C257.28 301.54, 299.41 253.08, 358.83 184.72 M215.15 350 C249.13 310.92, 283.1 271.83, 358.83 184.72 M220.14 350.36 C248.87 317.31, 277.6 284.26, 358.57 191.12 M220.14 350.36 C250.43 315.51, 280.73 280.66, 358.57 191.12 M225.78 349.97 C263.41 306.69, 301.03 263.4, 358.96 196.76 M225.78 349.97 C259.34 311.37, 292.9 272.76, 358.96 196.76 M230.77 350.33 C276.07 298.22, 321.37 246.11, 358.7 203.16 M230.77 350.33 C265.9 309.91, 301.03 269.5, 358.7 203.16 M236.41 349.94 C279.26 300.64, 322.11 251.35, 359.09 208.8 M236.41 349.94 C261.36 321.24, 286.31 292.54, 359.09 208.8 M241.4 350.3 C270.6 316.71, 299.8 283.12, 358.83 215.2 M241.4 350.3 C284.84 300.32, 328.29 250.34, 358.83 215.2 M246.39 350.66 C274.29 318.56, 302.19 286.46, 358.57 221.6 M246.39 350.66 C286.65 304.34, 326.91 258.02, 358.57 221.6 M252.03 350.26 C286.73 310.34, 321.43 270.42, 358.97 227.24 M252.03 350.26 C278.22 320.13, 304.42 290, 358.97 227.24 M257.02 350.62 C296.9 304.74, 336.78 258.87, 358.7 233.64 M257.02 350.62 C280.46 323.65, 303.91 296.67, 358.7 233.64 M262.66 350.23 C288.82 320.13, 314.98 290.04, 359.1 239.28 M262.66 350.23 C290 318.77, 317.34 287.32, 359.1 239.28 M267.65 350.59 C290.21 324.63, 312.77 298.68, 358.84 245.68 M267.65 350.59 C301.77 311.33, 335.89 272.08, 358.84 245.68 M273.29 350.19 C293.31 327.16, 313.32 304.14, 358.58 252.08 M273.29 350.19 C300.01 319.45, 326.73 288.71, 358.58 252.08 M278.28 350.55 C305.57 319.15, 332.87 287.74, 358.97 257.72 M278.28 350.55 C309.69 314.42, 341.1 278.28, 358.97 257.72 M283.92 350.16 C300.14 331.5, 316.36 312.84, 358.71 264.12 M283.92 350.16 C299.3 332.46, 314.69 314.76, 358.71 264.12 M288.91 350.52 C306.11 330.73, 323.31 310.94, 359.1 269.76 M288.91 350.52 C311.3 324.76, 333.69 299, 359.1 269.76 M294.55 350.12 C312.3 329.71, 330.04 309.29, 358.84 276.16 M294.55 350.12 C312.28 329.72, 330.01 309.33, 358.84 276.16 M299.54 350.48 C311.58 336.62, 323.63 322.76, 358.58 282.56 M299.54 350.48 C314.32 333.47, 329.11 316.46, 358.58 282.56 M305.18 350.09 C322.76 329.86, 340.34 309.64, 358.98 288.2 M305.18 350.09 C320.38 332.6, 335.58 315.12, 358.98 288.2 M310.17 350.45 C325.12 333.25, 340.07 316.04, 358.71 294.6 M310.17 350.45 C325.43 332.89, 340.69 315.33, 358.71 294.6 M315.81 350.05 C330.53 333.12, 345.25 316.19, 359.11 300.24 M315.81 350.05 C325.7 338.67, 335.6 327.29, 359.11 300.24 M320.8 350.41 C332.43 337.03, 344.07 323.64, 358.85 306.64 M320.8 350.41 C331.65 337.93, 342.51 325.44, 358.85 306.64 M326.44 350.02 C337.45 337.35, 348.46 324.69, 358.59 313.04 M326.44 350.02 C338.02 336.7, 349.6 323.38, 358.59 313.04 M331.43 350.38 C337.01 343.95, 342.6 337.53, 358.98 318.68 M331.43 350.38 C341.94 338.29, 352.45 326.2, 358.98 318.68 M337.07 349.99 C341.78 344.56, 346.5 339.13, 358.72 325.08 M337.07 349.99 C345.03 340.83, 352.98 331.68, 358.72 325.08 M342.06 350.35 C346.49 345.24, 350.93 340.14, 359.11 330.72 M342.06 350.35 C346.57 345.15, 351.09 339.95, 359.11 330.72 M347.7 349.95 C351.11 346.03, 354.51 342.11, 358.85 337.12 M347.7 349.95 C351.99 345.02, 356.28 340.08, 358.85 337.12 M352.69 350.31 C355.02 347.62, 357.36 344.94, 358.59 343.52 M352.69 350.31 C354.11 348.67, 355.53 347.03, 358.59 343.52" stroke="#fff" stroke-width="0.5" fill="none"></path><path d="M0 0 C118.2 0, 236.41 0, 356.67 0 M0 0 C112.23 0, 224.45 0, 356.67 0 M356.67 0 C356.67 79.65, 356.67 159.3, 356.67 347.78 M356.67 0 C356.67 123.62, 356.67 247.25, 356.67 347.78 M356.67 347.78 C278.03 347.78, 199.4 347.78, 0 347.78 M356.67 347.78 C275.54 347.78, 194.42 347.78, 0 347.78 M0 347.78 C0 253.65, 0 159.52, 0 0 M0 347.78 C0 233.7, 0 119.63, 0 0" stroke="#000000" stroke-width="1" fill="none"></path></g><g transform="translate(105.87794587347526 27.154092603181198) rotate(0 82.14285714285711 14.668367346938794)"><text x="82.14285714285708" y="20.336734693877528" font-family="Virgil, Segoe UI Emoji" font-size="23.46938775510202px" fill="#000000" text-anchor="middle" style="white-space: pre;" direction="ltr">Let's practice</text></g><g transform="translate(111.9488086027959 65.83584403168788) rotate(0 27.5 18)"><text x="27.5" y="26" font-family="Virgil, Segoe UI Emoji" font-size="28px" fill="#000000" text-anchor="middle" style="white-space: pre;" direction="rtl">بحث</text></g><g transform="translate(211.56053134670583 71.20778218808846) rotate(0 6 15)"><text x="6" y="21" font-family="Virgil, Segoe UI Emoji" font-size="23.433516823172702px" fill="#000" text-anchor="middle" style="white-space: pre;" direction="ltr">?</text></g><g transform="translate(100.99560341798133 120.11777404388704) rotate(0 35.5 19)"><text x="35.5" y="27" font-family="Virgil, Segoe UI Emoji" font-size="29.111111111111125px" fill="#000000" text-anchor="middle" style="white-space: pre;" direction="rtl">حبیبی</text></g><g transform="translate(217.79785227044886 124.75541808273647) rotate(0 6 15.5)"><text x="6" y="22" font-family="Virgil, Segoe UI Emoji" font-size="24.363418284409725px" fill="#000000" text-anchor="middle" style="white-space: pre;" direction="ltr">?</text></g><g transform="translate(105.01429357445113 169.07350425822096) rotate(0 27 19)"><text x="27" y="27" font-family="Virgil, Segoe UI Emoji" font-size="29.12444789851476px" fill="#000000" text-anchor="middle" style="white-space: pre;" direction="rtl">سیخ</text></g><g transform="translate(219.4501835464489 174.86429479209346) rotate(0 6 15.5)"><text x="6" y="22" font-family="Virgil, Segoe UI Emoji" font-size="24.37457999269509px" fill="#000000" text-anchor="middle" style="white-space: pre;" direction="ltr">?</text></g><g transform="translate(109.42806378450405 306.0651638109766) rotate(0 29.5 18)"><text x="29.5" y="26" font-family="Virgil, Segoe UI Emoji" font-size="28px" fill="#000000" text-anchor="middle" style="white-space: pre;" direction="rtl">چابی</text></g><g transform="translate(216.3774209159128 312.7031916713413) rotate(0 6 15)"><text x="6" y="21" font-family="Virgil, Segoe UI Emoji" font-size="23.433516823172702px" fill="#000000" text-anchor="middle" style="white-space: pre;" direction="ltr">?</text></g><g transform="translate(112.9488086027959 259.8132888457285) rotate(0 26.5 18)"><text x="26.5" y="26" font-family="Virgil, Segoe UI Emoji" font-size="28px" fill="#000000" text-anchor="middle" style="white-space: pre;" direction="rtl">چبانا</text></g><g transform="translate(220.02263464396128 264.4041097746908) rotate(0 6 15)"><text x="6" y="21" font-family="Virgil, Segoe UI Emoji" font-size="23.433516823172702px" fill="#000000" text-anchor="middle" style="white-space: pre;" direction="ltr">?</text></g><g transform="translate(118.75067064852738 216.4612827228584) rotate(0 22 18)"><text x="22" y="26" font-family="Virgil, Segoe UI Emoji" font-size="28px" fill="#000000" text-anchor="middle" style="white-space: pre;" direction="rtl">جانا</text></g><g transform="translate(221.1943104851216 222.4841519021261) rotate(0 6 15)"><text x="6" y="21" font-family="Virgil, Segoe UI Emoji" font-size="23.433516823172702px" fill="#000000" text-anchor="middle" style="white-space: pre;" direction="ltr">?</text></g></svg>