<svg version="1.1" xmlns="http://www.w3.org/2000/svg" viewBox="0 0 380 372.99407958984375" width="380" height="372.99407958984375">
  <!-- svg-source:excalidraw -->
  
  <defs>
    <style>
      @font-face {
        font-family: "Virgil";
        src: url("https://excalidraw.com/Virgil.woff2");
      }
      @font-face {
        font-family: "Cascadia";
        src: url("https://excalidraw.com/Cascadia.woff2");
      }
    </style>
  </defs>
  <rect x="0" y="0" width="380" height="372.99407958984375" fill="#ffffff"></rect><g stroke-linecap="round" transform="translate(10 10) rotate(0 178.5552215576172 176.49703979492188)"><path d="M0 0 C92.2 0, 184.39 0, 357.11 0 M0 0 C112.21 0, 224.42 0, 357.11 0 M357.11 0 C357.11 101.2, 357.11 202.4, 357.11 352.99 M357.11 0 C357.11 117.47, 357.11 234.95, 357.11 352.99 M357.11 352.99 C261.51 352.99, 165.91 352.99, 0 352.99 M357.11 352.99 C218.31 352.99, 79.51 352.99, 0 352.99 M0 352.99 C0 243.85, 0 134.71, 0 0 M0 352.99 C0 254.72, 0 156.45, 0 0" stroke="#000000" stroke-width="1" fill="none"></path></g><g transform="translate(37.0205078125 50.676025390625) rotate(0 49.5 24.5)"><text x="0" y="35" font-family="Virgil, Segoe UI Emoji" font-size="36px" fill="#000000" text-anchor="end" style="white-space: pre;" direction="rtl">ظ / ط</text></g><g transform="translate(173.09326171875023 45) rotate(0 91 24.5)"><text x="0" y="35" font-family="Virgil, Segoe UI Emoji" font-size="36px" fill="#000000" text-anchor="end" style="white-space: pre;" direction="rtl">غـ غ / عـ ع</text></g><g transform="translate(39.56298828125 148.25927734375) rotate(0 52 24.5)"><text x="0" y="35" font-family="Virgil, Segoe UI Emoji" font-size="36px" fill="#000000" text-anchor="end" style="white-space: pre;" direction="rtl">ق / ف</text></g><g transform="translate(155.95108255525906 149.1343318858053) rotate(0 99.5 22.5)"><text x="0" y="32" font-family="Virgil, Segoe UI Emoji" font-size="32.940090488818754px" fill="#000000" text-anchor="end" style="white-space: pre;" direction="rtl">ضـ ض/صـ ص</text></g><g transform="translate(90 90) rotate(0 26 21.5)"><text x="0" y="31" font-family="Virgil, Segoe UI Emoji" font-size="28px" fill="#000000" text-anchor="start" style="white-space: pre;" direction="ltr">त/ज़</text></g><g transform="translate(263.02779134114166 87.15002441406614) rotate(0 26 21.5)"><text x="0" y="31" font-family="Virgil, Segoe UI Emoji" font-size="28px" fill="#000000" text-anchor="start" style="white-space: pre;" direction="ltr">अ/ग़</text></g><g transform="translate(90 210) rotate(0 30 21.5)"><text x="0" y="31" font-family="Virgil, Segoe UI Emoji" font-size="28px" fill="#000000" text-anchor="start" style="white-space: pre;" direction="ltr">फ़/क़</text></g><g transform="translate(279.21700032551666 208.85778808594114) rotate(0 28 21.5)"><text x="0" y="31" font-family="Virgil, Segoe UI Emoji" font-size="28px" fill="#000000" text-anchor="start" style="white-space: pre;" direction="ltr">स़/ॹ</text></g><g transform="translate(61.101643880204165 259.84765625000364) rotate(0 133 21.5)"><text x="0" y="31" font-family="Virgil, Segoe UI Emoji" font-size="28px" fill="#000000" text-anchor="start" style="white-space: pre;" direction="ltr">ताज की आग फेंक सजा</text></g><g stroke-linecap="round"><g transform="translate(10 130) rotate(0 180 0)"><path d="M0 0 C60 0, 300 0, 360 0 M0 0 C60 0, 300 0, 360 0" stroke="#000000" stroke-width="1" fill="none"></path></g></g><g stroke-linecap="round"><g transform="translate(10 250) rotate(0 180 0)"><path d="M0 0 C60 0, 300 0, 360 0 M0 0 C60 0, 300 0, 360 0" stroke="#000000" stroke-width="1" fill="none"></path></g></g><g stroke-linecap="round"><g transform="translate(150 50) rotate(0 0 100)"><path d="M0 0 C0 33.33, 0 166.67, 0 200 M0 0 C0 33.33, 0 166.67, 0 200" stroke="#000000" stroke-width="1" fill="none"></path></g></g><g stroke-linecap="round"><g transform="translate(10 50) rotate(0 180 0)"><path d="M0 0 C60 0, 300 0, 360 0 M0 0 C60 0, 300 0, 360 0" stroke="#000000" stroke-width="1" fill="none"></path></g></g><g transform="translate(27.1258544921875 97.6422119140625) rotate(0 22 12.5)"><text x="0" y="18" font-family="Virgil, Segoe UI Emoji" font-size="20px" fill="#000000" text-anchor="start" style="white-space: pre;" direction="ltr">T/Z</text></g><g transform="translate(180.453857421875 97.5926513671875) rotate(0 20.5 12.5)"><text x="0" y="18" font-family="Virgil, Segoe UI Emoji" font-size="20px" fill="#000000" text-anchor="start" style="white-space: pre;" direction="ltr">A/G</text></g><g transform="translate(30 216.7235107421875) rotate(0 19 12.5)"><text x="0" y="18" font-family="Virgil, Segoe UI Emoji" font-size="20px" fill="#000000" text-anchor="start" style="white-space: pre;" direction="ltr">F/Q</text></g><g transform="translate(174.8497314453125 218.770751953125) rotate(0 20 12.5)"><text x="0" y="18" font-family="Virgil, Segoe UI Emoji" font-size="20px" fill="#000000" text-anchor="start" style="white-space: pre;" direction="ltr">S/Z</text></g><g transform="translate(76.33333333332916 313.00000000000364) rotate(0 117.5 12.5)"><text x="0" y="18" font-family="Virgil, Segoe UI Emoji" font-size="20px" fill="#000000" text-anchor="start" style="white-space: pre;" direction="ltr">TaZ ki AaG FeQ SaZa</text></g><g transform="translate(95.76953125 18.462646484375) rotate(0 82 12.5)"><text x="0" y="18" font-family="Virgil, Segoe UI Emoji" font-size="20px" fill="#000000" text-anchor="start" style="white-space: pre;" direction="ltr">How to remember</text></g><g stroke-linecap="round" transform="translate(27.755208333329165 99.43652343750364) rotate(0 21.97943115234375 11.23883056640625)"><path d="M0 0 C0 0, 0 0, 0 0 M0 0 C0 0, 0 0, 0 0 M-0.26 6.4 C1.25 4.65, 2.77 2.91, 4.99 0.36 M-0.26 6.4 C1.78 4.04, 3.83 1.69, 4.99 0.36 M0.13 12.04 C2.34 9.5, 4.55 6.96, 10.63 -0.03 M0.13 12.04 C3.37 8.32, 6.61 4.59, 10.63 -0.03 M-0.13 18.44 C4.09 13.58, 8.31 8.73, 15.62 0.33 M-0.13 18.44 C3.23 14.57, 6.59 10.71, 15.62 0.33 M0.92 23.33 C6.82 16.54, 12.72 9.75, 21.26 -0.07 M0.92 23.33 C8.55 14.55, 16.18 5.78, 21.26 -0.07 M6.57 22.93 C14.28 14.05, 22 5.18, 26.25 0.29 M6.57 22.93 C11.64 17.1, 16.71 11.27, 26.25 0.29 M11.55 23.29 C17.95 15.93, 24.35 8.57, 31.89 -0.1 M11.55 23.29 C19.32 14.36, 27.08 5.43, 31.89 -0.1 M16.54 23.65 C23.86 15.24, 31.17 6.82, 36.88 0.26 M16.54 23.65 C24.42 14.58, 32.31 5.51, 36.88 0.26 M22.18 23.26 C28.89 15.55, 35.59 7.83, 42.52 -0.14 M22.18 23.26 C28.22 16.31, 34.26 9.37, 42.52 -0.14 M27.17 23.62 C32.18 17.85, 37.19 12.09, 46.2 1.73 M27.17 23.62 C34.31 15.41, 41.45 7.19, 46.2 1.73 M32.81 23.22 C37.73 17.57, 42.64 11.91, 45.93 8.13 M32.81 23.22 C38 17.26, 43.18 11.3, 45.93 8.13 M37.8 23.58 C41.12 19.76, 44.44 15.95, 46.33 13.77 M37.8 23.58 C40.34 20.66, 42.88 17.74, 46.33 13.77" stroke="#fd7e14" stroke-width="0.5" fill="none"></path><path d="M0 0 C12.83 0, 25.66 0, 43.96 0 M0 0 C11.29 0, 22.58 0, 43.96 0 M43.96 0 C43.96 7.61, 43.96 15.22, 43.96 22.48 M43.96 0 C43.96 6.16, 43.96 12.32, 43.96 22.48 M43.96 22.48 C31.97 22.48, 19.99 22.48, 0 22.48 M43.96 22.48 C32.88 22.48, 21.8 22.48, 0 22.48 M0 22.48 C0 14.62, 0 6.77, 0 0 M0 22.48 C0 17.36, 0 12.25, 0 0" stroke="#000000" stroke-width="1" fill="none"></path></g><g stroke-linecap="round" transform="translate(176.62386067707916 98.99450683594114) rotate(0 22.3203125 11.832275390625)"><path d="M0 0 C0 0, 0 0, 0 0 M0 0 C0 0, 0 0, 0 0 M-0.26 6.4 C1.13 4.8, 2.52 3.19, 4.99 0.36 M-0.26 6.4 C1.73 4.11, 3.71 1.82, 4.99 0.36 M0.13 12.04 C4.02 7.57, 7.91 3.1, 10.63 -0.03 M0.13 12.04 C2.86 8.9, 5.6 5.76, 10.63 -0.03 M-0.13 18.44 C4.56 13.04, 9.25 7.65, 15.62 0.33 M-0.13 18.44 C5.14 12.38, 10.41 6.32, 15.62 0.33 M0.27 24.08 C8.31 14.83, 16.35 5.58, 21.26 -0.07 M0.27 24.08 C7.93 15.27, 15.59 6.46, 21.26 -0.07 M5.91 23.69 C12.62 15.97, 19.33 8.25, 26.25 0.29 M5.91 23.69 C13.32 15.16, 20.73 6.64, 26.25 0.29 M10.9 24.05 C16.65 17.43, 22.4 10.82, 31.89 -0.1 M10.9 24.05 C17.88 16.01, 24.87 7.98, 31.89 -0.1 M16.54 23.65 C21.53 17.92, 26.51 12.18, 36.88 0.26 M16.54 23.65 C24.57 14.41, 32.6 5.18, 36.88 0.26 M21.53 24.01 C26.36 18.46, 31.19 12.9, 42.52 -0.14 M21.53 24.01 C28.61 15.86, 35.69 7.71, 42.52 -0.14 M27.17 23.62 C31.63 18.49, 36.09 13.36, 46.2 1.73 M27.17 23.62 C33.77 16.03, 40.37 8.44, 46.2 1.73 M32.16 23.98 C37.14 18.25, 42.12 12.52, 46.59 7.37 M32.16 23.98 C37.16 18.22, 42.16 12.47, 46.59 7.37 M37.14 24.34 C40.76 20.18, 44.38 16.02, 46.33 13.77 M37.14 24.34 C40.22 20.8, 43.29 17.27, 46.33 13.77 M42.79 23.94 C43.5 23.12, 44.22 22.29, 46.07 20.17 M42.79 23.94 C43.84 22.73, 44.89 21.52, 46.07 20.17" stroke="#fd7e14" stroke-width="0.5" fill="none"></path><path d="M0 0 C14.39 0, 28.79 0, 44.64 0 M0 0 C13.14 0, 26.27 0, 44.64 0 M44.64 0 C44.64 9.3, 44.64 18.61, 44.64 23.66 M44.64 0 C44.64 8.29, 44.64 16.58, 44.64 23.66 M44.64 23.66 C28.5 23.66, 12.36 23.66, 0 23.66 M44.64 23.66 C30.61 23.66, 16.58 23.66, 0 23.66 M0 23.66 C0 17.65, 0 11.63, 0 0 M0 23.66 C0 15.06, 0 6.45, 0 0" stroke="#000000" stroke-width="1" fill="none"></path></g><g stroke-linecap="round" transform="translate(28.179768880204165 215.25781250000364) rotate(0 23.348388671875 13.81494140625)"><path d="M0 0 C0 0, 0 0, 0 0 M0 0 C0 0, 0 0, 0 0 M-0.26 6.4 C1.35 4.54, 2.97 2.69, 4.99 0.36 M-0.26 6.4 C0.95 5.01, 2.16 3.62, 4.99 0.36 M0.13 12.04 C3.84 7.77, 7.55 3.5, 10.63 -0.03 M0.13 12.04 C3.09 8.64, 6.05 5.23, 10.63 -0.03 M-0.13 18.44 C3.72 14.01, 7.57 9.58, 15.62 0.33 M-0.13 18.44 C5.42 12.06, 10.97 5.68, 15.62 0.33 M0.27 24.08 C7.48 15.78, 14.69 7.49, 21.26 -0.07 M0.27 24.08 C7.13 16.19, 13.98 8.3, 21.26 -0.07 M1.32 28.97 C8.37 20.86, 15.42 12.74, 26.25 0.29 M1.32 28.97 C7.3 22.09, 13.28 15.21, 26.25 0.29 M6.96 28.58 C12.6 22.09, 18.24 15.6, 31.89 -0.1 M6.96 28.58 C12.29 22.44, 17.63 16.3, 31.89 -0.1 M11.95 28.94 C20.22 19.42, 28.48 9.91, 36.88 0.26 M11.95 28.94 C21.8 17.6, 31.65 6.26, 36.88 0.26 M17.59 28.54 C22.92 22.41, 28.25 16.28, 42.52 -0.14 M17.59 28.54 C24.88 20.15, 32.17 11.77, 42.52 -0.14 M22.58 28.9 C27.72 22.99, 32.86 17.08, 47.51 0.22 M22.58 28.9 C30.4 19.9, 38.22 10.91, 47.51 0.22 M28.22 28.51 C32.49 23.6, 36.76 18.68, 47.25 6.62 M28.22 28.51 C34.01 21.84, 39.81 15.18, 47.25 6.62 M33.21 28.87 C36.35 25.25, 39.49 21.64, 46.98 13.02 M33.21 28.87 C37.13 24.35, 41.05 19.84, 46.98 13.02 M38.19 29.23 C40.79 26.24, 43.39 23.25, 47.38 18.66 M38.19 29.23 C41.74 25.14, 45.3 21.06, 47.38 18.66 M43.84 28.83 C44.57 27.98, 45.31 27.13, 47.12 25.06 M43.84 28.83 C45.12 27.35, 46.41 25.88, 47.12 25.06" stroke="#fd7e14" stroke-width="0.5" fill="none"></path><path d="M0 0 C9.82 0, 19.64 0, 46.7 0 M0 0 C10.34 0, 20.67 0, 46.7 0 M46.7 0 C46.7 6.41, 46.7 12.83, 46.7 27.63 M46.7 0 C46.7 6.78, 46.7 13.55, 46.7 27.63 M46.7 27.63 C31.13 27.63, 15.56 27.63, 0 27.63 M46.7 27.63 C32.99 27.63, 19.28 27.63, 0 27.63 M0 27.63 C0 20.2, 0 12.77, 0 0 M0 27.63 C0 17.51, 0 7.4, 0 0" stroke="#000000" stroke-width="1" fill="none"></path></g><g stroke-linecap="round" transform="translate(172.82759602864166 216.07885742187864) rotate(0 21.1982421875 13.71771240234375)"><path d="M0 0 C0 0, 0 0, 0 0 M0 0 C0 0, 0 0, 0 0 M-0.26 6.4 C1.48 4.39, 3.23 2.38, 4.99 0.36 M-0.26 6.4 C1.03 4.92, 2.31 3.44, 4.99 0.36 M0.13 12.04 C4.28 7.27, 8.42 2.5, 10.63 -0.03 M0.13 12.04 C2.55 9.26, 4.96 6.48, 10.63 -0.03 M-0.13 18.44 C5.18 12.33, 10.5 6.21, 15.62 0.33 M-0.13 18.44 C3.56 14.19, 7.25 9.95, 15.62 0.33 M0.27 24.08 C7.55 15.71, 14.83 7.33, 21.26 -0.07 M0.27 24.08 C7.51 15.75, 14.76 7.41, 21.26 -0.07 M1.32 28.97 C9.96 19.03, 18.6 9.09, 26.25 0.29 M1.32 28.97 C11.13 17.68, 20.95 6.38, 26.25 0.29 M6.96 28.58 C15.3 18.98, 23.64 9.38, 31.89 -0.1 M6.96 28.58 C12.41 22.31, 17.86 16.04, 31.89 -0.1 M11.95 28.94 C19.96 19.72, 27.97 10.51, 36.88 0.26 M11.95 28.94 C20.09 19.57, 28.23 10.21, 36.88 0.26 M17.59 28.54 C24.23 20.9, 30.87 13.27, 42.52 -0.14 M17.59 28.54 C26.48 18.32, 35.36 8.1, 42.52 -0.14 M22.58 28.9 C26.84 24, 31.1 19.09, 42.26 6.26 M22.58 28.9 C29.3 21.17, 36.02 13.44, 42.26 6.26 M28.22 28.51 C31.74 24.46, 35.25 20.42, 42.65 11.9 M28.22 28.51 C33.57 22.35, 38.93 16.19, 42.65 11.9 M33.21 28.87 C36.71 24.84, 40.21 20.81, 42.39 18.3 M33.21 28.87 C35.54 26.18, 37.87 23.5, 42.39 18.3 M38.85 28.47 C40.04 27.1, 41.23 25.74, 42.13 24.7 M38.85 28.47 C40.1 27.04, 41.35 25.6, 42.13 24.7" stroke="#fd7e14" stroke-width="0.5" fill="none"></path><path d="M0 0 C16.06 0, 32.11 0, 42.4 0 M0 0 C15.7 0, 31.4 0, 42.4 0 M42.4 0 C42.4 7.14, 42.4 14.28, 42.4 27.44 M42.4 0 C42.4 8.17, 42.4 16.35, 42.4 27.44 M42.4 27.44 C28.21 27.44, 14.03 27.44, 0 27.44 M42.4 27.44 C26.16 27.44, 9.92 27.44, 0 27.44 M0 27.44 C0 17.42, 0 7.41, 0 0 M0 27.44 C0 18.39, 0 9.34, 0 0" stroke="#000000" stroke-width="1" fill="none"></path></g><g stroke-linecap="round" transform="translate(71.84383138020416 311.63403320312864) rotate(0 122.89550781249989 17.3658447265625)"><path d="M0 0 C0 0, 0 0, 0 0 M0 0 C0 0, 0 0, 0 0 M-0.26 6.4 C1.52 4.34, 3.31 2.29, 4.99 0.36 M-0.26 6.4 C1.21 4.7, 2.68 3.01, 4.99 0.36 M0.13 12.04 C4.03 7.56, 7.92 3.09, 10.63 -0.03 M0.13 12.04 C2.46 9.37, 4.78 6.69, 10.63 -0.03 M-0.13 18.44 C6.05 11.34, 12.22 4.23, 15.62 0.33 M-0.13 18.44 C5.99 11.4, 12.12 4.35, 15.62 0.33 M0.27 24.08 C7.17 16.14, 14.08 8.19, 21.26 -0.07 M0.27 24.08 C5.91 17.59, 11.56 11.09, 21.26 -0.07 M0 30.48 C6.57 22.92, 13.14 15.37, 26.25 0.29 M0 30.48 C5.83 23.78, 11.66 17.07, 26.25 0.29 M1.06 35.37 C8.2 27.15, 15.34 18.94, 31.89 -0.1 M1.06 35.37 C7.87 27.53, 14.69 19.68, 31.89 -0.1 M6.04 35.73 C12.75 28.01, 19.46 20.29, 36.88 0.26 M6.04 35.73 C18.01 21.96, 29.98 8.19, 36.88 0.26 M11.69 35.33 C20.46 25.24, 29.24 15.14, 42.52 -0.14 M11.69 35.33 C21.95 23.52, 32.22 11.72, 42.52 -0.14 M16.67 35.69 C26.02 24.94, 35.37 14.19, 47.51 0.22 M16.67 35.69 C25.59 25.44, 34.5 15.18, 47.51 0.22 M22.32 35.3 C28.49 28.2, 34.66 21.09, 53.15 -0.17 M22.32 35.3 C30.12 26.32, 37.93 17.34, 53.15 -0.17 M27.3 35.66 C34.15 27.78, 41 19.9, 58.14 0.19 M27.3 35.66 C37.19 24.29, 47.07 12.92, 58.14 0.19 M32.95 35.26 C45.18 21.19, 57.42 7.11, 63.78 -0.21 M32.95 35.26 C39.86 27.31, 46.77 19.36, 63.78 -0.21 M37.93 35.62 C50.15 21.57, 62.37 7.51, 68.77 0.15 M37.93 35.62 C46.31 25.99, 54.68 16.35, 68.77 0.15 M43.58 35.23 C55.89 21.07, 68.2 6.91, 74.41 -0.24 M43.58 35.23 C52.28 25.21, 60.99 15.2, 74.41 -0.24 M48.56 35.59 C59.46 23.05, 70.36 10.52, 79.4 0.12 M48.56 35.59 C58.6 24.04, 68.64 12.49, 79.4 0.12 M54.21 35.2 C61.56 26.74, 68.9 18.29, 85.04 -0.28 M54.21 35.2 C62.15 26.06, 70.09 16.92, 85.04 -0.28 M59.19 35.56 C69.29 23.94, 79.39 12.32, 90.03 0.08 M59.19 35.56 C67.19 26.36, 75.19 17.16, 90.03 0.08 M64.84 35.16 C72.59 26.24, 80.34 17.33, 95.67 -0.31 M64.84 35.16 C76.36 21.91, 87.88 8.65, 95.67 -0.31 M69.82 35.52 C77.81 26.33, 85.8 17.14, 100.66 0.05 M69.82 35.52 C77.33 26.89, 84.83 18.26, 100.66 0.05 M74.81 35.88 C83.68 25.67, 92.56 15.47, 106.3 -0.34 M74.81 35.88 C82.62 26.9, 90.43 17.91, 106.3 -0.34 M80.45 35.49 C92.62 21.49, 104.78 7.5, 111.29 0.02 M80.45 35.49 C87.92 26.9, 95.38 18.31, 111.29 0.02 M85.44 35.85 C94.05 25.94, 102.66 16.04, 116.27 0.38 M85.44 35.85 C94.44 25.49, 103.44 15.14, 116.27 0.38 M91.08 35.45 C99.93 25.28, 108.77 15.11, 121.92 -0.02 M91.08 35.45 C97.67 27.88, 104.26 20.3, 121.92 -0.02 M96.07 35.81 C105.31 25.18, 114.55 14.55, 126.91 0.34 M96.07 35.81 C105.64 24.81, 115.21 13.8, 126.91 0.34 M101.71 35.42 C113.89 21.41, 126.06 7.41, 132.55 -0.05 M101.71 35.42 C111.26 24.43, 120.82 13.44, 132.55 -0.05 M106.7 35.78 C116.12 24.94, 125.54 14.11, 137.54 0.31 M106.7 35.78 C116.01 25.07, 125.32 14.36, 137.54 0.31 M112.34 35.38 C121.1 25.31, 129.86 15.23, 143.18 -0.09 M112.34 35.38 C120.86 25.59, 129.37 15.79, 143.18 -0.09 M117.33 35.74 C128.58 22.8, 139.83 9.86, 148.17 0.27 M117.33 35.74 C125.32 26.55, 133.31 17.36, 148.17 0.27 M122.97 35.35 C129.95 27.33, 136.92 19.3, 153.81 -0.12 M122.97 35.35 C130.75 26.4, 138.52 17.46, 153.81 -0.12 M127.96 35.71 C135.75 26.74, 143.55 17.78, 158.8 0.24 M127.96 35.71 C139.32 22.64, 150.68 9.57, 158.8 0.24 M133.6 35.31 C145.9 21.17, 158.2 7.02, 164.44 -0.16 M133.6 35.31 C145.04 22.16, 156.48 9, 164.44 -0.16 M138.59 35.67 C146.3 26.81, 154.01 17.94, 169.43 0.2 M138.59 35.67 C145.05 28.24, 151.52 20.81, 169.43 0.2 M144.23 35.28 C153.06 25.13, 161.88 14.98, 175.07 -0.19 M144.23 35.28 C155.31 22.54, 166.38 9.8, 175.07 -0.19 M149.22 35.64 C159.82 23.45, 170.42 11.25, 180.06 0.17 M149.22 35.64 C160.21 23, 171.2 10.36, 180.06 0.17 M154.86 35.25 C163.45 25.37, 172.04 15.49, 185.7 -0.23 M154.86 35.25 C165.27 23.27, 175.68 11.29, 185.7 -0.23 M159.85 35.61 C166.87 27.53, 173.89 19.46, 190.69 0.13 M159.85 35.61 C171.46 22.26, 183.06 8.91, 190.69 0.13 M165.49 35.21 C173.89 25.55, 182.3 15.88, 196.33 -0.26 M165.49 35.21 C172.3 27.39, 179.1 19.56, 196.33 -0.26 M170.48 35.57 C179.77 24.89, 189.05 14.21, 201.32 0.1 M170.48 35.57 C177.59 27.39, 184.7 19.21, 201.32 0.1 M176.12 35.18 C184.48 25.57, 192.83 15.96, 206.96 -0.3 M176.12 35.18 C185.87 23.96, 195.63 12.74, 206.96 -0.3 M181.11 35.54 C189.45 25.95, 197.79 16.35, 211.95 0.06 M181.11 35.54 C189.57 25.81, 198.03 16.08, 211.95 0.06 M186.1 35.9 C198.15 22.03, 210.2 8.17, 217.59 -0.33 M186.1 35.9 C196.37 24.07, 206.65 12.25, 217.59 -0.33 M191.74 35.5 C202.46 23.17, 213.17 10.85, 222.58 0.03 M191.74 35.5 C199.63 26.42, 207.53 17.34, 222.58 0.03 M196.73 35.86 C203.77 27.77, 210.8 19.67, 228.22 -0.36 M196.73 35.86 C207.64 23.31, 218.55 10.75, 228.22 -0.36 M202.37 35.47 C210.11 26.56, 217.85 17.66, 233.21 0 M202.37 35.47 C212.19 24.18, 222 12.89, 233.21 0 M207.36 35.83 C217.06 24.67, 226.76 13.5, 238.19 0.36 M207.36 35.83 C215.57 26.39, 223.77 16.94, 238.19 0.36 M213 35.43 C219.34 28.14, 225.68 20.85, 243.84 -0.04 M213 35.43 C225.25 21.34, 237.5 7.25, 243.84 -0.04 M217.99 35.79 C226.38 26.14, 234.76 16.5, 247.51 1.83 M217.99 35.79 C228.86 23.28, 239.74 10.77, 247.51 1.83 M223.63 35.4 C231.94 25.84, 240.24 16.29, 247.91 7.47 M223.63 35.4 C229.05 29.17, 234.46 22.94, 247.91 7.47 M228.62 35.76 C233.68 29.94, 238.74 24.12, 247.64 13.87 M228.62 35.76 C234.9 28.54, 241.18 21.31, 247.64 13.87 M234.26 35.36 C238.17 30.87, 242.08 26.37, 247.38 20.27 M234.26 35.36 C238.45 30.54, 242.64 25.72, 247.38 20.27 M239.25 35.72 C241.81 32.78, 244.37 29.83, 247.78 25.91 M239.25 35.72 C241.14 33.55, 243.03 31.37, 247.78 25.91 M244.89 35.33 C245.46 34.68, 246.03 34.02, 247.52 32.31 M244.89 35.33 C245.43 34.71, 245.96 34.1, 247.52 32.31" stroke="#fd7e14" stroke-width="0.5" fill="none"></path><path d="M0 0 C72.97 0, 145.94 0, 245.79 0 M0 0 C64.73 0, 129.46 0, 245.79 0 M245.79 0 C245.79 13.03, 245.79 26.06, 245.79 34.73 M245.79 0 C245.79 13.01, 245.79 26.02, 245.79 34.73 M245.79 34.73 C148.69 34.73, 51.59 34.73, 0 34.73 M245.79 34.73 C150.13 34.73, 54.46 34.73, 0 34.73 M0 34.73 C0 24.38, 0 14.03, 0 0 M0 34.73 C0 24.92, 0 15.1, 0 0" stroke="#000000" stroke-width="1" fill="none"></path></g></svg>