<svg version="1.1"
    xmlns="http://www.w3.org/2000/svg" viewBox="0 0 379 373" width="379" height="373">
    <!-- svg-source:excalidraw -->

    <defs>
        <style>
      @font-face {
        font-family: "Virgil";
        src: url("https://excalidraw.com/Virgil.woff2");
      }
      @font-face {
        font-family: "Cascadia";
        src: url("https://excalidraw.com/Cascadia.woff2");
      }
        </style>
    </defs>
    <rect x="0" y="0" width="379" height="373" fill="#ffffff"></rect>
    <g stroke-linecap="round" transform="translate(10 10) rotate(0 179.5 176.5)">
        <path d="M0 0 C128.45 0, 256.89 0, 359 0 M0 0 C88.56 0, 177.13 0, 359 0 M359 0 C359 119.86, 359 239.73, 359 353 M359 0 C359 93.83, 359 187.66, 359 353 M359 353 C248.92 353, 138.84 353, 0 353 M359 353 C261.62 353, 164.24 353, 0 353 M0 353 C0 223.18, 0 93.36, 0 0 M0 353 C0 245.79, 0 138.58, 0 0" stroke="#000000" stroke-width="1" fill="none"></path>
    </g>
    <g transform="translate(50 39) rotate(0 5 12.5)">
        <text x="5" y="18" font-family="Virgil, Segoe UI Emoji" font-size="20px" fill="#000000" text-anchor="middle" style="white-space: pre;" direction="ltr">?</text>
    </g>
    <g transform="translate(331 42) rotate(0 5 12.5)">
        <text x="5" y="18" font-family="Virgil, Segoe UI Emoji" font-size="20px" fill="#000000" text-anchor="middle" style="white-space: pre;" direction="ltr">?</text>
    </g>
    <g transform="translate(311 301) rotate(0 5 12.5)">
        <text x="5" y="18" font-family="Virgil, Segoe UI Emoji" font-size="20px" fill="#000000" text-anchor="middle" style="white-space: pre;" direction="ltr">?</text>
    </g>
    <g transform="translate(161 300.75) rotate(0 19 13)">
        <text x="19" y="19" font-family="Virgil, Segoe UI Emoji" font-size="20px" fill="#000000" text-anchor="middle" style="white-space: pre;" direction="rtl">بھائ</text>
    </g>
    <g transform="translate(32 300.4981818181841) rotate(0 31.5 13)">
        <text x="31.5" y="19" font-family="Virgil, Segoe UI Emoji" font-size="20px" fill="#000000" text-anchor="middle" style="white-space: pre;" direction="rtl">زائد/لاؤ</text>
    </g>
    <g transform="translate(144.50000000000045 42.72728228569031) rotate(0 42.5 13)">
        <text x="42.5" y="19" font-family="Virgil, Segoe UI Emoji" font-size="20px" fill="#000000" text-anchor="middle" style="white-space: pre;" direction="ltr">Humza(ء)</text>
    </g>
    <g transform="translate(169.94766247272491 326.79078912734985) rotate(0 15.5 10)">
        <text x="31" y="14" font-family="Virgil, Segoe UI Emoji" font-size="16px" fill="#000000" text-anchor="end" style="white-space: pre;" direction="ltr">bhai</text>
    </g>
    <g transform="translate(28.947662472724915 326.79078912734985) rotate(0 32.5 10)">
        <text x="65" y="14" font-family="Virgil, Segoe UI Emoji" font-size="16px" fill="#000000" text-anchor="end" style="white-space: pre;" direction="ltr">lao/zaid</text>
    </g>
    <g stroke-linecap="round">
        <g transform="translate(207.9432741903297 103.96286461445561) rotate(23.773197414528557 -20.787607390153994 51.9419714992182)">
            <path d="M0 0 C-7.53 3.54, -35.52 9.55, -45.19 21.25 C-54.86 32.94, -62.7 62.07, -58.05 70.19 C-53.4 78.31, -29.77 72.96, -17.28 69.98 C-4.79 67, 12.92 50.79, 16.91 52.3 C20.89 53.81, 11.25 70.45, 6.62 79.05 C1.99 87.65, -7.96 99.74, -10.87 103.88 M0 0 C-7.53 3.54, -35.52 9.55, -45.19 21.25 C-54.86 32.94, -62.7 62.07, -58.05 70.19 C-53.4 78.31, -29.77 72.96, -17.28 69.98 C-4.79 67, 12.92 50.79, 16.91 52.3 C20.89 53.81, 11.25 70.45, 6.62 79.05 C1.99 87.65, -7.96 99.74, -10.87 103.88" stroke="#000000" stroke-width="1" fill="none"></path>
        </g>
    </g>
</svg>