<svg version="1.1" xmlns="http://www.w3.org/2000/svg" viewBox="0 0 368.00000000000006 364.44444444444434" width="368.00000000000006" height="364.44444444444434">
  <!-- svg-source:excalidraw -->
  
  <defs>
    <style>
      @font-face {
        font-family: "Virgil";
        src: url("../Virgil.woff2");;
      }
      
    </style>
  </defs>
  <rect x="0" y="0" width="368.00000000000006" height="364.44444444444434" fill="#ffffff"></rect><g stroke-linecap="round" transform="translate(10 10) rotate(0 174.00000000000003 172.22222222222217)"><path d="M0 0 C0 0, 0 0, 0 0 M0 0 C0 0, 0 0, 0 0 M-0.26 6.4 C0.98 4.98, 2.21 3.55, 4.99 0.36 M-0.26 6.4 C1.3 4.6, 2.86 2.81, 4.99 0.36 M0.13 12.04 C2.38 9.46, 4.63 6.87, 10.63 -0.03 M0.13 12.04 C4.08 7.5, 8.02 2.96, 10.63 -0.03 M-0.13 18.44 C3.46 14.31, 7.05 10.19, 15.62 0.33 M-0.13 18.44 C3.31 14.48, 6.75 10.53, 15.62 0.33 M0.27 24.08 C5.97 17.52, 11.68 10.95, 21.26 -0.07 M0.27 24.08 C4.9 18.75, 9.54 13.41, 21.26 -0.07 M0 30.48 C10.23 18.72, 20.45 6.95, 26.25 0.29 M0 30.48 C7.78 21.54, 15.55 12.59, 26.25 0.29 M-0.26 36.88 C9.11 26.1, 18.48 15.33, 31.89 -0.1 M-0.26 36.88 C11.19 23.71, 22.64 10.54, 31.89 -0.1 M0.14 42.52 C13.85 26.75, 27.56 10.97, 36.88 0.26 M0.14 42.52 C14.54 25.95, 28.95 9.38, 36.88 0.26 M-0.12 48.92 C14.19 32.45, 28.5 15.99, 42.52 -0.14 M-0.12 48.92 C15.09 31.41, 30.31 13.91, 42.52 -0.14 M0.27 54.56 C9.84 43.56, 19.4 32.55, 47.51 0.22 M0.27 54.56 C11.86 41.23, 23.45 27.89, 47.51 0.22 M0.01 60.96 C18.05 40.2, 36.1 19.44, 53.15 -0.17 M0.01 60.96 C20.01 37.95, 40.01 14.94, 53.15 -0.17 M-0.25 67.36 C15.71 49, 31.67 30.63, 58.14 0.19 M-0.25 67.36 C15.71 48.99, 31.68 30.62, 58.14 0.19 M0.14 73 C19.86 50.31, 39.59 27.62, 63.78 -0.21 M0.14 73 C22.18 47.65, 44.21 22.3, 63.78 -0.21 M-0.12 79.4 C24.23 51.38, 48.58 23.37, 68.77 0.15 M-0.12 79.4 C25.5 49.93, 51.12 20.46, 68.77 0.15 M0.28 85.04 C24.4 57.29, 48.52 29.54, 74.41 -0.24 M0.28 85.04 C28.15 52.97, 56.03 20.9, 74.41 -0.24 M0.01 91.44 C30.38 56.51, 60.75 21.57, 79.4 0.12 M0.01 91.44 C24.97 62.73, 49.92 34.02, 79.4 0.12 M-0.25 97.84 C28.45 64.82, 57.15 31.81, 85.04 -0.28 M-0.25 97.84 C29.9 63.15, 60.06 28.46, 85.04 -0.28 M0.15 103.48 C24.59 75.36, 49.03 47.25, 90.03 0.08 M0.15 103.48 C31.85 67.01, 63.55 30.55, 90.03 0.08 M-0.11 109.88 C34.91 69.59, 69.93 29.3, 95.67 -0.31 M-0.11 109.88 C32.89 71.91, 65.89 33.94, 95.67 -0.31 M0.28 115.52 C30.9 80.3, 61.52 45.08, 100.66 0.05 M0.28 115.52 C22.04 90.49, 43.8 65.45, 100.66 0.05 M0.02 121.92 C32.66 84.37, 65.3 46.82, 106.3 -0.34 M0.02 121.92 C41.8 73.85, 83.59 25.79, 106.3 -0.34 M-0.24 128.32 C37.35 85.07, 74.94 41.82, 111.29 0.02 M-0.24 128.32 C34.86 87.93, 69.96 47.55, 111.29 0.02 M0.15 133.96 C38.14 90.26, 76.12 46.57, 116.27 0.38 M0.15 133.96 C37.47 91.03, 74.79 48.1, 116.27 0.38 M-0.11 140.36 C48.11 84.89, 96.33 29.42, 121.92 -0.02 M-0.11 140.36 C40.49 93.65, 81.09 46.95, 121.92 -0.02 M0.29 146 C33.67 107.6, 67.05 69.2, 126.91 0.34 M0.29 146 C42.01 98, 83.74 50, 126.91 0.34 M0.02 152.4 C36.9 109.98, 73.77 67.56, 132.55 -0.05 M0.02 152.4 C31.17 116.57, 62.31 80.74, 132.55 -0.05 M-0.24 158.8 C30.99 122.88, 62.21 86.96, 137.54 0.31 M-0.24 158.8 C54.31 96.04, 108.87 33.29, 137.54 0.31 M0.16 164.44 C51.24 105.67, 102.33 46.9, 143.18 -0.09 M0.16 164.44 C37.92 120.99, 75.69 77.55, 143.18 -0.09 M-0.1 170.84 C58.88 102.98, 117.87 35.12, 148.17 0.27 M-0.1 170.84 C40.99 123.56, 82.08 76.29, 148.17 0.27 M0.29 176.48 C57.82 110.3, 115.35 44.12, 153.81 -0.12 M0.29 176.48 C52.55 116.36, 104.81 56.24, 153.81 -0.12 M0.03 182.88 C36.7 140.69, 73.37 98.51, 158.8 0.24 M0.03 182.88 C48.89 126.67, 97.75 70.47, 158.8 0.24 M-0.23 189.27 C40.19 142.78, 80.61 96.28, 164.44 -0.16 M-0.23 189.27 C43.04 139.49, 86.32 89.71, 164.44 -0.16 M0.16 194.92 C42.74 145.94, 85.32 96.96, 169.43 0.2 M0.16 194.92 C34.09 155.89, 68.02 116.85, 169.43 0.2 M-0.1 201.32 C44.72 149.76, 89.53 98.21, 175.07 -0.19 M-0.1 201.32 C53.85 139.26, 107.79 77.2, 175.07 -0.19 M0.3 206.96 C46.49 153.82, 92.68 100.69, 180.06 0.17 M0.3 206.96 C44.55 156.05, 88.8 105.14, 180.06 0.17 M0.03 213.36 C49.09 156.92, 98.15 100.49, 185.7 -0.23 M0.03 213.36 C42.9 164.05, 85.76 114.74, 185.7 -0.23 M-0.23 219.75 C60.2 150.24, 120.62 80.73, 190.69 0.13 M-0.23 219.75 C59.7 150.81, 119.63 81.87, 190.69 0.13 M0.17 225.4 C59.18 157.51, 118.2 89.61, 196.33 -0.26 M0.17 225.4 C52.06 165.7, 103.96 105.99, 196.33 -0.26 M-0.09 231.8 C74.7 145.75, 149.5 59.71, 201.32 0.1 M-0.09 231.8 C50.41 173.7, 100.91 115.6, 201.32 0.1 M0.3 237.44 C76.31 150, 152.33 62.55, 206.96 -0.3 M0.3 237.44 C66.48 161.31, 132.66 85.18, 206.96 -0.3 M0.04 243.84 C49.74 186.66, 99.44 129.48, 211.95 0.06 M0.04 243.84 C59.79 175.1, 119.53 106.37, 211.95 0.06 M-0.22 250.23 C51.85 190.33, 103.93 130.42, 217.59 -0.33 M-0.22 250.23 C84.11 153.22, 168.44 56.2, 217.59 -0.33 M0.17 255.88 C87.13 155.84, 174.08 55.81, 222.58 0.03 M0.17 255.88 C47.07 201.92, 93.97 147.97, 222.58 0.03 M-0.09 262.27 C59.39 193.85, 118.87 125.43, 228.22 -0.36 M-0.09 262.27 C75.9 174.86, 151.89 87.44, 228.22 -0.36 M0.3 267.92 C92.87 161.43, 185.44 54.94, 233.21 0 M0.3 267.92 C51.32 209.23, 102.33 150.55, 233.21 0 M0.04 274.32 C83.35 178.48, 166.66 82.64, 238.19 0.36 M0.04 274.32 C72.15 191.37, 144.26 108.42, 238.19 0.36 M-0.22 280.71 C68.76 201.37, 137.73 122.02, 243.84 -0.04 M-0.22 280.71 C64.71 206.02, 129.64 131.33, 243.84 -0.04 M0.18 286.36 C98.79 172.91, 197.41 59.46, 248.82 0.32 M0.18 286.36 C79.91 194.64, 159.64 102.92, 248.82 0.32 M-0.08 292.75 C88.25 191.13, 176.59 89.51, 254.47 -0.07 M-0.08 292.75 C73.64 207.94, 147.36 123.13, 254.47 -0.07 M0.31 298.4 C68.3 220.18, 136.29 141.97, 259.45 0.29 M0.31 298.4 C75.02 212.45, 149.73 126.51, 259.45 0.29 M0.05 304.8 C96.28 194.09, 192.52 83.38, 265.1 -0.11 M0.05 304.8 C54.56 242.09, 109.07 179.38, 265.1 -0.11 M-0.21 311.19 C102.61 192.91, 205.44 74.62, 270.08 0.25 M-0.21 311.19 C104.02 191.29, 208.25 71.38, 270.08 0.25 M0.18 316.84 C103.53 197.95, 206.88 79.06, 275.73 -0.14 M0.18 316.84 C85.09 219.15, 170.01 121.47, 275.73 -0.14 M-0.08 323.23 C99.88 208.24, 199.85 93.24, 280.71 0.22 M-0.08 323.23 C75.93 235.8, 151.94 148.36, 280.71 0.22 M0.31 328.88 C85.89 230.44, 171.46 132, 286.36 -0.18 M0.31 328.88 C77.33 240.29, 154.34 151.7, 286.36 -0.18 M0.05 335.27 C106.73 212.56, 213.41 89.84, 291.34 0.18 M0.05 335.27 C81.52 241.55, 162.99 147.83, 291.34 0.18 M-0.21 341.67 C95.9 231.12, 192 120.56, 296.99 -0.21 M-0.21 341.67 C100.57 225.74, 201.35 109.8, 296.99 -0.21 M1.5 345.81 C109.68 221.35, 217.87 96.9, 301.97 0.15 M1.5 345.81 C69.68 267.37, 137.86 188.94, 301.97 0.15 M7.14 345.41 C99.58 239.07, 192.02 132.74, 307.62 -0.25 M7.14 345.41 C111.16 225.76, 215.17 106.1, 307.62 -0.25 M12.13 345.77 C89.75 256.48, 167.36 167.19, 312.6 0.11 M12.13 345.77 C73.67 274.98, 135.21 204.18, 312.6 0.11 M17.12 346.13 C132.67 213.2, 248.22 80.27, 318.25 -0.28 M17.12 346.13 C106.52 243.28, 195.93 140.43, 318.25 -0.28 M22.76 345.74 C129.06 223.45, 235.36 101.17, 323.23 0.08 M22.76 345.74 C138.12 213.03, 253.48 80.32, 323.23 0.08 M27.75 346.1 C134.74 223.01, 241.74 99.92, 328.88 -0.31 M27.75 346.1 C140.96 215.86, 254.16 85.63, 328.88 -0.31 M33.39 345.7 C126.84 238.2, 220.29 130.7, 333.86 0.05 M33.39 345.7 C97.37 272.1, 161.36 198.49, 333.86 0.05 M38.38 346.06 C128.1 242.85, 217.82 139.64, 339.51 -0.35 M38.38 346.06 C142.57 226.2, 246.77 106.33, 339.51 -0.35 M44.02 345.67 C154.14 218.99, 264.27 92.3, 344.49 0.01 M44.02 345.67 C109.72 270.08, 175.43 194.5, 344.49 0.01 M49.01 346.03 C156.64 222.2, 264.28 98.38, 348.82 1.13 M49.01 346.03 C153.35 226, 257.69 105.97, 348.82 1.13 M54.65 345.63 C151.44 234.29, 248.23 122.94, 349.22 6.77 M54.65 345.63 C115.34 275.81, 176.04 205.99, 349.22 6.77 M59.64 345.99 C163.16 226.9, 266.68 107.82, 348.96 13.17 M59.64 345.99 C146.69 245.84, 233.75 145.7, 348.96 13.17 M65.28 345.6 C172.52 222.23, 279.76 98.87, 349.35 18.81 M65.28 345.6 C138.6 261.25, 211.92 176.9, 349.35 18.81 M70.27 345.96 C177.75 222.31, 285.24 98.66, 349.09 25.21 M70.27 345.96 C154.42 249.15, 238.58 152.34, 349.09 25.21 M75.91 345.56 C148.33 262.25, 220.75 178.94, 348.83 31.61 M75.91 345.56 C167.63 240.06, 259.34 134.55, 348.83 31.61 M80.9 345.92 C135.94 282.61, 190.98 219.29, 349.22 37.25 M80.9 345.92 C141.54 276.16, 202.18 206.4, 349.22 37.25 M86.54 345.53 C169.49 250.1, 252.45 154.68, 348.96 43.65 M86.54 345.53 C159.81 261.25, 233.07 176.96, 348.96 43.65 M91.53 345.89 C156.23 271.46, 220.93 197.03, 348.7 50.04 M91.53 345.89 C175.58 249.2, 259.63 152.51, 348.7 50.04 M97.17 345.5 C154 280.11, 210.84 214.73, 349.1 55.69 M97.17 345.5 C148.8 286.1, 200.43 226.71, 349.1 55.69 M102.16 345.86 C159.31 280.11, 216.46 214.37, 348.83 62.08 M102.16 345.86 C160.32 278.95, 218.47 212.05, 348.83 62.08 M107.8 345.46 C170.95 272.81, 234.11 200.16, 349.23 67.73 M107.8 345.46 C182.37 259.68, 256.94 173.89, 349.23 67.73 M112.79 345.82 C189.32 257.77, 265.86 169.73, 348.97 74.13 M112.79 345.82 C198.39 247.34, 284 148.86, 348.97 74.13 M118.43 345.43 C179.14 275.59, 239.85 205.75, 348.71 80.52 M118.43 345.43 C179.37 275.32, 240.32 205.21, 348.71 80.52 M123.42 345.79 C209.01 247.32, 294.61 148.85, 349.1 86.17 M123.42 345.79 C189.92 269.29, 256.42 192.79, 349.1 86.17 M128.4 346.15 C182.02 284.47, 235.64 222.79, 348.84 92.56 M128.4 346.15 C177.8 289.32, 227.2 232.49, 348.84 92.56 M134.05 345.75 C202.85 266.6, 271.65 187.46, 349.23 98.21 M134.05 345.75 C219.74 247.18, 305.43 148.6, 349.23 98.21 M139.03 346.11 C219.6 253.44, 300.16 160.76, 348.97 104.61 M139.03 346.11 C184.62 293.67, 230.21 241.23, 348.97 104.61 M144.68 345.72 C213.99 265.98, 283.3 186.24, 348.71 111 M144.68 345.72 C188.98 294.75, 233.28 243.79, 348.71 111 M149.66 346.08 C197.6 290.93, 245.54 235.78, 349.11 116.65 M149.66 346.08 C219.83 265.36, 290 184.63, 349.11 116.65 M155.31 345.68 C214.41 277.69, 273.52 209.7, 348.84 123.04 M155.31 345.68 C208.24 284.79, 261.18 223.89, 348.84 123.04 M160.29 346.04 C224.58 272.09, 288.86 198.15, 349.24 128.69 M160.29 346.04 C200.8 299.45, 241.3 252.86, 349.24 128.69 M165.94 345.65 C230.88 270.94, 295.82 196.24, 348.98 135.08 M165.94 345.65 C214.92 289.3, 263.91 232.94, 348.98 135.08 M170.92 346.01 C238.89 267.82, 306.85 189.64, 348.72 141.48 M170.92 346.01 C218.75 290.99, 266.58 235.97, 348.72 141.48 M176.57 345.61 C227.96 286.5, 279.34 227.38, 349.11 147.13 M176.57 345.61 C224.5 290.47, 272.44 235.32, 349.11 147.13 M181.55 345.97 C221.26 300.29, 260.98 254.61, 348.85 153.52 M181.55 345.97 C224.76 296.27, 267.96 246.57, 348.85 153.52 M187.2 345.58 C222.25 305.26, 257.3 264.94, 349.24 159.17 M187.2 345.58 C245.63 278.36, 304.07 211.13, 349.24 159.17 M192.18 345.94 C246.79 283.12, 301.39 220.31, 348.98 165.56 M192.18 345.94 C223.95 309.39, 255.72 272.85, 348.98 165.56 M197.83 345.55 C237.64 299.75, 277.45 253.94, 348.72 171.96 M197.83 345.55 C250.73 284.69, 303.63 223.83, 348.72 171.96 M202.81 345.91 C251.02 290.45, 299.22 235, 349.12 177.61 M202.81 345.91 C232.19 312.11, 261.57 278.32, 349.12 177.61 M208.46 345.51 C245.81 302.54, 283.16 259.58, 348.85 184 M208.46 345.51 C245.04 303.43, 281.61 261.35, 348.85 184 M213.44 345.87 C263.36 288.45, 313.28 231.02, 349.25 189.65 M213.44 345.87 C244.62 310.01, 275.8 274.14, 349.25 189.65 M219.09 345.48 C260.69 297.62, 302.29 249.76, 348.99 196.04 M219.09 345.48 C255.63 303.44, 292.16 261.41, 348.99 196.04 M224.07 345.84 C251.61 314.16, 279.14 282.49, 348.73 202.44 M224.07 345.84 C266.94 296.52, 309.81 247.21, 348.73 202.44 M229.72 345.44 C276.98 291.08, 324.23 236.71, 349.12 208.08 M229.72 345.44 C275.31 292.99, 320.9 240.54, 349.12 208.08 M234.7 345.8 C259.77 316.97, 284.84 288.13, 348.86 214.48 M234.7 345.8 C266.31 309.45, 297.91 273.09, 348.86 214.48 M240.35 345.41 C276.7 303.59, 313.06 261.76, 349.25 220.13 M240.35 345.41 C274.04 306.65, 307.72 267.9, 349.25 220.13 M245.33 345.77 C272.89 314.07, 300.44 282.37, 348.99 226.52 M245.33 345.77 C270.17 317.2, 295 288.63, 348.99 226.52 M250.32 346.13 C274.67 318.12, 299.01 290.12, 348.73 232.92 M250.32 346.13 C288.6 302.09, 326.88 258.05, 348.73 232.92 M255.96 345.73 C277.72 320.7, 299.48 295.67, 349.12 238.56 M255.96 345.73 C285.91 311.29, 315.85 276.85, 349.12 238.56 M260.95 346.09 C289.2 313.59, 317.46 281.09, 348.86 244.96 M260.95 346.09 C289.45 313.31, 317.95 280.52, 348.86 244.96 M266.59 345.7 C297.07 310.64, 327.54 275.59, 349.26 250.6 M266.59 345.7 C290.55 318.15, 314.5 290.59, 349.26 250.6 M271.58 346.06 C288.04 327.13, 304.5 308.2, 349 257 M271.58 346.06 C302.27 310.75, 332.96 275.45, 349 257 M277.22 345.66 C297.87 321.91, 318.52 298.15, 348.74 263.4 M277.22 345.66 C305.13 313.57, 333.03 281.47, 348.74 263.4 M282.21 346.02 C298.92 326.8, 315.63 307.58, 349.13 269.04 M282.21 346.02 C299.97 325.6, 317.72 305.17, 349.13 269.04 M287.85 345.63 C311.26 318.71, 334.66 291.78, 348.87 275.44 M287.85 345.63 C308.99 321.32, 330.12 297.01, 348.87 275.44 M292.84 345.99 C306 330.85, 319.16 315.72, 349.26 281.08 M292.84 345.99 C313.64 322.06, 334.44 298.14, 349.26 281.08 M298.48 345.59 C309.32 333.13, 320.16 320.66, 349 287.48 M298.48 345.59 C316.68 324.67, 334.87 303.74, 349 287.48 M303.47 345.95 C314.14 333.69, 324.8 321.42, 348.74 293.88 M303.47 345.95 C318.06 329.18, 332.64 312.4, 348.74 293.88 M309.11 345.56 C321.72 331.06, 334.33 316.56, 349.13 299.52 M309.11 345.56 C321.58 331.23, 334.04 316.89, 349.13 299.52 M314.1 345.92 C321.09 337.88, 328.08 329.84, 348.87 305.92 M314.1 345.92 C325.23 333.12, 336.36 320.32, 348.87 305.92 M319.75 345.53 C331.26 332.28, 342.78 319.02, 349.27 311.56 M319.75 345.53 C330.32 333.36, 340.89 321.2, 349.27 311.56 M324.73 345.89 C333.13 336.23, 341.52 326.57, 349.01 317.96 M324.73 345.89 C332.85 336.55, 340.96 327.22, 349.01 317.96 M330.38 345.49 C336.2 338.79, 342.03 332.09, 348.74 324.36 M330.38 345.49 C336.56 338.38, 342.75 331.26, 348.74 324.36 M335.36 345.85 C340.29 340.18, 345.22 334.51, 349.14 330 M335.36 345.85 C339.7 340.86, 344.04 335.86, 349.14 330 M341.01 345.46 C343.72 342.33, 346.44 339.21, 348.88 336.4 M341.01 345.46 C343.85 342.18, 346.69 338.91, 348.88 336.4 M345.99 345.82 C347.3 344.32, 348.6 342.82, 349.27 342.04 M345.99 345.82 C347.27 344.34, 348.56 342.87, 349.27 342.04" stroke="#fff" stroke-width="0.5" fill="none"></path><path d="M0 0 C90.01 0, 180.02 0, 348 0 M0 0 C104.87 0, 209.73 0, 348 0 M348 0 C348 72.72, 348 145.44, 348 344.44 M348 0 C348 93.73, 348 187.47, 348 344.44 M348 344.44 C246.8 344.44, 145.6 344.44, 0 344.44 M348 344.44 C227.6 344.44, 107.2 344.44, 0 344.44 M0 344.44 C0 229.8, 0 115.16, 0 0 M0 344.44 C0 223.77, 0 103.1, 0 0" stroke="#000000" stroke-width="1" fill="none"></path></g><g transform="translate(33.77777777777777 77.66666666666652) rotate(0 155.5 37.5)"><text x="0" y="18" font-family="Virgil, Segoe UI Emoji" font-size="20px" fill="#000000" text-anchor="start" style="white-space: pre;" direction="ltr">let's make them letters</text><text x="0" y="43" font-family="Virgil, Segoe UI Emoji" font-size="20px" fill="#000000" text-anchor="start" style="white-space: pre;" direction="ltr">bulky or heavy using this symbol</text><text x="0" y="68" font-family="Virgil, Segoe UI Emoji" font-size="20px" fill="#000000" text-anchor="start" style="white-space: pre;" direction="ltr">looks like </text></g><g transform="translate(125.17900864283246 129.0952636665761) rotate(0 20 13)"><text x="0" y="19" font-family="Virgil, Segoe UI Emoji" font-size="20px" fill="#e67700" text-anchor="end" style="white-space: pre;" direction="rtl"> ط </text></g><g transform="translate(42.11496498849607 173.65081922213176) rotate(0 125.5 13)"><text x="125.5" y="19" font-family="Virgil, Segoe UI Emoji" font-size="20px" fill="#000000" text-anchor="middle" style="white-space: pre;" direction="ltr">(soft t)+ط = Ṭ(Hard T) </text></g><g transform="translate(80.65242650773763 211.89931220478593) rotate(0 103.5 13)"><text x="103.5" y="19" font-family="Virgil, Segoe UI Emoji" font-size="20px" fill="#000000" text-anchor="middle" style="white-space: pre;" direction="ltr">daal+ط = Ḍ(Hard D)</text></g><g transform="translate(96.58859743012277 250.09279168976946) rotate(0 61 13)"><text x="61" y="19" font-family="Virgil, Segoe UI Emoji" font-size="20px" fill="#000000" text-anchor="middle" style="white-space: pre;" direction="ltr">ray+ط = AṚ</text></g><g transform="translate(88.18050893147785 37.17580676070429) rotate(0 81.5 12.5)"><text x="0" y="18" font-family="Virgil, Segoe UI Emoji" font-size="20px" fill="#000000" text-anchor="start" style="white-space: pre;" direction="ltr">How to remember</text></g><g transform="translate(72.40123086505463 321.4285969999096) rotate(0 135 12.5)"><text x="0" y="18" font-family="Virgil, Segoe UI Emoji" font-size="20px" fill="#000000" text-anchor="start" style="white-space: pre;" direction="ltr">toye letter looks the same</text></g><g transform="translate(31.124953375922303 321.12025120514863) rotate(0 20 13)"><text x="0" y="19" font-family="Virgil, Segoe UI Emoji" font-size="20px" fill="#e67700" text-anchor="end" style="white-space: pre;" direction="rtl"> ط </text></g></svg>