<svg version="1.1" xmlns="http://www.w3.org/2000/svg" viewBox="0 0 386.66666666666674 358.8888888888887" width="386.66666666666674" height="358.8888888888887">
  <!-- svg-source:excalidraw -->
  
  <defs>
    <style>
      @font-face {
        font-family: "Virgil";
        src: url("https://excalidraw.com/Virgil.woff2");
      }
      @font-face {
        font-family: "Cascadia";
        src: url("https://excalidraw.com/Cascadia.woff2");
      }
    </style>
  </defs>
  <rect x="0" y="0" width="386.66666666666674" height="358.8888888888887" fill="#ffffff"></rect><g stroke-linecap="round" transform="translate(10 10) rotate(0 183.33333333333337 169.44444444444434)"><path d="M0 0 C0 0, 0 0, 0 0 M0 0 C0 0, 0 0, 0 0 M-0.26 6.4 C1.24 4.68, 2.73 2.95, 4.99 0.36 M-0.26 6.4 C1.68 4.16, 3.62 1.93, 4.99 0.36 M0.13 12.04 C2.56 9.25, 4.99 6.45, 10.63 -0.03 M0.13 12.04 C3.06 8.68, 5.98 5.31, 10.63 -0.03 M-0.13 18.44 C5.15 12.37, 10.42 6.3, 15.62 0.33 M-0.13 18.44 C3.45 14.33, 7.02 10.22, 15.62 0.33 M0.27 24.08 C7.58 15.67, 14.89 7.26, 21.26 -0.07 M0.27 24.08 C7.83 15.38, 15.39 6.69, 21.26 -0.07 M0 30.48 C7.35 22.02, 14.7 13.57, 26.25 0.29 M0 30.48 C7.91 21.38, 15.82 12.29, 26.25 0.29 M-0.26 36.88 C7.8 27.61, 15.86 18.34, 31.89 -0.1 M-0.26 36.88 C7.74 27.67, 15.74 18.47, 31.89 -0.1 M0.14 42.52 C9.09 32.22, 18.05 21.92, 36.88 0.26 M0.14 42.52 C13.86 26.73, 27.59 10.94, 36.88 0.26 M-0.12 48.92 C15.23 31.26, 30.58 13.6, 42.52 -0.14 M-0.12 48.92 C13.32 33.46, 26.75 18, 42.52 -0.14 M0.27 54.56 C17.75 34.45, 35.24 14.34, 47.51 0.22 M0.27 54.56 C18.18 33.96, 36.09 13.35, 47.51 0.22 M0.01 60.96 C19.56 38.47, 39.11 15.98, 53.15 -0.17 M0.01 60.96 C12.45 46.65, 24.89 32.33, 53.15 -0.17 M-0.25 67.36 C18.63 45.63, 37.52 23.91, 58.14 0.19 M-0.25 67.36 C17.74 46.66, 35.73 25.97, 58.14 0.19 M0.14 73 C21.54 48.38, 42.94 23.77, 63.78 -0.21 M0.14 73 C18.33 52.08, 36.51 31.17, 63.78 -0.21 M-0.12 79.4 C26.63 48.63, 53.38 17.85, 68.77 0.15 M-0.12 79.4 C20.9 55.22, 41.91 31.05, 68.77 0.15 M0.28 85.04 C29.73 51.16, 59.19 17.27, 74.41 -0.24 M0.28 85.04 C19.14 63.34, 38 41.64, 74.41 -0.24 M0.01 91.44 C29.36 57.68, 58.71 23.92, 79.4 0.12 M0.01 91.44 C29.34 57.7, 58.67 23.97, 79.4 0.12 M-0.25 97.84 C21.39 72.95, 43.02 48.06, 85.04 -0.28 M-0.25 97.84 C27.86 65.5, 55.97 33.17, 85.04 -0.28 M0.15 103.48 C26.46 73.22, 52.76 42.95, 90.03 0.08 M0.15 103.48 C23.09 77.08, 46.04 50.69, 90.03 0.08 M-0.11 109.88 C26.53 79.22, 53.18 48.57, 95.67 -0.31 M-0.11 109.88 C19.52 87.3, 39.15 64.71, 95.67 -0.31 M0.28 115.52 C30.69 80.54, 61.1 45.56, 100.66 0.05 M0.28 115.52 C37.56 72.63, 74.84 29.74, 100.66 0.05 M0.02 121.92 C22.77 95.75, 45.52 69.57, 106.3 -0.34 M0.02 121.92 C40.32 75.55, 80.63 29.19, 106.3 -0.34 M-0.24 128.32 C40.6 81.33, 81.45 34.34, 111.29 0.02 M-0.24 128.32 C31.13 92.23, 62.49 56.15, 111.29 0.02 M0.15 133.96 C32.06 97.25, 63.97 60.55, 116.27 0.38 M0.15 133.96 C29.85 99.8, 59.54 65.64, 116.27 0.38 M-0.11 140.36 C44.89 88.59, 89.89 36.83, 121.92 -0.02 M-0.11 140.36 C24.66 111.87, 49.42 83.38, 121.92 -0.02 M0.29 146 C31.2 110.44, 62.12 74.87, 126.91 0.34 M0.29 146 C30.97 110.7, 61.66 75.39, 126.91 0.34 M0.02 152.4 C28.78 119.32, 57.53 86.24, 132.55 -0.05 M0.02 152.4 C41.01 105.24, 82.01 58.09, 132.55 -0.05 M-0.24 158.8 C51.61 99.15, 103.46 39.51, 137.54 0.31 M-0.24 158.8 C34.46 118.88, 69.17 78.96, 137.54 0.31 M0.16 164.44 C48.45 108.89, 96.74 53.34, 143.18 -0.09 M0.16 164.44 C32.75 126.95, 65.34 89.46, 143.18 -0.09 M-0.1 170.84 C43.74 120.4, 87.59 69.96, 148.17 0.27 M-0.1 170.84 C29.79 136.45, 59.68 102.07, 148.17 0.27 M0.29 176.48 C58.3 109.74, 116.31 43.01, 153.81 -0.12 M0.29 176.48 C52.61 116.29, 104.93 56.1, 153.81 -0.12 M0.03 182.88 C47.2 128.62, 94.37 74.35, 158.8 0.24 M0.03 182.88 C49.81 125.61, 99.6 68.34, 158.8 0.24 M-0.23 189.27 C50.01 131.48, 100.25 73.69, 164.44 -0.16 M-0.23 189.27 C46.71 135.28, 93.65 81.28, 164.44 -0.16 M0.16 194.92 C41.72 147.11, 83.27 99.31, 169.43 0.2 M0.16 194.92 C36.47 153.15, 72.79 111.37, 169.43 0.2 M-0.1 201.32 C53.68 139.45, 107.45 77.59, 175.07 -0.19 M-0.1 201.32 C44.07 150.5, 88.24 99.69, 175.07 -0.19 M0.3 206.96 C49.97 149.81, 99.65 92.67, 180.06 0.17 M0.3 206.96 C42.7 158.18, 85.11 109.4, 180.06 0.17 M0.03 213.36 C54.18 151.07, 108.32 88.79, 185.7 -0.23 M0.03 213.36 C53.58 151.76, 107.12 90.17, 185.7 -0.23 M-0.23 219.75 C56.15 154.9, 112.52 90.06, 190.69 0.13 M-0.23 219.75 C59.68 150.84, 119.58 81.93, 190.69 0.13 M0.17 225.4 C76.14 138, 152.12 50.6, 196.33 -0.26 M0.17 225.4 C77.59 136.33, 155.01 47.27, 196.33 -0.26 M-0.09 231.8 C55.96 167.31, 112.02 102.82, 201.32 0.1 M-0.09 231.8 C58.11 164.84, 116.31 97.88, 201.32 0.1 M0.3 237.44 C50.46 179.73, 100.62 122.03, 206.96 -0.3 M0.3 237.44 C47.15 183.54, 94 129.65, 206.96 -0.3 M0.04 243.84 C78.82 153.2, 157.61 62.57, 211.95 0.06 M0.04 243.84 C43.9 193.38, 87.76 142.93, 211.95 0.06 M-0.22 250.23 C70.97 168.34, 142.15 86.45, 217.59 -0.33 M-0.22 250.23 C85.76 151.32, 171.75 52.4, 217.59 -0.33 M0.17 255.88 C87.42 155.51, 174.67 55.14, 222.58 0.03 M0.17 255.88 C48.64 200.12, 97.11 144.36, 222.58 0.03 M-0.09 262.27 C52.18 202.15, 104.44 142.03, 228.22 -0.36 M-0.09 262.27 C82.99 166.7, 166.08 71.12, 228.22 -0.36 M0.3 267.92 C76.42 180.36, 152.53 92.8, 233.21 0 M0.3 267.92 C64.75 193.78, 129.2 119.64, 233.21 0 M0.04 274.32 C85.44 176.08, 170.84 77.84, 238.19 0.36 M0.04 274.32 C84.3 177.39, 168.56 80.46, 238.19 0.36 M-0.22 280.71 C56.53 215.43, 113.29 150.14, 243.84 -0.04 M-0.22 280.71 C59.06 212.53, 118.33 144.34, 243.84 -0.04 M0.18 286.36 C61.27 216.07, 122.37 145.79, 248.82 0.32 M0.18 286.36 C59.56 218.04, 118.95 149.72, 248.82 0.32 M-0.08 292.75 C85.72 194.05, 171.52 95.35, 254.47 -0.07 M-0.08 292.75 C96.81 181.29, 193.7 69.83, 254.47 -0.07 M0.31 298.4 C62.65 226.69, 124.99 154.97, 259.45 0.29 M0.31 298.4 C64.61 224.43, 128.9 150.47, 259.45 0.29 M0.05 304.8 C89.71 201.65, 179.37 98.51, 265.1 -0.11 M0.05 304.8 C68.68 225.85, 137.3 146.9, 265.1 -0.11 M-0.21 311.19 C57.53 244.77, 115.27 178.35, 270.08 0.25 M-0.21 311.19 C71.52 228.68, 143.25 146.16, 270.08 0.25 M0.18 316.84 C84.04 220.36, 167.91 123.89, 275.73 -0.14 M0.18 316.84 C69.44 237.17, 138.69 157.5, 275.73 -0.14 M-0.08 323.23 C71.74 240.62, 143.55 158, 280.71 0.22 M-0.08 323.23 C92.33 216.93, 184.73 110.63, 280.71 0.22 M0.31 328.88 C107.23 205.88, 214.15 82.88, 286.36 -0.18 M0.31 328.88 C67.88 251.16, 135.44 173.44, 286.36 -0.18 M0.05 335.27 C110.2 208.56, 220.35 81.85, 291.34 0.18 M0.05 335.27 C96.87 223.89, 193.7 112.51, 291.34 0.18 M1.1 340.16 C76.67 253.23, 152.24 166.3, 296.99 -0.21 M1.1 340.16 C88.82 239.26, 176.54 138.35, 296.99 -0.21 M6.75 339.77 C69.4 267.7, 132.05 195.62, 301.97 0.15 M6.75 339.77 C102.13 230.04, 197.52 120.31, 301.97 0.15 M11.73 340.13 C108.88 228.37, 206.03 116.62, 307.62 -0.25 M11.73 340.13 C76.77 265.31, 141.81 190.5, 307.62 -0.25 M17.38 339.73 C108.83 234.53, 200.29 129.32, 312.6 0.11 M17.38 339.73 C77.52 270.54, 137.67 201.35, 312.6 0.11 M22.36 340.09 C123.55 223.69, 224.74 107.28, 318.25 -0.28 M22.36 340.09 C140.3 204.42, 258.24 68.75, 318.25 -0.28 M28.01 339.7 C99.72 257.2, 171.44 174.7, 323.23 0.08 M28.01 339.7 C96.35 261.08, 164.7 182.46, 323.23 0.08 M32.99 340.06 C126.54 232.45, 220.08 124.84, 328.88 -0.31 M32.99 340.06 C130.6 227.78, 228.2 115.5, 328.88 -0.31 M38.64 339.66 C128.4 236.41, 218.16 133.15, 333.86 0.05 M38.64 339.66 C132.6 231.57, 226.57 123.47, 333.86 0.05 M43.62 340.02 C114.89 258.04, 186.16 176.06, 339.51 -0.35 M43.62 340.02 C136.94 232.68, 230.25 125.34, 339.51 -0.35 M49.27 339.63 C110.05 269.71, 170.83 199.79, 344.49 0.01 M49.27 339.63 C146.89 227.33, 244.51 115.03, 344.49 0.01 M54.25 339.99 C165.41 212.12, 276.57 84.25, 349.48 0.37 M54.25 339.99 C160.98 217.21, 267.71 94.44, 349.48 0.37 M59.24 340.35 C172.11 210.51, 284.97 80.68, 355.12 -0.02 M59.24 340.35 C174.61 207.64, 289.98 74.92, 355.12 -0.02 M64.88 339.96 C169.33 219.81, 273.78 99.65, 360.11 0.34 M64.88 339.96 C147.37 245.06, 229.86 150.17, 360.11 0.34 M69.87 340.32 C153.93 243.61, 238 146.91, 365.75 -0.06 M69.87 340.32 C179.93 213.71, 289.99 87.1, 365.75 -0.06 M75.51 339.92 C155.95 247.39, 236.39 154.86, 369.43 1.81 M75.51 339.92 C188.63 209.8, 301.74 79.68, 369.43 1.81 M80.5 340.28 C163.49 244.81, 246.49 149.34, 369.17 8.21 M80.5 340.28 C140.39 271.38, 200.28 202.49, 369.17 8.21 M86.14 339.89 C144.82 272.39, 203.49 204.89, 368.91 14.61 M86.14 339.89 C198.77 210.32, 311.4 80.76, 368.91 14.61 M91.13 340.25 C198.4 216.85, 305.66 93.46, 369.3 20.25 M91.13 340.25 C197.33 218.08, 303.52 95.92, 369.3 20.25 M96.77 339.85 C177.61 246.86, 258.44 153.88, 369.04 26.65 M96.77 339.85 C190.7 231.8, 284.63 123.75, 369.04 26.65 M101.76 340.21 C180.11 250.08, 258.46 159.95, 369.43 32.29 M101.76 340.21 C164.62 267.9, 227.48 195.58, 369.43 32.29 M107.4 339.82 C173.84 263.4, 240.27 186.97, 369.17 38.69 M107.4 339.82 C174.08 263.11, 240.76 186.41, 369.17 38.69 M112.39 340.18 C200.48 238.85, 288.56 137.51, 368.91 45.09 M112.39 340.18 C179.45 263.03, 246.51 185.89, 368.91 45.09 M118.03 339.78 C183.47 264.51, 248.91 189.23, 369.31 50.73 M118.03 339.78 C183.88 264.03, 249.73 188.29, 369.31 50.73 M123.02 340.14 C219.6 229.04, 316.18 117.94, 369.04 57.13 M123.02 340.14 C174.91 280.46, 226.79 220.77, 369.04 57.13 M128.66 339.75 C193.53 265.13, 258.39 190.52, 369.44 62.77 M128.66 339.75 C202.4 254.93, 276.13 170.11, 369.44 62.77 M133.65 340.11 C207.95 254.64, 282.25 169.16, 369.18 69.17 M133.65 340.11 C224.88 235.17, 316.1 130.23, 369.18 69.17 M139.3 339.71 C208.99 259.54, 278.69 179.36, 368.92 75.57 M139.3 339.71 C192.38 278.65, 245.46 217.59, 368.92 75.57 M144.28 340.07 C213.5 260.45, 282.72 180.82, 369.31 81.21 M144.28 340.07 C222.92 249.61, 301.57 159.14, 369.31 81.21 M149.93 339.68 C227.95 249.93, 305.97 160.17, 369.05 87.61 M149.93 339.68 C212.48 267.72, 275.03 195.76, 369.05 87.61 M154.91 340.04 C237.47 245.07, 320.03 150.09, 369.44 93.25 M154.91 340.04 C200.14 288.01, 245.36 235.99, 369.44 93.25 M160.56 339.65 C221.16 269.93, 281.76 200.22, 369.18 99.65 M160.56 339.65 C206.96 286.26, 253.37 232.87, 369.18 99.65 M165.54 340.01 C223.16 273.72, 280.78 207.44, 368.92 106.05 M165.54 340.01 C234.58 260.58, 303.62 181.16, 368.92 106.05 M171.19 339.61 C238.66 261.99, 306.14 184.36, 369.32 111.69 M171.19 339.61 C210.82 294.01, 250.46 248.42, 369.32 111.69 M176.17 339.97 C245.52 260.2, 314.86 180.43, 369.05 118.09 M176.17 339.97 C225.99 282.66, 275.81 225.36, 369.05 118.09 M181.16 340.33 C220.79 294.74, 260.43 249.14, 369.45 123.73 M181.16 340.33 C234.07 279.47, 286.97 218.6, 369.45 123.73 M186.8 339.94 C239.73 279.05, 292.66 218.16, 369.19 130.13 M186.8 339.94 C249.68 267.61, 312.55 195.28, 369.19 130.13 M191.79 340.3 C258.16 263.95, 324.53 187.6, 368.93 136.53 M191.79 340.3 C250.71 272.52, 309.62 204.75, 368.93 136.53 M197.43 339.9 C261.46 266.25, 325.49 192.59, 369.32 142.17 M197.43 339.9 C254.34 274.44, 311.25 208.97, 369.32 142.17 M202.42 340.26 C265.39 267.82, 328.36 195.39, 369.06 148.57 M202.42 340.26 C256.9 277.59, 311.38 214.92, 369.06 148.57 M208.06 339.87 C244.18 298.32, 280.3 256.77, 369.45 154.21 M208.06 339.87 C241.01 301.96, 273.96 264.06, 369.45 154.21 M213.05 340.23 C265.38 280.03, 317.71 219.83, 369.19 160.61 M213.05 340.23 C250.64 296.99, 288.22 253.75, 369.19 160.61 M218.69 339.83 C261.03 291.13, 303.37 242.42, 368.93 167 M218.69 339.83 C264.6 287.02, 310.51 234.21, 368.93 167 M223.68 340.19 C257.45 301.35, 291.22 262.5, 369.32 172.65 M223.68 340.19 C275.44 280.65, 327.2 221.1, 369.32 172.65 M229.32 339.8 C271.89 290.84, 314.45 241.87, 369.06 179.05 M229.32 339.8 C261.68 302.57, 294.04 265.35, 369.06 179.05 M234.31 340.16 C264.54 305.38, 294.78 270.6, 369.46 184.69 M234.31 340.16 C282.56 284.65, 330.82 229.14, 369.46 184.69 M239.95 339.76 C274.91 299.55, 309.86 259.34, 369.2 191.09 M239.95 339.76 C283.01 290.23, 326.06 240.71, 369.2 191.09 M244.94 340.12 C286.69 292.1, 328.44 244.07, 368.93 197.48 M244.94 340.12 C274.26 306.39, 303.58 272.66, 368.93 197.48 M250.58 339.73 C283.6 301.74, 316.62 263.76, 369.33 203.13 M250.58 339.73 C276.22 310.24, 301.85 280.75, 369.33 203.13 M255.57 340.09 C297.24 292.15, 338.91 244.22, 369.07 209.52 M255.57 340.09 C299.74 289.28, 343.91 238.46, 369.07 209.52 M261.21 339.7 C287.89 309.01, 314.57 278.32, 369.46 215.17 M261.21 339.7 C287.21 309.79, 313.2 279.89, 369.46 215.17 M266.2 340.06 C305.51 294.83, 344.82 249.61, 369.2 221.57 M266.2 340.06 C298.68 302.69, 331.15 265.33, 369.2 221.57 M271.84 339.66 C292.7 315.67, 313.55 291.68, 368.94 227.96 M271.84 339.66 C293.29 314.98, 314.74 290.31, 368.94 227.96 M276.83 340.02 C296.92 316.91, 317.01 293.8, 369.33 233.61 M276.83 340.02 C306.41 306, 335.98 271.97, 369.33 233.61 M282.47 339.63 C303.5 315.44, 324.52 291.26, 369.07 240 M282.47 339.63 C310.87 306.96, 339.27 274.29, 369.07 240 M287.46 339.99 C318.45 304.33, 349.45 268.68, 368.81 246.4 M287.46 339.99 C304.71 320.15, 321.95 300.31, 368.81 246.4 M292.45 340.35 C316.26 312.95, 340.07 285.56, 369.21 252.05 M292.45 340.35 C322.04 306.3, 351.64 272.25, 369.21 252.05 M298.09 339.95 C322.93 311.37, 347.78 282.79, 368.94 258.44 M298.09 339.95 C312.71 323.13, 327.33 306.31, 368.94 258.44 M303.08 340.31 C317.48 323.74, 331.89 307.17, 369.34 264.09 M303.08 340.31 C327.79 311.89, 352.5 283.46, 369.34 264.09 M308.72 339.92 C325.26 320.89, 341.79 301.87, 369.08 270.48 M308.72 339.92 C322.1 324.53, 335.48 309.13, 369.08 270.48 M313.71 340.28 C329.41 322.22, 345.11 304.16, 368.82 276.88 M313.71 340.28 C331.55 319.76, 349.39 299.23, 368.82 276.88 M319.35 339.88 C332.77 324.44, 346.2 309, 369.21 282.52 M319.35 339.88 C338.38 317.99, 357.41 296.11, 369.21 282.52 M324.34 340.24 C335.64 327.24, 346.95 314.23, 368.95 288.92 M324.34 340.24 C334.44 328.62, 344.54 317, 368.95 288.92 M329.98 339.85 C342.77 325.14, 355.55 310.43, 369.34 294.57 M329.98 339.85 C342.36 325.61, 354.74 311.37, 369.34 294.57 M334.97 340.21 C348.08 325.13, 361.19 310.05, 369.08 300.96 M334.97 340.21 C346.03 327.49, 357.09 314.76, 369.08 300.96 M340.61 339.81 C351.89 326.84, 363.16 313.87, 368.82 307.36 M340.61 339.81 C347.75 331.6, 354.89 323.38, 368.82 307.36 M345.6 340.17 C354.07 330.42, 362.55 320.67, 369.22 313 M345.6 340.17 C350.67 334.34, 355.75 328.5, 369.22 313 M351.24 339.78 C356.96 333.2, 362.68 326.62, 368.95 319.4 M351.24 339.78 C357.18 332.94, 363.12 326.11, 368.95 319.4 M356.23 340.14 C361.2 334.42, 366.17 328.7, 369.35 325.05 M356.23 340.14 C360.83 334.84, 365.44 329.55, 369.35 325.05 M361.87 339.74 C363.99 337.31, 366.11 334.87, 369.09 331.44 M361.87 339.74 C364.06 337.22, 366.25 334.7, 369.09 331.44" stroke="#fff" stroke-width="0.5" fill="none"></path><path d="M0 0 C123.16 0, 246.31 0, 366.67 0 M0 0 C88.59 0, 177.18 0, 366.67 0 M366.67 0 C366.67 94.01, 366.67 188.01, 366.67 338.89 M366.67 0 C366.67 121.67, 366.67 243.34, 366.67 338.89 M366.67 338.89 C285.74 338.89, 204.81 338.89, 0 338.89 M366.67 338.89 C228.06 338.89, 89.45 338.89, 0 338.89 M0 338.89 C0 228.09, 0 117.3, 0 0 M0 338.89 C0 269.6, 0 200.31, 0 0" stroke="#000000" stroke-width="1" fill="none"></path></g><g transform="translate(28.888888888888914 89.66666666666788) rotate(0 166.5 49)"><text x="166.5" y="13.600000000000001" font-family="Virgil, Segoe UI Emoji" font-size="15.46274813096159px" fill="#000000" text-anchor="middle" style="white-space: pre;" direction="ltr">3. Izafat is a synatyx to show possessive</text><text x="166.5" y="33.2" font-family="Virgil, Segoe UI Emoji" font-size="15.46274813096159px" fill="#000000" text-anchor="middle" style="white-space: pre;" direction="ltr">eg: Jaan-e-man or gum-e-dil</text><text x="166.5" y="52.800000000000004" font-family="Virgil, Segoe UI Emoji" font-size="15.46274813096159px" fill="#000000" text-anchor="middle" style="white-space: pre;" direction="ltr">Or</text><text x="166.5" y="72.4" font-family="Virgil, Segoe UI Emoji" font-size="15.46274813096159px" fill="#000000" text-anchor="middle" style="white-space: pre;" direction="ltr">Noun+adjective</text><text x="166.5" y="92" font-family="Virgil, Segoe UI Emoji" font-size="15.46274813096159px" fill="#000000" text-anchor="middle" style="white-space: pre;" direction="ltr">eg: Mughal-e-a'zam</text></g><g transform="translate(96.58197331428596 30.482977787552954) rotate(0 81.5 13.5)"><text x="81.5" y="19" font-family="Virgil, Segoe UI Emoji" font-size="20px" fill="#000000" text-anchor="middle" style="white-space: pre;" direction="ltr">Humza(ء) Part 3</text></g><g transform="translate(128.72222222222229 215.55555555555475) rotate(0 58.5 19.5)"><text x="58.5" y="27" font-family="Virgil, Segoe UI Emoji" font-size="28px" fill="#000000" text-anchor="middle" style="white-space: pre;" direction="rtl">بازوئے قاتل</text></g><g transform="translate(130.0555555555556 61.33333333333212) rotate(0 55.5 10)"><text x="55.5" y="14" font-family="Virgil, Segoe UI Emoji" font-size="16px" fill="#d9480f" text-anchor="middle" style="white-space: pre;" direction="ltr">humza-e-izaft</text></g><g transform="translate(60.94444444444446 282.55555555555475) rotate(0 127.5 30)"><text x="127.5" y="14" font-family="Virgil, Segoe UI Emoji" font-size="16px" fill="#d9480f" text-anchor="middle" style="white-space: pre;" direction="ltr">Note:</text><text x="127.5" y="34" font-family="Virgil, Segoe UI Emoji" font-size="16px" fill="#d9480f" text-anchor="middle" style="white-space: pre;" direction="ltr">Izaft usually is used in poems, </text><text x="127.5" y="54" font-family="Virgil, Segoe UI Emoji" font-size="16px" fill="#d9480f" text-anchor="middle" style="white-space: pre;" direction="ltr">not in daily conversation.</text></g><g transform="translate(269.51268078032 223.67794751364454) rotate(0 46 10)"><text x="0" y="14" font-family="Virgil, Segoe UI Emoji" font-size="16px" fill="#d9480f" text-anchor="start" style="white-space: pre;" direction="ltr">baju-e-katil</text></g><g transform="translate(20.911676316034345 221.3654300750277) rotate(0 53 10)"><text x="0" y="14" font-family="Virgil, Segoe UI Emoji" font-size="16px" fill="#d9480f" text-anchor="start" style="white-space: pre;" direction="ltr">arms of killer</text></g><g stroke-opacity="0.4" fill-opacity="0.4" stroke-linecap="round" transform="translate(241.94221133278393 90.91057865205948) rotate(0 63.4246826171875 9.744384765625)"><path d="M0 0 C0 0, 0 0, 0 0 M0 0 C0 0, 0 0, 0 0 M-0.26 6.4 C1.44 4.44, 3.14 2.49, 4.99 0.36 M-0.26 6.4 C1.29 4.62, 2.83 2.84, 4.99 0.36 M0.13 12.04 C4.17 7.4, 8.2 2.76, 10.63 -0.03 M0.13 12.04 C3.55 8.11, 6.97 4.18, 10.63 -0.03 M-0.13 18.44 C3.36 14.42, 6.86 10.4, 15.62 0.33 M-0.13 18.44 C4.85 12.71, 9.84 6.98, 15.62 0.33 M2.23 21.82 C8.71 14.37, 15.19 6.92, 21.26 -0.07 M2.23 21.82 C8.59 14.51, 14.94 7.2, 21.26 -0.07 M7.88 21.42 C13.01 15.52, 18.15 9.61, 26.25 0.29 M7.88 21.42 C13.29 15.2, 18.7 8.98, 26.25 0.29 M12.86 21.78 C19.85 13.74, 26.84 5.7, 31.89 -0.1 M12.86 21.78 C19.75 13.86, 26.63 5.95, 31.89 -0.1 M18.51 21.39 C25.38 13.48, 32.26 5.57, 36.88 0.26 M18.51 21.39 C22.98 16.24, 27.45 11.1, 36.88 0.26 M23.49 21.75 C28.54 15.94, 33.59 10.14, 42.52 -0.14 M23.49 21.75 C30.88 13.25, 38.26 4.76, 42.52 -0.14 M29.14 21.35 C33.8 15.99, 38.47 10.62, 47.51 0.22 M29.14 21.35 C34.32 15.39, 39.5 9.43, 47.51 0.22 M34.12 21.71 C40.87 13.95, 47.62 6.19, 53.15 -0.17 M34.12 21.71 C38.82 16.32, 43.51 10.92, 53.15 -0.17 M39.77 21.32 C44.12 16.32, 48.47 11.31, 58.14 0.19 M39.77 21.32 C45.91 14.26, 52.04 7.2, 58.14 0.19 M44.75 21.68 C51.92 13.44, 59.08 5.2, 63.78 -0.21 M44.75 21.68 C50.95 14.55, 57.15 7.42, 63.78 -0.21 M50.4 21.29 C56.12 14.71, 61.83 8.13, 68.77 0.15 M50.4 21.29 C54.58 16.47, 58.77 11.66, 68.77 0.15 M55.38 21.65 C62.84 13.07, 70.29 4.49, 74.41 -0.24 M55.38 21.65 C60.5 15.76, 65.61 9.88, 74.41 -0.24 M61.03 21.25 C65.37 16.26, 69.7 11.27, 79.4 0.12 M61.03 21.25 C68.31 12.88, 75.58 4.51, 79.4 0.12 M66.02 21.61 C71.38 15.44, 76.75 9.26, 85.04 -0.28 M66.02 21.61 C71.22 15.63, 76.42 9.64, 85.04 -0.28 M71 21.97 C75.58 16.7, 80.16 11.43, 90.03 0.08 M71 21.97 C78.17 13.72, 85.34 5.48, 90.03 0.08 M76.65 21.58 C81.39 16.12, 86.13 10.67, 95.67 -0.31 M76.65 21.58 C84.11 12.99, 91.57 4.41, 95.67 -0.31 M81.63 21.94 C87.8 14.84, 93.97 7.74, 100.66 0.05 M81.63 21.94 C87.57 15.11, 93.51 8.28, 100.66 0.05 M87.28 21.54 C93.27 14.65, 99.27 7.75, 106.3 -0.34 M87.28 21.54 C91.69 16.46, 96.11 11.38, 106.3 -0.34 M92.26 21.9 C99.05 14.1, 105.83 6.29, 111.29 0.02 M92.26 21.9 C97 16.45, 101.74 11, 111.29 0.02 M97.91 21.51 C101.99 16.81, 106.07 12.11, 116.27 0.38 M97.91 21.51 C102.6 16.11, 107.3 10.7, 116.27 0.38 M102.89 21.87 C110.08 13.6, 117.27 5.33, 121.92 -0.02 M102.89 21.87 C107.45 16.63, 112 11.39, 121.92 -0.02 M108.54 21.47 C114.66 14.43, 120.79 7.38, 126.91 0.34 M108.54 21.47 C113.66 15.58, 118.78 9.69, 126.91 0.34 M113.52 21.83 C117.63 17.11, 121.74 12.38, 127.3 5.98 M113.52 21.83 C116.82 18.03, 120.13 14.23, 127.3 5.98 M119.17 21.44 C121.78 18.43, 124.39 15.43, 127.04 12.38 M119.17 21.44 C122.1 18.06, 125.04 14.68, 127.04 12.38 M124.15 21.8 C125.2 20.6, 126.24 19.39, 126.78 18.78 M124.15 21.8 C124.71 21.16, 125.26 20.52, 126.78 18.78" stroke="#fd7e14" stroke-width="0.5" fill="none"></path><path d="M0 0 C30.79 0, 61.58 0, 126.85 0 M0 0 C43.86 0, 87.72 0, 126.85 0 M126.85 0 C126.85 4.82, 126.85 9.64, 126.85 19.49 M126.85 0 C126.85 7.56, 126.85 15.13, 126.85 19.49 M126.85 19.49 C90.72 19.49, 54.59 19.49, 0 19.49 M126.85 19.49 C85.78 19.49, 44.72 19.49, 0 19.49 M0 19.49 C0 14.07, 0 8.66, 0 0 M0 19.49 C0 15.19, 0 10.9, 0 0" stroke="#000000" stroke-width="1" fill="none"></path></g><g stroke-opacity="0.4" fill-opacity="0.4" stroke-linecap="round" transform="translate(134.81696719215893 145.17168705049698) rotate(0 62.0084228515625 11.0452880859375)"><path d="M0 0 C0 0, 0 0, 0 0 M0 0 C0 0, 0 0, 0 0 M-0.26 6.4 C1.6 4.25, 3.47 2.11, 4.99 0.36 M-0.26 6.4 C1.25 4.66, 2.76 2.92, 4.99 0.36 M0.13 12.04 C3.23 8.48, 6.33 4.91, 10.63 -0.03 M0.13 12.04 C4.04 7.54, 7.95 3.04, 10.63 -0.03 M-0.13 18.44 C3.72 14.01, 7.57 9.58, 15.62 0.33 M-0.13 18.44 C5.06 12.47, 10.24 6.51, 15.62 0.33 M0.92 23.33 C6.57 16.83, 12.21 10.34, 21.26 -0.07 M0.92 23.33 C8.03 15.15, 15.14 6.97, 21.26 -0.07 M6.57 22.93 C12.23 16.41, 17.9 9.89, 26.25 0.29 M6.57 22.93 C13.27 15.22, 19.98 7.5, 26.25 0.29 M11.55 23.29 C16.5 17.6, 21.45 11.91, 31.89 -0.1 M11.55 23.29 C16.08 18.08, 20.61 12.88, 31.89 -0.1 M17.2 22.9 C23.83 15.27, 30.47 7.63, 36.88 0.26 M17.2 22.9 C23.59 15.54, 29.98 8.19, 36.88 0.26 M22.18 23.26 C27.11 17.59, 32.03 11.93, 42.52 -0.14 M22.18 23.26 C27.96 16.62, 33.73 9.98, 42.52 -0.14 M27.83 22.86 C33.02 16.89, 38.22 10.91, 47.51 0.22 M27.83 22.86 C32.53 17.45, 37.23 12.04, 47.51 0.22 M32.81 23.22 C40.82 14.01, 48.82 4.8, 53.15 -0.17 M32.81 23.22 C39.53 15.49, 46.25 7.76, 53.15 -0.17 M38.46 22.83 C43.59 16.92, 48.73 11.01, 58.14 0.19 M38.46 22.83 C44.26 16.15, 50.07 9.47, 58.14 0.19 M43.44 23.19 C51.33 14.11, 59.22 5.04, 63.78 -0.21 M43.44 23.19 C50.84 14.67, 58.25 6.16, 63.78 -0.21 M49.09 22.79 C55.8 15.08, 62.51 7.36, 68.77 0.15 M49.09 22.79 C54.19 16.92, 59.29 11.05, 68.77 0.15 M54.07 23.15 C61.91 14.14, 69.74 5.13, 74.41 -0.24 M54.07 23.15 C59.99 16.35, 65.91 9.54, 74.41 -0.24 M59.72 22.76 C64.38 17.4, 69.04 12.04, 79.4 0.12 M59.72 22.76 C66.67 14.76, 73.63 6.76, 79.4 0.12 M64.7 23.12 C71.14 15.72, 77.57 8.32, 85.04 -0.28 M64.7 23.12 C69.23 17.91, 73.76 12.71, 85.04 -0.28 M70.35 22.73 C76.29 15.89, 82.23 9.05, 90.03 0.08 M70.35 22.73 C77.29 14.73, 84.24 6.74, 90.03 0.08 M75.33 23.09 C83.11 14.14, 90.88 5.2, 95.67 -0.31 M75.33 23.09 C82.95 14.32, 90.57 5.56, 95.67 -0.31 M80.32 23.45 C84.59 18.53, 88.86 13.62, 100.66 0.05 M80.32 23.45 C86.2 16.69, 92.07 9.93, 100.66 0.05 M85.96 23.05 C93.17 14.76, 100.38 6.47, 106.3 -0.34 M85.96 23.05 C93.43 14.46, 100.9 5.86, 106.3 -0.34 M90.95 23.41 C96.14 17.45, 101.32 11.48, 111.29 0.02 M90.95 23.41 C98 15.31, 105.04 7.2, 111.29 0.02 M96.59 23.02 C101.99 16.81, 107.39 10.6, 116.27 0.38 M96.59 23.02 C103.01 15.63, 109.43 8.25, 116.27 0.38 M101.58 23.38 C106.69 17.5, 111.79 11.63, 121.92 -0.02 M101.58 23.38 C109.02 14.82, 116.45 6.27, 121.92 -0.02 M107.22 22.98 C113.72 15.51, 120.22 8.03, 125.59 1.85 M107.22 22.98 C114.22 14.94, 121.21 6.89, 125.59 1.85 M112.21 23.34 C115.42 19.65, 118.63 15.96, 125.99 7.49 M112.21 23.34 C116.91 17.94, 121.61 12.53, 125.99 7.49 M117.85 22.95 C120.02 20.46, 122.19 17.96, 125.73 13.89 M117.85 22.95 C120.73 19.63, 123.61 16.32, 125.73 13.89 M122.84 23.31 C124.01 21.97, 125.17 20.62, 126.12 19.53 M122.84 23.31 C123.9 22.09, 124.95 20.88, 126.12 19.53" stroke="#fd7e14" stroke-width="0.5" fill="none"></path><path d="M0 0 C38.35 0, 76.71 0, 124.02 0 M0 0 C45.07 0, 90.13 0, 124.02 0 M124.02 0 C124.02 7.34, 124.02 14.67, 124.02 22.09 M124.02 0 C124.02 6.18, 124.02 12.36, 124.02 22.09 M124.02 22.09 C94.91 22.09, 65.81 22.09, 0 22.09 M124.02 22.09 C91.77 22.09, 59.51 22.09, 0 22.09 M0 22.09 C0 15.73, 0 9.37, 0 0 M0 22.09 C0 16.14, 0 10.19, 0 0" stroke="#000000" stroke-width="1" fill="none"></path></g></svg>