<svg version="1.1" xmlns="http://www.w3.org/2000/svg" viewBox="0 0 386.66666666666674 358.8888888888887" width="386.66666666666674" height="358.8888888888887">
  <!-- svg-source:excalidraw -->
  
  <defs>
    <style>
      @font-face {
        font-family: "Virgil";
        src: url("https://excalidraw.com/Virgil.woff2");
      }
      @font-face {
        font-family: "Cascadia";
        src: url("https://excalidraw.com/Cascadia.woff2");
      }
    </style>
  </defs>
  <rect x="0" y="0" width="386.66666666666674" height="358.8888888888887" fill="#ffffff"></rect><g stroke-linecap="round" transform="translate(10 10) rotate(0 183.33333333333337 169.44444444444434)"><path d="M0 0 C0 0, 0 0, 0 0 M0 0 C0 0, 0 0, 0 0 M-0.26 6.4 C1.01 4.93, 2.29 3.46, 4.99 0.36 M-0.26 6.4 C1.52 4.35, 3.3 2.3, 4.99 0.36 M0.13 12.04 C3.99 7.61, 7.84 3.17, 10.63 -0.03 M0.13 12.04 C3.65 7.99, 7.17 3.94, 10.63 -0.03 M-0.13 18.44 C5.37 12.11, 10.87 5.79, 15.62 0.33 M-0.13 18.44 C4.38 13.25, 8.89 8.07, 15.62 0.33 M0.27 24.08 C5.4 18.17, 10.54 12.27, 21.26 -0.07 M0.27 24.08 C4.79 18.87, 9.32 13.67, 21.26 -0.07 M0 30.48 C8.86 20.29, 17.72 10.1, 26.25 0.29 M0 30.48 C8.07 21.2, 16.14 11.92, 26.25 0.29 M-0.26 36.88 C7.38 28.1, 15.01 19.32, 31.89 -0.1 M-0.26 36.88 C8.08 27.29, 16.42 17.69, 31.89 -0.1 M0.14 42.52 C10.28 30.86, 20.42 19.19, 36.88 0.26 M0.14 42.52 C12.5 28.3, 24.85 14.09, 36.88 0.26 M-0.12 48.92 C8.57 38.92, 17.25 28.93, 42.52 -0.14 M-0.12 48.92 C13.65 33.07, 27.43 17.22, 42.52 -0.14 M0.27 54.56 C18.57 33.51, 36.87 12.46, 47.51 0.22 M0.27 54.56 C18.1 34.06, 35.92 13.55, 47.51 0.22 M0.01 60.96 C16.28 42.24, 32.55 23.52, 53.15 -0.17 M0.01 60.96 C20.38 37.52, 40.76 14.08, 53.15 -0.17 M-0.25 67.36 C20.14 43.9, 40.53 20.44, 58.14 0.19 M-0.25 67.36 C11.71 53.6, 23.66 39.85, 58.14 0.19 M0.14 73 C20.01 50.15, 39.87 27.3, 63.78 -0.21 M0.14 73 C15.26 55.61, 30.38 38.22, 63.78 -0.21 M-0.12 79.4 C27.01 48.19, 54.14 16.98, 68.77 0.15 M-0.12 79.4 C18.03 58.52, 36.17 37.65, 68.77 0.15 M0.28 85.04 C22.04 60, 43.81 34.96, 74.41 -0.24 M0.28 85.04 C15.32 67.74, 30.36 50.44, 74.41 -0.24 M0.01 91.44 C16.52 72.45, 33.03 53.46, 79.4 0.12 M0.01 91.44 C29.25 57.8, 58.49 24.17, 79.4 0.12 M-0.25 97.84 C27.67 65.72, 55.59 33.61, 85.04 -0.28 M-0.25 97.84 C18.27 76.53, 36.79 55.23, 85.04 -0.28 M0.15 103.48 C21.11 79.37, 42.07 55.26, 90.03 0.08 M0.15 103.48 C18.56 82.3, 36.97 61.12, 90.03 0.08 M-0.11 109.88 C37.7 66.38, 75.51 22.88, 95.67 -0.31 M-0.11 109.88 C32.29 72.6, 64.7 35.32, 95.67 -0.31 M0.28 115.52 C37.01 73.27, 73.73 31.02, 100.66 0.05 M0.28 115.52 C23.24 89.11, 46.19 62.7, 100.66 0.05 M0.02 121.92 C29.99 87.44, 59.96 52.97, 106.3 -0.34 M0.02 121.92 C26.03 91.99, 52.05 62.06, 106.3 -0.34 M-0.24 128.32 C28.41 95.35, 57.06 62.39, 111.29 0.02 M-0.24 128.32 C40.57 81.37, 81.37 34.43, 111.29 0.02 M0.15 133.96 C32.64 96.58, 65.13 59.21, 116.27 0.38 M0.15 133.96 C39.08 89.18, 78 44.41, 116.27 0.38 M-0.11 140.36 C25.75 110.6, 51.62 80.85, 121.92 -0.02 M-0.11 140.36 C38.05 96.46, 76.21 52.56, 121.92 -0.02 M0.29 146 C36.21 104.68, 72.13 63.36, 126.91 0.34 M0.29 146 C29.22 112.71, 58.16 79.43, 126.91 0.34 M0.02 152.4 C38.63 107.99, 77.23 63.58, 132.55 -0.05 M0.02 152.4 C31.27 116.45, 62.52 80.5, 132.55 -0.05 M-0.24 158.8 C40.25 112.23, 80.73 65.66, 137.54 0.31 M-0.24 158.8 C36.14 116.95, 72.52 75.1, 137.54 0.31 M0.16 164.44 C30.19 129.89, 60.23 95.34, 143.18 -0.09 M0.16 164.44 C39.07 119.67, 77.99 74.9, 143.18 -0.09 M-0.1 170.84 C46.61 117.09, 93.33 63.35, 148.17 0.27 M-0.1 170.84 C29.75 136.49, 59.6 102.15, 148.17 0.27 M0.29 176.48 C36.79 134.49, 73.29 92.5, 153.81 -0.12 M0.29 176.48 C35.42 136.07, 70.55 95.65, 153.81 -0.12 M0.03 182.88 C40.83 135.94, 81.63 89.01, 158.8 0.24 M0.03 182.88 C50.89 124.37, 101.75 65.86, 158.8 0.24 M-0.23 189.27 C48.99 132.65, 98.22 76.02, 164.44 -0.16 M-0.23 189.27 C46.47 135.55, 93.17 81.83, 164.44 -0.16 M0.16 194.92 C39.73 149.4, 79.3 103.88, 169.43 0.2 M0.16 194.92 C54.54 132.36, 108.93 69.8, 169.43 0.2 M-0.1 201.32 C47.65 146.38, 95.41 91.45, 175.07 -0.19 M-0.1 201.32 C49.7 144.03, 99.49 86.75, 175.07 -0.19 M0.3 206.96 C47.82 152.29, 95.34 97.62, 180.06 0.17 M0.3 206.96 C40.68 160.5, 81.07 114.04, 180.06 0.17 M0.03 213.36 C54.36 150.87, 108.68 88.38, 185.7 -0.23 M0.03 213.36 C46.27 160.17, 92.5 106.99, 185.7 -0.23 M-0.23 219.75 C70.86 137.97, 141.95 56.19, 190.69 0.13 M-0.23 219.75 C51.57 160.16, 103.38 100.57, 190.69 0.13 M0.17 225.4 C48.67 169.6, 97.18 113.8, 196.33 -0.26 M0.17 225.4 C52.41 165.3, 104.66 105.2, 196.33 -0.26 M-0.09 231.8 C57.53 165.51, 115.15 99.22, 201.32 0.1 M-0.09 231.8 C44.71 180.25, 89.52 128.71, 201.32 0.1 M0.3 237.44 C58.13 170.91, 115.96 104.39, 206.96 -0.3 M0.3 237.44 C81.94 143.52, 163.58 49.6, 206.96 -0.3 M0.04 243.84 C71.77 161.32, 143.5 78.8, 211.95 0.06 M0.04 243.84 C55.03 180.58, 110.02 117.32, 211.95 0.06 M-0.22 250.23 C62.52 178.05, 125.27 105.87, 217.59 -0.33 M-0.22 250.23 C79.13 158.95, 158.48 67.67, 217.59 -0.33 M0.17 255.88 C81.86 161.91, 163.54 67.94, 222.58 0.03 M0.17 255.88 C63.39 183.15, 126.61 110.43, 222.58 0.03 M-0.09 262.27 C51.17 203.3, 102.44 144.33, 228.22 -0.36 M-0.09 262.27 C62.36 190.44, 124.8 118.6, 228.22 -0.36 M0.3 267.92 C50.33 210.37, 100.35 152.82, 233.21 0 M0.3 267.92 C51.26 209.3, 102.22 150.68, 233.21 0 M0.04 274.32 C94.45 165.72, 188.85 57.11, 238.19 0.36 M0.04 274.32 C69.69 194.2, 139.33 114.09, 238.19 0.36 M-0.22 280.71 C55.44 216.68, 111.1 152.65, 243.84 -0.04 M-0.22 280.71 C74.35 194.93, 148.92 109.15, 243.84 -0.04 M0.18 286.36 C91.08 181.79, 181.98 77.22, 248.82 0.32 M0.18 286.36 C89.97 183.06, 179.76 79.76, 248.82 0.32 M-0.08 292.75 C91.26 187.68, 182.6 82.6, 254.47 -0.07 M-0.08 292.75 C52.66 232.07, 105.41 171.4, 254.47 -0.07 M0.31 298.4 C64.74 224.28, 129.17 150.16, 259.45 0.29 M0.31 298.4 C75.46 211.95, 150.6 125.51, 259.45 0.29 M0.05 304.8 C69.9 224.44, 139.75 144.09, 265.1 -0.11 M0.05 304.8 C81.38 211.24, 162.71 117.68, 265.1 -0.11 M-0.21 311.19 C58.39 243.77, 117 176.36, 270.08 0.25 M-0.21 311.19 C69.97 230.45, 140.16 149.71, 270.08 0.25 M0.18 316.84 C56.19 252.4, 112.2 187.97, 275.73 -0.14 M0.18 316.84 C57.44 250.97, 114.69 185.11, 275.73 -0.14 M-0.08 323.23 C111.14 195.29, 222.37 67.34, 280.71 0.22 M-0.08 323.23 C90.11 219.48, 180.3 115.73, 280.71 0.22 M0.31 328.88 C98.66 215.74, 197.01 102.6, 286.36 -0.18 M0.31 328.88 C67.16 251.98, 134 175.09, 286.36 -0.18 M0.05 335.27 C106.99 212.25, 213.93 89.24, 291.34 0.18 M0.05 335.27 C86.24 236.13, 172.43 136.98, 291.34 0.18 M1.1 340.16 C76.76 253.13, 152.42 166.09, 296.99 -0.21 M1.1 340.16 C98.3 228.35, 195.5 116.54, 296.99 -0.21 M6.75 339.77 C85.04 249.7, 163.34 159.63, 301.97 0.15 M6.75 339.77 C88.04 246.25, 169.33 152.74, 301.97 0.15 M11.73 340.13 C75.07 267.27, 138.4 194.41, 307.62 -0.25 M11.73 340.13 C117.23 218.77, 222.72 97.42, 307.62 -0.25 M17.38 339.73 C100.15 244.52, 182.92 149.3, 312.6 0.11 M17.38 339.73 C112.3 230.53, 207.23 121.33, 312.6 0.11 M22.36 340.09 C110.76 238.41, 199.15 136.72, 318.25 -0.28 M22.36 340.09 C82.24 271.21, 142.12 202.33, 318.25 -0.28 M28.01 339.7 C133.49 218.36, 238.97 97.01, 323.23 0.08 M28.01 339.7 C136.27 215.16, 244.52 90.63, 323.23 0.08 M32.99 340.06 C120.08 239.88, 207.17 139.69, 328.88 -0.31 M32.99 340.06 C113.16 247.84, 193.32 155.63, 328.88 -0.31 M38.64 339.66 C125.84 239.34, 213.05 139.02, 333.86 0.05 M38.64 339.66 C131.16 233.23, 223.68 126.8, 333.86 0.05 M43.62 340.02 C159.03 207.27, 274.43 74.51, 339.51 -0.35 M43.62 340.02 C158.25 208.16, 272.88 76.3, 339.51 -0.35 M49.27 339.63 C122.7 255.15, 196.14 170.68, 344.49 0.01 M49.27 339.63 C148.02 226.03, 246.77 112.43, 344.49 0.01 M54.25 339.99 C136.85 244.97, 219.45 149.96, 349.48 0.37 M54.25 339.99 C142.04 239, 229.83 138.01, 349.48 0.37 M59.24 340.35 C126.14 263.39, 193.03 186.44, 355.12 -0.02 M59.24 340.35 C169.66 213.33, 280.08 86.31, 355.12 -0.02 M64.88 339.96 C142.28 250.92, 219.68 161.88, 360.11 0.34 M64.88 339.96 C173.12 215.44, 281.36 90.93, 360.11 0.34 M69.87 340.32 C185.53 207.26, 301.2 74.21, 365.75 -0.06 M69.87 340.32 C141.77 257.61, 213.66 174.91, 365.75 -0.06 M75.51 339.92 C175.59 224.79, 275.67 109.66, 369.43 1.81 M75.51 339.92 C158.21 244.79, 240.9 149.67, 369.43 1.81 M80.5 340.28 C184.8 220.3, 289.11 100.31, 369.17 8.21 M80.5 340.28 C175.1 231.46, 269.69 122.65, 369.17 8.21 M86.14 339.89 C177.41 234.9, 268.68 129.9, 368.91 14.61 M86.14 339.89 C184.55 226.69, 282.95 113.48, 368.91 14.61 M91.13 340.25 C177.41 240.99, 263.69 141.74, 369.3 20.25 M91.13 340.25 C169.42 250.19, 247.71 160.13, 369.3 20.25 M96.77 339.85 C184.35 239.11, 271.92 138.37, 369.04 26.65 M96.77 339.85 C203.88 216.64, 310.99 93.43, 369.04 26.65 M101.76 340.21 C172.68 258.63, 243.61 177.04, 369.43 32.29 M101.76 340.21 C189.74 239.01, 277.71 137.8, 369.43 32.29 M107.4 339.82 C174.01 263.19, 240.63 186.57, 369.17 38.69 M107.4 339.82 C176.67 260.14, 245.93 180.47, 369.17 38.69 M112.39 340.18 C165.72 278.83, 219.05 217.48, 368.91 45.09 M112.39 340.18 C205.8 232.73, 299.2 125.28, 368.91 45.09 M118.03 339.78 C204.29 240.55, 290.55 141.32, 369.31 50.73 M118.03 339.78 C200.7 244.68, 283.37 149.58, 369.31 50.73 M123.02 340.14 C215.49 233.77, 307.96 127.39, 369.04 57.13 M123.02 340.14 C185.23 268.58, 247.45 197.01, 369.04 57.13 M128.66 339.75 C180.4 280.24, 232.13 220.73, 369.44 62.77 M128.66 339.75 C218.8 236.06, 308.94 132.37, 369.44 62.77 M133.65 340.11 C218.55 242.45, 303.44 144.79, 369.18 69.17 M133.65 340.11 C211.44 250.62, 289.23 161.13, 369.18 69.17 M139.3 339.71 C185.35 286.73, 231.41 233.75, 368.92 75.57 M139.3 339.71 C210.18 258.17, 281.06 176.63, 368.92 75.57 M144.28 340.07 C191.07 286.26, 237.85 232.44, 369.31 81.21 M144.28 340.07 C212.25 261.88, 280.22 183.69, 369.31 81.21 M149.93 339.68 C201.76 280.05, 253.6 220.41, 369.05 87.61 M149.93 339.68 C206.97 274.05, 264.02 208.43, 369.05 87.61 M154.91 340.04 C223.39 261.27, 291.86 182.5, 369.44 93.25 M154.91 340.04 C228.75 255.1, 302.59 170.16, 369.44 93.25 M160.56 339.65 C236.42 252.38, 312.28 165.11, 369.18 99.65 M160.56 339.65 C218.55 272.93, 276.54 206.22, 369.18 99.65 M165.54 340.01 C236.71 258.13, 307.88 176.26, 368.92 106.05 M165.54 340.01 C206.82 292.52, 248.11 245.03, 368.92 106.05 M171.19 339.61 C216.2 287.82, 261.22 236.03, 369.32 111.69 M171.19 339.61 C216.86 287.07, 262.54 234.52, 369.32 111.69 M176.17 339.97 C236.06 271.08, 295.95 202.19, 369.05 118.09 M176.17 339.97 C233.09 274.5, 290 209.02, 369.05 118.09 M181.16 340.33 C252.25 258.56, 323.33 176.78, 369.45 123.73 M181.16 340.33 C239.03 273.76, 296.89 207.2, 369.45 123.73 M186.8 339.94 C235.29 284.16, 283.78 228.38, 369.19 130.13 M186.8 339.94 C224.63 296.42, 262.46 252.9, 369.19 130.13 M191.79 340.3 C257.23 265.02, 322.67 189.74, 368.93 136.53 M191.79 340.3 C248.11 275.51, 304.43 210.72, 368.93 136.53 M197.43 339.9 C237.95 293.29, 278.47 246.68, 369.32 142.17 M197.43 339.9 C265.71 261.36, 333.99 182.81, 369.32 142.17 M202.42 340.26 C246.15 289.95, 289.89 239.64, 369.06 148.57 M202.42 340.26 C267.79 265.06, 333.16 189.86, 369.06 148.57 M208.06 339.87 C255.59 285.19, 303.12 230.52, 369.45 154.21 M208.06 339.87 C255.2 285.64, 302.34 231.41, 369.45 154.21 M213.05 340.23 C263.14 282.6, 313.23 224.98, 369.19 160.61 M213.05 340.23 C256.86 289.83, 300.67 239.43, 369.19 160.61 M218.69 339.83 C259.44 292.95, 300.19 246.08, 368.93 167 M218.69 339.83 C277.27 272.45, 335.84 205.07, 368.93 167 M223.68 340.19 C269.33 287.68, 314.98 235.16, 369.32 172.65 M223.68 340.19 C260.58 297.74, 297.48 255.3, 369.32 172.65 M229.32 339.8 C264.22 299.65, 299.12 259.51, 369.06 179.05 M229.32 339.8 C279.46 282.12, 329.6 224.45, 369.06 179.05 M234.31 340.16 C263.23 306.89, 292.15 273.63, 369.46 184.69 M234.31 340.16 C261.54 308.84, 288.76 277.52, 369.46 184.69 M239.95 339.76 C274.65 299.85, 309.34 259.94, 369.2 191.09 M239.95 339.76 C283.55 289.61, 327.14 239.46, 369.2 191.09 M244.94 340.12 C282.22 297.24, 319.51 254.35, 368.93 197.48 M244.94 340.12 C286.61 292.19, 328.27 244.26, 368.93 197.48 M250.58 339.73 C276.76 309.61, 302.94 279.5, 369.33 203.13 M250.58 339.73 C278.4 307.73, 306.22 275.73, 369.33 203.13 M255.57 340.09 C284.69 306.59, 313.81 273.1, 369.07 209.52 M255.57 340.09 C288.32 302.41, 321.07 264.74, 369.07 209.52 M261.21 339.7 C299.5 295.66, 337.78 251.62, 369.46 215.17 M261.21 339.7 C285.98 311.21, 310.74 282.72, 369.46 215.17 M266.2 340.06 C293.93 308.15, 321.67 276.25, 369.2 221.57 M266.2 340.06 C287.92 315.07, 309.63 290.09, 369.2 221.57 M271.84 339.66 C307.82 298.27, 343.8 256.89, 368.94 227.96 M271.84 339.66 C298.08 309.47, 324.32 279.29, 368.94 227.96 M276.83 340.02 C307.46 304.78, 338.1 269.54, 369.33 233.61 M276.83 340.02 C302.26 310.76, 327.7 281.51, 369.33 233.61 M282.47 339.63 C310.9 306.92, 339.33 274.22, 369.07 240 M282.47 339.63 C315.25 301.92, 348.03 264.21, 369.07 240 M287.46 339.99 C315.06 308.23, 342.66 276.48, 368.81 246.4 M287.46 339.99 C317.83 305.05, 348.19 270.12, 368.81 246.4 M292.45 340.35 C318.45 310.43, 344.46 280.52, 369.21 252.05 M292.45 340.35 C318.82 310.01, 345.19 279.68, 369.21 252.05 M298.09 339.95 C326.11 307.72, 354.12 275.5, 368.94 258.44 M298.09 339.95 C313.58 322.14, 329.06 304.32, 368.94 258.44 M303.08 340.31 C320.88 319.83, 338.68 299.36, 369.34 264.09 M303.08 340.31 C318.04 323.1, 333 305.89, 369.34 264.09 M308.72 339.92 C327.18 318.68, 345.65 297.44, 369.08 270.48 M308.72 339.92 C323.44 322.99, 338.16 306.06, 369.08 270.48 M313.71 340.28 C326.88 325.12, 340.06 309.96, 368.82 276.88 M313.71 340.28 C327.81 324.06, 341.91 307.84, 368.82 276.88 M319.35 339.88 C333.41 323.71, 347.46 307.55, 369.21 282.52 M319.35 339.88 C334.43 322.53, 349.51 305.19, 369.21 282.52 M324.34 340.24 C338.89 323.5, 353.44 306.77, 368.95 288.92 M324.34 340.24 C339.28 323.06, 354.21 305.87, 368.95 288.92 M329.98 339.85 C339.4 329.02, 348.81 318.19, 369.34 294.57 M329.98 339.85 C344.47 323.18, 358.96 306.52, 369.34 294.57 M334.97 340.21 C343.85 329.99, 352.73 319.77, 369.08 300.96 M334.97 340.21 C346.36 327.1, 357.76 313.99, 369.08 300.96 M340.61 339.81 C349.02 330.13, 357.44 320.46, 368.82 307.36 M340.61 339.81 C347.23 332.2, 353.85 324.59, 368.82 307.36 M345.6 340.17 C353.32 331.29, 361.05 322.4, 369.22 313 M345.6 340.17 C354.93 329.44, 364.25 318.71, 369.22 313 M351.24 339.78 C356.28 333.99, 361.31 328.19, 368.95 319.4 M351.24 339.78 C355.07 335.37, 358.91 330.96, 368.95 319.4 M356.23 340.14 C359.72 336.12, 363.22 332.09, 369.35 325.05 M356.23 340.14 C359.24 336.67, 362.26 333.21, 369.35 325.05 M361.87 339.74 C363.51 337.86, 365.15 335.97, 369.09 331.44 M361.87 339.74 C363.66 337.69, 365.45 335.63, 369.09 331.44" stroke="#fff" stroke-width="0.5" fill="none"></path><path d="M0 0 C116.76 0, 233.51 0, 366.67 0 M0 0 C78.79 0, 157.58 0, 366.67 0 M366.67 0 C366.67 127.79, 366.67 255.59, 366.67 338.89 M366.67 0 C366.67 96.13, 366.67 192.26, 366.67 338.89 M366.67 338.89 C274.85 338.89, 183.04 338.89, 0 338.89 M366.67 338.89 C278.45 338.89, 190.23 338.89, 0 338.89 M0 338.89 C0 269.38, 0 199.87, 0 0 M0 338.89 C0 236.29, 0 133.69, 0 0" stroke="#000000" stroke-width="1" fill="none"></path></g><g transform="translate(28.888888888888914 89.66666666666788) rotate(0 163 20)"><text x="0" y="14" font-family="Virgil, Segoe UI Emoji" font-size="15.46274813096159px" fill="#000000" text-anchor="start" style="white-space: pre;" direction="ltr">2. Also indicates, words need to read </text><text x="0" y="34" font-family="Virgil, Segoe UI Emoji" font-size="15.46274813096159px" fill="#000000" text-anchor="start" style="white-space: pre;" direction="ltr">separately. Vowel and consonat sepereatly</text></g><g transform="translate(99.58197331428596 30.482977787552954) rotate(0 78.5 13)"><text x="78.5" y="19" font-family="Virgil, Segoe UI Emoji" font-size="20px" fill="#000000" text-anchor="middle" style="white-space: pre;" direction="ltr">Humza(ء) Part 1</text></g><g transform="translate(80.72222222222229 171.55555555555657) rotate(0 106.5 13)"><text x="106.5" y="19" font-family="Virgil, Segoe UI Emoji" font-size="20px" fill="#000000" text-anchor="middle" style="white-space: pre;" direction="ltr">(gi) گی vs گئ (ga-ee)</text></g><g transform="translate(72.00000000000011 206) rotate(0 106 13)"><text x="106" y="19" font-family="Virgil, Segoe UI Emoji" font-size="20px" fill="#000000" text-anchor="middle" style="white-space: pre;" direction="ltr">(ki) کی vs کئ (ka-ee)</text></g><g transform="translate(87.0555555555556 61.33333333333212) rotate(0 98.5 10)"><text x="98.5" y="14" font-family="Virgil, Segoe UI Emoji" font-size="16px" fill="#d9480f" text-anchor="middle" style="white-space: pre;" direction="ltr">Note: Only used on vowel</text></g><g transform="translate(37.94444444444446 303.55555555555475) rotate(0 150.5 10)"><text x="150.5" y="14" font-family="Virgil, Segoe UI Emoji" font-size="16px" fill="#d9480f" text-anchor="middle" style="white-space: pre;" direction="ltr">Note: Humza has no sound of it's own</text></g></svg>