<svg version="1.1" xmlns="http://www.w3.org/2000/svg" viewBox="0 0 390 376.6666666666665" width="390" height="376.6666666666665">
  <!-- svg-source:excalidraw -->
  
  <defs>
    <style>
      @font-face {
        font-family: "Virgil";
        src: url("https://excalidraw.com/Virgil.woff2");
      }
      @font-face {
        font-family: "Cascadia";
        src: url("https://excalidraw.com/Cascadia.woff2");
      }
    </style>
  </defs>
  <rect x="0" y="0" width="390" height="376.6666666666665" fill="#ffffff"></rect><g stroke-linecap="round" transform="translate(10 10) rotate(0 185 178.33333333333326)"><path d="M0 0 C0 0, 0 0, 0 0 M0 0 C0 0, 0 0, 0 0 M-0.26 6.4 C1.5 4.37, 3.27 2.34, 4.99 0.36 M-0.26 6.4 C1.09 4.85, 2.43 3.3, 4.99 0.36 M0.13 12.04 C3 8.75, 5.86 5.45, 10.63 -0.03 M0.13 12.04 C4.26 7.29, 8.39 2.54, 10.63 -0.03 M-0.13 18.44 C3.57 14.19, 7.26 9.94, 15.62 0.33 M-0.13 18.44 C4.37 13.27, 8.86 8.1, 15.62 0.33 M0.27 24.08 C8.08 15.1, 15.88 6.12, 21.26 -0.07 M0.27 24.08 C7.89 15.31, 15.51 6.54, 21.26 -0.07 M0 30.48 C5.73 23.89, 11.45 17.31, 26.25 0.29 M0 30.48 C7.49 21.87, 14.98 13.25, 26.25 0.29 M-0.26 36.88 C8.27 27.07, 16.8 17.25, 31.89 -0.1 M-0.26 36.88 C11.48 23.38, 23.21 9.88, 31.89 -0.1 M0.14 42.52 C12.61 28.18, 25.07 13.84, 36.88 0.26 M0.14 42.52 C14.61 25.87, 29.08 9.22, 36.88 0.26 M-0.12 48.92 C15.85 30.55, 31.82 12.17, 42.52 -0.14 M-0.12 48.92 C11.3 35.78, 22.72 22.64, 42.52 -0.14 M0.27 54.56 C18.64 33.43, 37 12.31, 47.51 0.22 M0.27 54.56 C10.26 43.07, 20.25 31.58, 47.51 0.22 M0.01 60.96 C13.76 45.14, 27.51 29.33, 53.15 -0.17 M0.01 60.96 C10.81 48.54, 21.61 36.11, 53.15 -0.17 M-0.25 67.36 C16.94 47.58, 34.13 27.8, 58.14 0.19 M-0.25 67.36 C11.46 53.88, 23.17 40.41, 58.14 0.19 M0.14 73 C13.8 57.29, 27.46 41.57, 63.78 -0.21 M0.14 73 C23.37 46.28, 46.59 19.56, 63.78 -0.21 M-0.12 79.4 C22.04 53.91, 44.2 28.42, 68.77 0.15 M-0.12 79.4 C19.62 56.69, 39.36 33.98, 68.77 0.15 M0.28 85.04 C20.77 61.47, 41.26 37.9, 74.41 -0.24 M0.28 85.04 C15.81 67.17, 31.35 49.29, 74.41 -0.24 M0.01 91.44 C21.72 66.47, 43.42 41.51, 79.4 0.12 M0.01 91.44 C20.42 67.96, 40.83 44.49, 79.4 0.12 M-0.25 97.84 C18.15 76.67, 36.55 55.51, 85.04 -0.28 M-0.25 97.84 C21.59 72.72, 43.42 47.6, 85.04 -0.28 M0.15 103.48 C26.22 73.49, 52.29 43.5, 90.03 0.08 M0.15 103.48 C32.71 66.02, 65.27 28.57, 90.03 0.08 M-0.11 109.88 C32.62 72.22, 65.36 34.56, 95.67 -0.31 M-0.11 109.88 C27.25 78.4, 54.61 46.93, 95.67 -0.31 M0.28 115.52 C25.34 86.69, 50.4 57.87, 100.66 0.05 M0.28 115.52 C31.88 79.16, 63.49 42.81, 100.66 0.05 M0.02 121.92 C32.03 85.09, 64.04 48.27, 106.3 -0.34 M0.02 121.92 C36.42 80.05, 72.82 38.17, 106.3 -0.34 M-0.24 128.32 C40.75 81.16, 81.73 34.01, 111.29 0.02 M-0.24 128.32 C32.11 91.1, 64.46 53.89, 111.29 0.02 M0.15 133.96 C32.46 96.79, 64.77 59.62, 116.27 0.38 M0.15 133.96 C38.82 89.48, 77.48 45, 116.27 0.38 M-0.11 140.36 C48.29 84.68, 96.69 29, 121.92 -0.02 M-0.11 140.36 C39.61 94.66, 79.34 48.96, 121.92 -0.02 M0.29 146 C50.24 88.53, 100.2 31.06, 126.91 0.34 M0.29 146 C28.9 113.08, 57.52 80.16, 126.91 0.34 M0.02 152.4 C30.16 117.73, 60.3 83.06, 132.55 -0.05 M0.02 152.4 C42.63 103.38, 85.24 54.37, 132.55 -0.05 M-0.24 158.8 C42.37 109.78, 84.99 60.76, 137.54 0.31 M-0.24 158.8 C34.63 118.68, 69.5 78.57, 137.54 0.31 M0.16 164.44 C41.32 117.09, 82.48 69.74, 143.18 -0.09 M0.16 164.44 C34.58 124.84, 69 85.25, 143.18 -0.09 M-0.1 170.84 C32.39 133.45, 64.89 96.07, 148.17 0.27 M-0.1 170.84 C45.58 118.28, 91.27 65.73, 148.17 0.27 M0.29 176.48 C52.98 115.87, 105.67 55.26, 153.81 -0.12 M0.29 176.48 C47.61 122.05, 94.92 67.62, 153.81 -0.12 M0.03 182.88 C41.05 135.69, 82.06 88.51, 158.8 0.24 M0.03 182.88 C55.21 119.39, 110.4 55.91, 158.8 0.24 M-0.23 189.27 C48.61 133.09, 97.44 76.91, 164.44 -0.16 M-0.23 189.27 C34.65 149.15, 69.53 109.02, 164.44 -0.16 M0.16 194.92 C50.69 136.79, 101.22 78.67, 169.43 0.2 M0.16 194.92 C66.24 118.9, 132.32 42.88, 169.43 0.2 M-0.1 201.32 C67.93 123.06, 135.95 44.81, 175.07 -0.19 M-0.1 201.32 C52.75 140.52, 105.6 79.72, 175.07 -0.19 M0.3 206.96 C63 134.82, 125.71 62.68, 180.06 0.17 M0.3 206.96 C57.46 141.19, 114.63 75.43, 180.06 0.17 M0.03 213.36 C73.63 128.69, 147.23 44.02, 185.7 -0.23 M0.03 213.36 C72.55 129.94, 145.06 46.52, 185.7 -0.23 M-0.23 219.75 C67.74 141.56, 135.71 63.37, 190.69 0.13 M-0.23 219.75 C52.16 159.49, 104.55 99.22, 190.69 0.13 M0.17 225.4 C46.51 172.09, 92.85 118.78, 196.33 -0.26 M0.17 225.4 C69.52 145.61, 138.88 65.82, 196.33 -0.26 M-0.09 231.8 C41.04 184.48, 82.17 137.16, 201.32 0.1 M-0.09 231.8 C53.48 170.17, 107.05 108.54, 201.32 0.1 M0.3 237.44 C74.85 151.68, 149.4 65.92, 206.96 -0.3 M0.3 237.44 C68.18 159.36, 136.05 81.28, 206.96 -0.3 M0.04 243.84 C66.82 167.02, 133.6 90.2, 211.95 0.06 M0.04 243.84 C76.68 155.67, 153.33 67.5, 211.95 0.06 M-0.22 250.23 C78.27 159.94, 156.75 69.65, 217.59 -0.33 M-0.22 250.23 C68.47 171.22, 137.16 92.2, 217.59 -0.33 M0.17 255.88 C55.31 192.45, 110.45 129.02, 222.58 0.03 M0.17 255.88 C65.33 180.92, 130.5 105.96, 222.58 0.03 M-0.09 262.27 C82.78 166.94, 165.66 71.6, 228.22 -0.36 M-0.09 262.27 C85.99 163.25, 172.07 64.23, 228.22 -0.36 M0.3 267.92 C70.01 187.73, 139.71 107.55, 233.21 0 M0.3 267.92 C59.42 199.91, 118.53 131.91, 233.21 0 M0.04 274.32 C55.8 210.18, 111.55 146.05, 238.19 0.36 M0.04 274.32 C56.87 208.94, 113.7 143.56, 238.19 0.36 M-0.22 280.71 C73.82 195.54, 147.86 110.36, 243.84 -0.04 M-0.22 280.71 C73.15 196.31, 146.52 111.91, 243.84 -0.04 M0.18 286.36 C93.82 178.63, 187.46 70.91, 248.82 0.32 M0.18 286.36 C71.76 204.01, 143.34 121.67, 248.82 0.32 M-0.08 292.75 C58.95 224.85, 117.98 156.94, 254.47 -0.07 M-0.08 292.75 C89.61 189.57, 179.3 86.39, 254.47 -0.07 M0.31 298.4 C86.07 199.74, 171.83 101.08, 259.45 0.29 M0.31 298.4 C97.48 186.62, 194.64 74.84, 259.45 0.29 M0.05 304.8 C104.48 184.66, 208.92 64.52, 265.1 -0.11 M0.05 304.8 C103.54 185.74, 207.03 66.69, 265.1 -0.11 M-0.21 311.19 C101.16 194.58, 202.53 77.97, 270.08 0.25 M-0.21 311.19 C57.24 245.1, 114.7 179, 270.08 0.25 M0.18 316.84 C65.33 241.89, 130.48 166.95, 275.73 -0.14 M0.18 316.84 C71.51 234.78, 142.84 152.72, 275.73 -0.14 M-0.08 323.23 C90.98 218.48, 182.04 113.72, 280.71 0.22 M-0.08 323.23 C105.47 201.82, 211.02 80.4, 280.71 0.22 M0.31 328.88 C98.51 215.91, 196.71 102.95, 286.36 -0.18 M0.31 328.88 C75.84 241.99, 151.37 155.11, 286.36 -0.18 M0.05 335.27 C96.67 224.13, 193.29 112.98, 291.34 0.18 M0.05 335.27 C88.21 233.86, 176.36 132.45, 291.34 0.18 M-0.21 341.67 C70.02 260.88, 140.26 180.09, 296.99 -0.21 M-0.21 341.67 C111.21 213.5, 222.64 85.32, 296.99 -0.21 M0.19 347.32 C86.99 247.46, 173.79 147.61, 301.97 0.15 M0.19 347.32 C88.61 245.6, 177.03 143.88, 301.97 0.15 M-0.08 353.71 C115.2 221.1, 230.48 88.49, 307.62 -0.25 M-0.08 353.71 C68.52 274.8, 137.12 195.89, 307.62 -0.25 M1.63 357.85 C70.05 279.14, 138.48 200.42, 312.6 0.11 M1.63 357.85 C97.93 247.07, 194.23 136.29, 312.6 0.11 M6.62 358.21 C117.24 230.95, 227.86 103.69, 318.25 -0.28 M6.62 358.21 C100.75 249.92, 194.88 141.64, 318.25 -0.28 M12.26 357.81 C103.79 252.52, 195.32 147.22, 323.23 0.08 M12.26 357.81 C129.76 222.64, 247.26 87.48, 323.23 0.08 M17.25 358.17 C114.32 246.5, 211.39 134.84, 328.88 -0.31 M17.25 358.17 C132.15 225.99, 247.05 93.82, 328.88 -0.31 M22.89 357.78 C89.28 281.41, 155.66 205.04, 333.86 0.05 M22.89 357.78 C142.68 219.97, 262.48 82.17, 333.86 0.05 M27.88 358.14 C126.31 244.9, 224.75 131.66, 339.51 -0.35 M27.88 358.14 C103.25 271.44, 178.61 184.74, 339.51 -0.35 M33.52 357.74 C101.28 279.8, 169.03 201.85, 344.49 0.01 M33.52 357.74 C121.21 256.87, 208.9 155.99, 344.49 0.01 M38.51 358.1 C155.84 223.13, 273.16 88.16, 349.48 0.37 M38.51 358.1 C101.61 285.51, 164.72 212.92, 349.48 0.37 M44.15 357.71 C132.93 255.58, 221.71 153.46, 355.12 -0.02 M44.15 357.71 C131.49 257.24, 218.83 156.77, 355.12 -0.02 M49.14 358.07 C124.53 271.34, 199.92 184.62, 360.11 0.34 M49.14 358.07 C172.24 216.45, 295.35 74.84, 360.11 0.34 M54.78 357.67 C157.93 239.01, 261.08 120.35, 365.75 -0.06 M54.78 357.67 C134.7 265.74, 214.62 173.8, 365.75 -0.06 M59.77 358.03 C182.75 216.56, 305.73 75.09, 370.74 0.3 M59.77 358.03 C130.4 276.78, 201.04 195.52, 370.74 0.3 M65.41 357.64 C129.32 284.13, 193.22 210.61, 370.48 6.7 M65.41 357.64 C171.61 235.47, 277.82 113.3, 370.48 6.7 M70.4 358 C147.95 268.79, 225.49 179.58, 370.87 12.34 M70.4 358 C180.28 231.6, 290.15 105.2, 370.87 12.34 M76.04 357.61 C167.13 252.82, 258.22 148.03, 370.61 18.74 M76.04 357.61 C180.45 237.5, 284.85 117.4, 370.61 18.74 M81.03 357.97 C193.71 228.34, 306.39 98.72, 370.35 25.14 M81.03 357.97 C180.24 243.83, 279.46 129.7, 370.35 25.14 M86.02 358.33 C188.2 240.77, 290.39 123.22, 370.75 30.78 M86.02 358.33 C182.43 247.42, 278.84 136.51, 370.75 30.78 M91.66 357.93 C171.48 266.11, 251.3 174.29, 370.48 37.18 M91.66 357.93 C190.04 244.76, 288.41 131.59, 370.48 37.18 M96.65 358.29 C158.05 287.66, 219.45 217.02, 370.88 42.82 M96.65 358.29 C158.58 287.04, 220.52 215.8, 370.88 42.82 M102.29 357.9 C204.98 239.76, 307.67 121.63, 370.62 49.22 M102.29 357.9 C169.86 280.16, 237.44 202.43, 370.62 49.22 M107.28 358.26 C188.09 265.29, 268.9 172.33, 370.36 55.62 M107.28 358.26 C160.91 296.56, 214.53 234.87, 370.36 55.62 M112.92 357.86 C177.49 283.58, 242.06 209.3, 370.75 61.26 M112.92 357.86 C205.45 251.42, 297.98 144.97, 370.75 61.26 M117.91 358.22 C206.1 256.77, 294.29 155.31, 370.49 67.66 M117.91 358.22 C199.44 264.42, 280.98 170.63, 370.49 67.66 M123.55 357.83 C222.15 244.4, 320.75 130.98, 370.88 73.3 M123.55 357.83 C186.73 285.15, 249.9 212.47, 370.88 73.3 M128.54 358.19 C183.68 294.76, 238.82 231.32, 370.62 79.7 M128.54 358.19 C200.06 275.91, 271.58 193.64, 370.62 79.7 M134.18 357.79 C198.9 283.35, 263.61 208.9, 370.36 86.1 M134.18 357.79 C225.21 253.08, 316.24 148.36, 370.36 86.1 M139.17 358.15 C222.18 262.66, 305.19 167.17, 370.76 91.74 M139.17 358.15 C207.92 279.06, 276.68 199.96, 370.76 91.74 M144.81 357.76 C203.65 290.07, 262.49 222.38, 370.49 98.14 M144.81 357.76 C202.42 291.48, 260.04 225.21, 370.49 98.14 M149.8 358.12 C214.82 283.32, 279.84 208.52, 370.89 103.78 M149.8 358.12 C230.47 265.31, 311.15 172.5, 370.89 103.78 M155.44 357.72 C215.79 288.3, 276.13 218.88, 370.63 110.18 M155.44 357.72 C205.79 299.8, 256.14 241.88, 370.63 110.18 M160.43 358.08 C228.69 279.55, 296.96 201.02, 370.37 116.58 M160.43 358.08 C244.33 261.57, 328.23 165.05, 370.37 116.58 M166.07 357.69 C246.38 265.3, 326.69 172.91, 370.76 122.22 M166.07 357.69 C238.32 274.58, 310.56 191.47, 370.76 122.22 M171.06 358.05 C226.82 293.9, 282.59 229.75, 370.5 128.62 M171.06 358.05 C243.62 274.58, 316.18 191.1, 370.5 128.62 M176.7 357.65 C253.05 269.83, 329.39 182, 370.89 134.26 M176.7 357.65 C236.15 289.27, 295.6 220.88, 370.89 134.26 M181.69 358.02 C242.68 287.85, 303.67 217.69, 370.63 140.66 M181.69 358.02 C235.09 296.58, 288.49 235.15, 370.63 140.66 M187.33 357.62 C227.05 311.93, 266.77 266.24, 370.37 147.06 M187.33 357.62 C233.09 304.98, 278.85 252.34, 370.37 147.06 M192.32 357.98 C256.15 284.55, 319.99 211.11, 370.77 152.7 M192.32 357.98 C235.82 307.94, 279.32 257.9, 370.77 152.7 M197.3 358.34 C255.43 291.48, 313.55 224.62, 370.5 159.1 M197.3 358.34 C232.54 317.8, 267.78 277.27, 370.5 159.1 M202.95 357.95 C240.7 314.52, 278.45 271.09, 370.9 164.74 M202.95 357.95 C269.7 281.16, 336.44 204.38, 370.9 164.74 M207.93 358.31 C266.2 291.28, 324.46 224.26, 370.64 171.14 M207.93 358.31 C248.28 311.89, 288.63 265.48, 370.64 171.14 M213.58 357.91 C260.91 303.46, 308.25 249, 370.38 177.54 M213.58 357.91 C269.44 293.64, 325.31 229.38, 370.38 177.54 M218.56 358.27 C253.75 317.79, 288.94 277.32, 370.77 183.18 M218.56 358.27 C268.41 300.93, 318.26 243.59, 370.77 183.18 M224.21 357.88 C268.76 306.63, 313.31 255.38, 370.51 189.58 M224.21 357.88 C282.08 291.3, 339.95 224.73, 370.51 189.58 M229.19 358.24 C262.91 319.45, 296.63 280.66, 370.25 195.97 M229.19 358.24 C264.24 317.92, 299.29 277.61, 370.25 195.97 M234.84 357.84 C273.62 313.23, 312.4 268.62, 370.64 201.62 M234.84 357.84 C269.19 318.32, 303.55 278.8, 370.64 201.62 M239.82 358.2 C266.38 327.66, 292.93 297.11, 370.38 208.02 M239.82 358.2 C276.36 316.18, 312.89 274.15, 370.38 208.02 M245.47 357.81 C274.97 323.87, 304.48 289.93, 370.77 213.66 M245.47 357.81 C286.65 310.43, 327.83 263.06, 370.77 213.66 M250.45 358.17 C284.47 319.04, 318.49 279.9, 370.51 220.06 M250.45 358.17 C292.84 309.41, 335.22 260.66, 370.51 220.06 M256.1 357.77 C288.31 320.72, 320.51 283.67, 370.25 226.45 M256.1 357.77 C288.67 320.3, 321.24 282.83, 370.25 226.45 M261.08 358.13 C302.24 310.79, 343.39 263.45, 370.65 232.1 M261.08 358.13 C289.79 325.11, 318.49 292.09, 370.65 232.1 M266.73 357.74 C296.9 323.03, 327.07 288.33, 370.39 238.5 M266.73 357.74 C292.46 328.14, 318.19 298.54, 370.39 238.5 M271.71 358.1 C302.86 322.27, 334 286.45, 370.78 244.14 M271.71 358.1 C297.79 328.11, 323.86 298.11, 370.78 244.14 M277.36 357.7 C302.05 329.29, 326.75 300.88, 370.52 250.54 M277.36 357.7 C296.45 335.74, 315.55 313.77, 370.52 250.54 M282.34 358.06 C306.2 330.63, 330.05 303.19, 370.26 256.93 M282.34 358.06 C306.57 330.2, 330.8 302.33, 370.26 256.93 M287.99 357.67 C316.48 324.89, 344.98 292.11, 370.65 262.58 M287.99 357.67 C305 338.1, 322.02 318.52, 370.65 262.58 M292.97 358.03 C320.5 326.36, 348.03 294.69, 370.39 268.97 M292.97 358.03 C314.69 333.04, 336.41 308.06, 370.39 268.97 M298.62 357.64 C313.62 340.38, 328.62 323.12, 370.78 274.62 M298.62 357.64 C324.85 327.46, 351.08 297.29, 370.78 274.62 M303.61 358 C317.92 341.53, 332.24 325.06, 370.52 281.02 M303.61 358 C325.16 333.2, 346.72 308.4, 370.52 281.02 M308.59 358.36 C325.24 339.21, 341.88 320.06, 370.26 287.41 M308.59 358.36 C324.2 340.4, 339.8 322.45, 370.26 287.41 M314.24 357.96 C327.24 343, 340.24 328.04, 370.66 293.06 M314.24 357.96 C331.54 338.06, 348.84 318.15, 370.66 293.06 M319.22 358.32 C333.75 341.61, 348.27 324.9, 370.39 299.45 M319.22 358.32 C335.2 339.94, 351.19 321.55, 370.39 299.45 M324.87 357.93 C339.88 340.66, 354.89 323.39, 370.79 305.1 M324.87 357.93 C334.2 347.19, 343.53 336.46, 370.79 305.1 M329.85 358.29 C343.68 342.37, 357.52 326.46, 370.53 311.49 M329.85 358.29 C339.67 346.99, 349.49 335.69, 370.53 311.49 M335.5 357.89 C348.1 343.4, 360.7 328.9, 370.27 317.89 M335.5 357.89 C343.95 348.17, 352.4 338.44, 370.27 317.89 M340.48 358.25 C348.53 349, 356.57 339.75, 370.66 323.54 M340.48 358.25 C346.61 351.2, 352.74 344.15, 370.66 323.54 M346.13 357.86 C354.22 348.54, 362.32 339.22, 370.4 329.93 M346.13 357.86 C353.9 348.91, 361.68 339.97, 370.4 329.93 M351.11 358.22 C355.61 353.04, 360.11 347.87, 370.79 335.58 M351.11 358.22 C355.49 353.18, 359.87 348.14, 370.79 335.58 M356.76 357.82 C361.92 351.88, 367.08 345.94, 370.53 341.97 M356.76 357.82 C362.15 351.62, 367.54 345.42, 370.53 341.97 M361.74 358.18 C364.55 354.95, 367.36 351.72, 370.27 348.37 M361.74 358.18 C365.05 354.38, 368.35 350.58, 370.27 348.37 M367.39 357.79 C368.56 356.44, 369.73 355.09, 370.67 354.02 M367.39 357.79 C368.29 356.75, 369.19 355.71, 370.67 354.02" stroke="#fff" stroke-width="0.5" fill="none"></path><path d="M0 0 C142.7 0, 285.41 0, 370 0 M0 0 C120.01 0, 240.02 0, 370 0 M370 0 C370 96.09, 370 192.19, 370 356.67 M370 0 C370 97.63, 370 195.26, 370 356.67 M370 356.67 C274.71 356.67, 179.42 356.67, 0 356.67 M370 356.67 C226.95 356.67, 83.9 356.67, 0 356.67 M0 356.67 C0 282.83, 0 208.99, 0 0 M0 356.67 C0 241.25, 0 125.84, 0 0" stroke="#000000" stroke-width="1" fill="none"></path></g><g transform="translate(143.49739771419104 26.56910506884651) rotate(0 51 13.5)"><text x="0" y="20" font-family="Virgil, Segoe UI Emoji" font-size="20px" fill="#000000" text-anchor="start" style="white-space: pre;" direction="ltr">ह की आवाज़</text></g><g transform="translate(23.83073104752441 56.45799395773611) rotate(0 172 135.5)"><text x="0" y="17.636363636363637" font-family="Virgil, Segoe UI Emoji" font-size="17.955555555555563px" fill="#000000" text-anchor="start" style="white-space: pre;" direction="ltr">1. दो चश्मी हे</text><text x="0" y="42.27272727272727" font-family="Virgil, Segoe UI Emoji" font-size="17.955555555555563px" fill="#000000" text-anchor="start" style="white-space: pre;" direction="ltr"> </text><text x="0" y="66.9090909090909" font-family="Virgil, Segoe UI Emoji" font-size="17.955555555555563px" fill="#000000" text-anchor="start" style="white-space: pre;" direction="ltr">2. इस 'दो चश्मी हे' को अक्षरों के साथ मिलाएं </text><text x="0" y="91.54545454545455" font-family="Virgil, Segoe UI Emoji" font-size="17.955555555555563px" fill="#000000" text-anchor="start" style="white-space: pre;" direction="ltr">जो आप पहले ही सीख चुके हैं, कल्पना करें</text><text x="0" y="116.18181818181819" font-family="Virgil, Segoe UI Emoji" font-size="17.955555555555563px" fill="#000000" text-anchor="start" style="white-space: pre;" direction="ltr">इन अक्षरों पर चश्मा लगा है। ये अक्षर अपनी </text><text x="0" y="140.8181818181818" font-family="Virgil, Segoe UI Emoji" font-size="17.955555555555563px" fill="#000000" text-anchor="start" style="white-space: pre;" direction="ltr">आवाज़ बदलते हैं</text><text x="0" y="165.45454545454547" font-family="Virgil, Segoe UI Emoji" font-size="17.955555555555563px" fill="#000000" text-anchor="start" style="white-space: pre;" direction="ltr"></text><text x="0" y="190.0909090909091" font-family="Virgil, Segoe UI Emoji" font-size="17.955555555555563px" fill="#000000" text-anchor="start" style="white-space: pre;" direction="ltr">3. कल्पना कीजिए कि अक्षर को अपना style </text><text x="0" y="214.72727272727272" font-family="Virgil, Segoe UI Emoji" font-size="17.955555555555563px" fill="#000000" text-anchor="start" style="white-space: pre;" direction="ltr">मिल गया चश्मे के साथ, इसलिए उनसे अलग </text><text x="0" y="239.36363636363637" font-family="Virgil, Segoe UI Emoji" font-size="17.955555555555563px" fill="#000000" text-anchor="start" style="white-space: pre;" direction="ltr">तरह से आवाज़ आती है अधिक हवा के साथ बोले</text><text x="0" y="264" font-family="Virgil, Segoe UI Emoji" font-size="17.955555555555563px" fill="#000000" text-anchor="start" style="white-space: pre;" direction="ltr">जाते है</text></g><g transform="translate(112.7057635519244 317.1475831666703) rotate(0 76.5 21)"><text x="76.5" y="15" font-family="Virgil, Segoe UI Emoji" font-size="14.912985274431067px" fill="#e67700" text-anchor="middle" style="white-space: pre;" direction="ltr">नोट: और भी ह आवाज़ें हैं,</text><text x="76.5" y="36" font-family="Virgil, Segoe UI Emoji" font-size="14.912985274431067px" fill="#e67700" text-anchor="middle" style="white-space: pre;" direction="ltr">हम उन्हें बाद में सीखेंगे</text></g></svg>