<svg version="1.1" xmlns="http://www.w3.org/2000/svg" viewBox="0 0 386.66666666666674 358.8888888888887" width="386.66666666666674" height="358.8888888888887">
  <!-- svg-source:excalidraw -->
  
  <defs>
    <style>
      @font-face {
        font-family: "Virgil";
        src: url("../Virgil.woff2");;
      }
      
    </style>
  </defs>
  <rect x="0" y="0" width="386.66666666666674" height="358.8888888888887" fill="#ffffff"></rect><g stroke-linecap="round" transform="translate(10 10) rotate(0 183.33333333333337 169.44444444444434)"><path d="M0 0 C0 0, 0 0, 0 0 M0 0 C0 0, 0 0, 0 0 M-0.26 6.4 C1.18 4.74, 2.62 3.08, 4.99 0.36 M-0.26 6.4 C1.28 4.62, 2.82 2.85, 4.99 0.36 M0.13 12.04 C3.5 8.17, 6.87 4.3, 10.63 -0.03 M0.13 12.04 C3.08 8.65, 6.02 5.26, 10.63 -0.03 M-0.13 18.44 C3.02 14.81, 6.18 11.19, 15.62 0.33 M-0.13 18.44 C3.05 14.78, 6.23 11.12, 15.62 0.33 M0.27 24.08 C5.71 17.82, 11.16 11.55, 21.26 -0.07 M0.27 24.08 C4.99 18.64, 9.72 13.21, 21.26 -0.07 M0 30.48 C7.7 21.63, 15.39 12.79, 26.25 0.29 M0 30.48 C9.33 19.75, 18.66 9.02, 26.25 0.29 M-0.26 36.88 C9.29 25.9, 18.83 14.92, 31.89 -0.1 M-0.26 36.88 C7.22 28.28, 14.69 19.68, 31.89 -0.1 M0.14 42.52 C11.93 28.95, 23.73 15.38, 36.88 0.26 M0.14 42.52 C8.5 32.9, 16.87 23.27, 36.88 0.26 M-0.12 48.92 C9.41 37.95, 18.94 26.98, 42.52 -0.14 M-0.12 48.92 C10.15 37.1, 20.42 25.29, 42.52 -0.14 M0.27 54.56 C15.52 37.02, 30.76 19.48, 47.51 0.22 M0.27 54.56 C19.03 32.98, 37.78 11.41, 47.51 0.22 M0.01 60.96 C18.65 39.51, 37.3 18.06, 53.15 -0.17 M0.01 60.96 C12.95 46.07, 25.9 31.18, 53.15 -0.17 M-0.25 67.36 C17.67 46.74, 35.59 26.12, 58.14 0.19 M-0.25 67.36 C14.15 50.79, 28.54 34.23, 58.14 0.19 M0.14 73 C13.52 57.62, 26.89 42.23, 63.78 -0.21 M0.14 73 C24.86 44.57, 49.57 16.14, 63.78 -0.21 M-0.12 79.4 C24.18 51.45, 48.48 23.49, 68.77 0.15 M-0.12 79.4 C18.06 58.49, 36.23 37.58, 68.77 0.15 M0.28 85.04 C19.05 63.44, 37.82 41.85, 74.41 -0.24 M0.28 85.04 C20.87 61.35, 41.46 37.67, 74.41 -0.24 M0.01 91.44 C24.59 63.17, 49.17 34.9, 79.4 0.12 M0.01 91.44 C27.1 60.28, 54.19 29.11, 79.4 0.12 M-0.25 97.84 C29.79 63.28, 59.83 28.72, 85.04 -0.28 M-0.25 97.84 C22.69 71.45, 45.63 45.06, 85.04 -0.28 M0.15 103.48 C26.86 72.75, 53.58 42.01, 90.03 0.08 M0.15 103.48 C24.94 74.96, 49.73 46.44, 90.03 0.08 M-0.11 109.88 C28.57 76.87, 57.26 43.87, 95.67 -0.31 M-0.11 109.88 C35.7 68.68, 71.51 27.48, 95.67 -0.31 M0.28 115.52 C20.94 91.76, 41.59 68, 100.66 0.05 M0.28 115.52 C27.31 84.42, 54.34 53.33, 100.66 0.05 M0.02 121.92 C32.73 84.28, 65.45 46.65, 106.3 -0.34 M0.02 121.92 C38.18 78.01, 76.35 34.11, 106.3 -0.34 M-0.24 128.32 C43.87 77.57, 87.99 26.82, 111.29 0.02 M-0.24 128.32 C25.2 99.05, 50.64 69.78, 111.29 0.02 M0.15 133.96 C36.17 92.53, 72.19 51.09, 116.27 0.38 M0.15 133.96 C28.7 101.12, 57.25 68.27, 116.27 0.38 M-0.11 140.36 C48.37 84.59, 96.84 28.83, 121.92 -0.02 M-0.11 140.36 C32.03 103.39, 64.17 66.42, 121.92 -0.02 M0.29 146 C33.2 108.14, 66.11 70.28, 126.91 0.34 M0.29 146 C26.89 115.4, 53.49 84.79, 126.91 0.34 M0.02 152.4 C28.11 120.09, 56.19 87.79, 132.55 -0.05 M0.02 152.4 C51.82 92.81, 103.62 33.23, 132.55 -0.05 M-0.24 158.8 C31.55 122.23, 63.34 85.66, 137.54 0.31 M-0.24 158.8 C38.68 114.02, 77.61 69.25, 137.54 0.31 M0.16 164.44 C30.31 129.76, 60.45 95.08, 143.18 -0.09 M0.16 164.44 C33.2 126.42, 66.25 88.41, 143.18 -0.09 M-0.1 170.84 C46.83 116.84, 93.76 62.85, 148.17 0.27 M-0.1 170.84 C36.72 128.47, 73.55 86.11, 148.17 0.27 M0.29 176.48 C36.45 134.88, 72.62 93.28, 153.81 -0.12 M0.29 176.48 C47.75 121.88, 95.21 67.29, 153.81 -0.12 M0.03 182.88 C52.69 122.3, 105.35 61.72, 158.8 0.24 M0.03 182.88 C55.24 119.37, 110.44 55.86, 158.8 0.24 M-0.23 189.27 C48.86 132.8, 97.96 76.32, 164.44 -0.16 M-0.23 189.27 C58.22 122.03, 116.68 54.78, 164.44 -0.16 M0.16 194.92 C52.75 134.42, 105.35 73.92, 169.43 0.2 M0.16 194.92 C63.68 121.85, 127.2 48.78, 169.43 0.2 M-0.1 201.32 C49.09 144.74, 98.27 88.15, 175.07 -0.19 M-0.1 201.32 C35.48 160.39, 71.06 119.46, 175.07 -0.19 M0.3 206.96 C37.78 163.83, 75.27 120.71, 180.06 0.17 M0.3 206.96 C68.67 128.3, 137.04 49.65, 180.06 0.17 M0.03 213.36 C43.86 162.94, 87.69 112.52, 185.7 -0.23 M0.03 213.36 C54.39 150.82, 108.75 88.29, 185.7 -0.23 M-0.23 219.75 C38.03 175.74, 76.29 131.73, 190.69 0.13 M-0.23 219.75 C69.86 139.13, 139.95 58.5, 190.69 0.13 M0.17 225.4 C56.43 160.67, 112.7 95.94, 196.33 -0.26 M0.17 225.4 C72.33 142.38, 144.5 59.36, 196.33 -0.26 M-0.09 231.8 C76.81 143.33, 153.71 54.86, 201.32 0.1 M-0.09 231.8 C79.32 140.44, 158.73 49.09, 201.32 0.1 M0.3 237.44 C67.73 159.87, 135.17 82.29, 206.96 -0.3 M0.3 237.44 C78.22 147.8, 156.14 58.16, 206.96 -0.3 M0.04 243.84 C56.97 178.35, 113.9 112.85, 211.95 0.06 M0.04 243.84 C58.38 176.72, 116.73 109.6, 211.95 0.06 M-0.22 250.23 C69.03 170.56, 138.29 90.89, 217.59 -0.33 M-0.22 250.23 C81.14 156.63, 162.51 63.03, 217.59 -0.33 M0.17 255.88 C66.24 179.88, 132.3 103.88, 222.58 0.03 M0.17 255.88 C62.08 184.66, 123.99 113.44, 222.58 0.03 M-0.09 262.27 C90.24 158.37, 180.56 54.46, 228.22 -0.36 M-0.09 262.27 C49.09 205.7, 98.27 149.12, 228.22 -0.36 M0.3 267.92 C75.64 181.26, 150.97 94.59, 233.21 0 M0.3 267.92 C53 207.3, 105.69 146.68, 233.21 0 M0.04 274.32 C86.59 174.75, 173.14 75.19, 238.19 0.36 M0.04 274.32 C63.22 201.64, 126.39 128.97, 238.19 0.36 M-0.22 280.71 C79.02 189.56, 158.27 98.4, 243.84 -0.04 M-0.22 280.71 C96.55 169.4, 193.31 58.09, 243.84 -0.04 M0.18 286.36 C98.59 173.14, 197 59.93, 248.82 0.32 M0.18 286.36 C72.4 203.27, 144.63 120.18, 248.82 0.32 M-0.08 292.75 C75.73 205.54, 151.54 118.33, 254.47 -0.07 M-0.08 292.75 C56.24 227.96, 112.56 163.17, 254.47 -0.07 M0.31 298.4 C87.77 197.79, 175.23 97.18, 259.45 0.29 M0.31 298.4 C94.41 190.15, 188.51 81.9, 259.45 0.29 M0.05 304.8 C95.54 194.94, 191.03 85.09, 265.1 -0.11 M0.05 304.8 C102.75 186.65, 205.45 68.5, 265.1 -0.11 M-0.21 311.19 C54.81 247.89, 109.84 184.6, 270.08 0.25 M-0.21 311.19 C97.06 199.29, 194.34 87.39, 270.08 0.25 M0.18 316.84 C69 237.67, 137.82 158.5, 275.73 -0.14 M0.18 316.84 C92.97 210.1, 185.75 103.36, 275.73 -0.14 M-0.08 323.23 C78.38 232.98, 156.83 142.73, 280.71 0.22 M-0.08 323.23 C73.55 238.53, 147.18 153.83, 280.71 0.22 M0.31 328.88 C64.48 255.06, 128.64 181.25, 286.36 -0.18 M0.31 328.88 C104.79 208.69, 209.27 88.5, 286.36 -0.18 M0.05 335.27 C64.34 261.32, 128.63 187.37, 291.34 0.18 M0.05 335.27 C74.69 249.41, 149.33 163.55, 291.34 0.18 M1.1 340.16 C108.3 216.85, 215.49 93.54, 296.99 -0.21 M1.1 340.16 C96.97 229.88, 192.84 119.59, 296.99 -0.21 M6.75 339.77 C111.09 219.73, 215.44 99.7, 301.97 0.15 M6.75 339.77 C75.45 260.73, 144.15 181.7, 301.97 0.15 M11.73 340.13 C89.35 250.84, 166.96 161.56, 307.62 -0.25 M11.73 340.13 C106.02 231.67, 200.3 123.21, 307.62 -0.25 M17.38 339.73 C127.78 212.73, 238.17 85.74, 312.6 0.11 M17.38 339.73 C102.15 242.21, 186.92 144.69, 312.6 0.11 M22.36 340.09 C123.97 223.21, 225.57 106.33, 318.25 -0.28 M22.36 340.09 C84.35 268.79, 146.33 197.49, 318.25 -0.28 M28.01 339.7 C101.47 255.19, 174.94 170.68, 323.23 0.08 M28.01 339.7 C92.87 265.08, 157.73 190.47, 323.23 0.08 M32.99 340.06 C135.01 222.71, 237.02 105.35, 328.88 -0.31 M32.99 340.06 C125.17 234.02, 217.35 127.99, 328.88 -0.31 M38.64 339.66 C131.65 232.66, 224.67 125.66, 333.86 0.05 M38.64 339.66 C108.09 259.77, 177.53 179.88, 333.86 0.05 M43.62 340.02 C110.52 263.07, 177.41 186.12, 339.51 -0.35 M43.62 340.02 C130.76 239.78, 217.9 139.54, 339.51 -0.35 M49.27 339.63 C161.41 210.62, 273.56 81.61, 344.49 0.01 M49.27 339.63 C121.1 257, 192.92 174.37, 344.49 0.01 M54.25 339.99 C133.14 249.24, 212.03 158.49, 349.48 0.37 M54.25 339.99 C137.74 243.95, 221.22 147.92, 349.48 0.37 M59.24 340.35 C124.58 265.19, 189.91 190.03, 355.12 -0.02 M59.24 340.35 C165.2 218.45, 271.17 96.56, 355.12 -0.02 M64.88 339.96 C173.64 214.85, 282.4 89.73, 360.11 0.34 M64.88 339.96 C169.82 219.24, 274.76 98.53, 360.11 0.34 M69.87 340.32 C154.43 243.04, 238.99 145.77, 365.75 -0.06 M69.87 340.32 C187.82 204.63, 305.77 68.95, 365.75 -0.06 M75.51 339.92 C178.42 221.54, 281.33 103.16, 369.43 1.81 M75.51 339.92 C147.89 256.66, 220.27 173.4, 369.43 1.81 M80.5 340.28 C193.93 209.79, 307.37 79.3, 369.17 8.21 M80.5 340.28 C192.63 211.3, 304.75 82.31, 369.17 8.21 M86.14 339.89 C157.77 257.49, 229.39 175.1, 368.91 14.61 M86.14 339.89 C155.04 260.63, 223.95 181.37, 368.91 14.61 M91.13 340.25 C155.34 266.38, 219.56 192.51, 369.3 20.25 M91.13 340.25 C162.29 258.39, 233.45 176.53, 369.3 20.25 M96.77 339.85 C161.86 264.98, 226.94 190.12, 369.04 26.65 M96.77 339.85 C175.96 248.76, 255.14 157.68, 369.04 26.65 M101.76 340.21 C170.89 260.69, 240.01 181.18, 369.43 32.29 M101.76 340.21 C191.1 237.44, 280.44 134.67, 369.43 32.29 M107.4 339.82 C183.01 252.84, 258.61 165.87, 369.17 38.69 M107.4 339.82 C182.15 253.83, 256.9 167.84, 369.17 38.69 M112.39 340.18 C164.8 279.89, 217.2 219.61, 368.91 45.09 M112.39 340.18 C179.07 263.47, 245.76 186.76, 368.91 45.09 M118.03 339.78 C194.53 251.78, 271.03 163.78, 369.31 50.73 M118.03 339.78 C213.61 229.84, 309.18 119.89, 369.31 50.73 M123.02 340.14 C213.67 235.87, 304.31 131.6, 369.04 57.13 M123.02 340.14 C191.11 261.82, 259.19 183.5, 369.04 57.13 M128.66 339.75 C178.74 282.14, 228.82 224.54, 369.44 62.77 M128.66 339.75 C196.67 261.51, 264.68 183.28, 369.44 62.77 M133.65 340.11 C209.12 253.3, 284.58 166.48, 369.18 69.17 M133.65 340.11 C211.65 250.38, 289.65 160.65, 369.18 69.17 M139.3 339.71 C194.83 275.83, 250.36 211.95, 368.92 75.57 M139.3 339.71 C220.52 246.28, 301.74 152.84, 368.92 75.57 M144.28 340.07 C189.35 288.23, 234.42 236.38, 369.31 81.21 M144.28 340.07 C228.66 243, 313.05 145.93, 369.31 81.21 M149.93 339.68 C208.82 271.93, 267.71 204.18, 369.05 87.61 M149.93 339.68 C218.02 261.35, 286.11 183.02, 369.05 87.61 M154.91 340.04 C201.78 286.13, 248.64 232.22, 369.44 93.25 M154.91 340.04 C211.68 274.74, 268.44 209.44, 369.44 93.25 M160.56 339.65 C217.25 274.42, 273.95 209.2, 369.18 99.65 M160.56 339.65 C228.32 261.7, 296.08 183.75, 369.18 99.65 M165.54 340.01 C237.86 256.82, 310.17 173.63, 368.92 106.05 M165.54 340.01 C218.65 278.91, 271.75 217.82, 368.92 106.05 M171.19 339.61 C221.55 281.67, 271.91 223.74, 369.32 111.69 M171.19 339.61 C234.94 266.27, 298.7 192.92, 369.32 111.69 M176.17 339.97 C226.83 281.69, 277.49 223.41, 369.05 118.09 M176.17 339.97 C239.89 266.67, 303.61 193.38, 369.05 118.09 M181.16 340.33 C245.12 266.75, 309.09 193.17, 369.45 123.73 M181.16 340.33 C234.34 279.16, 287.51 217.99, 369.45 123.73 M186.8 339.94 C252.65 264.19, 318.49 188.44, 369.19 130.13 M186.8 339.94 C231.08 289.01, 275.35 238.07, 369.19 130.13 M191.79 340.3 C240.02 284.81, 288.25 229.33, 368.93 136.53 M191.79 340.3 C252.36 270.61, 312.94 200.93, 368.93 136.53 M197.43 339.9 C256.27 272.22, 315.11 204.53, 369.32 142.17 M197.43 339.9 C244.45 285.82, 291.46 231.74, 369.32 142.17 M202.42 340.26 C255.11 279.65, 307.79 219.04, 369.06 148.57 M202.42 340.26 C250.82 284.58, 299.23 228.9, 369.06 148.57 M208.06 339.87 C251.38 290.03, 294.7 240.2, 369.45 154.21 M208.06 339.87 C256.88 283.71, 305.7 227.55, 369.45 154.21 M213.05 340.23 C268.64 276.28, 324.23 212.33, 369.19 160.61 M213.05 340.23 C255.62 291.26, 298.19 242.29, 369.19 160.61 M218.69 339.83 C259.5 292.89, 300.31 245.94, 368.93 167 M218.69 339.83 C265.9 285.52, 313.11 231.21, 368.93 167 M223.68 340.19 C281.45 273.73, 339.23 207.27, 369.32 172.65 M223.68 340.19 C265.6 291.97, 307.52 243.74, 369.32 172.65 M229.32 339.8 C264.89 298.89, 300.45 257.98, 369.06 179.05 M229.32 339.8 C270.96 291.9, 312.6 244, 369.06 179.05 M234.31 340.16 C269.91 299.21, 305.51 258.25, 369.46 184.69 M234.31 340.16 C273.52 295.05, 312.74 249.94, 369.46 184.69 M239.95 339.76 C290.35 281.79, 340.74 223.82, 369.2 191.09 M239.95 339.76 C284.88 288.08, 329.81 236.39, 369.2 191.09 M244.94 340.12 C282.35 297.09, 319.77 254.05, 368.93 197.48 M244.94 340.12 C280.7 298.99, 316.45 257.86, 368.93 197.48 M250.58 339.73 C276.83 309.54, 303.08 279.34, 369.33 203.13 M250.58 339.73 C293.55 290.3, 336.51 240.88, 369.33 203.13 M255.57 340.09 C287.06 303.86, 318.56 267.63, 369.07 209.52 M255.57 340.09 C283.48 307.98, 311.39 275.88, 369.07 209.52 M261.21 339.7 C300.33 294.69, 339.45 249.69, 369.46 215.17 M261.21 339.7 C298.43 296.88, 335.65 254.07, 369.46 215.17 M266.2 340.06 C294.71 307.25, 323.23 274.45, 369.2 221.57 M266.2 340.06 C305.44 294.92, 344.67 249.79, 369.2 221.57 M271.84 339.66 C310.18 295.56, 348.51 251.47, 368.94 227.96 M271.84 339.66 C301.13 305.97, 330.42 272.28, 368.94 227.96 M276.83 340.02 C295.91 318.07, 314.99 296.13, 369.33 233.61 M276.83 340.02 C301.46 311.69, 326.09 283.36, 369.33 233.61 M282.47 339.63 C314.98 302.23, 347.48 264.84, 369.07 240 M282.47 339.63 C312.6 304.97, 342.73 270.31, 369.07 240 M287.46 339.99 C311.25 312.61, 335.05 285.24, 368.81 246.4 M287.46 339.99 C314.26 309.16, 341.05 278.34, 368.81 246.4 M292.45 340.35 C317.59 311.43, 342.72 282.51, 369.21 252.05 M292.45 340.35 C307.8 322.69, 323.15 305.02, 369.21 252.05 M298.09 339.95 C325.2 308.76, 352.32 277.57, 368.94 258.44 M298.09 339.95 C323.07 311.22, 348.05 282.48, 368.94 258.44 M303.08 340.31 C326 313.94, 348.93 287.56, 369.34 264.09 M303.08 340.31 C321.63 318.97, 340.18 297.63, 369.34 264.09 M308.72 339.92 C323.46 322.96, 338.2 306, 369.08 270.48 M308.72 339.92 C331.21 314.05, 353.7 288.18, 369.08 270.48 M313.71 340.28 C330.02 321.52, 346.33 302.75, 368.82 276.88 M313.71 340.28 C325.53 326.67, 337.36 313.07, 368.82 276.88 M319.35 339.88 C332.55 324.69, 345.76 309.5, 369.21 282.52 M319.35 339.88 C338.36 318.02, 357.36 296.16, 369.21 282.52 M324.34 340.24 C338.29 324.2, 352.23 308.15, 368.95 288.92 M324.34 340.24 C339.29 323.04, 354.25 305.83, 368.95 288.92 M329.98 339.85 C343.86 323.89, 357.73 307.92, 369.34 294.57 M329.98 339.85 C338.82 329.68, 347.65 319.52, 369.34 294.57 M334.97 340.21 C345.27 328.36, 355.56 316.52, 369.08 300.96 M334.97 340.21 C347.86 325.37, 360.76 310.54, 369.08 300.96 M340.61 339.81 C347.26 332.17, 353.91 324.52, 368.82 307.36 M340.61 339.81 C349.17 329.97, 357.73 320.12, 368.82 307.36 M345.6 340.17 C351.26 333.67, 356.91 327.16, 369.22 313 M345.6 340.17 C354.66 329.75, 363.72 319.32, 369.22 313 M351.24 339.78 C357.67 332.38, 364.1 324.99, 368.95 319.4 M351.24 339.78 C356.09 334.2, 360.94 328.62, 368.95 319.4 M356.23 340.14 C359.8 336.03, 363.37 331.93, 369.35 325.05 M356.23 340.14 C361.45 334.13, 366.67 328.13, 369.35 325.05 M361.87 339.74 C363.34 338.06, 364.8 336.37, 369.09 331.44 M361.87 339.74 C364.37 336.87, 366.86 334, 369.09 331.44" stroke="#fff" stroke-width="0.5" fill="none"></path><path d="M0 0 C106.98 0, 213.96 0, 366.67 0 M0 0 C131.51 0, 263.01 0, 366.67 0 M366.67 0 C366.67 68.61, 366.67 137.22, 366.67 338.89 M366.67 0 C366.67 81.96, 366.67 163.93, 366.67 338.89 M366.67 338.89 C228.48 338.89, 90.29 338.89, 0 338.89 M366.67 338.89 C257.02 338.89, 147.36 338.89, 0 338.89 M0 338.89 C0 231.24, 0 123.6, 0 0 M0 338.89 C0 216.3, 0 93.7, 0 0" stroke="#000000" stroke-width="1" fill="none"></path></g><g transform="translate(28.888888888888914 89.66666666666788) rotate(0 166.5 30)"><text x="0" y="14" font-family="Virgil, Segoe UI Emoji" font-size="15.46274813096159px" fill="#000000" text-anchor="start" style="white-space: pre;" direction="ltr">1. It appears when vowel/musawate</text><text x="0" y="34" font-family="Virgil, Segoe UI Emoji" font-size="15.46274813096159px" fill="#000000" text-anchor="start" style="white-space: pre;" direction="ltr">(alif,vao,choti ya,badi ya) </text><text x="0" y="54" font-family="Virgil, Segoe UI Emoji" font-size="15.46274813096159px" fill="#000000" text-anchor="start" style="white-space: pre;" direction="ltr">come together, it is placed on second vowel</text></g><g transform="translate(99.58197331428596 30.482977787552954) rotate(0 78.5 13)"><text x="78.5" y="19" font-family="Virgil, Segoe UI Emoji" font-size="20px" fill="#000000" text-anchor="middle" style="white-space: pre;" direction="ltr">Humza(ء) Part 1</text></g><g transform="translate(80.22222222222229 171.55555555555566) rotate(0 107 13)"><text x="107" y="19" font-family="Virgil, Segoe UI Emoji" font-size="20px" fill="#000000" text-anchor="middle" style="white-space: pre;" direction="ltr">(bhai) بھائ=ب+ھ+ا+ئ </text></g><g transform="translate(72.50000000000011 206) rotate(0 105.5 13)"><text x="105.5" y="19" font-family="Virgil, Segoe UI Emoji" font-size="20px" fill="#000000" text-anchor="middle" style="white-space: pre;" direction="ltr"> (gaye) گاےء=گ+ا+ے+ء</text></g><g transform="translate(60.500000000000114 251.55555555555566) rotate(0 115.5 13)"><text x="115.5" y="19" font-family="Virgil, Segoe UI Emoji" font-size="20px" fill="#000000" text-anchor="middle" style="white-space: pre;" direction="rtl">بچاؤ=ب+چ+ا+اُو (bachao)</text></g><g transform="translate(84.54700854700752 298.55555555555566) rotate(0 72 13)"><text x="72" y="19" font-family="Virgil, Segoe UI Emoji" font-size="20px" fill="#000000" text-anchor="middle" style="white-space: pre;" direction="rtl">لاؤ=ل+ا+و (lao)</text></g><g transform="translate(59.09833354420141 62.77243945333794) rotate(0 132.5 10)"><text x="132.5" y="14" font-family="Virgil, Segoe UI Emoji" font-size="16px" fill="#d9480f" text-anchor="middle" style="white-space: pre;" direction="ltr">Note: never used in intial position</text></g></svg>