<svg version="1.1" xmlns="http://www.w3.org/2000/svg" viewBox="0 0 375.5555555555553 377.77777777777794" width="375.5555555555553" height="377.77777777777794">
  <!-- svg-source:excalidraw -->
  
  <defs>
    <style>
      @font-face {
        font-family: "Virgil";
        src: url("../Virgil.woff2");;
      }
      
    </style>
  </defs>
  <rect x="0" y="0" width="375.5555555555553" height="377.77777777777794" fill="#ffffff"></rect><g stroke-linecap="round" transform="translate(10 10) rotate(0 177.77777777777766 178.88888888888897)"><path d="M0 0 L355.56 0 L355.56 357.78 L0 357.78" stroke="none" stroke-width="0" fill="#fff"></path><path d="M0 0 C82.17 0, 164.33 0, 355.56 0 M0 0 C83.35 0, 166.7 0, 355.56 0 M355.56 0 C355.56 83.64, 355.56 167.29, 355.56 357.78 M355.56 0 C355.56 113.56, 355.56 227.12, 355.56 357.78 M355.56 357.78 C241.31 357.78, 127.07 357.78, 0 357.78 M355.56 357.78 C270.77 357.78, 185.98 357.78, 0 357.78 M0 357.78 C0 234.52, 0 111.26, 0 0 M0 357.78 C0 270.47, 0 183.17, 0 0" stroke="#000000" stroke-width="1" fill="none"></path></g><g stroke-linecap="round"><g transform="translate(94.99938936540605 167.43323143542284) rotate(0 -20.814834637328204 54.729189527264)"><path d="M0 0 C-6.94 18.24, -34.69 91.22, -41.63 109.46 M0 0 C-6.94 18.24, -34.69 91.22, -41.63 109.46" stroke="#000000" stroke-width="1" fill="none"></path></g><g transform="translate(94.99938936540605 167.43323143542284) rotate(0 -20.814834637328204 54.729189527264)"><path d="M-41.2 79.46 C-41.37 91.29, -41.54 103.11, -41.63 109.46 M-41.2 79.46 C-41.29 85.76, -41.38 92.06, -41.63 109.46" stroke="#000000" stroke-width="1" fill="none"></path></g><g transform="translate(94.99938936540605 167.43323143542284) rotate(0 -20.814834637328204 54.729189527264)"><path d="M-22.02 86.76 C-29.75 95.71, -37.48 104.66, -41.63 109.46 M-22.02 86.76 C-26.14 91.52, -30.25 96.29, -41.63 109.46" stroke="#000000" stroke-width="1" fill="none"></path></g></g><g stroke-linecap="round"><g transform="translate(180.75563476271282 173.24536512034126) rotate(6.03839899952794 5.455563295104582 48.63493062935356)"><path d="M0 0 C1.82 16.21, 9.09 81.06, 10.91 97.27 M0 0 C1.82 16.21, 9.09 81.06, 10.91 97.27" stroke="#000000" stroke-width="1" fill="none"></path></g><g transform="translate(180.75563476271282 173.24536512034126) rotate(6.03839899952794 5.455563295104582 48.63493062935356)"><path d="M-2.43 70.4 C1.84 79, 6.11 87.6, 10.91 97.27 M-2.43 70.4 C1.01 77.32, 4.44 84.24, 10.91 97.27" stroke="#000000" stroke-width="1" fill="none"></path></g><g transform="translate(180.75563476271282 173.24536512034126) rotate(6.03839899952794 5.455563295104582 48.63493062935356)"><path d="M17.97 68.11 C15.71 77.45, 13.45 86.78, 10.91 97.27 M17.97 68.11 C16.15 75.62, 14.33 83.13, 10.91 97.27" stroke="#000000" stroke-width="1" fill="none"></path></g></g><g stroke-linecap="round"><g transform="translate(280.5191470269107 164.6367044756181) rotate(0 14.832563693921657 51.09547394638929)"><path d="M0 0 C4.94 17.03, 24.72 85.16, 29.67 102.19 M0 0 C4.94 17.03, 24.72 85.16, 29.67 102.19" stroke="#000000" stroke-width="1" fill="none"></path></g><g transform="translate(280.5191470269107 164.6367044756181) rotate(0 14.832563693921657 51.09547394638929)"><path d="M11.95 77.98 C15.83 83.28, 19.7 88.57, 29.67 102.19 M11.95 77.98 C16.74 84.52, 21.52 91.06, 29.67 102.19" stroke="#000000" stroke-width="1" fill="none"></path></g><g transform="translate(280.5191470269107 164.6367044756181) rotate(0 14.832563693921657 51.09547394638929)"><path d="M31.66 72.26 C31.22 78.81, 30.79 85.35, 29.67 102.19 M31.66 72.26 C31.12 80.34, 30.58 88.43, 29.67 102.19" stroke="#000000" stroke-width="1" fill="none"></path></g></g><g stroke-linecap="round" transform="translate(97.59265687730488 74.03576281335631) rotate(0 93 43.88888888888897)"><path d="M0 0 C0 0, 0 0, 0 0 M0 0 C0 0, 0 0, 0 0 M-0.26 6.4 C1.64 4.21, 3.53 2.03, 4.99 0.36 M-0.26 6.4 C1.57 4.3, 3.39 2.19, 4.99 0.36 M0.13 12.04 C2.79 8.98, 5.45 5.92, 10.63 -0.03 M0.13 12.04 C3.33 8.36, 6.53 4.68, 10.63 -0.03 M-0.13 18.44 C4.76 12.82, 9.64 7.2, 15.62 0.33 M-0.13 18.44 C4.73 12.85, 9.59 7.26, 15.62 0.33 M0.27 24.08 C6.52 16.89, 12.77 9.7, 21.26 -0.07 M0.27 24.08 C5.35 18.23, 10.44 12.38, 21.26 -0.07 M0 30.48 C5.69 23.94, 11.37 17.41, 26.25 0.29 M0 30.48 C8.33 20.9, 16.65 11.33, 26.25 0.29 M-0.26 36.88 C10.08 24.98, 20.42 13.09, 31.89 -0.1 M-0.26 36.88 C11.2 23.69, 22.66 10.51, 31.89 -0.1 M0.14 42.52 C12.69 28.08, 25.24 13.64, 36.88 0.26 M0.14 42.52 C10.26 30.88, 20.38 19.24, 36.88 0.26 M-0.12 48.92 C12.54 34.35, 25.21 19.78, 42.52 -0.14 M-0.12 48.92 C15.36 31.1, 30.85 13.29, 42.52 -0.14 M0.27 54.56 C15.34 37.22, 30.41 19.89, 47.51 0.22 M0.27 54.56 C17.44 34.81, 34.6 15.07, 47.51 0.22 M0.01 60.96 C14.27 44.55, 28.53 28.15, 53.15 -0.17 M0.01 60.96 C18.94 39.18, 37.87 17.4, 53.15 -0.17 M-0.25 67.36 C20.42 43.58, 41.09 19.8, 58.14 0.19 M-0.25 67.36 C13.71 51.3, 27.67 35.24, 58.14 0.19 M0.14 73 C22.53 47.24, 44.92 21.49, 63.78 -0.21 M0.14 73 C13.38 57.78, 26.61 42.55, 63.78 -0.21 M-0.12 79.4 C15.28 61.68, 30.69 43.96, 68.77 0.15 M-0.12 79.4 C16.33 60.48, 32.77 41.56, 68.77 0.15 M0.28 85.04 C25.14 56.43, 50.01 27.83, 74.41 -0.24 M0.28 85.04 C27.59 53.62, 54.91 22.2, 74.41 -0.24 M1.98 89.17 C23.41 64.52, 44.84 39.87, 79.4 0.12 M1.98 89.17 C31.14 55.64, 60.29 22.1, 79.4 0.12 M6.97 89.53 C28.76 64.47, 50.54 39.41, 85.04 -0.28 M6.97 89.53 C27.75 65.63, 48.53 41.73, 85.04 -0.28 M12.61 89.14 C30.76 68.26, 48.91 47.38, 90.03 0.08 M12.61 89.14 C39.33 58.41, 66.04 27.67, 90.03 0.08 M17.6 89.5 C42.16 61.25, 66.71 33, 95.67 -0.31 M17.6 89.5 C41.61 61.88, 65.61 34.27, 95.67 -0.31 M23.24 89.11 C53.38 54.44, 83.51 19.77, 100.66 0.05 M23.24 89.11 C47.62 61.07, 71.99 33.03, 100.66 0.05 M28.23 89.47 C47.4 67.42, 66.56 45.37, 106.3 -0.34 M28.23 89.47 C49.87 64.57, 71.51 39.68, 106.3 -0.34 M33.87 89.07 C49.81 70.74, 65.75 52.4, 111.29 0.02 M33.87 89.07 C59.77 59.28, 85.66 29.5, 111.29 0.02 M38.86 89.43 C65.76 58.48, 92.66 27.54, 116.27 0.38 M38.86 89.43 C65.02 59.34, 91.17 29.25, 116.27 0.38 M44.5 89.04 C69.33 60.47, 94.16 31.91, 121.92 -0.02 M44.5 89.04 C70.11 59.57, 95.73 30.11, 121.92 -0.02 M49.49 89.4 C77.97 56.63, 106.46 23.86, 126.91 0.34 M49.49 89.4 C67.33 68.87, 85.18 48.34, 126.91 0.34 M55.13 89 C81.63 58.53, 108.12 28.05, 132.55 -0.05 M55.13 89 C79.04 61.5, 102.95 34, 132.55 -0.05 M60.12 89.36 C85.37 60.32, 110.61 31.28, 137.54 0.31 M60.12 89.36 C81.33 64.96, 102.54 40.56, 137.54 0.31 M65.11 89.72 C84.66 67.22, 104.22 44.73, 143.18 -0.09 M65.11 89.72 C92.55 58.15, 119.99 26.58, 143.18 -0.09 M70.75 89.33 C95 61.44, 119.24 33.55, 148.17 0.27 M70.75 89.33 C99.05 56.77, 127.35 24.22, 148.17 0.27 M75.74 89.69 C106.79 53.97, 137.84 18.25, 153.81 -0.12 M75.74 89.69 C92.92 69.92, 110.1 50.15, 153.81 -0.12 M81.38 89.29 C104 63.27, 126.62 37.25, 158.8 0.24 M81.38 89.29 C110.82 55.42, 140.27 21.55, 158.8 0.24 M86.37 89.65 C110.4 62, 134.44 34.36, 164.44 -0.16 M86.37 89.65 C113.99 57.87, 141.62 26.09, 164.44 -0.16 M92.01 89.26 C115.08 62.72, 138.15 36.18, 169.43 0.2 M92.01 89.26 C120.79 56.15, 149.57 23.04, 169.43 0.2 M97 89.62 C118.6 64.77, 140.21 39.91, 175.07 -0.19 M97 89.62 C118.09 65.35, 139.19 41.08, 175.07 -0.19 M102.64 89.22 C121.03 68.07, 139.41 46.92, 180.06 0.17 M102.64 89.22 C131.39 56.15, 160.14 23.08, 180.06 0.17 M107.63 89.58 C136.68 56.17, 165.72 22.75, 185.7 -0.23 M107.63 89.58 C136.11 56.82, 164.59 24.06, 185.7 -0.23 M113.27 89.19 C135.09 64.09, 156.92 38.98, 188.72 2.4 M113.27 89.19 C142.6 55.45, 171.92 21.72, 188.72 2.4 M118.26 89.55 C134.65 70.69, 151.04 51.84, 188.46 8.8 M118.26 89.55 C140.1 64.42, 161.95 39.29, 188.46 8.8 M123.9 89.16 C143.64 66.45, 163.37 43.75, 188.85 14.44 M123.9 89.16 C137.64 73.35, 151.38 57.55, 188.85 14.44 M128.89 89.52 C145.16 70.8, 161.42 52.09, 188.59 20.84 M128.89 89.52 C144.49 71.57, 160.08 53.63, 188.59 20.84 M134.53 89.12 C145.62 76.36, 156.71 63.6, 188.98 26.48 M134.53 89.12 C145.73 76.24, 156.93 63.35, 188.98 26.48 M139.52 89.48 C152.92 74.06, 166.32 58.65, 188.72 32.88 M139.52 89.48 C151.57 75.62, 163.62 61.75, 188.72 32.88 M145.16 89.09 C161.75 70.01, 178.33 50.93, 188.46 39.28 M145.16 89.09 C158.81 73.38, 172.46 57.68, 188.46 39.28 M150.15 89.45 C165.18 72.15, 180.21 54.86, 188.86 44.92 M150.15 89.45 C164.48 72.96, 178.81 56.47, 188.86 44.92 M155.79 89.05 C165.9 77.43, 176 65.8, 188.59 51.32 M155.79 89.05 C164.39 79.16, 173 69.26, 188.59 51.32 M160.78 89.41 C170.58 78.13, 180.39 66.85, 188.99 56.96 M160.78 89.41 C167.08 82.16, 173.38 74.91, 188.99 56.96 M166.42 89.02 C173.49 80.89, 180.56 72.76, 188.73 63.36 M166.42 89.02 C174.16 80.11, 181.9 71.21, 188.73 63.36 M171.41 89.38 C175.66 84.49, 179.9 79.6, 188.47 69.75 M171.41 89.38 C175.99 84.11, 180.57 78.83, 188.47 69.75 M176.4 89.74 C179.13 86.59, 181.86 83.45, 188.86 75.4 M176.4 89.74 C179.48 86.18, 182.57 82.63, 188.86 75.4 M182.04 89.34 C184.42 86.6, 186.81 83.86, 188.6 81.8 M182.04 89.34 C183.67 87.47, 185.3 85.59, 188.6 81.8" stroke="#fff" stroke-width="0.5" fill="none"></path><path d="M0 0 C69.12 0, 138.24 0, 186 0 M186 0 C186 33.91, 186 67.82, 186 87.78 M186 87.78 C133.76 87.78, 81.53 87.78, 0 87.78 M0 87.78 C0 69.18, 0 50.59, 0 0" stroke="#c92a2a" stroke-width="1.5" fill="none" stroke-dasharray="8 9"></path></g><g stroke-linecap="round"><g transform="translate(251.11111111111074 94.669388267729) rotate(0 -57.777777777777715 19.216261496148263)"><path d="M0 0 C-2.38 5.78, 2.76 29.05, -14.3 34.66 C-31.37 40.27, -85.52 39.36, -102.4 33.67 C-119.27 27.97, -113.36 6.02, -115.56 0.5 M0 0 C-2.38 5.78, 2.76 29.05, -14.3 34.66 C-31.37 40.27, -85.52 39.36, -102.4 33.67 C-119.27 27.97, -113.36 6.02, -115.56 0.5" stroke="#000000" stroke-width="1" fill="none"></path></g></g><g stroke-linecap="round" transform="translate(183.2037679884162 140.75798503557883) rotate(0 5.5 5.5)"><path d="M11 5.5 C11 5.82, 10.97 6.14, 10.92 6.46 C10.86 6.77, 10.78 7.08, 10.67 7.38 C10.56 7.68, 10.42 7.97, 10.26 8.25 C10.1 8.53, 9.92 8.79, 9.71 9.04 C9.51 9.28, 9.28 9.51, 9.04 9.71 C8.79 9.92, 8.53 10.1, 8.25 10.26 C7.97 10.42, 7.68 10.56, 7.38 10.67 C7.08 10.78, 6.77 10.86, 6.46 10.92 C6.14 10.97, 5.82 11, 5.5 11 C5.18 11, 4.86 10.97, 4.54 10.92 C4.23 10.86, 3.92 10.78, 3.62 10.67 C3.32 10.56, 3.03 10.42, 2.75 10.26 C2.47 10.1, 2.21 9.92, 1.96 9.71 C1.72 9.51, 1.49 9.28, 1.29 9.04 C1.08 8.79, 0.9 8.53, 0.74 8.25 C0.58 7.97, 0.44 7.68, 0.33 7.38 C0.22 7.08, 0.14 6.77, 0.08 6.46 C0.03 6.14, 0 5.82, 0 5.5 C0 5.18, 0.03 4.86, 0.08 4.54 C0.14 4.23, 0.22 3.92, 0.33 3.62 C0.44 3.32, 0.58 3.03, 0.74 2.75 C0.9 2.47, 1.08 2.21, 1.29 1.96 C1.49 1.72, 1.72 1.49, 1.96 1.29 C2.21 1.08, 2.47 0.9, 2.75 0.74 C3.03 0.58, 3.32 0.44, 3.62 0.33 C3.92 0.22, 4.23 0.14, 4.54 0.08 C4.86 0.03, 5.18 0, 5.5 0 C5.82 0, 6.14 0.03, 6.46 0.08 C6.77 0.14, 7.08 0.22, 7.38 0.33 C7.68 0.44, 7.97 0.58, 8.25 0.74 C8.53 0.9, 8.79 1.08, 9.04 1.29 C9.28 1.49, 9.51 1.72, 9.71 1.96 C9.92 2.21, 10.1 2.47, 10.26 2.75 C10.42 3.03, 10.56 3.32, 10.67 3.62 C10.78 3.92, 10.86 4.23, 10.92 4.54 C10.97 4.86, 10.99 5.34, 11 5.5 C11.01 5.66, 11.01 5.34, 11 5.5" stroke="none" stroke-width="0" fill="#fd7e14"></path><path d="M11 5.5 C11 5.82, 10.97 6.14, 10.92 6.46 C10.86 6.77, 10.78 7.08, 10.67 7.38 C10.56 7.68, 10.42 7.97, 10.26 8.25 C10.1 8.53, 9.92 8.79, 9.71 9.04 C9.51 9.28, 9.28 9.51, 9.04 9.71 C8.79 9.92, 8.53 10.1, 8.25 10.26 C7.97 10.42, 7.68 10.56, 7.38 10.67 C7.08 10.78, 6.77 10.86, 6.46 10.92 C6.14 10.97, 5.82 11, 5.5 11 C5.18 11, 4.86 10.97, 4.54 10.92 C4.23 10.86, 3.92 10.78, 3.62 10.67 C3.32 10.56, 3.03 10.42, 2.75 10.26 C2.47 10.1, 2.21 9.92, 1.96 9.71 C1.72 9.51, 1.49 9.28, 1.29 9.04 C1.08 8.79, 0.9 8.53, 0.74 8.25 C0.58 7.97, 0.44 7.68, 0.33 7.38 C0.22 7.08, 0.14 6.77, 0.08 6.46 C0.03 6.14, 0 5.82, 0 5.5 C0 5.18, 0.03 4.86, 0.08 4.54 C0.14 4.23, 0.22 3.92, 0.33 3.62 C0.44 3.32, 0.58 3.03, 0.74 2.75 C0.9 2.47, 1.08 2.21, 1.29 1.96 C1.49 1.72, 1.72 1.49, 1.96 1.29 C2.21 1.08, 2.47 0.9, 2.75 0.74 C3.03 0.58, 3.32 0.44, 3.62 0.33 C3.92 0.22, 4.23 0.14, 4.54 0.08 C4.86 0.03, 5.18 0, 5.5 0 C5.82 0, 6.14 0.03, 6.46 0.08 C6.77 0.14, 7.08 0.22, 7.38 0.33 C7.68 0.44, 7.97 0.58, 8.25 0.74 C8.53 0.9, 8.79 1.08, 9.04 1.29 C9.28 1.49, 9.51 1.72, 9.71 1.96 C9.92 2.21, 10.1 2.47, 10.26 2.75 C10.42 3.03, 10.56 3.32, 10.67 3.62 C10.78 3.92, 10.86 4.23, 10.92 4.54 C10.97 4.86, 10.99 5.34, 11 5.5 C11.01 5.66, 11.01 5.34, 11 5.5" stroke="#000000" stroke-width="1" fill="none"></path></g><g transform="translate(59.8148790995275 34.70242948002294) rotate(0 124.5 10.5)"><text x="0" y="15" font-family="Virgil, Segoe UI Emoji" font-size="16px" fill="#000000" text-anchor="start" style="white-space: pre;" direction="ltr">Three shapes of letter Bey(пе)</text></g><g stroke-linecap="round" transform="translate(273.148212432861 280.70242948002317) rotate(0 35 29.444444444444457)"><path d="M0 0 C0 0, 0 0, 0 0 M0 0 C0 0, 0 0, 0 0 M-0.26 6.4 C0.99 4.96, 2.24 3.52, 4.99 0.36 M-0.26 6.4 C1.4 4.49, 3.06 2.58, 4.99 0.36 M0.13 12.04 C3.95 7.66, 7.76 3.27, 10.63 -0.03 M0.13 12.04 C2.52 9.3, 4.9 6.56, 10.63 -0.03 M-0.13 18.44 C4.03 13.66, 8.18 8.88, 15.62 0.33 M-0.13 18.44 C3.22 14.59, 6.57 10.74, 15.62 0.33 M0.27 24.08 C8.43 14.69, 16.6 5.29, 21.26 -0.07 M0.27 24.08 C4.52 19.19, 8.78 14.29, 21.26 -0.07 M0 30.48 C6.85 22.6, 13.7 14.73, 26.25 0.29 M0 30.48 C5.74 23.88, 11.48 17.28, 26.25 0.29 M-0.26 36.88 C9.19 26.01, 18.63 15.15, 31.89 -0.1 M-0.26 36.88 C7.97 27.41, 16.2 17.95, 31.89 -0.1 M0.14 42.52 C7.95 33.53, 15.76 24.55, 36.88 0.26 M0.14 42.52 C13.53 27.11, 26.92 11.71, 36.88 0.26 M-0.12 48.92 C11.47 35.58, 23.06 22.24, 42.52 -0.14 M-0.12 48.92 C13.98 32.69, 28.09 16.46, 42.52 -0.14 M0.27 54.56 C13.23 39.66, 26.18 24.76, 47.51 0.22 M0.27 54.56 C17.2 35.09, 34.12 15.62, 47.51 0.22 M1.32 59.45 C21.5 36.23, 41.69 13.01, 53.15 -0.17 M1.32 59.45 C19.43 38.62, 37.54 17.79, 53.15 -0.17 M6.31 59.81 C25.63 37.58, 44.95 15.35, 58.14 0.19 M6.31 59.81 C26.32 36.79, 46.34 13.76, 58.14 0.19 M11.95 59.42 C31.88 36.5, 51.8 13.58, 63.78 -0.21 M11.95 59.42 C22.94 46.78, 33.92 34.14, 63.78 -0.21 M16.94 59.78 C27.69 47.41, 38.43 35.05, 68.77 0.15 M16.94 59.78 C33.13 41.15, 49.32 22.52, 68.77 0.15 M21.93 60.14 C35.4 44.63, 48.88 29.13, 72.44 2.02 M21.93 60.14 C41.97 37.07, 62.02 14.01, 72.44 2.02 M27.57 59.74 C38.66 46.98, 49.76 34.22, 72.18 8.42 M27.57 59.74 C40.04 45.4, 52.51 31.05, 72.18 8.42 M32.56 60.1 C45.3 45.44, 58.04 30.79, 72.58 14.06 M32.56 60.1 C46.99 43.5, 61.42 26.9, 72.58 14.06 M38.2 59.71 C49.78 46.38, 61.37 33.06, 72.31 20.46 M38.2 59.71 C48.7 47.62, 59.21 35.54, 72.31 20.46 M43.19 60.07 C51.83 50.12, 60.47 40.18, 72.71 26.1 M43.19 60.07 C53.16 48.59, 63.13 37.12, 72.71 26.1 M48.83 59.67 C55.79 51.67, 62.74 43.67, 72.45 32.5 M48.83 59.67 C55.83 51.62, 62.83 43.56, 72.45 32.5 M53.82 60.03 C57.78 55.48, 61.74 50.92, 72.19 38.9 M53.82 60.03 C60.08 52.82, 66.35 45.61, 72.19 38.9 M59.46 59.64 C63.4 55.11, 67.33 50.58, 72.58 44.54 M59.46 59.64 C62.37 56.29, 65.28 52.94, 72.58 44.54 M64.45 60 C67.47 56.52, 70.49 53.04, 72.32 50.94 M64.45 60 C67.29 56.72, 70.14 53.45, 72.32 50.94" stroke="#fff" stroke-width="0.5" fill="none"></path><path d="M0 0 C23.15 0, 46.3 0, 70 0 M70 0 C70 13.14, 70 26.29, 70 58.89 M70 58.89 C43.95 58.89, 17.91 58.89, 0 58.89 M0 58.89 C0 36.6, 0 14.31, 0 0" stroke="#c92a2a" stroke-width="1.5" fill="none" stroke-dasharray="8 9"></path></g><g stroke-linecap="round"><g transform="translate(328.26592187427525 297.11285825104835) rotate(0 -21.71443500273358 11.086158577407161)"><path d="M0 0 C-0.5 3.47, 4.4 17.43, -3.03 20.8 C-10.45 24.16, -37.63 20.3, -44.55 20.2 M0 0 C-0.5 3.47, 4.4 17.43, -3.03 20.8 C-10.45 24.16, -37.63 20.3, -44.55 20.2" stroke="#000000" stroke-width="1" fill="none"></path></g></g><g stroke-linecap="round" transform="translate(312.6412032033255 326.02981281851396) rotate(0 3.300304283815649 3.300304283815649)"><path d="M6.6 3.3 C6.6 3.49, 6.58 3.69, 6.55 3.87 C6.52 4.06, 6.47 4.25, 6.4 4.43 C6.34 4.61, 6.25 4.79, 6.16 4.95 C6.06 5.12, 5.95 5.28, 5.83 5.42 C5.71 5.57, 5.57 5.71, 5.42 5.83 C5.28 5.95, 5.12 6.06, 4.95 6.16 C4.79 6.25, 4.61 6.34, 4.43 6.4 C4.25 6.47, 4.06 6.52, 3.87 6.55 C3.69 6.58, 3.49 6.6, 3.3 6.6 C3.11 6.6, 2.92 6.58, 2.73 6.55 C2.54 6.52, 2.35 6.47, 2.17 6.4 C1.99 6.34, 1.82 6.25, 1.65 6.16 C1.48 6.06, 1.33 5.95, 1.18 5.83 C1.03 5.71, 0.89 5.57, 0.77 5.42 C0.65 5.28, 0.54 5.12, 0.44 4.95 C0.35 4.79, 0.26 4.61, 0.2 4.43 C0.13 4.25, 0.08 4.06, 0.05 3.87 C0.02 3.69, 0 3.49, 0 3.3 C0 3.11, 0.02 2.92, 0.05 2.73 C0.08 2.54, 0.13 2.35, 0.2 2.17 C0.26 1.99, 0.35 1.82, 0.44 1.65 C0.54 1.48, 0.65 1.33, 0.77 1.18 C0.89 1.03, 1.03 0.89, 1.18 0.77 C1.33 0.65, 1.48 0.54, 1.65 0.44 C1.82 0.35, 1.99 0.26, 2.17 0.2 C2.35 0.13, 2.54 0.08, 2.73 0.05 C2.92 0.02, 3.11 0, 3.3 0 C3.49 0, 3.69 0.02, 3.87 0.05 C4.06 0.08, 4.25 0.13, 4.43 0.2 C4.61 0.26, 4.79 0.35, 4.95 0.44 C5.12 0.54, 5.28 0.65, 5.42 0.77 C5.57 0.89, 5.71 1.03, 5.83 1.18 C5.95 1.33, 6.06 1.48, 6.16 1.65 C6.25 1.82, 6.34 1.99, 6.4 2.17 C6.47 2.35, 6.52 2.54, 6.55 2.73 C6.58 2.92, 6.59 3.2, 6.6 3.3 C6.61 3.4, 6.61 3.2, 6.6 3.3" stroke="none" stroke-width="0" fill="#fd7e14"></path><path d="M6.6 3.3 C6.6 3.49, 6.58 3.69, 6.55 3.87 C6.52 4.06, 6.47 4.25, 6.4 4.43 C6.34 4.61, 6.25 4.79, 6.16 4.95 C6.06 5.12, 5.95 5.28, 5.83 5.42 C5.71 5.57, 5.57 5.71, 5.42 5.83 C5.28 5.95, 5.12 6.06, 4.95 6.16 C4.79 6.25, 4.61 6.34, 4.43 6.4 C4.25 6.47, 4.06 6.52, 3.87 6.55 C3.69 6.58, 3.49 6.6, 3.3 6.6 C3.11 6.6, 2.92 6.58, 2.73 6.55 C2.54 6.52, 2.35 6.47, 2.17 6.4 C1.99 6.34, 1.82 6.25, 1.65 6.16 C1.48 6.06, 1.33 5.95, 1.18 5.83 C1.03 5.71, 0.89 5.57, 0.77 5.42 C0.65 5.28, 0.54 5.12, 0.44 4.95 C0.35 4.79, 0.26 4.61, 0.2 4.43 C0.13 4.25, 0.08 4.06, 0.05 3.87 C0.02 3.69, 0 3.49, 0 3.3 C0 3.11, 0.02 2.92, 0.05 2.73 C0.08 2.54, 0.13 2.35, 0.2 2.17 C0.26 1.99, 0.35 1.82, 0.44 1.65 C0.54 1.48, 0.65 1.33, 0.77 1.18 C0.89 1.03, 1.03 0.89, 1.18 0.77 C1.33 0.65, 1.48 0.54, 1.65 0.44 C1.82 0.35, 1.99 0.26, 2.17 0.2 C2.35 0.13, 2.54 0.08, 2.73 0.05 C2.92 0.02, 3.11 0, 3.3 0 C3.49 0, 3.69 0.02, 3.87 0.05 C4.06 0.08, 4.25 0.13, 4.43 0.2 C4.61 0.26, 4.79 0.35, 4.95 0.44 C5.12 0.54, 5.28 0.65, 5.42 0.77 C5.57 0.89, 5.71 1.03, 5.83 1.18 C5.95 1.33, 6.06 1.48, 6.16 1.65 C6.25 1.82, 6.34 1.99, 6.4 2.17 C6.47 2.35, 6.52 2.54, 6.55 2.73 C6.58 2.92, 6.59 3.2, 6.6 3.3 C6.61 3.4, 6.61 3.2, 6.6 3.3" stroke="#000000" stroke-width="1" fill="none"></path></g><g transform="translate(295.3704346550834 343.70242948002294) rotate(0 19.5 10)"><text x="0" y="14" font-family="Virgil, Segoe UI Emoji" font-size="16px" fill="#000000" text-anchor="start" style="white-space: pre;" direction="ltr">intial</text></g><g stroke-linecap="round" transform="translate(152.03710132174967 280.70242948002317) rotate(0 36.111111111111086 30.555555555555543)"><path d="M0 0 C0 0, 0 0, 0 0 M0 0 C0 0, 0 0, 0 0 M-0.26 6.4 C1.13 4.8, 2.51 3.21, 4.99 0.36 M-0.26 6.4 C1.09 4.84, 2.44 3.28, 4.99 0.36 M0.13 12.04 C3.22 8.5, 6.3 4.95, 10.63 -0.03 M0.13 12.04 C2.3 9.54, 4.48 7.04, 10.63 -0.03 M-0.13 18.44 C5.79 11.63, 11.7 4.83, 15.62 0.33 M-0.13 18.44 C4.59 13.01, 9.31 7.58, 15.62 0.33 M0.27 24.08 C4.81 18.85, 9.36 13.63, 21.26 -0.07 M0.27 24.08 C6.9 16.45, 13.54 8.82, 21.26 -0.07 M0 30.48 C10.39 18.54, 20.77 6.6, 26.25 0.29 M0 30.48 C6.48 23.03, 12.95 15.59, 26.25 0.29 M-0.26 36.88 C7.7 27.72, 15.66 18.57, 31.89 -0.1 M-0.26 36.88 C9.75 25.36, 19.77 13.84, 31.89 -0.1 M0.14 42.52 C12.74 28.03, 25.34 13.53, 36.88 0.26 M0.14 42.52 C14.06 26.51, 27.97 10.5, 36.88 0.26 M-0.12 48.92 C15.65 30.78, 31.42 12.63, 42.52 -0.14 M-0.12 48.92 C16.26 30.08, 32.64 11.23, 42.52 -0.14 M0.27 54.56 C10.42 42.89, 20.57 31.21, 47.51 0.22 M0.27 54.56 C16.73 35.63, 33.18 16.7, 47.51 0.22 M0.01 60.96 C13.01 46.01, 26 31.06, 53.15 -0.17 M0.01 60.96 C21.12 36.68, 42.22 12.4, 53.15 -0.17 M3.03 63.58 C24.34 39.07, 45.64 14.56, 58.14 0.19 M3.03 63.58 C23.93 39.54, 44.83 15.49, 58.14 0.19 M8.02 63.94 C19.79 50.4, 31.56 36.86, 63.78 -0.21 M8.02 63.94 C23.94 45.63, 39.86 27.31, 63.78 -0.21 M13.66 63.55 C25.32 50.13, 36.98 36.72, 68.77 0.15 M13.66 63.55 C28.39 46.6, 43.13 29.65, 68.77 0.15 M18.65 63.91 C34.26 45.95, 49.87 27.98, 73.1 1.27 M18.65 63.91 C32.58 47.88, 46.51 31.85, 73.1 1.27 M24.29 63.51 C35.18 50.99, 46.06 38.47, 73.49 6.91 M24.29 63.51 C43 41.98, 61.72 20.45, 73.49 6.91 M29.28 63.87 C45.42 45.31, 61.55 26.74, 73.23 13.31 M29.28 63.87 C46.29 44.3, 63.3 24.73, 73.23 13.31 M34.92 63.48 C47.51 49, 60.1 34.52, 73.63 18.95 M34.92 63.48 C44.9 52, 54.88 40.51, 73.63 18.95 M39.91 63.84 C47.47 55.14, 55.03 46.44, 73.36 25.35 M39.91 63.84 C47.58 55.01, 55.26 46.18, 73.36 25.35 M45.55 63.45 C51.37 56.75, 57.19 50.05, 73.1 31.75 M45.55 63.45 C51.37 56.74, 57.2 50.04, 73.1 31.75 M50.54 63.81 C57.77 55.48, 65 47.16, 73.5 37.39 M50.54 63.81 C55.25 58.38, 59.97 52.95, 73.5 37.39 M56.18 63.41 C62.07 56.64, 67.96 49.86, 73.24 43.79 M56.18 63.41 C61.71 57.05, 67.24 50.69, 73.24 43.79 M61.17 63.77 C65.71 58.55, 70.25 53.32, 73.63 49.43 M61.17 63.77 C63.78 60.77, 66.39 57.76, 73.63 49.43 M66.81 63.38 C69.24 60.58, 71.68 57.78, 73.37 55.83 M66.81 63.38 C68.46 61.48, 70.11 59.58, 73.37 55.83" stroke="#fff" stroke-width="0.5" fill="none"></path><path d="M0 0 C16.68 0, 33.36 0, 72.22 0 M72.22 0 C72.22 14.77, 72.22 29.55, 72.22 61.11 M72.22 61.11 C56.3 61.11, 40.38 61.11, 0 61.11 M0 61.11 C0 48.12, 0 35.13, 0 0" stroke="#c92a2a" stroke-width="1.5" fill="none" stroke-dasharray="8 9"></path></g><g stroke-linecap="round"><g transform="translate(217.84167722871507 322.28250785191096) rotate(0 -30.12451017570487 -11.345594741499212)"><path d="M0 0 C0 0, 0 0, 0 0 M0 0 C0 0, 0 0, 0 0 M0 0 C-8.23 -0.41, -16.47 -0.82, -28.48 -1.42 M0 0 C-8.77 -0.44, -17.54 -0.87, -28.48 -1.42 M-28.48 -1.42 C-28.48 -8.54, -28.48 -15.67, -28.48 -22.69 M-28.48 -1.42 C-28.48 -5.86, -28.48 -10.3, -28.48 -22.69 M-28.48 -22.69 C-28.48 -17.11, -28.48 -11.52, -28.48 -1.06 M-28.48 -22.69 C-28.48 -14.1, -28.48 -5.51, -28.48 -1.06 M-28.48 -1.06 C-39.75 -1.19, -51.02 -1.32, -60.25 -1.42 M-28.48 -1.06 C-35 -1.14, -41.51 -1.21, -60.25 -1.42" stroke="#000000" stroke-width="1" fill="none"></path></g></g><g stroke-linecap="round" transform="translate(186.5826075788608 326.2339046411919) rotate(0 3.873151308304898 3.873151308304898)"><path d="M7.75 3.87 C7.75 4.1, 7.73 4.32, 7.69 4.55 C7.65 4.77, 7.59 4.99, 7.51 5.2 C7.44 5.41, 7.34 5.62, 7.23 5.81 C7.12 6, 6.98 6.19, 6.84 6.36 C6.7 6.53, 6.53 6.7, 6.36 6.84 C6.19 6.98, 6 7.12, 5.81 7.23 C5.62 7.34, 5.41 7.44, 5.2 7.51 C4.99 7.59, 4.77 7.65, 4.55 7.69 C4.32 7.73, 4.1 7.75, 3.87 7.75 C3.65 7.75, 3.42 7.73, 3.2 7.69 C2.98 7.65, 2.76 7.59, 2.55 7.51 C2.34 7.44, 2.13 7.34, 1.94 7.23 C1.74 7.12, 1.56 6.98, 1.38 6.84 C1.21 6.7, 1.05 6.53, 0.91 6.36 C0.76 6.19, 0.63 6, 0.52 5.81 C0.41 5.62, 0.31 5.41, 0.23 5.2 C0.16 4.99, 0.1 4.77, 0.06 4.55 C0.02 4.32, 0 4.1, 0 3.87 C0 3.65, 0.02 3.42, 0.06 3.2 C0.1 2.98, 0.16 2.76, 0.23 2.55 C0.31 2.34, 0.41 2.13, 0.52 1.94 C0.63 1.74, 0.76 1.56, 0.91 1.38 C1.05 1.21, 1.21 1.05, 1.38 0.91 C1.56 0.76, 1.74 0.63, 1.94 0.52 C2.13 0.41, 2.34 0.31, 2.55 0.23 C2.76 0.16, 2.98 0.1, 3.2 0.06 C3.42 0.02, 3.65 0, 3.87 0 C4.1 0, 4.32 0.02, 4.55 0.06 C4.77 0.1, 4.99 0.16, 5.2 0.23 C5.41 0.31, 5.62 0.41, 5.81 0.52 C6 0.63, 6.19 0.76, 6.36 0.91 C6.53 1.05, 6.7 1.21, 6.84 1.38 C6.98 1.56, 7.12 1.74, 7.23 1.94 C7.34 2.13, 7.44 2.34, 7.51 2.55 C7.59 2.76, 7.65 2.98, 7.69 3.2 C7.73 3.42, 7.74 3.76, 7.75 3.87 C7.76 3.99, 7.76 3.76, 7.75 3.87" stroke="none" stroke-width="0" fill="#fd7e14"></path><path d="M7.75 3.87 C7.75 4.1, 7.73 4.32, 7.69 4.55 C7.65 4.77, 7.59 4.99, 7.51 5.2 C7.44 5.41, 7.34 5.62, 7.23 5.81 C7.12 6, 6.98 6.19, 6.84 6.36 C6.7 6.53, 6.53 6.7, 6.36 6.84 C6.19 6.98, 6 7.12, 5.81 7.23 C5.62 7.34, 5.41 7.44, 5.2 7.51 C4.99 7.59, 4.77 7.65, 4.55 7.69 C4.32 7.73, 4.1 7.75, 3.87 7.75 C3.65 7.75, 3.42 7.73, 3.2 7.69 C2.98 7.65, 2.76 7.59, 2.55 7.51 C2.34 7.44, 2.13 7.34, 1.94 7.23 C1.74 7.12, 1.56 6.98, 1.38 6.84 C1.21 6.7, 1.05 6.53, 0.91 6.36 C0.76 6.19, 0.63 6, 0.52 5.81 C0.41 5.62, 0.31 5.41, 0.23 5.2 C0.16 4.99, 0.1 4.77, 0.06 4.55 C0.02 4.32, 0 4.1, 0 3.87 C0 3.65, 0.02 3.42, 0.06 3.2 C0.1 2.98, 0.16 2.76, 0.23 2.55 C0.31 2.34, 0.41 2.13, 0.52 1.94 C0.63 1.74, 0.76 1.56, 0.91 1.38 C1.05 1.21, 1.21 1.05, 1.38 0.91 C1.56 0.76, 1.74 0.63, 1.94 0.52 C2.13 0.41, 2.34 0.31, 2.55 0.23 C2.76 0.16, 2.98 0.1, 3.2 0.06 C3.42 0.02, 3.65 0, 3.87 0 C4.1 0, 4.32 0.02, 4.55 0.06 C4.77 0.1, 4.99 0.16, 5.2 0.23 C5.41 0.31, 5.62 0.41, 5.81 0.52 C6 0.63, 6.19 0.76, 6.36 0.91 C6.53 1.05, 6.7 1.21, 6.84 1.38 C6.98 1.56, 7.12 1.74, 7.23 1.94 C7.34 2.13, 7.44 2.34, 7.51 2.55 C7.59 2.76, 7.65 2.98, 7.69 3.2 C7.73 3.42, 7.74 3.76, 7.75 3.87 C7.76 3.99, 7.76 3.76, 7.75 3.87" stroke="#000000" stroke-width="1" fill="none"></path></g><g transform="translate(167.59265687730533 347.0357628133563) rotate(0 23 10.000000000000057)"><text x="0" y="14" font-family="Virgil, Segoe UI Emoji" font-size="16px" fill="#000000" text-anchor="start" style="white-space: pre;" direction="ltr">middle</text></g><g stroke-linecap="round" transform="translate(29.81487909952739 281.81354059113426) rotate(0 35.55555555555554 29.444444444444457)"><path d="M0 0 C0 0, 0 0, 0 0 M0 0 C0 0, 0 0, 0 0 M-0.26 6.4 C1.44 4.44, 3.14 2.49, 4.99 0.36 M-0.26 6.4 C0.95 5, 2.17 3.6, 4.99 0.36 M0.13 12.04 C2.51 9.3, 4.89 6.57, 10.63 -0.03 M0.13 12.04 C3.29 8.41, 6.45 4.78, 10.63 -0.03 M-0.13 18.44 C3.34 14.45, 6.8 10.47, 15.62 0.33 M-0.13 18.44 C4.78 12.79, 9.68 7.15, 15.62 0.33 M0.27 24.08 C5.51 18.05, 10.75 12.02, 21.26 -0.07 M0.27 24.08 C5.05 18.58, 9.83 13.08, 21.26 -0.07 M0 30.48 C9.76 19.26, 19.51 8.05, 26.25 0.29 M0 30.48 C7.05 22.38, 14.09 14.27, 26.25 0.29 M-0.26 36.88 C11.69 23.13, 23.64 9.39, 31.89 -0.1 M-0.26 36.88 C12.23 22.52, 24.71 8.16, 31.89 -0.1 M0.14 42.52 C14.24 26.3, 28.33 10.09, 36.88 0.26 M0.14 42.52 C13.36 27.31, 26.58 12.1, 36.88 0.26 M-0.12 48.92 C13.05 33.77, 26.22 18.62, 42.52 -0.14 M-0.12 48.92 C10.72 36.45, 21.56 23.98, 42.52 -0.14 M0.27 54.56 C11.31 41.87, 22.34 29.17, 47.51 0.22 M0.27 54.56 C15.49 37.05, 30.71 19.55, 47.51 0.22 M1.32 59.45 C14.24 44.59, 27.16 29.72, 53.15 -0.17 M1.32 59.45 C15.62 43.01, 29.91 26.56, 53.15 -0.17 M6.31 59.81 C20.32 43.7, 34.33 27.58, 58.14 0.19 M6.31 59.81 C25.46 37.78, 44.62 15.74, 58.14 0.19 M11.95 59.42 C25.06 44.33, 38.17 29.25, 63.78 -0.21 M11.95 59.42 C26.54 42.63, 41.13 25.85, 63.78 -0.21 M16.94 59.78 C28.06 46.99, 39.17 34.2, 68.77 0.15 M16.94 59.78 C37.38 36.26, 57.83 12.74, 68.77 0.15 M21.93 60.14 C34.8 45.33, 47.67 30.52, 73.1 1.27 M21.93 60.14 C36.13 43.79, 50.34 27.45, 73.1 1.27 M27.57 59.74 C43.82 41.04, 60.07 22.35, 72.84 7.67 M27.57 59.74 C44.2 40.6, 60.84 21.47, 72.84 7.67 M32.56 60.1 C42.51 48.65, 52.47 37.19, 72.58 14.06 M32.56 60.1 C42.52 48.64, 52.49 37.17, 72.58 14.06 M38.2 59.71 C51.01 44.97, 63.82 30.23, 72.97 19.71 M38.2 59.71 C49.93 46.22, 61.65 32.73, 72.97 19.71 M43.19 60.07 C52.64 49.19, 62.09 38.32, 72.71 26.1 M43.19 60.07 C53.76 47.9, 64.34 35.73, 72.71 26.1 M48.83 59.67 C55.61 51.87, 62.39 44.07, 73.1 31.75 M48.83 59.67 C54.43 53.23, 60.03 46.79, 73.1 31.75 M53.82 60.03 C57.87 55.37, 61.93 50.7, 72.84 38.15 M53.82 60.03 C60.41 52.45, 67 44.87, 72.84 38.15 M59.46 59.64 C63.39 55.11, 67.33 50.59, 72.58 44.54 M59.46 59.64 C62.77 55.83, 66.09 52.01, 72.58 44.54 M64.45 60 C67.41 56.59, 70.36 53.19, 72.98 50.19 M64.45 60 C67.28 56.74, 70.11 53.48, 72.98 50.19 M70.09 59.6 C70.64 58.97, 71.19 58.33, 72.71 56.58 M70.09 59.6 C70.84 58.74, 71.59 57.88, 72.71 56.58" stroke="#fff" stroke-width="0.5" fill="none"></path><path d="M0 0 C26.5 0, 53.01 0, 71.11 0 M71.11 0 C71.11 20.53, 71.11 41.06, 71.11 58.89 M71.11 58.89 C53.33 58.89, 35.56 58.89, 0 58.89 M0 58.89 C0 44.3, 0 29.72, 0 0" stroke="#c92a2a" stroke-width="1.5" fill="none" stroke-dasharray="8 9"></path></g><g stroke-linecap="round"><g transform="translate(89.67779323638774 317.97009977658035) rotate(180 -20.19761480879538 -10.718014755361935)"><path d="M0 0 C-0.5 -3.23, 3.9 -15.85, -2.99 -19.36 C-9.88 -22.88, -34.93 -20.8, -41.32 -21.08 M0 0 C-0.5 -3.23, 3.9 -15.85, -2.99 -19.36 C-9.88 -22.88, -34.93 -20.8, -41.32 -21.08" stroke="#000000" stroke-width="1" fill="none"></path></g></g><g stroke-linecap="round" transform="translate(65.01351153824533 322.6100414931791) rotate(0 2.9073051045331795 2.9073051045331795)"><path d="M5.81 2.91 C5.81 3.08, 5.8 3.25, 5.77 3.41 C5.74 3.58, 5.7 3.74, 5.64 3.9 C5.58 4.06, 5.51 4.22, 5.43 4.36 C5.34 4.51, 5.24 4.65, 5.13 4.78 C5.03 4.9, 4.9 5.03, 4.78 5.13 C4.65 5.24, 4.51 5.34, 4.36 5.43 C4.22 5.51, 4.06 5.58, 3.9 5.64 C3.74 5.7, 3.58 5.74, 3.41 5.77 C3.25 5.8, 3.08 5.81, 2.91 5.81 C2.74 5.81, 2.57 5.8, 2.4 5.77 C2.24 5.74, 2.07 5.7, 1.91 5.64 C1.75 5.58, 1.6 5.51, 1.45 5.43 C1.31 5.34, 1.17 5.24, 1.04 5.13 C0.91 5.03, 0.79 4.9, 0.68 4.78 C0.57 4.65, 0.47 4.51, 0.39 4.36 C0.31 4.22, 0.23 4.06, 0.18 3.9 C0.12 3.74, 0.07 3.58, 0.04 3.41 C0.01 3.25, 0 3.08, 0 2.91 C0 2.74, 0.01 2.57, 0.04 2.4 C0.07 2.24, 0.12 2.07, 0.18 1.91 C0.23 1.75, 0.31 1.6, 0.39 1.45 C0.47 1.31, 0.57 1.17, 0.68 1.04 C0.79 0.91, 0.91 0.79, 1.04 0.68 C1.17 0.57, 1.31 0.47, 1.45 0.39 C1.6 0.31, 1.75 0.23, 1.91 0.18 C2.07 0.12, 2.24 0.07, 2.4 0.04 C2.57 0.01, 2.74 0, 2.91 0 C3.08 0, 3.25 0.01, 3.41 0.04 C3.58 0.07, 3.74 0.12, 3.9 0.18 C4.06 0.23, 4.22 0.31, 4.36 0.39 C4.51 0.47, 4.65 0.57, 4.78 0.68 C4.9 0.79, 5.03 0.91, 5.13 1.04 C5.24 1.17, 5.34 1.31, 5.43 1.45 C5.51 1.6, 5.58 1.75, 5.64 1.91 C5.7 2.07, 5.74 2.24, 5.77 2.4 C5.8 2.57, 5.81 2.82, 5.81 2.91 C5.82 2.99, 5.82 2.82, 5.81 2.91" stroke="none" stroke-width="0" fill="#fd7e14"></path><path d="M5.81 2.91 C5.81 3.08, 5.8 3.25, 5.77 3.41 C5.74 3.58, 5.7 3.74, 5.64 3.9 C5.58 4.06, 5.51 4.22, 5.43 4.36 C5.34 4.51, 5.24 4.65, 5.13 4.78 C5.03 4.9, 4.9 5.03, 4.78 5.13 C4.65 5.24, 4.51 5.34, 4.36 5.43 C4.22 5.51, 4.06 5.58, 3.9 5.64 C3.74 5.7, 3.58 5.74, 3.41 5.77 C3.25 5.8, 3.08 5.81, 2.91 5.81 C2.74 5.81, 2.57 5.8, 2.4 5.77 C2.24 5.74, 2.07 5.7, 1.91 5.64 C1.75 5.58, 1.6 5.51, 1.45 5.43 C1.31 5.34, 1.17 5.24, 1.04 5.13 C0.91 5.03, 0.79 4.9, 0.68 4.78 C0.57 4.65, 0.47 4.51, 0.39 4.36 C0.31 4.22, 0.23 4.06, 0.18 3.9 C0.12 3.74, 0.07 3.58, 0.04 3.41 C0.01 3.25, 0 3.08, 0 2.91 C0 2.74, 0.01 2.57, 0.04 2.4 C0.07 2.24, 0.12 2.07, 0.18 1.91 C0.23 1.75, 0.31 1.6, 0.39 1.45 C0.47 1.31, 0.57 1.17, 0.68 1.04 C0.79 0.91, 0.91 0.79, 1.04 0.68 C1.17 0.57, 1.31 0.47, 1.45 0.39 C1.6 0.31, 1.75 0.23, 1.91 0.18 C2.07 0.12, 2.24 0.07, 2.4 0.04 C2.57 0.01, 2.74 0, 2.91 0 C3.08 0, 3.25 0.01, 3.41 0.04 C3.58 0.07, 3.74 0.12, 3.9 0.18 C4.06 0.23, 4.22 0.31, 4.36 0.39 C4.51 0.47, 4.65 0.57, 4.78 0.68 C4.9 0.79, 5.03 0.91, 5.13 1.04 C5.24 1.17, 5.34 1.31, 5.43 1.45 C5.51 1.6, 5.58 1.75, 5.64 1.91 C5.7 2.07, 5.74 2.24, 5.77 2.4 C5.8 2.57, 5.81 2.82, 5.81 2.91 C5.82 2.99, 5.82 2.82, 5.81 2.91" stroke="#000000" stroke-width="1" fill="none"></path></g><g transform="translate(50.9259902106387 345.9246517022451) rotate(0 17.5 10)"><text x="0" y="14" font-family="Virgil, Segoe UI Emoji" font-size="16px" fill="#000000" text-anchor="start" style="white-space: pre;" direction="ltr">final</text></g></svg>