<svg version="1.1" xmlns="http://www.w3.org/2000/svg" viewBox="0 0 379 373.0000000000002" width="379" height="373.0000000000002">
  <!-- svg-source:excalidraw -->
  
  <defs>
    <style>
      @font-face {
        font-family: "Virgil";
        src: url("https://excalidraw.com/Virgil.woff2");
      }
      @font-face {
        font-family: "Cascadia";
        src: url("https://excalidraw.com/Cascadia.woff2");
      }
    </style>
  </defs>
  <rect x="0" y="0" width="379" height="373.0000000000002" fill="#ffffff"></rect><g stroke-linecap="round" transform="translate(10 10) rotate(0 179.5 176.5000000000001)"><path d="M0 0 C75.77 0, 151.55 0, 359 0 M0 0 C132.13 0, 264.26 0, 359 0 M359 0 C359 73.94, 359 147.89, 359 353 M359 0 C359 125.23, 359 250.47, 359 353 M359 353 C221.45 353, 83.9 353, 0 353 M359 353 C244.07 353, 129.14 353, 0 353 M0 353 C0 275.18, 0 197.36, 0 0 M0 353 C0 248.7, 0 144.4, 0 0" stroke="#000000" stroke-width="1" fill="none"></path></g><g transform="translate(107 36) rotate(0 81.5 12.5)"><text x="0" y="18" font-family="Virgil, Segoe UI Emoji" font-size="20px" fill="#000000" text-anchor="start" style="white-space: pre;" direction="ltr">How to remember</text></g><g transform="translate(36 99) rotate(0 161.5 100.00000000000011)"><text x="0" y="18" font-family="Virgil, Segoe UI Emoji" font-size="20px" fill="#000000" text-anchor="start" style="white-space: pre;" direction="ltr">1. The dots placement/sequence</text><text x="0" y="43" font-family="Virgil, Segoe UI Emoji" font-size="20px" fill="#000000" text-anchor="start" style="white-space: pre;" direction="ltr"></text><text x="0" y="68" font-family="Virgil, Segoe UI Emoji" font-size="20px" fill="#000000" text-anchor="start" style="white-space: pre;" direction="ltr">2. Baap lives on ground floor so</text><text x="0" y="93" font-family="Virgil, Segoe UI Emoji" font-size="20px" fill="#000000" text-anchor="start" style="white-space: pre;" direction="ltr">dots below the line</text><text x="0" y="118" font-family="Virgil, Segoe UI Emoji" font-size="20px" fill="#000000" text-anchor="start" style="white-space: pre;" direction="ltr"></text><text x="0" y="143" font-family="Virgil, Segoe UI Emoji" font-size="20px" fill="#000000" text-anchor="start" style="white-space: pre;" direction="ltr">3. Nitish is a boy,so he lives on</text><text x="0" y="168" font-family="Virgil, Segoe UI Emoji" font-size="20px" fill="#000000" text-anchor="start" style="white-space: pre;" direction="ltr">Top floor , dots above line</text><text x="0" y="193" font-family="Virgil, Segoe UI Emoji" font-size="20px" fill="#000000" text-anchor="start" style="white-space: pre;" direction="ltr"></text></g><g transform="translate(47.02479420767827 285.4535552792297) rotate(0 134.5 20)"><text x="0" y="14" font-family="Virgil, Segoe UI Emoji" font-size="16px" fill="#000000" text-anchor="start" style="white-space: pre;" direction="ltr">note: key thing to remeber is dot </text><text x="0" y="34" font-family="Virgil, Segoe UI Emoji" font-size="16px" fill="#000000" text-anchor="start" style="white-space: pre;" direction="ltr">position and their sequence(1,2,3) </text></g><g transform="translate(116.46923865212261 65.45355527922902) rotate(0 61 10)"><text x="0" y="14" font-family="Virgil, Segoe UI Emoji" font-size="16px" fill="#e67700" text-anchor="start" style="white-space: pre;" direction="ltr">baap and nitish</text></g></svg>