<svg version="1.1" xmlns="http://www.w3.org/2000/svg" viewBox="0 0 386.66666666666674 358.8888888888887" width="386.66666666666674" height="358.8888888888887">
  <!-- svg-source:excalidraw -->
  
  <defs>
    <style>
      @font-face {
        font-family: "Virgil";
        src: url("https://excalidraw.com/Virgil.woff2");
      }
      @font-face {
        font-family: "Cascadia";
        src: url("https://excalidraw.com/Cascadia.woff2");
      }
    </style>
  </defs>
  <rect x="0" y="0" width="386.66666666666674" height="358.8888888888887" fill="#ffffff"></rect><g stroke-linecap="round" transform="translate(10 10) rotate(0 183.33333333333337 169.44444444444434)"><path d="M0 0 C0 0, 0 0, 0 0 M0 0 C0 0, 0 0, 0 0 M-0.26 6.4 C0.91 5.05, 2.09 3.69, 4.99 0.36 M-0.26 6.4 C1.73 4.11, 3.72 1.81, 4.99 0.36 M0.13 12.04 C2.67 9.13, 5.2 6.21, 10.63 -0.03 M0.13 12.04 C2.73 9.05, 5.33 6.06, 10.63 -0.03 M-0.13 18.44 C5.71 11.72, 11.55 5, 15.62 0.33 M-0.13 18.44 C3.75 13.98, 7.63 9.51, 15.62 0.33 M0.27 24.08 C6.98 16.36, 13.69 8.64, 21.26 -0.07 M0.27 24.08 C8.38 14.75, 16.49 5.42, 21.26 -0.07 M0 30.48 C7.96 21.32, 15.92 12.17, 26.25 0.29 M0 30.48 C10.04 18.94, 20.07 7.4, 26.25 0.29 M-0.26 36.88 C6.84 28.71, 13.94 20.54, 31.89 -0.1 M-0.26 36.88 C8.65 26.63, 17.56 16.38, 31.89 -0.1 M0.14 42.52 C8.59 32.79, 17.05 23.07, 36.88 0.26 M0.14 42.52 C10 31.17, 19.87 19.83, 36.88 0.26 M-0.12 48.92 C13.63 33.09, 27.39 17.27, 42.52 -0.14 M-0.12 48.92 C14.05 32.61, 28.23 16.3, 42.52 -0.14 M0.27 54.56 C14.36 38.36, 28.44 22.15, 47.51 0.22 M0.27 54.56 C12.04 41.02, 23.81 27.49, 47.51 0.22 M0.01 60.96 C18.1 40.14, 36.2 19.33, 53.15 -0.17 M0.01 60.96 C12.1 47.05, 24.19 33.14, 53.15 -0.17 M-0.25 67.36 C22.62 41.05, 45.49 14.74, 58.14 0.19 M-0.25 67.36 C19.05 45.15, 38.36 22.94, 58.14 0.19 M0.14 73 C20.98 49.03, 41.82 25.06, 63.78 -0.21 M0.14 73 C19.24 51.03, 38.34 29.06, 63.78 -0.21 M-0.12 79.4 C22.77 53.07, 45.65 26.75, 68.77 0.15 M-0.12 79.4 C26.18 49.14, 52.49 18.88, 68.77 0.15 M0.28 85.04 C20.58 61.68, 40.89 38.33, 74.41 -0.24 M0.28 85.04 C26.25 55.16, 52.22 25.28, 74.41 -0.24 M0.01 91.44 C22.16 65.96, 44.31 40.48, 79.4 0.12 M0.01 91.44 C26.55 60.91, 53.09 30.39, 79.4 0.12 M-0.25 97.84 C26 67.64, 52.24 37.45, 85.04 -0.28 M-0.25 97.84 C20.31 74.19, 40.86 50.55, 85.04 -0.28 M0.15 103.48 C29.7 69.49, 59.25 35.49, 90.03 0.08 M0.15 103.48 C34.47 64, 68.79 24.51, 90.03 0.08 M-0.11 109.88 C28.09 77.44, 56.29 44.99, 95.67 -0.31 M-0.11 109.88 C28.35 77.13, 56.82 44.39, 95.67 -0.31 M0.28 115.52 C31.96 79.07, 63.64 42.63, 100.66 0.05 M0.28 115.52 C38.53 71.52, 76.78 27.52, 100.66 0.05 M0.02 121.92 C25.2 92.96, 50.37 63.99, 106.3 -0.34 M0.02 121.92 C32.61 84.43, 65.2 46.94, 106.3 -0.34 M-0.24 128.32 C23.32 101.21, 46.89 74.1, 111.29 0.02 M-0.24 128.32 C27.73 96.14, 55.71 63.96, 111.29 0.02 M0.15 133.96 C32.15 97.15, 64.14 60.34, 116.27 0.38 M0.15 133.96 C37.26 91.27, 74.36 48.59, 116.27 0.38 M-0.11 140.36 C39.54 94.75, 79.19 49.13, 121.92 -0.02 M-0.11 140.36 C45.35 88.06, 90.82 35.76, 121.92 -0.02 M0.29 146 C36.79 104, 73.3 62, 126.91 0.34 M0.29 146 C31.76 109.79, 63.24 73.58, 126.91 0.34 M0.02 152.4 C40.21 106.17, 80.39 59.94, 132.55 -0.05 M0.02 152.4 C51.74 92.9, 103.46 33.41, 132.55 -0.05 M-0.24 158.8 C39.81 112.73, 79.86 66.66, 137.54 0.31 M-0.24 158.8 C36.82 116.16, 73.89 73.53, 137.54 0.31 M0.16 164.44 C47.4 110.09, 94.65 55.73, 143.18 -0.09 M0.16 164.44 C30.23 129.84, 60.31 95.24, 143.18 -0.09 M-0.1 170.84 C34.82 130.67, 69.73 90.5, 148.17 0.27 M-0.1 170.84 C32.29 133.58, 64.68 96.31, 148.17 0.27 M0.29 176.48 C50.65 118.55, 101 60.63, 153.81 -0.12 M0.29 176.48 C31.25 140.86, 62.22 105.24, 153.81 -0.12 M0.03 182.88 C33.89 143.93, 67.75 104.97, 158.8 0.24 M0.03 182.88 C63.08 110.34, 126.14 37.81, 158.8 0.24 M-0.23 189.27 C58.28 121.96, 116.8 54.64, 164.44 -0.16 M-0.23 189.27 C64.95 114.29, 130.14 39.3, 164.44 -0.16 M0.16 194.92 C42.8 145.87, 85.43 96.83, 169.43 0.2 M0.16 194.92 C62.41 123.31, 124.66 51.7, 169.43 0.2 M-0.1 201.32 C36.52 159.19, 73.15 117.06, 175.07 -0.19 M-0.1 201.32 C50.13 143.53, 100.36 85.75, 175.07 -0.19 M0.3 206.96 C57.24 141.46, 114.18 75.95, 180.06 0.17 M0.3 206.96 C64.21 133.44, 128.12 59.92, 180.06 0.17 M0.03 213.36 C41.5 165.65, 82.97 117.95, 185.7 -0.23 M0.03 213.36 C42.88 164.06, 85.73 114.77, 185.7 -0.23 M-0.23 219.75 C59.12 151.48, 118.47 83.21, 190.69 0.13 M-0.23 219.75 C47.14 165.26, 94.51 110.77, 190.69 0.13 M0.17 225.4 C53.11 164.5, 106.04 103.6, 196.33 -0.26 M0.17 225.4 C48.61 169.67, 97.05 113.94, 196.33 -0.26 M-0.09 231.8 C55.21 168.17, 110.52 104.55, 201.32 0.1 M-0.09 231.8 C79.61 140.11, 159.31 48.43, 201.32 0.1 M0.3 237.44 C74.24 152.38, 148.19 67.32, 206.96 -0.3 M0.3 237.44 C45.08 185.93, 89.85 134.42, 206.96 -0.3 M0.04 243.84 C81.81 149.77, 163.58 55.7, 211.95 0.06 M0.04 243.84 C44.76 192.39, 89.47 140.95, 211.95 0.06 M-0.22 250.23 C50.71 191.65, 101.64 133.06, 217.59 -0.33 M-0.22 250.23 C61.61 179.1, 123.44 107.97, 217.59 -0.33 M0.17 255.88 C80.28 163.72, 160.39 71.57, 222.58 0.03 M0.17 255.88 C82.29 161.41, 164.42 66.93, 222.58 0.03 M-0.09 262.27 C87.15 161.91, 174.4 61.55, 228.22 -0.36 M-0.09 262.27 C58.14 195.29, 116.37 128.31, 228.22 -0.36 M0.3 267.92 C58.63 200.83, 116.95 133.74, 233.21 0 M0.3 267.92 C48.77 212.17, 97.23 156.42, 233.21 0 M0.04 274.32 C53.48 212.84, 106.92 151.37, 238.19 0.36 M0.04 274.32 C95.09 164.98, 190.13 55.64, 238.19 0.36 M-0.22 280.71 C60.06 211.37, 120.34 142.03, 243.84 -0.04 M-0.22 280.71 C79.76 188.71, 159.74 96.7, 243.84 -0.04 M0.18 286.36 C79.69 194.89, 159.2 103.42, 248.82 0.32 M0.18 286.36 C61.71 215.57, 123.25 144.78, 248.82 0.32 M-0.08 292.75 C70.64 211.39, 141.37 130.03, 254.47 -0.07 M-0.08 292.75 C99.41 178.3, 198.9 63.85, 254.47 -0.07 M0.31 298.4 C94.89 189.59, 189.47 80.79, 259.45 0.29 M0.31 298.4 C102.45 180.9, 204.6 63.39, 259.45 0.29 M0.05 304.8 C55.3 241.24, 110.54 177.69, 265.1 -0.11 M0.05 304.8 C85.57 206.41, 171.09 108.03, 265.1 -0.11 M-0.21 311.19 C106.33 188.63, 212.87 66.07, 270.08 0.25 M-0.21 311.19 C79.67 219.29, 159.56 127.39, 270.08 0.25 M0.18 316.84 C66.77 240.23, 133.36 163.63, 275.73 -0.14 M0.18 316.84 C85.84 218.29, 171.5 119.75, 275.73 -0.14 M-0.08 323.23 C106.35 200.8, 212.78 78.36, 280.71 0.22 M-0.08 323.23 C75.91 235.82, 151.9 148.4, 280.71 0.22 M0.31 328.88 C91.27 224.25, 182.22 119.62, 286.36 -0.18 M0.31 328.88 C59.15 261.2, 117.98 193.52, 286.36 -0.18 M0.05 335.27 C66.69 258.62, 133.33 181.96, 291.34 0.18 M0.05 335.27 C87.68 234.47, 175.3 133.67, 291.34 0.18 M1.1 340.16 C94.39 232.85, 187.68 125.53, 296.99 -0.21 M1.1 340.16 C95.71 231.33, 190.32 122.5, 296.99 -0.21 M6.75 339.77 C121.89 207.31, 237.03 74.85, 301.97 0.15 M6.75 339.77 C74.67 261.63, 142.59 183.5, 301.97 0.15 M11.73 340.13 C85.42 255.36, 159.1 170.6, 307.62 -0.25 M11.73 340.13 C79.28 262.43, 146.83 184.72, 307.62 -0.25 M17.38 339.73 C90.29 255.85, 163.21 171.97, 312.6 0.11 M17.38 339.73 C125.08 215.83, 232.79 91.93, 312.6 0.11 M22.36 340.09 C102.89 247.46, 183.41 154.83, 318.25 -0.28 M22.36 340.09 C131.54 214.5, 240.73 88.9, 318.25 -0.28 M28.01 339.7 C122.88 230.56, 217.75 121.43, 323.23 0.08 M28.01 339.7 C108.91 246.63, 189.81 153.56, 323.23 0.08 M32.99 340.06 C114.37 246.44, 195.76 152.82, 328.88 -0.31 M32.99 340.06 C104.62 257.66, 176.25 175.27, 328.88 -0.31 M38.64 339.66 C119.02 247.19, 199.4 154.72, 333.86 0.05 M38.64 339.66 C153.53 207.5, 268.41 75.34, 333.86 0.05 M43.62 340.02 C128.15 242.79, 212.68 145.55, 339.51 -0.35 M43.62 340.02 C105.82 268.47, 168.02 196.92, 339.51 -0.35 M49.27 339.63 C136.79 238.95, 224.31 138.26, 344.49 0.01 M49.27 339.63 C109.53 270.31, 169.78 200.99, 344.49 0.01 M54.25 339.99 C133.8 248.48, 213.35 156.97, 349.48 0.37 M54.25 339.99 C142.41 238.58, 230.56 137.17, 349.48 0.37 M59.24 340.35 C156.31 228.68, 253.38 117.02, 355.12 -0.02 M59.24 340.35 C140.71 246.63, 222.19 152.9, 355.12 -0.02 M64.88 339.96 C162.11 228.11, 259.33 116.27, 360.11 0.34 M64.88 339.96 C181.48 205.83, 298.08 71.7, 360.11 0.34 M69.87 340.32 C140.53 259.04, 211.18 177.76, 365.75 -0.06 M69.87 340.32 C135.51 264.81, 201.15 189.3, 365.75 -0.06 M75.51 339.92 C165.36 236.56, 255.21 133.2, 369.43 1.81 M75.51 339.92 C148.82 255.59, 222.13 171.25, 369.43 1.81 M80.5 340.28 C149.15 261.31, 217.8 182.34, 369.17 8.21 M80.5 340.28 C174.32 232.36, 268.13 124.43, 369.17 8.21 M86.14 339.89 C192.61 217.41, 299.07 94.94, 368.91 14.61 M86.14 339.89 C163.83 250.52, 241.52 161.14, 368.91 14.61 M91.13 340.25 C166.74 253.27, 242.34 166.3, 369.3 20.25 M91.13 340.25 C182.59 235.04, 274.05 129.83, 369.3 20.25 M96.77 339.85 C166.8 259.29, 236.83 178.73, 369.04 26.65 M96.77 339.85 C191.01 231.45, 285.24 123.04, 369.04 26.65 M101.76 340.21 C161.97 270.95, 222.18 201.69, 369.43 32.29 M101.76 340.21 C165.91 266.42, 230.05 192.63, 369.43 32.29 M107.4 339.82 C159.94 279.38, 212.48 218.94, 369.17 38.69 M107.4 339.82 C160.07 279.23, 212.74 218.64, 369.17 38.69 M112.39 340.18 C194.19 246.08, 276 151.97, 368.91 45.09 M112.39 340.18 C196.15 243.82, 279.91 147.47, 368.91 45.09 M118.03 339.78 C217.9 224.9, 317.76 110.02, 369.31 50.73 M118.03 339.78 C178.4 270.35, 238.76 200.91, 369.31 50.73 M123.02 340.14 C199.99 251.6, 276.97 163.05, 369.04 57.13 M123.02 340.14 C201.96 249.34, 280.9 158.53, 369.04 57.13 M128.66 339.75 C219.03 235.79, 309.4 131.84, 369.44 62.77 M128.66 339.75 C207.12 249.49, 285.58 159.23, 369.44 62.77 M133.65 340.11 C205.14 257.87, 276.63 175.63, 369.18 69.17 M133.65 340.11 C184.67 281.42, 235.68 222.74, 369.18 69.17 M139.3 339.71 C231.1 234.11, 322.9 128.5, 368.92 75.57 M139.3 339.71 C227.31 238.46, 315.33 137.21, 368.92 75.57 M144.28 340.07 C217.43 255.93, 290.58 171.78, 369.31 81.21 M144.28 340.07 C205.08 270.13, 265.89 200.19, 369.31 81.21 M149.93 339.68 C209.92 270.66, 269.92 201.64, 369.05 87.61 M149.93 339.68 C193.81 289.19, 237.7 238.7, 369.05 87.61 M154.91 340.04 C229.81 253.88, 304.71 167.71, 369.44 93.25 M154.91 340.04 C197.94 290.54, 240.98 241.03, 369.44 93.25 M160.56 339.65 C231.02 258.58, 301.49 177.52, 369.18 99.65 M160.56 339.65 C207.91 285.17, 255.26 230.7, 369.18 99.65 M165.54 340.01 C223.49 273.34, 281.45 206.67, 368.92 106.05 M165.54 340.01 C244.7 248.94, 323.86 157.88, 368.92 106.05 M171.19 339.61 C224.6 278.17, 278.01 216.72, 369.32 111.69 M171.19 339.61 C245.69 253.9, 320.2 168.19, 369.32 111.69 M176.17 339.97 C249.31 255.84, 322.44 171.71, 369.05 118.09 M176.17 339.97 C230.19 277.83, 284.2 215.69, 369.05 118.09 M181.16 340.33 C234.77 278.66, 288.38 216.99, 369.45 123.73 M181.16 340.33 C223.1 292.09, 265.03 243.84, 369.45 123.73 M186.8 339.94 C226.19 294.63, 265.58 249.32, 369.19 130.13 M186.8 339.94 C256.02 260.31, 325.23 180.69, 369.19 130.13 M191.79 340.3 C251.33 271.81, 310.86 203.32, 368.93 136.53 M191.79 340.3 C228.05 298.58, 264.31 256.87, 368.93 136.53 M197.43 339.9 C251.93 277.21, 306.42 214.53, 369.32 142.17 M197.43 339.9 C241.53 289.18, 285.62 238.45, 369.32 142.17 M202.42 340.26 C254.77 280.04, 307.12 219.82, 369.06 148.57 M202.42 340.26 C239.44 297.67, 276.46 255.09, 369.06 148.57 M208.06 339.87 C263.18 276.46, 318.31 213.05, 369.45 154.21 M208.06 339.87 C263.36 276.26, 318.65 212.65, 369.45 154.21 M213.05 340.23 C251.59 295.9, 290.12 251.56, 369.19 160.61 M213.05 340.23 C250.18 297.51, 287.31 254.8, 369.19 160.61 M218.69 339.83 C261.69 290.37, 304.68 240.91, 368.93 167 M218.69 339.83 C268.52 282.52, 318.34 225.2, 368.93 167 M223.68 340.19 C267.3 290.02, 310.92 239.84, 369.32 172.65 M223.68 340.19 C264 293.81, 304.32 247.43, 369.32 172.65 M229.32 339.8 C269.17 293.96, 309.01 248.13, 369.06 179.05 M229.32 339.8 C282.43 278.7, 335.55 217.6, 369.06 179.05 M234.31 340.16 C285.01 281.84, 335.7 223.52, 369.46 184.69 M234.31 340.16 C264.98 304.88, 295.65 269.6, 369.46 184.69 M239.95 339.76 C267.1 308.53, 294.25 277.3, 369.2 191.09 M239.95 339.76 C279.61 294.14, 319.28 248.51, 369.2 191.09 M244.94 340.12 C283.89 295.31, 322.85 250.5, 368.93 197.48 M244.94 340.12 C274.49 306.13, 304.04 272.14, 368.93 197.48 M250.58 339.73 C282.66 302.82, 314.75 265.92, 369.33 203.13 M250.58 339.73 C297.31 285.98, 344.03 232.23, 369.33 203.13 M255.57 340.09 C288.99 301.64, 322.42 263.19, 369.07 209.52 M255.57 340.09 C292.3 297.83, 329.03 255.58, 369.07 209.52 M261.21 339.7 C284.17 313.28, 307.13 286.87, 369.46 215.17 M261.21 339.7 C302.76 291.9, 344.32 244.1, 369.46 215.17 M266.2 340.06 C290.05 312.62, 313.91 285.18, 369.2 221.57 M266.2 340.06 C303.09 297.62, 339.98 255.19, 369.2 221.57 M271.84 339.66 C302.92 303.91, 334 268.16, 368.94 227.96 M271.84 339.66 C299.46 307.89, 327.07 276.13, 368.94 227.96 M276.83 340.02 C311.83 299.76, 346.83 259.5, 369.33 233.61 M276.83 340.02 C302.68 310.28, 328.54 280.54, 369.33 233.61 M282.47 339.63 C301.16 318.13, 319.84 296.64, 369.07 240 M282.47 339.63 C314 303.35, 345.54 267.08, 369.07 240 M287.46 339.99 C313.92 309.55, 340.37 279.11, 368.81 246.4 M287.46 339.99 C310.88 313.04, 334.3 286.1, 368.81 246.4 M292.45 340.35 C312.27 317.54, 332.1 294.73, 369.21 252.05 M292.45 340.35 C319.65 309.05, 346.85 277.76, 369.21 252.05 M298.09 339.95 C312.27 323.64, 326.45 307.33, 368.94 258.44 M298.09 339.95 C315.52 319.9, 332.96 299.84, 368.94 258.44 M303.08 340.31 C325.9 314.06, 348.72 287.8, 369.34 264.09 M303.08 340.31 C319.59 321.32, 336.1 302.32, 369.34 264.09 M308.72 339.92 C324.93 321.27, 341.13 302.63, 369.08 270.48 M308.72 339.92 C325.57 320.54, 342.42 301.16, 369.08 270.48 M313.71 340.28 C330.7 320.73, 347.69 301.19, 368.82 276.88 M313.71 340.28 C330.52 320.94, 347.32 301.61, 368.82 276.88 M319.35 339.88 C335.97 320.77, 352.59 301.65, 369.21 282.52 M319.35 339.88 C338.04 318.38, 356.73 296.88, 369.21 282.52 M324.34 340.24 C338.68 323.74, 353.03 307.24, 368.95 288.92 M324.34 340.24 C335.08 327.89, 345.81 315.54, 368.95 288.92 M329.98 339.85 C343.16 324.68, 356.34 309.52, 369.34 294.57 M329.98 339.85 C345.07 322.49, 360.17 305.12, 369.34 294.57 M334.97 340.21 C344.98 328.69, 354.99 317.17, 369.08 300.96 M334.97 340.21 C343.08 330.88, 351.19 321.54, 369.08 300.96 M340.61 339.81 C350.52 328.42, 360.43 317.02, 368.82 307.36 M340.61 339.81 C346.75 332.75, 352.88 325.7, 368.82 307.36 M345.6 340.17 C351.99 332.82, 358.38 325.47, 369.22 313 M345.6 340.17 C353.63 330.93, 361.67 321.69, 369.22 313 M351.24 339.78 C358.29 331.67, 365.33 323.57, 368.95 319.4 M351.24 339.78 C355.71 334.64, 360.18 329.5, 368.95 319.4 M356.23 340.14 C359.34 336.56, 362.45 332.98, 369.35 325.05 M356.23 340.14 C359.57 336.3, 362.9 332.46, 369.35 325.05 M361.87 339.74 C363.51 337.86, 365.15 335.97, 369.09 331.44 M361.87 339.74 C364.22 337.04, 366.57 334.34, 369.09 331.44" stroke="#fff" stroke-width="0.5" fill="none"></path><path d="M0 0 C82.95 0, 165.9 0, 366.67 0 M0 0 C129.46 0, 258.92 0, 366.67 0 M366.67 0 C366.67 114.21, 366.67 228.42, 366.67 338.89 M366.67 0 C366.67 81.17, 366.67 162.33, 366.67 338.89 M366.67 338.89 C246.09 338.89, 125.52 338.89, 0 338.89 M366.67 338.89 C261.3 338.89, 155.92 338.89, 0 338.89 M0 338.89 C0 206.46, 0 74.03, 0 0 M0 338.89 C0 215.97, 0 93.04, 0 0" stroke="#000000" stroke-width="1" fill="none"></path></g><g transform="translate(28.888888888888914 89.66666666666788) rotate(0 146.5 31.5)"><text x="0" y="15" font-family="Virgil, Segoe UI Emoji" font-size="15.46274813096159px" fill="#000000" text-anchor="start" style="white-space: pre;" direction="ltr">1. यह तब इस्तेमाल होता है जब स्वर/मुसावते</text><text x="0" y="36" font-family="Virgil, Segoe UI Emoji" font-size="15.46274813096159px" fill="#000000" text-anchor="start" style="white-space: pre;" direction="ltr">(अलिफ, वाओ, छोटी ये, बड़ी ये)</text><text x="0" y="57" font-family="Virgil, Segoe UI Emoji" font-size="15.46274813096159px" fill="#000000" text-anchor="start" style="white-space: pre;" direction="ltr">एक साथ आए , हम्ज़ा दूसरे स्वर पर रखा गया है</text></g><g transform="translate(99.58197331428596 30.482977787552954) rotate(0 78.5 13)"><text x="78.5" y="19" font-family="Virgil, Segoe UI Emoji" font-size="20px" fill="#000000" text-anchor="middle" style="white-space: pre;" direction="ltr">Humza(ء) Part 1</text></g><g transform="translate(80.22222222222229 171.55555555555475) rotate(0 107 13)"><text x="107" y="19" font-family="Virgil, Segoe UI Emoji" font-size="20px" fill="#000000" text-anchor="middle" style="white-space: pre;" direction="ltr">(bhai) بھائ=ب+ھ+ا+ئ </text></g><g transform="translate(72.50000000000011 206) rotate(0 105.5 13)"><text x="105.5" y="19" font-family="Virgil, Segoe UI Emoji" font-size="20px" fill="#000000" text-anchor="middle" style="white-space: pre;" direction="ltr"> (gaye) گاےء=گ+ا+ے+ء</text></g><g transform="translate(60.500000000000114 251.55555555555475) rotate(0 115.5 13)"><text x="115.5" y="19" font-family="Virgil, Segoe UI Emoji" font-size="20px" fill="#000000" text-anchor="middle" style="white-space: pre;" direction="rtl">بچاؤ=ب+چ+ا+اُو (bachao)</text></g><g transform="translate(84.54700854700752 298.55555555555475) rotate(0 72 13)"><text x="72" y="19" font-family="Virgil, Segoe UI Emoji" font-size="20px" fill="#000000" text-anchor="middle" style="white-space: pre;" direction="rtl">لاؤ=ل+ا+و (lao)</text></g><g transform="translate(27.59833354420141 62.77243945333794) rotate(0 164 11)"><text x="164" y="16" font-family="Virgil, Segoe UI Emoji" font-size="16px" fill="#d9480f" text-anchor="middle" style="white-space: pre;" direction="ltr">नोट: शुरुआत में हमज़ा कभी इस्तेमाल नहीं किया गया</text></g></svg>