<svg version="1.1" xmlns="http://www.w3.org/2000/svg" viewBox="0 0 375.55555555555543 379.03576281335677" width="375.55555555555543" height="379.03576281335677">
  <!-- svg-source:excalidraw -->
  
  <defs>
    <style>
      @font-face {
        font-family: "Virgil";
        src: url("../Virgil.woff2");;
      }
      
    </style>
  </defs>
  <rect x="0" y="0" width="375.55555555555543" height="379.03576281335677" fill="#ffffff"></rect><g stroke-linecap="round" transform="translate(10 10) rotate(0 177.77777777777771 178.8888888888889)"><path d="M0 0 L355.56 0 L355.56 357.78 L0 357.78" stroke="none" stroke-width="0" fill="#fff"></path><path d="M0 0 C72.22 0, 144.45 0, 355.56 0 M0 0 C134.96 0, 269.91 0, 355.56 0 M355.56 0 C355.56 72.04, 355.56 144.08, 355.56 357.78 M355.56 0 C355.56 76.28, 355.56 152.56, 355.56 357.78 M355.56 357.78 C220.39 357.78, 85.22 357.78, 0 357.78 M355.56 357.78 C267.51 357.78, 179.46 357.78, 0 357.78 M0 357.78 C0 220.87, 0 83.97, 0 0 M0 357.78 C0 218.45, 0 79.12, 0 0" stroke="#000000" stroke-width="1" fill="none"></path></g><g stroke-linecap="round"><g transform="translate(94.99938936540593 167.43323143542284) rotate(0 -20.814834637328204 54.729189527264)"><path d="M0 0 C-6.94 18.24, -34.69 91.22, -41.63 109.46 M0 0 C-6.94 18.24, -34.69 91.22, -41.63 109.46" stroke="#000000" stroke-width="1" fill="none"></path></g><g transform="translate(94.99938936540593 167.43323143542284) rotate(0 -20.814834637328204 54.729189527264)"><path d="M-41.2 79.46 C-41.36 90.86, -41.53 102.27, -41.63 109.46 M-41.2 79.46 C-41.35 90.1, -41.5 100.75, -41.63 109.46" stroke="#000000" stroke-width="1" fill="none"></path></g><g transform="translate(94.99938936540593 167.43323143542284) rotate(0 -20.814834637328204 54.729189527264)"><path d="M-22.02 86.76 C-29.47 95.39, -36.93 104.02, -41.63 109.46 M-22.02 86.76 C-28.98 94.81, -35.93 102.87, -41.63 109.46" stroke="#000000" stroke-width="1" fill="none"></path></g></g><g stroke-linecap="round"><g transform="translate(180.75563476271282 173.24536512034138) rotate(6.03839899952794 5.455563295104582 48.63493062935356)"><path d="M0 0 C1.82 16.21, 9.09 81.06, 10.91 97.27 M0 0 C1.82 16.21, 9.09 81.06, 10.91 97.27" stroke="#000000" stroke-width="1" fill="none"></path></g><g transform="translate(180.75563476271282 173.24536512034138) rotate(6.03839899952794 5.455563295104582 48.63493062935356)"><path d="M-2.43 70.4 C2.15 79.62, 6.73 88.84, 10.91 97.27 M-2.43 70.4 C2.04 79.4, 6.51 88.41, 10.91 97.27" stroke="#000000" stroke-width="1" fill="none"></path></g><g transform="translate(180.75563476271282 173.24536512034138) rotate(6.03839899952794 5.455563295104582 48.63493062935356)"><path d="M17.97 68.11 C15.54 78.12, 13.12 88.13, 10.91 97.27 M17.97 68.11 C15.6 77.88, 13.24 87.65, 10.91 97.27" stroke="#000000" stroke-width="1" fill="none"></path></g></g><g stroke-linecap="round"><g transform="translate(280.51914702691056 164.63670447561822) rotate(0 14.832563693921657 51.09547394638929)"><path d="M0 0 C4.94 17.03, 24.72 85.16, 29.67 102.19 M0 0 C4.94 17.03, 24.72 85.16, 29.67 102.19" stroke="#000000" stroke-width="1" fill="none"></path></g><g transform="translate(280.51914702691056 164.63670447561822) rotate(0 14.832563693921657 51.09547394638929)"><path d="M11.95 77.98 C16.88 84.71, 21.81 91.45, 29.67 102.19 M11.95 77.98 C18.73 87.24, 25.5 96.5, 29.67 102.19" stroke="#000000" stroke-width="1" fill="none"></path></g><g transform="translate(280.51914702691056 164.63670447561822) rotate(0 14.832563693921657 51.09547394638929)"><path d="M31.66 72.26 C31.1 80.59, 30.55 88.91, 29.67 102.19 M31.66 72.26 C30.9 83.71, 30.13 95.16, 29.67 102.19" stroke="#000000" stroke-width="1" fill="none"></path></g></g><g stroke-linecap="round" transform="translate(97.59265687730476 74.03576281335654) rotate(0 93 43.88888888888897)"><path d="M0 0 C0 0, 0 0, 0 0 M0 0 C0 0, 0 0, 0 0 M-0.26 6.4 C1.8 4.03, 3.85 1.66, 4.99 0.36 M-0.26 6.4 C1.82 4.01, 3.9 1.61, 4.99 0.36 M0.13 12.04 C2.4 9.43, 4.67 6.82, 10.63 -0.03 M0.13 12.04 C3.91 7.69, 7.69 3.34, 10.63 -0.03 M-0.13 18.44 C4.99 12.55, 10.1 6.67, 15.62 0.33 M-0.13 18.44 C4.82 12.74, 9.77 7.05, 15.62 0.33 M0.27 24.08 C6.86 16.5, 13.45 8.91, 21.26 -0.07 M0.27 24.08 C5.43 18.14, 10.6 12.19, 21.26 -0.07 M0 30.48 C8.13 21.13, 16.26 11.78, 26.25 0.29 M0 30.48 C6.08 23.49, 12.16 16.49, 26.25 0.29 M-0.26 36.88 C9.52 25.63, 19.3 14.38, 31.89 -0.1 M-0.26 36.88 C11.06 23.86, 22.38 10.84, 31.89 -0.1 M0.14 42.52 C14.44 26.07, 28.74 9.62, 36.88 0.26 M0.14 42.52 C11.48 29.47, 22.82 16.42, 36.88 0.26 M-0.12 48.92 C12.29 34.64, 24.7 20.36, 42.52 -0.14 M-0.12 48.92 C14.35 32.27, 28.82 15.63, 42.52 -0.14 M0.27 54.56 C9.93 43.45, 19.58 32.34, 47.51 0.22 M0.27 54.56 C11.28 41.9, 22.29 29.24, 47.51 0.22 M0.01 60.96 C17.4 40.95, 34.79 20.95, 53.15 -0.17 M0.01 60.96 C13.1 45.9, 26.19 30.84, 53.15 -0.17 M-0.25 67.36 C16.96 47.55, 34.18 27.75, 58.14 0.19 M-0.25 67.36 C18.35 45.96, 36.95 24.56, 58.14 0.19 M0.14 73 C20.13 50, 40.13 27, 63.78 -0.21 M0.14 73 C24.82 44.62, 49.49 16.23, 63.78 -0.21 M-0.12 79.4 C27.33 47.82, 54.77 16.25, 68.77 0.15 M-0.12 79.4 C14.06 63.08, 28.25 46.77, 68.77 0.15 M0.28 85.04 C22.62 59.34, 44.96 33.64, 74.41 -0.24 M0.28 85.04 C19.17 63.3, 38.07 41.56, 74.41 -0.24 M1.98 89.17 C29.2 57.86, 56.42 26.55, 79.4 0.12 M1.98 89.17 C30.01 56.93, 58.04 24.68, 79.4 0.12 M6.97 89.53 C37.19 54.77, 67.4 20.01, 85.04 -0.28 M6.97 89.53 C23.81 70.16, 40.66 50.78, 85.04 -0.28 M12.61 89.14 C42.74 54.48, 72.88 19.81, 90.03 0.08 M12.61 89.14 C42.1 55.22, 71.58 21.3, 90.03 0.08 M17.6 89.5 C34.6 69.94, 51.6 50.39, 95.67 -0.31 M17.6 89.5 C34.36 70.22, 51.12 50.93, 95.67 -0.31 M23.24 89.11 C42.18 67.33, 61.11 45.55, 100.66 0.05 M23.24 89.11 C45.11 63.95, 66.97 38.8, 100.66 0.05 M28.23 89.47 C50.75 63.56, 73.27 37.66, 106.3 -0.34 M28.23 89.47 C49.53 64.96, 70.83 40.46, 106.3 -0.34 M33.87 89.07 C53.17 66.87, 72.47 44.67, 111.29 0.02 M33.87 89.07 C50.41 70.04, 66.95 51.02, 111.29 0.02 M38.86 89.43 C57.64 67.83, 76.42 46.22, 116.27 0.38 M38.86 89.43 C68.87 54.91, 98.88 20.39, 116.27 0.38 M44.5 89.04 C62.59 68.23, 80.68 47.42, 121.92 -0.02 M44.5 89.04 C71.43 58.06, 98.36 27.09, 121.92 -0.02 M49.49 89.4 C78.29 56.26, 107.09 23.13, 126.91 0.34 M49.49 89.4 C67.55 68.62, 85.62 47.84, 126.91 0.34 M55.13 89 C72.64 68.87, 90.14 48.73, 132.55 -0.05 M55.13 89 C84.93 54.72, 114.73 20.45, 132.55 -0.05 M60.12 89.36 C84.67 61.12, 109.22 32.88, 137.54 0.31 M60.12 89.36 C80.29 66.15, 100.47 42.95, 137.54 0.31 M65.11 89.72 C92.73 57.95, 120.35 26.17, 143.18 -0.09 M65.11 89.72 C84.73 67.15, 104.36 44.57, 143.18 -0.09 M70.75 89.33 C99.13 56.68, 127.51 24.04, 148.17 0.27 M70.75 89.33 C101.46 54, 132.17 18.67, 148.17 0.27 M75.74 89.69 C102.45 58.96, 129.16 28.24, 153.81 -0.12 M75.74 89.69 C91.37 71.7, 107.01 53.71, 153.81 -0.12 M81.38 89.29 C109.06 57.45, 136.74 25.6, 158.8 0.24 M81.38 89.29 C108.13 58.52, 134.88 27.75, 158.8 0.24 M86.37 89.65 C103.15 70.34, 119.94 51.03, 164.44 -0.16 M86.37 89.65 C110.67 61.7, 134.97 33.75, 164.44 -0.16 M92.01 89.26 C121.1 55.8, 150.19 22.33, 169.43 0.2 M92.01 89.26 C114.26 63.67, 136.51 38.07, 169.43 0.2 M97 89.62 C127.82 54.16, 158.64 18.71, 175.07 -0.19 M97 89.62 C127.48 54.55, 157.96 19.49, 175.07 -0.19 M102.64 89.22 C122.39 66.5, 142.14 43.78, 180.06 0.17 M102.64 89.22 C132 55.45, 161.37 21.67, 180.06 0.17 M107.63 89.58 C123.42 71.42, 139.2 53.26, 185.7 -0.23 M107.63 89.58 C128.76 65.28, 149.88 40.97, 185.7 -0.23 M113.27 89.19 C134.26 65.04, 155.26 40.89, 188.72 2.4 M113.27 89.19 C132.49 67.08, 151.71 44.97, 188.72 2.4 M118.26 89.55 C143.29 60.76, 168.32 31.96, 188.46 8.8 M118.26 89.55 C140.1 64.43, 161.93 39.31, 188.46 8.8 M123.9 89.16 C141.83 68.53, 159.76 47.91, 188.85 14.44 M123.9 89.16 C144.93 64.96, 165.97 40.76, 188.85 14.44 M128.89 89.52 C145.33 70.6, 161.77 51.68, 188.59 20.84 M128.89 89.52 C146.66 69.07, 164.43 48.63, 188.59 20.84 M134.53 89.12 C152.38 68.59, 170.23 48.05, 188.98 26.48 M134.53 89.12 C149.41 72, 164.29 54.89, 188.98 26.48 M139.52 89.48 C157.97 68.26, 176.41 47.04, 188.72 32.88 M139.52 89.48 C156.39 70.07, 173.26 50.67, 188.72 32.88 M145.16 89.09 C156.48 76.06, 167.8 63.04, 188.46 39.28 M145.16 89.09 C161.01 70.85, 176.87 52.61, 188.46 39.28 M150.15 89.45 C164.45 72.99, 178.76 56.53, 188.86 44.92 M150.15 89.45 C165.07 72.28, 180 55.11, 188.86 44.92 M155.79 89.05 C167.38 75.72, 178.96 62.4, 188.59 51.32 M155.79 89.05 C167.02 76.14, 178.24 63.22, 188.59 51.32 M160.78 89.41 C171.28 77.33, 181.78 65.25, 188.99 56.96 M160.78 89.41 C169 79.96, 177.22 70.5, 188.99 56.96 M166.42 89.02 C171.5 83.18, 176.58 77.34, 188.73 63.36 M166.42 89.02 C173.51 80.86, 180.61 72.7, 188.73 63.36 M171.41 89.38 C178.14 81.63, 184.87 73.89, 188.47 69.75 M171.41 89.38 C177.42 82.46, 183.43 75.55, 188.47 69.75 M176.4 89.74 C180.86 84.6, 185.32 79.47, 188.86 75.4 M176.4 89.74 C179.96 85.63, 183.53 81.53, 188.86 75.4 M182.04 89.34 C183.65 87.48, 185.27 85.63, 188.6 81.8 M182.04 89.34 C184.58 86.42, 187.12 83.5, 188.6 81.8" stroke="#fff" stroke-width="0.5" fill="none"></path><path d="M0 0 C41.2 0, 82.4 0, 186 0 M186 0 C186 24.9, 186 49.8, 186 87.78 M186 87.78 C117.76 87.78, 49.51 87.78, 0 87.78 M0 87.78 C0 57.72, 0 27.66, 0 0" stroke="#c92a2a" stroke-width="1.5" fill="none" stroke-dasharray="8 9"></path></g><g stroke-linecap="round"><g transform="translate(251.11111111111063 94.66938826772912) rotate(0 -57.777777777777715 19.216261496148263)"><path d="M0 0 C-2.38 5.78, 2.76 29.05, -14.3 34.66 C-31.37 40.27, -85.52 39.36, -102.4 33.67 C-119.27 27.97, -113.36 6.02, -115.56 0.5 M0 0 C-2.38 5.78, 2.76 29.05, -14.3 34.66 C-31.37 40.27, -85.52 39.36, -102.4 33.67 C-119.27 27.97, -113.36 6.02, -115.56 0.5" stroke="#000000" stroke-width="1" fill="none"></path></g></g><g stroke-linecap="round" transform="translate(183.20376798841608 140.75798503557894) rotate(0 5.5 5.5)"><path d="M11 5.5 C11 5.82, 10.97 6.14, 10.92 6.46 C10.86 6.77, 10.78 7.08, 10.67 7.38 C10.56 7.68, 10.42 7.97, 10.26 8.25 C10.1 8.53, 9.92 8.79, 9.71 9.04 C9.51 9.28, 9.28 9.51, 9.04 9.71 C8.79 9.92, 8.53 10.1, 8.25 10.26 C7.97 10.42, 7.68 10.56, 7.38 10.67 C7.08 10.78, 6.77 10.86, 6.46 10.92 C6.14 10.97, 5.82 11, 5.5 11 C5.18 11, 4.86 10.97, 4.54 10.92 C4.23 10.86, 3.92 10.78, 3.62 10.67 C3.32 10.56, 3.03 10.42, 2.75 10.26 C2.47 10.1, 2.21 9.92, 1.96 9.71 C1.72 9.51, 1.49 9.28, 1.29 9.04 C1.08 8.79, 0.9 8.53, 0.74 8.25 C0.58 7.97, 0.44 7.68, 0.33 7.38 C0.22 7.08, 0.14 6.77, 0.08 6.46 C0.03 6.14, 0 5.82, 0 5.5 C0 5.18, 0.03 4.86, 0.08 4.54 C0.14 4.23, 0.22 3.92, 0.33 3.62 C0.44 3.32, 0.58 3.03, 0.74 2.75 C0.9 2.47, 1.08 2.21, 1.29 1.96 C1.49 1.72, 1.72 1.49, 1.96 1.29 C2.21 1.08, 2.47 0.9, 2.75 0.74 C3.03 0.58, 3.32 0.44, 3.62 0.33 C3.92 0.22, 4.23 0.14, 4.54 0.08 C4.86 0.03, 5.18 0, 5.5 0 C5.82 0, 6.14 0.03, 6.46 0.08 C6.77 0.14, 7.08 0.22, 7.38 0.33 C7.68 0.44, 7.97 0.58, 8.25 0.74 C8.53 0.9, 8.79 1.08, 9.04 1.29 C9.28 1.49, 9.51 1.72, 9.71 1.96 C9.92 2.21, 10.1 2.47, 10.26 2.75 C10.42 3.03, 10.56 3.32, 10.67 3.62 C10.78 3.92, 10.86 4.23, 10.92 4.54 C10.97 4.86, 10.99 5.34, 11 5.5 C11.01 5.66, 11.01 5.34, 11 5.5" stroke="none" stroke-width="0" fill="#fd7e14"></path><path d="M11 5.5 C11 5.82, 10.97 6.14, 10.92 6.46 C10.86 6.77, 10.78 7.08, 10.67 7.38 C10.56 7.68, 10.42 7.97, 10.26 8.25 C10.1 8.53, 9.92 8.79, 9.71 9.04 C9.51 9.28, 9.28 9.51, 9.04 9.71 C8.79 9.92, 8.53 10.1, 8.25 10.26 C7.97 10.42, 7.68 10.56, 7.38 10.67 C7.08 10.78, 6.77 10.86, 6.46 10.92 C6.14 10.97, 5.82 11, 5.5 11 C5.18 11, 4.86 10.97, 4.54 10.92 C4.23 10.86, 3.92 10.78, 3.62 10.67 C3.32 10.56, 3.03 10.42, 2.75 10.26 C2.47 10.1, 2.21 9.92, 1.96 9.71 C1.72 9.51, 1.49 9.28, 1.29 9.04 C1.08 8.79, 0.9 8.53, 0.74 8.25 C0.58 7.97, 0.44 7.68, 0.33 7.38 C0.22 7.08, 0.14 6.77, 0.08 6.46 C0.03 6.14, 0 5.82, 0 5.5 C0 5.18, 0.03 4.86, 0.08 4.54 C0.14 4.23, 0.22 3.92, 0.33 3.62 C0.44 3.32, 0.58 3.03, 0.74 2.75 C0.9 2.47, 1.08 2.21, 1.29 1.96 C1.49 1.72, 1.72 1.49, 1.96 1.29 C2.21 1.08, 2.47 0.9, 2.75 0.74 C3.03 0.58, 3.32 0.44, 3.62 0.33 C3.92 0.22, 4.23 0.14, 4.54 0.08 C4.86 0.03, 5.18 0, 5.5 0 C5.82 0, 6.14 0.03, 6.46 0.08 C6.77 0.14, 7.08 0.22, 7.38 0.33 C7.68 0.44, 7.97 0.58, 8.25 0.74 C8.53 0.9, 8.79 1.08, 9.04 1.29 C9.28 1.49, 9.51 1.72, 9.71 1.96 C9.92 2.21, 10.1 2.47, 10.26 2.75 C10.42 3.03, 10.56 3.32, 10.67 3.62 C10.78 3.92, 10.86 4.23, 10.92 4.54 C10.97 4.86, 10.99 5.34, 11 5.5 C11.01 5.66, 11.01 5.34, 11 5.5" stroke="#000000" stroke-width="1" fill="none"></path></g><g transform="translate(95.81487909952739 34.702429480023056) rotate(0 89.5 11)"><text x="0" y="16" font-family="Virgil, Segoe UI Emoji" font-size="16px" fill="#000000" text-anchor="start" style="white-space: pre;" direction="ltr">बे (ب) अक्षर के तीन आकार</text></g><g stroke-linecap="round" transform="translate(273.1482124328609 280.7024294800233) rotate(0 34.99999999999997 29.444444444444457)"><path d="M0 0 C0 0, 0 0, 0 0 M0 0 C0 0, 0 0, 0 0 M-0.26 6.4 C1.01 4.94, 2.27 3.48, 4.99 0.36 M-0.26 6.4 C1.36 4.53, 2.98 2.66, 4.99 0.36 M0.13 12.04 C2.46 9.36, 4.79 6.68, 10.63 -0.03 M0.13 12.04 C4.17 7.4, 8.21 2.75, 10.63 -0.03 M-0.13 18.44 C5.72 11.71, 11.57 4.98, 15.62 0.33 M-0.13 18.44 C5.88 11.53, 11.88 4.62, 15.62 0.33 M0.27 24.08 C4.61 19.09, 8.95 14.09, 21.26 -0.07 M0.27 24.08 C7.34 15.95, 14.41 7.81, 21.26 -0.07 M0 30.48 C7.41 21.96, 14.81 13.45, 26.25 0.29 M0 30.48 C9.76 19.25, 19.52 8.03, 26.25 0.29 M-0.26 36.88 C10.13 24.93, 20.51 12.99, 31.89 -0.1 M-0.26 36.88 C6.35 29.28, 12.96 21.68, 31.89 -0.1 M0.14 42.52 C9.74 31.47, 19.35 20.42, 36.88 0.26 M0.14 42.52 C13.77 26.83, 27.41 11.15, 36.88 0.26 M-0.12 48.92 C15.65 30.77, 31.42 12.63, 42.52 -0.14 M-0.12 48.92 C14.03 32.64, 28.19 16.35, 42.52 -0.14 M0.27 54.56 C14.24 38.49, 28.22 22.41, 47.51 0.22 M0.27 54.56 C14.27 38.46, 28.27 22.35, 47.51 0.22 M1.32 59.45 C21.83 35.85, 42.34 12.26, 53.15 -0.17 M1.32 59.45 C18.63 39.53, 35.95 19.62, 53.15 -0.17 M6.31 59.81 C25.49 37.75, 44.67 15.68, 58.14 0.19 M6.31 59.81 C26.58 36.49, 46.86 13.16, 58.14 0.19 M11.95 59.42 C32.53 35.74, 53.11 12.07, 63.78 -0.21 M11.95 59.42 C22.64 47.12, 33.34 34.82, 63.78 -0.21 M16.94 59.78 C35.99 37.86, 55.04 15.95, 68.77 0.15 M16.94 59.78 C33.83 40.35, 50.71 20.92, 68.77 0.15 M21.93 60.14 C32.98 47.41, 44.04 34.69, 72.44 2.02 M21.93 60.14 C33.03 47.37, 44.13 34.6, 72.44 2.02 M27.57 59.74 C44.07 40.76, 60.57 21.78, 72.18 8.42 M27.57 59.74 C40.82 44.49, 54.08 29.24, 72.18 8.42 M32.56 60.1 C42.75 48.38, 52.94 36.66, 72.58 14.06 M32.56 60.1 C41.44 49.88, 50.32 39.67, 72.58 14.06 M38.2 59.71 C50.39 45.69, 62.57 31.67, 72.31 20.46 M38.2 59.71 C49.4 46.82, 60.61 33.93, 72.31 20.46 M43.19 60.07 C53.4 48.31, 63.62 36.56, 72.71 26.1 M43.19 60.07 C53.14 48.62, 63.09 37.18, 72.71 26.1 M48.83 59.67 C56.11 51.3, 63.39 42.92, 72.45 32.5 M48.83 59.67 C57.56 49.63, 66.29 39.58, 72.45 32.5 M53.82 60.03 C59.03 54.04, 64.24 48.04, 72.19 38.9 M53.82 60.03 C58.7 54.42, 63.58 48.8, 72.19 38.9 M59.46 59.64 C63.39 55.11, 67.33 50.58, 72.58 44.54 M59.46 59.64 C64.67 53.64, 69.89 47.64, 72.58 44.54 M64.45 60 C66.86 57.22, 69.27 54.45, 72.32 50.94 M64.45 60 C67.48 56.51, 70.51 53.02, 72.32 50.94" stroke="#fff" stroke-width="0.5" fill="none"></path><path d="M0 0 C20.21 0, 40.42 0, 70 0 M70 0 C70 14.56, 70 29.12, 70 58.89 M70 58.89 C55.81 58.89, 41.62 58.89, 0 58.89 M0 58.89 C0 35.85, 0 12.81, 0 0" stroke="#c92a2a" stroke-width="1.5" fill="none" stroke-dasharray="8 9"></path></g><g stroke-linecap="round"><g transform="translate(328.26592187427514 297.11285825104846) rotate(0 -21.71443500273358 11.086158577407161)"><path d="M0 0 C-0.5 3.47, 4.4 17.43, -3.03 20.8 C-10.45 24.16, -37.63 20.3, -44.55 20.2 M0 0 C-0.5 3.47, 4.4 17.43, -3.03 20.8 C-10.45 24.16, -37.63 20.3, -44.55 20.2" stroke="#000000" stroke-width="1" fill="none"></path></g></g><g stroke-linecap="round" transform="translate(312.6412032033254 326.0298128185141) rotate(0 3.300304283815649 3.300304283815649)"><path d="M6.6 3.3 C6.6 3.49, 6.58 3.69, 6.55 3.87 C6.52 4.06, 6.47 4.25, 6.4 4.43 C6.34 4.61, 6.25 4.79, 6.16 4.95 C6.06 5.12, 5.95 5.28, 5.83 5.42 C5.71 5.57, 5.57 5.71, 5.42 5.83 C5.28 5.95, 5.12 6.06, 4.95 6.16 C4.79 6.25, 4.61 6.34, 4.43 6.4 C4.25 6.47, 4.06 6.52, 3.87 6.55 C3.69 6.58, 3.49 6.6, 3.3 6.6 C3.11 6.6, 2.92 6.58, 2.73 6.55 C2.54 6.52, 2.35 6.47, 2.17 6.4 C1.99 6.34, 1.82 6.25, 1.65 6.16 C1.48 6.06, 1.33 5.95, 1.18 5.83 C1.03 5.71, 0.89 5.57, 0.77 5.42 C0.65 5.28, 0.54 5.12, 0.44 4.95 C0.35 4.79, 0.26 4.61, 0.2 4.43 C0.13 4.25, 0.08 4.06, 0.05 3.87 C0.02 3.69, 0 3.49, 0 3.3 C0 3.11, 0.02 2.92, 0.05 2.73 C0.08 2.54, 0.13 2.35, 0.2 2.17 C0.26 1.99, 0.35 1.82, 0.44 1.65 C0.54 1.48, 0.65 1.33, 0.77 1.18 C0.89 1.03, 1.03 0.89, 1.18 0.77 C1.33 0.65, 1.48 0.54, 1.65 0.44 C1.82 0.35, 1.99 0.26, 2.17 0.2 C2.35 0.13, 2.54 0.08, 2.73 0.05 C2.92 0.02, 3.11 0, 3.3 0 C3.49 0, 3.69 0.02, 3.87 0.05 C4.06 0.08, 4.25 0.13, 4.43 0.2 C4.61 0.26, 4.79 0.35, 4.95 0.44 C5.12 0.54, 5.28 0.65, 5.42 0.77 C5.57 0.89, 5.71 1.03, 5.83 1.18 C5.95 1.33, 6.06 1.48, 6.16 1.65 C6.25 1.82, 6.34 1.99, 6.4 2.17 C6.47 2.35, 6.52 2.54, 6.55 2.73 C6.58 2.92, 6.59 3.2, 6.6 3.3 C6.61 3.4, 6.61 3.2, 6.6 3.3" stroke="none" stroke-width="0" fill="#fd7e14"></path><path d="M6.6 3.3 C6.6 3.49, 6.58 3.69, 6.55 3.87 C6.52 4.06, 6.47 4.25, 6.4 4.43 C6.34 4.61, 6.25 4.79, 6.16 4.95 C6.06 5.12, 5.95 5.28, 5.83 5.42 C5.71 5.57, 5.57 5.71, 5.42 5.83 C5.28 5.95, 5.12 6.06, 4.95 6.16 C4.79 6.25, 4.61 6.34, 4.43 6.4 C4.25 6.47, 4.06 6.52, 3.87 6.55 C3.69 6.58, 3.49 6.6, 3.3 6.6 C3.11 6.6, 2.92 6.58, 2.73 6.55 C2.54 6.52, 2.35 6.47, 2.17 6.4 C1.99 6.34, 1.82 6.25, 1.65 6.16 C1.48 6.06, 1.33 5.95, 1.18 5.83 C1.03 5.71, 0.89 5.57, 0.77 5.42 C0.65 5.28, 0.54 5.12, 0.44 4.95 C0.35 4.79, 0.26 4.61, 0.2 4.43 C0.13 4.25, 0.08 4.06, 0.05 3.87 C0.02 3.69, 0 3.49, 0 3.3 C0 3.11, 0.02 2.92, 0.05 2.73 C0.08 2.54, 0.13 2.35, 0.2 2.17 C0.26 1.99, 0.35 1.82, 0.44 1.65 C0.54 1.48, 0.65 1.33, 0.77 1.18 C0.89 1.03, 1.03 0.89, 1.18 0.77 C1.33 0.65, 1.48 0.54, 1.65 0.44 C1.82 0.35, 1.99 0.26, 2.17 0.2 C2.35 0.13, 2.54 0.08, 2.73 0.05 C2.92 0.02, 3.11 0, 3.3 0 C3.49 0, 3.69 0.02, 3.87 0.05 C4.06 0.08, 4.25 0.13, 4.43 0.2 C4.61 0.26, 4.79 0.35, 4.95 0.44 C5.12 0.54, 5.28 0.65, 5.42 0.77 C5.57 0.89, 5.71 1.03, 5.83 1.18 C5.95 1.33, 6.06 1.48, 6.16 1.65 C6.25 1.82, 6.34 1.99, 6.4 2.17 C6.47 2.35, 6.52 2.54, 6.55 2.73 C6.58 2.92, 6.59 3.2, 6.6 3.3 C6.61 3.4, 6.61 3.2, 6.6 3.3" stroke="#000000" stroke-width="1" fill="none"></path></g><g transform="translate(295.3704346550833 343.7024294800233) rotate(0 16.5 11)"><text x="0" y="16" font-family="Virgil, Segoe UI Emoji" font-size="16px" fill="#000000" text-anchor="start" style="white-space: pre;" direction="ltr">पहला</text></g><g stroke-linecap="round" transform="translate(152.03710132174956 280.7024294800233) rotate(0 36.111111111111086 30.555555555555543)"><path d="M0 0 C0 0, 0 0, 0 0 M0 0 C0 0, 0 0, 0 0 M-0.26 6.4 C0.82 5.16, 1.89 3.92, 4.99 0.36 M-0.26 6.4 C0.98 4.97, 2.22 3.54, 4.99 0.36 M0.13 12.04 C2.83 8.94, 5.52 5.84, 10.63 -0.03 M0.13 12.04 C4.04 7.55, 7.94 3.06, 10.63 -0.03 M-0.13 18.44 C6.1 11.27, 12.34 4.1, 15.62 0.33 M-0.13 18.44 C3.9 13.8, 7.93 9.16, 15.62 0.33 M0.27 24.08 C6.52 16.89, 12.77 9.7, 21.26 -0.07 M0.27 24.08 C7.41 15.87, 14.55 7.65, 21.26 -0.07 M0 30.48 C10.02 18.95, 20.04 7.43, 26.25 0.29 M0 30.48 C9.24 19.86, 18.47 9.23, 26.25 0.29 M-0.26 36.88 C10.83 24.13, 21.91 11.38, 31.89 -0.1 M-0.26 36.88 C6.52 29.08, 13.3 21.29, 31.89 -0.1 M0.14 42.52 C14.7 25.77, 29.26 9.02, 36.88 0.26 M0.14 42.52 C9.12 32.18, 18.11 21.84, 36.88 0.26 M-0.12 48.92 C16.62 29.65, 33.37 10.39, 42.52 -0.14 M-0.12 48.92 C12.86 33.98, 25.85 19.04, 42.52 -0.14 M0.27 54.56 C13.09 39.82, 25.9 25.08, 47.51 0.22 M0.27 54.56 C18.27 33.86, 36.26 13.16, 47.51 0.22 M0.01 60.96 C20.47 37.42, 40.93 13.89, 53.15 -0.17 M0.01 60.96 C16.97 41.45, 33.92 21.94, 53.15 -0.17 M3.03 63.58 C21.59 42.24, 40.14 20.89, 58.14 0.19 M3.03 63.58 C15.95 48.72, 28.87 33.86, 58.14 0.19 M8.02 63.94 C25.5 43.83, 42.99 23.71, 63.78 -0.21 M8.02 63.94 C20.76 49.28, 33.51 34.61, 63.78 -0.21 M13.66 63.55 C31.36 43.18, 49.07 22.81, 68.77 0.15 M13.66 63.55 C24.95 50.56, 36.24 37.58, 68.77 0.15 M18.65 63.91 C36 43.95, 53.35 23.98, 73.1 1.27 M18.65 63.91 C39.54 39.87, 60.43 15.84, 73.1 1.27 M24.29 63.51 C36.69 49.25, 49.09 34.99, 73.49 6.91 M24.29 63.51 C39.97 45.48, 55.65 27.44, 73.49 6.91 M29.28 63.87 C46.38 44.2, 63.48 24.52, 73.23 13.31 M29.28 63.87 C38.58 53.17, 47.89 42.46, 73.23 13.31 M34.92 63.48 C48.63 47.71, 62.34 31.93, 73.63 18.95 M34.92 63.48 C47.66 48.83, 60.39 34.18, 73.63 18.95 M39.91 63.84 C48.67 53.75, 57.44 43.67, 73.36 25.35 M39.91 63.84 C50.5 51.66, 61.09 39.47, 73.36 25.35 M45.55 63.45 C55.25 52.29, 64.95 41.13, 73.1 31.75 M45.55 63.45 C51.49 56.61, 57.43 49.78, 73.1 31.75 M50.54 63.81 C57.95 55.27, 65.37 46.74, 73.5 37.39 M50.54 63.81 C59.23 53.81, 67.92 43.81, 73.5 37.39 M56.18 63.41 C62.45 56.2, 68.72 48.98, 73.24 43.79 M56.18 63.41 C61.03 57.83, 65.88 52.25, 73.24 43.79 M61.17 63.77 C64.98 59.38, 68.8 54.99, 73.63 49.43 M61.17 63.77 C64.34 60.12, 67.51 56.47, 73.63 49.43 M66.81 63.38 C68.26 61.7, 69.72 60.03, 73.37 55.83 M66.81 63.38 C68.57 61.35, 70.33 59.33, 73.37 55.83" stroke="#fff" stroke-width="0.5" fill="none"></path><path d="M0 0 C25.63 0, 51.25 0, 72.22 0 M72.22 0 C72.22 20.8, 72.22 41.6, 72.22 61.11 M72.22 61.11 C52.34 61.11, 32.47 61.11, 0 61.11 M0 61.11 C0 48.86, 0 36.6, 0 0" stroke="#c92a2a" stroke-width="1.5" fill="none" stroke-dasharray="8 9"></path></g><g stroke-linecap="round"><g transform="translate(217.84167722871507 322.2825078519111) rotate(0 -30.12451017570487 -11.345594741499212)"><path d="M0 0 C0 0, 0 0, 0 0 M0 0 C0 0, 0 0, 0 0 M0 0 C-9.07 -0.45, -18.14 -0.9, -28.48 -1.42 M0 0 C-7.94 -0.4, -15.89 -0.79, -28.48 -1.42 M-28.48 -1.42 C-28.48 -9.4, -28.48 -17.38, -28.48 -22.69 M-28.48 -1.42 C-28.48 -9, -28.48 -16.58, -28.48 -22.69 M-28.48 -22.69 C-28.48 -16.32, -28.48 -9.94, -28.48 -1.06 M-28.48 -22.69 C-28.48 -15.63, -28.48 -8.57, -28.48 -1.06 M-28.48 -1.06 C-36.82 -1.16, -45.15 -1.25, -60.25 -1.42 M-28.48 -1.06 C-36.24 -1.15, -43.99 -1.24, -60.25 -1.42" stroke="#000000" stroke-width="1" fill="none"></path></g></g><g stroke-linecap="round" transform="translate(186.5826075788607 326.2339046411921) rotate(0 3.873151308304898 3.873151308304898)"><path d="M7.75 3.87 C7.75 4.1, 7.73 4.32, 7.69 4.55 C7.65 4.77, 7.59 4.99, 7.51 5.2 C7.44 5.41, 7.34 5.62, 7.23 5.81 C7.12 6, 6.98 6.19, 6.84 6.36 C6.7 6.53, 6.53 6.7, 6.36 6.84 C6.19 6.98, 6 7.12, 5.81 7.23 C5.62 7.34, 5.41 7.44, 5.2 7.51 C4.99 7.59, 4.77 7.65, 4.55 7.69 C4.32 7.73, 4.1 7.75, 3.87 7.75 C3.65 7.75, 3.42 7.73, 3.2 7.69 C2.98 7.65, 2.76 7.59, 2.55 7.51 C2.34 7.44, 2.13 7.34, 1.94 7.23 C1.74 7.12, 1.56 6.98, 1.38 6.84 C1.21 6.7, 1.05 6.53, 0.91 6.36 C0.76 6.19, 0.63 6, 0.52 5.81 C0.41 5.62, 0.31 5.41, 0.23 5.2 C0.16 4.99, 0.1 4.77, 0.06 4.55 C0.02 4.32, 0 4.1, 0 3.87 C0 3.65, 0.02 3.42, 0.06 3.2 C0.1 2.98, 0.16 2.76, 0.23 2.55 C0.31 2.34, 0.41 2.13, 0.52 1.94 C0.63 1.74, 0.76 1.56, 0.91 1.38 C1.05 1.21, 1.21 1.05, 1.38 0.91 C1.56 0.76, 1.74 0.63, 1.94 0.52 C2.13 0.41, 2.34 0.31, 2.55 0.23 C2.76 0.16, 2.98 0.1, 3.2 0.06 C3.42 0.02, 3.65 0, 3.87 0 C4.1 0, 4.32 0.02, 4.55 0.06 C4.77 0.1, 4.99 0.16, 5.2 0.23 C5.41 0.31, 5.62 0.41, 5.81 0.52 C6 0.63, 6.19 0.76, 6.36 0.91 C6.53 1.05, 6.7 1.21, 6.84 1.38 C6.98 1.56, 7.12 1.74, 7.23 1.94 C7.34 2.13, 7.44 2.34, 7.51 2.55 C7.59 2.76, 7.65 2.98, 7.69 3.2 C7.73 3.42, 7.74 3.76, 7.75 3.87 C7.76 3.99, 7.76 3.76, 7.75 3.87" stroke="none" stroke-width="0" fill="#fd7e14"></path><path d="M7.75 3.87 C7.75 4.1, 7.73 4.32, 7.69 4.55 C7.65 4.77, 7.59 4.99, 7.51 5.2 C7.44 5.41, 7.34 5.62, 7.23 5.81 C7.12 6, 6.98 6.19, 6.84 6.36 C6.7 6.53, 6.53 6.7, 6.36 6.84 C6.19 6.98, 6 7.12, 5.81 7.23 C5.62 7.34, 5.41 7.44, 5.2 7.51 C4.99 7.59, 4.77 7.65, 4.55 7.69 C4.32 7.73, 4.1 7.75, 3.87 7.75 C3.65 7.75, 3.42 7.73, 3.2 7.69 C2.98 7.65, 2.76 7.59, 2.55 7.51 C2.34 7.44, 2.13 7.34, 1.94 7.23 C1.74 7.12, 1.56 6.98, 1.38 6.84 C1.21 6.7, 1.05 6.53, 0.91 6.36 C0.76 6.19, 0.63 6, 0.52 5.81 C0.41 5.62, 0.31 5.41, 0.23 5.2 C0.16 4.99, 0.1 4.77, 0.06 4.55 C0.02 4.32, 0 4.1, 0 3.87 C0 3.65, 0.02 3.42, 0.06 3.2 C0.1 2.98, 0.16 2.76, 0.23 2.55 C0.31 2.34, 0.41 2.13, 0.52 1.94 C0.63 1.74, 0.76 1.56, 0.91 1.38 C1.05 1.21, 1.21 1.05, 1.38 0.91 C1.56 0.76, 1.74 0.63, 1.94 0.52 C2.13 0.41, 2.34 0.31, 2.55 0.23 C2.76 0.16, 2.98 0.1, 3.2 0.06 C3.42 0.02, 3.65 0, 3.87 0 C4.1 0, 4.32 0.02, 4.55 0.06 C4.77 0.1, 4.99 0.16, 5.2 0.23 C5.41 0.31, 5.62 0.41, 5.81 0.52 C6 0.63, 6.19 0.76, 6.36 0.91 C6.53 1.05, 6.7 1.21, 6.84 1.38 C6.98 1.56, 7.12 1.74, 7.23 1.94 C7.34 2.13, 7.44 2.34, 7.51 2.55 C7.59 2.76, 7.65 2.98, 7.69 3.2 C7.73 3.42, 7.74 3.76, 7.75 3.87 C7.76 3.99, 7.76 3.76, 7.75 3.87" stroke="#000000" stroke-width="1" fill="none"></path></g><g transform="translate(172.59265687730522 347.03576281335677) rotate(0 13.5 11)"><text x="0" y="16" font-family="Virgil, Segoe UI Emoji" font-size="16px" fill="#000000" text-anchor="start" style="white-space: pre;" direction="ltr">मध्य</text></g><g stroke-linecap="round" transform="translate(29.81487909952739 281.81354059113437) rotate(0 35.55555555555554 29.444444444444457)"><path d="M0 0 C0 0, 0 0, 0 0 M0 0 C0 0, 0 0, 0 0 M-0.26 6.4 C1.48 4.4, 3.21 2.4, 4.99 0.36 M-0.26 6.4 C0.99 4.96, 2.24 3.51, 4.99 0.36 M0.13 12.04 C2.34 9.51, 4.54 6.97, 10.63 -0.03 M0.13 12.04 C3.57 8.09, 7 4.14, 10.63 -0.03 M-0.13 18.44 C5.44 12.03, 11.01 5.63, 15.62 0.33 M-0.13 18.44 C4.05 13.63, 8.22 8.83, 15.62 0.33 M0.27 24.08 C5.17 18.44, 10.08 12.79, 21.26 -0.07 M0.27 24.08 C6.13 17.34, 11.99 10.6, 21.26 -0.07 M0 30.48 C9.77 19.25, 19.53 8.01, 26.25 0.29 M0 30.48 C6.98 22.45, 13.96 14.43, 26.25 0.29 M-0.26 36.88 C8.56 26.73, 17.38 16.58, 31.89 -0.1 M-0.26 36.88 C9.65 25.48, 19.55 14.09, 31.89 -0.1 M0.14 42.52 C9.88 31.31, 19.62 20.11, 36.88 0.26 M0.14 42.52 C10.81 30.25, 21.48 17.97, 36.88 0.26 M-0.12 48.92 C9.34 38.03, 18.81 27.14, 42.52 -0.14 M-0.12 48.92 C9.03 38.39, 18.18 27.86, 42.52 -0.14 M0.27 54.56 C10.18 43.16, 20.1 31.75, 47.51 0.22 M0.27 54.56 C10.45 42.85, 20.62 31.15, 47.51 0.22 M1.32 59.45 C12.49 46.61, 23.65 33.76, 53.15 -0.17 M1.32 59.45 C15.63 42.99, 29.94 26.52, 53.15 -0.17 M6.31 59.81 C26.09 37.06, 45.86 14.31, 58.14 0.19 M6.31 59.81 C18.96 45.26, 31.6 30.71, 58.14 0.19 M11.95 59.42 C29.67 39.04, 47.38 18.66, 63.78 -0.21 M11.95 59.42 C29.9 38.76, 47.86 18.11, 63.78 -0.21 M16.94 59.78 C30.12 44.61, 43.3 29.45, 68.77 0.15 M16.94 59.78 C27.6 47.51, 38.27 35.24, 68.77 0.15 M21.93 60.14 C39.16 40.31, 56.39 20.49, 73.1 1.27 M21.93 60.14 C40.13 39.19, 58.34 18.24, 73.1 1.27 M27.57 59.74 C41.16 44.1, 54.76 28.47, 72.84 7.67 M27.57 59.74 C39.2 46.37, 50.82 32.99, 72.84 7.67 M32.56 60.1 C43.93 47.01, 55.31 33.92, 72.58 14.06 M32.56 60.1 C41.02 50.37, 49.48 40.64, 72.58 14.06 M38.2 59.71 C48.3 48.09, 58.39 36.48, 72.97 19.71 M38.2 59.71 C51.41 44.51, 64.62 29.31, 72.97 19.71 M43.19 60.07 C52.54 49.3, 61.9 38.54, 72.71 26.1 M43.19 60.07 C51.94 49.99, 60.7 39.92, 72.71 26.1 M48.83 59.67 C58.39 48.68, 67.94 37.68, 73.1 31.75 M48.83 59.67 C55.73 51.73, 62.64 43.78, 73.1 31.75 M53.82 60.03 C59.82 53.12, 65.83 46.21, 72.84 38.15 M53.82 60.03 C60.89 51.9, 67.95 43.77, 72.84 38.15 M59.46 59.64 C63.11 55.44, 66.76 51.24, 72.58 44.54 M59.46 59.64 C63.48 55.02, 67.5 50.39, 72.58 44.54 M64.45 60 C66.24 57.94, 68.03 55.88, 72.98 50.19 M64.45 60 C66.77 57.32, 69.1 54.64, 72.98 50.19 M70.09 59.6 C70.64 58.97, 71.19 58.34, 72.71 56.58 M70.09 59.6 C70.9 58.67, 71.7 57.75, 72.71 56.58" stroke="#fff" stroke-width="0.5" fill="none"></path><path d="M0 0 C20.85 0, 41.7 0, 71.11 0 M71.11 0 C71.11 13.8, 71.11 27.59, 71.11 58.89 M71.11 58.89 C55.16 58.89, 39.21 58.89, 0 58.89 M0 58.89 C0 43.4, 0 27.92, 0 0" stroke="#c92a2a" stroke-width="1.5" fill="none" stroke-dasharray="8 9"></path></g><g stroke-linecap="round"><g transform="translate(89.67779323638752 317.97009977658035) rotate(180 -20.19761480879538 -10.718014755361935)"><path d="M0 0 C-0.5 -3.23, 3.9 -15.85, -2.99 -19.36 C-9.88 -22.88, -34.93 -20.8, -41.32 -21.08 M0 0 C-0.5 -3.23, 3.9 -15.85, -2.99 -19.36 C-9.88 -22.88, -34.93 -20.8, -41.32 -21.08" stroke="#000000" stroke-width="1" fill="none"></path></g></g><g stroke-linecap="round" transform="translate(65.01351153824521 322.6100414931793) rotate(0 2.9073051045331795 2.9073051045331795)"><path d="M5.81 2.91 C5.81 3.08, 5.8 3.25, 5.77 3.41 C5.74 3.58, 5.7 3.74, 5.64 3.9 C5.58 4.06, 5.51 4.22, 5.43 4.36 C5.34 4.51, 5.24 4.65, 5.13 4.78 C5.03 4.9, 4.9 5.03, 4.78 5.13 C4.65 5.24, 4.51 5.34, 4.36 5.43 C4.22 5.51, 4.06 5.58, 3.9 5.64 C3.74 5.7, 3.58 5.74, 3.41 5.77 C3.25 5.8, 3.08 5.81, 2.91 5.81 C2.74 5.81, 2.57 5.8, 2.4 5.77 C2.24 5.74, 2.07 5.7, 1.91 5.64 C1.75 5.58, 1.6 5.51, 1.45 5.43 C1.31 5.34, 1.17 5.24, 1.04 5.13 C0.91 5.03, 0.79 4.9, 0.68 4.78 C0.57 4.65, 0.47 4.51, 0.39 4.36 C0.31 4.22, 0.23 4.06, 0.18 3.9 C0.12 3.74, 0.07 3.58, 0.04 3.41 C0.01 3.25, 0 3.08, 0 2.91 C0 2.74, 0.01 2.57, 0.04 2.4 C0.07 2.24, 0.12 2.07, 0.18 1.91 C0.23 1.75, 0.31 1.6, 0.39 1.45 C0.47 1.31, 0.57 1.17, 0.68 1.04 C0.79 0.91, 0.91 0.79, 1.04 0.68 C1.17 0.57, 1.31 0.47, 1.45 0.39 C1.6 0.31, 1.75 0.23, 1.91 0.18 C2.07 0.12, 2.24 0.07, 2.4 0.04 C2.57 0.01, 2.74 0, 2.91 0 C3.08 0, 3.25 0.01, 3.41 0.04 C3.58 0.07, 3.74 0.12, 3.9 0.18 C4.06 0.23, 4.22 0.31, 4.36 0.39 C4.51 0.47, 4.65 0.57, 4.78 0.68 C4.9 0.79, 5.03 0.91, 5.13 1.04 C5.24 1.17, 5.34 1.31, 5.43 1.45 C5.51 1.6, 5.58 1.75, 5.64 1.91 C5.7 2.07, 5.74 2.24, 5.77 2.4 C5.8 2.57, 5.81 2.82, 5.81 2.91 C5.82 2.99, 5.82 2.82, 5.81 2.91" stroke="none" stroke-width="0" fill="#fd7e14"></path><path d="M5.81 2.91 C5.81 3.08, 5.8 3.25, 5.77 3.41 C5.74 3.58, 5.7 3.74, 5.64 3.9 C5.58 4.06, 5.51 4.22, 5.43 4.36 C5.34 4.51, 5.24 4.65, 5.13 4.78 C5.03 4.9, 4.9 5.03, 4.78 5.13 C4.65 5.24, 4.51 5.34, 4.36 5.43 C4.22 5.51, 4.06 5.58, 3.9 5.64 C3.74 5.7, 3.58 5.74, 3.41 5.77 C3.25 5.8, 3.08 5.81, 2.91 5.81 C2.74 5.81, 2.57 5.8, 2.4 5.77 C2.24 5.74, 2.07 5.7, 1.91 5.64 C1.75 5.58, 1.6 5.51, 1.45 5.43 C1.31 5.34, 1.17 5.24, 1.04 5.13 C0.91 5.03, 0.79 4.9, 0.68 4.78 C0.57 4.65, 0.47 4.51, 0.39 4.36 C0.31 4.22, 0.23 4.06, 0.18 3.9 C0.12 3.74, 0.07 3.58, 0.04 3.41 C0.01 3.25, 0 3.08, 0 2.91 C0 2.74, 0.01 2.57, 0.04 2.4 C0.07 2.24, 0.12 2.07, 0.18 1.91 C0.23 1.75, 0.31 1.6, 0.39 1.45 C0.47 1.31, 0.57 1.17, 0.68 1.04 C0.79 0.91, 0.91 0.79, 1.04 0.68 C1.17 0.57, 1.31 0.47, 1.45 0.39 C1.6 0.31, 1.75 0.23, 1.91 0.18 C2.07 0.12, 2.24 0.07, 2.4 0.04 C2.57 0.01, 2.74 0, 2.91 0 C3.08 0, 3.25 0.01, 3.41 0.04 C3.58 0.07, 3.74 0.12, 3.9 0.18 C4.06 0.23, 4.22 0.31, 4.36 0.39 C4.51 0.47, 4.65 0.57, 4.78 0.68 C4.9 0.79, 5.03 0.91, 5.13 1.04 C5.24 1.17, 5.34 1.31, 5.43 1.45 C5.51 1.6, 5.58 1.75, 5.64 1.91 C5.7 2.07, 5.74 2.24, 5.77 2.4 C5.8 2.57, 5.81 2.82, 5.81 2.91 C5.82 2.99, 5.82 2.82, 5.81 2.91" stroke="#000000" stroke-width="1" fill="none"></path></g><g transform="translate(50.9259902106387 345.92465170224546) rotate(0 18 11)"><text x="0" y="16" font-family="Virgil, Segoe UI Emoji" font-size="16px" fill="#000000" text-anchor="start" style="white-space: pre;" direction="ltr">अंतिम</text></g></svg>