<svg version="1.1" xmlns="http://www.w3.org/2000/svg" viewBox="0 0 379 373" width="379" height="373">
  <!-- svg-source:excalidraw -->
  
  <defs>
    <style>
      @font-face {
        font-family: "Virgil";
        src: url("https://excalidraw.com/Virgil.woff2");
      }
      @font-face {
        font-family: "Cascadia";
        src: url("https://excalidraw.com/Cascadia.woff2");
      }
    </style>
  </defs>
  <rect x="0" y="0" width="379" height="373" fill="#ffffff"></rect><g stroke-linecap="round" transform="translate(10 10) rotate(0 179.5 176.5)"><path d="M0 0 C74.09 0, 148.18 0, 359 0 M0 0 C89.38 0, 178.77 0, 359 0 M359 0 C359 83.04, 359 166.09, 359 353 M359 0 C359 136.15, 359 272.31, 359 353 M359 353 C238.6 353, 118.21 353, 0 353 M359 353 C235.92 353, 112.83 353, 0 353 M0 353 C0 243.08, 0 133.17, 0 0 M0 353 C0 240.63, 0 128.25, 0 0" stroke="#000000" stroke-width="1" fill="none"></path></g><g transform="translate(107 36) rotate(0 79 12.5)"><text x="0" y="18" font-family="Virgil, Segoe UI Emoji" font-size="20px" fill="#000000" text-anchor="start" style="white-space: pre;" direction="ltr">Some more rules</text></g><g transform="translate(44.66666666666663 88.33333333333326) rotate(0 149 100)"><text x="0" y="18" font-family="Virgil, Segoe UI Emoji" font-size="20px" fill="#000000" text-anchor="start" style="white-space: pre;" direction="ltr">1. Urdu is like cursive, each</text><text x="0" y="43" font-family="Virgil, Segoe UI Emoji" font-size="20px" fill="#000000" text-anchor="start" style="white-space: pre;" direction="ltr">letter is connected with last</text><text x="0" y="68" font-family="Virgil, Segoe UI Emoji" font-size="20px" fill="#000000" text-anchor="start" style="white-space: pre;" direction="ltr"></text><text x="0" y="93" font-family="Virgil, Segoe UI Emoji" font-size="20px" fill="#000000" text-anchor="start" style="white-space: pre;" direction="ltr">2. Nakash and Nastaliq font </text><text x="0" y="118" font-family="Virgil, Segoe UI Emoji" font-size="20px" fill="#000000" text-anchor="start" style="white-space: pre;" direction="ltr">are used </text><text x="0" y="143" font-family="Virgil, Segoe UI Emoji" font-size="20px" fill="#000000" text-anchor="start" style="white-space: pre;" direction="ltr"></text><text x="0" y="168" font-family="Virgil, Segoe UI Emoji" font-size="20px" fill="#000000" text-anchor="start" style="white-space: pre;" direction="ltr">3. We're going to use nakash,</text><text x="0" y="193" font-family="Virgil, Segoe UI Emoji" font-size="20px" fill="#000000" text-anchor="start" style="white-space: pre;" direction="ltr">it is somewhat easier to pick.</text></g><g transform="translate(22.674042569266362 314.7664779331685) rotate(0 168.94444444444434 19.363260108245754)"><text x="0" y="13.363260108245772" font-family="Virgil, Segoe UI Emoji" font-size="15.490608086596616px" fill="#000000" text-anchor="start" style="white-space: pre;" direction="ltr">Nastaliq font is used in major</text><text x="0" y="32.726520216491544" font-family="Virgil, Segoe UI Emoji" font-size="15.490608086596616px" fill="#000000" text-anchor="start" style="white-space: pre;" direction="ltr">publications. Online nakash is widely adopted</text></g></svg>