<svg version="1.1" xmlns="http://www.w3.org/2000/svg" viewBox="0 0 379 373" width="379" height="373">
  <!-- svg-source:excalidraw -->
  
  <defs>
    <style>
      @font-face {
        font-family: "Virgil";
        src: url("https://excalidraw.com/Virgil.woff2");
      }
      @font-face {
        font-family: "Cascadia";
        src: url("https://excalidraw.com/Cascadia.woff2");
      }
    </style>
  </defs>
  <rect x="0" y="0" width="379" height="373" fill="#ffffff"></rect><g transform="translate(166.46053516864708 54.2636372512452) rotate(0 16.5 11)"><text x="0" y="16" font-family="Virgil, Segoe UI Emoji" font-size="16px" fill="#e67700" text-anchor="start" style="white-space: pre;" direction="ltr">दीवार</text></g><g stroke-linecap="round" transform="translate(10 10) rotate(0 179.5 176.5)"><path d="M0 0 C79.69 0, 159.38 0, 359 0 M0 0 C128.84 0, 257.68 0, 359 0 M359 0 C359 115.68, 359 231.35, 359 353 M359 0 C359 124.14, 359 248.29, 359 353 M359 353 C226.42 353, 93.85 353, 0 353 M359 353 C251.54 353, 144.08 353, 0 353 M0 353 C0 281.97, 0 210.93, 0 0 M0 353 C0 218.64, 0 84.28, 0 0" stroke="#000000" stroke-width="1" fill="none"></path></g><g transform="translate(138 26) rotate(0 51 13.5)"><text x="0" y="20" font-family="Virgil, Segoe UI Emoji" font-size="20px" fill="#000000" text-anchor="start" style="white-space: pre;" direction="ltr">कैसे याद रखें</text></g><g transform="translate(23 89.24719101123583) rotate(0 168 62)"><text x="0" y="17.8" font-family="Virgil, Segoe UI Emoji" font-size="18.876404494382022px" fill="#000000" text-anchor="start" style="white-space: pre;" direction="ltr">1. दीवार: दाल-वाओ-रे</text><text x="0" y="42.6" font-family="Virgil, Segoe UI Emoji" font-size="18.876404494382022px" fill="#000000" text-anchor="start" style="white-space: pre;" direction="ltr"></text><text x="0" y="67.4" font-family="Virgil, Segoe UI Emoji" font-size="18.876404494382022px" fill="#000000" text-anchor="start" style="white-space: pre;" direction="ltr">2. दीवार: दूसरे अक्ष्ररों से दूरी बनाए रखतें हैं. </text><text x="0" y="92.2" font-family="Virgil, Segoe UI Emoji" font-size="18.876404494382022px" fill="#000000" text-anchor="start" style="white-space: pre;" direction="ltr">वे तभी जुड़ते हैं जब वे होते हैं </text><text x="0" y="117" font-family="Virgil, Segoe UI Emoji" font-size="18.876404494382022px" fill="#000000" text-anchor="start" style="white-space: pre;" direction="ltr">शब्द के अंत में/</text></g><g transform="translate(17.299624668226556 263.70443397815325) rotate(0 172 21)"><text x="0" y="15" font-family="Virgil, Segoe UI Emoji" font-size="15.695535814227954px" fill="#000000" text-anchor="start" style="white-space: pre;" direction="ltr">नोट: अंत में दाल और रे दिख सकते हैं एक जैसा। </text><text x="0" y="36" font-family="Virgil, Segoe UI Emoji" font-size="15.695535814227954px" fill="#000000" text-anchor="start" style="white-space: pre;" direction="ltr">दाल ऊपर से शुरू होता है, रे शुरू होता है नोक/निचे से।</text></g><g transform="translate(46.867404076787466 324.42557255418797) rotate(0 152 13)"><text x="0" y="19" font-family="Virgil, Segoe UI Emoji" font-size="20px" fill="#000000" text-anchor="start" style="white-space: pre;" direction="ltr">eg: کمر(kamr)  and جاوید(javed)</text></g></svg>