<svg version="1.1" xmlns="http://www.w3.org/2000/svg" viewBox="0 0 386.66666666666674 358.8888888888887" width="386.66666666666674" height="358.8888888888887">
  <!-- svg-source:excalidraw -->
  
  <defs>
    <style>
      @font-face {
        font-family: "Virgil";
        src: url("../Virgil.woff2");;
      }
      
    </style>
  </defs>
  <rect x="0" y="0" width="386.66666666666674" height="358.8888888888887" fill="#ffffff"></rect><g stroke-linecap="round" transform="translate(10 10) rotate(0 183.33333333333337 169.44444444444434)"><path d="M0 0 C0 0, 0 0, 0 0 M0 0 C0 0, 0 0, 0 0 M-0.26 6.4 C1.8 4.02, 3.87 1.64, 4.99 0.36 M-0.26 6.4 C0.99 4.96, 2.24 3.52, 4.99 0.36 M0.13 12.04 C4.02 7.57, 7.91 3.09, 10.63 -0.03 M0.13 12.04 C3.72 7.92, 7.3 3.8, 10.63 -0.03 M-0.13 18.44 C5.05 12.48, 10.22 6.53, 15.62 0.33 M-0.13 18.44 C5.62 11.82, 11.38 5.2, 15.62 0.33 M0.27 24.08 C6.69 16.69, 13.12 9.29, 21.26 -0.07 M0.27 24.08 C6.35 17.08, 12.44 10.08, 21.26 -0.07 M0 30.48 C6.56 22.94, 13.12 15.39, 26.25 0.29 M0 30.48 C10.45 18.46, 20.9 6.44, 26.25 0.29 M-0.26 36.88 C12.29 22.45, 24.83 8.02, 31.89 -0.1 M-0.26 36.88 C9.46 25.7, 19.17 14.53, 31.89 -0.1 M0.14 42.52 C8.08 33.38, 16.03 24.24, 36.88 0.26 M0.14 42.52 C13.66 26.97, 27.18 11.41, 36.88 0.26 M-0.12 48.92 C10.57 36.62, 21.26 24.32, 42.52 -0.14 M-0.12 48.92 C14.4 32.21, 28.93 15.49, 42.52 -0.14 M0.27 54.56 C10.89 42.35, 21.5 30.13, 47.51 0.22 M0.27 54.56 C17.7 34.51, 35.13 14.46, 47.51 0.22 M0.01 60.96 C13.46 45.48, 26.92 30.01, 53.15 -0.17 M0.01 60.96 C12.27 46.85, 24.53 32.75, 53.15 -0.17 M-0.25 67.36 C11.97 53.29, 24.2 39.23, 58.14 0.19 M-0.25 67.36 C20.62 43.34, 41.5 19.33, 58.14 0.19 M0.14 73 C19.26 51.01, 38.38 29.01, 63.78 -0.21 M0.14 73 C16.69 53.97, 33.23 34.94, 63.78 -0.21 M-0.12 79.4 C16.55 60.23, 33.21 41.06, 68.77 0.15 M-0.12 79.4 C24.17 51.46, 48.45 23.52, 68.77 0.15 M0.28 85.04 C17.55 65.17, 34.82 45.3, 74.41 -0.24 M0.28 85.04 C28.34 52.75, 56.41 20.46, 74.41 -0.24 M0.01 91.44 C26.33 61.17, 52.64 30.9, 79.4 0.12 M0.01 91.44 C18.71 69.93, 37.4 48.43, 79.4 0.12 M-0.25 97.84 C19.26 75.4, 38.76 52.96, 85.04 -0.28 M-0.25 97.84 C33.81 58.65, 67.87 19.47, 85.04 -0.28 M0.15 103.48 C20.34 80.25, 40.54 57.01, 90.03 0.08 M0.15 103.48 C31.63 67.26, 63.12 31.04, 90.03 0.08 M-0.11 109.88 C19.33 87.5, 38.78 65.13, 95.67 -0.31 M-0.11 109.88 C37.95 66.09, 76.01 22.3, 95.67 -0.31 M0.28 115.52 C20.95 91.75, 41.61 67.98, 100.66 0.05 M0.28 115.52 C30.74 80.48, 61.2 45.44, 100.66 0.05 M0.02 121.92 C22.23 96.37, 44.43 70.83, 106.3 -0.34 M0.02 121.92 C33.01 83.97, 65.99 46.02, 106.3 -0.34 M-0.24 128.32 C32.84 90.26, 65.92 52.21, 111.29 0.02 M-0.24 128.32 C40.34 81.63, 80.92 34.95, 111.29 0.02 M0.15 133.96 C27.65 102.32, 55.15 70.69, 116.27 0.38 M0.15 133.96 C39.47 88.73, 78.78 43.51, 116.27 0.38 M-0.11 140.36 C31.14 104.41, 62.4 68.45, 121.92 -0.02 M-0.11 140.36 C31.98 103.44, 64.08 66.52, 121.92 -0.02 M0.29 146 C27.46 114.74, 54.63 83.48, 126.91 0.34 M0.29 146 C43.92 95.8, 87.55 45.61, 126.91 0.34 M0.02 152.4 C50.52 94.31, 101.02 36.21, 132.55 -0.05 M0.02 152.4 C52.34 92.21, 104.66 32.03, 132.55 -0.05 M-0.24 158.8 C28.38 125.87, 57.01 92.95, 137.54 0.31 M-0.24 158.8 C34.72 118.58, 69.68 78.37, 137.54 0.31 M0.16 164.44 C43.87 114.16, 87.57 63.88, 143.18 -0.09 M0.16 164.44 C31 128.96, 61.84 93.48, 143.18 -0.09 M-0.1 170.84 C32.39 133.46, 64.88 96.08, 148.17 0.27 M-0.1 170.84 C37.5 127.58, 75.1 84.32, 148.17 0.27 M0.29 176.48 C31.22 140.9, 62.15 105.32, 153.81 -0.12 M0.29 176.48 C37.84 133.29, 75.38 90.09, 153.81 -0.12 M0.03 182.88 C61.83 111.78, 123.63 40.69, 158.8 0.24 M0.03 182.88 C62.65 110.84, 125.28 38.79, 158.8 0.24 M-0.23 189.27 C61.98 117.71, 124.19 46.14, 164.44 -0.16 M-0.23 189.27 C43.08 139.45, 86.38 89.63, 164.44 -0.16 M0.16 194.92 C67.19 117.81, 134.21 40.71, 169.43 0.2 M0.16 194.92 C65.99 119.19, 131.83 43.45, 169.43 0.2 M-0.1 201.32 C49.17 144.63, 98.45 87.95, 175.07 -0.19 M-0.1 201.32 C55.05 137.87, 110.21 74.42, 175.07 -0.19 M0.3 206.96 C46.09 154.27, 91.89 101.59, 180.06 0.17 M0.3 206.96 C38.45 163.06, 76.61 119.17, 180.06 0.17 M0.03 213.36 C55.01 150.11, 109.99 86.87, 185.7 -0.23 M0.03 213.36 C56.96 147.87, 113.88 82.39, 185.7 -0.23 M-0.23 219.75 C60.59 149.79, 121.41 79.83, 190.69 0.13 M-0.23 219.75 C57.46 153.39, 115.14 87.03, 190.69 0.13 M0.17 225.4 C67.64 147.78, 135.11 70.16, 196.33 -0.26 M0.17 225.4 C40.81 178.65, 81.45 131.9, 196.33 -0.26 M-0.09 231.8 C55.85 167.44, 111.79 103.08, 201.32 0.1 M-0.09 231.8 C72.17 148.67, 144.43 65.54, 201.32 0.1 M0.3 237.44 C58.99 169.92, 117.68 102.4, 206.96 -0.3 M0.3 237.44 C51.55 178.48, 102.81 119.51, 206.96 -0.3 M0.04 243.84 C76.39 156, 152.75 68.17, 211.95 0.06 M0.04 243.84 C73.11 159.78, 146.18 75.72, 211.95 0.06 M-0.22 250.23 C67.94 171.83, 136.09 93.42, 217.59 -0.33 M-0.22 250.23 C70.15 169.28, 140.52 88.33, 217.59 -0.33 M0.17 255.88 C73.93 171.03, 147.69 86.18, 222.58 0.03 M0.17 255.88 C63.67 182.83, 127.17 109.78, 222.58 0.03 M-0.09 262.27 C83.22 166.44, 166.53 70.6, 228.22 -0.36 M-0.09 262.27 C88.68 160.16, 177.45 58.04, 228.22 -0.36 M0.3 267.92 C68.94 188.96, 137.57 110.01, 233.21 0 M0.3 267.92 C62.85 195.97, 125.39 124.03, 233.21 0 M0.04 274.32 C74.25 188.95, 148.46 103.58, 238.19 0.36 M0.04 274.32 C62.95 201.95, 125.86 129.58, 238.19 0.36 M-0.22 280.71 C70.52 199.33, 141.27 117.95, 243.84 -0.04 M-0.22 280.71 C59.35 212.19, 118.91 143.67, 243.84 -0.04 M0.18 286.36 C90.25 182.74, 180.31 79.13, 248.82 0.32 M0.18 286.36 C57.5 220.41, 114.82 154.47, 248.82 0.32 M-0.08 292.75 C75.04 206.34, 150.15 119.92, 254.47 -0.07 M-0.08 292.75 C57.14 226.93, 114.36 161.1, 254.47 -0.07 M0.31 298.4 C68.58 219.86, 136.86 141.32, 259.45 0.29 M0.31 298.4 C60.42 229.25, 120.52 160.11, 259.45 0.29 M0.05 304.8 C59.91 235.93, 119.77 167.07, 265.1 -0.11 M0.05 304.8 C75.84 217.61, 151.63 130.42, 265.1 -0.11 M-0.21 311.19 C80.73 218.08, 161.67 124.97, 270.08 0.25 M-0.21 311.19 C74.06 225.75, 148.33 140.31, 270.08 0.25 M0.18 316.84 C92.49 210.64, 184.81 104.45, 275.73 -0.14 M0.18 316.84 C100.82 201.07, 201.45 85.3, 275.73 -0.14 M-0.08 323.23 C81.88 228.94, 163.85 134.66, 280.71 0.22 M-0.08 323.23 C63.94 249.58, 127.97 175.93, 280.71 0.22 M0.31 328.88 C61.25 258.77, 122.19 188.67, 286.36 -0.18 M0.31 328.88 C75.48 242.41, 150.65 155.94, 286.36 -0.18 M0.05 335.27 C116.57 201.24, 233.08 67.21, 291.34 0.18 M0.05 335.27 C65.03 260.52, 130.02 185.77, 291.34 0.18 M1.1 340.16 C115.86 208.15, 230.62 76.13, 296.99 -0.21 M1.1 340.16 C72.51 258.02, 143.92 175.87, 296.99 -0.21 M6.75 339.77 C101.33 230.96, 195.92 122.15, 301.97 0.15 M6.75 339.77 C81.71 253.53, 156.68 167.29, 301.97 0.15 M11.73 340.13 C107.86 229.55, 203.99 118.96, 307.62 -0.25 M11.73 340.13 C78.63 263.17, 145.53 186.21, 307.62 -0.25 M17.38 339.73 C102.19 242.17, 187 144.6, 312.6 0.11 M17.38 339.73 C128.68 211.69, 239.98 83.65, 312.6 0.11 M22.36 340.09 C89.55 262.81, 156.73 185.52, 318.25 -0.28 M22.36 340.09 C82.94 270.41, 143.52 200.72, 318.25 -0.28 M28.01 339.7 C108.41 247.21, 188.81 154.71, 323.23 0.08 M28.01 339.7 C119.9 233.99, 211.79 128.28, 323.23 0.08 M32.99 340.06 C102.47 260.14, 171.95 180.21, 328.88 -0.31 M32.99 340.06 C100.3 262.64, 167.6 185.22, 328.88 -0.31 M38.64 339.66 C152.23 208.99, 265.82 78.32, 333.86 0.05 M38.64 339.66 C108.94 258.79, 179.24 177.92, 333.86 0.05 M43.62 340.02 C110.51 263.08, 177.4 186.13, 339.51 -0.35 M43.62 340.02 C104.86 269.58, 166.1 199.14, 339.51 -0.35 M49.27 339.63 C129.34 247.52, 209.4 155.41, 344.49 0.01 M49.27 339.63 C108.77 271.18, 168.28 202.72, 344.49 0.01 M54.25 339.99 C118.1 266.55, 181.94 193.1, 349.48 0.37 M54.25 339.99 C148.26 231.84, 242.27 123.7, 349.48 0.37 M59.24 340.35 C152.7 232.84, 246.16 125.32, 355.12 -0.02 M59.24 340.35 C150.37 235.52, 241.5 130.68, 355.12 -0.02 M64.88 339.96 C170.67 218.27, 276.45 96.58, 360.11 0.34 M64.88 339.96 C182.85 204.25, 300.82 68.55, 360.11 0.34 M69.87 340.32 C141.01 258.48, 212.15 176.65, 365.75 -0.06 M69.87 340.32 C166.45 229.22, 263.02 118.13, 365.75 -0.06 M75.51 339.92 C176.23 224.06, 276.94 108.21, 369.43 1.81 M75.51 339.92 C178.56 221.39, 281.6 102.85, 369.43 1.81 M80.5 340.28 C168.27 239.31, 256.04 138.35, 369.17 8.21 M80.5 340.28 C163.69 244.58, 246.88 148.89, 369.17 8.21 M86.14 339.89 C198.47 210.67, 310.79 81.46, 368.91 14.61 M86.14 339.89 C180.63 231.2, 275.11 122.5, 368.91 14.61 M91.13 340.25 C175.54 243.15, 259.94 146.05, 369.3 20.25 M91.13 340.25 C171.06 248.31, 250.98 156.36, 369.3 20.25 M96.77 339.85 C175.04 249.82, 253.31 159.78, 369.04 26.65 M96.77 339.85 C199 222.25, 301.23 104.66, 369.04 26.65 M101.76 340.21 C201.53 225.44, 301.31 110.66, 369.43 32.29 M101.76 340.21 C176.78 253.92, 251.79 167.62, 369.43 32.29 M107.4 339.82 C190.19 244.58, 272.98 149.34, 369.17 38.69 M107.4 339.82 C202.23 230.74, 297.05 121.66, 369.17 38.69 M112.39 340.18 C210.81 226.96, 309.22 113.75, 368.91 45.09 M112.39 340.18 C185.73 255.81, 259.07 171.44, 368.91 45.09 M118.03 339.78 C199.47 246.1, 280.91 152.42, 369.31 50.73 M118.03 339.78 C179.51 269.07, 240.98 198.35, 369.31 50.73 M123.02 340.14 C207.99 242.4, 292.96 144.65, 369.04 57.13 M123.02 340.14 C217.93 230.97, 312.83 121.8, 369.04 57.13 M128.66 339.75 C198.22 259.74, 267.77 179.73, 369.44 62.77 M128.66 339.75 C185.34 274.55, 242.02 209.34, 369.44 62.77 M133.65 340.11 C181.83 284.69, 230.01 229.27, 369.18 69.17 M133.65 340.11 C209.9 252.4, 286.14 164.69, 369.18 69.17 M139.3 339.71 C214.15 253.6, 289.01 167.49, 368.92 75.57 M139.3 339.71 C187.45 284.32, 235.6 228.93, 368.92 75.57 M144.28 340.07 C199.5 276.55, 254.72 213.03, 369.31 81.21 M144.28 340.07 C213.2 260.8, 282.11 181.52, 369.31 81.21 M149.93 339.68 C213.13 266.97, 276.33 194.26, 369.05 87.61 M149.93 339.68 C216.81 262.74, 283.69 185.81, 369.05 87.61 M154.91 340.04 C217.03 268.58, 279.14 197.13, 369.44 93.25 M154.91 340.04 C198.31 290.11, 241.72 240.18, 369.44 93.25 M160.56 339.65 C237.04 251.66, 313.53 163.67, 369.18 99.65 M160.56 339.65 C227.77 262.33, 294.98 185.01, 369.18 99.65 M165.54 340.01 C225.78 270.7, 286.03 201.4, 368.92 106.05 M165.54 340.01 C235.37 259.68, 305.19 179.36, 368.92 106.05 M171.19 339.61 C228.34 273.87, 285.49 208.12, 369.32 111.69 M171.19 339.61 C235.23 265.94, 299.27 192.27, 369.32 111.69 M176.17 339.97 C246.01 259.63, 315.84 179.3, 369.05 118.09 M176.17 339.97 C238.52 268.25, 300.87 196.52, 369.05 118.09 M181.16 340.33 C241.29 271.15, 301.43 201.98, 369.45 123.73 M181.16 340.33 C225.15 289.73, 269.14 239.12, 369.45 123.73 M186.8 339.94 C245.4 272.53, 304 205.12, 369.19 130.13 M186.8 339.94 C259.49 256.32, 332.17 172.71, 369.19 130.13 M191.79 340.3 C238.26 286.84, 284.72 233.39, 368.93 136.53 M191.79 340.3 C234.48 291.18, 277.18 242.07, 368.93 136.53 M197.43 339.9 C256.83 271.57, 316.23 203.24, 369.32 142.17 M197.43 339.9 C246.95 282.94, 296.47 225.97, 369.32 142.17 M202.42 340.26 C245.37 290.86, 288.31 241.46, 369.06 148.57 M202.42 340.26 C268.35 264.42, 334.27 188.58, 369.06 148.57 M208.06 339.87 C263.59 275.99, 319.12 212.11, 369.45 154.21 M208.06 339.87 C268.33 270.54, 328.59 201.21, 369.45 154.21 M213.05 340.23 C272.93 271.34, 332.81 202.46, 369.19 160.61 M213.05 340.23 C245.86 302.48, 278.67 264.74, 369.19 160.61 M218.69 339.83 C273.3 277.01, 327.91 214.2, 368.93 167 M218.69 339.83 C263.53 288.26, 308.36 236.68, 368.93 167 M223.68 340.19 C260.83 297.46, 297.98 254.72, 369.32 172.65 M223.68 340.19 C261.51 296.67, 299.34 253.15, 369.32 172.65 M229.32 339.8 C283.54 277.43, 337.75 215.06, 369.06 179.05 M229.32 339.8 C280.96 280.39, 332.61 220.98, 369.06 179.05 M234.31 340.16 C264.77 305.11, 295.24 270.07, 369.46 184.69 M234.31 340.16 C285.96 280.75, 337.6 221.33, 369.46 184.69 M239.95 339.76 C283.8 289.33, 327.64 238.89, 369.2 191.09 M239.95 339.76 C285.93 286.87, 331.91 233.97, 369.2 191.09 M244.94 340.12 C292.67 285.22, 340.39 230.32, 368.93 197.48 M244.94 340.12 C279.35 300.54, 313.77 260.95, 368.93 197.48 M250.58 339.73 C283.41 301.97, 316.24 264.2, 369.33 203.13 M250.58 339.73 C284.84 300.32, 319.1 260.91, 369.33 203.13 M255.57 340.09 C296.6 292.89, 337.63 245.69, 369.07 209.52 M255.57 340.09 C290.6 299.8, 325.62 259.5, 369.07 209.52 M261.21 339.7 C304.11 290.35, 347.01 241, 369.46 215.17 M261.21 339.7 C289.54 307.1, 317.87 274.51, 369.46 215.17 M266.2 340.06 C299.22 302.06, 332.25 264.07, 369.2 221.57 M266.2 340.06 C297.16 304.44, 328.12 268.83, 369.2 221.57 M271.84 339.66 C294.46 313.64, 317.08 287.63, 368.94 227.96 M271.84 339.66 C294.35 313.76, 316.87 287.87, 368.94 227.96 M276.83 340.02 C310.61 301.16, 344.4 262.3, 369.33 233.61 M276.83 340.02 C308.38 303.72, 339.94 267.42, 369.33 233.61 M282.47 339.63 C304.82 313.92, 327.17 288.21, 369.07 240 M282.47 339.63 C301.34 317.93, 320.2 296.23, 369.07 240 M287.46 339.99 C314.77 308.57, 342.08 277.16, 368.81 246.4 M287.46 339.99 C318.41 304.39, 349.35 268.79, 368.81 246.4 M292.45 340.35 C314 315.55, 335.56 290.75, 369.21 252.05 M292.45 340.35 C315.56 313.76, 338.67 287.17, 369.21 252.05 M298.09 339.95 C312.97 322.84, 327.84 305.72, 368.94 258.44 M298.09 339.95 C314.47 321.11, 330.85 302.27, 368.94 258.44 M303.08 340.31 C319.51 321.41, 335.94 302.51, 369.34 264.09 M303.08 340.31 C318.03 323.11, 332.98 305.91, 369.34 264.09 M308.72 339.92 C327.04 318.84, 345.36 297.77, 369.08 270.48 M308.72 339.92 C330.97 314.32, 353.21 288.73, 369.08 270.48 M313.71 340.28 C327.13 324.83, 340.56 309.38, 368.82 276.88 M313.71 340.28 C335.63 315.05, 357.56 289.83, 368.82 276.88 M319.35 339.88 C332.77 324.44, 346.2 309, 369.21 282.52 M319.35 339.88 C335.82 320.93, 352.3 301.98, 369.21 282.52 M324.34 340.24 C337.25 325.38, 350.17 310.53, 368.95 288.92 M324.34 340.24 C337.13 325.53, 349.92 310.81, 368.95 288.92 M329.98 339.85 C341.69 326.38, 353.4 312.9, 369.34 294.57 M329.98 339.85 C342.45 325.51, 354.91 311.17, 369.34 294.57 M334.97 340.21 C346.73 326.68, 358.49 313.15, 369.08 300.96 M334.97 340.21 C342.6 331.43, 350.23 322.65, 369.08 300.96 M340.61 339.81 C349.54 329.55, 358.46 319.28, 368.82 307.36 M340.61 339.81 C351.62 327.15, 362.63 314.48, 368.82 307.36 M345.6 340.17 C352.83 331.86, 360.06 323.54, 369.22 313 M345.6 340.17 C350.39 334.67, 355.17 329.16, 369.22 313 M351.24 339.78 C358.17 331.81, 365.1 323.84, 368.95 319.4 M351.24 339.78 C356.14 334.15, 361.03 328.52, 368.95 319.4 M356.23 340.14 C358.95 337.01, 361.68 333.87, 369.35 325.05 M356.23 340.14 C359.9 335.91, 363.58 331.68, 369.35 325.05 M361.87 339.74 C364.22 337.05, 366.56 334.35, 369.09 331.44 M361.87 339.74 C364.49 336.74, 367.1 333.73, 369.09 331.44" stroke="#fff" stroke-width="0.5" fill="none"></path><path d="M0 0 C87.48 0, 174.95 0, 366.67 0 M0 0 C142.13 0, 284.26 0, 366.67 0 M366.67 0 C366.67 112.83, 366.67 225.65, 366.67 338.89 M366.67 0 C366.67 97.62, 366.67 195.24, 366.67 338.89 M366.67 338.89 C248.96 338.89, 131.24 338.89, 0 338.89 M366.67 338.89 C257.92 338.89, 149.17 338.89, 0 338.89 M0 338.89 C0 229.37, 0 119.85, 0 0 M0 338.89 C0 254.84, 0 170.78, 0 0" stroke="#000000" stroke-width="1" fill="none"></path></g><g transform="translate(78.88888888888891 89.66666666666788) rotate(0 110.5 13.5)"><text x="0" y="20" font-family="Virgil, Segoe UI Emoji" font-size="20px" fill="#000000" text-anchor="start" style="white-space: pre;" direction="ltr"> अल्टी लाठी जैसा दिखता है</text></g><g transform="translate(51.2862373987835 272.1282566002883) rotate(0 150 33)"><text x="0" y="16" font-family="Virgil, Segoe UI Emoji" font-size="16.846351301796858px" fill="#e67700" text-anchor="start" style="white-space: pre;" direction="ltr">सावधान रहें: भेद करना सीखें</text><text x="0" y="38" font-family="Virgil, Segoe UI Emoji" font-size="16.846351301796858px" fill="#e67700" text-anchor="start" style="white-space: pre;" direction="ltr">अलिफ़ (वह आमतौर पर अकेला खड़ा होता है)</text><text x="0" y="60" font-family="Virgil, Segoe UI Emoji" font-size="16.846351301796858px" fill="#e67700" text-anchor="start" style="white-space: pre;" direction="ltr">लाम  (वह अक्षरों से जुड़ता है)</text></g><g transform="translate(92.63540744781511 152.49405712551197) rotate(0 103.5 13.5)"><text x="0" y="20" font-family="Helvetica, Segoe UI Emoji" font-size="20px" fill="#000000" text-anchor="start" style="white-space: pre;" direction="ltr">मोमबती की बूंद (जो उल्टी है)</text></g><g transform="translate(143.08197331428585 30.482977787552954) rotate(0 51 13.5)"><text x="51" y="20" font-family="Virgil, Segoe UI Emoji" font-size="20px" fill="#000000" text-anchor="middle" style="white-space: pre;" direction="ltr">कैसे याद रखें</text></g><g transform="translate(169.88797799746453 59.72102700324467) rotate(0 6.5 10.5)"><text x="0" y="15" font-family="Virgil, Segoe UI Emoji" font-size="16px" fill="#e67700" text-anchor="end" style="white-space: pre;" direction="rtl">ل</text></g><g transform="translate(170.88797799746453 114.1654714476881) rotate(0 5.5 10.5)"><text x="0" y="15" font-family="Virgil, Segoe UI Emoji" font-size="16px" fill="#e67700" text-anchor="end" style="white-space: pre;" direction="rtl">م</text></g></svg>