<svg version="1.1" xmlns="http://www.w3.org/2000/svg" viewBox="0 0 379 373" width="379" height="373">
  <!-- svg-source:excalidraw -->
  
  <defs>
    <style>
      @font-face {
        font-family: "Virgil";
        src: url("../Virgil.woff2");;
      }
      
    </style>
  </defs>
  <rect x="0" y="0" width="379" height="373" fill="#ffffff"></rect><g stroke-linecap="round" transform="translate(10 10) rotate(0 179.5 176.5)"><path d="M0 0 C73.35 0, 146.7 0, 359 0 M0 0 C90.51 0, 181.02 0, 359 0 M359 0 C359 110.09, 359 220.17, 359 353 M359 0 C359 127.9, 359 255.8, 359 353 M359 353 C251.63 353, 144.25 353, 0 353 M359 353 C265.85 353, 172.71 353, 0 353 M0 353 C0 212.39, 0 71.79, 0 0 M0 353 C0 257.56, 0 162.12, 0 0" stroke="#000000" stroke-width="1" fill="none"></path></g><g transform="translate(107 36) rotate(0 81.49999999999999 12.5)"><text x="0" y="18" font-family="Virgil, Segoe UI Emoji" font-size="20px" fill="#000000" text-anchor="start" style="white-space: pre;" direction="ltr">How to remember</text></g><g transform="translate(74.49999999999999 132) rotate(0 104.5 62.5)"><text x="104.5" y="18" font-family="Virgil, Segoe UI Emoji" font-size="20px" fill="#000000" text-anchor="middle" style="white-space: pre;" direction="ltr">   KaGa means crow,</text><text x="104.5" y="43" font-family="Virgil, Segoe UI Emoji" font-size="20px" fill="#000000" text-anchor="middle" style="white-space: pre;" direction="ltr">the kaaf and gaaf,</text><text x="104.5" y="68" font-family="Virgil, Segoe UI Emoji" font-size="20px" fill="#000000" text-anchor="middle" style="white-space: pre;" direction="ltr">do look like birds</text><text x="104.5" y="93" font-family="Virgil, Segoe UI Emoji" font-size="20px" fill="#000000" text-anchor="middle" style="white-space: pre;" direction="ltr"></text><text x="104.5" y="118" font-family="Virgil, Segoe UI Emoji" font-size="20px" fill="#000000" text-anchor="middle" style="white-space: pre;" direction="ltr"></text></g><g transform="translate(88.46923865212261 65.45355527922902) rotate(0 90.99999999999999 10)"><text x="0" y="14" font-family="Virgil, Segoe UI Emoji" font-size="16px" fill="#e67700" text-anchor="start" style="white-space: pre;" direction="ltr">KaGa: looks like a bird</text></g></svg>