<svg version="1.1" xmlns="http://www.w3.org/2000/svg" viewBox="0 0 390 376.6666666666665" width="390" height="376.6666666666665">
  <!-- svg-source:excalidraw -->
  
  <defs>
    <style>
      @font-face {
        font-family: "Virgil";
        src: url("../Virgil.woff2");;
      }
      
    </style>
  </defs>
  <rect x="0" y="0" width="390" height="376.6666666666665" fill="#ffffff"></rect><g stroke-linecap="round" transform="translate(10 10) rotate(0 185 178.33333333333326)"><path d="M0 0 C0 0, 0 0, 0 0 M0 0 C0 0, 0 0, 0 0 M-0.26 6.4 C1.32 4.58, 2.9 2.76, 4.99 0.36 M-0.26 6.4 C1.13 4.8, 2.52 3.2, 4.99 0.36 M0.13 12.04 C4.03 7.56, 7.93 3.07, 10.63 -0.03 M0.13 12.04 C2.77 9.01, 5.4 5.99, 10.63 -0.03 M-0.13 18.44 C5.66 11.78, 11.45 5.11, 15.62 0.33 M-0.13 18.44 C4.91 12.64, 9.96 6.84, 15.62 0.33 M0.27 24.08 C5.19 18.42, 10.11 12.75, 21.26 -0.07 M0.27 24.08 C6.19 17.27, 12.1 10.46, 21.26 -0.07 M0 30.48 C6.28 23.26, 12.55 16.04, 26.25 0.29 M0 30.48 C10.17 18.79, 20.33 7.1, 26.25 0.29 M-0.26 36.88 C12.31 22.42, 24.88 7.96, 31.89 -0.1 M-0.26 36.88 C6.52 29.08, 13.3 21.28, 31.89 -0.1 M0.14 42.52 C9.71 31.51, 19.28 20.5, 36.88 0.26 M0.14 42.52 C12.37 28.45, 24.6 14.39, 36.88 0.26 M-0.12 48.92 C16.83 29.42, 33.77 9.92, 42.52 -0.14 M-0.12 48.92 C9.22 38.17, 18.56 27.43, 42.52 -0.14 M0.27 54.56 C16.8 35.55, 33.32 16.54, 47.51 0.22 M0.27 54.56 C14.57 38.11, 28.88 21.66, 47.51 0.22 M0.01 60.96 C15.03 43.68, 30.05 26.4, 53.15 -0.17 M0.01 60.96 C14.15 44.7, 28.28 28.43, 53.15 -0.17 M-0.25 67.36 C22.91 40.72, 46.06 14.08, 58.14 0.19 M-0.25 67.36 C18.47 45.82, 37.19 24.28, 58.14 0.19 M0.14 73 C22.23 47.59, 44.31 22.19, 63.78 -0.21 M0.14 73 C18.57 51.8, 37 30.59, 63.78 -0.21 M-0.12 79.4 C17.95 58.61, 36.03 37.82, 68.77 0.15 M-0.12 79.4 C19.74 56.55, 39.6 33.71, 68.77 0.15 M0.28 85.04 C27.19 54.08, 54.11 23.11, 74.41 -0.24 M0.28 85.04 C15.52 67.5, 30.77 49.96, 74.41 -0.24 M0.01 91.44 C30.21 56.7, 60.41 21.96, 79.4 0.12 M0.01 91.44 C30.63 56.22, 61.24 21.01, 79.4 0.12 M-0.25 97.84 C31.74 61.04, 63.73 24.24, 85.04 -0.28 M-0.25 97.84 C26.04 67.6, 52.32 37.37, 85.04 -0.28 M0.15 103.48 C32.15 66.67, 64.14 29.86, 90.03 0.08 M0.15 103.48 C24.48 75.49, 48.81 47.5, 90.03 0.08 M-0.11 109.88 C28.54 76.91, 57.2 43.95, 95.67 -0.31 M-0.11 109.88 C25.67 80.21, 51.46 50.55, 95.67 -0.31 M0.28 115.52 C37.04 73.23, 73.8 30.94, 100.66 0.05 M0.28 115.52 C28.35 83.22, 56.43 50.93, 100.66 0.05 M0.02 121.92 C34.39 82.38, 68.76 42.84, 106.3 -0.34 M0.02 121.92 C36.06 80.46, 72.1 39, 106.3 -0.34 M-0.24 128.32 C39.91 82.12, 80.07 35.93, 111.29 0.02 M-0.24 128.32 C25.07 99.2, 50.37 70.09, 111.29 0.02 M0.15 133.96 C35.88 92.86, 71.6 51.77, 116.27 0.38 M0.15 133.96 C40.35 87.72, 80.55 41.47, 116.27 0.38 M-0.11 140.36 C31.41 104.09, 62.93 67.83, 121.92 -0.02 M-0.11 140.36 C24.88 111.61, 49.88 82.86, 121.92 -0.02 M0.29 146 C48.87 90.11, 97.46 34.21, 126.91 0.34 M0.29 146 C37.88 102.75, 75.47 59.5, 126.91 0.34 M0.02 152.4 C46.91 98.46, 93.79 44.53, 132.55 -0.05 M0.02 152.4 C50.9 93.87, 101.78 35.34, 132.55 -0.05 M-0.24 158.8 C48.72 102.48, 97.67 46.17, 137.54 0.31 M-0.24 158.8 C51.56 99.21, 103.35 39.63, 137.54 0.31 M0.16 164.44 C44.64 113.27, 89.12 62.1, 143.18 -0.09 M0.16 164.44 C30.61 129.4, 61.07 94.37, 143.18 -0.09 M-0.1 170.84 C44.07 120.02, 88.25 69.2, 148.17 0.27 M-0.1 170.84 C51.2 111.82, 102.51 52.8, 148.17 0.27 M0.29 176.48 C56.55 111.76, 112.82 47.03, 153.81 -0.12 M0.29 176.48 C33.86 137.86, 67.43 99.24, 153.81 -0.12 M0.03 182.88 C57.03 117.31, 114.03 51.74, 158.8 0.24 M0.03 182.88 C55.28 119.32, 110.53 55.76, 158.8 0.24 M-0.23 189.27 C53.88 127.03, 107.99 64.78, 164.44 -0.16 M-0.23 189.27 C33.7 150.24, 67.63 111.21, 164.44 -0.16 M0.16 194.92 C60.73 125.25, 121.29 55.58, 169.43 0.2 M0.16 194.92 C51.09 136.33, 102.03 77.74, 169.43 0.2 M-0.1 201.32 C66.03 125.25, 132.15 49.17, 175.07 -0.19 M-0.1 201.32 C45.11 149.3, 90.33 97.29, 175.07 -0.19 M0.3 206.96 C69.59 127.24, 138.89 47.52, 180.06 0.17 M0.3 206.96 C54.55 144.55, 108.81 82.13, 180.06 0.17 M0.03 213.36 C49.3 156.68, 98.57 100.01, 185.7 -0.23 M0.03 213.36 C62.43 141.58, 124.82 69.8, 185.7 -0.23 M-0.23 219.75 C38.93 174.71, 78.09 129.66, 190.69 0.13 M-0.23 219.75 C42.92 170.12, 86.07 120.49, 190.69 0.13 M0.17 225.4 C62.17 154.07, 124.18 82.73, 196.33 -0.26 M0.17 225.4 C54.93 162.39, 109.7 99.39, 196.33 -0.26 M-0.09 231.8 C50.58 173.5, 101.25 115.21, 201.32 0.1 M-0.09 231.8 C65.73 156.07, 131.56 80.35, 201.32 0.1 M0.3 237.44 C46.92 183.8, 93.55 130.17, 206.96 -0.3 M0.3 237.44 C42.65 188.72, 85.01 139.99, 206.96 -0.3 M0.04 243.84 C49.13 187.36, 98.23 130.88, 211.95 0.06 M0.04 243.84 C50 186.36, 99.96 128.89, 211.95 0.06 M-0.22 250.23 C56.75 184.69, 113.73 119.15, 217.59 -0.33 M-0.22 250.23 C67.05 172.84, 134.33 95.45, 217.59 -0.33 M0.17 255.88 C72.25 172.97, 144.32 90.06, 222.58 0.03 M0.17 255.88 C80.79 163.14, 161.4 70.4, 222.58 0.03 M-0.09 262.27 C60.1 193.03, 120.29 123.79, 228.22 -0.36 M-0.09 262.27 C60.33 192.77, 120.76 123.26, 228.22 -0.36 M0.3 267.92 C88.64 166.3, 176.97 64.68, 233.21 0 M0.3 267.92 C68.93 188.97, 137.56 110.02, 233.21 0 M0.04 274.32 C57.97 207.68, 115.9 141.04, 238.19 0.36 M0.04 274.32 C53.41 212.92, 106.78 151.53, 238.19 0.36 M-0.22 280.71 C77.81 190.95, 155.85 101.18, 243.84 -0.04 M-0.22 280.71 C96.97 168.91, 194.16 57.11, 243.84 -0.04 M0.18 286.36 C95.59 176.59, 191.01 66.83, 248.82 0.32 M0.18 286.36 C54.17 224.25, 108.16 162.14, 248.82 0.32 M-0.08 292.75 C86.39 193.28, 172.87 93.8, 254.47 -0.07 M-0.08 292.75 C55.19 229.17, 110.46 165.59, 254.47 -0.07 M0.31 298.4 C62.6 226.74, 124.89 155.08, 259.45 0.29 M0.31 298.4 C91.48 193.51, 182.66 88.63, 259.45 0.29 M0.05 304.8 C80.99 211.68, 161.93 118.57, 265.1 -0.11 M0.05 304.8 C72.54 221.4, 145.04 138, 265.1 -0.11 M-0.21 311.19 C91.75 205.4, 183.71 99.62, 270.08 0.25 M-0.21 311.19 C57.73 244.54, 115.67 177.89, 270.08 0.25 M0.18 316.84 C97.94 204.38, 195.7 91.91, 275.73 -0.14 M0.18 316.84 C73.93 232, 147.67 147.17, 275.73 -0.14 M-0.08 323.23 C107.26 199.75, 214.6 76.27, 280.71 0.22 M-0.08 323.23 C75.46 236.34, 151 149.44, 280.71 0.22 M0.31 328.88 C85.51 230.87, 170.7 132.87, 286.36 -0.18 M0.31 328.88 C79.79 237.46, 159.26 146.03, 286.36 -0.18 M0.05 335.27 C69.2 255.73, 138.34 176.19, 291.34 0.18 M0.05 335.27 C75.28 248.74, 150.51 162.2, 291.34 0.18 M-0.21 341.67 C64.07 267.72, 128.36 193.78, 296.99 -0.21 M-0.21 341.67 C106.96 218.38, 214.14 95.1, 296.99 -0.21 M0.19 347.32 C105.28 226.42, 210.38 105.52, 301.97 0.15 M0.19 347.32 C61.33 276.97, 122.48 206.63, 301.97 0.15 M-0.08 353.71 C81.11 260.32, 162.29 166.93, 307.62 -0.25 M-0.08 353.71 C107.8 229.61, 215.68 105.52, 307.62 -0.25 M1.63 357.85 C104.09 239.98, 206.56 122.11, 312.6 0.11 M1.63 357.85 C64.07 286.02, 126.51 214.19, 312.6 0.11 M6.62 358.21 C89.52 262.84, 172.42 167.47, 318.25 -0.28 M6.62 358.21 C87.81 264.81, 169 171.41, 318.25 -0.28 M12.26 357.81 C126.57 226.32, 240.88 94.82, 323.23 0.08 M12.26 357.81 C83.65 275.69, 155.05 193.56, 323.23 0.08 M17.25 358.17 C117.05 243.37, 216.85 128.56, 328.88 -0.31 M17.25 358.17 C104.91 257.34, 192.56 156.5, 328.88 -0.31 M22.89 357.78 C91.58 278.76, 160.26 199.75, 333.86 0.05 M22.89 357.78 C129.84 234.75, 236.79 111.72, 333.86 0.05 M27.88 358.14 C151.22 216.25, 274.56 74.36, 339.51 -0.35 M27.88 358.14 C146.87 221.25, 265.87 84.36, 339.51 -0.35 M33.52 357.74 C101.81 279.19, 170.09 200.64, 344.49 0.01 M33.52 357.74 C119.62 258.7, 205.71 159.67, 344.49 0.01 M38.51 358.1 C142.32 238.68, 246.13 119.26, 349.48 0.37 M38.51 358.1 C134.7 247.44, 230.9 136.79, 349.48 0.37 M44.15 357.71 C126.81 262.62, 209.48 167.52, 355.12 -0.02 M44.15 357.71 C118.65 272, 193.16 186.3, 355.12 -0.02 M49.14 358.07 C126.07 269.57, 202.99 181.08, 360.11 0.34 M49.14 358.07 C170.11 218.91, 291.07 79.75, 360.11 0.34 M54.78 357.67 C127.41 274.13, 200.04 190.58, 365.75 -0.06 M54.78 357.67 C154.73 242.7, 254.67 127.73, 365.75 -0.06 M59.77 358.03 C159.71 243.07, 259.64 128.11, 370.74 0.3 M59.77 358.03 C160.59 242.06, 261.41 126.08, 370.74 0.3 M65.41 357.64 C177.87 228.28, 290.32 98.91, 370.48 6.7 M65.41 357.64 C153.8 255.96, 242.19 154.28, 370.48 6.7 M70.4 358 C134.27 284.52, 198.15 211.04, 370.87 12.34 M70.4 358 C189.52 220.97, 308.64 83.93, 370.87 12.34 M76.04 357.61 C161.1 259.75, 246.17 161.9, 370.61 18.74 M76.04 357.61 C190.97 225.39, 305.9 93.18, 370.61 18.74 M81.03 357.97 C153.27 274.86, 225.51 191.76, 370.35 25.14 M81.03 357.97 C157.8 269.65, 234.57 181.34, 370.35 25.14 M86.02 358.33 C195.23 232.69, 304.45 107.05, 370.75 30.78 M86.02 358.33 C184.63 244.88, 283.25 131.44, 370.75 30.78 M91.66 357.93 C156.68 283.13, 221.71 208.33, 370.48 37.18 M91.66 357.93 C194.45 239.69, 297.23 121.44, 370.48 37.18 M96.65 358.29 C155.48 290.61, 214.31 222.93, 370.88 42.82 M96.65 358.29 C195.4 244.69, 294.15 131.09, 370.88 42.82 M102.29 357.9 C165.5 285.18, 228.7 212.47, 370.62 49.22 M102.29 357.9 C188.75 258.44, 275.21 158.98, 370.62 49.22 M107.28 358.26 C190.14 262.93, 273.01 167.6, 370.36 55.62 M107.28 358.26 C189.19 264.03, 271.1 169.8, 370.36 55.62 M112.92 357.86 C164.75 298.23, 216.59 238.61, 370.75 61.26 M112.92 357.86 C195.44 262.94, 277.95 168.01, 370.75 61.26 M117.91 358.22 C216.45 244.86, 315 131.49, 370.49 67.66 M117.91 358.22 C208.37 254.15, 298.84 150.08, 370.49 67.66 M123.55 357.83 C209.08 259.44, 294.61 161.05, 370.88 73.3 M123.55 357.83 C206.22 262.72, 288.9 167.62, 370.88 73.3 M128.54 358.19 C205.31 269.87, 282.09 181.54, 370.62 79.7 M128.54 358.19 C210.05 264.41, 291.57 170.64, 370.62 79.7 M134.18 357.79 C218.71 260.56, 303.23 163.32, 370.36 86.1 M134.18 357.79 C208.6 272.18, 283.02 186.57, 370.36 86.1 M139.17 358.15 C219.05 266.26, 298.93 174.37, 370.76 91.74 M139.17 358.15 C222.84 261.89, 306.52 165.63, 370.76 91.74 M144.81 357.76 C234.45 254.64, 324.09 151.52, 370.49 98.14 M144.81 357.76 C233.04 256.26, 321.27 154.77, 370.49 98.14 M149.8 358.12 C214.88 283.25, 279.96 208.39, 370.89 103.78 M149.8 358.12 C199.41 301.05, 249.02 243.97, 370.89 103.78 M155.44 357.72 C219.04 284.56, 282.63 211.41, 370.63 110.18 M155.44 357.72 C213.17 291.32, 270.89 224.91, 370.63 110.18 M160.43 358.08 C235.62 271.59, 310.8 185.09, 370.37 116.58 M160.43 358.08 C243.67 262.33, 326.91 166.57, 370.37 116.58 M166.07 357.69 C239.05 273.73, 312.04 189.77, 370.76 122.22 M166.07 357.69 C213.5 303.13, 260.92 248.57, 370.76 122.22 M171.06 358.05 C231.07 289.01, 291.08 219.98, 370.5 128.62 M171.06 358.05 C216.2 306.12, 261.34 254.2, 370.5 128.62 M176.7 357.65 C245.79 278.17, 314.89 198.69, 370.89 134.26 M176.7 357.65 C243.5 280.81, 310.3 203.96, 370.89 134.26 M181.69 358.02 C230.64 301.7, 279.6 245.38, 370.63 140.66 M181.69 358.02 C246.06 283.97, 310.43 209.92, 370.63 140.66 M187.33 357.62 C249.69 285.89, 312.04 214.16, 370.37 147.06 M187.33 357.62 C232.36 305.82, 277.39 254.02, 370.37 147.06 M192.32 357.98 C253.18 287.96, 314.05 217.94, 370.77 152.7 M192.32 357.98 C235.94 307.79, 279.57 257.61, 370.77 152.7 M197.3 358.34 C237.22 312.42, 277.13 266.51, 370.5 159.1 M197.3 358.34 C259.09 287.26, 320.88 216.19, 370.5 159.1 M202.95 357.95 C241.09 314.07, 279.23 270.19, 370.9 164.74 M202.95 357.95 C256.82 295.97, 310.7 233.99, 370.9 164.74 M207.93 358.31 C243.13 317.82, 278.33 277.33, 370.64 171.14 M207.93 358.31 C252.4 307.15, 296.87 256, 370.64 171.14 M213.58 357.91 C271.47 291.31, 329.36 224.72, 370.38 177.54 M213.58 357.91 C249.76 316.28, 285.95 274.65, 370.38 177.54 M218.56 358.27 C273.56 295.01, 328.55 231.75, 370.77 183.18 M218.56 358.27 C275.02 293.32, 331.48 228.37, 370.77 183.18 M224.21 357.88 C281.47 292, 338.74 226.12, 370.51 189.58 M224.21 357.88 C270.12 305.07, 316.02 252.25, 370.51 189.58 M229.19 358.24 C257.45 325.73, 285.71 293.23, 370.25 195.97 M229.19 358.24 C257.83 325.29, 286.47 292.35, 370.25 195.97 M234.84 357.84 C274.16 312.6, 313.49 267.37, 370.64 201.62 M234.84 357.84 C287.42 297.35, 340.01 236.85, 370.64 201.62 M239.82 358.2 C284.23 307.11, 328.65 256.03, 370.38 208.02 M239.82 358.2 C279.13 312.99, 318.44 267.77, 370.38 208.02 M245.47 357.81 C274.46 324.45, 303.46 291.1, 370.77 213.66 M245.47 357.81 C288.9 307.84, 332.34 257.87, 370.77 213.66 M250.45 358.17 C281.61 322.33, 312.76 286.49, 370.51 220.06 M250.45 358.17 C295.44 306.42, 340.42 254.68, 370.51 220.06 M256.1 357.77 C296.79 310.96, 337.48 264.15, 370.25 226.45 M256.1 357.77 C297.85 309.75, 339.6 261.72, 370.25 226.45 M261.08 358.13 C294.92 319.21, 328.75 280.29, 370.65 232.1 M261.08 358.13 C295.22 318.86, 329.36 279.59, 370.65 232.1 M266.73 357.74 C305.73 312.87, 344.73 268, 370.39 238.5 M266.73 357.74 C297.44 322.41, 328.15 287.08, 370.39 238.5 M271.71 358.1 C302.48 322.71, 333.25 287.31, 370.78 244.14 M271.71 358.1 C309.13 315.06, 346.54 272.02, 370.78 244.14 M277.36 357.7 C312.22 317.61, 347.07 277.51, 370.52 250.54 M277.36 357.7 C302.35 328.95, 327.34 300.2, 370.52 250.54 M282.34 358.06 C313.91 321.75, 345.47 285.44, 370.26 256.93 M282.34 358.06 C301.41 336.13, 320.48 314.19, 370.26 256.93 M287.99 357.67 C304.97 338.14, 321.94 318.61, 370.65 262.58 M287.99 357.67 C311.94 330.12, 335.88 302.57, 370.65 262.58 M292.97 358.03 C310.04 338.4, 327.1 318.78, 370.39 268.97 M292.97 358.03 C312.44 335.64, 331.91 313.25, 370.39 268.97 M298.62 357.64 C320.05 332.98, 341.49 308.32, 370.78 274.62 M298.62 357.64 C316.43 337.15, 334.24 316.66, 370.78 274.62 M303.61 358 C325.87 332.39, 348.13 306.78, 370.52 281.02 M303.61 358 C322.44 336.32, 341.28 314.65, 370.52 281.02 M308.59 358.36 C323.89 340.76, 339.18 323.17, 370.26 287.41 M308.59 358.36 C327.33 336.8, 346.06 315.25, 370.26 287.41 M314.24 357.96 C325.84 344.61, 337.45 331.25, 370.66 293.06 M314.24 357.96 C330.34 339.43, 346.45 320.9, 370.66 293.06 M319.22 358.32 C330.95 344.83, 342.69 331.33, 370.39 299.45 M319.22 358.32 C334.74 340.47, 350.26 322.62, 370.39 299.45 M324.87 357.93 C335.04 346.23, 345.21 334.53, 370.79 305.1 M324.87 357.93 C334.96 346.31, 345.06 334.7, 370.79 305.1 M329.85 358.29 C345.45 340.34, 361.05 322.4, 370.53 311.49 M329.85 358.29 C344.72 341.18, 359.59 324.07, 370.53 311.49 M335.5 357.89 C343.61 348.55, 351.73 339.22, 370.27 317.89 M335.5 357.89 C343.12 349.12, 350.74 340.35, 370.27 317.89 M340.48 358.25 C347.28 350.43, 354.08 342.61, 370.66 323.54 M340.48 358.25 C349.22 348.2, 357.96 338.15, 370.66 323.54 M346.13 357.86 C355.04 347.6, 363.95 337.35, 370.4 329.93 M346.13 357.86 C355.75 346.79, 365.37 335.72, 370.4 329.93 M351.11 358.22 C355.86 352.76, 360.6 347.3, 370.79 335.58 M351.11 358.22 C358.04 350.25, 364.97 342.28, 370.79 335.58 M356.76 357.82 C359.79 354.33, 362.82 350.84, 370.53 341.97 M356.76 357.82 C360.09 353.99, 363.43 350.15, 370.53 341.97 M361.74 358.18 C364.21 355.35, 366.68 352.51, 370.27 348.37 M361.74 358.18 C364.37 355.16, 366.99 352.14, 370.27 348.37 M367.39 357.79 C368.24 356.8, 369.1 355.81, 370.67 354.02 M367.39 357.79 C368.13 356.94, 368.87 356.09, 370.67 354.02" stroke="#fff" stroke-width="0.5" fill="none"></path><path d="M0 0 C93.07 0, 186.14 0, 370 0 M0 0 C74.17 0, 148.34 0, 370 0 M370 0 C370 91.25, 370 182.5, 370 356.67 M370 0 C370 109.84, 370 219.68, 370 356.67 M370 356.67 C274.93 356.67, 179.85 356.67, 0 356.67 M370 356.67 C278.91 356.67, 187.82 356.67, 0 356.67 M0 356.67 C0 262.42, 0 168.18, 0 0 M0 356.67 C0 274.32, 0 191.98, 0 0" stroke="#000000" stroke-width="1" fill="none"></path></g><g transform="translate(130.49739771419104 26.569105068846056) rotate(0 67 12.5)"><text x="0" y="18" font-family="Virgil, Segoe UI Emoji" font-size="20px" fill="#000000" text-anchor="start" style="white-space: pre;" direction="ltr">The H sounds</text></g><g transform="translate(31.83073104752441 60.4579939577352) rotate(0 168 126.5)"><text x="0" y="16" font-family="Virgil, Segoe UI Emoji" font-size="17.955555555555563px" fill="#000000" text-anchor="start" style="white-space: pre;" direction="ltr">1. do chasmi he</text><text x="0" y="39" font-family="Virgil, Segoe UI Emoji" font-size="17.955555555555563px" fill="#000000" text-anchor="start" style="white-space: pre;" direction="ltr"> </text><text x="0" y="62" font-family="Virgil, Segoe UI Emoji" font-size="17.955555555555563px" fill="#000000" text-anchor="start" style="white-space: pre;" direction="ltr">2. mix them with the letters </text><text x="0" y="85" font-family="Virgil, Segoe UI Emoji" font-size="17.955555555555563px" fill="#000000" text-anchor="start" style="white-space: pre;" direction="ltr">you already learned, imagine </text><text x="0" y="108" font-family="Virgil, Segoe UI Emoji" font-size="17.955555555555563px" fill="#000000" text-anchor="start" style="white-space: pre;" direction="ltr">putting on glasses on these letter. </text><text x="0" y="131" font-family="Virgil, Segoe UI Emoji" font-size="17.955555555555563px" fill="#000000" text-anchor="start" style="white-space: pre;" direction="ltr">They change their sounds</text><text x="0" y="154" font-family="Virgil, Segoe UI Emoji" font-size="17.955555555555563px" fill="#000000" text-anchor="start" style="white-space: pre;" direction="ltr"></text><text x="0" y="177" font-family="Virgil, Segoe UI Emoji" font-size="17.955555555555563px" fill="#000000" text-anchor="start" style="white-space: pre;" direction="ltr">3. Imagine letters got their swag on </text><text x="0" y="200" font-family="Virgil, Segoe UI Emoji" font-size="17.955555555555563px" fill="#000000" text-anchor="start" style="white-space: pre;" direction="ltr">with the glasses, </text><text x="0" y="223" font-family="Virgil, Segoe UI Emoji" font-size="17.955555555555563px" fill="#000000" text-anchor="start" style="white-space: pre;" direction="ltr">so they be spelled differently with</text><text x="0" y="246" font-family="Virgil, Segoe UI Emoji" font-size="17.955555555555563px" fill="#000000" text-anchor="start" style="white-space: pre;" direction="ltr">more air </text></g><g transform="translate(82.2057635519244 318.14758316666985) rotate(0 112 19)"><text x="112" y="13" font-family="Virgil, Segoe UI Emoji" font-size="14.912985274431067px" fill="#000000" text-anchor="middle" style="white-space: pre;" direction="ltr">Note:there are more H sounds,</text><text x="112" y="32" font-family="Virgil, Segoe UI Emoji" font-size="14.912985274431067px" fill="#000000" text-anchor="middle" style="white-space: pre;" direction="ltr">we'll learn them later</text></g></svg>