<svg version="1.1" xmlns="http://www.w3.org/2000/svg" viewBox="0 0 386.66666666666674 358.8888888888887" width="386.66666666666674" height="358.8888888888887">
  <!-- svg-source:excalidraw -->
  
  <defs>
    <style>
      @font-face {
        font-family: "Virgil";
        src: url("../Virgil.woff2");;
      }
      
    </style>
  </defs>
  <rect x="0" y="0" width="386.66666666666674" height="358.8888888888887" fill="#ffffff"></rect><g stroke-linecap="round" transform="translate(10 10) rotate(0 183.33333333333337 169.44444444444434)"><path d="M0 0 C0 0, 0 0, 0 0 M0 0 C0 0, 0 0, 0 0 M-0.26 6.4 C1.6 4.26, 3.46 2.11, 4.99 0.36 M-0.26 6.4 C1.16 4.76, 2.58 3.13, 4.99 0.36 M0.13 12.04 C3.49 8.18, 6.85 4.31, 10.63 -0.03 M0.13 12.04 C2.58 9.23, 5.02 6.41, 10.63 -0.03 M-0.13 18.44 C4.59 13.01, 9.31 7.59, 15.62 0.33 M-0.13 18.44 C5.8 11.61, 11.74 4.79, 15.62 0.33 M0.27 24.08 C5.39 18.18, 10.52 12.29, 21.26 -0.07 M0.27 24.08 C8.01 15.17, 15.76 6.26, 21.26 -0.07 M0 30.48 C5.6 24.04, 11.2 17.6, 26.25 0.29 M0 30.48 C9.99 18.99, 19.98 7.5, 26.25 0.29 M-0.26 36.88 C10.99 23.94, 22.23 11.01, 31.89 -0.1 M-0.26 36.88 C9.74 25.38, 19.74 13.88, 31.89 -0.1 M0.14 42.52 C9.51 31.74, 18.89 20.95, 36.88 0.26 M0.14 42.52 C7.99 33.49, 15.84 24.45, 36.88 0.26 M-0.12 48.92 C15.43 31.03, 30.98 13.14, 42.52 -0.14 M-0.12 48.92 C13.58 33.15, 27.28 17.39, 42.52 -0.14 M0.27 54.56 C15.48 37.07, 30.68 19.58, 47.51 0.22 M0.27 54.56 C13.03 39.88, 25.79 25.2, 47.51 0.22 M0.01 60.96 C18.83 39.31, 37.66 17.65, 53.15 -0.17 M0.01 60.96 C17.3 41.06, 34.6 21.17, 53.15 -0.17 M-0.25 67.36 C14.2 50.73, 28.66 34.1, 58.14 0.19 M-0.25 67.36 C11.8 53.5, 23.84 39.64, 58.14 0.19 M0.14 73 C20.6 49.47, 41.05 25.94, 63.78 -0.21 M0.14 73 C19.93 50.24, 39.71 27.48, 63.78 -0.21 M-0.12 79.4 C13.93 63.24, 27.97 47.08, 68.77 0.15 M-0.12 79.4 C23.38 52.36, 46.88 25.33, 68.77 0.15 M0.28 85.04 C15.6 67.41, 30.93 49.78, 74.41 -0.24 M0.28 85.04 C24.59 57.07, 48.9 29.1, 74.41 -0.24 M0.01 91.44 C23.84 64.03, 47.66 36.62, 79.4 0.12 M0.01 91.44 C20.35 68.05, 40.68 44.66, 79.4 0.12 M-0.25 97.84 C24.32 69.58, 48.88 41.32, 85.04 -0.28 M-0.25 97.84 C24.43 69.45, 49.1 41.07, 85.04 -0.28 M0.15 103.48 C34.56 63.89, 68.97 24.31, 90.03 0.08 M0.15 103.48 C35.66 62.62, 71.18 21.77, 90.03 0.08 M-0.11 109.88 C36.36 67.92, 72.82 25.97, 95.67 -0.31 M-0.11 109.88 C35.34 69.1, 70.79 28.31, 95.67 -0.31 M0.28 115.52 C24 88.23, 47.72 60.95, 100.66 0.05 M0.28 115.52 C26.85 84.96, 53.41 54.4, 100.66 0.05 M0.02 121.92 C25.3 92.84, 50.57 63.76, 106.3 -0.34 M0.02 121.92 C22.14 96.48, 44.25 71.03, 106.3 -0.34 M-0.24 128.32 C42.38 79.29, 85 30.25, 111.29 0.02 M-0.24 128.32 C25.82 98.34, 51.87 68.36, 111.29 0.02 M0.15 133.96 C40.76 87.24, 81.37 40.52, 116.27 0.38 M0.15 133.96 C35.39 93.42, 70.62 52.89, 116.27 0.38 M-0.11 140.36 C34.01 101.11, 68.12 61.87, 121.92 -0.02 M-0.11 140.36 C40.59 93.54, 81.29 46.72, 121.92 -0.02 M0.29 146 C43.88 95.84, 87.48 45.69, 126.91 0.34 M0.29 146 C27.99 114.12, 55.7 82.25, 126.91 0.34 M0.02 152.4 C43.13 102.81, 86.23 53.23, 132.55 -0.05 M0.02 152.4 C34.25 113.03, 68.47 73.66, 132.55 -0.05 M-0.24 158.8 C53.09 97.44, 106.43 36.09, 137.54 0.31 M-0.24 158.8 C52.05 98.65, 104.33 38.5, 137.54 0.31 M0.16 164.44 C36.39 122.76, 72.62 81.08, 143.18 -0.09 M0.16 164.44 C52.25 104.51, 104.35 44.58, 143.18 -0.09 M-0.1 170.84 C56.38 105.86, 112.86 40.88, 148.17 0.27 M-0.1 170.84 C40.39 124.26, 80.88 77.67, 148.17 0.27 M0.29 176.48 C51.8 117.22, 103.31 57.96, 153.81 -0.12 M0.29 176.48 C41.82 128.71, 83.34 80.94, 153.81 -0.12 M0.03 182.88 C58.19 115.97, 116.34 49.07, 158.8 0.24 M0.03 182.88 C39.7 137.24, 79.36 91.61, 158.8 0.24 M-0.23 189.27 C62.51 117.09, 125.26 44.91, 164.44 -0.16 M-0.23 189.27 C42.32 140.32, 84.88 91.37, 164.44 -0.16 M0.16 194.92 C54.52 132.39, 108.87 69.87, 169.43 0.2 M0.16 194.92 C54.74 132.13, 109.32 69.35, 169.43 0.2 M-0.1 201.32 C58.85 133.51, 117.79 65.7, 175.07 -0.19 M-0.1 201.32 C47.54 146.51, 95.19 91.7, 175.07 -0.19 M0.3 206.96 C65.15 132.35, 130.01 57.74, 180.06 0.17 M0.3 206.96 C66.1 131.26, 131.9 55.56, 180.06 0.17 M0.03 213.36 C53.16 152.24, 106.28 91.13, 185.7 -0.23 M0.03 213.36 C59 145.52, 117.97 77.69, 185.7 -0.23 M-0.23 219.75 C64.35 145.46, 128.93 71.17, 190.69 0.13 M-0.23 219.75 C60.56 149.82, 121.35 79.89, 190.69 0.13 M0.17 225.4 C49.52 168.63, 98.87 111.86, 196.33 -0.26 M0.17 225.4 C52 165.77, 103.84 106.14, 196.33 -0.26 M-0.09 231.8 C49.05 175.26, 98.19 118.73, 201.32 0.1 M-0.09 231.8 C76.38 143.82, 152.86 55.84, 201.32 0.1 M0.3 237.44 C81.32 144.24, 162.34 51.04, 206.96 -0.3 M0.3 237.44 C50.59 179.59, 100.88 121.73, 206.96 -0.3 M0.04 243.84 C43.66 193.65, 87.28 143.47, 211.95 0.06 M0.04 243.84 C45.09 192.01, 90.15 140.18, 211.95 0.06 M-0.22 250.23 C44.25 199.07, 88.72 147.91, 217.59 -0.33 M-0.22 250.23 C53.98 187.88, 108.19 125.52, 217.59 -0.33 M0.17 255.88 C64.52 181.85, 128.87 107.83, 222.58 0.03 M0.17 255.88 C76.31 168.29, 152.45 80.71, 222.58 0.03 M-0.09 262.27 C73.47 177.65, 147.03 93.03, 228.22 -0.36 M-0.09 262.27 C76.9 173.71, 153.89 85.14, 228.22 -0.36 M0.3 267.92 C69.55 188.26, 138.79 108.61, 233.21 0 M0.3 267.92 C83.35 172.38, 166.4 76.85, 233.21 0 M0.04 274.32 C75.72 187.26, 151.39 100.21, 238.19 0.36 M0.04 274.32 C54.19 212.02, 108.34 149.73, 238.19 0.36 M-0.22 280.71 C90.14 176.77, 180.5 72.82, 243.84 -0.04 M-0.22 280.71 C74.34 194.94, 148.91 109.17, 243.84 -0.04 M0.18 286.36 C74.78 200.53, 149.39 114.71, 248.82 0.32 M0.18 286.36 C74.96 200.32, 149.75 114.29, 248.82 0.32 M-0.08 292.75 C98.19 179.7, 196.46 66.66, 254.47 -0.07 M-0.08 292.75 C76.75 204.36, 153.59 115.97, 254.47 -0.07 M0.31 298.4 C82.13 204.27, 163.96 110.14, 259.45 0.29 M0.31 298.4 C52.49 238.37, 104.68 178.34, 259.45 0.29 M0.05 304.8 C95.52 194.97, 190.98 85.15, 265.1 -0.11 M0.05 304.8 C85.08 206.98, 170.11 109.17, 265.1 -0.11 M-0.21 311.19 C94.13 202.66, 188.47 94.13, 270.08 0.25 M-0.21 311.19 C63.47 237.94, 127.15 164.68, 270.08 0.25 M0.18 316.84 C67.84 239, 135.5 161.17, 275.73 -0.14 M0.18 316.84 C55.3 253.43, 110.42 190.02, 275.73 -0.14 M-0.08 323.23 C90.22 219.36, 180.52 115.48, 280.71 0.22 M-0.08 323.23 C104.49 202.95, 209.05 82.66, 280.71 0.22 M0.31 328.88 C95.45 219.44, 190.58 110, 286.36 -0.18 M0.31 328.88 C68.9 249.98, 137.48 171.08, 286.36 -0.18 M0.05 335.27 C85.28 237.23, 170.51 139.19, 291.34 0.18 M0.05 335.27 C70.9 253.77, 141.75 172.27, 291.34 0.18 M1.1 340.16 C74.84 255.33, 148.58 170.51, 296.99 -0.21 M1.1 340.16 C61.07 271.18, 121.04 202.19, 296.99 -0.21 M6.75 339.77 C83.13 251.9, 159.51 164.04, 301.97 0.15 M6.75 339.77 C107.72 223.61, 208.69 107.46, 301.97 0.15 M11.73 340.13 C118.51 217.29, 225.29 94.46, 307.62 -0.25 M11.73 340.13 C104.63 233.26, 197.53 126.39, 307.62 -0.25 M17.38 339.73 C121.93 219.46, 226.48 99.18, 312.6 0.11 M17.38 339.73 C83.87 263.24, 150.36 186.75, 312.6 0.11 M22.36 340.09 C131.99 213.98, 241.62 87.87, 318.25 -0.28 M22.36 340.09 C99.69 251.14, 177.01 162.19, 318.25 -0.28 M28.01 339.7 C101.98 254.6, 175.95 169.51, 323.23 0.08 M28.01 339.7 C120.06 233.81, 212.11 127.92, 323.23 0.08 M32.99 340.06 C127.24 231.65, 221.48 123.23, 328.88 -0.31 M32.99 340.06 C149.86 205.62, 266.72 71.18, 328.88 -0.31 M38.64 339.66 C144.08 218.37, 249.52 97.08, 333.86 0.05 M38.64 339.66 C122.24 243.5, 205.83 147.33, 333.86 0.05 M43.62 340.02 C156.9 209.72, 270.18 79.41, 339.51 -0.35 M43.62 340.02 C140.55 228.53, 237.47 117.03, 339.51 -0.35 M49.27 339.63 C114.39 264.72, 179.51 189.81, 344.49 0.01 M49.27 339.63 C132.9 243.42, 216.54 147.21, 344.49 0.01 M54.25 339.99 C136.6 245.27, 218.94 150.54, 349.48 0.37 M54.25 339.99 C152.96 226.44, 251.66 112.9, 349.48 0.37 M59.24 340.35 C155.41 229.72, 251.58 119.09, 355.12 -0.02 M59.24 340.35 C153.51 231.9, 247.79 123.45, 355.12 -0.02 M64.88 339.96 C141.54 251.77, 218.21 163.58, 360.11 0.34 M64.88 339.96 C169.09 220.09, 273.29 100.22, 360.11 0.34 M69.87 340.32 C156.32 240.86, 242.78 141.41, 365.75 -0.06 M69.87 340.32 C146.23 252.47, 222.59 164.63, 365.75 -0.06 M75.51 339.92 C168.25 233.24, 260.99 126.56, 369.43 1.81 M75.51 339.92 C188.27 210.22, 301.02 80.51, 369.43 1.81 M80.5 340.28 C161.68 246.89, 242.86 153.51, 369.17 8.21 M80.5 340.28 C147.8 262.87, 215.09 185.45, 369.17 8.21 M86.14 339.89 C192.02 218.1, 297.89 96.3, 368.91 14.61 M86.14 339.89 C167.87 245.87, 249.6 151.85, 368.91 14.61 M91.13 340.25 C199.29 215.82, 307.45 91.4, 369.3 20.25 M91.13 340.25 C157.25 264.18, 223.38 188.12, 369.3 20.25 M96.77 339.85 C178.94 245.33, 261.1 150.81, 369.04 26.65 M96.77 339.85 C204.15 216.33, 311.53 92.8, 369.04 26.65 M101.76 340.21 C168.46 263.48, 235.16 186.76, 369.43 32.29 M101.76 340.21 C189.63 239.13, 277.5 138.05, 369.43 32.29 M107.4 339.82 C186.08 249.32, 264.75 158.82, 369.17 38.69 M107.4 339.82 C182.63 253.28, 257.86 166.74, 369.17 38.69 M112.39 340.18 C172.4 271.14, 232.42 202.1, 368.91 45.09 M112.39 340.18 C169.79 274.15, 227.18 208.13, 368.91 45.09 M118.03 339.78 C196.21 249.85, 274.39 159.92, 369.31 50.73 M118.03 339.78 C172.87 276.71, 227.7 213.63, 369.31 50.73 M123.02 340.14 C185.1 268.73, 247.18 197.32, 369.04 57.13 M123.02 340.14 C198.2 253.66, 273.39 167.17, 369.04 57.13 M128.66 339.75 C179.58 281.18, 230.49 222.61, 369.44 62.77 M128.66 339.75 C200.79 256.77, 272.92 173.8, 369.44 62.77 M133.65 340.11 C216.32 245.01, 298.98 149.92, 369.18 69.17 M133.65 340.11 C184.94 281.11, 236.23 222.11, 369.18 69.17 M139.3 339.71 C189.12 282.4, 238.94 225.08, 368.92 75.57 M139.3 339.71 C209.71 258.71, 280.12 177.71, 368.92 75.57 M144.28 340.07 C214.96 258.76, 285.65 177.45, 369.31 81.21 M144.28 340.07 C204.29 271.04, 264.3 202.01, 369.31 81.21 M149.93 339.68 C211.41 268.94, 272.9 198.21, 369.05 87.61 M149.93 339.68 C210.66 269.82, 271.39 199.96, 369.05 87.61 M154.91 340.04 C211.41 275.04, 267.91 210.05, 369.44 93.25 M154.91 340.04 C202.39 285.43, 249.86 230.81, 369.44 93.25 M160.56 339.65 C221.64 269.37, 282.73 199.1, 369.18 99.65 M160.56 339.65 C225.49 264.94, 290.43 190.24, 369.18 99.65 M165.54 340.01 C218 279.66, 270.46 219.31, 368.92 106.05 M165.54 340.01 C229.21 266.76, 292.89 193.51, 368.92 106.05 M171.19 339.61 C226.95 275.46, 282.71 211.31, 369.32 111.69 M171.19 339.61 C244.83 254.9, 318.47 170.18, 369.32 111.69 M176.17 339.97 C232.98 274.62, 289.79 209.27, 369.05 118.09 M176.17 339.97 C221.68 287.62, 267.19 235.27, 369.05 118.09 M181.16 340.33 C221.08 294.41, 261 248.49, 369.45 123.73 M181.16 340.33 C234.56 278.9, 287.96 217.47, 369.45 123.73 M186.8 339.94 C242.85 275.46, 298.9 210.99, 369.19 130.13 M186.8 339.94 C249.97 267.27, 313.14 194.6, 369.19 130.13 M191.79 340.3 C260.41 261.35, 329.04 182.41, 368.93 136.53 M191.79 340.3 C251.08 272.09, 310.38 203.88, 368.93 136.53 M197.43 339.9 C260.67 267.15, 323.92 194.4, 369.32 142.17 M197.43 339.9 C242.68 287.85, 287.93 235.8, 369.32 142.17 M202.42 340.26 C243.76 292.71, 285.09 245.16, 369.06 148.57 M202.42 340.26 C248.29 287.5, 294.16 234.73, 369.06 148.57 M208.06 339.87 C254.15 286.84, 300.25 233.82, 369.45 154.21 M208.06 339.87 C251.33 290.1, 294.59 240.33, 369.45 154.21 M213.05 340.23 C271.12 273.43, 329.19 206.62, 369.19 160.61 M213.05 340.23 C262.68 283.13, 312.31 226.04, 369.19 160.61 M218.69 339.83 C249.79 304.06, 280.89 268.29, 368.93 167 M218.69 339.83 C264.48 287.16, 310.27 234.49, 368.93 167 M223.68 340.19 C263.64 294.22, 303.6 248.25, 369.32 172.65 M223.68 340.19 C272.87 283.6, 322.07 227.01, 369.32 172.65 M229.32 339.8 C259.54 305.03, 289.77 270.27, 369.06 179.05 M229.32 339.8 C282.39 278.75, 335.46 217.7, 369.06 179.05 M234.31 340.16 C262.47 307.76, 290.64 275.36, 369.46 184.69 M234.31 340.16 C271.16 297.77, 308 255.38, 369.46 184.69 M239.95 339.76 C283.27 289.94, 326.58 240.11, 369.2 191.09 M239.95 339.76 C286.75 285.93, 333.54 232.1, 369.2 191.09 M244.94 340.12 C290.12 288.15, 335.31 236.17, 368.93 197.48 M244.94 340.12 C284.95 294.1, 324.96 248.07, 368.93 197.48 M250.58 339.73 C288.91 295.64, 327.24 251.55, 369.33 203.13 M250.58 339.73 C296.07 287.4, 341.56 235.08, 369.33 203.13 M255.57 340.09 C286.25 304.8, 316.93 269.5, 369.07 209.52 M255.57 340.09 C295.36 294.31, 335.16 248.53, 369.07 209.52 M261.21 339.7 C291.07 305.35, 320.93 271, 369.46 215.17 M261.21 339.7 C286.84 310.22, 312.46 280.74, 369.46 215.17 M266.2 340.06 C306.53 293.66, 346.87 247.26, 369.2 221.57 M266.2 340.06 C295.21 306.69, 324.21 273.32, 369.2 221.57 M271.84 339.66 C294.03 314.14, 316.22 288.61, 368.94 227.96 M271.84 339.66 C308.69 297.28, 345.53 254.89, 368.94 227.96 M276.83 340.02 C307.46 304.79, 338.09 269.55, 369.33 233.61 M276.83 340.02 C304.89 307.74, 332.95 275.46, 369.33 233.61 M282.47 339.63 C313 304.51, 343.52 269.4, 369.07 240 M282.47 339.63 C311.07 306.72, 339.68 273.82, 369.07 240 M287.46 339.99 C306.12 318.52, 324.77 297.06, 368.81 246.4 M287.46 339.99 C309.11 315.09, 330.75 290.19, 368.81 246.4 M292.45 340.35 C319.85 308.83, 347.24 277.31, 369.21 252.05 M292.45 340.35 C313.22 316.45, 333.98 292.56, 369.21 252.05 M298.09 339.95 C323.9 310.27, 349.7 280.58, 368.94 258.44 M298.09 339.95 C318.1 316.93, 338.11 293.91, 368.94 258.44 M303.08 340.31 C322.2 318.32, 341.32 296.32, 369.34 264.09 M303.08 340.31 C319.27 321.69, 335.45 303.07, 369.34 264.09 M308.72 339.92 C329.91 315.54, 351.11 291.16, 369.08 270.48 M308.72 339.92 C328.5 317.17, 348.27 294.42, 369.08 270.48 M313.71 340.28 C331.98 319.26, 350.25 298.24, 368.82 276.88 M313.71 340.28 C333.43 317.59, 353.16 294.9, 368.82 276.88 M319.35 339.88 C336.45 320.21, 353.56 300.53, 369.21 282.52 M319.35 339.88 C331.29 326.15, 343.22 312.42, 369.21 282.52 M324.34 340.24 C333.59 329.59, 342.85 318.95, 368.95 288.92 M324.34 340.24 C341.31 320.72, 358.28 301.2, 368.95 288.92 M329.98 339.85 C339.05 329.42, 348.12 318.99, 369.34 294.57 M329.98 339.85 C342.49 325.45, 355.01 311.06, 369.34 294.57 M334.97 340.21 C347.78 325.47, 360.6 310.72, 369.08 300.96 M334.97 340.21 C346.67 326.74, 358.38 313.28, 369.08 300.96 M340.61 339.81 C347.41 331.99, 354.21 324.17, 368.82 307.36 M340.61 339.81 C349.8 329.24, 358.99 318.67, 368.82 307.36 M345.6 340.17 C351.09 333.85, 356.59 327.53, 369.22 313 M345.6 340.17 C353.63 330.94, 361.66 321.7, 369.22 313 M351.24 339.78 C357.27 332.84, 363.3 325.9, 368.95 319.4 M351.24 339.78 C356.35 333.9, 361.46 328.03, 368.95 319.4 M356.23 340.14 C360.33 335.42, 364.44 330.7, 369.35 325.05 M356.23 340.14 C360.53 335.19, 364.83 330.25, 369.35 325.05 M361.87 339.74 C363.54 337.82, 365.21 335.9, 369.09 331.44 M361.87 339.74 C363.99 337.31, 366.1 334.88, 369.09 331.44" stroke="#fff" stroke-width="0.5" fill="none"></path><path d="M0 0 C80.2 0, 160.41 0, 366.67 0 M0 0 C135.67 0, 271.34 0, 366.67 0 M366.67 0 C366.67 75.53, 366.67 151.05, 366.67 338.89 M366.67 0 C366.67 115.01, 366.67 230.01, 366.67 338.89 M366.67 338.89 C223.13 338.89, 79.6 338.89, 0 338.89 M366.67 338.89 C278.71 338.89, 190.75 338.89, 0 338.89 M0 338.89 C0 217.81, 0 96.73, 0 0 M0 338.89 C0 205.42, 0 71.95, 0 0" stroke="#000000" stroke-width="1" fill="none"></path></g><g transform="translate(28.888888888888914 89.66666666666788) rotate(0 164 31.5)"><text x="0" y="15" font-family="Virgil, Segoe UI Emoji" font-size="15.46274813096159px" fill="#000000" text-anchor="start" style="white-space: pre;" direction="ltr">2. हम्ज़ा इस्तेमाल होता बताने के लिए शब्दों को पढ़ने </text><text x="0" y="36" font-family="Virgil, Segoe UI Emoji" font-size="15.46274813096159px" fill="#000000" text-anchor="start" style="white-space: pre;" direction="ltr">की जरूरत है अलग से। स्वर और व्यंजन अलग-अलग </text><text x="0" y="57" font-family="Virgil, Segoe UI Emoji" font-size="15.46274813096159px" fill="#000000" text-anchor="start" style="white-space: pre;" direction="ltr">पढ़े जाते है </text></g><g transform="translate(95.08197331428596 30.482977787552954) rotate(0 83 13)"><text x="83" y="19" font-family="Virgil, Segoe UI Emoji" font-size="20px" fill="#000000" text-anchor="middle" style="white-space: pre;" direction="ltr">Humza(ء) Part 2</text></g><g transform="translate(80.72222222222229 171.55555555555839) rotate(0 106.5 13)"><text x="106.5" y="19" font-family="Virgil, Segoe UI Emoji" font-size="20px" fill="#000000" text-anchor="middle" style="white-space: pre;" direction="ltr">(gi) گی vs گئ (ga-ee)</text></g><g transform="translate(72.00000000000011 206) rotate(0 106 13)"><text x="106" y="19" font-family="Virgil, Segoe UI Emoji" font-size="20px" fill="#000000" text-anchor="middle" style="white-space: pre;" direction="ltr">(ki) کی vs کئ (ka-ee)</text></g><g transform="translate(60.0555555555556 61.33333333333212) rotate(0 125.5 11)"><text x="125.5" y="16" font-family="Virgil, Segoe UI Emoji" font-size="16px" fill="#d9480f" text-anchor="middle" style="white-space: pre;" direction="ltr">नोट: केवल स्वर पर प्रयोग किया जाता है</text></g><g transform="translate(58.94444444444446 303.55555555555475) rotate(0 129.5 11)"><text x="129.5" y="16" font-family="Virgil, Segoe UI Emoji" font-size="16px" fill="#d9480f" text-anchor="middle" style="white-space: pre;" direction="ltr">नोट: हमजा की अपनी कोई आवाज नहीं है</text></g></svg>