<svg version="1.1" xmlns="http://www.w3.org/2000/svg" viewBox="0 0 386.66666666666674 358.8888888888887" width="386.66666666666674" height="358.8888888888887">
  <!-- svg-source:excalidraw -->
  
  <defs>
    <style>
      @font-face {
        font-family: "Virgil";
        src: url("../Virgil.woff2");;
      }
      
    </style>
  </defs>
  <rect x="0" y="0" width="386.66666666666674" height="358.8888888888887" fill="#ffffff"></rect><g stroke-linecap="round" transform="translate(10 10) rotate(0 183.33333333333337 169.44444444444434)"><path d="M0 0 C0 0, 0 0, 0 0 M0 0 C0 0, 0 0, 0 0 M-0.26 6.4 C1.34 4.56, 2.93 2.72, 4.99 0.36 M-0.26 6.4 C0.86 5.11, 1.97 3.83, 4.99 0.36 M0.13 12.04 C2.45 9.38, 4.76 6.71, 10.63 -0.03 M0.13 12.04 C2.51 9.31, 4.88 6.58, 10.63 -0.03 M-0.13 18.44 C4.39 13.24, 8.91 8.04, 15.62 0.33 M-0.13 18.44 C3.27 14.53, 6.67 10.61, 15.62 0.33 M0.27 24.08 C5.22 18.38, 10.17 12.69, 21.26 -0.07 M0.27 24.08 C6.18 17.28, 12.1 10.47, 21.26 -0.07 M0 30.48 C8.32 20.92, 16.63 11.36, 26.25 0.29 M0 30.48 C7.11 22.3, 14.22 14.13, 26.25 0.29 M-0.26 36.88 C9.86 25.24, 19.97 13.61, 31.89 -0.1 M-0.26 36.88 C8.13 27.23, 16.51 17.59, 31.89 -0.1 M0.14 42.52 C13.7 26.92, 27.25 11.33, 36.88 0.26 M0.14 42.52 C8.96 32.37, 17.79 22.21, 36.88 0.26 M-0.12 48.92 C16.64 29.64, 33.4 10.36, 42.52 -0.14 M-0.12 48.92 C16.51 29.78, 33.14 10.65, 42.52 -0.14 M0.27 54.56 C14.03 38.73, 27.8 22.9, 47.51 0.22 M0.27 54.56 C17.51 34.73, 34.75 14.9, 47.51 0.22 M0.01 60.96 C20.18 37.75, 40.36 14.54, 53.15 -0.17 M0.01 60.96 C19.9 38.07, 39.8 15.19, 53.15 -0.17 M-0.25 67.36 C11.6 53.72, 23.45 40.09, 58.14 0.19 M-0.25 67.36 C15.16 49.62, 30.58 31.89, 58.14 0.19 M0.14 73 C22.71 47.04, 45.28 21.07, 63.78 -0.21 M0.14 73 C25.4 43.95, 50.65 14.9, 63.78 -0.21 M-0.12 79.4 C20.21 56.02, 40.53 32.64, 68.77 0.15 M-0.12 79.4 C22.93 52.89, 45.97 26.38, 68.77 0.15 M0.28 85.04 C27.72 53.47, 55.16 21.9, 74.41 -0.24 M0.28 85.04 C23.9 57.87, 47.52 30.7, 74.41 -0.24 M0.01 91.44 C18.32 70.38, 36.63 49.32, 79.4 0.12 M0.01 91.44 C27.94 59.32, 55.86 27.2, 79.4 0.12 M-0.25 97.84 C21.09 73.29, 42.42 48.75, 85.04 -0.28 M-0.25 97.84 C23.55 70.46, 47.34 43.09, 85.04 -0.28 M0.15 103.48 C31.12 67.85, 62.09 32.22, 90.03 0.08 M0.15 103.48 C24.33 75.66, 48.51 47.84, 90.03 0.08 M-0.11 109.88 C37.28 66.86, 74.68 23.83, 95.67 -0.31 M-0.11 109.88 C28.19 77.32, 56.49 44.77, 95.67 -0.31 M0.28 115.52 C24.75 87.38, 49.21 59.23, 100.66 0.05 M0.28 115.52 C22.15 90.36, 44.03 65.2, 100.66 0.05 M0.02 121.92 C38.15 78.05, 76.28 34.19, 106.3 -0.34 M0.02 121.92 C28.03 89.7, 56.03 57.48, 106.3 -0.34 M-0.24 128.32 C22.82 101.79, 45.88 75.26, 111.29 0.02 M-0.24 128.32 C34.11 88.8, 68.45 49.29, 111.29 0.02 M0.15 133.96 C34.38 94.59, 68.6 55.22, 116.27 0.38 M0.15 133.96 C41.59 86.29, 83.03 38.61, 116.27 0.38 M-0.11 140.36 C46.77 86.43, 93.65 32.5, 121.92 -0.02 M-0.11 140.36 C27.59 108.5, 55.28 76.64, 121.92 -0.02 M0.29 146 C39.51 100.87, 78.74 55.75, 126.91 0.34 M0.29 146 C29.07 112.89, 57.85 79.78, 126.91 0.34 M0.02 152.4 C52.82 91.66, 105.61 30.93, 132.55 -0.05 M0.02 152.4 C31.93 115.7, 63.83 79, 132.55 -0.05 M-0.24 158.8 C39.35 113.25, 78.94 67.71, 137.54 0.31 M-0.24 158.8 C27.98 126.33, 56.2 93.87, 137.54 0.31 M0.16 164.44 C49.31 107.89, 98.46 51.35, 143.18 -0.09 M0.16 164.44 C56.41 99.73, 112.66 35.02, 143.18 -0.09 M-0.1 170.84 C41.79 122.64, 83.69 74.44, 148.17 0.27 M-0.1 170.84 C43.99 120.11, 88.08 69.39, 148.17 0.27 M0.29 176.48 C59.58 108.27, 118.88 40.06, 153.81 -0.12 M0.29 176.48 C47.39 122.3, 94.49 68.11, 153.81 -0.12 M0.03 182.88 C51.24 123.96, 102.46 65.04, 158.8 0.24 M0.03 182.88 C62.14 111.42, 124.26 39.97, 158.8 0.24 M-0.23 189.27 C59.72 120.31, 119.67 51.34, 164.44 -0.16 M-0.23 189.27 C62.58 117.01, 125.4 44.75, 164.44 -0.16 M0.16 194.92 C35.09 154.74, 70.02 114.56, 169.43 0.2 M0.16 194.92 C42.59 146.11, 85.02 97.3, 169.43 0.2 M-0.1 201.32 C67.71 123.31, 135.52 45.3, 175.07 -0.19 M-0.1 201.32 C69.2 121.59, 138.51 41.87, 175.07 -0.19 M0.3 206.96 C55.08 143.94, 109.86 80.92, 180.06 0.17 M0.3 206.96 C57.48 141.18, 114.66 75.4, 180.06 0.17 M0.03 213.36 C44.06 162.71, 88.09 112.05, 185.7 -0.23 M0.03 213.36 C56.82 148.03, 113.6 82.71, 185.7 -0.23 M-0.23 219.75 C68.59 140.59, 137.41 61.42, 190.69 0.13 M-0.23 219.75 C59.74 150.77, 119.7 81.79, 190.69 0.13 M0.17 225.4 C72.32 142.39, 144.48 59.39, 196.33 -0.26 M0.17 225.4 C48.56 169.73, 96.95 114.06, 196.33 -0.26 M-0.09 231.8 C57.94 165.04, 115.97 98.28, 201.32 0.1 M-0.09 231.8 C47.71 176.8, 95.51 121.81, 201.32 0.1 M0.3 237.44 C63.27 165, 126.24 92.56, 206.96 -0.3 M0.3 237.44 C68.69 158.77, 137.07 80.1, 206.96 -0.3 M0.04 243.84 C79.33 152.62, 158.63 61.4, 211.95 0.06 M0.04 243.84 C77.31 154.95, 154.58 66.06, 211.95 0.06 M-0.22 250.23 C53.18 188.8, 106.58 127.37, 217.59 -0.33 M-0.22 250.23 C54.1 187.75, 108.42 125.26, 217.59 -0.33 M0.17 255.88 C61.78 185, 123.39 114.13, 222.58 0.03 M0.17 255.88 C55.98 191.68, 111.78 127.48, 222.58 0.03 M-0.09 262.27 C58.94 194.37, 117.96 126.47, 228.22 -0.36 M-0.09 262.27 C61.81 191.07, 123.71 119.86, 228.22 -0.36 M0.3 267.92 C53.13 207.15, 105.96 146.37, 233.21 0 M0.3 267.92 C76.99 179.71, 153.67 91.49, 233.21 0 M0.04 274.32 C68.14 195.98, 136.24 117.64, 238.19 0.36 M0.04 274.32 C57.96 207.69, 115.89 141.05, 238.19 0.36 M-0.22 280.71 C54.87 217.34, 109.96 153.97, 243.84 -0.04 M-0.22 280.71 C75.63 193.46, 151.48 106.2, 243.84 -0.04 M0.18 286.36 C84.83 188.98, 169.48 91.6, 248.82 0.32 M0.18 286.36 C97.38 174.54, 194.58 62.72, 248.82 0.32 M-0.08 292.75 C62.96 220.23, 126.01 147.7, 254.47 -0.07 M-0.08 292.75 C97.89 180.05, 195.86 67.35, 254.47 -0.07 M0.31 298.4 C79.85 206.89, 159.39 115.39, 259.45 0.29 M0.31 298.4 C82.61 203.72, 164.92 109.04, 259.45 0.29 M0.05 304.8 C63.27 232.07, 126.49 159.34, 265.1 -0.11 M0.05 304.8 C58.07 238.05, 116.09 171.3, 265.1 -0.11 M-0.21 311.19 C92.29 204.78, 184.79 98.37, 270.08 0.25 M-0.21 311.19 C55.13 247.52, 110.48 183.85, 270.08 0.25 M0.18 316.84 C87.26 216.66, 174.34 116.49, 275.73 -0.14 M0.18 316.84 C98.96 203.21, 197.73 89.58, 275.73 -0.14 M-0.08 323.23 C77.13 234.42, 154.33 145.6, 280.71 0.22 M-0.08 323.23 C59.45 254.75, 118.99 186.26, 280.71 0.22 M0.31 328.88 C106.08 207.21, 211.84 85.54, 286.36 -0.18 M0.31 328.88 C65.31 254.1, 130.31 179.33, 286.36 -0.18 M0.05 335.27 C59.96 266.36, 119.87 197.44, 291.34 0.18 M0.05 335.27 C80.77 242.42, 161.49 149.56, 291.34 0.18 M1.1 340.16 C78.38 251.26, 155.66 162.36, 296.99 -0.21 M1.1 340.16 C97.86 228.86, 194.61 117.56, 296.99 -0.21 M6.75 339.77 C97.32 235.58, 187.89 131.39, 301.97 0.15 M6.75 339.77 C100.01 232.48, 193.27 125.19, 301.97 0.15 M11.73 340.13 C77.91 264, 144.1 187.86, 307.62 -0.25 M11.73 340.13 C82.07 259.22, 152.4 178.31, 307.62 -0.25 M17.38 339.73 C83.09 264.14, 148.8 188.55, 312.6 0.11 M17.38 339.73 C83.04 264.2, 148.7 188.67, 312.6 0.11 M22.36 340.09 C100.02 250.77, 177.67 161.44, 318.25 -0.28 M22.36 340.09 C86.69 266.1, 151.01 192.1, 318.25 -0.28 M28.01 339.7 C107.49 248.27, 186.97 156.84, 323.23 0.08 M28.01 339.7 C107.34 248.44, 186.68 157.17, 323.23 0.08 M32.99 340.06 C137.91 219.37, 242.83 98.67, 328.88 -0.31 M32.99 340.06 C92.84 271.21, 152.69 202.36, 328.88 -0.31 M38.64 339.66 C107.94 259.94, 177.24 180.22, 333.86 0.05 M38.64 339.66 C128.71 236.04, 218.79 132.42, 333.86 0.05 M43.62 340.02 C117.33 255.24, 191.03 170.45, 339.51 -0.35 M43.62 340.02 C104.76 269.69, 165.9 199.36, 339.51 -0.35 M49.27 339.63 C161.18 210.89, 273.09 82.15, 344.49 0.01 M49.27 339.63 C155.53 217.39, 261.78 95.16, 344.49 0.01 M54.25 339.99 C133.02 249.38, 211.79 158.76, 349.48 0.37 M54.25 339.99 C149.59 230.32, 244.92 120.66, 349.48 0.37 M59.24 340.35 C128.47 260.71, 197.7 181.08, 355.12 -0.02 M59.24 340.35 C130.15 258.77, 201.07 177.2, 355.12 -0.02 M64.88 339.96 C153.58 237.92, 242.28 135.88, 360.11 0.34 M64.88 339.96 C159.85 230.72, 254.81 121.48, 360.11 0.34 M69.87 340.32 C129.97 271.18, 190.07 202.04, 365.75 -0.06 M69.87 340.32 C167.2 228.35, 264.54 116.38, 365.75 -0.06 M75.51 339.92 C138.59 267.36, 201.67 194.8, 369.43 1.81 M75.51 339.92 C149.45 254.87, 223.38 169.82, 369.43 1.81 M80.5 340.28 C185.01 220.05, 289.52 99.83, 369.17 8.21 M80.5 340.28 C193.24 210.59, 305.97 80.91, 369.17 8.21 M86.14 339.89 C155.64 259.94, 225.14 179.99, 368.91 14.61 M86.14 339.89 C153.84 262.01, 221.54 184.14, 368.91 14.61 M91.13 340.25 C162.95 257.63, 234.76 175.02, 369.3 20.25 M91.13 340.25 C192.74 223.36, 294.35 106.47, 369.3 20.25 M96.77 339.85 C151.86 276.49, 206.94 213.12, 369.04 26.65 M96.77 339.85 C175.77 248.97, 254.77 158.09, 369.04 26.65 M101.76 340.21 C184.95 244.52, 268.14 148.82, 369.43 32.29 M101.76 340.21 C201.38 225.61, 301 111.01, 369.43 32.29 M107.4 339.82 C176.62 260.2, 245.83 180.57, 369.17 38.69 M107.4 339.82 C182.49 253.44, 257.58 167.06, 369.17 38.69 M112.39 340.18 C166.53 277.9, 220.66 215.63, 368.91 45.09 M112.39 340.18 C191.49 249.19, 270.58 158.2, 368.91 45.09 M118.03 339.78 C214.57 228.73, 311.11 117.68, 369.31 50.73 M118.03 339.78 C216.2 226.86, 314.37 113.93, 369.31 50.73 M123.02 340.14 C202.23 249.02, 281.44 157.9, 369.04 57.13 M123.02 340.14 C184.29 269.66, 245.56 199.18, 369.04 57.13 M128.66 339.75 C197.44 260.64, 266.21 181.52, 369.44 62.77 M128.66 339.75 C186.68 273.01, 244.69 206.28, 369.44 62.77 M133.65 340.11 C199.24 264.66, 264.83 189.2, 369.18 69.17 M133.65 340.11 C191.97 273.02, 250.29 205.94, 369.18 69.17 M139.3 339.71 C200.04 269.83, 260.79 199.95, 368.92 75.57 M139.3 339.71 C220.83 245.92, 302.36 152.13, 368.92 75.57 M144.28 340.07 C231.45 239.79, 318.63 139.51, 369.31 81.21 M144.28 340.07 C219.79 253.21, 295.3 166.35, 369.31 81.21 M149.93 339.68 C235.1 241.69, 320.28 143.71, 369.05 87.61 M149.93 339.68 C221.94 256.84, 293.95 174, 369.05 87.61 M154.91 340.04 C203.68 283.94, 252.45 227.84, 369.44 93.25 M154.91 340.04 C224.1 260.45, 293.29 180.86, 369.44 93.25 M160.56 339.65 C222.66 268.2, 284.77 196.75, 369.18 99.65 M160.56 339.65 C209.64 283.18, 258.73 226.71, 369.18 99.65 M165.54 340.01 C216.15 281.78, 266.76 223.56, 368.92 106.05 M165.54 340.01 C246.12 247.31, 326.7 154.61, 368.92 106.05 M171.19 339.61 C211.4 293.34, 251.62 247.08, 369.32 111.69 M171.19 339.61 C216.13 287.9, 261.08 236.19, 369.32 111.69 M176.17 339.97 C248.38 256.91, 320.59 173.84, 369.05 118.09 M176.17 339.97 C238.38 268.41, 300.59 196.85, 369.05 118.09 M181.16 340.33 C235.37 277.96, 289.59 215.6, 369.45 123.73 M181.16 340.33 C243.91 268.14, 306.67 195.95, 369.45 123.73 M186.8 339.94 C259.42 256.4, 332.04 172.86, 369.19 130.13 M186.8 339.94 C231.57 288.44, 276.33 236.95, 369.19 130.13 M191.79 340.3 C246.3 277.59, 300.81 214.88, 368.93 136.53 M191.79 340.3 C238.31 286.78, 284.82 233.27, 368.93 136.53 M197.43 339.9 C263.85 263.5, 330.26 187.1, 369.32 142.17 M197.43 339.9 C246.78 283.14, 296.12 226.37, 369.32 142.17 M202.42 340.26 C267.33 265.59, 332.24 190.92, 369.06 148.57 M202.42 340.26 C235.92 301.73, 269.41 263.2, 369.06 148.57 M208.06 339.87 C252.78 288.42, 297.5 236.98, 369.45 154.21 M208.06 339.87 C264.18 275.32, 320.29 210.76, 369.45 154.21 M213.05 340.23 C249.32 298.51, 285.58 256.79, 369.19 160.61 M213.05 340.23 C246.28 302, 279.5 263.78, 369.19 160.61 M218.69 339.83 C260.79 291.41, 302.88 242.98, 368.93 167 M218.69 339.83 C264.61 287.01, 310.53 234.18, 368.93 167 M223.68 340.19 C268.36 288.79, 313.05 237.39, 369.32 172.65 M223.68 340.19 C258.7 299.91, 293.71 259.63, 369.32 172.65 M229.32 339.8 C268.1 295.19, 306.87 250.59, 369.06 179.05 M229.32 339.8 C259.71 304.85, 290.09 269.89, 369.06 179.05 M234.31 340.16 C268.89 300.38, 303.47 260.6, 369.46 184.69 M234.31 340.16 C275.45 292.83, 316.59 245.51, 369.46 184.69 M239.95 339.76 C268.72 306.67, 297.49 273.58, 369.2 191.09 M239.95 339.76 C281.01 292.53, 322.07 245.3, 369.2 191.09 M244.94 340.12 C281.4 298.18, 317.86 256.24, 368.93 197.48 M244.94 340.12 C282.57 296.84, 320.19 253.55, 368.93 197.48 M250.58 339.73 C291.08 293.14, 331.59 246.55, 369.33 203.13 M250.58 339.73 C276.6 309.8, 302.62 279.87, 369.33 203.13 M255.57 340.09 C279.16 312.96, 302.74 285.82, 369.07 209.52 M255.57 340.09 C279.9 312.1, 304.23 284.11, 369.07 209.52 M261.21 339.7 C296.97 298.56, 332.73 257.42, 369.46 215.17 M261.21 339.7 C295.05 300.77, 328.89 261.84, 369.46 215.17 M266.2 340.06 C302.82 297.93, 339.44 255.8, 369.2 221.57 M266.2 340.06 C296.29 305.45, 326.37 270.84, 369.2 221.57 M271.84 339.66 C306.77 299.48, 341.69 259.31, 368.94 227.96 M271.84 339.66 C307.5 298.65, 343.15 257.63, 368.94 227.96 M276.83 340.02 C301.57 311.56, 326.31 283.1, 369.33 233.61 M276.83 340.02 C301.77 311.33, 326.72 282.63, 369.33 233.61 M282.47 339.63 C305.88 312.7, 329.29 285.77, 369.07 240 M282.47 339.63 C311.04 306.76, 339.62 273.89, 369.07 240 M287.46 339.99 C307.44 317, 327.42 294.02, 368.81 246.4 M287.46 339.99 C316.61 306.46, 345.75 272.93, 368.81 246.4 M292.45 340.35 C321.24 307.22, 350.04 274.09, 369.21 252.05 M292.45 340.35 C317.48 311.55, 342.51 282.76, 369.21 252.05 M298.09 339.95 C323.88 310.28, 349.67 280.61, 368.94 258.44 M298.09 339.95 C315.61 319.8, 333.12 299.65, 368.94 258.44 M303.08 340.31 C320.25 320.55, 337.43 300.8, 369.34 264.09 M303.08 340.31 C320.24 320.57, 337.41 300.82, 369.34 264.09 M308.72 339.92 C324.93 321.27, 341.13 302.63, 369.08 270.48 M308.72 339.92 C327.06 318.81, 345.41 297.71, 369.08 270.48 M313.71 340.28 C334.61 316.24, 355.5 292.19, 368.82 276.88 M313.71 340.28 C325.3 326.95, 336.89 313.61, 368.82 276.88 M319.35 339.88 C338.14 318.27, 356.93 296.65, 369.21 282.52 M319.35 339.88 C338 318.43, 356.64 296.98, 369.21 282.52 M324.34 340.24 C336.11 326.7, 347.88 313.16, 368.95 288.92 M324.34 340.24 C335.02 327.95, 345.7 315.67, 368.95 288.92 M329.98 339.85 C340.95 327.23, 351.91 314.62, 369.34 294.57 M329.98 339.85 C344.98 322.59, 359.98 305.34, 369.34 294.57 M334.97 340.21 C345.67 327.9, 356.37 315.59, 369.08 300.96 M334.97 340.21 C348.08 325.13, 361.19 310.05, 369.08 300.96 M340.61 339.81 C350.07 328.93, 359.52 318.06, 368.82 307.36 M340.61 339.81 C349.83 329.2, 359.06 318.59, 368.82 307.36 M345.6 340.17 C350.35 334.71, 355.1 329.24, 369.22 313 M345.6 340.17 C351.75 333.09, 357.91 326.01, 369.22 313 M351.24 339.78 C356.2 334.07, 361.16 328.36, 368.95 319.4 M351.24 339.78 C356.41 333.84, 361.57 327.9, 368.95 319.4 M356.23 340.14 C359.78 336.06, 363.32 331.98, 369.35 325.05 M356.23 340.14 C359.67 336.18, 363.11 332.22, 369.35 325.05 M361.87 339.74 C363.45 337.93, 365.02 336.12, 369.09 331.44 M361.87 339.74 C363.55 337.81, 365.23 335.88, 369.09 331.44" stroke="#fff" stroke-width="0.5" fill="none"></path><path d="M0 0 C134.98 0, 269.96 0, 366.67 0 M0 0 C110.95 0, 221.89 0, 366.67 0 M366.67 0 C366.67 114.35, 366.67 228.69, 366.67 338.89 M366.67 0 C366.67 68.23, 366.67 136.47, 366.67 338.89 M366.67 338.89 C259.05 338.89, 151.43 338.89, 0 338.89 M366.67 338.89 C231.77 338.89, 96.88 338.89, 0 338.89 M0 338.89 C0 249.06, 0 159.23, 0 0 M0 338.89 C0 211.21, 0 83.52, 0 0" stroke="#000000" stroke-width="1" fill="none"></path></g><g transform="translate(88.88888888888891 89.66666666666697) rotate(0 104 12.5)"><text x="0" y="18" font-family="Virgil, Segoe UI Emoji" font-size="20px" fill="#000000" text-anchor="start" style="white-space: pre;" direction="ltr">L looks like ulti lathi</text></g><g transform="translate(51.2862373987835 272.1282566002892) rotate(0 144.99999999999997 31.5)"><text x="0" y="15" font-family="Virgil, Segoe UI Emoji" font-size="16.846351301796858px" fill="#000000" text-anchor="start" style="white-space: pre;" direction="ltr">be careful: learn to distinguish</text><text x="0" y="36" font-family="Virgil, Segoe UI Emoji" font-size="16.846351301796858px" fill="#000000" text-anchor="start" style="white-space: pre;" direction="ltr">Alif(he usually stands alone) from </text><text x="0" y="57" font-family="Virgil, Segoe UI Emoji" font-size="16.846351301796858px" fill="#000000" text-anchor="start" style="white-space: pre;" direction="ltr">Lam(he connects with letters)</text></g><g transform="translate(32.63540744781511 148.49405712551197) rotate(0 164.00000000000003 37.5)"><text x="0" y="18" font-family="Virgil, Segoe UI Emoji" font-size="20px" fill="#000000" text-anchor="start" style="white-space: pre;" direction="ltr">Mim just memorize the letter</text><text x="0" y="43" font-family="Virgil, Segoe UI Emoji" font-size="20px" fill="#000000" text-anchor="start" style="white-space: pre;" direction="ltr">maybe it looks like, </text><text x="0" y="68" font-family="Virgil, Segoe UI Emoji" font-size="20px" fill="#000000" text-anchor="start" style="white-space: pre;" direction="ltr">mombati ki drop(ulti)(Candle drop)</text></g><g transform="translate(96.58197331428585 30.482977787552954) rotate(0 81.5 12.5)"><text x="81.5" y="18" font-family="Virgil, Segoe UI Emoji" font-size="20px" fill="#000000" text-anchor="middle" style="white-space: pre;" direction="ltr">How to remember</text></g></svg>