<svg version="1.1" xmlns="http://www.w3.org/2000/svg" viewBox="0 0 368 364.44444444444434" width="368" height="364.44444444444434">
  <!-- svg-source:excalidraw -->
  
  <defs>
    <style>
      @font-face {
        font-family: "Virgil";
        src: url("../Virgil.woff2");;
      }
      
    </style>
  </defs>
  <rect x="0" y="0" width="368" height="364.44444444444434" fill="#ffffff"></rect><g stroke-linecap="round" transform="translate(10 10) rotate(0 174 172.22222222222217)"><path d="M0 0 C0 0, 0 0, 0 0 M0 0 C0 0, 0 0, 0 0 M-0.26 6.4 C1.18 4.74, 2.62 3.08, 4.99 0.36 M-0.26 6.4 C1.36 4.53, 2.98 2.67, 4.99 0.36 M0.13 12.04 C3.13 8.59, 6.13 5.14, 10.63 -0.03 M0.13 12.04 C3.75 7.88, 7.37 3.71, 10.63 -0.03 M-0.13 18.44 C4.92 12.63, 9.96 6.83, 15.62 0.33 M-0.13 18.44 C4.14 13.53, 8.4 8.63, 15.62 0.33 M0.27 24.08 C4.84 18.82, 9.42 13.55, 21.26 -0.07 M0.27 24.08 C5.75 17.77, 11.24 11.46, 21.26 -0.07 M0 30.48 C9.1 20.02, 18.2 9.55, 26.25 0.29 M0 30.48 C9.16 19.94, 18.32 9.41, 26.25 0.29 M-0.26 36.88 C7.1 28.42, 14.45 19.96, 31.89 -0.1 M-0.26 36.88 C6.18 29.47, 12.62 22.06, 31.89 -0.1 M0.14 42.52 C13.56 27.08, 26.99 11.63, 36.88 0.26 M0.14 42.52 C10.8 30.25, 21.46 17.99, 36.88 0.26 M-0.12 48.92 C11.05 36.07, 22.22 23.22, 42.52 -0.14 M-0.12 48.92 C11.7 35.31, 23.53 21.71, 42.52 -0.14 M0.27 54.56 C12.18 40.86, 24.1 27.15, 47.51 0.22 M0.27 54.56 C18.16 33.98, 36.06 13.4, 47.51 0.22 M0.01 60.96 C17.23 41.15, 34.46 21.33, 53.15 -0.17 M0.01 60.96 C18.36 39.85, 36.71 18.74, 53.15 -0.17 M-0.25 67.36 C19.87 44.21, 39.98 21.07, 58.14 0.19 M-0.25 67.36 C13.54 51.49, 27.34 35.62, 58.14 0.19 M0.14 73 C18.23 52.2, 36.31 31.39, 63.78 -0.21 M0.14 73 C25.26 44.11, 50.37 15.22, 63.78 -0.21 M-0.12 79.4 C16.6 60.17, 33.32 40.93, 68.77 0.15 M-0.12 79.4 C15.17 61.81, 30.45 44.23, 68.77 0.15 M0.28 85.04 C20.56 61.71, 40.84 38.38, 74.41 -0.24 M0.28 85.04 C26.46 54.92, 52.65 24.79, 74.41 -0.24 M0.01 91.44 C16.63 72.32, 33.25 53.21, 79.4 0.12 M0.01 91.44 C18.46 70.22, 36.9 49.01, 79.4 0.12 M-0.25 97.84 C24.17 69.75, 48.58 41.66, 85.04 -0.28 M-0.25 97.84 C24.19 69.72, 48.63 41.61, 85.04 -0.28 M0.15 103.48 C33.37 65.26, 66.6 27.03, 90.03 0.08 M0.15 103.48 C27.27 72.28, 54.39 41.08, 90.03 0.08 M-0.11 109.88 C36.16 68.15, 72.43 26.42, 95.67 -0.31 M-0.11 109.88 C37.96 66.08, 76.03 22.28, 95.67 -0.31 M0.28 115.52 C31.54 79.56, 62.8 43.61, 100.66 0.05 M0.28 115.52 C20.54 92.21, 40.81 68.9, 100.66 0.05 M0.02 121.92 C28.69 88.93, 57.36 55.95, 106.3 -0.34 M0.02 121.92 C24.1 94.22, 48.17 66.52, 106.3 -0.34 M-0.24 128.32 C31.51 91.79, 63.26 55.26, 111.29 0.02 M-0.24 128.32 C26.73 97.29, 53.7 66.26, 111.29 0.02 M0.15 133.96 C39.75 88.41, 79.34 42.86, 116.27 0.38 M0.15 133.96 C29.37 100.35, 58.58 66.74, 116.27 0.38 M-0.11 140.36 C24.58 111.96, 49.26 83.56, 121.92 -0.02 M-0.11 140.36 C32.63 102.69, 65.37 65.03, 121.92 -0.02 M0.29 146 C30.2 111.59, 60.11 77.18, 126.91 0.34 M0.29 146 C36.76 104.04, 73.23 62.08, 126.91 0.34 M0.02 152.4 C31.74 115.91, 63.46 79.42, 132.55 -0.05 M0.02 152.4 C35.21 111.92, 70.4 71.44, 132.55 -0.05 M-0.24 158.8 C35.86 117.27, 71.96 75.74, 137.54 0.31 M-0.24 158.8 C39.57 113.01, 79.37 67.22, 137.54 0.31 M0.16 164.44 C33.56 126.01, 66.97 87.58, 143.18 -0.09 M0.16 164.44 C50.94 106.01, 101.73 47.59, 143.18 -0.09 M-0.1 170.84 C57.31 104.78, 114.73 38.73, 148.17 0.27 M-0.1 170.84 C50.98 112.07, 102.07 53.3, 148.17 0.27 M0.29 176.48 C44.07 126.12, 87.85 75.75, 153.81 -0.12 M0.29 176.48 C61.12 106.5, 121.96 36.52, 153.81 -0.12 M0.03 182.88 C38.67 138.43, 77.31 93.97, 158.8 0.24 M0.03 182.88 C44.95 131.21, 89.86 79.54, 158.8 0.24 M-0.23 189.27 C58.53 121.68, 117.28 54.09, 164.44 -0.16 M-0.23 189.27 C63.28 116.21, 126.79 43.15, 164.44 -0.16 M0.16 194.92 C55.06 131.76, 109.96 68.6, 169.43 0.2 M0.16 194.92 C45.77 142.46, 91.37 90, 169.43 0.2 M-0.1 201.32 C47.85 146.16, 95.8 91, 175.07 -0.19 M-0.1 201.32 C45.01 149.42, 90.12 97.53, 175.07 -0.19 M0.3 206.96 C69.79 127.01, 139.29 47.06, 180.06 0.17 M0.3 206.96 C37.51 164.15, 74.72 121.34, 180.06 0.17 M0.03 213.36 C60.11 144.24, 120.19 75.13, 185.7 -0.23 M0.03 213.36 C52.67 152.81, 105.3 92.26, 185.7 -0.23 M-0.23 219.75 C47.33 165.04, 94.89 110.33, 190.69 0.13 M-0.23 219.75 C63.95 145.93, 128.12 72.11, 190.69 0.13 M0.17 225.4 C50.5 167.5, 100.83 109.6, 196.33 -0.26 M0.17 225.4 C53.67 163.85, 107.17 102.3, 196.33 -0.26 M-0.09 231.8 C79.12 140.67, 158.33 49.55, 201.32 0.1 M-0.09 231.8 C47.17 177.42, 94.44 123.04, 201.32 0.1 M0.3 237.44 C59.29 169.58, 118.27 101.73, 206.96 -0.3 M0.3 237.44 C77.17 149.01, 154.04 60.58, 206.96 -0.3 M0.04 243.84 C76.98 155.32, 153.92 66.81, 211.95 0.06 M0.04 243.84 C46.26 190.66, 92.48 137.49, 211.95 0.06 M-0.22 250.23 C61.92 178.75, 124.06 107.26, 217.59 -0.33 M-0.22 250.23 C57.57 183.75, 115.36 117.27, 217.59 -0.33 M0.17 255.88 C81.34 162.5, 162.51 69.12, 222.58 0.03 M0.17 255.88 C75.64 169.06, 151.12 82.23, 222.58 0.03 M-0.09 262.27 C89.84 158.82, 179.78 55.36, 228.22 -0.36 M-0.09 262.27 C85.42 163.91, 170.93 65.54, 228.22 -0.36 M0.3 267.92 C62.69 196.15, 125.07 124.39, 233.21 0 M0.3 267.92 C90.86 163.75, 181.41 59.58, 233.21 0 M0.04 274.32 C50.4 216.39, 100.76 158.46, 238.19 0.36 M0.04 274.32 C61.66 203.43, 123.28 132.55, 238.19 0.36 M-0.22 280.71 C49.38 223.66, 98.97 166.61, 243.84 -0.04 M-0.22 280.71 C71.64 198.05, 143.5 115.39, 243.84 -0.04 M0.18 286.36 C50.06 228.98, 99.93 171.6, 248.82 0.32 M0.18 286.36 C53.54 224.96, 106.91 163.57, 248.82 0.32 M-0.08 292.75 C92.82 185.88, 185.72 79.01, 254.47 -0.07 M-0.08 292.75 C81.79 198.57, 163.67 104.38, 254.47 -0.07 M0.31 298.4 C74.57 212.97, 148.84 127.54, 259.45 0.29 M0.31 298.4 C71.94 216, 143.56 133.6, 259.45 0.29 M0.05 304.8 C55.6 240.89, 111.15 176.99, 265.1 -0.11 M0.05 304.8 C72.51 221.44, 144.97 138.08, 265.1 -0.11 M-0.21 311.19 C69.27 231.26, 138.75 151.33, 270.08 0.25 M-0.21 311.19 C58.09 244.12, 116.4 177.05, 270.08 0.25 M0.18 316.84 C70.72 235.69, 141.25 154.55, 275.73 -0.14 M0.18 316.84 C80.11 224.89, 160.04 132.94, 275.73 -0.14 M-0.08 323.23 C101.64 206.22, 203.36 89.21, 280.71 0.22 M-0.08 323.23 C95.88 212.84, 191.84 102.45, 280.71 0.22 M0.31 328.88 C82.02 234.89, 163.73 140.89, 286.36 -0.18 M0.31 328.88 C71.72 246.73, 143.13 164.59, 286.36 -0.18 M0.05 335.27 C91.77 229.77, 183.48 124.27, 291.34 0.18 M0.05 335.27 C87.79 234.35, 175.53 133.42, 291.34 0.18 M-0.21 341.67 C101.58 224.58, 203.36 107.5, 296.99 -0.21 M-0.21 341.67 C109.01 216.03, 218.24 90.38, 296.99 -0.21 M1.5 345.81 C88.65 245.55, 175.8 145.29, 301.97 0.15 M1.5 345.81 C85.1 249.63, 168.7 153.46, 301.97 0.15 M7.14 345.41 C107.19 230.32, 207.23 115.24, 307.62 -0.25 M7.14 345.41 C126.32 208.31, 245.49 71.22, 307.62 -0.25 M12.13 345.77 C109.94 233.25, 207.76 120.73, 312.6 0.11 M12.13 345.77 C130.68 209.4, 249.23 73.02, 312.6 0.11 M17.12 346.13 C85.17 267.84, 153.23 189.55, 318.25 -0.28 M17.12 346.13 C85.6 267.35, 154.08 188.58, 318.25 -0.28 M22.76 345.74 C119.36 234.61, 215.97 123.47, 323.23 0.08 M22.76 345.74 C115.69 238.83, 208.62 131.92, 323.23 0.08 M27.75 346.1 C103.96 258.43, 180.17 170.76, 328.88 -0.31 M27.75 346.1 C114.41 246.4, 201.07 146.71, 328.88 -0.31 M33.39 345.7 C105.7 262.51, 178.02 179.32, 333.86 0.05 M33.39 345.7 C99.24 269.95, 165.09 194.19, 333.86 0.05 M38.38 346.06 C131.16 239.32, 223.95 132.59, 339.51 -0.35 M38.38 346.06 C141.73 227.17, 245.08 108.28, 339.51 -0.35 M44.02 345.67 C136.63 239.13, 229.24 132.6, 344.49 0.01 M44.02 345.67 C121.64 256.37, 199.27 167.07, 344.49 0.01 M49.01 346.03 C153.22 226.15, 257.43 106.26, 348.82 1.13 M49.01 346.03 C137.93 243.74, 226.85 141.45, 348.82 1.13 M54.65 345.63 C117.05 273.85, 179.44 202.07, 349.22 6.77 M54.65 345.63 C142.58 244.48, 230.51 143.32, 349.22 6.77 M59.64 345.99 C172.59 216.06, 285.54 86.12, 348.96 13.17 M59.64 345.99 C171.99 216.74, 284.35 87.49, 348.96 13.17 M65.28 345.6 C150.99 247, 236.69 148.41, 349.35 18.81 M65.28 345.6 C164.38 231.6, 263.47 117.6, 349.35 18.81 M70.27 345.96 C158.94 243.95, 247.62 141.94, 349.09 25.21 M70.27 345.96 C180.8 218.81, 291.33 91.66, 349.09 25.21 M75.91 345.56 C182.5 222.94, 289.09 100.32, 348.83 31.61 M75.91 345.56 C173.08 233.79, 270.24 122.01, 348.83 31.61 M80.9 345.92 C154.53 261.22, 228.16 176.52, 349.22 37.25 M80.9 345.92 C144.29 273, 207.68 200.08, 349.22 37.25 M86.54 345.53 C179.32 238.79, 272.11 132.05, 348.96 43.65 M86.54 345.53 C140.13 283.88, 193.73 222.22, 348.96 43.65 M91.53 345.89 C159.93 267.2, 228.33 188.51, 348.7 50.04 M91.53 345.89 C184.3 239.17, 277.07 132.44, 348.7 50.04 M97.17 345.5 C179.91 250.31, 262.66 155.13, 349.1 55.69 M97.17 345.5 C176.56 254.17, 255.95 162.84, 349.1 55.69 M102.16 345.86 C191.38 243.22, 280.6 140.58, 348.83 62.08 M102.16 345.86 C191.05 243.6, 279.94 141.34, 348.83 62.08 M107.8 345.46 C183.94 257.88, 260.07 170.29, 349.23 67.73 M107.8 345.46 C167.66 276.6, 227.51 207.75, 349.23 67.73 M112.79 345.82 C181.98 266.22, 251.18 186.61, 348.97 74.13 M112.79 345.82 C198.52 247.2, 284.25 148.57, 348.97 74.13 M118.43 345.43 C205.25 245.55, 292.07 145.68, 348.71 80.52 M118.43 345.43 C187.35 266.15, 256.26 186.87, 348.71 80.52 M123.42 345.79 C180.7 279.89, 237.98 213.99, 349.1 86.17 M123.42 345.79 C176.25 285.01, 229.08 224.23, 349.1 86.17 M128.4 346.15 C181.01 285.63, 233.61 225.12, 348.84 92.56 M128.4 346.15 C195.28 269.22, 262.15 192.28, 348.84 92.56 M134.05 345.75 C198.74 271.33, 263.43 196.91, 349.23 98.21 M134.05 345.75 C215.09 252.52, 296.13 159.3, 349.23 98.21 M139.03 346.11 C199.47 276.59, 259.91 207.06, 348.97 104.61 M139.03 346.11 C187.72 290.11, 236.4 234.1, 348.97 104.61 M144.68 345.72 C216.57 263.01, 288.46 180.31, 348.71 111 M144.68 345.72 C212.2 268.04, 279.72 190.36, 348.71 111 M149.66 346.08 C224.45 260.05, 299.23 174.02, 349.11 116.65 M149.66 346.08 C228.25 255.68, 306.83 165.27, 349.11 116.65 M155.31 345.68 C230.87 258.75, 306.44 171.82, 348.84 123.04 M155.31 345.68 C227.89 262.19, 300.47 178.69, 348.84 123.04 M160.29 346.04 C200.46 299.84, 240.62 253.64, 349.24 128.69 M160.29 346.04 C204.97 294.65, 249.64 243.26, 349.24 128.69 M165.94 345.65 C213.32 291.14, 260.7 236.63, 348.98 135.08 M165.94 345.65 C225.3 277.36, 284.66 209.08, 348.98 135.08 M170.92 346.01 C237.75 269.13, 304.58 192.25, 348.72 141.48 M170.92 346.01 C231.96 275.79, 293 205.58, 348.72 141.48 M176.57 345.61 C222.13 293.21, 267.68 240.8, 349.11 147.13 M176.57 345.61 C233.8 279.78, 291.03 213.94, 349.11 147.13 M181.55 345.97 C232.18 287.73, 282.81 229.49, 348.85 153.52 M181.55 345.97 C221.09 300.5, 260.62 255.02, 348.85 153.52 M187.2 345.58 C247.95 275.69, 308.7 205.8, 349.24 159.17 M187.2 345.58 C233.81 291.96, 280.41 238.35, 349.24 159.17 M192.18 345.94 C238.13 293.09, 284.07 240.24, 348.98 165.56 M192.18 345.94 C250.93 278.36, 309.67 210.78, 348.98 165.56 M197.83 345.55 C231.47 306.85, 265.11 268.15, 348.72 171.96 M197.83 345.55 C231.03 307.35, 264.23 269.16, 348.72 171.96 M202.81 345.91 C248.12 293.79, 293.42 241.67, 349.12 177.61 M202.81 345.91 C254.75 286.16, 306.68 226.42, 349.12 177.61 M208.46 345.51 C250.86 296.73, 293.27 247.94, 348.85 184 M208.46 345.51 C249.78 297.97, 291.1 250.44, 348.85 184 M213.44 345.87 C264.76 286.84, 316.07 227.81, 349.25 189.65 M213.44 345.87 C255.75 297.21, 298.05 248.54, 349.25 189.65 M219.09 345.48 C266.98 290.38, 314.88 235.28, 348.99 196.04 M219.09 345.48 C246.82 313.58, 274.55 281.67, 348.99 196.04 M224.07 345.84 C272.09 290.6, 320.11 235.36, 348.73 202.44 M224.07 345.84 C263.45 300.54, 302.82 255.25, 348.73 202.44 M229.72 345.44 C258.6 312.22, 287.47 279, 349.12 208.08 M229.72 345.44 C255.73 315.51, 281.75 285.59, 349.12 208.08 M234.7 345.8 C266.89 308.77, 299.09 271.74, 348.86 214.48 M234.7 345.8 C277.77 296.26, 320.84 246.71, 348.86 214.48 M240.35 345.41 C262.45 319.98, 284.55 294.56, 349.25 220.13 M240.35 345.41 C271.44 309.64, 302.53 273.88, 349.25 220.13 M245.33 345.77 C274.45 312.28, 303.56 278.79, 348.99 226.52 M245.33 345.77 C270.46 316.86, 295.59 287.95, 348.99 226.52 M250.32 346.13 C289.28 301.31, 328.24 256.5, 348.73 232.92 M250.32 346.13 C282.96 308.58, 315.61 271.03, 348.73 232.92 M255.96 345.73 C279.91 318.19, 303.85 290.65, 349.12 238.56 M255.96 345.73 C292.81 303.35, 329.65 260.97, 349.12 238.56 M260.95 346.09 C280.92 323.12, 300.89 300.15, 348.86 244.96 M260.95 346.09 C279.37 324.91, 297.78 303.72, 348.86 244.96 M266.59 345.7 C295.37 312.59, 324.15 279.49, 349.26 250.6 M266.59 345.7 C287.93 321.16, 309.26 296.61, 349.26 250.6 M271.58 346.06 C299.89 313.49, 328.2 280.93, 349 257 M271.58 346.06 C295.52 318.52, 319.46 290.98, 349 257 M277.22 345.66 C302.57 316.51, 327.92 287.35, 348.74 263.4 M277.22 345.66 C305.08 313.63, 332.93 281.59, 348.74 263.4 M282.21 346.02 C305.16 319.63, 328.11 293.23, 349.13 269.04 M282.21 346.02 C306.23 318.4, 330.25 290.77, 349.13 269.04 M287.85 345.63 C308.51 321.86, 329.17 298.1, 348.87 275.44 M287.85 345.63 C305.32 325.54, 322.79 305.44, 348.87 275.44 M292.84 345.99 C312.75 323.09, 332.66 300.19, 349.26 281.08 M292.84 345.99 C305.47 331.46, 318.11 316.92, 349.26 281.08 M298.48 345.59 C309.89 332.47, 321.3 319.35, 349 287.48 M298.48 345.59 C317.82 323.35, 337.15 301.11, 349 287.48 M303.47 345.95 C314.87 332.84, 326.27 319.73, 348.74 293.88 M303.47 345.95 C317.38 329.96, 331.28 313.96, 348.74 293.88 M309.11 345.56 C317.27 336.18, 325.43 326.79, 349.13 299.52 M309.11 345.56 C319.14 334.03, 329.16 322.5, 349.13 299.52 M314.1 345.92 C326.58 331.57, 339.06 317.21, 348.87 305.92 M314.1 345.92 C326.24 331.95, 338.38 317.99, 348.87 305.92 M319.75 345.53 C329.28 334.56, 338.81 323.6, 349.27 311.56 M319.75 345.53 C331.51 331.99, 343.28 318.45, 349.27 311.56 M324.73 345.89 C330.93 338.75, 337.13 331.62, 349.01 317.96 M324.73 345.89 C330.26 339.53, 335.79 333.17, 349.01 317.96 M330.38 345.49 C335.8 339.25, 341.23 333.01, 348.74 324.36 M330.38 345.49 C335.41 339.7, 340.44 333.91, 348.74 324.36 M335.36 345.85 C340.67 339.74, 345.98 333.63, 349.14 330 M335.36 345.85 C340.3 340.17, 345.24 334.49, 349.14 330 M341.01 345.46 C343.34 342.77, 345.68 340.08, 348.88 336.4 M341.01 345.46 C343.06 343.1, 345.11 340.73, 348.88 336.4 M345.99 345.82 C346.83 344.85, 347.67 343.89, 349.27 342.04 M345.99 345.82 C346.96 344.71, 347.92 343.6, 349.27 342.04" stroke="#fff" stroke-width="0.5" fill="none"></path><path d="M0 0 C90.01 0, 180.03 0, 348 0 M0 0 C83.18 0, 166.36 0, 348 0 M348 0 C348 132.26, 348 264.53, 348 344.44 M348 0 C348 81.15, 348 162.3, 348 344.44 M348 344.44 C210.94 344.44, 73.89 344.44, 0 344.44 M348 344.44 C276.53 344.44, 205.07 344.44, 0 344.44 M0 344.44 C0 255.53, 0 166.62, 0 0 M0 344.44 C0 256.77, 0 169.09, 0 0" stroke="#000000" stroke-width="1" fill="none"></path></g><g transform="translate(62.777777777777715 77.66666666666697) rotate(0 119.5 27)"><text x="0" y="20" font-family="Virgil, Segoe UI Emoji" font-size="20px" fill="#000000" text-anchor="start" style="white-space: pre;" direction="ltr">चलो अक्षरों को बनाते  हैं भारी,</text><text x="0" y="47" font-family="Virgil, Segoe UI Emoji" font-size="20px" fill="#000000" text-anchor="start" style="white-space: pre;" direction="ltr">इस निशान की मदद से </text></g><g transform="translate(154.1790086428324 129.0952636665761) rotate(0 20 13)"><text x="0" y="19" font-family="Virgil, Segoe UI Emoji" font-size="20px" fill="#e67700" text-anchor="end" style="white-space: pre;" direction="rtl"> ط </text></g><g transform="translate(116.61496498849601 173.65081922213176) rotate(0 51 13.5)"><text x="51" y="20" font-family="Virgil, Segoe UI Emoji" font-size="20px" fill="#000000" text-anchor="middle" style="white-space: pre;" direction="ltr">(त)+ط = ट</text></g><g transform="translate(115.15242650773757 211.89931220478593) rotate(0 51 13.5)"><text x="51" y="20" font-family="Virgil, Segoe UI Emoji" font-size="20px" fill="#000000" text-anchor="middle" style="white-space: pre;" direction="ltr">(द)+ط = ड</text></g><g transform="translate(117.58859743012272 250.0927916897699) rotate(0 50 13.5)"><text x="50" y="20" font-family="Virgil, Segoe UI Emoji" font-size="20px" fill="#000000" text-anchor="middle" style="white-space: pre;" direction="ltr">(र)+ط = ड़</text></g><g transform="translate(133.1805089314778 33.17580676070429) rotate(0 51 13.5)"><text x="0" y="20" font-family="Virgil, Segoe UI Emoji" font-size="20px" fill="#000000" text-anchor="start" style="white-space: pre;" direction="ltr">कैसे याद रखें</text></g><g transform="translate(93.40123086505457 318.42859699991004) rotate(0 108.5 13.5)"><text x="0" y="20" font-family="Virgil, Segoe UI Emoji" font-size="20px" fill="#000000" text-anchor="start" style="white-space: pre;" direction="ltr">तोए अक्षर ऐसा ही दिखता है</text></g><g transform="translate(52.124953375922246 318.12025120514863) rotate(0 20 13)"><text x="0" y="19" font-family="Virgil, Segoe UI Emoji" font-size="20px" fill="#e67700" text-anchor="end" style="white-space: pre;" direction="rtl"> ط </text></g></svg>