<svg version="1.1" xmlns="http://www.w3.org/2000/svg" viewBox="0 0 379 373.0000000000002" width="379" height="373.0000000000002">
  <!-- svg-source:excalidraw -->
  
  <defs>
    <style>
      @font-face {
        font-family: "Virgil";
        src: url("https://excalidraw.com/Virgil.woff2");
      }
      @font-face {
        font-family: "Cascadia";
        src: url("https://excalidraw.com/Cascadia.woff2");
      }
    </style>
  </defs>
  <rect x="0" y="0" width="379" height="373.0000000000002" fill="#ffffff"></rect><g stroke-linecap="round" transform="translate(10 10) rotate(0 179.5 176.5000000000001)"><path d="M0 0 C122.06 0, 244.12 0, 359 0 M0 0 C97.1 0, 194.21 0, 359 0 M359 0 C359 95.81, 359 191.63, 359 353 M359 0 C359 82.81, 359 165.63, 359 353 M359 353 C241.07 353, 123.13 353, 0 353 M359 353 C217.49 353, 75.99 353, 0 353 M0 353 C0 248.79, 0 144.58, 0 0 M0 353 C0 250.98, 0 148.97, 0 0" stroke="#000000" stroke-width="1" fill="none"></path></g><g transform="translate(134 27) rotate(0 51 13.5)"><text x="0" y="20" font-family="Virgil, Segoe UI Emoji" font-size="20px" fill="#000000" text-anchor="start" style="white-space: pre;" direction="ltr">कैसे याद रखें</text></g><g transform="translate(31 91) rotate(0 163 118.50000000000011)"><text x="0" y="19.333333333333332" font-family="Virgil, Segoe UI Emoji" font-size="20px" fill="#000000" text-anchor="start" style="white-space: pre;" direction="ltr">1. कितने बिंदु \नुक़्ते हैं और रेखा के ऊपर</text><text x="0" y="45.666666666666664" font-family="Virgil, Segoe UI Emoji" font-size="20px" fill="#000000" text-anchor="start" style="white-space: pre;" direction="ltr">है या नीचे</text><text x="0" y="72" font-family="Virgil, Segoe UI Emoji" font-size="20px" fill="#000000" text-anchor="start" style="white-space: pre;" direction="ltr"></text><text x="0" y="98.33333333333333" font-family="Virgil, Segoe UI Emoji" font-size="20px" fill="#000000" text-anchor="start" style="white-space: pre;" direction="ltr">2. बाप निचली मंजिल पर रहते हैं इसलिए</text><text x="0" y="124.66666666666666" font-family="Virgil, Segoe UI Emoji" font-size="20px" fill="#000000" text-anchor="start" style="white-space: pre;" direction="ltr">रेखा के नीचे बिंदु</text><text x="0" y="151" font-family="Virgil, Segoe UI Emoji" font-size="20px" fill="#000000" text-anchor="start" style="white-space: pre;" direction="ltr"></text><text x="0" y="177.33333333333331" font-family="Virgil, Segoe UI Emoji" font-size="20px" fill="#000000" text-anchor="start" style="white-space: pre;" direction="ltr">3. नीतीश ऊपर की मंजिल पर रहता हैं </text><text x="0" y="203.66666666666666" font-family="Virgil, Segoe UI Emoji" font-size="20px" fill="#000000" text-anchor="start" style="white-space: pre;" direction="ltr">इसलिए रेखा के ऊपर बिंदु </text><text x="0" y="230" font-family="Virgil, Segoe UI Emoji" font-size="20px" fill="#000000" text-anchor="start" style="white-space: pre;" direction="ltr"></text></g><g transform="translate(39.02479420767827 309.4535552792297) rotate(0 157 22)"><text x="0" y="16" font-family="Virgil, Segoe UI Emoji" font-size="16px" fill="#e67700" text-anchor="start" style="white-space: pre;" direction="ltr">note: बयप कोई शब्द नहीं है इसलिए बाप से हम </text><text x="0" y="38" font-family="Virgil, Segoe UI Emoji" font-size="16px" fill="#e67700" text-anchor="start" style="white-space: pre;" direction="ltr">याद रखेंगे(bay-ya-pa)  बाप और नीतीश/नीतीस</text></g><g transform="translate(112.46923865212261 58.45355527922857) rotate(0 72.5 11)"><text x="0" y="16" font-family="Virgil, Segoe UI Emoji" font-size="16px" fill="#e67700" text-anchor="start" style="white-space: pre;" direction="ltr">बाप और नीतीश/नीतीस</text></g></svg>