<svg version="1.1" xmlns="http://www.w3.org/2000/svg" viewBox="0 0 378.99999999999994 377.47591145833394" width="378.99999999999994" height="377.47591145833394">
  <!-- svg-source:excalidraw -->
  
  <defs>
    <style>
      @font-face {
        font-family: "Virgil";
        src: url("https://excalidraw.com/Virgil.woff2");
      }
      @font-face {
        font-family: "Cascadia";
        src: url("https://excalidraw.com/Cascadia.woff2");
      }
    </style>
  </defs>
  <rect x="0" y="0" width="378.99999999999994" height="377.47591145833394" fill="#ffffff"></rect><g transform="translate(28.451551649305486 275.7163764105917) rotate(0 165.5 7)"><text x="0" y="10" font-family="Virgil, Segoe UI Emoji" font-size="10.879774305554898px" fill="#000000" text-anchor="start" style="white-space: pre;" direction="ltr">(stop, like Hindi halant; looks like a small ring above in Arabic</text></g><g stroke-linecap="round" transform="translate(22.58648003472223 196.0349527994822) rotate(0 168.62192789713544 26.868320041232437)"><path d="M0 0 C134.85 0, 269.71 0, 337.24 0 M0 0 C121.2 0, 242.41 0, 337.24 0 M337.24 0 C337.24 16.37, 337.24 32.75, 337.24 53.74 M337.24 0 C337.24 15.62, 337.24 31.24, 337.24 53.74 M337.24 53.74 C222.81 53.74, 108.37 53.74, 0 53.74 M337.24 53.74 C214.95 53.74, 92.65 53.74, 0 53.74 M0 53.74 C0 34.1, 0 14.46, 0 0 M0 53.74 C0 40.9, 0 28.06, 0 0" stroke="#d9480f" stroke-width="1" fill="none"></path></g><g stroke-linecap="round" transform="translate(10 10) rotate(0 179.49999999999997 176.5)"><path d="M0 0 C80.32 0, 160.65 0, 359 0 M0 0 C90.29 0, 180.59 0, 359 0 M359 0 C359 116.54, 359 233.07, 359 353 M359 0 C359 99.36, 359 198.72, 359 353 M359 353 C238.42 353, 117.85 353, 0 353 M359 353 C234.47 353, 109.94 353, 0 353 M0 353 C0 221.96, 0 90.91, 0 0 M0 353 C0 276.01, 0 199.03, 0 0" stroke="#000000" stroke-width="1" fill="none"></path></g><g transform="translate(49 39) rotate(0 6 12.5)"><text x="6" y="18" font-family="Virgil, Segoe UI Emoji" font-size="20px" fill="#000000" text-anchor="middle" style="white-space: pre;" direction="ltr">*</text></g><g transform="translate(264.9999999999995 44.5) rotate(0 48 10)"><text x="48" y="14" font-family="Virgil, Segoe UI Emoji" font-size="16px" fill="#000000" text-anchor="middle" style="white-space: pre;" direction="ltr">sukoon/jazm</text></g><g transform="translate(308.9999999999995 303) rotate(0 16 15.5)"><text x="16" y="22" font-family="Virgil, Segoe UI Emoji" font-size="23.076923076923066px" fill="#000000" text-anchor="middle" style="white-space: pre;" direction="rtl">وقت</text></g><g transform="translate(178.9999999999995 297.75) rotate(0 26 17.5)"><text x="26" y="24" font-family="Virgil, Segoe UI Emoji" font-size="24.999999999999996px" fill="#000000" text-anchor="middle" style="white-space: pre;" direction="rtl">چُست</text></g><g transform="translate(47.5 301) rotate(0 22 13.5)"><text x="22" y="19" font-family="Virgil, Segoe UI Emoji" font-size="20px" fill="#000000" text-anchor="middle" style="white-space: pre;" direction="rtl">سُكُونْ</text></g><g transform="translate(301.935181498527 327.8966397047043) rotate(0 20 10)"><text x="40" y="14" font-family="Virgil, Segoe UI Emoji" font-size="16px" fill="#000000" text-anchor="end" style="white-space: pre;" direction="ltr">waqt</text></g><g transform="translate(175.93518149852702 325.8966397047043) rotate(0 22.5 10)"><text x="45" y="14" font-family="Virgil, Segoe UI Emoji" font-size="16px" fill="#000000" text-anchor="end" style="white-space: pre;" direction="ltr">chust</text></g><g transform="translate(49.93518149852429 325.8966397047043) rotate(0 21.5 10)"><text x="43" y="14" font-family="Virgil, Segoe UI Emoji" font-size="16px" fill="#000000" text-anchor="end" style="white-space: pre;" direction="ltr">sukūn</text></g><g stroke-linecap="round"><g transform="translate(82.58484570010262 188.433171830613) rotate(179.62931685344796 97.42914414580807 -1.316217398018125)"><path d="M0 0 C16.24 -0.22, 64.95 -0.88, 97.43 -1.32 C129.91 -1.75, 178.62 -2.41, 194.86 -2.63" stroke="#000000" stroke-width="1.5" fill="none" stroke-dasharray="1.5 7"></path></g></g><g stroke-linecap="round"><g transform="translate(188.23877739706035 113.60682506019657) rotate(178.75767641813366 -17.49232327910488 14.280952038278883)"><path d="M0 0 C-5.17 7.38, -10.34 14.77, -20.55 29.36 M0 0 C-6.79 9.69, -13.57 19.38, -20.55 29.36 M-20.55 29.36 C-24.62 20.87, -28.68 12.38, -34.98 -0.8 M-20.55 29.36 C-25.4 19.23, -30.25 9.1, -34.98 -0.8" stroke="#000000" stroke-width="1" fill="none"></path></g></g><g stroke-linecap="round"><g transform="translate(266.67407052958214 121.10854027115784) rotate(269.35226641134466 -17.49232327910488 14.281219312403664)"><path d="M0 0 C-3.43 4.89, -14.72 29.49, -20.55 29.36 C-26.39 29.23, -32.58 4.23, -34.98 -0.8 M0 0 C-3.43 4.89, -14.72 29.49, -20.55 29.36 C-26.39 29.23, -32.58 4.23, -34.98 -0.8" stroke="#000000" stroke-width="1" fill="none"></path></g></g><g stroke-linecap="round"><g transform="translate(177.6892055979999 130.54323804403975) rotate(270.6534508550945 33.81079440199852 3.6304476390969285)"><path d="M0 0 C7.15 0.77, 14.31 1.54, 33.81 3.63 M33.81 3.63 C46.86 5.03, 59.92 6.43, 67.62 7.26" stroke="#000000" stroke-width="1.5" fill="none" stroke-dasharray="1.5 7"></path></g></g><g transform="translate(25.281494140625227 215.51481795310428) rotate(0 163.99999999999997 16.5)"><text x="0" y="11.5" font-family="Virgil, Segoe UI Emoji" font-size="13.240464344941955px" fill="#000000" text-anchor="start" style="white-space: pre;" direction="ltr">  indicates that the character on which appears </text><text x="0" y="28" font-family="Virgil, Segoe UI Emoji" font-size="13.240464344941955px" fill="#000000" text-anchor="start" style="white-space: pre;" direction="ltr">has to be combined with the previous one</text></g><g stroke-linecap="round" transform="translate(97.82937282986103 123.15662977430657) rotate(0 9.56751505533856 9.460923936631843)"><path d="M19.14 9.46 C19.14 10.01, 19.09 10.56, 18.99 11.1 C18.89 11.64, 18.75 12.18, 18.56 12.7 C18.37 13.21, 18.13 13.72, 17.85 14.19 C17.58 14.67, 17.25 15.12, 16.9 15.54 C16.54 15.96, 16.14 16.36, 15.72 16.71 C15.29 17.06, 14.83 17.38, 14.35 17.65 C13.87 17.93, 13.36 18.16, 12.84 18.35 C12.32 18.54, 11.77 18.68, 11.23 18.78 C10.68 18.87, 10.12 18.92, 9.57 18.92 C9.01 18.92, 8.45 18.87, 7.91 18.78 C7.36 18.68, 6.82 18.54, 6.3 18.35 C5.77 18.16, 5.26 17.93, 4.78 17.65 C4.3 17.38, 3.84 17.06, 3.42 16.71 C2.99 16.36, 2.59 15.96, 2.24 15.54 C1.88 15.12, 1.56 14.67, 1.28 14.19 C1 13.72, 0.77 13.21, 0.58 12.7 C0.39 12.18, 0.24 11.64, 0.15 11.1 C0.05 10.56, 0 10.01, 0 9.46 C0 8.91, 0.05 8.36, 0.15 7.82 C0.24 7.28, 0.39 6.74, 0.58 6.23 C0.77 5.71, 1 5.2, 1.28 4.73 C1.56 4.26, 1.88 3.8, 2.24 3.38 C2.59 2.96, 2.99 2.57, 3.42 2.21 C3.84 1.86, 4.3 1.54, 4.78 1.27 C5.26 0.99, 5.77 0.76, 6.3 0.57 C6.82 0.38, 7.36 0.24, 7.91 0.14 C8.45 0.05, 9.01 0, 9.57 0 C10.12 0, 10.68 0.05, 11.23 0.14 C11.77 0.24, 12.32 0.38, 12.84 0.57 C13.36 0.76, 13.87 0.99, 14.35 1.27 C14.83 1.54, 15.29 1.86, 15.72 2.21 C16.14 2.57, 16.54 2.96, 16.9 3.38 C17.25 3.8, 17.58 4.26, 17.85 4.73 C18.13 5.2, 18.37 5.71, 18.56 6.23 C18.75 6.74, 18.89 7.28, 18.99 7.82 C19.09 8.36, 19.11 9.19, 19.14 9.46 C19.16 9.73, 19.16 9.19, 19.14 9.46" stroke="#343a40" stroke-width="4" fill="none"></path></g><g stroke-linecap="round"><g transform="translate(105.05483331067416 131.10923063781593) rotate(271.6365770416144 33.81079440199852 3.6304476390969285)"><path d="M0 0 C12.93 1.39, 25.85 2.78, 33.81 3.63 M33.81 3.63 C45.73 4.91, 57.64 6.19, 67.62 7.26" stroke="#000000" stroke-width="1.5" fill="none" stroke-dasharray="1.5 7"></path></g></g><g transform="translate(172.24258083767364 196.7973361545155) rotate(0 21 10)"><text x="0" y="14" font-family="Virgil, Segoe UI Emoji" font-size="16px" fill="#d9480f" text-anchor="start" style="white-space: pre;" direction="ltr">Jazm</text></g><g transform="translate(162.13146972656256 256.5751139322929) rotate(0 26.5 10)"><text x="0" y="14" font-family="Virgil, Segoe UI Emoji" font-size="16px" fill="#d9480f" text-anchor="start" style="white-space: pre;" direction="ltr">sukoon</text></g><g stroke-linecap="round" transform="translate(27.177408854166686 256.9880099826405) rotate(0 164.46787516276044 20.602145724826187)"><path d="M0 0 C69.21 0, 138.43 0, 328.94 0 M0 0 C104.81 0, 209.62 0, 328.94 0 M328.94 0 C328.94 13.57, 328.94 27.15, 328.94 41.2 M328.94 0 C328.94 15.8, 328.94 31.6, 328.94 41.2 M328.94 41.2 C211.79 41.2, 94.64 41.2, 0 41.2 M328.94 41.2 C230.75 41.2, 132.56 41.2, 0 41.2 M0 41.2 C0 27.2, 0 13.19, 0 0 M0 41.2 C0 27.45, 0 13.69, 0 0" stroke="#d9480f" stroke-width="1" fill="none"></path></g><g transform="translate(324.80063205295136 299.00923665364826) rotate(0 5.5 10)"><text x="0" y="14" font-family="Virgil, Segoe UI Emoji" font-size="16px" fill="#000000" text-anchor="start" style="white-space: pre;" direction="ltr">^</text></g><g transform="translate(311.0480550130208 343.47591145833394) rotate(0 14.5 12)"><text x="0" y="18" font-family="Virgil, Segoe UI Emoji" font-size="16px" fill="#000000" text-anchor="start" style="white-space: pre;" direction="ltr">वक़्त</text></g><g transform="translate(202.37297905815961 299.11854383680657) rotate(0 5.5 10)"><text x="0" y="14" font-family="Virgil, Segoe UI Emoji" font-size="16px" fill="#000000" text-anchor="start" style="white-space: pre;" direction="ltr">^</text></g><g transform="translate(189.13146972656256 339.24178059896076) rotate(0 14 12)"><text x="0" y="18" font-family="Virgil, Segoe UI Emoji" font-size="16px" fill="#000000" text-anchor="start" style="white-space: pre;" direction="ltr">चुस्त</text></g></svg>