<svg version="1.1" xmlns="http://www.w3.org/2000/svg" viewBox="0 0 379 373" width="379" height="373" >
  <!-- svg-source:excalidraw -->
  
  <defs>
    <style>
      @font-face {
        font-family: "Virgil";
        src: url("https://excalidraw.com/Virgil.woff2");
      }
      @font-face {
        font-family: "Cascadia";
        src: url("https://excalidraw.com/Cascadia.woff2");
      }
    </style>
  </defs>
  <rect x="0" y="0" width="379" height="373" fill="#ffffff"></rect><g stroke-linecap="round" transform="translate(10 10) rotate(0 179.5 176.5)"><path d="M0 0 C94.97 0, 189.93 0, 359 0 M0 0 C85.29 0, 170.57 0, 359 0 M359 0 C359 71.84, 359 143.69, 359 353 M359 0 C359 134.28, 359 268.55, 359 353 M359 353 C222.6 353, 86.19 353, 0 353 M359 353 C230.14 353, 101.27 353, 0 353 M0 353 C0 227.39, 0 101.79, 0 0 M0 353 C0 279.64, 0 206.28, 0 0" stroke="#000000" stroke-width="1" fill="none"></path></g><g transform="translate(47.5 39) rotate(0 7.5 13.5)"><text x="7.5" y="20" font-family="Virgil, Segoe UI Emoji" font-size="20px" fill="#000000" text-anchor="middle" style="white-space: pre;" direction="ltr">झ</text></g><g transform="translate(317.5 42) rotate(0 18.5 12.5)"><text x="18.5" y="18" font-family="Virgil, Segoe UI Emoji" font-size="20px" fill="#000000" text-anchor="middle" style="white-space: pre;" direction="ltr">Jha</text></g><g transform="translate(303 299) rotate(0 22 15)"><text x="22" y="21" font-family="Virgil, Segoe UI Emoji" font-size="23.076923076923066px" fill="#000000" text-anchor="middle" style="white-space: pre;" direction="rtl">جھاڑ</text></g><g transform="translate(183.5 297.75) rotate(0 21.5 16)"><text x="21.5" y="23" font-family="Virgil, Segoe UI Emoji" font-size="24.999999999999996px" fill="#000000" text-anchor="middle" style="white-space: pre;" direction="rtl">ـجھـ</text></g><g transform="translate(46 295) rotate(0 23.5 19)"><text x="23.5" y="27" font-family="Virgil, Segoe UI Emoji" font-size="29.230769230769223px" fill="#000000" text-anchor="middle" style="white-space: pre;" direction="rtl">ـجھ</text></g><g transform="translate(138 42.72728228569031) rotate(0 49 13)"><text x="49" y="19" font-family="Virgil, Segoe UI Emoji" font-size="20px" fill="#000000" text-anchor="middle" style="white-space: pre;" direction="rtl">ج+ھ = جھ</text></g><g stroke-linecap="round" transform="translate(228.0796165274678 196.6880251307557) rotate(304.5524875944234 5.5 5.5)"><path d="M11 5.5 C11 5.82, 10.97 6.14, 10.92 6.46 C10.86 6.77, 10.78 7.08, 10.67 7.38 C10.56 7.68, 10.42 7.97, 10.26 8.25 C10.1 8.53, 9.92 8.79, 9.71 9.04 C9.51 9.28, 9.28 9.51, 9.04 9.71 C8.79 9.92, 8.53 10.1, 8.25 10.26 C7.97 10.42, 7.68 10.56, 7.38 10.67 C7.08 10.78, 6.77 10.86, 6.46 10.92 C6.14 10.97, 5.82 11, 5.5 11 C5.18 11, 4.86 10.97, 4.54 10.92 C4.23 10.86, 3.92 10.78, 3.62 10.67 C3.32 10.56, 3.03 10.42, 2.75 10.26 C2.47 10.1, 2.21 9.92, 1.96 9.71 C1.72 9.51, 1.49 9.28, 1.29 9.04 C1.08 8.79, 0.9 8.53, 0.74 8.25 C0.58 7.97, 0.44 7.68, 0.33 7.38 C0.22 7.08, 0.14 6.77, 0.08 6.46 C0.03 6.14, 0 5.82, 0 5.5 C0 5.18, 0.03 4.86, 0.08 4.54 C0.14 4.23, 0.22 3.92, 0.33 3.62 C0.44 3.32, 0.58 3.03, 0.74 2.75 C0.9 2.47, 1.08 2.21, 1.29 1.96 C1.49 1.72, 1.72 1.49, 1.96 1.29 C2.21 1.08, 2.47 0.9, 2.75 0.74 C3.03 0.58, 3.32 0.44, 3.62 0.33 C3.92 0.22, 4.23 0.14, 4.54 0.08 C4.86 0.03, 5.18 0, 5.5 0 C5.82 0, 6.14 0.03, 6.46 0.08 C6.77 0.14, 7.08 0.22, 7.38 0.33 C7.68 0.44, 7.97 0.58, 8.25 0.74 C8.53 0.9, 8.79 1.08, 9.04 1.29 C9.28 1.49, 9.51 1.72, 9.71 1.96 C9.92 2.21, 10.1 2.47, 10.26 2.75 C10.42 3.03, 10.56 3.32, 10.67 3.62 C10.78 3.92, 10.86 4.23, 10.92 4.54 C10.97 4.86, 10.99 5.34, 11 5.5 C11.01 5.66, 11.01 5.34, 11 5.5" stroke="none" stroke-width="0" fill="#fd7e14"></path><path d="M11 5.5 C11 5.82, 10.97 6.14, 10.92 6.46 C10.86 6.77, 10.78 7.08, 10.67 7.38 C10.56 7.68, 10.42 7.97, 10.26 8.25 C10.1 8.53, 9.92 8.79, 9.71 9.04 C9.51 9.28, 9.28 9.51, 9.04 9.71 C8.79 9.92, 8.53 10.1, 8.25 10.26 C7.97 10.42, 7.68 10.56, 7.38 10.67 C7.08 10.78, 6.77 10.86, 6.46 10.92 C6.14 10.97, 5.82 11, 5.5 11 C5.18 11, 4.86 10.97, 4.54 10.92 C4.23 10.86, 3.92 10.78, 3.62 10.67 C3.32 10.56, 3.03 10.42, 2.75 10.26 C2.47 10.1, 2.21 9.92, 1.96 9.71 C1.72 9.51, 1.49 9.28, 1.29 9.04 C1.08 8.79, 0.9 8.53, 0.74 8.25 C0.58 7.97, 0.44 7.68, 0.33 7.38 C0.22 7.08, 0.14 6.77, 0.08 6.46 C0.03 6.14, 0 5.82, 0 5.5 C0 5.18, 0.03 4.86, 0.08 4.54 C0.14 4.23, 0.22 3.92, 0.33 3.62 C0.44 3.32, 0.58 3.03, 0.74 2.75 C0.9 2.47, 1.08 2.21, 1.29 1.96 C1.49 1.72, 1.72 1.49, 1.96 1.29 C2.21 1.08, 2.47 0.9, 2.75 0.74 C3.03 0.58, 3.32 0.44, 3.62 0.33 C3.92 0.22, 4.23 0.14, 4.54 0.08 C4.86 0.03, 5.18 0, 5.5 0 C5.82 0, 6.14 0.03, 6.46 0.08 C6.77 0.14, 7.08 0.22, 7.38 0.33 C7.68 0.44, 7.97 0.58, 8.25 0.74 C8.53 0.9, 8.79 1.08, 9.04 1.29 C9.28 1.49, 9.51 1.72, 9.71 1.96 C9.92 2.21, 10.1 2.47, 10.26 2.75 C10.42 3.03, 10.56 3.32, 10.67 3.62 C10.78 3.92, 10.86 4.23, 10.92 4.54 C10.97 4.86, 10.99 5.34, 11 5.5 C11.01 5.66, 11.01 5.34, 11 5.5" stroke="#000000" stroke-width="1" fill="none"></path></g><g transform="translate(313.9351814985275 330.8966397047043) rotate(0 17 10)"><text x="34" y="14" font-family="Virgil, Segoe UI Emoji" font-size="16px" fill="#000000" text-anchor="end" style="white-space: pre;" direction="ltr">jhad</text></g><g transform="translate(194.93518149852753 330.8966397047043) rotate(0 12 10)"><text x="24" y="14" font-family="Virgil, Segoe UI Emoji" font-size="16px" fill="#000000" text-anchor="end" style="white-space: pre;" direction="ltr">mid</text></g><g transform="translate(51.93518149852753 330.8966397047043) rotate(0 17.5 10)"><text x="35" y="14" font-family="Virgil, Segoe UI Emoji" font-size="16px" fill="#000000" text-anchor="end" style="white-space: pre;" direction="ltr">final</text></g><g stroke-linecap="round"><g transform="translate(145.70382715484857 196.63049074370065) rotate(0 49.64808642257515 -18.470949952438787)"><path d="M0 0 C5.79 1.24, 22.89 9.38, 34.75 7.45 C46.61 5.52, 60.41 -2.9, 71.16 -11.58 C81.92 -20.27, 94.61 -39.17, 99.3 -44.68 M0 0 C5.79 1.24, 22.89 9.38, 34.75 7.45 C46.61 5.52, 60.41 -2.9, 71.16 -11.58 C81.92 -20.27, 94.61 -39.17, 99.3 -44.68" stroke="#000000" stroke-width="1" fill="none"></path></g></g><g stroke-linecap="round"><g transform="translate(245 152.77468107043023) rotate(0 -36.82233076340992 -4.137340535214662)"><path d="M0 0 C-12.27 -1.38, -61.37 -6.9, -73.64 -8.27 M0 0 C-12.27 -1.38, -61.37 -6.9, -73.64 -8.27" stroke="#000000" stroke-width="1" fill="none"></path></g></g><g stroke-linecap="round"><g transform="translate(143.30226741889192 196.55784201213464) rotate(0 -9.416610835967504 0.6904337789919737)"><path d="M0 0 C-2.33 -4.12, -13.7 -17.67, -13.98 -24.75 C-14.26 -31.83, -5.05 -42.41, -1.66 -42.48 C1.72 -42.55, 5.83 -32.72, 6.32 -25.16 C6.82 -17.6, 3.61 -5.02, 1.33 2.89 C-0.94 10.79, -7.32 15.47, -7.32 22.27 C-7.32 29.08, -1.44 42.21, 1.33 43.72 C4.11 45.23, 8.21 35.88, 9.32 31.35 C10.43 26.81, 9.43 21.52, 7.99 16.5 C6.55 11.48, 6.77 3.92, 0.67 1.24 C-5.44 -1.44, -23.75 0.55, -28.63 0.41 M0 0 C-2.33 -4.12, -13.7 -17.67, -13.98 -24.75 C-14.26 -31.83, -5.05 -42.41, -1.66 -42.48 C1.72 -42.55, 5.83 -32.72, 6.32 -25.16 C6.82 -17.6, 3.61 -5.02, 1.33 2.89 C-0.94 10.79, -7.32 15.47, -7.32 22.27 C-7.32 29.08, -1.44 42.21, 1.33 43.72 C4.11 45.23, 8.21 35.88, 9.32 31.35 C10.43 26.81, 9.43 21.52, 7.99 16.5 C6.55 11.48, 6.77 3.92, 0.67 1.24 C-5.44 -1.44, -23.75 0.55, -28.63 0.41" stroke="#000000" stroke-width="1" fill="none"></path></g></g></svg>