<svg version="1.1" xmlns="http://www.w3.org/2000/svg" viewBox="0 0 379 373" width="379" height="373">
  <!-- svg-source:excalidraw -->
  
  <defs>
    <style>
      @font-face {
        font-family: "Virgil";
        src: url("https://excalidraw.com/Virgil.woff2");
      }
      @font-face {
        font-family: "Cascadia";
        src: url("https://excalidraw.com/Cascadia.woff2");
      }
    </style>
  </defs>
  <rect x="0" y="0" width="379" height="373" fill="#ffffff"></rect><g stroke-linecap="round" transform="translate(10 10) rotate(0 179.5 176.5)"><path d="M0 0 C88.53 0, 177.06 0, 359 0 M0 0 C139.86 0, 279.72 0, 359 0 M359 0 C359 136.86, 359 273.72, 359 353 M359 0 C359 72.65, 359 145.31, 359 353 M359 353 C223.97 353, 88.93 353, 0 353 M359 353 C234.54 353, 110.08 353, 0 353 M0 353 C0 219.22, 0 85.43, 0 0 M0 353 C0 279.64, 0 206.28, 0 0" stroke="#000000" stroke-width="1" fill="none"></path></g><g transform="translate(47 39) rotate(0 8 13.5)"><text x="8" y="20" font-family="Virgil, Segoe UI Emoji" font-size="20px" fill="#000000" text-anchor="middle" style="white-space: pre;" direction="ltr">क</text></g><g transform="translate(329.5 42) rotate(0 6.5 12.5)"><text x="6.5" y="18" font-family="Virgil, Segoe UI Emoji" font-size="20px" fill="#000000" text-anchor="middle" style="white-space: pre;" direction="ltr">K</text></g><g transform="translate(303.5 296) rotate(0 21.5 18)"><text x="21.5" y="26" font-family="Virgil, Segoe UI Emoji" font-size="28px" fill="#000000" text-anchor="middle" style="white-space: pre;" direction="rtl">کان</text></g><g transform="translate(180 295.75) rotate(0 25 18)"><text x="25" y="26" font-family="Virgil, Segoe UI Emoji" font-size="28px" fill="#000000" text-anchor="middle" style="white-space: pre;" direction="rtl">تکیہ</text></g><g transform="translate(49.5 295.4981818181818) rotate(0 21 18)"><text x="21" y="26" font-family="Virgil, Segoe UI Emoji" font-size="28px" fill="#000000" text-anchor="middle" style="white-space: pre;" direction="rtl">ناک</text></g><g transform="translate(145.5 42.72728228569031) rotate(0 41.5 13)"><text x="41.5" y="19" font-family="Virgil, Segoe UI Emoji" font-size="20px" fill="#000000" text-anchor="middle" style="white-space: pre;" direction="ltr">Kaaf(ک)</text></g><g stroke-linecap="round"><g transform="translate(281.46628875896204 98.473916888237) rotate(0 -86.15538286779366 75.92072748654869)"><path d="M0 0 C-12.65 6.58, -70.57 20.8, -75.92 39.49 C-81.28 58.17, -29.68 93.63, -32.13 112.12 C-34.59 130.62, -68.76 145.93, -90.66 150.47 C-112.56 155, -149.99 147.57, -163.54 139.33 C-177.1 131.08, -170.56 107.37, -171.97 100.98 M0 0 C-12.65 6.58, -70.57 20.8, -75.92 39.49 C-81.28 58.17, -29.68 93.63, -32.13 112.12 C-34.59 130.62, -68.76 145.93, -90.66 150.47 C-112.56 155, -149.99 147.57, -163.54 139.33 C-177.1 131.08, -170.56 107.37, -171.97 100.98" stroke="#000000" stroke-width="1" fill="none"></path></g></g><g transform="translate(310.9476624727249 326.79078912734985) rotate(0 19 10)"><text x="38" y="14" font-family="Virgil, Segoe UI Emoji" font-size="16px" fill="#000000" text-anchor="end" style="white-space: pre;" direction="ltr">kaan</text></g><g transform="translate(186.94766247272491 326.79078912734985) rotate(0 25 10)"><text x="50" y="14" font-family="Virgil, Segoe UI Emoji" font-size="16px" fill="#000000" text-anchor="end" style="white-space: pre;" direction="ltr">takiya</text></g><g transform="translate(49.947662472724915 326.79078912734985) rotate(0 19 10)"><text x="38" y="14" font-family="Virgil, Segoe UI Emoji" font-size="16px" fill="#000000" text-anchor="end" style="white-space: pre;" direction="ltr">naak</text></g></svg>