<svg version="1.1" xmlns="http://www.w3.org/2000/svg" viewBox="0 0 380 367.7777777777774" width="380" height="367.7777777777774">
  <!-- svg-source:excalidraw -->
  
  <defs>
    <style>
      @font-face {
        font-family: "Virgil";
        src: url("https://excalidraw.com/Virgil.woff2");
      }
      @font-face {
        font-family: "Cascadia";
        src: url("https://excalidraw.com/Cascadia.woff2");
      }
    </style>
  </defs>
  <rect x="0" y="0" width="380" height="367.7777777777774" fill="#ffffff"></rect><g stroke-linecap="round" transform="translate(10 10) rotate(0 178.33333333333326 173.8888888888887)"><path d="M0 0 C0 0, 0 0, 0 0 M0 0 C0 0, 0 0, 0 0 M-0.26 6.4 C0.93 5.03, 2.12 3.65, 4.99 0.36 M-0.26 6.4 C1.29 4.62, 2.83 2.84, 4.99 0.36 M0.13 12.04 C3.43 8.25, 6.72 4.47, 10.63 -0.03 M0.13 12.04 C3.32 8.37, 6.51 4.7, 10.63 -0.03 M-0.13 18.44 C3.57 14.18, 7.27 9.93, 15.62 0.33 M-0.13 18.44 C4.69 12.89, 9.52 7.35, 15.62 0.33 M0.27 24.08 C6.75 16.63, 13.23 9.17, 21.26 -0.07 M0.27 24.08 C7.43 15.84, 14.6 7.6, 21.26 -0.07 M0 30.48 C6.19 23.36, 12.38 16.24, 26.25 0.29 M0 30.48 C9.38 19.69, 18.76 8.91, 26.25 0.29 M-0.26 36.88 C10.73 24.24, 21.71 11.61, 31.89 -0.1 M-0.26 36.88 C10.04 25.03, 20.33 13.19, 31.89 -0.1 M0.14 42.52 C11.76 29.15, 23.39 15.77, 36.88 0.26 M0.14 42.52 C8.34 33.08, 16.55 23.64, 36.88 0.26 M-0.12 48.92 C10.8 36.35, 21.72 23.79, 42.52 -0.14 M-0.12 48.92 C16.79 29.47, 33.7 10.01, 42.52 -0.14 M0.27 54.56 C9.85 43.54, 19.43 32.52, 47.51 0.22 M0.27 54.56 C15.18 37.41, 30.09 20.26, 47.51 0.22 M0.01 60.96 C20.48 37.41, 40.96 13.85, 53.15 -0.17 M0.01 60.96 C16.58 41.89, 33.16 22.82, 53.15 -0.17 M-0.25 67.36 C20.76 43.18, 41.78 19.01, 58.14 0.19 M-0.25 67.36 C22.01 41.75, 44.27 16.13, 58.14 0.19 M0.14 73 C16.12 54.62, 32.09 36.25, 63.78 -0.21 M0.14 73 C18.85 51.48, 37.55 29.97, 63.78 -0.21 M-0.12 79.4 C19.98 56.28, 40.07 33.16, 68.77 0.15 M-0.12 79.4 C13.89 63.28, 27.9 47.17, 68.77 0.15 M0.28 85.04 C19.88 62.49, 39.48 39.95, 74.41 -0.24 M0.28 85.04 C26.68 54.67, 53.08 24.3, 74.41 -0.24 M0.01 91.44 C19.17 69.4, 38.33 47.36, 79.4 0.12 M0.01 91.44 C23.9 63.96, 47.79 36.48, 79.4 0.12 M-0.25 97.84 C18.99 75.71, 38.22 53.59, 85.04 -0.28 M-0.25 97.84 C33.7 58.78, 67.65 19.73, 85.04 -0.28 M0.15 103.48 C26.3 73.4, 52.45 43.31, 90.03 0.08 M0.15 103.48 C20.72 79.82, 41.29 56.15, 90.03 0.08 M-0.11 109.88 C21.3 85.24, 42.72 60.6, 95.67 -0.31 M-0.11 109.88 C29.11 76.26, 58.33 42.65, 95.67 -0.31 M0.28 115.52 C26.56 85.29, 52.83 55.07, 100.66 0.05 M0.28 115.52 C28.2 83.4, 56.12 51.29, 100.66 0.05 M0.02 121.92 C35.82 80.73, 71.63 39.54, 106.3 -0.34 M0.02 121.92 C26.44 91.53, 52.86 61.13, 106.3 -0.34 M-0.24 128.32 C23.63 100.86, 47.5 73.4, 111.29 0.02 M-0.24 128.32 C41.64 80.14, 83.52 31.96, 111.29 0.02 M0.15 133.96 C38.78 89.52, 77.41 45.08, 116.27 0.38 M0.15 133.96 C44.96 82.41, 89.77 30.87, 116.27 0.38 M-0.11 140.36 C42.25 91.63, 84.61 42.9, 121.92 -0.02 M-0.11 140.36 C46.73 86.48, 93.57 32.6, 121.92 -0.02 M0.29 146 C46.8 92.5, 93.31 38.99, 126.91 0.34 M0.29 146 C45.89 93.54, 91.5 41.07, 126.91 0.34 M0.02 152.4 C39.7 106.75, 79.38 61.11, 132.55 -0.05 M0.02 152.4 C26.76 121.64, 53.5 90.88, 132.55 -0.05 M-0.24 158.8 C39.21 113.42, 78.65 68.04, 137.54 0.31 M-0.24 158.8 C27.41 126.99, 55.06 95.18, 137.54 0.31 M0.16 164.44 C35.68 123.57, 71.21 82.71, 143.18 -0.09 M0.16 164.44 C37.9 121.02, 75.65 77.59, 143.18 -0.09 M-0.1 170.84 C47.95 115.56, 96 60.28, 148.17 0.27 M-0.1 170.84 C32.88 132.89, 65.87 94.94, 148.17 0.27 M0.29 176.48 C32.62 139.29, 64.94 102.1, 153.81 -0.12 M0.29 176.48 C37.28 133.93, 74.26 91.38, 153.81 -0.12 M0.03 182.88 C32.46 145.57, 64.89 108.26, 158.8 0.24 M0.03 182.88 C51.89 123.22, 103.75 63.56, 158.8 0.24 M-0.23 189.27 C56.01 124.57, 112.26 59.87, 164.44 -0.16 M-0.23 189.27 C55.64 125, 111.51 60.73, 164.44 -0.16 M0.16 194.92 C40.69 148.3, 81.21 101.68, 169.43 0.2 M0.16 194.92 C50.97 136.47, 101.77 78.03, 169.43 0.2 M-0.1 201.32 C41.24 153.76, 82.58 106.21, 175.07 -0.19 M-0.1 201.32 C35.19 160.72, 70.48 120.12, 175.07 -0.19 M0.3 206.96 C41.87 159.14, 83.43 111.32, 180.06 0.17 M0.3 206.96 C57.08 141.63, 113.87 76.3, 180.06 0.17 M0.03 213.36 C42.29 164.75, 84.55 116.13, 185.7 -0.23 M0.03 213.36 C38.25 169.39, 76.48 125.42, 185.7 -0.23 M-0.23 219.75 C70.51 138.38, 141.24 57.01, 190.69 0.13 M-0.23 219.75 C44.22 168.62, 88.67 117.49, 190.69 0.13 M0.17 225.4 C56.89 160.15, 113.61 94.9, 196.33 -0.26 M0.17 225.4 C72.11 142.63, 144.06 59.86, 196.33 -0.26 M-0.09 231.8 C67.78 153.71, 135.66 75.63, 201.32 0.1 M-0.09 231.8 C59.45 163.3, 118.99 94.8, 201.32 0.1 M0.3 237.44 C69.01 158.39, 137.72 79.35, 206.96 -0.3 M0.3 237.44 C48.76 181.69, 97.22 125.94, 206.96 -0.3 M0.04 243.84 C84.72 146.42, 169.4 49.01, 211.95 0.06 M0.04 243.84 C49.86 186.52, 99.69 129.2, 211.95 0.06 M-0.22 250.23 C66.98 172.93, 134.18 95.63, 217.59 -0.33 M-0.22 250.23 C85.87 151.2, 171.95 52.17, 217.59 -0.33 M0.17 255.88 C70.51 174.97, 140.84 94.06, 222.58 0.03 M0.17 255.88 C82.01 161.74, 163.84 67.6, 222.58 0.03 M-0.09 262.27 C70.05 181.59, 140.19 100.91, 228.22 -0.36 M-0.09 262.27 C84.64 164.8, 169.38 67.33, 228.22 -0.36 M0.3 267.92 C54.79 205.25, 109.27 142.57, 233.21 0 M0.3 267.92 C69.42 188.41, 138.53 108.91, 233.21 0 M0.04 274.32 C61.39 203.75, 122.73 133.18, 238.19 0.36 M0.04 274.32 C76.31 186.58, 152.58 98.84, 238.19 0.36 M-0.22 280.71 C94.64 171.59, 189.51 62.46, 243.84 -0.04 M-0.22 280.71 C51.04 221.75, 102.3 162.78, 243.84 -0.04 M0.18 286.36 C56.8 221.22, 113.42 156.08, 248.82 0.32 M0.18 286.36 C83.88 190.07, 167.59 93.77, 248.82 0.32 M-0.08 292.75 C52.27 232.52, 104.63 172.29, 254.47 -0.07 M-0.08 292.75 C97.23 180.8, 194.55 68.86, 254.47 -0.07 M0.31 298.4 C84.48 201.57, 168.65 104.74, 259.45 0.29 M0.31 298.4 C91.07 193.99, 181.83 89.58, 259.45 0.29 M0.05 304.8 C105.83 183.11, 211.6 61.43, 265.1 -0.11 M0.05 304.8 C72.67 221.25, 145.29 137.71, 265.1 -0.11 M-0.21 311.19 C106.56 188.36, 213.33 65.53, 270.08 0.25 M-0.21 311.19 C61.12 240.63, 122.46 170.07, 270.08 0.25 M0.18 316.84 C75.17 230.57, 150.16 144.31, 275.73 -0.14 M0.18 316.84 C63.96 243.47, 127.74 170.1, 275.73 -0.14 M-0.08 323.23 C90.8 218.68, 181.69 114.13, 280.71 0.22 M-0.08 323.23 C75.33 236.49, 150.74 149.74, 280.71 0.22 M0.31 328.88 C62.43 257.42, 124.54 185.97, 286.36 -0.18 M0.31 328.88 C111.02 201.53, 221.72 74.18, 286.36 -0.18 M0.05 335.27 C97.66 222.99, 195.26 110.71, 291.34 0.18 M0.05 335.27 C91.2 230.43, 182.34 125.58, 291.34 0.18 M-0.21 341.67 C63.84 268, 127.88 194.32, 296.99 -0.21 M-0.21 341.67 C106.45 218.98, 213.1 96.29, 296.99 -0.21 M0.19 347.32 C88.51 245.72, 176.83 144.12, 301.97 0.15 M0.19 347.32 C70.69 266.21, 141.2 185.1, 301.97 0.15 M3.21 349.94 C105.98 231.71, 208.75 113.49, 307.62 -0.25 M3.21 349.94 C110.12 226.95, 217.04 103.95, 307.62 -0.25 M8.19 350.3 C129.61 210.62, 251.03 70.95, 312.6 0.11 M8.19 350.3 C81.38 266.1, 154.57 181.91, 312.6 0.11 M13.18 350.66 C87.31 265.39, 161.43 180.11, 318.25 -0.28 M13.18 350.66 C90.72 261.46, 168.26 172.26, 318.25 -0.28 M18.82 350.27 C108.7 246.88, 198.57 143.49, 323.23 0.08 M18.82 350.27 C134.15 217.59, 249.48 84.92, 323.23 0.08 M23.81 350.63 C109.29 252.3, 194.76 153.97, 328.88 -0.31 M23.81 350.63 C128.68 229.98, 233.56 109.34, 328.88 -0.31 M29.45 350.23 C139.76 223.34, 250.06 96.45, 333.86 0.05 M29.45 350.23 C99.6 269.53, 169.75 188.84, 333.86 0.05 M34.44 350.59 C152.45 214.84, 270.46 79.08, 339.51 -0.35 M34.44 350.59 C150.98 216.53, 267.52 82.46, 339.51 -0.35 M40.08 350.2 C107.02 273.19, 173.95 196.19, 344.49 0.01 M40.08 350.2 C104.81 275.73, 169.54 201.27, 344.49 0.01 M45.07 350.56 C163.67 214.12, 282.27 77.68, 349.48 0.37 M45.07 350.56 C141.51 239.61, 237.96 128.67, 349.48 0.37 M50.71 350.16 C119.67 270.83, 188.63 191.5, 355.12 -0.02 M50.71 350.16 C135.59 252.52, 220.47 154.88, 355.12 -0.02 M55.7 350.52 C147.92 244.43, 240.15 138.34, 358.8 1.85 M55.7 350.52 C171.5 217.31, 287.3 84.1, 358.8 1.85 M61.34 350.13 C174.3 220.18, 287.26 90.24, 358.54 8.24 M61.34 350.13 C126.24 275.47, 191.13 200.82, 358.54 8.24 M66.33 350.49 C135.27 271.18, 204.21 191.87, 358.93 13.89 M66.33 350.49 C182.64 216.69, 298.95 82.89, 358.93 13.89 M71.97 350.09 C134.29 278.4, 196.62 206.71, 358.67 20.28 M71.97 350.09 C174.18 232.52, 276.38 114.95, 358.67 20.28 M76.96 350.45 C155.25 260.39, 233.53 170.33, 359.07 25.93 M76.96 350.45 C152.82 263.18, 228.69 175.91, 359.07 25.93 M82.6 350.06 C169.42 250.19, 256.23 150.32, 358.8 32.33 M82.6 350.06 C152.87 269.22, 223.15 188.38, 358.8 32.33 M87.59 350.42 C145.28 284.06, 202.97 217.69, 358.54 38.72 M87.59 350.42 C165.62 260.66, 243.65 170.9, 358.54 38.72 M93.23 350.02 C195.76 232.08, 298.28 114.14, 358.94 44.37 M93.23 350.02 C148.85 286.05, 204.46 222.07, 358.94 44.37 M98.22 350.38 C153.9 286.33, 209.59 222.27, 358.68 50.76 M98.22 350.38 C158.72 280.79, 219.22 211.19, 358.68 50.76 M103.86 349.99 C202.38 236.65, 300.9 123.32, 359.07 56.41 M103.86 349.99 C194.27 245.99, 284.67 142, 359.07 56.41 M108.85 350.35 C194.14 252.23, 279.44 154.11, 358.81 62.81 M108.85 350.35 C175.19 274.04, 241.52 197.73, 358.81 62.81 M114.49 349.95 C165.24 291.57, 216 233.19, 358.55 69.2 M114.49 349.95 C201.91 249.39, 289.34 148.82, 358.55 69.2 M119.48 350.31 C178.23 282.73, 236.98 215.15, 358.94 74.85 M119.48 350.31 C176.18 285.09, 232.88 219.86, 358.94 74.85 M125.12 349.92 C214.75 246.82, 304.38 143.71, 358.68 81.24 M125.12 349.92 C201.31 262.28, 277.49 174.64, 358.68 81.24 M130.11 350.28 C190.86 280.4, 251.6 210.52, 359.07 86.89 M130.11 350.28 C217.55 249.69, 304.99 149.11, 359.07 86.89 M135.1 350.64 C221.15 251.65, 307.2 152.66, 358.81 93.28 M135.1 350.64 C202 273.67, 268.91 196.71, 358.81 93.28 M140.74 350.25 C212.48 267.71, 284.23 185.18, 358.55 99.68 M140.74 350.25 C189.11 294.61, 237.47 238.97, 358.55 99.68 M145.73 350.61 C214.15 271.89, 282.57 193.18, 358.95 105.33 M145.73 350.61 C221.14 263.86, 296.55 177.1, 358.95 105.33 M151.37 350.21 C204.21 289.43, 257.05 228.64, 358.69 111.72 M151.37 350.21 C206.23 287.1, 261.09 224, 358.69 111.72 M156.36 350.57 C205.39 294.16, 254.43 237.75, 359.08 117.37 M156.36 350.57 C217.74 279.96, 279.12 209.35, 359.08 117.37 M162 350.18 C210.84 293.99, 259.68 237.81, 358.82 123.76 M162 350.18 C221.59 281.62, 281.18 213.07, 358.82 123.76 M166.99 350.54 C212.2 298.53, 257.41 246.52, 358.56 130.16 M166.99 350.54 C242.68 263.46, 318.37 176.39, 358.56 130.16 M172.63 350.14 C210.76 306.28, 248.89 262.42, 358.95 135.8 M172.63 350.14 C231.46 282.47, 290.28 214.8, 358.95 135.8 M177.62 350.5 C237.5 281.62, 297.37 212.74, 358.69 142.2 M177.62 350.5 C216.6 305.66, 255.58 260.82, 358.69 142.2 M183.26 350.11 C219.98 307.87, 256.7 265.62, 359.08 147.85 M183.26 350.11 C248.06 275.56, 312.87 201.01, 359.08 147.85 M188.25 350.47 C255.2 273.45, 322.15 196.43, 358.82 154.24 M188.25 350.47 C253.73 275.14, 319.21 199.81, 358.82 154.24 M193.89 350.07 C232.48 305.68, 271.07 261.29, 358.56 160.64 M193.89 350.07 C245.33 290.9, 296.77 231.73, 358.56 160.64 M198.88 350.43 C235.22 308.63, 271.56 266.83, 358.96 166.28 M198.88 350.43 C240.09 303.03, 281.3 255.62, 358.96 166.28 M204.52 350.04 C242.1 306.81, 279.67 263.59, 358.69 172.68 M204.52 350.04 C248.32 299.65, 292.12 249.27, 358.69 172.68 M209.51 350.4 C251.22 302.41, 292.94 254.42, 359.09 178.33 M209.51 350.4 C243.67 311.1, 277.83 271.8, 359.09 178.33 M215.15 350 C256.63 302.29, 298.11 254.57, 358.83 184.72 M215.15 350 C244.85 315.84, 274.54 281.68, 358.83 184.72 M220.14 350.36 C266.07 297.52, 312.01 244.68, 358.57 191.12 M220.14 350.36 C251.3 314.51, 282.47 278.66, 358.57 191.12 M225.78 349.97 C253.75 317.8, 281.72 285.62, 358.96 196.76 M225.78 349.97 C264.27 305.69, 302.76 261.42, 358.96 196.76 M230.77 350.33 C257.46 319.63, 284.15 288.92, 358.7 203.16 M230.77 350.33 C257.89 319.13, 285.02 287.92, 358.7 203.16 M236.41 349.94 C277.81 302.31, 319.21 254.69, 359.09 208.8 M236.41 349.94 C276.39 303.95, 316.36 257.96, 359.09 208.8 M241.4 350.3 C273.24 313.67, 305.07 277.04, 358.83 215.2 M241.4 350.3 C275.37 311.21, 309.35 272.13, 358.83 215.2 M246.39 350.66 C290.13 300.34, 333.87 250.02, 358.57 221.6 M246.39 350.66 C291.03 299.3, 335.67 247.95, 358.57 221.6 M252.03 350.26 C286.27 310.87, 320.51 271.48, 358.97 227.24 M252.03 350.26 C294.08 301.89, 336.12 253.52, 358.97 227.24 M257.02 350.62 C295.18 306.72, 333.34 262.82, 358.7 233.64 M257.02 350.62 C294.84 307.11, 332.66 263.6, 358.7 233.64 M262.66 350.23 C291.19 317.4, 319.72 284.58, 359.1 239.28 M262.66 350.23 C300.83 306.31, 339.01 262.4, 359.1 239.28 M267.65 350.59 C294.15 320.1, 320.65 289.61, 358.84 245.68 M267.65 350.59 C285.93 329.55, 304.22 308.51, 358.84 245.68 M273.29 350.19 C305.45 313.19, 337.61 276.2, 358.58 252.08 M273.29 350.19 C290.8 330.05, 308.31 309.91, 358.58 252.08 M278.28 350.55 C296.19 329.94, 314.1 309.34, 358.97 257.72 M278.28 350.55 C296.21 329.92, 314.14 309.3, 358.97 257.72 M283.92 350.16 C305.01 325.89, 326.1 301.63, 358.71 264.12 M283.92 350.16 C303.78 327.3, 323.65 304.45, 358.71 264.12 M288.91 350.52 C306.07 330.78, 323.23 311.03, 359.1 269.76 M288.91 350.52 C307.26 329.4, 325.61 308.29, 359.1 269.76 M294.55 350.12 C318.19 322.92, 341.84 295.72, 358.84 276.16 M294.55 350.12 C311.05 331.13, 327.56 312.15, 358.84 276.16 M299.54 350.48 C318.56 328.59, 337.59 306.71, 358.58 282.56 M299.54 350.48 C318.95 328.15, 338.36 305.83, 358.58 282.56 M305.18 350.09 C322.96 329.63, 340.75 309.17, 358.98 288.2 M305.18 350.09 C326.4 325.67, 347.63 301.25, 358.98 288.2 M310.17 350.45 C320.29 338.8, 330.42 327.15, 358.71 294.6 M310.17 350.45 C325.72 332.56, 341.27 314.66, 358.71 294.6 M315.81 350.05 C329.05 334.82, 342.29 319.6, 359.11 300.24 M315.81 350.05 C330.14 333.57, 344.46 317.09, 359.11 300.24 M320.8 350.41 C333.95 335.28, 347.11 320.14, 358.85 306.64 M320.8 350.41 C332.92 336.46, 345.05 322.52, 358.85 306.64 M326.44 350.02 C338.25 336.43, 350.07 322.83, 358.59 313.04 M326.44 350.02 C334.59 340.64, 342.74 331.27, 358.59 313.04 M331.43 350.38 C341.49 338.8, 351.56 327.22, 358.98 318.68 M331.43 350.38 C339.47 341.13, 347.51 331.87, 358.98 318.68 M337.07 349.99 C342.04 344.27, 347 338.56, 358.72 325.08 M337.07 349.99 C345.43 340.37, 353.79 330.75, 358.72 325.08 M342.06 350.35 C348.66 342.74, 355.27 335.14, 359.11 330.72 M342.06 350.35 C348.78 342.61, 355.5 334.88, 359.11 330.72 M347.7 349.95 C351.53 345.54, 355.37 341.13, 358.85 337.12 M347.7 349.95 C350.92 346.25, 354.13 342.55, 358.85 337.12 M352.69 350.31 C354.59 348.13, 356.48 345.94, 358.59 343.52 M352.69 350.31 C354.25 348.51, 355.82 346.7, 358.59 343.52" stroke="#fff" stroke-width="0.5" fill="none"></path><path d="M0 0 C125.61 0, 251.22 0, 356.67 0 M0 0 C133.22 0, 266.44 0, 356.67 0 M356.67 0 C356.67 82.95, 356.67 165.89, 356.67 347.78 M356.67 0 C356.67 93.93, 356.67 187.86, 356.67 347.78 M356.67 347.78 C247.33 347.78, 137.99 347.78, 0 347.78 M356.67 347.78 C227.92 347.78, 99.16 347.78, 0 347.78 M0 347.78 C0 255.76, 0 163.73, 0 0 M0 347.78 C0 249.01, 0 150.25, 0 0" stroke="#000000" stroke-width="1" fill="none"></path></g><g transform="translate(105.52080301633214 27.154092603181198) rotate(0 82.5 15)"><text x="82.5" y="21" font-family="Virgil, Segoe UI Emoji" font-size="23.46938775510202px" fill="#000000" text-anchor="middle" style="white-space: pre;" direction="ltr">Let's practice</text></g><g transform="translate(99.4488086027959 85.83584403168743) rotate(0 20 19.5)"><text x="20" y="27" font-family="Virgil, Segoe UI Emoji" font-size="28px" fill="#000000" text-anchor="middle" style="white-space: pre;" direction="rtl">کون</text></g><g transform="translate(223.060531346704 91.20778218808846) rotate(0 34.5 16)"><text x="34.5" y="23" font-family="Virgil, Segoe UI Emoji" font-size="23.433516823172702px" fill="#000" text-anchor="middle" style="white-space: pre;" direction="rtl">ک+و+ن</text></g><g transform="translate(91.49560341798042 120.11777404388704) rotate(0 25 20)"><text x="25" y="28" font-family="Virgil, Segoe UI Emoji" font-size="29.111111111111125px" fill="#000000" text-anchor="middle" style="white-space: pre;" direction="rtl">بکس</text></g><g transform="translate(200.29785227044886 124.75541808273647) rotate(0 43.5 17)"><text x="43.5" y="24" font-family="Virgil, Segoe UI Emoji" font-size="24.363418284409725px" fill="#000000" text-anchor="middle" style="white-space: pre;" direction="rtl">ب+ک+س</text></g><g transform="translate(85.01429357445159 169.07350425822096) rotate(0 27 20)"><text x="27" y="28" font-family="Virgil, Segoe UI Emoji" font-size="29.12444789851476px" fill="#000000" text-anchor="middle" style="white-space: pre;" direction="rtl">بکری</text></g><g transform="translate(192.45018354644708 174.86429479209346) rotate(0 53 17)"><text x="53" y="24" font-family="Virgil, Segoe UI Emoji" font-size="24.37457999269509px" fill="#000000" text-anchor="middle" style="white-space: pre;" direction="rtl">ب+ک+ر+ی</text></g><g transform="translate(97.92806378450405 306.0651638109766) rotate(0 21 19.5)"><text x="21" y="27" font-family="Virgil, Segoe UI Emoji" font-size="28px" fill="#000000" text-anchor="middle" style="white-space: pre;" direction="rtl">گگن</text></g><g transform="translate(183.8774209159128 312.7031916713413) rotate(0 38.5 16)"><text x="38.5" y="23" font-family="Virgil, Segoe UI Emoji" font-size="23.433516823172702px" fill="#000000" text-anchor="middle" style="white-space: pre;" direction="rtl">گ+گ+ن</text></g><g transform="translate(102.4488086027959 259.8132888457285) rotate(0 17 19.5)"><text x="17" y="27" font-family="Virgil, Segoe UI Emoji" font-size="28px" fill="#000000" text-anchor="middle" style="white-space: pre;" direction="rtl">اگر</text></g><g transform="translate(214.02263464396128 264.40410977469037) rotate(0 32 16)"><text x="32" y="23" font-family="Virgil, Segoe UI Emoji" font-size="23.433516823172702px" fill="#000000" text-anchor="middle" style="white-space: pre;" direction="rtl">ا+گ+ر</text></g><g transform="translate(94.25067064852738 216.4612827228584) rotate(0 26.5 19.5)"><text x="26.5" y="27" font-family="Virgil, Segoe UI Emoji" font-size="28px" fill="#000000" text-anchor="middle" style="white-space: pre;" direction="rtl">ادرک</text></g><g transform="translate(203.1943104851198 222.48415190212563) rotate(0 44 16)"><text x="44" y="23" font-family="Virgil, Segoe UI Emoji" font-size="23.433516823172702px" fill="#000000" text-anchor="middle" style="white-space: pre;" direction="rtl">ا+د+ر+ک</text></g><g stroke-linecap="round"><g transform="translate(10 70) rotate(0 180 0)"><path d="M0 0 C60 0, 300 0, 360 0" stroke="#343a40" stroke-width="1.5" fill="none" stroke-dasharray="1.5 7"></path></g></g><g stroke-linecap="round"><g transform="translate(10 130) rotate(0 180 0)"><path d="M0 0 C60 0, 300 0, 360 0" stroke="#343a40" stroke-width="1.5" fill="none" stroke-dasharray="1.5 7"></path></g></g><g stroke-linecap="round"><g transform="translate(10 210) rotate(0 180 0)"><path d="M0 0 C60 0, 300 0, 360 0" stroke="#343a40" stroke-width="1.5" fill="none" stroke-dasharray="1.5 7"></path></g></g><g stroke-linecap="round"><g transform="translate(10 250) rotate(0 180 0)"><path d="M0 0 C60 0, 300 0, 360 0" stroke="#343a40" stroke-width="1.5" fill="none" stroke-dasharray="1.5 7"></path></g></g><g stroke-linecap="round"><g transform="translate(10 170) rotate(0 180 0)"><path d="M0 0 C60 0, 300 0, 360 0" stroke="#343a40" stroke-width="1.5" fill="none" stroke-dasharray="1.5 7"></path></g></g><g stroke-linecap="round"><g transform="translate(10 290) rotate(0 180 0)"><path d="M0 0 C60 0, 300 0, 360 0" stroke="#343a40" stroke-width="1.5" fill="none" stroke-dasharray="1.5 7"></path></g></g><g stroke-linecap="round"><g transform="translate(170 70) rotate(0 0 140)"><path d="M0 0 C0 46.67, 0 233.33, 0 280" stroke="#343a40" stroke-width="1.5" fill="none" stroke-dasharray="1.5 7"></path></g></g></svg>