<svg version="1.1" xmlns="http://www.w3.org/2000/svg" viewBox="0 0 380 367.7777777777774" width="380" height="367.7777777777774">
  <!-- svg-source:excalidraw -->
  
  <defs>
    <style>
      @font-face {
        font-family: "Virgil";
        src: url("https://excalidraw.com/Virgil.woff2");
      }
      @font-face {
        font-family: "Cascadia";
        src: url("https://excalidraw.com/Cascadia.woff2");
      }
    </style>
  </defs>
  <rect x="0" y="0" width="380" height="367.7777777777774" fill="#ffffff"></rect><g stroke-linecap="round" transform="translate(10 10) rotate(0 178.33333333333326 173.8888888888887)"><path d="M0 0 C0 0, 0 0, 0 0 M0 0 C0 0, 0 0, 0 0 M-0.26 6.4 C1.47 4.41, 3.2 2.42, 4.99 0.36 M-0.26 6.4 C1.21 4.7, 2.69 3, 4.99 0.36 M0.13 12.04 C4.09 7.49, 8.05 2.94, 10.63 -0.03 M0.13 12.04 C2.64 9.16, 5.14 6.28, 10.63 -0.03 M-0.13 18.44 C4.44 13.18, 9.01 7.92, 15.62 0.33 M-0.13 18.44 C5.26 12.24, 10.64 6.05, 15.62 0.33 M0.27 24.08 C7.11 16.2, 13.96 8.33, 21.26 -0.07 M0.27 24.08 C7.38 15.9, 14.49 7.72, 21.26 -0.07 M0 30.48 C10.43 18.49, 20.86 6.49, 26.25 0.29 M0 30.48 C7.98 21.3, 15.96 12.12, 26.25 0.29 M-0.26 36.88 C8.77 26.5, 17.79 16.11, 31.89 -0.1 M-0.26 36.88 C8.78 26.49, 17.81 16.1, 31.89 -0.1 M0.14 42.52 C12.19 28.66, 24.24 14.8, 36.88 0.26 M0.14 42.52 C8.27 33.17, 16.4 23.81, 36.88 0.26 M-0.12 48.92 C11.55 35.49, 23.23 22.06, 42.52 -0.14 M-0.12 48.92 C9.53 37.82, 19.18 26.72, 42.52 -0.14 M0.27 54.56 C16.61 35.76, 32.95 16.97, 47.51 0.22 M0.27 54.56 C13.82 38.97, 27.38 23.38, 47.51 0.22 M0.01 60.96 C14.59 44.19, 29.16 27.42, 53.15 -0.17 M0.01 60.96 C17.27 41.1, 34.54 21.24, 53.15 -0.17 M-0.25 67.36 C11.46 53.88, 23.17 40.41, 58.14 0.19 M-0.25 67.36 C19.19 44.99, 38.63 22.63, 58.14 0.19 M0.14 73 C18.43 51.97, 36.71 30.94, 63.78 -0.21 M0.14 73 C13.88 57.2, 27.62 41.4, 63.78 -0.21 M-0.12 79.4 C15.55 61.38, 31.21 43.36, 68.77 0.15 M-0.12 79.4 C22.66 53.19, 45.44 26.99, 68.77 0.15 M0.28 85.04 C19.08 63.41, 37.88 41.78, 74.41 -0.24 M0.28 85.04 C24.56 57.11, 48.84 29.18, 74.41 -0.24 M0.01 91.44 C19.68 68.82, 39.35 46.19, 79.4 0.12 M0.01 91.44 C23.06 64.93, 46.1 38.42, 79.4 0.12 M-0.25 97.84 C29.61 63.49, 59.47 29.14, 85.04 -0.28 M-0.25 97.84 C31.92 60.83, 64.08 23.83, 85.04 -0.28 M0.15 103.48 C24.31 75.68, 48.48 47.88, 90.03 0.08 M0.15 103.48 C32.61 66.13, 65.08 28.79, 90.03 0.08 M-0.11 109.88 C27.62 77.98, 55.35 46.08, 95.67 -0.31 M-0.11 109.88 C25.86 80, 51.83 50.13, 95.67 -0.31 M0.28 115.52 C38.83 71.17, 77.38 26.83, 100.66 0.05 M0.28 115.52 C33.59 77.21, 66.89 38.9, 100.66 0.05 M0.02 121.92 C23.46 94.95, 46.9 67.98, 106.3 -0.34 M0.02 121.92 C21.8 96.87, 43.57 71.82, 106.3 -0.34 M-0.24 128.32 C30.15 93.36, 60.54 58.4, 111.29 0.02 M-0.24 128.32 C36.51 86.04, 73.26 43.76, 111.29 0.02 M0.15 133.96 C26.62 103.51, 53.09 73.07, 116.27 0.38 M0.15 133.96 C42.3 85.48, 84.44 36.99, 116.27 0.38 M-0.11 140.36 C36.4 98.35, 72.92 56.35, 121.92 -0.02 M-0.11 140.36 C39.06 95.3, 78.22 50.25, 121.92 -0.02 M0.29 146 C29.68 112.19, 59.07 78.37, 126.91 0.34 M0.29 146 C27.99 114.13, 55.7 82.25, 126.91 0.34 M0.02 152.4 C28.56 119.57, 57.1 86.74, 132.55 -0.05 M0.02 152.4 C28.07 120.13, 56.12 87.87, 132.55 -0.05 M-0.24 158.8 C39.68 112.87, 79.6 66.95, 137.54 0.31 M-0.24 158.8 C32.16 121.52, 64.56 84.25, 137.54 0.31 M0.16 164.44 C37.04 122.01, 73.92 79.59, 143.18 -0.09 M0.16 164.44 C49.68 107.47, 99.2 50.5, 143.18 -0.09 M-0.1 170.84 C43.37 120.83, 86.84 70.82, 148.17 0.27 M-0.1 170.84 C53.81 108.81, 107.73 46.78, 148.17 0.27 M0.29 176.48 C38.62 132.39, 76.95 88.3, 153.81 -0.12 M0.29 176.48 C32.3 139.66, 64.31 102.83, 153.81 -0.12 M0.03 182.88 C43.04 133.4, 86.04 83.93, 158.8 0.24 M0.03 182.88 C54.81 119.86, 109.59 56.84, 158.8 0.24 M-0.23 189.27 C49.11 132.52, 98.45 75.76, 164.44 -0.16 M-0.23 189.27 C52.65 128.43, 105.54 67.6, 164.44 -0.16 M0.16 194.92 C48.76 139.01, 97.37 83.1, 169.43 0.2 M0.16 194.92 C35.56 154.2, 70.96 113.48, 169.43 0.2 M-0.1 201.32 C52.9 140.35, 105.9 79.38, 175.07 -0.19 M-0.1 201.32 C60.52 131.58, 121.15 61.84, 175.07 -0.19 M0.3 206.96 C61.82 136.19, 123.34 65.42, 180.06 0.17 M0.3 206.96 C67.67 129.46, 135.04 51.95, 180.06 0.17 M0.03 213.36 C44.44 162.27, 88.85 111.19, 185.7 -0.23 M0.03 213.36 C71.36 131.31, 142.69 49.25, 185.7 -0.23 M-0.23 219.75 C51.77 159.94, 103.77 100.12, 190.69 0.13 M-0.23 219.75 C66.59 142.9, 133.4 66.04, 190.69 0.13 M0.17 225.4 C54.34 163.08, 108.51 100.76, 196.33 -0.26 M0.17 225.4 C54.18 163.26, 108.2 101.12, 196.33 -0.26 M-0.09 231.8 C50.2 173.94, 100.48 116.09, 201.32 0.1 M-0.09 231.8 C46.56 178.12, 93.22 124.45, 201.32 0.1 M0.3 237.44 C55.3 174.17, 110.3 110.89, 206.96 -0.3 M0.3 237.44 C62.03 166.42, 123.77 95.4, 206.96 -0.3 M0.04 243.84 C59.85 175.03, 119.67 106.22, 211.95 0.06 M0.04 243.84 C43.67 193.65, 87.3 143.46, 211.95 0.06 M-0.22 250.23 C53.72 188.18, 107.66 126.12, 217.59 -0.33 M-0.22 250.23 C59.09 182, 118.41 113.76, 217.59 -0.33 M0.17 255.88 C70.04 175.5, 139.91 95.13, 222.58 0.03 M0.17 255.88 C55.29 192.47, 110.41 129.07, 222.58 0.03 M-0.09 262.27 C78.72 171.61, 157.53 80.95, 228.22 -0.36 M-0.09 262.27 C57.75 195.74, 115.59 129.21, 228.22 -0.36 M0.3 267.92 C76.06 180.77, 151.81 93.63, 233.21 0 M0.3 267.92 C51.92 208.54, 103.54 149.16, 233.21 0 M0.04 274.32 C64.15 200.57, 128.25 126.83, 238.19 0.36 M0.04 274.32 C56.71 209.13, 113.38 143.94, 238.19 0.36 M-0.22 280.71 C56.28 215.72, 112.78 150.72, 243.84 -0.04 M-0.22 280.71 C92.66 173.87, 185.54 67.03, 243.84 -0.04 M0.18 286.36 C53.87 224.58, 107.57 162.81, 248.82 0.32 M0.18 286.36 C65.19 211.57, 130.19 136.79, 248.82 0.32 M-0.08 292.75 C97.85 180.1, 195.78 67.44, 254.47 -0.07 M-0.08 292.75 C67.86 214.59, 135.8 136.43, 254.47 -0.07 M0.31 298.4 C95.64 188.74, 190.96 79.07, 259.45 0.29 M0.31 298.4 C77.58 209.5, 154.86 120.61, 259.45 0.29 M0.05 304.8 C72.32 221.66, 144.59 138.52, 265.1 -0.11 M0.05 304.8 C56.26 240.13, 112.47 175.47, 265.1 -0.11 M-0.21 311.19 C106.04 188.96, 212.29 66.73, 270.08 0.25 M-0.21 311.19 C97.52 198.77, 195.25 86.34, 270.08 0.25 M0.18 316.84 C60.54 247.4, 120.9 177.96, 275.73 -0.14 M0.18 316.84 C65.34 241.88, 130.5 166.93, 275.73 -0.14 M-0.08 323.23 C97.04 211.52, 194.15 99.8, 280.71 0.22 M-0.08 323.23 C57.21 257.33, 114.51 191.42, 280.71 0.22 M0.31 328.88 C81.42 235.58, 162.52 142.28, 286.36 -0.18 M0.31 328.88 C100.31 213.84, 200.31 98.81, 286.36 -0.18 M0.05 335.27 C106.74 212.55, 213.43 89.82, 291.34 0.18 M0.05 335.27 C63.31 262.51, 126.56 189.75, 291.34 0.18 M-0.21 341.67 C107.28 218.02, 214.77 94.37, 296.99 -0.21 M-0.21 341.67 C74.1 256.2, 148.4 170.72, 296.99 -0.21 M0.19 347.32 C114.97 215.28, 229.74 83.24, 301.97 0.15 M0.19 347.32 C100.22 232.24, 200.26 117.16, 301.97 0.15 M3.21 349.94 C89.96 250.14, 176.72 150.33, 307.62 -0.25 M3.21 349.94 C71.81 271.02, 140.41 192.11, 307.62 -0.25 M8.19 350.3 C69.1 280.24, 130 210.17, 312.6 0.11 M8.19 350.3 C104.59 239.4, 200.99 128.51, 312.6 0.11 M13.18 350.66 C111.09 238.02, 209.01 125.38, 318.25 -0.28 M13.18 350.66 C90.14 262.12, 167.11 173.58, 318.25 -0.28 M18.82 350.27 C86.83 272.03, 154.85 193.79, 323.23 0.08 M18.82 350.27 C104.5 251.7, 190.19 153.13, 323.23 0.08 M23.81 350.63 C107.08 254.83, 190.35 159.04, 328.88 -0.31 M23.81 350.63 C114.28 246.55, 204.76 142.47, 328.88 -0.31 M29.45 350.23 C131.19 233.19, 232.93 116.15, 333.86 0.05 M29.45 350.23 C143.19 219.39, 256.93 88.55, 333.86 0.05 M34.44 350.59 C150.46 217.12, 266.49 83.65, 339.51 -0.35 M34.44 350.59 C99.42 275.84, 164.4 201.08, 339.51 -0.35 M40.08 350.2 C101.66 279.36, 163.23 208.53, 344.49 0.01 M40.08 350.2 C125.32 252.14, 210.55 154.09, 344.49 0.01 M45.07 350.56 C111.53 274.1, 177.99 197.65, 349.48 0.37 M45.07 350.56 C119.79 264.59, 194.52 178.63, 349.48 0.37 M50.71 350.16 C167.4 215.93, 284.09 81.69, 355.12 -0.02 M50.71 350.16 C150.1 235.83, 249.48 121.5, 355.12 -0.02 M55.7 350.52 C176.38 211.7, 297.06 72.87, 358.8 1.85 M55.7 350.52 C154.78 236.54, 253.87 122.56, 358.8 1.85 M61.34 350.13 C126.44 275.24, 191.54 200.35, 358.54 8.24 M61.34 350.13 C173.7 220.88, 286.05 91.63, 358.54 8.24 M66.33 350.49 C144.45 260.63, 222.56 170.76, 358.93 13.89 M66.33 350.49 C177.31 222.82, 288.29 95.15, 358.93 13.89 M71.97 350.09 C168.6 238.93, 265.23 127.78, 358.67 20.28 M71.97 350.09 C169.08 238.38, 266.19 126.67, 358.67 20.28 M76.96 350.45 C135.6 283, 194.23 215.55, 359.07 25.93 M76.96 350.45 C137.25 281.1, 197.53 211.75, 359.07 25.93 M82.6 350.06 C179.51 238.58, 276.42 127.09, 358.8 32.33 M82.6 350.06 C152.09 270.12, 221.58 190.19, 358.8 32.33 M87.59 350.42 C179.66 244.5, 271.74 138.58, 358.54 38.72 M87.59 350.42 C149.98 278.65, 212.36 206.88, 358.54 38.72 M93.23 350.02 C188.89 239.98, 284.55 129.94, 358.94 44.37 M93.23 350.02 C199.19 228.13, 305.16 106.23, 358.94 44.37 M98.22 350.38 C154.95 285.12, 211.68 219.86, 358.68 50.76 M98.22 350.38 C181.08 255.07, 263.94 159.75, 358.68 50.76 M103.86 349.99 C167.64 276.62, 231.42 203.25, 359.07 56.41 M103.86 349.99 C155.31 290.81, 206.75 231.63, 359.07 56.41 M108.85 350.35 C192.02 254.67, 275.2 158.99, 358.81 62.81 M108.85 350.35 C197.73 248.11, 286.61 145.86, 358.81 62.81 M114.49 349.95 C210.14 239.93, 305.79 129.9, 358.55 69.2 M114.49 349.95 C192.64 260.06, 270.79 170.16, 358.55 69.2 M119.48 350.31 C170.11 292.07, 220.75 233.82, 358.94 74.85 M119.48 350.31 C193.69 264.95, 267.9 179.58, 358.94 74.85 M125.12 349.92 C205.31 257.68, 285.49 165.44, 358.68 81.24 M125.12 349.92 C207.81 254.8, 290.49 159.68, 358.68 81.24 M130.11 350.28 C202.62 266.87, 275.12 183.46, 359.07 86.89 M130.11 350.28 C207.38 261.39, 284.66 172.49, 359.07 86.89 M135.1 350.64 C212.81 261.25, 290.51 171.85, 358.81 93.28 M135.1 350.64 C211.48 262.77, 287.86 174.9, 358.81 93.28 M140.74 350.25 C216.35 263.26, 291.96 176.28, 358.55 99.68 M140.74 350.25 C202.55 279.14, 264.36 208.04, 358.55 99.68 M145.73 350.61 C195.45 293.4, 245.18 236.2, 358.95 105.33 M145.73 350.61 C201.14 286.86, 256.55 223.11, 358.95 105.33 M151.37 350.21 C221.34 269.72, 291.3 189.24, 358.69 111.72 M151.37 350.21 C230.82 258.82, 310.27 167.42, 358.69 111.72 M156.36 350.57 C220.42 276.88, 284.48 203.18, 359.08 117.37 M156.36 350.57 C222.43 274.56, 288.5 198.55, 359.08 117.37 M162 350.18 C232.52 269.05, 303.04 187.93, 358.82 123.76 M162 350.18 C232.74 268.8, 303.49 187.41, 358.82 123.76 M166.99 350.54 C223.84 285.14, 280.69 219.73, 358.56 130.16 M166.99 350.54 C223.53 285.49, 280.07 220.45, 358.56 130.16 M172.63 350.14 C212.89 303.83, 253.15 257.51, 358.95 135.8 M172.63 350.14 C233.19 280.48, 293.74 210.82, 358.95 135.8 M177.62 350.5 C243.26 274.99, 308.9 199.48, 358.69 142.2 M177.62 350.5 C243.2 275.06, 308.78 199.61, 358.69 142.2 M183.26 350.11 C245.38 278.65, 307.5 207.18, 359.08 147.85 M183.26 350.11 C232.78 293.14, 282.3 236.18, 359.08 147.85 M188.25 350.47 C237.06 294.32, 285.86 238.17, 358.82 154.24 M188.25 350.47 C232.73 299.3, 277.21 248.13, 358.82 154.24 M193.89 350.07 C251.26 284.08, 308.62 218.09, 358.56 160.64 M193.89 350.07 C230.13 308.38, 266.37 266.7, 358.56 160.64 M198.88 350.43 C251.15 290.3, 303.42 230.18, 358.96 166.28 M198.88 350.43 C257.1 283.46, 315.32 216.49, 358.96 166.28 M204.52 350.04 C237.76 311.8, 271 273.57, 358.69 172.68 M204.52 350.04 C238.46 311, 272.39 271.96, 358.69 172.68 M209.51 350.4 C258.64 293.88, 307.77 237.36, 359.09 178.33 M209.51 350.4 C266.76 284.54, 324.02 218.67, 359.09 178.33 M215.15 350 C259.01 299.55, 302.86 249.1, 358.83 184.72 M215.15 350 C265.53 292.05, 315.91 234.1, 358.83 184.72 M220.14 350.36 C250.96 314.9, 281.79 279.44, 358.57 191.12 M220.14 350.36 C257.36 307.54, 294.58 264.72, 358.57 191.12 M225.78 349.97 C252.89 318.79, 279.99 287.61, 358.96 196.76 M225.78 349.97 C275 293.35, 324.22 236.73, 358.96 196.76 M230.77 350.33 C272.46 302.37, 314.15 254.41, 358.7 203.16 M230.77 350.33 C270.69 304.4, 310.61 258.48, 358.7 203.16 M236.41 349.94 C264.95 317.11, 293.48 284.28, 359.09 208.8 M236.41 349.94 C263.88 318.33, 291.35 286.73, 359.09 208.8 M241.4 350.3 C269.66 317.79, 297.92 285.28, 358.83 215.2 M241.4 350.3 C269.73 317.7, 298.07 285.1, 358.83 215.2 M246.39 350.66 C285.71 305.42, 325.03 260.18, 358.57 221.6 M246.39 350.66 C285.62 305.52, 324.86 260.39, 358.57 221.6 M252.03 350.26 C290.05 306.52, 328.07 262.78, 358.97 227.24 M252.03 350.26 C286.75 310.32, 321.47 270.38, 358.97 227.24 M257.02 350.62 C282.57 321.22, 308.13 291.82, 358.7 233.64 M257.02 350.62 C294.86 307.09, 332.7 263.55, 358.7 233.64 M262.66 350.23 C295.94 311.94, 329.21 273.66, 359.1 239.28 M262.66 350.23 C288.64 320.34, 314.61 290.46, 359.1 239.28 M267.65 350.59 C291.81 322.79, 315.97 295, 358.84 245.68 M267.65 350.59 C286.37 329.05, 305.1 307.5, 358.84 245.68 M273.29 350.19 C296.28 323.74, 319.28 297.29, 358.58 252.08 M273.29 350.19 C300.71 318.64, 328.14 287.09, 358.58 252.08 M278.28 350.55 C299.04 326.66, 319.81 302.78, 358.97 257.72 M278.28 350.55 C306.73 317.82, 335.18 285.1, 358.97 257.72 M283.92 350.16 C304.53 326.45, 325.14 302.74, 358.71 264.12 M283.92 350.16 C311.33 318.62, 338.75 287.08, 358.71 264.12 M288.91 350.52 C312.09 323.85, 335.27 297.18, 359.1 269.76 M288.91 350.52 C303.37 333.87, 317.84 317.23, 359.1 269.76 M294.55 350.12 C313.53 328.29, 332.51 306.45, 358.84 276.16 M294.55 350.12 C309.25 333.21, 323.96 316.29, 358.84 276.16 M299.54 350.48 C318.52 328.64, 337.5 306.81, 358.58 282.56 M299.54 350.48 C320.05 326.89, 340.56 303.29, 358.58 282.56 M305.18 350.09 C323.84 328.63, 342.49 307.16, 358.98 288.2 M305.18 350.09 C325.16 327.1, 345.14 304.12, 358.98 288.2 M310.17 350.45 C324.96 333.43, 339.76 316.4, 358.71 294.6 M310.17 350.45 C322.15 336.67, 334.13 322.88, 358.71 294.6 M315.81 350.05 C325.96 338.37, 336.12 326.69, 359.11 300.24 M315.81 350.05 C333 330.27, 350.2 310.5, 359.11 300.24 M320.8 350.41 C331.82 337.73, 342.85 325.04, 358.85 306.64 M320.8 350.41 C334.64 334.49, 348.48 318.56, 358.85 306.64 M326.44 350.02 C334.43 340.83, 342.41 331.64, 358.59 313.04 M326.44 350.02 C337.6 337.18, 348.77 324.33, 358.59 313.04 M331.43 350.38 C340.3 340.17, 349.17 329.97, 358.98 318.68 M331.43 350.38 C338.23 342.55, 345.04 334.72, 358.98 318.68 M337.07 349.99 C342.8 343.39, 348.53 336.8, 358.72 325.08 M337.07 349.99 C341.46 344.94, 345.84 339.89, 358.72 325.08 M342.06 350.35 C348.59 342.83, 355.12 335.31, 359.11 330.72 M342.06 350.35 C346.05 345.75, 350.04 341.16, 359.11 330.72 M347.7 349.95 C350.43 346.81, 353.17 343.66, 358.85 337.12 M347.7 349.95 C351.97 345.04, 356.24 340.13, 358.85 337.12 M352.69 350.31 C354.4 348.34, 356.11 346.37, 358.59 343.52 M352.69 350.31 C354.76 347.92, 356.84 345.53, 358.59 343.52" stroke="#fff" stroke-width="0.5" fill="none"></path><path d="M0 0 C131.98 0, 263.95 0, 356.67 0 M0 0 C112.62 0, 225.23 0, 356.67 0 M356.67 0 C356.67 92.12, 356.67 184.24, 356.67 347.78 M356.67 0 C356.67 118.9, 356.67 237.8, 356.67 347.78 M356.67 347.78 C270.3 347.78, 183.93 347.78, 0 347.78 M356.67 347.78 C261.98 347.78, 167.29 347.78, 0 347.78 M0 347.78 C0 235.53, 0 123.28, 0 0 M0 347.78 C0 241.25, 0 134.72, 0 0" stroke="#000000" stroke-width="1" fill="none"></path></g><g transform="translate(149.02080301633214 27.154092603181198) rotate(0 39 15)"><text x="39" y="21" font-family="Virgil, Segoe UI Emoji" font-size="23.46938775510202px" fill="#000000" text-anchor="middle" style="white-space: pre;" direction="ltr">Answer</text></g><g transform="translate(99.4488086027959 85.83584403168788) rotate(0 20 19.5)"><text x="20" y="27" font-family="Virgil, Segoe UI Emoji" font-size="28px" fill="#000000" text-anchor="middle" style="white-space: pre;" direction="rtl">کون</text></g><g transform="translate(223.060531346704 91.20778218808846) rotate(0 34.5 16)"><text x="34.5" y="23" font-family="Virgil, Segoe UI Emoji" font-size="23.433516823172702px" fill="#000" text-anchor="middle" style="white-space: pre;" direction="rtl">ک+و+ن</text></g><g transform="translate(91.49560341798042 120.11777404388704) rotate(0 25 20)"><text x="25" y="28" font-family="Virgil, Segoe UI Emoji" font-size="29.111111111111125px" fill="#000000" text-anchor="middle" style="white-space: pre;" direction="rtl">بکس</text></g><g transform="translate(200.29785227044886 124.75541808273647) rotate(0 43.5 17)"><text x="43.5" y="24" font-family="Virgil, Segoe UI Emoji" font-size="24.363418284409725px" fill="#000000" text-anchor="middle" style="white-space: pre;" direction="rtl">ب+ک+س</text></g><g transform="translate(85.01429357445159 169.07350425822096) rotate(0 27 20)"><text x="27" y="28" font-family="Virgil, Segoe UI Emoji" font-size="29.12444789851476px" fill="#000000" text-anchor="middle" style="white-space: pre;" direction="rtl">بکری</text></g><g transform="translate(192.45018354644708 174.86429479209346) rotate(0 53 17)"><text x="53" y="24" font-family="Virgil, Segoe UI Emoji" font-size="24.37457999269509px" fill="#000000" text-anchor="middle" style="white-space: pre;" direction="rtl">ب+ک+ر+ی</text></g><g transform="translate(97.92806378450405 306.0651638109766) rotate(0 21 19.5)"><text x="21" y="27" font-family="Virgil, Segoe UI Emoji" font-size="28px" fill="#000000" text-anchor="middle" style="white-space: pre;" direction="rtl">گگن</text></g><g transform="translate(183.8774209159128 312.7031916713413) rotate(0 38.5 16)"><text x="38.5" y="23" font-family="Virgil, Segoe UI Emoji" font-size="23.433516823172702px" fill="#000000" text-anchor="middle" style="white-space: pre;" direction="rtl">گ+گ+ن</text></g><g transform="translate(102.4488086027959 259.8132888457285) rotate(0 17 19.5)"><text x="17" y="27" font-family="Virgil, Segoe UI Emoji" font-size="28px" fill="#000000" text-anchor="middle" style="white-space: pre;" direction="rtl">اگر</text></g><g transform="translate(214.02263464396128 264.40410977469037) rotate(0 32 16)"><text x="32" y="23" font-family="Virgil, Segoe UI Emoji" font-size="23.433516823172702px" fill="#000000" text-anchor="middle" style="white-space: pre;" direction="rtl">ا+گ+ر</text></g><g transform="translate(94.25067064852738 216.4612827228584) rotate(0 26.5 19.5)"><text x="26.5" y="27" font-family="Virgil, Segoe UI Emoji" font-size="28px" fill="#000000" text-anchor="middle" style="white-space: pre;" direction="rtl">ادرک</text></g><g transform="translate(203.1943104851198 222.48415190212563) rotate(0 44 16)"><text x="44" y="23" font-family="Virgil, Segoe UI Emoji" font-size="23.433516823172702px" fill="#000000" text-anchor="middle" style="white-space: pre;" direction="rtl">ا+د+ر+ک</text></g><g stroke-linecap="round"><g transform="translate(10 70) rotate(0 180 0)"><path d="M0 0 C60 0, 300 0, 360 0" stroke="#343a40" stroke-width="1.5" fill="none" stroke-dasharray="1.5 7"></path></g></g><g stroke-linecap="round"><g transform="translate(10 130) rotate(0 180 0)"><path d="M0 0 C60 0, 300 0, 360 0" stroke="#343a40" stroke-width="1.5" fill="none" stroke-dasharray="1.5 7"></path></g></g><g stroke-linecap="round"><g transform="translate(10 210) rotate(0 180 0)"><path d="M0 0 C60 0, 300 0, 360 0" stroke="#343a40" stroke-width="1.5" fill="none" stroke-dasharray="1.5 7"></path></g></g><g stroke-linecap="round"><g transform="translate(10 250) rotate(0 180 0)"><path d="M0 0 C60 0, 300 0, 360 0" stroke="#343a40" stroke-width="1.5" fill="none" stroke-dasharray="1.5 7"></path></g></g><g stroke-linecap="round"><g transform="translate(10 170) rotate(0 180 0)"><path d="M0 0 C60 0, 300 0, 360 0" stroke="#343a40" stroke-width="1.5" fill="none" stroke-dasharray="1.5 7"></path></g></g><g stroke-linecap="round"><g transform="translate(10 290) rotate(0 180 0)"><path d="M0 0 C60 0, 300 0, 360 0" stroke="#343a40" stroke-width="1.5" fill="none" stroke-dasharray="1.5 7"></path></g></g><g stroke-linecap="round"><g transform="translate(170 70) rotate(0 0 140)"><path d="M0 0 C0 46.67, 0 233.33, 0 280" stroke="#343a40" stroke-width="1.5" fill="none" stroke-dasharray="1.5 7"></path></g></g><g transform="translate(318 90) rotate(0 20.5 10)"><text x="20.5" y="14" font-family="Virgil, Segoe UI Emoji" font-size="16px" fill="#d9480f" text-anchor="middle" style="white-space: pre;" direction="ltr">(who)</text></g><g transform="translate(35.5 90) rotate(0 24.5 10)"><text x="24.5" y="14" font-family="Virgil, Segoe UI Emoji" font-size="16px" fill="#e67700" text-anchor="middle" style="white-space: pre;" direction="ltr">(kaun)</text></g><g transform="translate(310.5 130) rotate(0 20 10)"><text x="20" y="14" font-family="Virgil, Segoe UI Emoji" font-size="16px" fill="#d9480f" text-anchor="middle" style="white-space: pre;" direction="ltr">(box)</text></g><g transform="translate(30 130) rotate(0 24.5 10)"><text x="24.5" y="14" font-family="Virgil, Segoe UI Emoji" font-size="16px" fill="#e67700" text-anchor="middle" style="white-space: pre;" direction="ltr">(baks)</text></g><g transform="translate(304.5 190) rotate(0 25.5 10)"><text x="25.5" y="14" font-family="Virgil, Segoe UI Emoji" font-size="16px" fill="#d9480f" text-anchor="middle" style="white-space: pre;" direction="ltr">(goat)</text></g><g transform="translate(29 190) rotate(0 25.5 10)"><text x="25.5" y="14" font-family="Virgil, Segoe UI Emoji" font-size="16px" fill="#e67700" text-anchor="middle" style="white-space: pre;" direction="ltr">(bakri)</text></g><g transform="translate(307 230) rotate(0 28.5 10)"><text x="28.5" y="14" font-family="Virgil, Segoe UI Emoji" font-size="16px" fill="#d9480f" text-anchor="middle" style="white-space: pre;" direction="ltr">(ginger)</text></g><g transform="translate(26 230) rotate(0 29.5 10)"><text x="29.5" y="14" font-family="Virgil, Segoe UI Emoji" font-size="16px" fill="#e67700" text-anchor="middle" style="white-space: pre;" direction="ltr">(adrak)</text></g><g transform="translate(326 270) rotate(0 12.5 10)"><text x="12.5" y="14" font-family="Virgil, Segoe UI Emoji" font-size="16px" fill="#d9480f" text-anchor="middle" style="white-space: pre;" direction="ltr">(if)</text></g><g transform="translate(34.5 270) rotate(0 25 10)"><text x="25" y="14" font-family="Virgil, Segoe UI Emoji" font-size="16px" fill="#e67700" text-anchor="middle" style="white-space: pre;" direction="ltr">(agar)</text></g><g transform="translate(303.5 310) rotate(0 19 10)"><text x="19" y="14" font-family="Virgil, Segoe UI Emoji" font-size="16px" fill="#d9480f" text-anchor="middle" style="white-space: pre;" direction="ltr">(sky)</text></g><g transform="translate(31 310) rotate(0 24 10)"><text x="24" y="14" font-family="Virgil, Segoe UI Emoji" font-size="16px" fill="#e67700" text-anchor="middle" style="white-space: pre;" direction="ltr">(ggan)</text></g></svg>