<svg version="1.1" xmlns="http://www.w3.org/2000/svg" viewBox="0 0 379 373" width="379" height="373">
  <!-- svg-source:excalidraw -->
  
  <defs>
    <style>
      @font-face {
        font-family: "Virgil";
        src: url("../Virgil.woff2");;
      }
      
    </style>
  </defs>
  <rect x="0" y="0" width="379" height="373" fill="#ffffff"></rect><g stroke-linecap="round" transform="translate(10 10) rotate(0 179.5 176.5)"><path d="M0 0 C93.73 0, 187.46 0, 359 0 M0 0 C122.35 0, 244.69 0, 359 0 M359 0 C359 131.41, 359 262.82, 359 353 M359 0 C359 133.63, 359 267.27, 359 353 M359 353 C254.97 353, 150.94 353, 0 353 M359 353 C269.51 353, 180.01 353, 0 353 M0 353 C0 216.43, 0 79.87, 0 0 M0 353 C0 229.34, 0 105.68, 0 0" stroke="#000000" stroke-width="1" fill="none"></path></g><g transform="translate(46.5 39) rotate(0 8.5 13.5)"><text x="8.5" y="20" font-family="Virgil, Segoe UI Emoji" font-size="20px" fill="#000000" text-anchor="middle" style="white-space: pre;" direction="ltr">ख</text></g><g transform="translate(318 42) rotate(0 18 12.5)"><text x="18" y="18" font-family="Virgil, Segoe UI Emoji" font-size="20px" fill="#000000" text-anchor="middle" style="white-space: pre;" direction="ltr">Kha</text></g><g transform="translate(299 296) rotate(0 26 18)"><text x="26" y="26" font-family="Virgil, Segoe UI Emoji" font-size="28px" fill="#000000" text-anchor="middle" style="white-space: pre;" direction="rtl">کھانا</text></g><g transform="translate(182 295.75) rotate(0 23 18)"><text x="23" y="26" font-family="Virgil, Segoe UI Emoji" font-size="28px" fill="#000000" text-anchor="middle" style="white-space: pre;" direction="rtl">ـکھـ</text></g><g transform="translate(49.5 295.4981818181823) rotate(0 21 18)"><text x="21" y="26" font-family="Virgil, Segoe UI Emoji" font-size="28px" fill="#000000" text-anchor="middle" style="white-space: pre;" direction="rtl">ـکھ</text></g><g transform="translate(150 42.72728228569031) rotate(0 37 13)"><text x="37" y="19" font-family="Virgil, Segoe UI Emoji" font-size="20px" fill="#000000" text-anchor="middle" style="white-space: pre;" direction="ltr">Kha(کھ)</text></g><g transform="translate(302.9476624727249 326.79078912734985) rotate(0 23 10)"><text x="46" y="14" font-family="Virgil, Segoe UI Emoji" font-size="16px" fill="#000000" text-anchor="end" style="white-space: pre;" direction="ltr">khana</text></g><g transform="translate(195.94766247272491 326.79078912734985) rotate(0 12 10)"><text x="24" y="14" font-family="Virgil, Segoe UI Emoji" font-size="16px" fill="#000000" text-anchor="end" style="white-space: pre;" direction="ltr">mid</text></g><g transform="translate(52.947662472724915 326.79078912734985) rotate(0 17.5 10)"><text x="35" y="14" font-family="Virgil, Segoe UI Emoji" font-size="16px" fill="#000000" text-anchor="end" style="white-space: pre;" direction="ltr">final</text></g><g stroke-linecap="round"><g transform="translate(247.16513783144546 117.07036049646376) rotate(0 -50.22648346283779 51.78572428217285)"><path d="M0 0 C-8.59 4.47, -47.91 14.12, -51.54 26.81 C-55.18 39.49, -22.18 64.13, -21.81 76.12 C-21.45 88.11, -39.66 94.21, -49.33 98.76 C-58.99 103.31, -71.28 102.79, -79.8 103.41 C-88.32 104.04, -97.01 102.65, -100.45 102.5 M0 0 C-8.59 4.47, -47.91 14.12, -51.54 26.81 C-55.18 39.49, -22.18 64.13, -21.81 76.12 C-21.45 88.11, -39.66 94.21, -49.33 98.76 C-58.99 103.31, -71.28 102.79, -79.8 103.41 C-88.32 104.04, -97.01 102.65, -100.45 102.5" stroke="#000000" stroke-width="1" fill="none"></path></g></g><g stroke-linecap="round"><g transform="translate(171.81969107349414 220.20937088818027) rotate(0 -24.440072395241998 -1.1360511830812356)"><path d="M0 0 C-4.23 -0.28, -19.25 1.97, -25.39 -1.7 C-31.54 -5.37, -36.64 -16.2, -36.86 -22.01 C-37.09 -27.81, -29.53 -36.5, -26.76 -36.56 C-23.98 -36.61, -20.61 -28.55, -20.2 -22.34 C-19.79 -16.14, -22.43 -5.82, -24.3 0.67 C-26.17 7.15, -31.4 10.99, -31.4 16.57 C-31.4 22.15, -26.58 32.93, -24.3 34.17 C-22.02 35.41, -18.66 27.74, -17.74 24.01 C-16.83 20.29, -17.65 15.95, -18.84 11.83 C-20.02 7.72, -19.84 1.51, -24.85 -0.69 C-29.85 -2.89, -44.87 -1.25, -48.88 -1.36 M0 0 C-4.23 -0.28, -19.25 1.97, -25.39 -1.7 C-31.54 -5.37, -36.64 -16.2, -36.86 -22.01 C-37.09 -27.81, -29.53 -36.5, -26.76 -36.56 C-23.98 -36.61, -20.61 -28.55, -20.2 -22.34 C-19.79 -16.14, -22.43 -5.82, -24.3 0.67 C-26.17 7.15, -31.4 10.99, -31.4 16.57 C-31.4 22.15, -26.58 32.93, -24.3 34.17 C-22.02 35.41, -18.66 27.74, -17.74 24.01 C-16.83 20.29, -17.65 15.95, -18.84 11.83 C-20.02 7.72, -19.84 1.51, -24.85 -0.69 C-29.85 -2.89, -44.87 -1.25, -48.88 -1.36" stroke="#000000" stroke-width="1" fill="none"></path></g></g></svg>