<svg version="1.1" xmlns="http://www.w3.org/2000/svg" viewBox="0 0 379 373" width="379" height="373" >
  <!-- svg-source:excalidraw -->
  
  <defs>
    <style>
      @font-face {
        font-family: "Virgil";
        src: url("https://excalidraw.com/Virgil.woff2");
      }
      @font-face {
        font-family: "Cascadia";
        src: url("https://excalidraw.com/Cascadia.woff2");
      }
    </style>
  </defs>
  <rect x="0" y="0" width="379" height="373" fill="#ffffff"></rect><g stroke-linecap="round" transform="translate(10 10) rotate(0 179.5 176.5)"><path d="M0 0 C99.61 0, 199.23 0, 359 0 M0 0 C112.36 0, 224.72 0, 359 0 M359 0 C359 98.6, 359 197.2, 359 353 M359 0 C359 113.58, 359 227.16, 359 353 M359 353 C276.77 353, 194.55 353, 0 353 M359 353 C268.1 353, 177.21 353, 0 353 M0 353 C0 233.02, 0 113.05, 0 0 M0 353 C0 250.03, 0 147.06, 0 0" stroke="#000000" stroke-width="1" fill="none"></path></g><g transform="translate(47.5 39) rotate(0 7.5 13.5)"><text x="7.5" y="20" font-family="Virgil, Segoe UI Emoji" font-size="20px" fill="#000000" text-anchor="middle" style="white-space: pre;" direction="ltr">ल</text></g><g transform="translate(329.5 42) rotate(0 6.5 12.5)"><text x="6.5" y="18" font-family="Virgil, Segoe UI Emoji" font-size="20px" fill="#000000" text-anchor="middle" style="white-space: pre;" direction="ltr">L</text></g><g transform="translate(305.5 299) rotate(0 19.5 15)"><text x="19.5" y="21" font-family="Virgil, Segoe UI Emoji" font-size="23.076923076923066px" fill="#000000" text-anchor="middle" style="white-space: pre;" direction="rtl">لا/لـ</text></g><g transform="translate(182 297.75) rotate(0 12 16)"><text x="12" y="23" font-family="Virgil, Segoe UI Emoji" font-size="24.999999999999996px" fill="#000000" text-anchor="middle" style="white-space: pre;" direction="rtl">ـلـ</text></g><g transform="translate(53.5 295) rotate(0 16 19)"><text x="16" y="27" font-family="Virgil, Segoe UI Emoji" font-size="29.230769230769223px" fill="#000000" text-anchor="middle" style="white-space: pre;" direction="rtl">ـل</text></g><g transform="translate(152.5 42.72728228569031) rotate(0 34.5 13)"><text x="34.5" y="19" font-family="Virgil, Segoe UI Emoji" font-size="20px" fill="#000000" text-anchor="middle" style="white-space: pre;" direction="ltr">Lām(ل)</text></g><g stroke-linecap="round"><g transform="translate(204.01860846863246 124.47870017818332) rotate(180.898075853742 -31.441465597224806 54.81605253918815)"><path d="M0 0 C-5.68 -2.29, -24.14 -14.69, -34.11 -13.75 C-44.07 -12.81, -55.09 -6.46, -59.8 5.65 C-64.51 17.75, -62.46 39.26, -62.37 58.88 C-62.29 78.51, -59.8 112.63, -59.29 123.38 M0 0 C-5.68 -2.29, -24.14 -14.69, -34.11 -13.75 C-44.07 -12.81, -55.09 -6.46, -59.8 5.65 C-64.51 17.75, -62.46 39.26, -62.37 58.88 C-62.29 78.51, -59.8 112.63, -59.29 123.38" stroke="#000000" stroke-width="1" fill="none"></path></g></g><g transform="translate(295.41058373451233 331.3663375377655) rotate(0 34 10)"><text x="34" y="14" font-family="Virgil, Segoe UI Emoji" font-size="16px" fill="#000000" text-anchor="middle" style="white-space: pre;" direction="ltr">intial/La</text></g><g transform="translate(182.41058373451233 331.3663375377655) rotate(0 12 10)"><text x="12" y="14" font-family="Virgil, Segoe UI Emoji" font-size="16px" fill="#000000" text-anchor="middle" style="white-space: pre;" direction="ltr">mid</text></g><g transform="translate(49.91058373451233 331.3663375377655) rotate(0 17.5 10)"><text x="17.5" y="14" font-family="Virgil, Segoe UI Emoji" font-size="16px" fill="#000000" text-anchor="middle" style="white-space: pre;" direction="ltr">final</text></g></svg>