<svg version="1.1" xmlns="http://www.w3.org/2000/svg" viewBox="0 0 376.6666666666665 367.7777777777774" width="376.6666666666665" height="367.7777777777774">
  <!-- svg-source:excalidraw -->
  
  <defs>
    <style>
      @font-face {
        font-family: "Virgil";
        src: url("https://excalidraw.com/Virgil.woff2");
      }
      @font-face {
        font-family: "Cascadia";
        src: url("https://excalidraw.com/Cascadia.woff2");
      }
    </style>
  </defs>
  <rect x="0" y="0" width="376.6666666666665" height="367.7777777777774" fill="#ffffff"></rect><g stroke-linecap="round" transform="translate(10 10) rotate(0 178.33333333333326 173.8888888888887)"><path d="M0 0 C0 0, 0 0, 0 0 M0 0 C0 0, 0 0, 0 0 M-0.26 6.4 C1.78 4.05, 3.81 1.71, 4.99 0.36 M-0.26 6.4 C1.78 4.05, 3.83 1.69, 4.99 0.36 M0.13 12.04 C4.1 7.48, 8.06 2.92, 10.63 -0.03 M0.13 12.04 C4.32 7.22, 8.51 2.41, 10.63 -0.03 M-0.13 18.44 C4.38 13.25, 8.9 8.06, 15.62 0.33 M-0.13 18.44 C4.94 12.61, 10 6.79, 15.62 0.33 M0.27 24.08 C6.64 16.75, 13.02 9.41, 21.26 -0.07 M0.27 24.08 C6.24 17.21, 12.22 10.34, 21.26 -0.07 M0 30.48 C8.84 20.32, 17.67 10.15, 26.25 0.29 M0 30.48 C10.39 18.53, 20.78 6.58, 26.25 0.29 M-0.26 36.88 C6.56 29.04, 13.37 21.2, 31.89 -0.1 M-0.26 36.88 C10.82 24.13, 21.91 11.38, 31.89 -0.1 M0.14 42.52 C10.22 30.92, 20.31 19.32, 36.88 0.26 M0.14 42.52 C7.54 34, 14.95 25.48, 36.88 0.26 M-0.12 48.92 C16.44 29.87, 33 10.81, 42.52 -0.14 M-0.12 48.92 C9.18 38.21, 18.49 27.51, 42.52 -0.14 M0.27 54.56 C16.15 36.3, 32.02 18.04, 47.51 0.22 M0.27 54.56 C11.03 42.19, 21.78 29.82, 47.51 0.22 M0.01 60.96 C11.65 47.57, 23.29 34.18, 53.15 -0.17 M0.01 60.96 C12.99 46.03, 25.96 31.1, 53.15 -0.17 M-0.25 67.36 C14.77 50.07, 29.79 32.79, 58.14 0.19 M-0.25 67.36 C15.12 49.67, 30.49 31.99, 58.14 0.19 M0.14 73 C24.95 44.47, 49.75 15.93, 63.78 -0.21 M0.14 73 C16.8 53.84, 33.45 34.68, 63.78 -0.21 M-0.12 79.4 C18.76 57.68, 37.64 35.96, 68.77 0.15 M-0.12 79.4 C27.26 47.9, 54.64 16.41, 68.77 0.15 M0.28 85.04 C21.52 60.6, 42.77 36.16, 74.41 -0.24 M0.28 85.04 C15.83 67.15, 31.38 49.26, 74.41 -0.24 M0.01 91.44 C25.61 62, 51.2 32.56, 79.4 0.12 M0.01 91.44 C17.42 71.42, 34.82 51.4, 79.4 0.12 M-0.25 97.84 C33.47 59.04, 67.2 20.25, 85.04 -0.28 M-0.25 97.84 C27.69 65.7, 55.62 33.57, 85.04 -0.28 M0.15 103.48 C21.55 78.85, 42.96 54.23, 90.03 0.08 M0.15 103.48 C19.72 80.97, 39.28 58.46, 90.03 0.08 M-0.11 109.88 C28.82 76.59, 57.76 43.3, 95.67 -0.31 M-0.11 109.88 C33.79 70.87, 67.7 31.86, 95.67 -0.31 M0.28 115.52 C36.15 74.26, 72.01 33, 100.66 0.05 M0.28 115.52 C38.62 71.42, 76.95 27.32, 100.66 0.05 M0.02 121.92 C31.13 86.13, 62.23 50.35, 106.3 -0.34 M0.02 121.92 C34.91 81.79, 69.79 41.65, 106.3 -0.34 M-0.24 128.32 C34.98 87.8, 70.2 47.28, 111.29 0.02 M-0.24 128.32 C22.17 102.53, 44.58 76.75, 111.29 0.02 M0.15 133.96 C41.15 86.8, 82.15 39.63, 116.27 0.38 M0.15 133.96 C45.36 81.95, 90.57 29.94, 116.27 0.38 M-0.11 140.36 C30.34 105.32, 60.8 70.29, 121.92 -0.02 M-0.11 140.36 C32.09 103.32, 64.29 66.28, 121.92 -0.02 M0.29 146 C47.03 92.22, 93.78 38.45, 126.91 0.34 M0.29 146 C47.93 91.19, 95.58 36.37, 126.91 0.34 M0.02 152.4 C52.31 92.25, 104.59 32.1, 132.55 -0.05 M0.02 152.4 C34.44 112.81, 68.86 73.21, 132.55 -0.05 M-0.24 158.8 C44.81 106.97, 89.86 55.15, 137.54 0.31 M-0.24 158.8 C31.21 122.62, 62.66 86.44, 137.54 0.31 M0.16 164.44 C41.15 117.28, 82.15 70.12, 143.18 -0.09 M0.16 164.44 C54.15 102.32, 108.15 40.21, 143.18 -0.09 M-0.1 170.84 C46.21 117.55, 92.53 64.27, 148.17 0.27 M-0.1 170.84 C56.87 105.3, 113.84 39.76, 148.17 0.27 M0.29 176.48 C55.84 112.58, 111.38 48.68, 153.81 -0.12 M0.29 176.48 C47.33 122.36, 94.38 68.25, 153.81 -0.12 M0.03 182.88 C49.46 126.01, 98.89 69.15, 158.8 0.24 M0.03 182.88 C60.89 112.87, 121.75 42.86, 158.8 0.24 M-0.23 189.27 C58.4 121.83, 117.02 54.39, 164.44 -0.16 M-0.23 189.27 C38.54 144.67, 77.31 100.07, 164.44 -0.16 M0.16 194.92 C35.67 154.07, 71.18 113.22, 169.43 0.2 M0.16 194.92 C44.94 143.41, 89.72 91.89, 169.43 0.2 M-0.1 201.32 C53.36 139.82, 106.82 78.32, 175.07 -0.19 M-0.1 201.32 C44.33 150.2, 88.76 99.09, 175.07 -0.19 M0.3 206.96 C71.06 125.56, 141.82 44.15, 180.06 0.17 M0.3 206.96 C66.27 131.07, 132.24 55.18, 180.06 0.17 M0.03 213.36 C64.14 139.62, 128.24 65.87, 185.7 -0.23 M0.03 213.36 C65.03 138.58, 130.03 63.81, 185.7 -0.23 M-0.23 219.75 C66.38 143.13, 132.98 66.51, 190.69 0.13 M-0.23 219.75 C62.72 147.34, 125.67 74.93, 190.69 0.13 M0.17 225.4 C61.4 154.96, 122.63 84.52, 196.33 -0.26 M0.17 225.4 C42.12 177.14, 84.07 128.88, 196.33 -0.26 M-0.09 231.8 C52.56 171.23, 105.21 110.66, 201.32 0.1 M-0.09 231.8 C58.67 164.19, 117.44 96.59, 201.32 0.1 M0.3 237.44 C70.94 156.18, 141.57 74.92, 206.96 -0.3 M0.3 237.44 C48.65 181.81, 97.01 126.19, 206.96 -0.3 M0.04 243.84 C46.06 190.89, 92.08 137.95, 211.95 0.06 M0.04 243.84 C61.97 172.6, 123.89 101.36, 211.95 0.06 M-0.22 250.23 C58.62 182.54, 117.47 114.85, 217.59 -0.33 M-0.22 250.23 C65.02 175.18, 130.27 100.12, 217.59 -0.33 M0.17 255.88 C45.12 204.16, 90.08 152.45, 222.58 0.03 M0.17 255.88 C60.26 186.76, 120.34 117.63, 222.58 0.03 M-0.09 262.27 C53.14 201.04, 106.38 139.8, 228.22 -0.36 M-0.09 262.27 C91.14 157.32, 182.38 52.37, 228.22 -0.36 M0.3 267.92 C70.68 186.96, 141.06 106, 233.21 0 M0.3 267.92 C61.94 197.02, 123.57 126.12, 233.21 0 M0.04 274.32 C63.57 201.23, 127.1 128.15, 238.19 0.36 M0.04 274.32 C53.21 213.16, 106.37 152, 238.19 0.36 M-0.22 280.71 C73.8 195.57, 147.82 110.42, 243.84 -0.04 M-0.22 280.71 C52.17 220.44, 104.57 160.17, 243.84 -0.04 M0.18 286.36 C76.48 198.58, 152.78 110.81, 248.82 0.32 M0.18 286.36 C89.56 183.53, 178.94 80.71, 248.82 0.32 M-0.08 292.75 C74.08 207.43, 148.25 122.11, 254.47 -0.07 M-0.08 292.75 C91.4 187.52, 182.88 82.28, 254.47 -0.07 M0.31 298.4 C101.23 182.31, 202.14 66.21, 259.45 0.29 M0.31 298.4 C77.38 209.74, 154.45 121.08, 259.45 0.29 M0.05 304.8 C66.94 227.84, 133.84 150.89, 265.1 -0.11 M0.05 304.8 C63.08 232.29, 126.1 159.79, 265.1 -0.11 M-0.21 311.19 C67.46 233.34, 135.14 155.49, 270.08 0.25 M-0.21 311.19 C60.89 240.9, 122 170.6, 270.08 0.25 M0.18 316.84 C75.2 230.53, 150.22 144.23, 275.73 -0.14 M0.18 316.84 C79.81 225.23, 159.44 133.63, 275.73 -0.14 M-0.08 323.23 C91.36 218.04, 182.81 112.84, 280.71 0.22 M-0.08 323.23 C65.78 247.47, 131.65 171.7, 280.71 0.22 M0.31 328.88 C96.7 218, 193.08 107.13, 286.36 -0.18 M0.31 328.88 C72.41 245.95, 144.5 163.01, 286.36 -0.18 M0.05 335.27 C102.36 217.58, 204.67 99.89, 291.34 0.18 M0.05 335.27 C90.91 230.75, 181.77 126.23, 291.34 0.18 M-0.21 341.67 C98.57 228.04, 197.34 114.41, 296.99 -0.21 M-0.21 341.67 C108.56 216.55, 217.32 91.43, 296.99 -0.21 M0.19 347.32 C109.73 221.3, 219.27 95.28, 301.97 0.15 M0.19 347.32 C104.97 226.78, 209.75 106.24, 301.97 0.15 M3.21 349.94 C77.62 264.34, 152.03 178.73, 307.62 -0.25 M3.21 349.94 C115.8 220.41, 228.4 90.89, 307.62 -0.25 M8.19 350.3 C98.57 246.33, 188.94 142.37, 312.6 0.11 M8.19 350.3 C108.49 234.92, 208.8 119.53, 312.6 0.11 M13.18 350.66 C122.75 224.62, 232.31 98.58, 318.25 -0.28 M13.18 350.66 C105.56 244.39, 197.94 138.12, 318.25 -0.28 M18.82 350.27 C137.2 214.09, 255.58 77.91, 323.23 0.08 M18.82 350.27 C124.71 228.46, 230.6 106.65, 323.23 0.08 M23.81 350.63 C103.86 258.54, 183.91 166.45, 328.88 -0.31 M23.81 350.63 C116.5 244, 209.19 137.37, 328.88 -0.31 M29.45 350.23 C143.57 218.95, 257.69 87.68, 333.86 0.05 M29.45 350.23 C148.57 213.2, 267.69 76.17, 333.86 0.05 M34.44 350.59 C107.7 266.31, 180.96 182.04, 339.51 -0.35 M34.44 350.59 C99.12 276.19, 163.8 201.78, 339.51 -0.35 M40.08 350.2 C128.62 248.35, 217.15 146.5, 344.49 0.01 M40.08 350.2 C146.31 227.99, 252.54 105.79, 344.49 0.01 M45.07 350.56 C129.79 253.1, 214.51 155.63, 349.48 0.37 M45.07 350.56 C156.61 222.24, 268.15 93.93, 349.48 0.37 M50.71 350.16 C133.72 254.67, 216.73 159.18, 355.12 -0.02 M50.71 350.16 C114.6 276.67, 178.48 203.18, 355.12 -0.02 M55.7 350.52 C135.37 258.88, 215.03 167.23, 358.8 1.85 M55.7 350.52 C118.16 278.66, 180.63 206.81, 358.8 1.85 M61.34 350.13 C167.26 228.29, 273.17 106.45, 358.54 8.24 M61.34 350.13 C139.53 260.19, 217.71 170.24, 358.54 8.24 M66.33 350.49 C177.42 222.69, 288.51 94.9, 358.93 13.89 M66.33 350.49 C145.36 259.57, 224.39 168.66, 358.93 13.89 M71.97 350.09 C151.63 258.46, 231.28 166.83, 358.67 20.28 M71.97 350.09 C157.31 251.92, 242.65 153.75, 358.67 20.28 M76.96 350.45 C165.75 248.31, 254.53 146.18, 359.07 25.93 M76.96 350.45 C189.1 221.45, 301.24 92.44, 359.07 25.93 M82.6 350.06 C158 263.32, 233.4 176.58, 358.8 32.33 M82.6 350.06 C138.58 285.66, 194.56 221.26, 358.8 32.33 M87.59 350.42 C156.4 271.26, 225.22 192.1, 358.54 38.72 M87.59 350.42 C176.3 248.37, 265.01 146.32, 358.54 38.72 M93.23 350.02 C167.04 265.11, 240.85 180.21, 358.94 44.37 M93.23 350.02 C190.8 237.79, 288.36 125.55, 358.94 44.37 M98.22 350.38 C172.01 265.5, 245.81 180.61, 358.68 50.76 M98.22 350.38 C176.05 260.85, 253.87 171.32, 358.68 50.76 M103.86 349.99 C187.62 253.64, 271.37 157.3, 359.07 56.41 M103.86 349.99 C175.39 267.71, 246.92 185.43, 359.07 56.41 M108.85 350.35 C206.01 238.57, 303.18 126.8, 358.81 62.81 M108.85 350.35 C171.54 278.23, 234.24 206.11, 358.81 62.81 M114.49 349.95 C202.37 248.86, 290.25 147.77, 358.55 69.2 M114.49 349.95 C195.27 257.04, 276.04 164.12, 358.55 69.2 M119.48 350.31 C180.81 279.76, 242.14 209.21, 358.94 74.85 M119.48 350.31 C172.75 289.03, 226.03 227.75, 358.94 74.85 M125.12 349.92 C174.04 293.65, 222.95 237.38, 358.68 81.24 M125.12 349.92 C173.78 293.94, 222.44 237.97, 358.68 81.24 M130.11 350.28 C192.26 278.79, 254.4 207.3, 359.07 86.89 M130.11 350.28 C210.9 257.34, 291.69 164.41, 359.07 86.89 M135.1 350.64 C182.57 296.03, 230.04 241.42, 358.81 93.28 M135.1 350.64 C202.54 273.05, 269.99 195.47, 358.81 93.28 M140.74 350.25 C210.57 269.92, 280.4 189.58, 358.55 99.68 M140.74 350.25 C201.94 279.84, 263.15 209.43, 358.55 99.68 M145.73 350.61 C189.28 300.5, 232.84 250.4, 358.95 105.33 M145.73 350.61 C209.57 277.17, 273.41 203.73, 358.95 105.33 M151.37 350.21 C232.14 257.3, 312.9 164.39, 358.69 111.72 M151.37 350.21 C223.1 267.7, 294.82 185.19, 358.69 111.72 M156.36 350.57 C221.56 275.57, 286.76 200.56, 359.08 117.37 M156.36 350.57 C235.67 259.34, 314.97 168.1, 359.08 117.37 M162 350.18 C233.7 267.7, 305.4 185.22, 358.82 123.76 M162 350.18 C238.14 262.58, 314.29 174.99, 358.82 123.76 M166.99 350.54 C205.34 306.42, 243.69 262.31, 358.56 130.16 M166.99 350.54 C217.94 291.93, 268.89 233.31, 358.56 130.16 M172.63 350.14 C215.61 300.7, 258.59 251.26, 358.95 135.8 M172.63 350.14 C236.49 276.68, 300.35 203.22, 358.95 135.8 M177.62 350.5 C245.68 272.21, 313.74 193.91, 358.69 142.2 M177.62 350.5 C234.24 285.37, 290.86 220.23, 358.69 142.2 M183.26 350.11 C231.56 294.55, 279.85 238.99, 359.08 147.85 M183.26 350.11 C227.68 299.01, 272.1 247.92, 359.08 147.85 M188.25 350.47 C236.8 294.61, 285.36 238.75, 358.82 154.24 M188.25 350.47 C225.86 307.2, 263.47 263.93, 358.82 154.24 M193.89 350.07 C240.37 296.61, 286.84 243.15, 358.56 160.64 M193.89 350.07 C235.98 301.65, 278.07 253.23, 358.56 160.64 M198.88 350.43 C240.89 302.1, 282.91 253.77, 358.96 166.28 M198.88 350.43 C259.46 280.75, 320.03 211.06, 358.96 166.28 M204.52 350.04 C256.83 289.87, 309.13 229.7, 358.69 172.68 M204.52 350.04 C264.76 280.74, 325 211.44, 358.69 172.68 M209.51 350.4 C261.15 290.99, 312.79 231.59, 359.09 178.33 M209.51 350.4 C250.72 302.99, 291.94 255.57, 359.09 178.33 M215.15 350 C248.44 311.7, 281.74 273.4, 358.83 184.72 M215.15 350 C272.2 284.37, 329.25 218.74, 358.83 184.72 M220.14 350.36 C257.36 307.55, 294.58 264.73, 358.57 191.12 M220.14 350.36 C261.79 302.45, 303.44 254.54, 358.57 191.12 M225.78 349.97 C258.48 312.35, 291.19 274.73, 358.96 196.76 M225.78 349.97 C267.56 301.91, 309.34 253.85, 358.96 196.76 M230.77 350.33 C265.23 310.69, 299.69 271.05, 358.7 203.16 M230.77 350.33 C274.72 299.77, 318.67 249.21, 358.7 203.16 M236.41 349.94 C281.4 298.19, 326.38 246.44, 359.09 208.8 M236.41 349.94 C270.72 310.46, 305.03 270.99, 359.09 208.8 M241.4 350.3 C274.59 312.12, 307.77 273.94, 358.83 215.2 M241.4 350.3 C287.5 297.26, 333.61 244.22, 358.83 215.2 M246.39 350.66 C277.91 314.39, 309.44 278.12, 358.57 221.6 M246.39 350.66 C283.86 307.55, 321.34 264.43, 358.57 221.6 M252.03 350.26 C288.88 307.87, 325.72 265.49, 358.97 227.24 M252.03 350.26 C288.07 308.8, 324.12 267.33, 358.97 227.24 M257.02 350.62 C295.1 306.8, 333.19 262.99, 358.7 233.64 M257.02 350.62 C278.97 325.37, 300.92 300.11, 358.7 233.64 M262.66 350.23 C300.38 306.83, 338.11 263.43, 359.1 239.28 M262.66 350.23 C297.96 309.62, 333.26 269.01, 359.1 239.28 M267.65 350.59 C298.03 315.63, 328.42 280.67, 358.84 245.68 M267.65 350.59 C300.86 312.38, 334.08 274.16, 358.84 245.68 M273.29 350.19 C295.32 324.85, 317.36 299.5, 358.58 252.08 M273.29 350.19 C304.72 314.03, 336.15 277.87, 358.58 252.08 M278.28 350.55 C305.95 318.72, 333.62 286.89, 358.97 257.72 M278.28 350.55 C303.95 321.01, 329.63 291.47, 358.97 257.72 M283.92 350.16 C305.01 325.89, 326.11 301.62, 358.71 264.12 M283.92 350.16 C308.88 321.45, 333.83 292.74, 358.71 264.12 M288.91 350.52 C309.24 327.13, 329.56 303.74, 359.1 269.76 M288.91 350.52 C311.15 324.93, 333.38 299.35, 359.1 269.76 M294.55 350.12 C313.72 328.07, 332.89 306.01, 358.84 276.16 M294.55 350.12 C317.09 324.2, 339.62 298.27, 358.84 276.16 M299.54 350.48 C320.75 326.08, 341.96 301.69, 358.58 282.56 M299.54 350.48 C317.2 330.16, 334.86 309.85, 358.58 282.56 M305.18 350.09 C318.24 335.07, 331.3 320.04, 358.98 288.2 M305.18 350.09 C316.37 337.21, 327.57 324.33, 358.98 288.2 M310.17 350.45 C321.7 337.17, 333.24 323.9, 358.71 294.6 M310.17 350.45 C324.94 333.46, 339.71 316.47, 358.71 294.6 M315.81 350.05 C331.03 332.54, 346.26 315.02, 359.11 300.24 M315.81 350.05 C332.93 330.35, 350.06 310.65, 359.11 300.24 M320.8 350.41 C332.63 336.8, 344.46 323.19, 358.85 306.64 M320.8 350.41 C331.11 338.54, 341.43 326.67, 358.85 306.64 M326.44 350.02 C338.04 336.68, 349.63 323.34, 358.59 313.04 M326.44 350.02 C336.14 338.86, 345.84 327.7, 358.59 313.04 M331.43 350.38 C338.73 341.98, 346.03 333.58, 358.98 318.68 M331.43 350.38 C338.01 342.8, 344.6 335.23, 358.98 318.68 M337.07 349.99 C343.7 342.36, 350.32 334.74, 358.72 325.08 M337.07 349.99 C341.74 344.61, 346.42 339.23, 358.72 325.08 M342.06 350.35 C346.93 344.74, 351.8 339.13, 359.11 330.72 M342.06 350.35 C347.97 343.54, 353.89 336.73, 359.11 330.72 M347.7 349.95 C351.31 345.8, 354.92 341.65, 358.85 337.12 M347.7 349.95 C351.35 345.75, 355 341.56, 358.85 337.12 M352.69 350.31 C354.21 348.55, 355.74 346.79, 358.59 343.52 M352.69 350.31 C354.07 348.72, 355.45 347.14, 358.59 343.52" stroke="#fff" stroke-width="0.5" fill="none"></path><path d="M0 0 C119.26 0, 238.51 0, 356.67 0 M0 0 C105.91 0, 211.82 0, 356.67 0 M356.67 0 C356.67 70.78, 356.67 141.57, 356.67 347.78 M356.67 0 C356.67 103.04, 356.67 206.07, 356.67 347.78 M356.67 347.78 C274.98 347.78, 193.3 347.78, 0 347.78 M356.67 347.78 C251.78 347.78, 146.9 347.78, 0 347.78 M0 347.78 C0 276.16, 0 204.53, 0 0 M0 347.78 C0 239.68, 0 131.58, 0 0" stroke="#000000" stroke-width="1" fill="none"></path></g><g transform="translate(55.61604111156794 15.72552117460873) rotate(0 137.5 11)"><text x="137.5" y="16" font-family="Virgil, Segoe UI Emoji" font-size="17.678798363929268px" fill="#000000" text-anchor="middle" style="white-space: pre;" direction="ltr">Let's practice what we learned</text></g><g transform="translate(74.9488086027959 65.83584403168788) rotate(0 23.5 19.5)"><text x="23.5" y="27" font-family="Virgil, Segoe UI Emoji" font-size="28px" fill="#000000" text-anchor="middle" style="white-space: pre;" direction="rtl">اکیلا</text></g><g transform="translate(151.06053134670583 71.20778218808846) rotate(0 58.5 16)"><text x="58.5" y="23" font-family="Virgil, Segoe UI Emoji" font-size="23.433516823172702px" fill="#000" text-anchor="middle" style="white-space: pre;" direction="rtl">ا+ک+ی+ل+ا</text></g><g transform="translate(71.99560341798133 120.11777404388704) rotate(0 28.5 20)"><text x="28.5" y="28" font-family="Virgil, Segoe UI Emoji" font-size="29.111111111111125px" fill="#000000" text-anchor="middle" style="white-space: pre;" direction="rtl">لالٹین</text></g><g transform="translate(165.29785227044886 122.75541808273556) rotate(0 76.5 17)"><text x="76.5" y="24" font-family="Virgil, Segoe UI Emoji" font-size="24.363418284409725px" fill="#000000" text-anchor="middle" style="white-space: pre;" direction="rtl">ل+ا+ل+ٹ+ی+ن</text></g><g transform="translate(82.51429357445068 169.07350425822005) rotate(0 18.5 20)"><text x="18.5" y="28" font-family="Virgil, Segoe UI Emoji" font-size="29.12444789851476px" fill="#000000" text-anchor="middle" style="white-space: pre;" direction="rtl">بلی</text></g><g transform="translate(175.9501835464489 174.86429479209255) rotate(0 37.5 17)"><text x="37.5" y="24" font-family="Virgil, Segoe UI Emoji" font-size="24.37457999269509px" fill="#000000" text-anchor="middle" style="white-space: pre;" direction="rtl">ب+ل+ی</text></g><g transform="translate(74.92806378450405 306.0651638109757) rotate(0 22 19.5)"><text x="22" y="27" font-family="Virgil, Segoe UI Emoji" font-size="28px" fill="#000000" text-anchor="middle" style="white-space: pre;" direction="rtl">کمرا</text></g><g transform="translate(165.32027591803035 307.99076786842033) rotate(0 45 16.5)"><text x="45" y="23" font-family="Virgil, Segoe UI Emoji" font-size="23.97205215126855px" fill="#000000" text-anchor="middle" style="white-space: pre;" direction="rtl">ک+م+ر+ا</text></g><g transform="translate(62.44880860279591 259.8132888457276) rotate(0 33 19.5)"><text x="33" y="27" font-family="Virgil, Segoe UI Emoji" font-size="28px" fill="#000000" text-anchor="middle" style="white-space: pre;" direction="rtl">سامان</text></g><g transform="translate(175.02263464396128 262.40410977469037) rotate(0 59 16)"><text x="59" y="23" font-family="Virgil, Segoe UI Emoji" font-size="23.433516823172702px" fill="#000000" text-anchor="middle" style="white-space: pre;" direction="rtl">س+ا+م+ا+ن</text></g><g transform="translate(59.250670648527375 216.4612827228575) rotate(0 35.5 19.5)"><text x="35.5" y="27" font-family="Virgil, Segoe UI Emoji" font-size="28px" fill="#000000" text-anchor="middle" style="white-space: pre;" direction="rtl">مچھلی</text></g><g transform="translate(174.1943104851216 219.48415190212654) rotate(0 61 16)"><text x="61" y="23" font-family="Virgil, Segoe UI Emoji" font-size="23.433516823172702px" fill="#000000" text-anchor="middle" style="white-space: pre;" direction="rtl">م+چ+ھ+ل+ی</text></g><g transform="translate(177.9047619047633 39.52688440443853) rotate(0 19 10)"><text x="19" y="14" font-family="Virgil, Segoe UI Emoji" font-size="16px" fill="#e67700" text-anchor="middle" style="white-space: pre;" direction="ltr">mala</text></g></svg>