<svg version="1.1" xmlns="http://www.w3.org/2000/svg" viewBox="0 0 380 367.7777777777774" width="380" height="367.7777777777774">
  <!-- svg-source:excalidraw -->
  
  <defs>
    <style>
      @font-face {
        font-family: "Virgil";
        src: url("https://excalidraw.com/Virgil.woff2");
      }
      @font-face {
        font-family: "Cascadia";
        src: url("https://excalidraw.com/Cascadia.woff2");
      }
    </style>
  </defs>
  <rect x="0" y="0" width="380" height="367.7777777777774" fill="#ffffff"></rect><g stroke-linecap="round" transform="translate(11.41666666666697 10) rotate(0 178.33333333333326 173.8888888888887)"><path d="M0 0 C0 0, 0 0, 0 0 M0 0 C0 0, 0 0, 0 0 M-0.26 6.4 C1.19 4.73, 2.64 3.06, 4.99 0.36 M-0.26 6.4 C0.79 5.19, 1.84 3.98, 4.99 0.36 M0.13 12.04 C2.3 9.55, 4.46 7.06, 10.63 -0.03 M0.13 12.04 C3.38 8.3, 6.64 4.56, 10.63 -0.03 M-0.13 18.44 C5.62 11.82, 11.37 5.21, 15.62 0.33 M-0.13 18.44 C6.04 11.35, 12.2 4.26, 15.62 0.33 M0.27 24.08 C6.67 16.72, 13.07 9.36, 21.26 -0.07 M0.27 24.08 C4.67 19.01, 9.08 13.94, 21.26 -0.07 M0 30.48 C7.75 21.57, 15.5 12.66, 26.25 0.29 M0 30.48 C8.15 21.1, 16.3 11.73, 26.25 0.29 M-0.26 36.88 C10.19 24.86, 20.64 12.84, 31.89 -0.1 M-0.26 36.88 C6.82 28.73, 13.9 20.59, 31.89 -0.1 M0.14 42.52 C11.23 29.76, 22.32 17, 36.88 0.26 M0.14 42.52 C9.21 32.08, 18.29 21.64, 36.88 0.26 M-0.12 48.92 C10.64 36.54, 21.4 24.16, 42.52 -0.14 M-0.12 48.92 C11.82 35.18, 23.75 21.45, 42.52 -0.14 M0.27 54.56 C15.45 37.1, 30.63 19.63, 47.51 0.22 M0.27 54.56 C18.68 33.38, 37.09 12.2, 47.51 0.22 M0.01 60.96 C19.83 38.16, 39.65 15.36, 53.15 -0.17 M0.01 60.96 C12.13 47.02, 24.25 33.07, 53.15 -0.17 M-0.25 67.36 C22.5 41.19, 45.24 15.02, 58.14 0.19 M-0.25 67.36 C13.06 52.04, 26.37 36.73, 58.14 0.19 M0.14 73 C17.5 53.04, 34.85 33.07, 63.78 -0.21 M0.14 73 C13.1 58.09, 26.07 43.18, 63.78 -0.21 M-0.12 79.4 C16.58 60.19, 33.28 40.97, 68.77 0.15 M-0.12 79.4 C24.04 51.61, 48.2 23.82, 68.77 0.15 M0.28 85.04 C17.89 64.78, 35.51 44.51, 74.41 -0.24 M0.28 85.04 C18.5 64.08, 36.72 43.12, 74.41 -0.24 M0.01 91.44 C25.09 62.59, 50.16 33.75, 79.4 0.12 M0.01 91.44 C19.62 68.89, 39.23 46.33, 79.4 0.12 M-0.25 97.84 C21.38 72.96, 43 48.08, 85.04 -0.28 M-0.25 97.84 C24.78 69.04, 49.82 40.25, 85.04 -0.28 M0.15 103.48 C31.23 67.72, 62.31 31.97, 90.03 0.08 M0.15 103.48 C27.64 71.85, 55.13 40.23, 90.03 0.08 M-0.11 109.88 C19.67 87.12, 39.44 64.37, 95.67 -0.31 M-0.11 109.88 C36.85 67.36, 73.8 24.84, 95.67 -0.31 M0.28 115.52 C37.24 73, 74.2 30.48, 100.66 0.05 M0.28 115.52 C22.01 90.53, 43.74 65.53, 100.66 0.05 M0.02 121.92 C30.03 87.4, 60.04 52.87, 106.3 -0.34 M0.02 121.92 C27.86 89.89, 55.7 57.87, 106.3 -0.34 M-0.24 128.32 C35.34 87.39, 70.92 46.45, 111.29 0.02 M-0.24 128.32 C40.78 81.13, 81.8 33.94, 111.29 0.02 M0.15 133.96 C42.78 84.92, 85.4 35.89, 116.27 0.38 M0.15 133.96 C42.05 85.76, 83.94 37.57, 116.27 0.38 M-0.11 140.36 C28.46 107.49, 57.04 74.62, 121.92 -0.02 M-0.11 140.36 C30.27 105.41, 60.64 70.47, 121.92 -0.02 M0.29 146 C31.51 110.08, 62.73 74.16, 126.91 0.34 M0.29 146 C28.33 113.74, 56.37 81.48, 126.91 0.34 M0.02 152.4 C33.1 114.35, 66.17 76.31, 132.55 -0.05 M0.02 152.4 C33.01 114.45, 66.01 76.5, 132.55 -0.05 M-0.24 158.8 C28.26 126.01, 56.76 93.22, 137.54 0.31 M-0.24 158.8 C38.76 113.93, 77.76 69.07, 137.54 0.31 M0.16 164.44 C28.93 131.34, 57.7 98.25, 143.18 -0.09 M0.16 164.44 C36.9 122.17, 73.64 79.91, 143.18 -0.09 M-0.1 170.84 C34.56 130.96, 69.23 91.08, 148.17 0.27 M-0.1 170.84 C42.1 122.29, 84.3 73.74, 148.17 0.27 M0.29 176.48 C34.82 136.76, 69.34 97.04, 153.81 -0.12 M0.29 176.48 C40.49 130.24, 80.68 84, 153.81 -0.12 M0.03 182.88 C33.9 143.91, 67.77 104.95, 158.8 0.24 M0.03 182.88 C42.14 134.44, 84.25 85.99, 158.8 0.24 M-0.23 189.27 C58.51 121.7, 117.25 54.12, 164.44 -0.16 M-0.23 189.27 C57.87 122.44, 115.97 55.6, 164.44 -0.16 M0.16 194.92 C56.26 130.38, 112.36 65.85, 169.43 0.2 M0.16 194.92 C61.76 124.06, 123.36 53.2, 169.43 0.2 M-0.1 201.32 C58.16 134.3, 116.42 67.28, 175.07 -0.19 M-0.1 201.32 C55.77 137.04, 111.64 72.77, 175.07 -0.19 M0.3 206.96 C49.55 150.29, 98.81 93.63, 180.06 0.17 M0.3 206.96 C39.8 161.52, 79.3 116.08, 180.06 0.17 M0.03 213.36 C72.14 130.4, 144.25 47.45, 185.7 -0.23 M0.03 213.36 C46.31 160.12, 92.6 106.88, 185.7 -0.23 M-0.23 219.75 C43.12 169.89, 86.46 120.03, 190.69 0.13 M-0.23 219.75 C70.75 138.1, 141.73 56.45, 190.69 0.13 M0.17 225.4 C51.18 166.71, 102.2 108.02, 196.33 -0.26 M0.17 225.4 C65.46 150.29, 130.74 75.19, 196.33 -0.26 M-0.09 231.8 C55.58 167.75, 111.25 103.71, 201.32 0.1 M-0.09 231.8 C52.1 171.76, 104.29 111.72, 201.32 0.1 M0.3 237.44 C79.58 146.24, 158.85 55.04, 206.96 -0.3 M0.3 237.44 C53.76 175.94, 107.22 114.44, 206.96 -0.3 M0.04 243.84 C44.13 193.11, 88.22 142.39, 211.95 0.06 M0.04 243.84 C46.83 190.01, 93.62 136.19, 211.95 0.06 M-0.22 250.23 C64.01 176.34, 128.25 102.45, 217.59 -0.33 M-0.22 250.23 C46.81 196.13, 93.84 142.02, 217.59 -0.33 M0.17 255.88 C68.67 177.08, 137.16 98.29, 222.58 0.03 M0.17 255.88 C65.97 180.18, 131.78 104.48, 222.58 0.03 M-0.09 262.27 C52.4 201.89, 104.89 141.51, 228.22 -0.36 M-0.09 262.27 C66.94 185.16, 133.98 108.05, 228.22 -0.36 M0.3 267.92 C84.63 170.91, 168.95 73.91, 233.21 0 M0.3 267.92 C52.34 208.06, 104.37 148.21, 233.21 0 M0.04 274.32 C77.34 185.4, 154.63 96.48, 238.19 0.36 M0.04 274.32 C66.91 197.39, 133.78 120.47, 238.19 0.36 M-0.22 280.71 C62.32 208.77, 124.86 136.82, 243.84 -0.04 M-0.22 280.71 C58.96 212.64, 118.14 144.56, 243.84 -0.04 M0.18 286.36 C53.58 224.92, 106.99 163.48, 248.82 0.32 M0.18 286.36 C66.44 210.13, 132.71 133.89, 248.82 0.32 M-0.08 292.75 C95.75 182.5, 191.59 72.25, 254.47 -0.07 M-0.08 292.75 C74.28 207.21, 148.64 121.66, 254.47 -0.07 M0.31 298.4 C61.61 227.88, 122.9 157.37, 259.45 0.29 M0.31 298.4 C62.47 226.89, 124.63 155.39, 259.45 0.29 M0.05 304.8 C55.37 241.15, 110.7 177.51, 265.1 -0.11 M0.05 304.8 C56.09 240.32, 112.14 175.85, 265.1 -0.11 M-0.21 311.19 C60.8 241, 121.82 170.81, 270.08 0.25 M-0.21 311.19 C78.15 221.05, 156.5 130.91, 270.08 0.25 M0.18 316.84 C93.56 209.41, 186.94 101.99, 275.73 -0.14 M0.18 316.84 C93.72 209.23, 187.26 101.62, 275.73 -0.14 M-0.08 323.23 C89.31 220.41, 178.69 117.58, 280.71 0.22 M-0.08 323.23 C57.67 256.79, 115.43 190.36, 280.71 0.22 M0.31 328.88 C72.66 245.65, 145 162.43, 286.36 -0.18 M0.31 328.88 C90.5 225.13, 180.68 121.39, 286.36 -0.18 M0.05 335.27 C102.08 217.91, 204.11 100.54, 291.34 0.18 M0.05 335.27 C80.53 242.7, 161.01 150.12, 291.34 0.18 M-0.21 341.67 C99.87 226.55, 199.94 111.43, 296.99 -0.21 M-0.21 341.67 C82.39 246.65, 164.99 151.63, 296.99 -0.21 M0.19 347.32 C77.88 257.94, 155.58 168.56, 301.97 0.15 M0.19 347.32 C87.93 246.38, 175.67 145.44, 301.97 0.15 M3.21 349.94 C87.31 253.19, 171.42 156.44, 307.62 -0.25 M3.21 349.94 C84.32 256.62, 165.44 163.31, 307.62 -0.25 M8.19 350.3 C92.17 253.7, 176.14 157.1, 312.6 0.11 M8.19 350.3 C111.13 231.89, 214.06 113.47, 312.6 0.11 M13.18 350.66 C91.74 260.29, 170.3 169.91, 318.25 -0.28 M13.18 350.66 C80.29 273.46, 147.41 196.25, 318.25 -0.28 M18.82 350.27 C122.75 230.71, 226.67 111.16, 323.23 0.08 M18.82 350.27 C82 277.59, 145.18 204.91, 323.23 0.08 M23.81 350.63 C135.57 222.05, 247.34 93.48, 328.88 -0.31 M23.81 350.63 C138.98 218.13, 254.16 85.64, 328.88 -0.31 M29.45 350.23 C117.74 248.67, 206.03 147.1, 333.86 0.05 M29.45 350.23 C147.56 214.36, 265.67 78.49, 333.86 0.05 M34.44 350.59 C153.04 214.16, 271.63 77.73, 339.51 -0.35 M34.44 350.59 C119.3 252.97, 204.16 155.35, 339.51 -0.35 M40.08 350.2 C118.52 259.96, 196.96 169.73, 344.49 0.01 M40.08 350.2 C121.84 256.14, 203.6 162.09, 344.49 0.01 M45.07 350.56 C109.19 276.79, 173.31 203.03, 349.48 0.37 M45.07 350.56 C154.95 224.15, 264.83 97.75, 349.48 0.37 M50.71 350.16 C136.03 252.01, 221.35 153.87, 355.12 -0.02 M50.71 350.16 C153.71 231.68, 256.7 113.2, 355.12 -0.02 M55.7 350.52 C121.76 274.53, 187.82 198.54, 358.8 1.85 M55.7 350.52 C166.32 223.27, 276.94 96.01, 358.8 1.85 M61.34 350.13 C148.65 249.69, 235.95 149.26, 358.54 8.24 M61.34 350.13 C176.16 218.04, 290.99 85.95, 358.54 8.24 M66.33 350.49 C153.12 250.65, 239.91 150.81, 358.93 13.89 M66.33 350.49 C162.67 239.66, 259.01 128.84, 358.93 13.89 M71.97 350.09 C167.76 239.91, 263.54 129.72, 358.67 20.28 M71.97 350.09 C158.46 250.6, 244.95 151.11, 358.67 20.28 M76.96 350.45 C142.57 274.98, 208.18 199.5, 359.07 25.93 M76.96 350.45 C187.79 222.96, 298.62 95.46, 359.07 25.93 M82.6 350.06 C175.73 242.92, 268.87 135.79, 358.8 32.33 M82.6 350.06 C158.11 263.2, 233.61 176.35, 358.8 32.33 M87.59 350.42 C172.07 253.24, 256.55 156.06, 358.54 38.72 M87.59 350.42 C194.59 227.33, 301.59 104.24, 358.54 38.72 M93.23 350.02 C183.3 246.41, 273.37 142.8, 358.94 44.37 M93.23 350.02 C196.99 230.67, 300.74 111.31, 358.94 44.37 M98.22 350.38 C181.61 254.46, 265 158.53, 358.68 50.76 M98.22 350.38 C169.69 268.17, 241.15 185.96, 358.68 50.76 M103.86 349.99 C174.15 269.13, 244.45 188.27, 359.07 56.41 M103.86 349.99 C165.65 278.91, 227.44 207.83, 359.07 56.41 M108.85 350.35 C194.75 251.53, 280.65 152.72, 358.81 62.81 M108.85 350.35 C176.44 272.59, 244.03 194.84, 358.81 62.81 M114.49 349.95 C207.83 242.58, 301.17 135.2, 358.55 69.2 M114.49 349.95 C191.93 260.87, 269.37 171.79, 358.55 69.2 M119.48 350.31 C207.65 248.89, 295.82 147.46, 358.94 74.85 M119.48 350.31 C196.59 261.61, 273.71 172.9, 358.94 74.85 M125.12 349.92 C217.61 243.52, 310.1 137.13, 358.68 81.24 M125.12 349.92 C173.03 294.81, 220.93 239.71, 358.68 81.24 M130.11 350.28 C194.16 276.6, 258.2 202.92, 359.07 86.89 M130.11 350.28 C191.54 279.61, 252.97 208.95, 359.07 86.89 M135.1 350.64 C213.84 260.05, 292.59 169.46, 358.81 93.28 M135.1 350.64 C223.37 249.09, 311.65 147.54, 358.81 93.28 M140.74 350.25 C198.28 284.05, 255.82 217.86, 358.55 99.68 M140.74 350.25 C194.82 288.04, 248.89 225.83, 358.55 99.68 M145.73 350.61 C228.11 255.83, 310.5 161.06, 358.95 105.33 M145.73 350.61 C204.33 283.2, 262.93 215.79, 358.95 105.33 M151.37 350.21 C194.39 300.73, 237.4 251.24, 358.69 111.72 M151.37 350.21 C213.78 278.42, 276.19 206.63, 358.69 111.72 M156.36 350.57 C224.29 272.42, 292.23 194.27, 359.08 117.37 M156.36 350.57 C224.24 272.48, 292.13 194.38, 359.08 117.37 M162 350.18 C220.18 283.25, 278.36 216.32, 358.82 123.76 M162 350.18 C233.96 267.39, 305.93 184.61, 358.82 123.76 M166.99 350.54 C230.99 276.91, 295 203.28, 358.56 130.16 M166.99 350.54 C236.68 270.37, 306.37 190.19, 358.56 130.16 M172.63 350.14 C212.59 304.17, 252.55 258.21, 358.95 135.8 M172.63 350.14 C225.01 289.89, 277.39 229.63, 358.95 135.8 M177.62 350.5 C217.33 304.82, 257.04 259.14, 358.69 142.2 M177.62 350.5 C223 298.29, 268.39 246.08, 358.69 142.2 M183.26 350.11 C244.8 279.32, 306.34 208.53, 359.08 147.85 M183.26 350.11 C251.23 271.91, 319.21 193.72, 359.08 147.85 M188.25 350.47 C243.97 286.37, 299.68 222.28, 358.82 154.24 M188.25 350.47 C253.83 275.02, 319.42 199.57, 358.82 154.24 M193.89 350.07 C257.81 276.55, 321.72 203.02, 358.56 160.64 M193.89 350.07 C246.77 289.25, 299.64 228.42, 358.56 160.64 M198.88 350.43 C245.63 296.65, 292.39 242.86, 358.96 166.28 M198.88 350.43 C239.6 303.58, 280.33 256.73, 358.96 166.28 M204.52 350.04 C253.06 294.2, 301.6 238.37, 358.69 172.68 M204.52 350.04 C239.01 310.37, 273.49 270.69, 358.69 172.68 M209.51 350.4 C247.13 307.12, 284.75 263.84, 359.09 178.33 M209.51 350.4 C246.82 307.48, 284.13 264.55, 359.09 178.33 M215.15 350 C246.19 314.3, 277.22 278.6, 358.83 184.72 M215.15 350 C263.06 294.89, 310.96 239.79, 358.83 184.72 M220.14 350.36 C253.49 312, 286.84 273.64, 358.57 191.12 M220.14 350.36 C255.94 309.17, 291.75 267.99, 358.57 191.12 M225.78 349.97 C262.75 307.44, 299.72 264.91, 358.96 196.76 M225.78 349.97 C277.64 290.31, 329.5 230.66, 358.96 196.76 M230.77 350.33 C281.45 292.02, 332.14 233.71, 358.7 203.16 M230.77 350.33 C265.45 310.43, 300.14 270.53, 358.7 203.16 M236.41 349.94 C283.71 295.52, 331.02 241.1, 359.09 208.8 M236.41 349.94 C264.7 317.39, 293 284.84, 359.09 208.8 M241.4 350.3 C282.89 302.56, 324.38 254.83, 358.83 215.2 M241.4 350.3 C285.54 299.51, 329.68 248.73, 358.83 215.2 M246.39 350.66 C282.94 308.61, 319.49 266.55, 358.57 221.6 M246.39 350.66 C290.83 299.52, 335.28 248.39, 358.57 221.6 M252.03 350.26 C278.57 319.73, 305.12 289.19, 358.97 227.24 M252.03 350.26 C290.74 305.72, 329.46 261.19, 358.97 227.24 M257.02 350.62 C296.1 305.66, 335.18 260.7, 358.7 233.64 M257.02 350.62 C290.08 312.58, 323.15 274.54, 358.7 233.64 M262.66 350.23 C293.21 315.08, 323.77 279.93, 359.1 239.28 M262.66 350.23 C293.39 314.88, 324.11 279.53, 359.1 239.28 M267.65 350.59 C299.29 314.18, 330.93 277.78, 358.84 245.68 M267.65 350.59 C300.17 313.18, 332.69 275.76, 358.84 245.68 M273.29 350.19 C298.45 321.24, 323.62 292.3, 358.58 252.08 M273.29 350.19 C293.31 327.17, 313.32 304.14, 358.58 252.08 M278.28 350.55 C302.47 322.72, 326.66 294.89, 358.97 257.72 M278.28 350.55 C304.87 319.96, 331.47 289.36, 358.97 257.72 M283.92 350.16 C300.29 331.33, 316.66 312.49, 358.71 264.12 M283.92 350.16 C313.78 315.8, 343.65 281.44, 358.71 264.12 M288.91 350.52 C304.96 332.05, 321.01 313.59, 359.1 269.76 M288.91 350.52 C315.8 319.58, 342.7 288.63, 359.1 269.76 M294.55 350.12 C308.96 333.54, 323.38 316.96, 358.84 276.16 M294.55 350.12 C307.51 335.21, 320.47 320.3, 358.84 276.16 M299.54 350.48 C312.49 335.58, 325.45 320.67, 358.58 282.56 M299.54 350.48 C320.58 326.28, 341.62 302.07, 358.58 282.56 M305.18 350.09 C323.85 328.61, 342.51 307.14, 358.98 288.2 M305.18 350.09 C322.96 329.63, 340.74 309.18, 358.98 288.2 M310.17 350.45 C322.7 336.03, 335.24 321.61, 358.71 294.6 M310.17 350.45 C329.02 328.76, 347.87 307.07, 358.71 294.6 M315.81 350.05 C329.8 333.96, 343.8 317.86, 359.11 300.24 M315.81 350.05 C332.06 331.36, 348.3 312.67, 359.11 300.24 M320.8 350.41 C329.58 340.31, 338.36 330.21, 358.85 306.64 M320.8 350.41 C332.9 336.49, 345 322.57, 358.85 306.64 M326.44 350.02 C338.94 335.64, 351.43 321.27, 358.59 313.04 M326.44 350.02 C333.66 341.71, 340.89 333.4, 358.59 313.04 M331.43 350.38 C340.33 340.13, 349.24 329.89, 358.98 318.68 M331.43 350.38 C339.27 341.36, 347.11 332.34, 358.98 318.68 M337.07 349.99 C343.12 343.02, 349.17 336.06, 358.72 325.08 M337.07 349.99 C342.87 343.31, 348.68 336.63, 358.72 325.08 M342.06 350.35 C345.83 346, 349.61 341.66, 359.11 330.72 M342.06 350.35 C347.63 343.93, 353.21 337.51, 359.11 330.72 M347.7 349.95 C350.28 346.98, 352.86 344.01, 358.85 337.12 M347.7 349.95 C352.1 344.89, 356.5 339.83, 358.85 337.12 M352.69 350.31 C354.52 348.2, 356.36 346.08, 358.59 343.52 M352.69 350.31 C354.96 347.7, 357.23 345.09, 358.59 343.52" stroke="#fff" stroke-width="0.5" fill="none"></path><path d="M0 0 C99.45 0, 198.89 0, 356.67 0 M0 0 C135.72 0, 271.44 0, 356.67 0 M356.67 0 C356.67 131.17, 356.67 262.33, 356.67 347.78 M356.67 0 C356.67 120.81, 356.67 241.62, 356.67 347.78 M356.67 347.78 C239.3 347.78, 121.93 347.78, 0 347.78 M356.67 347.78 C219.65 347.78, 82.63 347.78, 0 347.78 M0 347.78 C0 246.16, 0 144.55, 0 0 M0 347.78 C0 226.43, 0 105.08, 0 0" stroke="#000000" stroke-width="1" fill="none"></path></g><g transform="translate(57.03270777823491 15.72552117460873) rotate(0 137.5 11)"><text x="137.5" y="16" font-family="Virgil, Segoe UI Emoji" font-size="17.678798363929268px" fill="#000000" text-anchor="middle" style="white-space: pre;" direction="ltr">Let's practice what we learned</text></g><g transform="translate(82.09411535901836 73.33584403168788) rotate(0 23 18.5)"><text x="23" y="26" font-family="Virgil, Segoe UI Emoji" font-size="27.239762092714148px" fill="#000000" text-anchor="middle" style="white-space: pre;" direction="rtl">اکیلا</text></g><g transform="translate(156.18900440386642 76.56192679444212) rotate(0 57 15.5)"><text x="57" y="22" font-family="Virgil, Segoe UI Emoji" font-size="22.797265116387106px" fill="#000" text-anchor="middle" style="white-space: pre;" direction="rtl">ا+ک+ی+ل+ا</text></g><g transform="translate(70.10456769318716 128.64394615546098) rotate(0 23.5 16.5)"><text x="23.5" y="23" font-family="Virgil, Segoe UI Emoji" font-size="23.846153846153506px" fill="#000000" text-anchor="middle" style="white-space: pre;" direction="rtl">لالٹین</text></g><g transform="translate(140.86557903557332 127.65567188006662) rotate(0 74.5 16)"><text x="74.5" y="23" font-family="Virgil, Segoe UI Emoji" font-size="23.701918494021527px" fill="#000000" text-anchor="middle" style="white-space: pre;" direction="rtl">ل+ا+ل+ٹ+ی+ن</text></g><g transform="translate(87.5899439404584 173.77046201665962) rotate(0 20 19.5)"><text x="20" y="28" font-family="Virgil, Segoe UI Emoji" font-size="28.33367970847109px" fill="#000000" text-anchor="middle" style="white-space: pre;" direction="rtl">تکلا</text></g><g transform="translate(168.4730472804522 175.40402474778148) rotate(0 48.5 16)"><text x="48.5" y="23" font-family="Virgil, Segoe UI Emoji" font-size="23.71277714681587px" fill="#000000" text-anchor="middle" style="white-space: pre;" direction="rtl">ت+ک+ل+ا</text></g><g transform="translate(82.11466082137667 307.0426125489148) rotate(0 21.5 18.5)"><text x="21.5" y="26" font-family="Virgil, Segoe UI Emoji" font-size="27.239762092714148px" fill="#000000" text-anchor="middle" style="white-space: pre;" direction="rtl">کمرا</text></g><g transform="translate(169.92812088151277 308.91593384925636) rotate(0 44 16)"><text x="44" y="23" font-family="Virgil, Segoe UI Emoji" font-size="23.321178481238984px" fill="#000000" text-anchor="middle" style="white-space: pre;" direction="rtl">ک+م+ر+ا</text></g><g transform="translate(69.67556942051306 262.0465386062251) rotate(0 32.5 18.5)"><text x="32.5" y="26" font-family="Virgil, Segoe UI Emoji" font-size="27.239762092714148px" fill="#000000" text-anchor="middle" style="white-space: pre;" direction="rtl">سامان</text></g><g transform="translate(179.48692847903203 266.51271253176765) rotate(0 57.5 15.5)"><text x="57.5" y="22" font-family="Virgil, Segoe UI Emoji" font-size="22.79726511638711px" fill="#000000" text-anchor="middle" style="white-space: pre;" direction="rtl">س+ا+م+ا+ن</text></g><g transform="translate(82.0362194253239 224.7358413717493) rotate(0 30 16)"><text x="30" y="23" font-family="Virgil, Segoe UI Emoji" font-size="23.456461802059447px" fill="#000000" text-anchor="middle" style="white-space: pre;" direction="rtl">مچھلی</text></g><g transform="translate(169.8711539193373 221.83954368333525) rotate(0 59.5 15.5)"><text x="59.5" y="22" font-family="Virgil, Segoe UI Emoji" font-size="22.79726511638711px" fill="#000000" text-anchor="middle" style="white-space: pre;" direction="rtl">م+چ+ھ+ل+ی</text></g><g transform="translate(171.32142857143026 39.52688440443853) rotate(0 27 10)"><text x="27" y="14" font-family="Virgil, Segoe UI Emoji" font-size="16px" fill="#e67700" text-anchor="middle" style="white-space: pre;" direction="ltr">Answer</text></g><g transform="translate(276.5 73.05030533009085) rotate(0 27 10)"><text x="27" y="14" font-family="Virgil, Segoe UI Emoji" font-size="16px" fill="#d9480f" text-anchor="middle" style="white-space: pre;" direction="ltr">(alone)</text></g><g transform="translate(306.75 131.55030533009085) rotate(0 26.5 10)"><text x="26.5" y="14" font-family="Virgil, Segoe UI Emoji" font-size="16px" fill="#d9480f" text-anchor="middle" style="white-space: pre;" direction="ltr">laltern</text></g><g transform="translate(284.25 182.55030533009085) rotate(0 23 10)"><text x="23" y="14" font-family="Virgil, Segoe UI Emoji" font-size="16px" fill="#d9480f" text-anchor="middle" style="white-space: pre;" direction="ltr">(bald)</text></g><g transform="translate(307.75 226.80030533009085) rotate(0 21 10)"><text x="21" y="14" font-family="Virgil, Segoe UI Emoji" font-size="16px" fill="#d9480f" text-anchor="middle" style="white-space: pre;" direction="ltr">(fish)</text></g><g transform="translate(300.75 272.80030533009085) rotate(0 32 10)"><text x="32" y="14" font-family="Virgil, Segoe UI Emoji" font-size="16px" fill="#d9480f" text-anchor="middle" style="white-space: pre;" direction="ltr">Luggage</text></g><g transform="translate(291.5 313.05030533009085) rotate(0 24.5 10)"><text x="24.5" y="14" font-family="Virgil, Segoe UI Emoji" font-size="16px" fill="#d9480f" text-anchor="middle" style="white-space: pre;" direction="ltr">(room)</text></g><g transform="translate(25.5 76.80030533009085) rotate(0 28 10)"><text x="28" y="14" font-family="Virgil, Segoe UI Emoji" font-size="16px" fill="#e67700" text-anchor="middle" style="white-space: pre;" direction="ltr">(akela)</text></g><g transform="translate(25.25 120.55030533009085) rotate(0 23 10)"><text x="23" y="14" font-family="Virgil, Segoe UI Emoji" font-size="16px" fill="#e67700" text-anchor="middle" style="white-space: pre;" direction="ltr">lalten</text></g><g transform="translate(29.5 179.05030533009085) rotate(0 28 10)"><text x="28" y="14" font-family="Virgil, Segoe UI Emoji" font-size="16px" fill="#e67700" text-anchor="middle" style="white-space: pre;" direction="ltr">(takla)</text></g><g transform="translate(23.318181818181984 233.05030533009085) rotate(0 26.5 9.5)"><text x="26.5" y="13" font-family="Virgil, Segoe UI Emoji" font-size="14.43356643356643px" fill="#e67700" text-anchor="middle" style="white-space: pre;" direction="ltr">(machli)</text></g><g transform="translate(20.75 266.80030533009085) rotate(0 25 10)"><text x="25" y="14" font-family="Virgil, Segoe UI Emoji" font-size="16px" fill="#e67700" text-anchor="middle" style="white-space: pre;" direction="ltr">saman</text></g><g transform="translate(30.5 314.30030533009085) rotate(0 24 10)"><text x="24" y="14" font-family="Virgil, Segoe UI Emoji" font-size="16px" fill="#e67700" text-anchor="middle" style="white-space: pre;" direction="ltr">kamra</text></g><g stroke-linecap="round"><g transform="translate(10 69.30030533009085) rotate(0 180 0)"><path d="M0 0 C30 0, 120 0, 180 0 C240 0, 330 0, 360 0" stroke="#495057" stroke-width="1.5" fill="none" stroke-dasharray="1.5 7"></path></g></g><g stroke-linecap="round"><g transform="translate(11.863900982844825 112.07979487194007) rotate(0 178.18181818181824 0)"><path d="M0 0 C59.39 0, 296.97 0, 356.36 0" stroke="#000000" stroke-width="1.5" fill="none" stroke-dasharray="1.5 7"></path></g></g><g stroke-linecap="round"><g transform="translate(11.772991891936726 164.26161305375808) rotate(0 177.27272727272725 0.9090909090914465)"><path d="M0 0 C59.09 0.3, 295.45 1.52, 354.55 1.82" stroke="#000000" stroke-width="1.5" fill="none" stroke-dasharray="1.5 7"></path></g></g><g stroke-linecap="round"><g transform="translate(10.863900982845735 212.98888578103015) rotate(0 177.72727272727252 -0.4545454545454959)"><path d="M0 0 C59.24 -0.15, 296.21 -0.76, 355.45 -0.91" stroke="#000000" stroke-width="1.5" fill="none" stroke-dasharray="1.5 7"></path></g></g><g stroke-linecap="round"><g transform="translate(12.682082801026809 259.07979487194007) rotate(0 176.81818181818176 0)"><path d="M0 0 C58.94 0, 294.7 0, 353.64 0" stroke="#000000" stroke-width="1.5" fill="none" stroke-dasharray="1.5 7"></path></g></g><g stroke-linecap="round"><g transform="translate(12.448016559535972 299.2747215345644) rotate(0 178.6363636363635 0.9090909090909918)"><path d="M0 0 C59.55 0.3, 297.73 1.52, 357.27 1.82" stroke="#000000" stroke-width="1.5" fill="none" stroke-dasharray="1.5 7"></path></g></g></svg>