<svg version="1.1" xmlns="http://www.w3.org/2000/svg" viewBox="0 0 379 373" width="379" height="373" >
  <!-- svg-source:excalidraw -->
  
  <defs>
    <style>
      @font-face {
        font-family: "Virgil";
        src: url("https://excalidraw.com/Virgil.woff2");
      }
      @font-face {
        font-family: "Cascadia";
        src: url("https://excalidraw.com/Cascadia.woff2");
      }
    </style>
  </defs>
  <rect x="0" y="0" width="379" height="373" fill="#ffffff"></rect><g stroke-linecap="round" transform="translate(10 10) rotate(0 179.5 176.5)"><path d="M0 0 C86.68 0, 173.35 0, 359 0 M0 0 C140.9 0, 281.8 0, 359 0 M359 0 C359 82.3, 359 164.6, 359 353 M359 0 C359 79.49, 359 158.98, 359 353 M359 353 C220.84 353, 82.68 353, 0 353 M359 353 C264.91 353, 170.81 353, 0 353 M0 353 C0 217.96, 0 82.92, 0 0 M0 353 C0 218.12, 0 83.23, 0 0" stroke="#000000" stroke-width="1" fill="none"></path></g><g transform="translate(49 39) rotate(0 6 13.5)"><text x="6" y="20" font-family="Virgil, Segoe UI Emoji" font-size="20px" fill="#000000" text-anchor="middle" style="white-space: pre;" direction="ltr">म</text></g><g transform="translate(328 42) rotate(0 8 12.5)"><text x="8" y="18" font-family="Virgil, Segoe UI Emoji" font-size="20px" fill="#000000" text-anchor="middle" style="white-space: pre;" direction="ltr">M</text></g><g transform="translate(315 299) rotate(0 10 15)"><text x="10" y="21" font-family="Virgil, Segoe UI Emoji" font-size="23.076923076923066px" fill="#000000" text-anchor="middle" style="white-space: pre;" direction="rtl">مـ</text></g><g transform="translate(190 297.75) rotate(0 15 16)"><text x="15" y="23" font-family="Virgil, Segoe UI Emoji" font-size="24.999999999999996px" fill="#000000" text-anchor="middle" style="white-space: pre;" direction="rtl">ـ‍م‍ـ</text></g><g transform="translate(55 295) rotate(0 14.5 19)"><text x="14.5" y="27" font-family="Virgil, Segoe UI Emoji" font-size="29.230769230769223px" fill="#000000" text-anchor="middle" style="white-space: pre;" direction="rtl">ـ‍م</text></g><g transform="translate(156.5 42.72728228569031) rotate(0 30.5 13)"><text x="30.5" y="19" font-family="Virgil, Segoe UI Emoji" font-size="20px" fill="#000000" text-anchor="middle" style="white-space: pre;" direction="ltr">Mīm(م)</text></g><g stroke-linecap="round"><g transform="translate(179.97761990693118 157.03724908828735) rotate(0 17.13932902544343 28.519336507087246)"><path d="M0 0 C0.09 -6.21, -5.57 -34.65, 0.52 -37.28 C6.61 -39.91, 35.34 -24.32, 36.55 -15.77 C37.76 -7.22, 12.28 -4.38, 7.8 14.01 C3.31 32.41, 9.33 81.16, 9.64 94.59 M0 0 C0.09 -6.21, -5.57 -34.65, 0.52 -37.28 C6.61 -39.91, 35.34 -24.32, 36.55 -15.77 C37.76 -7.22, 12.28 -4.38, 7.8 14.01 C3.31 32.41, 9.33 81.16, 9.64 94.59" stroke="#000000" stroke-width="1" fill="none"></path></g></g><g transform="translate(308.91058373451233 331.3663375377655) rotate(0 19.5 10)"><text x="19.5" y="14" font-family="Virgil, Segoe UI Emoji" font-size="16px" fill="#000000" text-anchor="middle" style="white-space: pre;" direction="ltr">intial</text></g><g transform="translate(198.41058373451233 331.3663375377655) rotate(0 12 10)"><text x="12" y="14" font-family="Virgil, Segoe UI Emoji" font-size="16px" fill="#000000" text-anchor="middle" style="white-space: pre;" direction="ltr">mid</text></g><g transform="translate(49.91058373451233 331.3663375377655) rotate(0 17.5 10)"><text x="17.5" y="14" font-family="Virgil, Segoe UI Emoji" font-size="16px" fill="#000000" text-anchor="middle" style="white-space: pre;" direction="ltr">final</text></g></svg>