<svg version="1.1" xmlns="http://www.w3.org/2000/svg" viewBox="0 0 379.325425889757 371.3246324327265" width="379.325425889757" height="371.3246324327265">
  <!-- svg-source:excalidraw -->
  
  <defs>
    <style>
      @font-face {
        font-family: "Virgil";
        src: url("https://excalidraw.com/Virgil.woff2");
      }
      @font-face {
        font-family: "Cascadia";
        src: url("https://excalidraw.com/Cascadia.woff2");
      }
    </style>
  </defs>
  <rect x="0" y="0" width="379.325425889757" height="371.3246324327265" fill="#ffffff"></rect><g stroke-linecap="round" transform="translate(10 10) rotate(0 179.6627129448785 175.66231621636325)"><path d="M0 0 C130.97 0, 261.94 0, 359.33 0 M0 0 C72.59 0, 145.18 0, 359.33 0 M359.33 0 C359.33 107.09, 359.33 214.19, 359.33 351.32 M359.33 0 C359.33 105.25, 359.33 210.51, 359.33 351.32 M359.33 351.32 C254.56 351.32, 149.8 351.32, 0 351.32 M359.33 351.32 C238.64 351.32, 117.95 351.32, 0 351.32 M0 351.32 C0 213.98, 0 76.64, 0 0 M0 351.32 C0 240.63, 0 129.94, 0 0" stroke="#000000" stroke-width="1" fill="none"></path></g><g transform="translate(110 10) rotate(0 69 10)"><text x="0" y="14" font-family="Virgil, Segoe UI Emoji" font-size="16px" fill="#000000" text-anchor="start" style="white-space: pre;" direction="ltr">Some more symbol</text></g><g transform="translate(18 50) rotate(0 53 10)"><text x="0" y="14" font-family="Virgil, Segoe UI Emoji" font-size="16px" fill="#000000" text-anchor="start" style="white-space: pre;" direction="ltr">khadi zabar :</text></g><g transform="translate(130 50) rotate(0 116 20)"><text x="0" y="14" font-family="Virgil, Segoe UI Emoji" font-size="16px" fill="#000000" text-anchor="start" style="white-space: pre;" direction="ltr">placed upon a letter changes</text><text x="0" y="34" font-family="Virgil, Segoe UI Emoji" font-size="16px" fill="#000000" text-anchor="start" style="white-space: pre;" direction="ltr">the sound its. sound to alif</text></g><g transform="translate(32.23182024275741 91.09381394160846) rotate(0 27.5 19.5)"><text x="0" y="27" font-family="Virgil, Segoe UI Emoji" font-size="28px" fill="#d9480f" text-anchor="end" style="white-space: pre;" direction="rtl">دعویٰ</text></g><g transform="translate(101.25855364119491 104.02238246374327) rotate(0 42.5 10)"><text x="0" y="14" font-family="Virgil, Segoe UI Emoji" font-size="16px" fill="#d9480f" text-anchor="start" style="white-space: pre;" direction="ltr">dava/claim</text></g><g transform="translate(205.1818595765248 93.26190476191914) rotate(0 36 19.5)"><text x="0" y="27" font-family="Virgil, Segoe UI Emoji" font-size="28px" fill="#d9480f" text-anchor="end" style="white-space: pre;" direction="rtl">علاحدہٰ</text></g><g transform="translate(282.6897670201012 95.90528312563401) rotate(0 38.5 18.5)"><text x="0" y="13.5" font-family="Virgil, Segoe UI Emoji" font-size="14.686035156249998px" fill="#d9480f" text-anchor="start" style="white-space: pre;" direction="ltr">alaahada/</text><text x="0" y="32" font-family="Virgil, Segoe UI Emoji" font-size="14.686035156249998px" fill="#d9480f" text-anchor="start" style="white-space: pre;" direction="ltr">separate</text></g><g transform="translate(86.65917290581598 151.2629191080723) rotate(0 88 10)"><text x="0" y="14" font-family="Virgil, Segoe UI Emoji" font-size="15.726865951624294px" fill="#000000" text-anchor="start" style="white-space: pre;" direction="ltr">zer-e-izafat: uses zer</text></g><g transform="translate(70 130) rotate(0 110 10)"><text x="0" y="14" font-family="Virgil, Segoe UI Emoji" font-size="16px" fill="#000000" text-anchor="start" style="white-space: pre;" direction="ltr">Izafat: combines two words</text></g><g transform="translate(25.027502282881898 171.09854755705783) rotate(0 46 19.5)"><text x="0" y="27" font-family="Virgil, Segoe UI Emoji" font-size="28px" fill="#d9480f" text-anchor="end" style="white-space: pre;" direction="rtl">جان ِ من</text></g><g transform="translate(98.95238095239284 208.2063492063644) rotate(0 39 10)"><text x="0" y="14" font-family="Virgil, Segoe UI Emoji" font-size="16px" fill="#d9480f" text-anchor="start" style="white-space: pre;" direction="ltr">jan e man</text></g><g transform="translate(90.45873539032686 236.43175882007927) rotate(0 112 10)"><text x="0" y="14" font-family="Virgil, Segoe UI Emoji" font-size="16px" fill="#000000" text-anchor="start" style="white-space: pre;" direction="ltr">humza-e-izafat: uses humza</text></g><g transform="translate(260.1651766338165 210.4443388439522) rotate(0 47 8.5)"><text x="0" y="12" font-family="Virgil, Segoe UI Emoji" font-size="13.733518890163097px" fill="#d9480f" text-anchor="start" style="white-space: pre;" direction="ltr">sher-e-Panjāb</text></g><g transform="translate(208.18648468503164 172.06974382183034) rotate(0 58 19.5)"><text x="0" y="27" font-family="Virgil, Segoe UI Emoji" font-size="28px" fill="#d9480f" text-anchor="end" style="white-space: pre;" direction="rtl">شیرِ پنجاب</text></g><g transform="translate(14.3968253968373 311.2063492063644) rotate(0 174 19)"><text x="0" y="14" font-family="Virgil, Segoe UI Emoji" font-size="15.34895833333334px" fill="#d9480f" text-anchor="start" style="white-space: pre;" direction="ltr">Note:Izafat usually used in poems/newspaper,</text><text x="0" y="33" font-family="Virgil, Segoe UI Emoji" font-size="15.34895833333334px" fill="#d9480f" text-anchor="start" style="white-space: pre;" direction="ltr">not in daily conversation</text></g><g transform="translate(78.72189863902486 267.68944246808314) rotate(0 49 19.5)"><text x="0" y="27" font-family="Virgil, Segoe UI Emoji" font-size="28px" fill="#d9480f" text-anchor="end" style="white-space: pre;" direction="rtl">دَرْجۂ اَوَّل</text></g><g transform="translate(187.3968253968373 276.7063492063644) rotate(0 54.5 10)"><text x="0" y="14" font-family="Virgil, Segoe UI Emoji" font-size="16px" fill="#d9480f" text-anchor="start" style="white-space: pre;" direction="ltr">darza e awal</text></g><g stroke-linecap="round"><g transform="translate(10 130) rotate(0 179.2909579806858 -0.1708814832900316)"><path d="M0 0 C59.76 -0.06, 298.82 -0.28, 358.58 -0.34" stroke="#000000" stroke-width="1.5" fill="none" stroke-dasharray="1.5 7"></path></g></g><g stroke-linecap="round"><g transform="translate(10 310) rotate(0 179.1629536946615 -0.41880289713571983)"><path d="M0 0 C59.72 -0.14, 298.6 -0.7, 358.33 -0.84" stroke="#000000" stroke-width="1.5" fill="none" stroke-dasharray="1.5 7"></path></g></g><g stroke-linecap="round"><g transform="translate(10 230) rotate(0 179.2909579806858 0.20026312933987356)"><path d="M0 0 C59.76 0.07, 298.82 0.33, 358.58 0.4" stroke="#000000" stroke-width="1.5" fill="none" stroke-dasharray="1.5 7"></path></g></g><g stroke-linecap="round" transform="translate(70.57865590899002 153.04708135697365) rotate(0 100.44399685329859 9.715966118705182)"><path d="M0 0 C0 0, 0 0, 0 0 M0 0 C0 0, 0 0, 0 0 M-0.26 6.4 C1.1 4.83, 2.46 3.27, 4.99 0.36 M-0.26 6.4 C1.78 4.05, 3.83 1.69, 4.99 0.36 M0.13 12.04 C2.45 9.38, 4.76 6.71, 10.63 -0.03 M0.13 12.04 C3.33 8.36, 6.53 4.68, 10.63 -0.03 M-0.13 18.44 C4.97 12.58, 10.06 6.72, 15.62 0.33 M-0.13 18.44 C3.09 14.73, 6.31 11.03, 15.62 0.33 M2.23 21.82 C8.73 14.34, 15.23 6.87, 21.26 -0.07 M2.23 21.82 C7.62 15.63, 13 9.44, 21.26 -0.07 M7.88 21.42 C12.61 15.98, 17.34 10.53, 26.25 0.29 M7.88 21.42 C14.71 13.56, 21.54 5.7, 26.25 0.29 M12.86 21.78 C18.45 15.36, 24.03 8.94, 31.89 -0.1 M12.86 21.78 C17.9 15.99, 22.94 10.19, 31.89 -0.1 M18.51 21.39 C22.85 16.4, 27.19 11.4, 36.88 0.26 M18.51 21.39 C24.69 14.27, 30.88 7.16, 36.88 0.26 M23.49 21.75 C28.59 15.89, 33.68 10.03, 42.52 -0.14 M23.49 21.75 C28.57 15.91, 33.65 10.07, 42.52 -0.14 M29.14 21.35 C34.5 15.18, 39.87 9.01, 47.51 0.22 M29.14 21.35 C33.93 15.84, 38.72 10.33, 47.51 0.22 M34.12 21.71 C41.05 13.75, 47.97 5.79, 53.15 -0.17 M34.12 21.71 C41.2 13.57, 48.28 5.44, 53.15 -0.17 M39.77 21.32 C43.74 16.76, 47.7 12.19, 58.14 0.19 M39.77 21.32 C45.71 14.48, 51.65 7.65, 58.14 0.19 M44.75 21.68 C50.24 15.36, 55.73 9.05, 63.78 -0.21 M44.75 21.68 C49.14 16.64, 53.52 11.59, 63.78 -0.21 M50.4 21.29 C55.11 15.87, 59.81 10.45, 68.77 0.15 M50.4 21.29 C54.46 16.61, 58.53 11.94, 68.77 0.15 M55.38 21.65 C60.27 16.02, 65.16 10.4, 74.41 -0.24 M55.38 21.65 C62.23 13.77, 69.08 5.89, 74.41 -0.24 M61.03 21.25 C65.06 16.62, 69.08 11.99, 79.4 0.12 M61.03 21.25 C65.95 15.59, 70.86 9.94, 79.4 0.12 M66.02 21.61 C71.56 15.23, 77.1 8.85, 85.04 -0.28 M66.02 21.61 C70.68 16.25, 75.34 10.88, 85.04 -0.28 M71.66 21.22 C78.44 13.42, 85.21 5.62, 90.03 0.08 M71.66 21.22 C77.05 15.01, 82.45 8.8, 90.03 0.08 M76.65 21.58 C82.79 14.51, 88.93 7.45, 95.67 -0.31 M76.65 21.58 C81.17 16.37, 85.7 11.15, 95.67 -0.31 M81.63 21.94 C87.86 14.77, 94.09 7.6, 100.66 0.05 M81.63 21.94 C88.24 14.33, 94.85 6.73, 100.66 0.05 M87.28 21.54 C92.78 15.21, 98.28 8.88, 106.3 -0.34 M87.28 21.54 C92.18 15.9, 97.09 10.26, 106.3 -0.34 M92.26 21.9 C99.38 13.71, 106.5 5.52, 111.29 0.02 M92.26 21.9 C99.76 13.28, 107.25 4.66, 111.29 0.02 M97.91 21.51 C102.25 16.5, 106.6 11.5, 116.27 0.38 M97.91 21.51 C103.24 15.36, 108.58 9.22, 116.27 0.38 M102.89 21.87 C109.49 14.27, 116.1 6.68, 121.92 -0.02 M102.89 21.87 C106.99 17.15, 111.09 12.43, 121.92 -0.02 M108.54 21.47 C112.57 16.83, 116.6 12.2, 126.91 0.34 M108.54 21.47 C113.86 15.34, 119.19 9.21, 126.91 0.34 M113.52 21.83 C120.01 14.37, 126.5 6.9, 132.55 -0.05 M113.52 21.83 C119.46 15, 125.39 8.18, 132.55 -0.05 M119.17 21.44 C126.5 13.01, 133.83 4.57, 137.54 0.31 M119.17 21.44 C124.25 15.59, 129.33 9.74, 137.54 0.31 M124.15 21.8 C128.14 17.21, 132.12 12.63, 143.18 -0.09 M124.15 21.8 C131.76 13.04, 139.37 4.29, 143.18 -0.09 M129.8 21.4 C136.13 14.11, 142.47 6.82, 148.17 0.27 M129.8 21.4 C134.18 16.36, 138.56 11.32, 148.17 0.27 M134.78 21.76 C139.79 16, 144.8 10.24, 153.81 -0.12 M134.78 21.76 C140.75 14.9, 146.71 8.04, 153.81 -0.12 M140.43 21.37 C146.57 14.3, 152.72 7.22, 158.8 0.24 M140.43 21.37 C144.66 16.5, 148.9 11.62, 158.8 0.24 M145.41 21.73 C152.47 13.61, 159.54 5.48, 164.44 -0.16 M145.41 21.73 C151.19 15.08, 156.97 8.44, 164.44 -0.16 M151.06 21.33 C155.71 15.98, 160.37 10.62, 169.43 0.2 M151.06 21.33 C156.11 15.52, 161.16 9.71, 169.43 0.2 M156.04 21.69 C160.99 16.01, 165.93 10.32, 175.07 -0.19 M156.04 21.69 C162.49 14.28, 168.93 6.87, 175.07 -0.19 M161.69 21.3 C167.09 15.09, 172.49 8.87, 180.06 0.17 M161.69 21.3 C166.49 15.78, 171.29 10.25, 180.06 0.17 M166.67 21.66 C170.74 16.98, 174.8 12.31, 185.7 -0.23 M166.67 21.66 C170.56 17.19, 174.45 12.71, 185.7 -0.23 M172.32 21.27 C177.05 15.82, 181.78 10.38, 190.69 0.13 M172.32 21.27 C176.84 16.06, 181.36 10.86, 190.69 0.13 M177.3 21.63 C184.43 13.42, 191.56 5.22, 196.33 -0.26 M177.3 21.63 C181.17 17.18, 185.04 12.72, 196.33 -0.26 M182.95 21.23 C187.58 15.9, 192.22 10.57, 201.32 0.1 M182.95 21.23 C189.43 13.77, 195.92 6.3, 201.32 0.1 M187.93 21.59 C191.12 17.92, 194.32 14.25, 201.05 6.5 M187.93 21.59 C191.28 17.74, 194.63 13.88, 201.05 6.5 M193.58 21.2 C196.69 17.62, 199.79 14.04, 201.45 12.14 M193.58 21.2 C195.73 18.72, 197.88 16.24, 201.45 12.14 M198.56 21.56 C199.55 20.42, 200.54 19.28, 201.19 18.54 M198.56 21.56 C199.61 20.36, 200.65 19.16, 201.19 18.54" stroke="#fd7e14" stroke-width="0.5" fill="none"></path><path d="M0 0 C49.2 0, 98.4 0, 200.89 0 M200.89 0 C200.89 4.51, 200.89 9.02, 200.89 19.43 M200.89 19.43 C151.37 19.43, 101.85 19.43, 0 19.43 M0 19.43 C0 13.62, 0 7.81, 0 0" stroke="#000000" stroke-width="1.5" fill="none" stroke-dasharray="1.5 7"></path></g><g stroke-linecap="round" transform="translate(85.58364044675045 238.1642349485519) rotate(0 116.92113240559897 9.26727294921875)"><path d="M0 0 C0 0, 0 0, 0 0 M0 0 C0 0, 0 0, 0 0 M-0.26 6.4 C1.02 4.92, 2.3 3.45, 4.99 0.36 M-0.26 6.4 C1.02 4.92, 2.31 3.44, 4.99 0.36 M0.13 12.04 C3.74 7.89, 7.35 3.74, 10.63 -0.03 M0.13 12.04 C3.19 8.53, 6.24 5.01, 10.63 -0.03 M-0.13 18.44 C4.12 13.55, 8.37 8.66, 15.62 0.33 M-0.13 18.44 C6.13 11.23, 12.4 4.03, 15.62 0.33 M2.89 21.06 C10.18 12.67, 17.48 4.28, 21.26 -0.07 M2.89 21.06 C7.23 16.07, 11.58 11.07, 21.26 -0.07 M7.88 21.42 C13.44 15.02, 19.01 8.62, 26.25 0.29 M7.88 21.42 C11.98 16.71, 16.08 11.99, 26.25 0.29 M13.52 21.03 C20.81 12.64, 28.1 4.26, 31.89 -0.1 M13.52 21.03 C17.95 15.93, 22.38 10.84, 31.89 -0.1 M18.51 21.39 C23.07 16.14, 27.62 10.9, 36.88 0.26 M18.51 21.39 C23.31 15.86, 28.11 10.34, 36.88 0.26 M24.15 20.99 C28.08 16.47, 32.02 11.94, 42.52 -0.14 M24.15 20.99 C29.04 15.37, 33.93 9.74, 42.52 -0.14 M29.14 21.35 C35.9 13.57, 42.66 5.79, 47.51 0.22 M29.14 21.35 C34.09 15.65, 39.05 9.96, 47.51 0.22 M34.78 20.96 C40.8 14.03, 46.83 7.1, 53.15 -0.17 M34.78 20.96 C39.2 15.88, 43.61 10.8, 53.15 -0.17 M39.77 21.32 C46.81 13.22, 53.85 5.12, 58.14 0.19 M39.77 21.32 C45.7 14.5, 51.62 7.68, 58.14 0.19 M45.41 20.92 C51.38 14.06, 57.34 7.2, 63.78 -0.21 M45.41 20.92 C52.01 13.33, 58.61 5.74, 63.78 -0.21 M50.4 21.29 C57.22 13.43, 64.05 5.58, 68.77 0.15 M50.4 21.29 C56.13 14.69, 61.87 8.09, 68.77 0.15 M56.04 20.89 C63.38 12.45, 70.71 4.01, 74.41 -0.24 M56.04 20.89 C63.13 12.74, 70.21 4.59, 74.41 -0.24 M61.03 21.25 C65.97 15.57, 70.91 9.88, 79.4 0.12 M61.03 21.25 C65.57 16.03, 70.11 10.81, 79.4 0.12 M66.67 20.86 C71.34 15.49, 76.01 10.12, 85.04 -0.28 M66.67 20.86 C73.09 13.47, 79.52 6.08, 85.04 -0.28 M71.66 21.22 C78.45 13.41, 85.23 5.6, 90.03 0.08 M71.66 21.22 C78.15 13.74, 84.65 6.27, 90.03 0.08 M77.3 20.82 C84.63 12.39, 91.97 3.95, 95.67 -0.31 M77.3 20.82 C81.87 15.57, 86.43 10.32, 95.67 -0.31 M82.29 21.18 C86.41 16.44, 90.54 11.69, 100.66 0.05 M82.29 21.18 C89.18 13.26, 96.07 5.33, 100.66 0.05 M87.93 20.79 C92.57 15.45, 97.21 10.12, 106.3 -0.34 M87.93 20.79 C94.3 13.46, 100.67 6.13, 106.3 -0.34 M92.92 21.15 C99.23 13.89, 105.54 6.63, 111.29 0.02 M92.92 21.15 C97.91 15.4, 102.91 9.65, 111.29 0.02 M98.56 20.75 C102.81 15.86, 107.06 10.98, 116.27 0.38 M98.56 20.75 C103.45 15.13, 108.33 9.51, 116.27 0.38 M103.55 21.11 C108.94 14.91, 114.34 8.7, 121.92 -0.02 M103.55 21.11 C109.46 14.31, 115.38 7.5, 121.92 -0.02 M109.19 20.72 C114.42 14.71, 119.64 8.7, 126.91 0.34 M109.19 20.72 C115.12 13.9, 121.04 7.08, 126.91 0.34 M114.18 21.08 C121.53 12.63, 128.87 4.17, 132.55 -0.05 M114.18 21.08 C118.22 16.43, 122.26 11.78, 132.55 -0.05 M119.82 20.68 C126.18 13.36, 132.55 6.04, 137.54 0.31 M119.82 20.68 C126.71 12.76, 133.6 4.83, 137.54 0.31 M124.81 21.04 C129.32 15.86, 133.82 10.67, 143.18 -0.09 M124.81 21.04 C131.76 13.05, 138.7 5.06, 143.18 -0.09 M129.8 21.4 C134.97 15.45, 140.15 9.49, 148.17 0.27 M129.8 21.4 C136.64 13.54, 143.48 5.67, 148.17 0.27 M135.44 21.01 C142.24 13.18, 149.05 5.35, 153.81 -0.12 M135.44 21.01 C139.59 16.24, 143.74 11.46, 153.81 -0.12 M140.43 21.37 C146.3 14.61, 152.18 7.85, 158.8 0.24 M140.43 21.37 C147.5 13.24, 154.57 5.1, 158.8 0.24 M146.07 20.97 C152.93 13.08, 159.8 5.18, 164.44 -0.16 M146.07 20.97 C151.75 14.44, 157.43 7.9, 164.44 -0.16 M151.06 21.33 C155.43 16.3, 159.81 11.27, 169.43 0.2 M151.06 21.33 C158.3 13, 165.54 4.67, 169.43 0.2 M156.7 20.94 C160.58 16.48, 164.46 12.01, 175.07 -0.19 M156.7 20.94 C163.91 12.65, 171.11 4.36, 175.07 -0.19 M161.69 21.3 C165.54 16.87, 169.38 12.44, 180.06 0.17 M161.69 21.3 C167.84 14.22, 174 7.14, 180.06 0.17 M167.33 20.91 C172.79 14.62, 178.25 8.34, 185.7 -0.23 M167.33 20.91 C173.86 13.39, 180.39 5.88, 185.7 -0.23 M172.32 21.27 C178.09 14.62, 183.87 7.98, 190.69 0.13 M172.32 21.27 C176.16 16.84, 180.01 12.41, 190.69 0.13 M177.96 20.87 C181.7 16.56, 185.45 12.25, 196.33 -0.26 M177.96 20.87 C183.42 14.59, 188.88 8.3, 196.33 -0.26 M182.95 21.23 C187.37 16.14, 191.8 11.05, 201.32 0.1 M182.95 21.23 C190.04 13.07, 197.14 4.9, 201.32 0.1 M188.59 20.84 C195.21 13.22, 201.83 5.6, 206.96 -0.3 M188.59 20.84 C192.86 15.92, 197.14 11.01, 206.96 -0.3 M193.58 21.2 C200.66 13.05, 207.74 4.91, 211.95 0.06 M193.58 21.2 C199.13 14.81, 204.68 8.42, 211.95 0.06 M199.22 20.8 C205.74 13.3, 212.25 5.81, 217.59 -0.33 M199.22 20.8 C206.45 12.48, 213.69 4.16, 217.59 -0.33 M204.21 21.16 C210.67 13.73, 217.13 6.29, 222.58 0.03 M204.21 21.16 C210.83 13.55, 217.45 5.93, 222.58 0.03 M209.85 20.77 C214.11 15.86, 218.38 10.96, 228.22 -0.36 M209.85 20.77 C215.92 13.78, 222 6.79, 228.22 -0.36 M214.84 21.13 C219.46 15.81, 224.08 10.49, 233.21 0 M214.84 21.13 C219.09 16.23, 223.35 11.34, 233.21 0 M220.48 20.73 C226.71 13.57, 232.93 6.41, 236.22 2.62 M220.48 20.73 C223.78 16.93, 227.09 13.13, 236.22 2.62 M225.47 21.09 C227.75 18.47, 230.03 15.84, 236.62 8.26 M225.47 21.09 C229.41 16.55, 233.36 12.02, 236.62 8.26 M231.11 20.7 C232.72 18.85, 234.32 17, 236.36 14.66 M231.11 20.7 C232.76 18.79, 234.42 16.89, 236.36 14.66" stroke="#fd7e14" stroke-width="0.5" fill="none"></path><path d="M0 0 C53.96 0, 107.92 0, 233.84 0 M233.84 0 C233.84 6.83, 233.84 13.66, 233.84 18.53 M233.84 18.53 C145.09 18.53, 56.34 18.53, 0 18.53 M0 18.53 C0 12.21, 0 5.88, 0 0" stroke="#000000" stroke-width="1.5" fill="none" stroke-dasharray="1.5 7"></path></g></svg>