<svg version="1.1" xmlns="http://www.w3.org/2000/svg" viewBox="0 0 379 373" width="379" height="373">
  <!-- svg-source:excalidraw -->
  
  <defs>
    <style>
        <link href="../styleSvg.css" type="text/css" rel="stylesheet" 
          xmlns="http://www.w3.org/1999/xhtml"/>
      @font-face {
        font-family: "Virgil";
        src: url("../Virgil.woff2");;
      }
      
    </style>
  </defs>
  <rect x="0" y="0" width="379" height="373" fill="#ffffff"></rect><g stroke-linecap="round" transform="translate(10 10) rotate(0 179.5 176.5)"><path d="M0 0 C132.05 0, 264.09 0, 359 0 M0 0 C95.23 0, 190.45 0, 359 0 M359 0 C359 114.18, 359 228.36, 359 353 M359 0 C359 86.84, 359 173.68, 359 353 M359 353 C221.24 353, 83.49 353, 0 353 M359 353 C242.9 353, 126.8 353, 0 353 M0 353 C0 213.76, 0 74.53, 0 0 M0 353 C0 268.27, 0 183.54, 0 0" stroke="#000000" stroke-width="1" fill="none"></path></g><g stroke-linecap="round"><g transform="translate(100 184) rotate(0 83.5 0)"><path class="path" d="M0 0 C27.83 0, 139.17 0, 167 0 M0 0 C27.83 0, 139.17 0, 167 0" stroke="#000000" stroke-width="1" fill="none"></path></g></g><g stroke-linecap="round" transform="translate(199 211) rotate(0 5.5 5.5)"><path class="circle" d="M11 5.5 C11 5.82, 10.97 6.14, 10.92 6.46 C10.86 6.77, 10.78 7.08, 10.67 7.38 C10.56 7.68, 10.42 7.97, 10.26 8.25 C10.1 8.53, 9.92 8.79, 9.71 9.04 C9.51 9.28, 9.28 9.51, 9.04 9.71 C8.79 9.92, 8.53 10.1, 8.25 10.26 C7.97 10.42, 7.68 10.56, 7.38 10.67 C7.08 10.78, 6.77 10.86, 6.46 10.92 C6.14 10.97, 5.82 11, 5.5 11 C5.18 11, 4.86 10.97, 4.54 10.92 C4.23 10.86, 3.92 10.78, 3.62 10.67 C3.32 10.56, 3.03 10.42, 2.75 10.26 C2.47 10.1, 2.21 9.92, 1.96 9.71 C1.72 9.51, 1.49 9.28, 1.29 9.04 C1.08 8.79, 0.9 8.53, 0.74 8.25 C0.58 7.97, 0.44 7.68, 0.33 7.38 C0.22 7.08, 0.14 6.77, 0.08 6.46 C0.03 6.14, 0 5.82, 0 5.5 C0 5.18, 0.03 4.86, 0.08 4.54 C0.14 4.23, 0.22 3.92, 0.33 3.62 C0.44 3.32, 0.58 3.03, 0.74 2.75 C0.9 2.47, 1.08 2.21, 1.29 1.96 C1.49 1.72, 1.72 1.49, 1.96 1.29 C2.21 1.08, 2.47 0.9, 2.75 0.74 C3.03 0.58, 3.32 0.44, 3.62 0.33 C3.92 0.22, 4.23 0.14, 4.54 0.08 C4.86 0.03, 5.18 0, 5.5 0 C5.82 0, 6.14 0.03, 6.46 0.08 C6.77 0.14, 7.08 0.22, 7.38 0.33 C7.68 0.44, 7.97 0.58, 8.25 0.74 C8.53 0.9, 8.79 1.08, 9.04 1.29 C9.28 1.49, 9.51 1.72, 9.71 1.96 C9.92 2.21, 10.1 2.47, 10.26 2.75 C10.42 3.03, 10.56 3.32, 10.67 3.62 C10.78 3.92, 10.86 4.23, 10.92 4.54 C10.97 4.86, 10.99 5.34, 11 5.5 C11.01 5.66, 11.01 5.34, 11 5.5" stroke="none" stroke-width="0" fill="#fd7e14"></path><path d="M11 5.5 C11 5.82, 10.97 6.14, 10.92 6.46 C10.86 6.77, 10.78 7.08, 10.67 7.38 C10.56 7.68, 10.42 7.97, 10.26 8.25 C10.1 8.53, 9.92 8.79, 9.71 9.04 C9.51 9.28, 9.28 9.51, 9.04 9.71 C8.79 9.92, 8.53 10.1, 8.25 10.26 C7.97 10.42, 7.68 10.56, 7.38 10.67 C7.08 10.78, 6.77 10.86, 6.46 10.92 C6.14 10.97, 5.82 11, 5.5 11 C5.18 11, 4.86 10.97, 4.54 10.92 C4.23 10.86, 3.92 10.78, 3.62 10.67 C3.32 10.56, 3.03 10.42, 2.75 10.26 C2.47 10.1, 2.21 9.92, 1.96 9.71 C1.72 9.51, 1.49 9.28, 1.29 9.04 C1.08 8.79, 0.9 8.53, 0.74 8.25 C0.58 7.97, 0.44 7.68, 0.33 7.38 C0.22 7.08, 0.14 6.77, 0.08 6.46 C0.03 6.14, 0 5.82, 0 5.5 C0 5.18, 0.03 4.86, 0.08 4.54 C0.14 4.23, 0.22 3.92, 0.33 3.62 C0.44 3.32, 0.58 3.03, 0.74 2.75 C0.9 2.47, 1.08 2.21, 1.29 1.96 C1.49 1.72, 1.72 1.49, 1.96 1.29 C2.21 1.08, 2.47 0.9, 2.75 0.74 C3.03 0.58, 3.32 0.44, 3.62 0.33 C3.92 0.22, 4.23 0.14, 4.54 0.08 C4.86 0.03, 5.18 0, 5.5 0 C5.82 0, 6.14 0.03, 6.46 0.08 C6.77 0.14, 7.08 0.22, 7.38 0.33 C7.68 0.44, 7.97 0.58, 8.25 0.74 C8.53 0.9, 8.79 1.08, 9.04 1.29 C9.28 1.49, 9.51 1.72, 9.71 1.96 C9.92 2.21, 10.1 2.47, 10.26 2.75 C10.42 3.03, 10.56 3.32, 10.67 3.62 C10.78 3.92, 10.86 4.23, 10.92 4.54 C10.97 4.86, 10.99 5.34, 11 5.5 C11.01 5.66, 11.01 5.34, 11 5.5" stroke="#000000" stroke-width="1" fill="none"></path></g><g transform="translate(49 39) rotate(0 5.5 13.5)"><text x="0" y="20" font-family="Virgil, Segoe UI Emoji" font-size="20px" fill="#000000" text-anchor="start" style="white-space: pre;" direction="ltr">प</text></g><g transform="translate(319 40) rotate(0 7 12.5)"><text x="0" y="18" font-family="Virgil, Segoe UI Emoji" font-size="20px" fill="#000000" text-anchor="start" style="white-space: pre;" direction="ltr">P</text></g><g transform="translate(318 299) rotate(0 7 13.5)"><text x="0" y="21" font-family="Helvetica, Segoe UI Emoji" font-size="23.076923076923066px" fill="#000000" text-anchor="end" style="white-space: pre;" direction="rtl">یا</text></g><g transform="translate(185 297.75) rotate(0 19 14.5)"><text x="0" y="23" font-family="Helvetica, Segoe UI Emoji" font-size="24.999999999999996px" fill="#000000" text-anchor="end" style="white-space: pre;" direction="rtl">ٹپک</text></g><g transform="translate(54 295) rotate(0 23 17)"><text x="0" y="27" font-family="Helvetica, Segoe UI Emoji" font-size="29.230769230769223px" fill="#000000" text-anchor="end" style="white-space: pre;" direction="rtl">باپ</text></g><g stroke-linecap="round" transform="translate(157.5 211.5) rotate(0 5.5 5.5)"><path class="circle" d="M11 5.5 C11 5.82, 10.97 6.14, 10.92 6.46 C10.86 6.77, 10.78 7.08, 10.67 7.38 C10.56 7.68, 10.42 7.97, 10.26 8.25 C10.1 8.53, 9.92 8.79, 9.71 9.04 C9.51 9.28, 9.28 9.51, 9.04 9.71 C8.79 9.92, 8.53 10.1, 8.25 10.26 C7.97 10.42, 7.68 10.56, 7.38 10.67 C7.08 10.78, 6.77 10.86, 6.46 10.92 C6.14 10.97, 5.82 11, 5.5 11 C5.18 11, 4.86 10.97, 4.54 10.92 C4.23 10.86, 3.92 10.78, 3.62 10.67 C3.32 10.56, 3.03 10.42, 2.75 10.26 C2.47 10.1, 2.21 9.92, 1.96 9.71 C1.72 9.51, 1.49 9.28, 1.29 9.04 C1.08 8.79, 0.9 8.53, 0.74 8.25 C0.58 7.97, 0.44 7.68, 0.33 7.38 C0.22 7.08, 0.14 6.77, 0.08 6.46 C0.03 6.14, 0 5.82, 0 5.5 C0 5.18, 0.03 4.86, 0.08 4.54 C0.14 4.23, 0.22 3.92, 0.33 3.62 C0.44 3.32, 0.58 3.03, 0.74 2.75 C0.9 2.47, 1.08 2.21, 1.29 1.96 C1.49 1.72, 1.72 1.49, 1.96 1.29 C2.21 1.08, 2.47 0.9, 2.75 0.74 C3.03 0.58, 3.32 0.44, 3.62 0.33 C3.92 0.22, 4.23 0.14, 4.54 0.08 C4.86 0.03, 5.18 0, 5.5 0 C5.82 0, 6.14 0.03, 6.46 0.08 C6.77 0.14, 7.08 0.22, 7.38 0.33 C7.68 0.44, 7.97 0.58, 8.25 0.74 C8.53 0.9, 8.79 1.08, 9.04 1.29 C9.28 1.49, 9.51 1.72, 9.71 1.96 C9.92 2.21, 10.1 2.47, 10.26 2.75 C10.42 3.03, 10.56 3.32, 10.67 3.62 C10.78 3.92, 10.86 4.23, 10.92 4.54 C10.97 4.86, 10.99 5.34, 11 5.5 C11.01 5.66, 11.01 5.34, 11 5.5" stroke="none" stroke-width="0" fill="#fd7e14"></path><path d="M11 5.5 C11 5.82, 10.97 6.14, 10.92 6.46 C10.86 6.77, 10.78 7.08, 10.67 7.38 C10.56 7.68, 10.42 7.97, 10.26 8.25 C10.1 8.53, 9.92 8.79, 9.71 9.04 C9.51 9.28, 9.28 9.51, 9.04 9.71 C8.79 9.92, 8.53 10.1, 8.25 10.26 C7.97 10.42, 7.68 10.56, 7.38 10.67 C7.08 10.78, 6.77 10.86, 6.46 10.92 C6.14 10.97, 5.82 11, 5.5 11 C5.18 11, 4.86 10.97, 4.54 10.92 C4.23 10.86, 3.92 10.78, 3.62 10.67 C3.32 10.56, 3.03 10.42, 2.75 10.26 C2.47 10.1, 2.21 9.92, 1.96 9.71 C1.72 9.51, 1.49 9.28, 1.29 9.04 C1.08 8.79, 0.9 8.53, 0.74 8.25 C0.58 7.97, 0.44 7.68, 0.33 7.38 C0.22 7.08, 0.14 6.77, 0.08 6.46 C0.03 6.14, 0 5.82, 0 5.5 C0 5.18, 0.03 4.86, 0.08 4.54 C0.14 4.23, 0.22 3.92, 0.33 3.62 C0.44 3.32, 0.58 3.03, 0.74 2.75 C0.9 2.47, 1.08 2.21, 1.29 1.96 C1.49 1.72, 1.72 1.49, 1.96 1.29 C2.21 1.08, 2.47 0.9, 2.75 0.74 C3.03 0.58, 3.32 0.44, 3.62 0.33 C3.92 0.22, 4.23 0.14, 4.54 0.08 C4.86 0.03, 5.18 0, 5.5 0 C5.82 0, 6.14 0.03, 6.46 0.08 C6.77 0.14, 7.08 0.22, 7.38 0.33 C7.68 0.44, 7.97 0.58, 8.25 0.74 C8.53 0.9, 8.79 1.08, 9.04 1.29 C9.28 1.49, 9.51 1.72, 9.71 1.96 C9.92 2.21, 10.1 2.47, 10.26 2.75 C10.42 3.03, 10.56 3.32, 10.67 3.62 C10.78 3.92, 10.86 4.23, 10.92 4.54 C10.97 4.86, 10.99 5.34, 11 5.5 C11.01 5.66, 11.01 5.34, 11 5.5" stroke="#000000" stroke-width="1" fill="none"></path></g><g stroke-linecap="round" transform="translate(178 231) rotate(0 5.5 5.5)"><path class="circle" d="M11 5.5 C11 5.82, 10.97 6.14, 10.92 6.46 C10.86 6.77, 10.78 7.08, 10.67 7.38 C10.56 7.68, 10.42 7.97, 10.26 8.25 C10.1 8.53, 9.92 8.79, 9.71 9.04 C9.51 9.28, 9.28 9.51, 9.04 9.71 C8.79 9.92, 8.53 10.1, 8.25 10.26 C7.97 10.42, 7.68 10.56, 7.38 10.67 C7.08 10.78, 6.77 10.86, 6.46 10.92 C6.14 10.97, 5.82 11, 5.5 11 C5.18 11, 4.86 10.97, 4.54 10.92 C4.23 10.86, 3.92 10.78, 3.62 10.67 C3.32 10.56, 3.03 10.42, 2.75 10.26 C2.47 10.1, 2.21 9.92, 1.96 9.71 C1.72 9.51, 1.49 9.28, 1.29 9.04 C1.08 8.79, 0.9 8.53, 0.74 8.25 C0.58 7.97, 0.44 7.68, 0.33 7.38 C0.22 7.08, 0.14 6.77, 0.08 6.46 C0.03 6.14, 0 5.82, 0 5.5 C0 5.18, 0.03 4.86, 0.08 4.54 C0.14 4.23, 0.22 3.92, 0.33 3.62 C0.44 3.32, 0.58 3.03, 0.74 2.75 C0.9 2.47, 1.08 2.21, 1.29 1.96 C1.49 1.72, 1.72 1.49, 1.96 1.29 C2.21 1.08, 2.47 0.9, 2.75 0.74 C3.03 0.58, 3.32 0.44, 3.62 0.33 C3.92 0.22, 4.23 0.14, 4.54 0.08 C4.86 0.03, 5.18 0, 5.5 0 C5.82 0, 6.14 0.03, 6.46 0.08 C6.77 0.14, 7.08 0.22, 7.38 0.33 C7.68 0.44, 7.97 0.58, 8.25 0.74 C8.53 0.9, 8.79 1.08, 9.04 1.29 C9.28 1.49, 9.51 1.72, 9.71 1.96 C9.92 2.21, 10.1 2.47, 10.26 2.75 C10.42 3.03, 10.56 3.32, 10.67 3.62 C10.78 3.92, 10.86 4.23, 10.92 4.54 C10.97 4.86, 10.99 5.34, 11 5.5 C11.01 5.66, 11.01 5.34, 11 5.5" stroke="none" stroke-width="0" fill="#fd7e14"></path><path d="M11 5.5 C11 5.82, 10.97 6.14, 10.92 6.46 C10.86 6.77, 10.78 7.08, 10.67 7.38 C10.56 7.68, 10.42 7.97, 10.26 8.25 C10.1 8.53, 9.92 8.79, 9.71 9.04 C9.51 9.28, 9.28 9.51, 9.04 9.71 C8.79 9.92, 8.53 10.1, 8.25 10.26 C7.97 10.42, 7.68 10.56, 7.38 10.67 C7.08 10.78, 6.77 10.86, 6.46 10.92 C6.14 10.97, 5.82 11, 5.5 11 C5.18 11, 4.86 10.97, 4.54 10.92 C4.23 10.86, 3.92 10.78, 3.62 10.67 C3.32 10.56, 3.03 10.42, 2.75 10.26 C2.47 10.1, 2.21 9.92, 1.96 9.71 C1.72 9.51, 1.49 9.28, 1.29 9.04 C1.08 8.79, 0.9 8.53, 0.74 8.25 C0.58 7.97, 0.44 7.68, 0.33 7.38 C0.22 7.08, 0.14 6.77, 0.08 6.46 C0.03 6.14, 0 5.82, 0 5.5 C0 5.18, 0.03 4.86, 0.08 4.54 C0.14 4.23, 0.22 3.92, 0.33 3.62 C0.44 3.32, 0.58 3.03, 0.74 2.75 C0.9 2.47, 1.08 2.21, 1.29 1.96 C1.49 1.72, 1.72 1.49, 1.96 1.29 C2.21 1.08, 2.47 0.9, 2.75 0.74 C3.03 0.58, 3.32 0.44, 3.62 0.33 C3.92 0.22, 4.23 0.14, 4.54 0.08 C4.86 0.03, 5.18 0, 5.5 0 C5.82 0, 6.14 0.03, 6.46 0.08 C6.77 0.14, 7.08 0.22, 7.38 0.33 C7.68 0.44, 7.97 0.58, 8.25 0.74 C8.53 0.9, 8.79 1.08, 9.04 1.29 C9.28 1.49, 9.51 1.72, 9.71 1.96 C9.92 2.21, 10.1 2.47, 10.26 2.75 C10.42 3.03, 10.56 3.32, 10.67 3.62 C10.78 3.92, 10.86 4.23, 10.92 4.54 C10.97 4.86, 10.99 5.34, 11 5.5 C11.01 5.66, 11.01 5.34, 11 5.5" stroke="#000000" stroke-width="1" fill="none"></path></g><g transform="translate(148.1460244655609 44.91873645782471) rotate(0 29.5 13)"><text x="29.5" y="19" font-family="Virgil, Segoe UI Emoji" font-size="20px" fill="#000000" text-anchor="middle" style="white-space: pre;" direction="ltr">Pe(پ)</text></g><g transform="translate(321.212161898613 327.297407746315) rotate(0 10 10)"><text x="20" y="14" font-family="Virgil, Segoe UI Emoji" font-size="16px" fill="#000000" text-anchor="end" style="white-space: pre;" direction="ltr">pa</text></g><g transform="translate(179.21216189861298 327.297407746315) rotate(0 28 10)"><text x="56" y="14" font-family="Virgil, Segoe UI Emoji" font-size="16px" fill="#000000" text-anchor="end" style="white-space: pre;" direction="ltr">ttapak</text></g><g transform="translate(56.212161898612976 327.297407746315) rotate(0 19 10)"><text x="38" y="14" font-family="Virgil, Segoe UI Emoji" font-size="16px" fill="#000000" text-anchor="end" style="white-space: pre;" direction="ltr">baap</text></g></svg>