<svg version="1.1" xmlns="http://www.w3.org/2000/svg" viewBox="0 0 379 373" width="379" height="373">
  <!-- svg-source:excalidraw -->
  
  <defs>
    <style>
      @font-face {
        font-family: "Virgil";
        src: url("https://excalidraw.com/Virgil.woff2");
      }
      @font-face {
        font-family: "Cascadia";
        src: url("https://excalidraw.com/Cascadia.woff2");
      }
    </style>
  </defs>
  <rect x="0" y="0" width="379" height="373" fill="#ffffff"></rect><g stroke-linecap="round" transform="translate(10 10) rotate(0 179.5 176.5)"><path d="M0 0 C114.24 0, 228.48 0, 359 0 M0 0 C136.55 0, 273.1 0, 359 0 M359 0 C359 91.81, 359 183.61, 359 353 M359 0 C359 96.85, 359 193.69, 359 353 M359 353 C221.83 353, 84.66 353, 0 353 M359 353 C249.37 353, 139.74 353, 0 353 M0 353 C0 257.28, 0 161.56, 0 0 M0 353 C0 213.23, 0 73.45, 0 0" stroke="#000000" stroke-width="1" fill="none"></path></g><g transform="translate(37.5 39) rotate(0 17.5 13.5)"><text x="17.5" y="20" font-family="Virgil, Segoe UI Emoji" font-size="20px" fill="#000000" text-anchor="middle" style="white-space: pre;" direction="ltr">उ/u</text></g><g transform="translate(314.4999999999998 42) rotate(0 21.5 12.5)"><text x="21.5" y="18" font-family="Virgil, Segoe UI Emoji" font-size="20px" fill="#000000" text-anchor="middle" style="white-space: pre;" direction="ltr">pesh</text></g><g transform="translate(312.4999999999998 298.9999999999982) rotate(0 12.5 15)"><text x="12.5" y="21" font-family="Virgil, Segoe UI Emoji" font-size="23.076923076923066px" fill="#000000" text-anchor="middle" style="white-space: pre;" direction="rtl">پُل</text></g><g transform="translate(184.49999999999977 297.7499999999982) rotate(0 20.5 16)"><text x="20.5" y="23" font-family="Virgil, Segoe UI Emoji" font-size="24.999999999999996px" fill="#000000" text-anchor="middle" style="white-space: pre;" direction="rtl">سُن</text></g><g transform="translate(62.5 300.9999999999982) rotate(0 7 13)"><text x="7" y="19" font-family="Virgil, Segoe UI Emoji" font-size="20px" fill="#000000" text-anchor="middle" style="white-space: pre;" direction="rtl">چُ</text></g><g transform="translate(150.49999999999977 42.72728228569031) rotate(0 36.5 13)"><text x="36.5" y="19" font-family="Virgil, Segoe UI Emoji" font-size="20px" fill="#000000" text-anchor="middle" style="white-space: pre;" direction="rtl">ا + ُ = اُ</text></g><g transform="translate(315.9351814985273 330.89663970470247) rotate(0 11 10)"><text x="22" y="14" font-family="Virgil, Segoe UI Emoji" font-size="16px" fill="#000000" text-anchor="end" style="white-space: pre;" direction="ltr">pul</text></g><g transform="translate(192.9351814985273 330.89663970470247) rotate(0 13 10)"><text x="26" y="14" font-family="Virgil, Segoe UI Emoji" font-size="16px" fill="#000000" text-anchor="end" style="white-space: pre;" direction="ltr">sun</text></g><g transform="translate(60.93518149852753 330.89663970470247) rotate(0 13 10)"><text x="26" y="14" font-family="Virgil, Segoe UI Emoji" font-size="16px" fill="#000000" text-anchor="end" style="white-space: pre;" direction="ltr">chu</text></g><g stroke-linecap="round"><g transform="translate(122.64736295982107 186.3835996136022) rotate(179.62931685344796 59.62565669837261 0.4730059691646602)"><path d="M0 0 C19.88 0.16, 99.38 0.79, 119.25 0.95" stroke="#000000" stroke-width="1.5" fill="none" stroke-dasharray="1.5 7"></path></g></g><g stroke-linecap="round"><g transform="translate(188.85264581139563 146.388952451558) rotate(0 -4.035012518703866 -12.229410830876077)"><path d="M0 0 C4.16 -5.62, 21.8 -32.08, 24.96 -33.73 C28.13 -35.37, 24.78 -15.84, 18.99 -9.88 C13.21 -3.93, -0.88 -1.2, -9.76 2.01 C-18.63 5.22, -30.17 8.14, -34.25 9.37 M0 0 C4.16 -5.62, 21.8 -32.08, 24.96 -33.73 C28.13 -35.37, 24.78 -15.84, 18.99 -9.88 C13.21 -3.93, -0.88 -1.2, -9.76 2.01 C-18.63 5.22, -30.17 8.14, -34.25 9.37" stroke="#000000" stroke-width="1" fill="none"></path></g></g></svg>