<svg version="1.1" xmlns="http://www.w3.org/2000/svg" viewBox="0 0 379 373" width="379" height="373">
  <!-- svg-source:excalidraw -->
  
  <defs>
    <style>
      @font-face {
        font-family: "Virgil";
        src: url("https://excalidraw.com/Virgil.woff2");
      }
      @font-face {
        font-family: "Cascadia";
        src: url("https://excalidraw.com/Cascadia.woff2");
      }
    </style>
  </defs>
  <rect x="0" y="0" width="379" height="373" fill="#ffffff"></rect><g stroke-linecap="round" transform="translate(10 10) rotate(0 179.5 176.5)"><path d="M0 0 C88.29 0, 176.58 0, 359 0 M0 0 C100.1 0, 200.2 0, 359 0 M359 0 C359 115.23, 359 230.45, 359 353 M359 0 C359 136.85, 359 273.71, 359 353 M359 353 C263.44 353, 167.88 353, 0 353 M359 353 C274.45 353, 189.9 353, 0 353 M0 353 C0 270.72, 0 188.43, 0 0 M0 353 C0 261.34, 0 169.69, 0 0" stroke="#000000" stroke-width="1" fill="none"></path></g><g transform="translate(50 39) rotate(0 5 13.5)"><text x="5" y="20" font-family="Virgil, Segoe UI Emoji" font-size="20px" fill="#000000" text-anchor="middle" style="white-space: pre;" direction="ltr">र</text></g><g transform="translate(328.5 42) rotate(0 7.5 12.5)"><text x="7.5" y="18" font-family="Virgil, Segoe UI Emoji" font-size="20px" fill="#000000" text-anchor="middle" style="white-space: pre;" direction="ltr">R</text></g><g transform="translate(310 299) rotate(0 15 15)"><text x="15" y="21" font-family="Virgil, Segoe UI Emoji" font-size="23.076923076923066px" fill="#000000" text-anchor="middle" style="white-space: pre;" direction="rtl">راز</text></g><g transform="translate(176 297.75) rotate(0 29 16)"><text x="29" y="23" font-family="Virgil, Segoe UI Emoji" font-size="24.999999999999996px" fill="#000000" text-anchor="middle" style="white-space: pre;" direction="rtl">بارش</text></g><g transform="translate(48.5 295) rotate(0 21 19)"><text x="21" y="27" font-family="Virgil, Segoe UI Emoji" font-size="29.230769230769223px" fill="#000000" text-anchor="middle" style="white-space: pre;" direction="rtl">چار</text></g><g transform="translate(156 42.72728228569031) rotate(0 31 13)"><text x="31" y="19" font-family="Virgil, Segoe UI Emoji" font-size="20px" fill="#000000" text-anchor="middle" style="white-space: pre;" direction="ltr">Ray(ر)</text></g><g stroke-linecap="round"><g transform="translate(238.97761990693107 146.03724908828735) rotate(0 -46.90286586177024 55.793737294667835)"><path d="M0 0 C0.09 6.79, 3.09 27.18, 0.52 40.72 C-2.06 54.26, -6.33 71.01, -15.45 81.23 C-24.57 91.44, -40.88 96.95, -54.2 102.01 C-67.52 107.07, -88.5 109.99, -95.36 111.59 M0 0 C0.09 6.79, 3.09 27.18, 0.52 40.72 C-2.06 54.26, -6.33 71.01, -15.45 81.23 C-24.57 91.44, -40.88 96.95, -54.2 102.01 C-67.52 107.07, -88.5 109.99, -95.36 111.59" stroke="#000000" stroke-width="1" fill="none"></path></g></g><g transform="translate(311.41058373451233 331.3663375377655) rotate(0 17 10)"><text x="17" y="14" font-family="Virgil, Segoe UI Emoji" font-size="16px" fill="#000000" text-anchor="middle" style="white-space: pre;" direction="ltr">raaj</text></g><g transform="translate(186.91058373451233 331.3663375377655) rotate(0 23.5 10)"><text x="23.5" y="14" font-family="Virgil, Segoe UI Emoji" font-size="16px" fill="#000000" text-anchor="middle" style="white-space: pre;" direction="ltr">barish</text></g><g transform="translate(49.91058373451233 331.3663375377655) rotate(0 17.5 10)"><text x="17.5" y="14" font-family="Virgil, Segoe UI Emoji" font-size="16px" fill="#000000" text-anchor="middle" style="white-space: pre;" direction="ltr">char</text></g></svg>