<svg version="1.1" xmlns="http://www.w3.org/2000/svg" viewBox="0 0 379 373" width="379" height="373">
  <!-- svg-source:excalidraw -->
  
  <defs>
    <style>
      @font-face {
        font-family: "Virgil";
        src: url("../Virgil.woff2");;
      }
      
    </style>
  </defs>
  <rect x="0" y="0" width="379" height="373" fill="#ffffff"></rect><g stroke-linecap="round" transform="translate(10 10) rotate(0 179.5 176.5)"><path d="M0 0 C127.41 0, 254.82 0, 359 0 M0 0 C103.08 0, 206.16 0, 359 0 M359 0 C359 135.98, 359 271.96, 359 353 M359 0 C359 131.58, 359 263.17, 359 353 M359 353 C216.38 353, 73.76 353, 0 353 M359 353 C258.9 353, 158.79 353, 0 353 M0 353 C0 217.66, 0 82.32, 0 0 M0 353 C0 236.44, 0 119.88, 0 0" stroke="#000000" stroke-width="1" fill="none"></path></g><g transform="translate(49 39) rotate(0 7.5 13.5)"><text x="0" y="20" font-family="Virgil, Segoe UI Emoji" font-size="20px" fill="#000000" text-anchor="start" style="white-space: pre;" direction="ltr">स</text></g><g transform="translate(319 40) rotate(0 6.5 12.5)"><text x="0" y="18" font-family="Virgil, Segoe UI Emoji" font-size="20px" fill="#000000" text-anchor="start" style="white-space: pre;" direction="ltr">S</text></g><g transform="translate(318 299) rotate(0 13.5 13.5)"><text x="13.5" y="21" font-family="Helvetica, Segoe UI Emoji" font-size="23.076923076923066px" fill="#000000" text-anchor="middle" style="white-space: pre;" direction="rtl">سا</text></g><g transform="translate(185 297.75) rotate(0 29.5 14.5)"><text x="0" y="23" font-family="Helvetica, Segoe UI Emoji" font-size="24.999999999999996px" fill="#000000" text-anchor="end" style="white-space: pre;" direction="rtl">بستی</text></g><g transform="translate(54 295) rotate(0 23 17)"><text x="0" y="27" font-family="Helvetica, Segoe UI Emoji" font-size="29.230769230769223px" fill="#000000" text-anchor="end" style="white-space: pre;" direction="rtl">بس</text></g><g stroke-linecap="round"><g transform="translate(89.38430380821228 178.27271139621735) rotate(0 48 21.71875)"><path d="M0 0 C4.83 6.53, 15.67 32.72, 29 39.17 C42.33 45.63, 68.83 44.24, 80 38.73 C91.17 33.22, 93.33 11.54, 96 6.1 M0 0 C4.83 6.53, 15.67 32.72, 29 39.17 C42.33 45.63, 68.83 44.24, 80 38.73 C91.17 33.22, 93.33 11.54, 96 6.1" stroke="#000000" stroke-width="1" fill="none"></path></g></g><g stroke-linecap="round"><g transform="translate(183.38430380821228 183.90898778777228) rotate(0 48 16.894613723608472)"><path d="M0 0 C3.5 5.36, 7.67 26.72, 21 32.17 C34.33 37.63, 67.5 38.57, 80 32.73 C92.5 26.88, 93.33 3.04, 96 -2.9 M0 0 C3.5 5.36, 7.67 26.72, 21 32.17 C34.33 37.63, 67.5 38.57, 80 32.73 C92.5 26.88, 93.33 3.04, 96 -2.9" stroke="#000000" stroke-width="1" fill="none"></path></g></g><g transform="translate(144.70812928676605 39.5) rotate(0 42 13)"><text x="42" y="19" font-family="Virgil, Segoe UI Emoji" font-size="20px" fill="#000000" text-anchor="middle" style="white-space: pre;" direction="ltr">Seen(س)</text></g></svg>