<svg version="1.1" xmlns="http://www.w3.org/2000/svg" viewBox="0 0 379 373" width="379" height="373">
  <!-- svg-source:excalidraw -->
  
  <defs>
    <link href="../styleSvg.css" type="text/css" rel="stylesheet" 
          xmlns="http://www.w3.org/1999/xhtml"/>
    <style>
      @font-face {
        font-family: "Virgil";
        src: url("../Virgil.woff2");;
      }
      
    </style>
  </defs>
  <rect x="0" y="0" width="379" height="373" fill="#ffffff"></rect><g transform="translate(134 42.5) rotate(0 47 13)"><text x="47" y="19" font-family="Virgil, Segoe UI Emoji" font-size="20px" fill="#000000" text-anchor="middle" style="white-space: pre;" direction="ltr">Sheen(ش)</text></g><g stroke-linecap="round" transform="translate(10 10) rotate(0 179.5 176.5)"><path d="M0 0 C104.47 0, 208.94 0, 359 0 M0 0 C107.25 0, 214.49 0, 359 0 M359 0 C359 96.07, 359 192.13, 359 353 M359 0 C359 111.36, 359 222.73, 359 353 M359 353 C245.47 353, 131.93 353, 0 353 M359 353 C259.34 353, 159.69 353, 0 353 M0 353 C0 278, 0 203.01, 0 0 M0 353 C0 238.01, 0 123.03, 0 0" stroke="#000000" stroke-width="1" fill="none"></path></g><g stroke-linecap="round" transform="translate(194 150) rotate(0 5.5 5.5)"><path class="circle" d="M11 5.5 C11 5.82, 10.97 6.14, 10.92 6.46 C10.86 6.77, 10.78 7.08, 10.67 7.38 C10.56 7.68, 10.42 7.97, 10.26 8.25 C10.1 8.53, 9.92 8.79, 9.71 9.04 C9.51 9.28, 9.28 9.51, 9.04 9.71 C8.79 9.92, 8.53 10.1, 8.25 10.26 C7.97 10.42, 7.68 10.56, 7.38 10.67 C7.08 10.78, 6.77 10.86, 6.46 10.92 C6.14 10.97, 5.82 11, 5.5 11 C5.18 11, 4.86 10.97, 4.54 10.92 C4.23 10.86, 3.92 10.78, 3.62 10.67 C3.32 10.56, 3.03 10.42, 2.75 10.26 C2.47 10.1, 2.21 9.92, 1.96 9.71 C1.72 9.51, 1.49 9.28, 1.29 9.04 C1.08 8.79, 0.9 8.53, 0.74 8.25 C0.58 7.97, 0.44 7.68, 0.33 7.38 C0.22 7.08, 0.14 6.77, 0.08 6.46 C0.03 6.14, 0 5.82, 0 5.5 C0 5.18, 0.03 4.86, 0.08 4.54 C0.14 4.23, 0.22 3.92, 0.33 3.62 C0.44 3.32, 0.58 3.03, 0.74 2.75 C0.9 2.47, 1.08 2.21, 1.29 1.96 C1.49 1.72, 1.72 1.49, 1.96 1.29 C2.21 1.08, 2.47 0.9, 2.75 0.74 C3.03 0.58, 3.32 0.44, 3.62 0.33 C3.92 0.22, 4.23 0.14, 4.54 0.08 C4.86 0.03, 5.18 0, 5.5 0 C5.82 0, 6.14 0.03, 6.46 0.08 C6.77 0.14, 7.08 0.22, 7.38 0.33 C7.68 0.44, 7.97 0.58, 8.25 0.74 C8.53 0.9, 8.79 1.08, 9.04 1.29 C9.28 1.49, 9.51 1.72, 9.71 1.96 C9.92 2.21, 10.1 2.47, 10.26 2.75 C10.42 3.03, 10.56 3.32, 10.67 3.62 C10.78 3.92, 10.86 4.23, 10.92 4.54 C10.97 4.86, 10.99 5.34, 11 5.5 C11.01 5.66, 11.01 5.34, 11 5.5" stroke="none" stroke-width="0" fill="#fd7e14"></path><path d="M11 5.5 C11 5.82, 10.97 6.14, 10.92 6.46 C10.86 6.77, 10.78 7.08, 10.67 7.38 C10.56 7.68, 10.42 7.97, 10.26 8.25 C10.1 8.53, 9.92 8.79, 9.71 9.04 C9.51 9.28, 9.28 9.51, 9.04 9.71 C8.79 9.92, 8.53 10.1, 8.25 10.26 C7.97 10.42, 7.68 10.56, 7.38 10.67 C7.08 10.78, 6.77 10.86, 6.46 10.92 C6.14 10.97, 5.82 11, 5.5 11 C5.18 11, 4.86 10.97, 4.54 10.92 C4.23 10.86, 3.92 10.78, 3.62 10.67 C3.32 10.56, 3.03 10.42, 2.75 10.26 C2.47 10.1, 2.21 9.92, 1.96 9.71 C1.72 9.51, 1.49 9.28, 1.29 9.04 C1.08 8.79, 0.9 8.53, 0.74 8.25 C0.58 7.97, 0.44 7.68, 0.33 7.38 C0.22 7.08, 0.14 6.77, 0.08 6.46 C0.03 6.14, 0 5.82, 0 5.5 C0 5.18, 0.03 4.86, 0.08 4.54 C0.14 4.23, 0.22 3.92, 0.33 3.62 C0.44 3.32, 0.58 3.03, 0.74 2.75 C0.9 2.47, 1.08 2.21, 1.29 1.96 C1.49 1.72, 1.72 1.49, 1.96 1.29 C2.21 1.08, 2.47 0.9, 2.75 0.74 C3.03 0.58, 3.32 0.44, 3.62 0.33 C3.92 0.22, 4.23 0.14, 4.54 0.08 C4.86 0.03, 5.18 0, 5.5 0 C5.82 0, 6.14 0.03, 6.46 0.08 C6.77 0.14, 7.08 0.22, 7.38 0.33 C7.68 0.44, 7.97 0.58, 8.25 0.74 C8.53 0.9, 8.79 1.08, 9.04 1.29 C9.28 1.49, 9.51 1.72, 9.71 1.96 C9.92 2.21, 10.1 2.47, 10.26 2.75 C10.42 3.03, 10.56 3.32, 10.67 3.62 C10.78 3.92, 10.86 4.23, 10.92 4.54 C10.97 4.86, 10.99 5.34, 11 5.5 C11.01 5.66, 11.01 5.34, 11 5.5" stroke="#000000" stroke-width="1" fill="none"></path></g><g transform="translate(49 39) rotate(0 7 13.5)"><text x="0" y="20" font-family="Virgil, Segoe UI Emoji" font-size="20px" fill="#000000" text-anchor="start" style="white-space: pre;" direction="ltr">श</text></g><g transform="translate(319 40) rotate(0 6.5 12.5)"><text x="0" y="18" font-family="Virgil, Segoe UI Emoji" font-size="20px" fill="#000000" text-anchor="start" style="white-space: pre;" direction="ltr">S</text></g><g transform="translate(316.72164948453747 299.0412371134021) rotate(0 13.63917525773195 13.639175257731836)"><text x="0" y="21.27835051546372" font-family="Helvetica, Segoe UI Emoji" font-size="23.31482950039633px" fill="#000000" text-anchor="end" style="white-space: pre;" direction="rtl">شا</text></g><g transform="translate(184.97120511908906 299.7783505154639) rotate(0 17.88553146107347 13.649484536082355)"><text x="0" y="21.298969072164603" font-family="Helvetica, Segoe UI Emoji" font-size="23.533594027728103px" fill="#000000" text-anchor="end" style="white-space: pre;" direction="rtl">بشا</text></g><g transform="translate(50.000000000000455 300.03703703703695) rotate(0 23 14.481481481481524)"><text x="0" y="22.962962962962965" font-family="Helvetica, Segoe UI Emoji" font-size="25.15698886832888px" fill="#000000" text-anchor="end" style="white-space: pre;" direction="rtl">تاش</text></g><g stroke-linecap="round" transform="translate(152.5 150.5) rotate(0 5.5 5.5)"><path class="circle" d="M11 5.5 C11 5.82, 10.97 6.14, 10.92 6.46 C10.86 6.77, 10.78 7.08, 10.67 7.38 C10.56 7.68, 10.42 7.97, 10.26 8.25 C10.1 8.53, 9.92 8.79, 9.71 9.04 C9.51 9.28, 9.28 9.51, 9.04 9.71 C8.79 9.92, 8.53 10.1, 8.25 10.26 C7.97 10.42, 7.68 10.56, 7.38 10.67 C7.08 10.78, 6.77 10.86, 6.46 10.92 C6.14 10.97, 5.82 11, 5.5 11 C5.18 11, 4.86 10.97, 4.54 10.92 C4.23 10.86, 3.92 10.78, 3.62 10.67 C3.32 10.56, 3.03 10.42, 2.75 10.26 C2.47 10.1, 2.21 9.92, 1.96 9.71 C1.72 9.51, 1.49 9.28, 1.29 9.04 C1.08 8.79, 0.9 8.53, 0.74 8.25 C0.58 7.97, 0.44 7.68, 0.33 7.38 C0.22 7.08, 0.14 6.77, 0.08 6.46 C0.03 6.14, 0 5.82, 0 5.5 C0 5.18, 0.03 4.86, 0.08 4.54 C0.14 4.23, 0.22 3.92, 0.33 3.62 C0.44 3.32, 0.58 3.03, 0.74 2.75 C0.9 2.47, 1.08 2.21, 1.29 1.96 C1.49 1.72, 1.72 1.49, 1.96 1.29 C2.21 1.08, 2.47 0.9, 2.75 0.74 C3.03 0.58, 3.32 0.44, 3.62 0.33 C3.92 0.22, 4.23 0.14, 4.54 0.08 C4.86 0.03, 5.18 0, 5.5 0 C5.82 0, 6.14 0.03, 6.46 0.08 C6.77 0.14, 7.08 0.22, 7.38 0.33 C7.68 0.44, 7.97 0.58, 8.25 0.74 C8.53 0.9, 8.79 1.08, 9.04 1.29 C9.28 1.49, 9.51 1.72, 9.71 1.96 C9.92 2.21, 10.1 2.47, 10.26 2.75 C10.42 3.03, 10.56 3.32, 10.67 3.62 C10.78 3.92, 10.86 4.23, 10.92 4.54 C10.97 4.86, 10.99 5.34, 11 5.5 C11.01 5.66, 11.01 5.34, 11 5.5" stroke="none" stroke-width="0" fill="#fd7e14"></path><path d="M11 5.5 C11 5.82, 10.97 6.14, 10.92 6.46 C10.86 6.77, 10.78 7.08, 10.67 7.38 C10.56 7.68, 10.42 7.97, 10.26 8.25 C10.1 8.53, 9.92 8.79, 9.71 9.04 C9.51 9.28, 9.28 9.51, 9.04 9.71 C8.79 9.92, 8.53 10.1, 8.25 10.26 C7.97 10.42, 7.68 10.56, 7.38 10.67 C7.08 10.78, 6.77 10.86, 6.46 10.92 C6.14 10.97, 5.82 11, 5.5 11 C5.18 11, 4.86 10.97, 4.54 10.92 C4.23 10.86, 3.92 10.78, 3.62 10.67 C3.32 10.56, 3.03 10.42, 2.75 10.26 C2.47 10.1, 2.21 9.92, 1.96 9.71 C1.72 9.51, 1.49 9.28, 1.29 9.04 C1.08 8.79, 0.9 8.53, 0.74 8.25 C0.58 7.97, 0.44 7.68, 0.33 7.38 C0.22 7.08, 0.14 6.77, 0.08 6.46 C0.03 6.14, 0 5.82, 0 5.5 C0 5.18, 0.03 4.86, 0.08 4.54 C0.14 4.23, 0.22 3.92, 0.33 3.62 C0.44 3.32, 0.58 3.03, 0.74 2.75 C0.9 2.47, 1.08 2.21, 1.29 1.96 C1.49 1.72, 1.72 1.49, 1.96 1.29 C2.21 1.08, 2.47 0.9, 2.75 0.74 C3.03 0.58, 3.32 0.44, 3.62 0.33 C3.92 0.22, 4.23 0.14, 4.54 0.08 C4.86 0.03, 5.18 0, 5.5 0 C5.82 0, 6.14 0.03, 6.46 0.08 C6.77 0.14, 7.08 0.22, 7.38 0.33 C7.68 0.44, 7.97 0.58, 8.25 0.74 C8.53 0.9, 8.79 1.08, 9.04 1.29 C9.28 1.49, 9.51 1.72, 9.71 1.96 C9.92 2.21, 10.1 2.47, 10.26 2.75 C10.42 3.03, 10.56 3.32, 10.67 3.62 C10.78 3.92, 10.86 4.23, 10.92 4.54 C10.97 4.86, 10.99 5.34, 11 5.5 C11.01 5.66, 11.01 5.34, 11 5.5" stroke="#000000" stroke-width="1" fill="none"></path></g><g stroke-linecap="round" transform="translate(174 120) rotate(0 5.5 5.5)"><path class="circle" d="M11 5.5 C11 5.82, 10.97 6.14, 10.92 6.46 C10.86 6.77, 10.78 7.08, 10.67 7.38 C10.56 7.68, 10.42 7.97, 10.26 8.25 C10.1 8.53, 9.92 8.79, 9.71 9.04 C9.51 9.28, 9.28 9.51, 9.04 9.71 C8.79 9.92, 8.53 10.1, 8.25 10.26 C7.97 10.42, 7.68 10.56, 7.38 10.67 C7.08 10.78, 6.77 10.86, 6.46 10.92 C6.14 10.97, 5.82 11, 5.5 11 C5.18 11, 4.86 10.97, 4.54 10.92 C4.23 10.86, 3.92 10.78, 3.62 10.67 C3.32 10.56, 3.03 10.42, 2.75 10.26 C2.47 10.1, 2.21 9.92, 1.96 9.71 C1.72 9.51, 1.49 9.28, 1.29 9.04 C1.08 8.79, 0.9 8.53, 0.74 8.25 C0.58 7.97, 0.44 7.68, 0.33 7.38 C0.22 7.08, 0.14 6.77, 0.08 6.46 C0.03 6.14, 0 5.82, 0 5.5 C0 5.18, 0.03 4.86, 0.08 4.54 C0.14 4.23, 0.22 3.92, 0.33 3.62 C0.44 3.32, 0.58 3.03, 0.74 2.75 C0.9 2.47, 1.08 2.21, 1.29 1.96 C1.49 1.72, 1.72 1.49, 1.96 1.29 C2.21 1.08, 2.47 0.9, 2.75 0.74 C3.03 0.58, 3.32 0.44, 3.62 0.33 C3.92 0.22, 4.23 0.14, 4.54 0.08 C4.86 0.03, 5.18 0, 5.5 0 C5.82 0, 6.14 0.03, 6.46 0.08 C6.77 0.14, 7.08 0.22, 7.38 0.33 C7.68 0.44, 7.97 0.58, 8.25 0.74 C8.53 0.9, 8.79 1.08, 9.04 1.29 C9.28 1.49, 9.51 1.72, 9.71 1.96 C9.92 2.21, 10.1 2.47, 10.26 2.75 C10.42 3.03, 10.56 3.32, 10.67 3.62 C10.78 3.92, 10.86 4.23, 10.92 4.54 C10.97 4.86, 10.99 5.34, 11 5.5 C11.01 5.66, 11.01 5.34, 11 5.5" stroke="none" stroke-width="0" fill="#fd7e14"></path><path d="M11 5.5 C11 5.82, 10.97 6.14, 10.92 6.46 C10.86 6.77, 10.78 7.08, 10.67 7.38 C10.56 7.68, 10.42 7.97, 10.26 8.25 C10.1 8.53, 9.92 8.79, 9.71 9.04 C9.51 9.28, 9.28 9.51, 9.04 9.71 C8.79 9.92, 8.53 10.1, 8.25 10.26 C7.97 10.42, 7.68 10.56, 7.38 10.67 C7.08 10.78, 6.77 10.86, 6.46 10.92 C6.14 10.97, 5.82 11, 5.5 11 C5.18 11, 4.86 10.97, 4.54 10.92 C4.23 10.86, 3.92 10.78, 3.62 10.67 C3.32 10.56, 3.03 10.42, 2.75 10.26 C2.47 10.1, 2.21 9.92, 1.96 9.71 C1.72 9.51, 1.49 9.28, 1.29 9.04 C1.08 8.79, 0.9 8.53, 0.74 8.25 C0.58 7.97, 0.44 7.68, 0.33 7.38 C0.22 7.08, 0.14 6.77, 0.08 6.46 C0.03 6.14, 0 5.82, 0 5.5 C0 5.18, 0.03 4.86, 0.08 4.54 C0.14 4.23, 0.22 3.92, 0.33 3.62 C0.44 3.32, 0.58 3.03, 0.74 2.75 C0.9 2.47, 1.08 2.21, 1.29 1.96 C1.49 1.72, 1.72 1.49, 1.96 1.29 C2.21 1.08, 2.47 0.9, 2.75 0.74 C3.03 0.58, 3.32 0.44, 3.62 0.33 C3.92 0.22, 4.23 0.14, 4.54 0.08 C4.86 0.03, 5.18 0, 5.5 0 C5.82 0, 6.14 0.03, 6.46 0.08 C6.77 0.14, 7.08 0.22, 7.38 0.33 C7.68 0.44, 7.97 0.58, 8.25 0.74 C8.53 0.9, 8.79 1.08, 9.04 1.29 C9.28 1.49, 9.51 1.72, 9.71 1.96 C9.92 2.21, 10.1 2.47, 10.26 2.75 C10.42 3.03, 10.56 3.32, 10.67 3.62 C10.78 3.92, 10.86 4.23, 10.92 4.54 C10.97 4.86, 10.99 5.34, 11 5.5 C11.01 5.66, 11.01 5.34, 11 5.5" stroke="#000000" stroke-width="1" fill="none"></path></g><g stroke-linecap="round"><g transform="translate(89.38430380821228 178.27271139621735) rotate(0 48 21.71875)"><path class="path" d="M0 0 C4.83 6.53, 15.67 32.72, 29 39.17 C42.33 45.63, 68.83 44.24, 80 38.73 C91.17 33.22, 93.33 11.54, 96 6.1 M0 0 C4.83 6.53, 15.67 32.72, 29 39.17 C42.33 45.63, 68.83 44.24, 80 38.73 C91.17 33.22, 93.33 11.54, 96 6.1" stroke="#000000" stroke-width="1" fill="none"></path></g></g><g stroke-linecap="round"><g transform="translate(183.38430380821228 183.90898778777228) rotate(0 48 16.894613723608472)"><path class="path" d="M0 0 C3.5 5.36, 7.67 26.72, 21 32.17 C34.33 37.63, 67.5 38.57, 80 32.73 C92.5 26.88, 93.33 3.04, 96 -2.9 M0 0 C3.5 5.36, 7.67 26.72, 21 32.17 C34.33 37.63, 67.5 38.57, 80 32.73 C92.5 26.88, 93.33 3.04, 96 -2.9" stroke="#000000" stroke-width="1" fill="none"></path></g></g><g transform="translate(321.56613743305206 330.8139237165451) rotate(0 10 10)"><text x="20" y="14" font-family="Virgil, Segoe UI Emoji" font-size="16px" fill="#000000" text-anchor="end" style="white-space: pre;" direction="ltr">sa</text></g><g transform="translate(193.56613743305206 330.8139237165451) rotate(0 14.5 10)"><text x="29" y="14" font-family="Virgil, Segoe UI Emoji" font-size="16px" fill="#000000" text-anchor="end" style="white-space: pre;" direction="ltr">bsa</text></g><g transform="translate(48.56613743305206 330.8139237165451) rotate(0 24 10)"><text x="48" y="14" font-family="Virgil, Segoe UI Emoji" font-size="16px" fill="#000000" text-anchor="end" style="white-space: pre;" direction="ltr">tasha</text></g></svg>