<svg version="1.1" xmlns="http://www.w3.org/2000/svg" viewBox="0 0 379 373" width="379" height="373">
  <!-- svg-source:excalidraw -->
  
  <defs>
    <style>
      @font-face {
        font-family: "Virgil";
        src: url("../Virgil.woff2");;
      }
      
    </style>
  </defs>
  <rect x="0" y="0" width="379" height="373" fill="#ffffff"></rect><g stroke-linecap="round"><g transform="translate(107.39613925200524 164.4658726732141) rotate(0 88.01237740140232 12.06886392281558)"><path d="M0 0 C-1.42 5.38, -11.39 22.43, -8.53 32.26 C-5.66 42.09, 5.72 54.88, 17.2 58.98 C28.68 63.07, 49.74 60.3, 60.34 56.83 C70.95 53.36, 77.22 47.42, 80.81 38.17 C84.39 28.93, 76.02 4.8, 81.85 1.36 C87.69 -2.08, 100.21 17.06, 115.83 17.53 C131.46 18, 164.42 11.26, 175.59 4.2 C186.76 -2.86, 186.42 -18.27, 182.86 -24.85 C179.29 -31.42, 168.43 -40.65, 154.21 -35.25 C140 -29.85, 107.01 0.43, 97.57 7.57 M0 0 C-1.42 5.38, -11.39 22.43, -8.53 32.26 C-5.66 42.09, 5.72 54.88, 17.2 58.98 C28.68 63.07, 49.74 60.3, 60.34 56.83 C70.95 53.36, 77.22 47.42, 80.81 38.17 C84.39 28.93, 76.02 4.8, 81.85 1.36 C87.69 -2.08, 100.21 17.06, 115.83 17.53 C131.46 18, 164.42 11.26, 175.59 4.2 C186.76 -2.86, 186.42 -18.27, 182.86 -24.85 C179.29 -31.42, 168.43 -40.65, 154.21 -35.25 C140 -29.85, 107.01 0.43, 97.57 7.57" stroke="#000000" stroke-width="4" fill="none"></path></g></g><g stroke-linecap="round" transform="translate(10 10) rotate(0 179.5 176.5)"><path d="M0 0 C112.6 0, 225.2 0, 359 0 M0 0 C133.67 0, 267.33 0, 359 0 M359 0 C359 114.14, 359 228.28, 359 353 M359 0 C359 82.04, 359 164.07, 359 353 M359 353 C255.63 353, 152.25 353, 0 353 M359 353 C282.2 353, 205.39 353, 0 353 M0 353 C0 213.48, 0 73.97, 0 0 M0 353 C0 240.58, 0 128.17, 0 0" stroke="#000000" stroke-width="1" fill="none"></path></g><g transform="translate(47.5 39) rotate(0 7.5 13.5)"><text x="7.5" y="20" font-family="Virgil, Segoe UI Emoji" font-size="20px" fill="#000000" text-anchor="middle" style="white-space: pre;" direction="ltr">स़</text></g><g transform="translate(329.9999999999991 42) rotate(0 6 12.5)"><text x="6" y="18" font-family="Virgil, Segoe UI Emoji" font-size="20px" fill="#000000" text-anchor="middle" style="white-space: pre;" direction="ltr">Ṣ</text></g><g transform="translate(306.4999999999991 301) rotate(0 18.5 13)"><text x="18.5" y="19" font-family="Virgil, Segoe UI Emoji" font-size="20px" fill="#000000" text-anchor="middle" style="white-space: pre;" direction="rtl">صُبح</text></g><g transform="translate(175.7222222222215 298.75) rotate(0 21.5 13)"><text x="21.5" y="19" font-family="Virgil, Segoe UI Emoji" font-size="20px" fill="#000000" text-anchor="middle" style="white-space: pre;" direction="rtl">حصہ</text></g><g transform="translate(43 300.4981818181841) rotate(0 27.5 13)"><text x="27.5" y="19" font-family="Virgil, Segoe UI Emoji" font-size="20px" fill="#000000" text-anchor="middle" style="white-space: pre;" direction="rtl">شخص</text></g><g transform="translate(146 45.22728228569031) rotate(0 41 10.5)"><text x="41" y="15" font-family="Virgil, Segoe UI Emoji" font-size="16px" fill="#000000" text-anchor="middle" style="white-space: pre;" direction="ltr">Swaad(ص)</text></g><g transform="translate(303.947662472724 326.79078912734985) rotate(0 22.5 10)"><text x="45" y="14" font-family="Virgil, Segoe UI Emoji" font-size="16px" fill="#000000" text-anchor="end" style="white-space: pre;" direction="ltr">subha</text></g><g transform="translate(182.947662472724 326.79078912734985) rotate(0 16 10)"><text x="32" y="14" font-family="Virgil, Segoe UI Emoji" font-size="16px" fill="#000000" text-anchor="end" style="white-space: pre;" direction="ltr">hisa</text></g><g transform="translate(45.947662472724915 326.79078912734985) rotate(0 27 10)"><text x="54" y="14" font-family="Virgil, Segoe UI Emoji" font-size="16px" fill="#000000" text-anchor="end" style="white-space: pre;" direction="ltr">Shakhs</text></g></svg>