<svg version="1.1" xmlns="http://www.w3.org/2000/svg" viewBox="0 0 380 367.7777777777774" width="380" height="367.7777777777774">
  <!-- svg-source:excalidraw -->
  
  <defs>
    <style>
      @font-face {
        font-family: "Virgil";
        src: url("https://excalidraw.com/Virgil.woff2");
      }
      @font-face {
        font-family: "Cascadia";
        src: url("https://excalidraw.com/Cascadia.woff2");
      }
    </style>
  </defs>
  <rect x="0" y="0" width="380" height="367.7777777777774" fill="#ffffff"></rect><g stroke-linecap="round" transform="translate(10 10) rotate(0 178.3333333333332 173.8888888888887)"><path d="M0 0 C0 0, 0 0, 0 0 M0 0 C0 0, 0 0, 0 0 M-0.26 6.4 C1 4.95, 2.25 3.51, 4.99 0.36 M-0.26 6.4 C1.37 4.52, 3.01 2.64, 4.99 0.36 M0.13 12.04 C2.76 9.02, 5.38 6, 10.63 -0.03 M0.13 12.04 C3.79 7.83, 7.45 3.62, 10.63 -0.03 M-0.13 18.44 C3.54 14.22, 7.2 10.01, 15.62 0.33 M-0.13 18.44 C4.11 13.56, 8.36 8.68, 15.62 0.33 M0.27 24.08 C4.52 19.19, 8.78 14.29, 21.26 -0.07 M0.27 24.08 C4.49 19.23, 8.71 14.37, 21.26 -0.07 M0 30.48 C7.21 22.2, 14.41 13.91, 26.25 0.29 M0 30.48 C6.64 22.85, 13.27 15.22, 26.25 0.29 M-0.26 36.88 C12.58 22.11, 25.42 7.34, 31.89 -0.1 M-0.26 36.88 C11.89 22.9, 24.05 8.92, 31.89 -0.1 M0.14 42.52 C11.3 29.68, 22.46 16.84, 36.88 0.26 M0.14 42.52 C8.83 32.52, 17.52 22.53, 36.88 0.26 M-0.12 48.92 C9.52 37.83, 19.15 26.74, 42.52 -0.14 M-0.12 48.92 C10.85 36.29, 21.83 23.66, 42.52 -0.14 M0.27 54.56 C12.27 40.76, 24.27 26.96, 47.51 0.22 M0.27 54.56 C14.51 38.18, 28.75 21.8, 47.51 0.22 M0.01 60.96 C13.97 44.9, 27.94 28.83, 53.15 -0.17 M0.01 60.96 C17.2 41.19, 34.38 21.42, 53.15 -0.17 M-0.25 67.36 C14.46 50.44, 29.17 33.51, 58.14 0.19 M-0.25 67.36 C13.46 51.58, 27.17 35.81, 58.14 0.19 M0.14 73 C18.17 52.26, 36.19 31.53, 63.78 -0.21 M0.14 73 C23.45 46.18, 46.77 19.37, 63.78 -0.21 M-0.12 79.4 C14.91 62.11, 29.93 44.83, 68.77 0.15 M-0.12 79.4 C22.62 53.24, 45.36 27.08, 68.77 0.15 M0.28 85.04 C19.18 63.29, 38.08 41.55, 74.41 -0.24 M0.28 85.04 C21.23 60.93, 42.19 36.82, 74.41 -0.24 M0.01 91.44 C21.21 67.06, 42.4 42.68, 79.4 0.12 M0.01 91.44 C30.74 56.09, 61.46 20.75, 79.4 0.12 M-0.25 97.84 C28.69 64.55, 57.62 31.27, 85.04 -0.28 M-0.25 97.84 C23.24 70.82, 46.72 43.8, 85.04 -0.28 M0.15 103.48 C27.7 71.78, 55.26 40.08, 90.03 0.08 M0.15 103.48 C28.15 71.27, 56.14 39.06, 90.03 0.08 M-0.11 109.88 C27.75 77.82, 55.62 45.76, 95.67 -0.31 M-0.11 109.88 C24.16 81.95, 48.44 54.03, 95.67 -0.31 M0.28 115.52 C24.25 87.94, 48.22 60.37, 100.66 0.05 M0.28 115.52 C31.97 79.06, 63.67 42.6, 100.66 0.05 M0.02 121.92 C27.53 90.27, 55.04 58.63, 106.3 -0.34 M0.02 121.92 C24.7 93.53, 49.38 65.14, 106.3 -0.34 M-0.24 128.32 C39.83 82.22, 79.89 36.13, 111.29 0.02 M-0.24 128.32 C35.25 87.49, 70.74 46.66, 111.29 0.02 M0.15 133.96 C44.91 82.47, 89.66 30.99, 116.27 0.38 M0.15 133.96 C38.86 89.43, 77.56 44.91, 116.27 0.38 M-0.11 140.36 C43.49 90.2, 87.08 40.05, 121.92 -0.02 M-0.11 140.36 C41.82 92.12, 83.76 43.88, 121.92 -0.02 M0.29 146 C26.48 115.86, 52.68 85.73, 126.91 0.34 M0.29 146 C48.97 89.99, 97.66 33.98, 126.91 0.34 M0.02 152.4 C41.9 104.23, 83.77 56.06, 132.55 -0.05 M0.02 152.4 C42.82 103.16, 85.62 53.93, 132.55 -0.05 M-0.24 158.8 C34.66 118.65, 69.55 78.51, 137.54 0.31 M-0.24 158.8 C43.85 108.08, 87.93 57.37, 137.54 0.31 M0.16 164.44 C44.81 113.07, 89.46 61.71, 143.18 -0.09 M0.16 164.44 C42.11 116.17, 84.07 67.91, 143.18 -0.09 M-0.1 170.84 C36.71 128.49, 73.52 86.15, 148.17 0.27 M-0.1 170.84 C56.23 106.03, 112.57 41.22, 148.17 0.27 M0.29 176.48 C33.54 138.23, 66.79 99.98, 153.81 -0.12 M0.29 176.48 C61.44 106.13, 122.59 35.79, 153.81 -0.12 M0.03 182.88 C49.14 126.38, 98.26 69.87, 158.8 0.24 M0.03 182.88 C49.42 126.06, 98.81 69.24, 158.8 0.24 M-0.23 189.27 C48.09 133.69, 96.41 78.1, 164.44 -0.16 M-0.23 189.27 C47.12 134.8, 94.48 80.33, 164.44 -0.16 M0.16 194.92 C59.03 127.2, 117.9 59.48, 169.43 0.2 M0.16 194.92 C62.14 123.62, 124.13 52.31, 169.43 0.2 M-0.1 201.32 C35.09 160.83, 70.29 120.34, 175.07 -0.19 M-0.1 201.32 C55.43 137.43, 110.97 73.55, 175.07 -0.19 M0.3 206.96 C48.56 151.43, 96.83 95.91, 180.06 0.17 M0.3 206.96 C55 144.03, 109.7 81.1, 180.06 0.17 M0.03 213.36 C72.6 129.88, 145.17 46.4, 185.7 -0.23 M0.03 213.36 C64.82 138.83, 129.6 64.31, 185.7 -0.23 M-0.23 219.75 C70.47 138.43, 141.16 57.11, 190.69 0.13 M-0.23 219.75 C74.39 133.92, 149 48.08, 190.69 0.13 M0.17 225.4 C60.75 155.71, 121.33 86.01, 196.33 -0.26 M0.17 225.4 C69.16 146.03, 138.15 66.67, 196.33 -0.26 M-0.09 231.8 C69.51 151.72, 139.11 71.65, 201.32 0.1 M-0.09 231.8 C79.93 139.74, 159.95 47.69, 201.32 0.1 M0.3 237.44 C81.77 143.71, 163.25 49.99, 206.96 -0.3 M0.3 237.44 C41.65 189.87, 83 142.31, 206.96 -0.3 M0.04 243.84 C59.51 175.43, 118.97 107.02, 211.95 0.06 M0.04 243.84 C42.75 194.7, 85.47 145.56, 211.95 0.06 M-0.22 250.23 C60.8 180.03, 121.83 109.83, 217.59 -0.33 M-0.22 250.23 C59.68 181.33, 119.58 112.42, 217.59 -0.33 M0.17 255.88 C56.98 190.53, 113.78 125.18, 222.58 0.03 M0.17 255.88 C86.4 156.68, 172.63 57.49, 222.58 0.03 M-0.09 262.27 C89.75 158.93, 179.58 55.58, 228.22 -0.36 M-0.09 262.27 C60.11 193.02, 120.32 123.76, 228.22 -0.36 M0.3 267.92 C80.34 175.85, 160.38 83.77, 233.21 0 M0.3 267.92 C57.61 201.99, 114.92 136.07, 233.21 0 M0.04 274.32 C84.53 177.12, 169.03 79.92, 238.19 0.36 M0.04 274.32 C85.68 175.8, 171.32 77.29, 238.19 0.36 M-0.22 280.71 C51.73 220.96, 103.67 161.2, 243.84 -0.04 M-0.22 280.71 C90.86 175.94, 181.94 71.16, 243.84 -0.04 M0.18 286.36 C94.27 178.12, 188.36 69.88, 248.82 0.32 M0.18 286.36 C65.43 211.3, 130.67 136.24, 248.82 0.32 M-0.08 292.75 C82.44 197.82, 164.97 102.88, 254.47 -0.07 M-0.08 292.75 C69.14 213.12, 138.36 133.49, 254.47 -0.07 M0.31 298.4 C70.93 217.16, 141.54 135.93, 259.45 0.29 M0.31 298.4 C98.3 185.68, 196.28 72.95, 259.45 0.29 M0.05 304.8 C88.23 203.35, 176.42 101.9, 265.1 -0.11 M0.05 304.8 C93.19 197.65, 186.33 90.51, 265.1 -0.11 M-0.21 311.19 C64.35 236.92, 128.92 162.64, 270.08 0.25 M-0.21 311.19 C58.96 243.12, 118.13 175.06, 270.08 0.25 M0.18 316.84 C79.29 225.83, 158.41 134.82, 275.73 -0.14 M0.18 316.84 C90.26 213.22, 180.33 109.6, 275.73 -0.14 M-0.08 323.23 C76.62 235, 153.32 146.76, 280.71 0.22 M-0.08 323.23 C56.99 257.58, 114.06 191.93, 280.71 0.22 M0.31 328.88 C66.07 253.24, 131.82 177.59, 286.36 -0.18 M0.31 328.88 C63.24 256.48, 126.17 184.09, 286.36 -0.18 M0.05 335.27 C106.29 213.06, 212.53 90.85, 291.34 0.18 M0.05 335.27 C74.58 249.55, 149.1 163.82, 291.34 0.18 M-0.21 341.67 C117.85 205.86, 235.9 70.06, 296.99 -0.21 M-0.21 341.67 C106.35 219.09, 212.91 96.5, 296.99 -0.21 M0.19 347.32 C89.7 244.34, 179.22 141.36, 301.97 0.15 M0.19 347.32 C62.85 275.23, 125.51 203.15, 301.97 0.15 M3.21 349.94 C69.92 273.19, 136.64 196.44, 307.62 -0.25 M3.21 349.94 C117.86 218.04, 232.51 86.15, 307.62 -0.25 M8.19 350.3 C83.01 264.24, 157.82 178.17, 312.6 0.11 M8.19 350.3 C128.69 211.68, 249.19 73.07, 312.6 0.11 M13.18 350.66 C110.62 238.56, 208.06 126.47, 318.25 -0.28 M13.18 350.66 C78.64 275.35, 144.11 200.04, 318.25 -0.28 M18.82 350.27 C135.33 216.24, 251.84 82.21, 323.23 0.08 M18.82 350.27 C99.16 257.84, 179.5 165.42, 323.23 0.08 M23.81 350.63 C120.04 239.92, 216.27 129.22, 328.88 -0.31 M23.81 350.63 C121.12 238.68, 218.43 126.74, 328.88 -0.31 M29.45 350.23 C112.22 255.02, 194.98 159.81, 333.86 0.05 M29.45 350.23 C139.52 223.61, 249.59 96.99, 333.86 0.05 M34.44 350.59 C101.09 273.91, 167.75 197.24, 339.51 -0.35 M34.44 350.59 C108.46 265.43, 182.49 180.28, 339.51 -0.35 M40.08 350.2 C122.68 255.18, 205.27 160.17, 344.49 0.01 M40.08 350.2 C145.04 229.46, 249.99 108.72, 344.49 0.01 M45.07 350.56 C116.16 268.78, 187.25 187, 349.48 0.37 M45.07 350.56 C119.55 264.87, 194.04 179.19, 349.48 0.37 M50.71 350.16 C152.05 233.58, 253.39 117.01, 355.12 -0.02 M50.71 350.16 C165.09 218.59, 279.46 87.02, 355.12 -0.02 M55.7 350.52 C164.61 225.24, 273.51 99.96, 358.8 1.85 M55.7 350.52 C143.72 249.27, 231.74 148.01, 358.8 1.85 M61.34 350.13 C121.45 280.99, 181.55 211.84, 358.54 8.24 M61.34 350.13 C157.29 239.75, 253.25 129.37, 358.54 8.24 M66.33 350.49 C179.94 219.79, 293.56 89.09, 358.93 13.89 M66.33 350.49 C139.89 265.87, 213.44 181.25, 358.93 13.89 M71.97 350.09 C134.67 277.97, 197.36 205.85, 358.67 20.28 M71.97 350.09 C175.44 231.06, 278.92 112.03, 358.67 20.28 M76.96 350.45 C163.48 250.92, 250.01 151.38, 359.07 25.93 M76.96 350.45 C163.14 251.32, 249.32 152.18, 359.07 25.93 M82.6 350.06 C169.7 249.87, 256.79 149.68, 358.8 32.33 M82.6 350.06 C185.02 232.24, 287.44 114.42, 358.8 32.33 M87.59 350.42 C167.4 258.61, 247.21 166.8, 358.54 38.72 M87.59 350.42 C178.84 245.45, 270.08 140.48, 358.54 38.72 M93.23 350.02 C151.43 283.07, 209.63 216.12, 358.94 44.37 M93.23 350.02 C183.52 246.16, 273.81 142.3, 358.94 44.37 M98.22 350.38 C183.01 252.84, 267.8 155.31, 358.68 50.76 M98.22 350.38 C185.62 249.84, 273.02 149.3, 358.68 50.76 M103.86 349.99 C167.77 276.47, 231.68 202.95, 359.07 56.41 M103.86 349.99 C196.07 243.91, 288.28 137.84, 359.07 56.41 M108.85 350.35 C200.63 244.77, 292.4 139.2, 358.81 62.81 M108.85 350.35 C208.45 235.77, 308.05 121.2, 358.81 62.81 M114.49 349.95 C193.53 259.04, 272.56 168.12, 358.55 69.2 M114.49 349.95 C171.86 283.96, 229.23 217.97, 358.55 69.2 M119.48 350.31 C210.63 245.46, 301.78 140.6, 358.94 74.85 M119.48 350.31 C198.09 259.88, 276.71 169.44, 358.94 74.85 M125.12 349.92 C206.26 256.58, 287.39 163.25, 358.68 81.24 M125.12 349.92 C187.48 278.18, 249.84 206.45, 358.68 81.24 M130.11 350.28 C203.6 265.74, 277.09 181.19, 359.07 86.89 M130.11 350.28 C183.72 288.61, 237.33 226.94, 359.07 86.89 M135.1 350.64 C184.97 293.27, 234.84 235.9, 358.81 93.28 M135.1 350.64 C195.35 281.32, 255.61 212.01, 358.81 93.28 M140.74 350.25 C214.12 265.84, 287.49 181.43, 358.55 99.68 M140.74 350.25 C212.91 267.22, 285.08 184.2, 358.55 99.68 M145.73 350.61 C198.19 290.25, 250.65 229.9, 358.95 105.33 M145.73 350.61 C222.6 262.17, 299.47 173.74, 358.95 105.33 M151.37 350.21 C228.25 261.77, 305.12 173.34, 358.69 111.72 M151.37 350.21 C222.16 268.78, 292.95 187.34, 358.69 111.72 M156.36 350.57 C218.42 279.18, 280.48 207.79, 359.08 117.37 M156.36 350.57 C230.41 265.38, 304.46 180.19, 359.08 117.37 M162 350.18 C232.67 268.88, 303.34 187.59, 358.82 123.76 M162 350.18 C219.54 283.99, 277.08 217.79, 358.82 123.76 M166.99 350.54 C221.83 287.45, 276.67 224.36, 358.56 130.16 M166.99 350.54 C208.09 303.25, 249.2 255.96, 358.56 130.16 M172.63 350.14 C215.77 300.51, 258.92 250.88, 358.95 135.8 M172.63 350.14 C231.89 281.97, 291.16 213.79, 358.95 135.8 M177.62 350.5 C225.3 295.65, 272.97 240.81, 358.69 142.2 M177.62 350.5 C240.19 278.52, 302.77 206.53, 358.69 142.2 M183.26 350.11 C238.13 286.99, 292.99 223.88, 359.08 147.85 M183.26 350.11 C228.8 297.73, 274.33 245.35, 359.08 147.85 M188.25 350.47 C240.76 290.06, 293.28 229.64, 358.82 154.24 M188.25 350.47 C239.72 291.25, 291.2 232.04, 358.82 154.24 M193.89 350.07 C246.26 289.83, 298.62 229.59, 358.56 160.64 M193.89 350.07 C236.97 300.51, 280.06 250.95, 358.56 160.64 M198.88 350.43 C244.39 298.08, 289.9 245.73, 358.96 166.28 M198.88 350.43 C252.16 289.14, 305.45 227.84, 358.96 166.28 M204.52 350.04 C260.13 286.07, 315.74 222.1, 358.69 172.68 M204.52 350.04 C262.93 282.84, 321.35 215.64, 358.69 172.68 M209.51 350.4 C247.01 307.26, 284.51 264.12, 359.09 178.33 M209.51 350.4 C268.56 282.47, 327.62 214.53, 359.09 178.33 M215.15 350 C264.72 292.98, 314.3 235.95, 358.83 184.72 M215.15 350 C268.28 288.88, 321.42 227.76, 358.83 184.72 M220.14 350.36 C255.98 309.13, 291.83 267.89, 358.57 191.12 M220.14 350.36 C268.56 294.66, 316.98 238.96, 358.57 191.12 M225.78 349.97 C275.03 293.31, 324.28 236.66, 358.96 196.76 M225.78 349.97 C265.7 304.05, 305.62 258.13, 358.96 196.76 M230.77 350.33 C276.14 298.14, 321.5 245.95, 358.7 203.16 M230.77 350.33 C277.63 296.42, 324.49 242.52, 358.7 203.16 M236.41 349.94 C276.59 303.72, 316.76 257.5, 359.09 208.8 M236.41 349.94 C278.15 301.92, 319.89 253.9, 359.09 208.8 M241.4 350.3 C285.68 299.35, 329.96 248.41, 358.83 215.2 M241.4 350.3 C278.86 307.2, 316.32 264.11, 358.83 215.2 M246.39 350.66 C280.52 311.39, 314.66 272.12, 358.57 221.6 M246.39 350.66 C287.8 303.01, 329.21 255.37, 358.57 221.6 M252.03 350.26 C290.47 306.04, 328.91 261.82, 358.97 227.24 M252.03 350.26 C293.62 302.42, 335.2 254.58, 358.97 227.24 M257.02 350.62 C295.67 306.15, 334.33 261.68, 358.7 233.64 M257.02 350.62 C294.7 307.27, 332.38 263.92, 358.7 233.64 M262.66 350.23 C294.35 313.77, 326.03 277.32, 359.1 239.28 M262.66 350.23 C288.04 321.03, 313.42 291.83, 359.1 239.28 M267.65 350.59 C288.52 326.57, 309.4 302.56, 358.84 245.68 M267.65 350.59 C289.06 325.95, 310.48 301.32, 358.84 245.68 M273.29 350.19 C299.31 320.26, 325.32 290.33, 358.58 252.08 M273.29 350.19 C301.89 317.29, 330.48 284.4, 358.58 252.08 M278.28 350.55 C303.93 321.03, 329.59 291.52, 358.97 257.72 M278.28 350.55 C307.2 317.27, 336.13 283.99, 358.97 257.72 M283.92 350.16 C306.6 324.07, 329.28 297.98, 358.71 264.12 M283.92 350.16 C306.73 323.92, 329.54 297.68, 358.71 264.12 M288.91 350.52 C310.57 325.6, 332.23 300.68, 359.1 269.76 M288.91 350.52 C306.06 330.78, 323.22 311.04, 359.1 269.76 M294.55 350.12 C315.85 325.62, 337.15 301.12, 358.84 276.16 M294.55 350.12 C318.86 322.15, 343.17 294.19, 358.84 276.16 M299.54 350.48 C314.63 333.11, 329.73 315.74, 358.58 282.56 M299.54 350.48 C317.35 329.99, 335.16 309.5, 358.58 282.56 M305.18 350.09 C326.21 325.89, 347.24 301.7, 358.98 288.2 M305.18 350.09 C319.54 333.56, 333.91 317.04, 358.98 288.2 M310.17 350.45 C320.27 338.83, 330.37 327.2, 358.71 294.6 M310.17 350.45 C322.09 336.73, 334.01 323.02, 358.71 294.6 M315.81 350.05 C327.84 336.21, 339.88 322.37, 359.11 300.24 M315.81 350.05 C332.7 330.62, 349.59 311.19, 359.11 300.24 M320.8 350.41 C328.72 341.3, 336.64 332.18, 358.85 306.64 M320.8 350.41 C332.12 337.38, 343.45 324.35, 358.85 306.64 M326.44 350.02 C338.7 335.91, 350.97 321.8, 358.59 313.04 M326.44 350.02 C335.18 339.96, 343.93 329.9, 358.59 313.04 M331.43 350.38 C339.48 341.11, 347.54 331.85, 358.98 318.68 M331.43 350.38 C342.06 338.15, 352.69 325.91, 358.98 318.68 M337.07 349.99 C343.24 342.89, 349.4 335.79, 358.72 325.08 M337.07 349.99 C344.51 341.42, 351.95 332.86, 358.72 325.08 M342.06 350.35 C347.01 344.65, 351.96 338.95, 359.11 330.72 M342.06 350.35 C347.93 343.59, 353.8 336.83, 359.11 330.72 M347.7 349.95 C351.77 345.27, 355.84 340.59, 358.85 337.12 M347.7 349.95 C351.52 345.56, 355.34 341.16, 358.85 337.12 M352.69 350.31 C354.02 348.77, 355.36 347.24, 358.59 343.52 M352.69 350.31 C354.53 348.18, 356.38 346.06, 358.59 343.52" stroke="#fff" stroke-width="0.5" fill="none"></path><path d="M0 0 C106.5 0, 213 0, 356.67 0 M0 0 C126.66 0, 253.32 0, 356.67 0 M356.67 0 C356.67 72.83, 356.67 145.65, 356.67 347.78 M356.67 0 C356.67 106.07, 356.67 212.15, 356.67 347.78 M356.67 347.78 C249.75 347.78, 142.84 347.78, 0 347.78 M356.67 347.78 C271.79 347.78, 186.91 347.78, 0 347.78 M0 347.78 C0 226.4, 0 105.03, 0 0 M0 347.78 C0 239.68, 0 131.59, 0 0" stroke="#000000" stroke-width="1" fill="none"></path></g><g transform="translate(105.52080301633237 17.154092603181198) rotate(0 82.5 15)"><text x="82.5" y="21" font-family="Virgil, Segoe UI Emoji" font-size="23.46938775510202px" fill="#000000" text-anchor="middle" style="white-space: pre;" direction="ltr">Let's practice</text></g><g transform="translate(88.4488086027959 76.83584403168788) rotate(0 31 19.5)"><text x="31" y="27" font-family="Virgil, Segoe UI Emoji" font-size="28px" fill="#000000" text-anchor="middle" style="white-space: pre;" direction="rtl">عِمارَت</text></g><g transform="translate(189.060531346704 77.70778218808846) rotate(0 68.5 19.5)"><text x="68.5" y="27" font-family="Virgil, Segoe UI Emoji" font-size="28px" fill="#000" text-anchor="middle" style="white-space: pre;" direction="rtl">عِ+م+ا+رَ+ت</text></g><g transform="translate(86.15274278740003 133.9681332793789) rotate(0 29 20)"><text x="29" y="28" font-family="Virgil, Segoe UI Emoji" font-size="29.111111111111125px" fill="#000000" text-anchor="middle" style="white-space: pre;" direction="rtl">غُبّارَہ</text></g><g transform="translate(174.45527065772558 130.87733144769118) rotate(0 69 19.5)"><text x="69" y="27" font-family="Virgil, Segoe UI Emoji" font-size="28px" fill="#000000" text-anchor="middle" style="white-space: pre;" direction="rtl">غُ+بّ+ا+رَ+ہ</text></g><g transform="translate(73.51429357445068 174.07350425822005) rotate(0 38.5 20)"><text x="38.5" y="28" font-family="Virgil, Segoe UI Emoji" font-size="29.12444789851476px" fill="#000000" text-anchor="middle" style="white-space: pre;" direction="rtl">فُٹ بال</text></g><g transform="translate(175.45579878082208 174.03514091374564) rotate(0 91.5 19.5)"><text x="91.5" y="27" font-family="Virgil, Segoe UI Emoji" font-size="28px" fill="#000000" text-anchor="middle" style="white-space: pre;" direction="rtl">فُ+ٹ+ +ب+ا+ل</text></g><g transform="translate(89.42806378450405 306.0651638109757) rotate(0 29.5 19.5)"><text x="29.5" y="27" font-family="Virgil, Segoe UI Emoji" font-size="28px" fill="#000000" text-anchor="middle" style="white-space: pre;" direction="rtl">صابُن</text></g><g transform="translate(186.8774209159128 309.2031916713404) rotate(0 63.5 19.5)"><text x="63.5" y="27" font-family="Virgil, Segoe UI Emoji" font-size="28px" fill="#000000" text-anchor="middle" style="white-space: pre;" direction="rtl">ص+ا+بُ+ن</text></g><g transform="translate(99.9488086027959 258.8132888457276) rotate(0 17.5 19.5)"><text x="17.5" y="27" font-family="Virgil, Segoe UI Emoji" font-size="28px" fill="#000000" text-anchor="middle" style="white-space: pre;" direction="rtl">لَفْظ</text></g><g transform="translate(201.52263464396128 260.90410977469037) rotate(0 44.5 19.5)"><text x="44.5" y="27" font-family="Virgil, Segoe UI Emoji" font-size="28px" fill="#000000" text-anchor="middle" style="white-space: pre;" direction="rtl">لَ+فْ+ظ</text></g><g transform="translate(95.75067064852738 212.4612827228575) rotate(0 25 19.5)"><text x="25" y="27" font-family="Virgil, Segoe UI Emoji" font-size="28px" fill="#000000" text-anchor="middle" style="white-space: pre;" direction="rtl">قَیدی</text></g><g transform="translate(189.6943104851198 213.98415190212654) rotate(0 58.5 19.5)"><text x="58.5" y="27" font-family="Virgil, Segoe UI Emoji" font-size="28px" fill="#000000" text-anchor="middle" style="white-space: pre;" direction="rtl">قَ+ی+د+ی</text></g><g stroke-linecap="round"><g transform="translate(10 70) rotate(0 180 0)"><path d="M0 0 C60 0, 300 0, 360 0" stroke="#343a40" stroke-width="1.5" fill="none" stroke-dasharray="1.5 7"></path></g></g><g stroke-linecap="round"><g transform="translate(10 126) rotate(0 180 0)"><path d="M0 0 C60 0, 300 0, 360 0" stroke="#343a40" stroke-width="1.5" fill="none" stroke-dasharray="1.5 7"></path></g></g><g stroke-linecap="round"><g transform="translate(10 210) rotate(0 180 0)"><path d="M0 0 C60 0, 300 0, 360 0" stroke="#343a40" stroke-width="1.5" fill="none" stroke-dasharray="1.5 7"></path></g></g><g stroke-linecap="round"><g transform="translate(10 250) rotate(0 180 0)"><path d="M0 0 C60 0, 300 0, 360 0" stroke="#343a40" stroke-width="1.5" fill="none" stroke-dasharray="1.5 7"></path></g></g><g stroke-linecap="round"><g transform="translate(10 170) rotate(0 180 0)"><path d="M0 0 C60 0, 300 0, 360 0" stroke="#343a40" stroke-width="1.5" fill="none" stroke-dasharray="1.5 7"></path></g></g><g stroke-linecap="round"><g transform="translate(10 302) rotate(0 180 0)"><path d="M0 0 C60 0, 300 0, 360 0" stroke="#343a40" stroke-width="1.5" fill="none" stroke-dasharray="1.5 7"></path></g></g><g stroke-linecap="round"><g transform="translate(170 70) rotate(0 0 140)"><path d="M0 0 C0 46.67, 0 233.33, 0 280" stroke="#343a40" stroke-width="1.5" fill="none" stroke-dasharray="1.5 7"></path></g></g><g transform="translate(133.9465680803679 49.450034489700556) rotate(0 70 10)"><text x="70" y="14" font-family="Virgil, Segoe UI Emoji" font-size="16px" fill="#e67700" text-anchor="middle" style="white-space: pre;" direction="ltr">taz-aag-fek-saja</text></g></svg>