<svg version="1.1" xmlns="http://www.w3.org/2000/svg" viewBox="0 0 380 367.7777777777774" width="380" height="367.7777777777774">
  <!-- svg-source:excalidraw -->
  
  <defs>
    <style>
      @font-face {
        font-family: "Virgil";
        src: url("https://excalidraw.com/Virgil.woff2");
      }
      @font-face {
        font-family: "Cascadia";
        src: url("https://excalidraw.com/Cascadia.woff2");
      }
    </style>
  </defs>
  <rect x="0" y="0" width="380" height="367.7777777777774" fill="#ffffff"></rect><g stroke-linecap="round" transform="translate(10 10) rotate(0 178.33333333333326 173.8888888888887)"><path d="M0 0 C0 0, 0 0, 0 0 M0 0 C0 0, 0 0, 0 0 M-0.26 6.4 C1.23 4.69, 2.71 2.98, 4.99 0.36 M-0.26 6.4 C1.26 4.65, 2.78 2.9, 4.99 0.36 M0.13 12.04 C3.67 7.98, 7.2 3.91, 10.63 -0.03 M0.13 12.04 C3.15 8.58, 6.16 5.11, 10.63 -0.03 M-0.13 18.44 C3.1 14.72, 6.34 11, 15.62 0.33 M-0.13 18.44 C3.92 13.79, 7.96 9.13, 15.62 0.33 M0.27 24.08 C7.1 16.22, 13.94 8.35, 21.26 -0.07 M0.27 24.08 C4.84 18.82, 9.41 13.56, 21.26 -0.07 M0 30.48 C7.62 21.72, 15.24 12.95, 26.25 0.29 M0 30.48 C6.58 22.92, 13.15 15.35, 26.25 0.29 M-0.26 36.88 C9.75 25.37, 19.75 13.86, 31.89 -0.1 M-0.26 36.88 C7.3 28.19, 14.85 19.5, 31.89 -0.1 M0.14 42.52 C10.49 30.61, 20.84 18.71, 36.88 0.26 M0.14 42.52 C14.41 26.1, 28.68 9.69, 36.88 0.26 M-0.12 48.92 C10.1 37.16, 20.32 25.4, 42.52 -0.14 M-0.12 48.92 C8.52 38.97, 17.16 29.03, 42.52 -0.14 M0.27 54.56 C11.1 42.1, 21.94 29.64, 47.51 0.22 M0.27 54.56 C18.3 33.82, 36.34 13.07, 47.51 0.22 M0.01 60.96 C19.36 38.7, 38.7 16.45, 53.15 -0.17 M0.01 60.96 C20.16 37.78, 40.31 14.6, 53.15 -0.17 M-0.25 67.36 C16.62 47.94, 33.5 28.53, 58.14 0.19 M-0.25 67.36 C19.34 44.82, 38.93 22.28, 58.14 0.19 M0.14 73 C15.63 55.18, 31.12 37.37, 63.78 -0.21 M0.14 73 C13.9 57.17, 27.66 41.34, 63.78 -0.21 M-0.12 79.4 C22.13 53.8, 44.38 28.2, 68.77 0.15 M-0.12 79.4 C23.89 51.78, 47.9 24.16, 68.77 0.15 M0.28 85.04 C25.7 55.8, 51.12 26.55, 74.41 -0.24 M0.28 85.04 C26.92 54.39, 53.57 23.73, 74.41 -0.24 M0.01 91.44 C23.81 64.06, 47.61 36.69, 79.4 0.12 M0.01 91.44 C24.87 62.84, 49.73 34.25, 79.4 0.12 M-0.25 97.84 C19.74 74.85, 39.72 51.86, 85.04 -0.28 M-0.25 97.84 C20.92 73.48, 42.09 49.13, 85.04 -0.28 M0.15 103.48 C26.57 73.08, 52.99 42.69, 90.03 0.08 M0.15 103.48 C28.51 70.85, 56.88 38.22, 90.03 0.08 M-0.11 109.88 C37.76 66.31, 75.63 22.75, 95.67 -0.31 M-0.11 109.88 C30.12 75.1, 60.36 40.32, 95.67 -0.31 M0.28 115.52 C29.05 82.42, 57.82 49.32, 100.66 0.05 M0.28 115.52 C23.96 88.28, 47.64 61.03, 100.66 0.05 M0.02 121.92 C22.36 96.22, 44.69 70.53, 106.3 -0.34 M0.02 121.92 C41.32 74.41, 82.62 26.9, 106.3 -0.34 M-0.24 128.32 C40.46 81.5, 81.16 34.68, 111.29 0.02 M-0.24 128.32 C38.55 83.69, 77.35 39.06, 111.29 0.02 M0.15 133.96 C43.01 84.66, 85.86 35.36, 116.27 0.38 M0.15 133.96 C33.55 95.54, 66.95 57.12, 116.27 0.38 M-0.11 140.36 C39.22 95.11, 78.55 49.87, 121.92 -0.02 M-0.11 140.36 C38.8 95.6, 77.71 50.84, 121.92 -0.02 M0.29 146 C34.29 106.88, 68.3 67.75, 126.91 0.34 M0.29 146 C29.04 112.92, 57.8 79.83, 126.91 0.34 M0.02 152.4 C34.28 112.99, 68.53 73.59, 132.55 -0.05 M0.02 152.4 C27.87 120.36, 55.72 88.33, 132.55 -0.05 M-0.24 158.8 C28.92 125.25, 58.08 91.71, 137.54 0.31 M-0.24 158.8 C29.41 124.69, 59.06 90.58, 137.54 0.31 M0.16 164.44 C54.42 102.02, 108.68 39.59, 143.18 -0.09 M0.16 164.44 C39.73 118.91, 79.31 73.39, 143.18 -0.09 M-0.1 170.84 C30.62 135.49, 61.35 100.14, 148.17 0.27 M-0.1 170.84 C37.51 127.56, 75.13 84.29, 148.17 0.27 M0.29 176.48 C61.28 106.32, 122.27 36.15, 153.81 -0.12 M0.29 176.48 C56.68 111.62, 113.06 46.75, 153.81 -0.12 M0.03 182.88 C58.9 115.16, 117.76 47.44, 158.8 0.24 M0.03 182.88 C53.73 121.1, 107.43 59.33, 158.8 0.24 M-0.23 189.27 C54.21 126.65, 108.65 64.02, 164.44 -0.16 M-0.23 189.27 C53.18 127.83, 106.59 66.39, 164.44 -0.16 M0.16 194.92 C54.97 131.87, 109.78 68.82, 169.43 0.2 M0.16 194.92 C43.86 144.65, 87.55 94.39, 169.43 0.2 M-0.1 201.32 C53.16 140.05, 106.42 78.78, 175.07 -0.19 M-0.1 201.32 C67.19 123.91, 134.48 46.5, 175.07 -0.19 M0.3 206.96 C71.15 125.45, 142 43.95, 180.06 0.17 M0.3 206.96 C71.58 124.96, 142.86 42.95, 180.06 0.17 M0.03 213.36 C64.75 138.91, 129.46 64.46, 185.7 -0.23 M0.03 213.36 C69.96 132.91, 139.89 52.47, 185.7 -0.23 M-0.23 219.75 C40.99 172.34, 82.2 124.93, 190.69 0.13 M-0.23 219.75 C62.83 147.21, 125.89 74.67, 190.69 0.13 M0.17 225.4 C39.67 179.96, 79.17 134.52, 196.33 -0.26 M0.17 225.4 C64.03 151.93, 127.89 78.46, 196.33 -0.26 M-0.09 231.8 C66.24 155.48, 132.58 79.17, 201.32 0.1 M-0.09 231.8 C46.23 178.5, 92.56 125.2, 201.32 0.1 M0.3 237.44 C63.52 164.71, 126.74 91.98, 206.96 -0.3 M0.3 237.44 C51.63 178.38, 102.97 119.33, 206.96 -0.3 M0.04 243.84 C80.81 150.92, 161.59 58, 211.95 0.06 M0.04 243.84 C55.14 180.45, 110.25 117.06, 211.95 0.06 M-0.22 250.23 C45.94 197.13, 92.1 144.03, 217.59 -0.33 M-0.22 250.23 C77.4 160.94, 155.02 71.64, 217.59 -0.33 M0.17 255.88 C72.26 172.95, 144.35 90.02, 222.58 0.03 M0.17 255.88 C84.35 159.05, 168.52 62.21, 222.58 0.03 M-0.09 262.27 C85.61 163.69, 171.3 65.11, 228.22 -0.36 M-0.09 262.27 C58.01 195.44, 116.11 128.6, 228.22 -0.36 M0.3 267.92 C50.92 209.69, 101.53 151.47, 233.21 0 M0.3 267.92 C78.83 177.58, 157.36 87.24, 233.21 0 M0.04 274.32 C85.4 176.13, 170.75 77.94, 238.19 0.36 M0.04 274.32 C81.36 180.78, 162.67 87.24, 238.19 0.36 M-0.22 280.71 C54.96 217.24, 110.13 153.77, 243.84 -0.04 M-0.22 280.71 C68.55 201.61, 137.31 122.51, 243.84 -0.04 M0.18 286.36 C57.24 220.71, 114.31 155.06, 248.82 0.32 M0.18 286.36 C52.32 226.37, 104.47 166.38, 248.82 0.32 M-0.08 292.75 C56.42 227.75, 112.93 162.75, 254.47 -0.07 M-0.08 292.75 C89.41 189.81, 178.9 86.86, 254.47 -0.07 M0.31 298.4 C94.48 190.06, 188.66 81.73, 259.45 0.29 M0.31 298.4 C63.95 225.19, 127.59 151.98, 259.45 0.29 M0.05 304.8 C101.53 188.06, 203 71.32, 265.1 -0.11 M0.05 304.8 C74.18 219.51, 148.32 134.23, 265.1 -0.11 M-0.21 311.19 C64.94 236.24, 130.09 161.29, 270.08 0.25 M-0.21 311.19 C61.68 239.99, 123.57 168.8, 270.08 0.25 M0.18 316.84 C108.42 192.33, 216.65 67.81, 275.73 -0.14 M0.18 316.84 C108.48 192.25, 216.78 67.67, 275.73 -0.14 M-0.08 323.23 C70.01 242.6, 140.11 161.97, 280.71 0.22 M-0.08 323.23 C93.61 215.46, 187.29 107.69, 280.71 0.22 M0.31 328.88 C69.58 249.2, 138.84 169.52, 286.36 -0.18 M0.31 328.88 C61 259.06, 121.69 189.25, 286.36 -0.18 M0.05 335.27 C82.38 240.57, 164.7 145.87, 291.34 0.18 M0.05 335.27 C95.33 225.67, 190.6 116.07, 291.34 0.18 M-0.21 341.67 C67.39 263.91, 134.99 186.15, 296.99 -0.21 M-0.21 341.67 C74.52 255.7, 149.25 169.74, 296.99 -0.21 M0.19 347.32 C102.71 229.38, 205.23 111.44, 301.97 0.15 M0.19 347.32 C112 218.69, 223.81 90.07, 301.97 0.15 M3.21 349.94 C110.23 226.82, 217.25 103.71, 307.62 -0.25 M3.21 349.94 C69.87 273.25, 136.54 196.56, 307.62 -0.25 M8.19 350.3 C107.7 235.83, 207.2 121.36, 312.6 0.11 M8.19 350.3 C74.82 273.65, 141.45 197.01, 312.6 0.11 M13.18 350.66 C111.89 237.1, 210.61 123.54, 318.25 -0.28 M13.18 350.66 C79.27 274.63, 145.37 198.6, 318.25 -0.28 M18.82 350.27 C96.85 260.51, 174.87 170.75, 323.23 0.08 M18.82 350.27 C86.08 272.89, 153.34 195.51, 323.23 0.08 M23.81 350.63 C133.27 224.7, 242.74 98.78, 328.88 -0.31 M23.81 350.63 C127.54 231.3, 231.27 111.97, 328.88 -0.31 M29.45 350.23 C104.49 263.91, 179.52 177.6, 333.86 0.05 M29.45 350.23 C126.62 238.45, 223.8 126.66, 333.86 0.05 M34.44 350.59 C150.02 217.64, 265.59 84.68, 339.51 -0.35 M34.44 350.59 C119.39 252.86, 204.35 155.14, 339.51 -0.35 M40.08 350.2 C138.13 237.4, 236.18 124.61, 344.49 0.01 M40.08 350.2 C116.15 262.69, 192.21 175.19, 344.49 0.01 M45.07 350.56 C109.46 276.48, 173.85 202.41, 349.48 0.37 M45.07 350.56 C140.99 240.21, 236.91 129.87, 349.48 0.37 M50.71 350.16 C115.89 275.19, 181.06 200.21, 355.12 -0.02 M50.71 350.16 C155.1 230.07, 259.5 109.98, 355.12 -0.02 M55.7 350.52 C174.19 214.22, 292.67 77.92, 358.8 1.85 M55.7 350.52 C154.74 236.59, 253.78 122.65, 358.8 1.85 M61.34 350.13 C168.25 227.15, 275.15 104.17, 358.54 8.24 M61.34 350.13 C157.07 240.01, 252.8 129.88, 358.54 8.24 M66.33 350.49 C170.89 230.2, 275.45 109.92, 358.93 13.89 M66.33 350.49 C178.71 221.21, 291.09 91.93, 358.93 13.89 M71.97 350.09 C158.66 250.37, 245.35 150.64, 358.67 20.28 M71.97 350.09 C159.38 249.54, 246.79 148.99, 358.67 20.28 M76.96 350.45 C149.58 266.91, 222.2 183.37, 359.07 25.93 M76.96 350.45 C176.08 236.43, 275.2 122.4, 359.07 25.93 M82.6 350.06 C163.2 257.34, 243.8 164.63, 358.8 32.33 M82.6 350.06 C138.53 285.72, 194.45 221.39, 358.8 32.33 M87.59 350.42 C180.79 243.21, 273.98 136, 358.54 38.72 M87.59 350.42 C165.29 261.03, 242.99 171.65, 358.54 38.72 M93.23 350.02 C168.68 263.23, 244.13 176.43, 358.94 44.37 M93.23 350.02 C178.23 252.25, 263.23 154.47, 358.94 44.37 M98.22 350.38 C196.16 237.71, 294.1 125.05, 358.68 50.76 M98.22 350.38 C161.28 277.84, 224.35 205.29, 358.68 50.76 M103.86 349.99 C190.9 249.86, 277.94 149.74, 359.07 56.41 M103.86 349.99 C194.68 245.52, 285.49 141.05, 359.07 56.41 M108.85 350.35 C163.59 287.38, 218.33 224.41, 358.81 62.81 M108.85 350.35 C174.6 274.71, 240.35 199.08, 358.81 62.81 M114.49 349.95 C171 284.95, 227.5 219.95, 358.55 69.2 M114.49 349.95 C163.99 293.01, 213.49 236.07, 358.55 69.2 M119.48 350.31 C178.01 282.99, 236.54 215.66, 358.94 74.85 M119.48 350.31 C212.6 243.19, 305.72 136.06, 358.94 74.85 M125.12 349.92 C178.86 288.1, 232.6 226.28, 358.68 81.24 M125.12 349.92 C206.18 256.68, 287.23 163.43, 358.68 81.24 M130.11 350.28 C205.7 263.33, 281.29 176.37, 359.07 86.89 M130.11 350.28 C187.98 283.71, 245.85 217.14, 359.07 86.89 M135.1 350.64 C206.18 268.87, 277.26 187.11, 358.81 93.28 M135.1 350.64 C195.17 281.54, 255.24 212.44, 358.81 93.28 M140.74 350.25 C197.42 285.05, 254.1 219.85, 358.55 99.68 M140.74 350.25 C202.05 279.72, 263.36 209.19, 358.55 99.68 M145.73 350.61 C227.09 257.01, 308.46 163.41, 358.95 105.33 M145.73 350.61 C197.1 291.51, 248.47 232.42, 358.95 105.33 M151.37 350.21 C218.75 272.7, 286.13 195.19, 358.69 111.72 M151.37 350.21 C212.68 279.69, 273.98 209.17, 358.69 111.72 M156.36 350.57 C199.98 300.39, 243.61 250.2, 359.08 117.37 M156.36 350.57 C223.62 273.2, 290.88 195.82, 359.08 117.37 M162 350.18 C225.2 277.48, 288.39 204.78, 358.82 123.76 M162 350.18 C222.97 280.04, 283.94 209.9, 358.82 123.76 M166.99 350.54 C227.95 280.41, 288.91 210.28, 358.56 130.16 M166.99 350.54 C205.75 305.95, 244.51 261.36, 358.56 130.16 M172.63 350.14 C238.08 274.85, 303.53 199.56, 358.95 135.8 M172.63 350.14 C234.45 279.03, 296.27 207.92, 358.95 135.8 M177.62 350.5 C231.33 288.72, 285.04 226.93, 358.69 142.2 M177.62 350.5 C233.3 286.44, 288.99 222.39, 358.69 142.2 M183.26 350.11 C222.77 304.66, 262.27 259.22, 359.08 147.85 M183.26 350.11 C247.19 276.57, 311.12 203.03, 359.08 147.85 M188.25 350.47 C233.04 298.94, 277.84 247.41, 358.82 154.24 M188.25 350.47 C238.76 292.36, 289.26 234.26, 358.82 154.24 M193.89 350.07 C236.15 301.46, 278.41 252.85, 358.56 160.64 M193.89 350.07 C226.96 312.03, 260.03 273.99, 358.56 160.64 M198.88 350.43 C236.44 307.23, 274 264.02, 358.96 166.28 M198.88 350.43 C232.58 311.66, 266.29 272.89, 358.96 166.28 M204.52 350.04 C245.94 302.39, 287.37 254.74, 358.69 172.68 M204.52 350.04 C240.41 308.75, 276.3 267.47, 358.69 172.68 M209.51 350.4 C259.98 292.34, 310.45 234.28, 359.09 178.33 M209.51 350.4 C252.45 301, 295.39 251.6, 359.09 178.33 M215.15 350 C270.99 285.76, 326.84 221.52, 358.83 184.72 M215.15 350 C250.01 309.9, 284.87 269.8, 358.83 184.72 M220.14 350.36 C248.09 318.21, 276.04 286.06, 358.57 191.12 M220.14 350.36 C269.38 293.72, 318.62 237.08, 358.57 191.12 M225.78 349.97 C259.17 311.56, 292.56 273.15, 358.96 196.76 M225.78 349.97 C253.38 318.23, 280.97 286.48, 358.96 196.76 M230.77 350.33 C277.5 296.57, 324.24 242.81, 358.7 203.16 M230.77 350.33 C261.49 314.99, 292.21 279.65, 358.7 203.16 M236.41 349.94 C284.88 294.17, 333.36 238.41, 359.09 208.8 M236.41 349.94 C272.86 308.01, 309.31 266.08, 359.09 208.8 M241.4 350.3 C273.23 313.67, 305.07 277.05, 358.83 215.2 M241.4 350.3 C283.42 301.95, 325.44 253.61, 358.83 215.2 M246.39 350.66 C276.5 316.01, 306.61 281.37, 358.57 221.6 M246.39 350.66 C277.42 314.95, 308.46 279.24, 358.57 221.6 M252.03 350.26 C280.79 317.18, 309.55 284.09, 358.97 227.24 M252.03 350.26 C286.25 310.89, 320.48 271.51, 358.97 227.24 M257.02 350.62 C279.75 324.47, 302.48 298.32, 358.7 233.64 M257.02 350.62 C287.93 315.05, 318.85 279.49, 358.7 233.64 M262.66 350.23 C283.38 326.39, 304.1 302.56, 359.1 239.28 M262.66 350.23 C294.66 313.42, 326.65 276.61, 359.1 239.28 M267.65 350.59 C296.78 317.07, 325.92 283.55, 358.84 245.68 M267.65 350.59 C297.84 315.86, 328.02 281.13, 358.84 245.68 M273.29 350.19 C296.4 323.61, 319.51 297.02, 358.58 252.08 M273.29 350.19 C306.7 311.76, 340.11 273.32, 358.58 252.08 M278.28 350.55 C304.23 320.69, 330.19 290.83, 358.97 257.72 M278.28 350.55 C302.75 322.4, 327.23 294.24, 358.97 257.72 M283.92 350.16 C306.79 323.85, 329.66 297.54, 358.71 264.12 M283.92 350.16 C305.79 325, 327.66 299.84, 358.71 264.12 M288.91 350.52 C310.08 326.16, 331.25 301.8, 359.1 269.76 M288.91 350.52 C314.19 321.43, 339.47 292.34, 359.1 269.76 M294.55 350.12 C313.45 328.37, 332.36 306.63, 358.84 276.16 M294.55 350.12 C308.69 333.85, 322.84 317.58, 358.84 276.16 M299.54 350.48 C313.54 334.37, 327.54 318.27, 358.58 282.56 M299.54 350.48 C313.4 334.54, 327.26 318.59, 358.58 282.56 M305.18 350.09 C322.21 330.49, 339.25 310.89, 358.98 288.2 M305.18 350.09 C324.25 328.15, 343.32 306.21, 358.98 288.2 M310.17 350.45 C320.48 338.59, 330.79 326.73, 358.71 294.6 M310.17 350.45 C322.49 336.27, 334.82 322.09, 358.71 294.6 M315.81 350.05 C331.43 332.08, 347.06 314.11, 359.11 300.24 M315.81 350.05 C327.49 336.62, 339.16 323.19, 359.11 300.24 M320.8 350.41 C329.08 340.89, 337.36 331.36, 358.85 306.64 M320.8 350.41 C333.67 335.61, 346.54 320.8, 358.85 306.64 M326.44 350.02 C336.73 338.18, 347.02 326.35, 358.59 313.04 M326.44 350.02 C337.14 337.71, 347.85 325.39, 358.59 313.04 M331.43 350.38 C341.06 339.3, 350.69 328.22, 358.98 318.68 M331.43 350.38 C336.99 343.97, 342.56 337.57, 358.98 318.68 M337.07 349.99 C345.6 340.17, 354.13 330.36, 358.72 325.08 M337.07 349.99 C343.69 342.37, 350.3 334.76, 358.72 325.08 M342.06 350.35 C345.65 346.21, 349.25 342.07, 359.11 330.72 M342.06 350.35 C348.09 343.41, 354.12 336.47, 359.11 330.72 M347.7 349.95 C350.92 346.25, 354.14 342.54, 358.85 337.12 M347.7 349.95 C351.52 345.55, 355.34 341.16, 358.85 337.12 M352.69 350.31 C354.52 348.2, 356.35 346.09, 358.59 343.52 M352.69 350.31 C354.42 348.31, 356.16 346.31, 358.59 343.52" stroke="#fff" stroke-width="0.5" fill="none"></path><path d="M0 0 C98.33 0, 196.65 0, 356.67 0 M0 0 C97.99 0, 195.97 0, 356.67 0 M356.67 0 C356.67 99.3, 356.67 198.61, 356.67 347.78 M356.67 0 C356.67 116.54, 356.67 233.09, 356.67 347.78 M356.67 347.78 C252.34 347.78, 148.01 347.78, 0 347.78 M356.67 347.78 C215.64 347.78, 74.61 347.78, 0 347.78 M0 347.78 C0 247.97, 0 148.16, 0 0 M0 347.78 C0 269.18, 0 190.59, 0 0" stroke="#000000" stroke-width="1" fill="none"></path></g><g transform="translate(142.52080301633237 18.154092603181198) rotate(0 45.5 15)"><text x="45.5" y="21" font-family="Virgil, Segoe UI Emoji" font-size="23.46938775510202px" fill="#d9480f" text-anchor="middle" style="white-space: pre;" direction="ltr">Answers</text></g><g transform="translate(88.4488086027959 85.83584403168788) rotate(0 31 19.5)"><text x="31" y="27" font-family="Virgil, Segoe UI Emoji" font-size="28px" fill="#000000" text-anchor="middle" style="white-space: pre;" direction="rtl">عِمارَت</text></g><g transform="translate(189.060531346704 87.70778218808846) rotate(0 68.5 19.5)"><text x="68.5" y="27" font-family="Virgil, Segoe UI Emoji" font-size="28px" fill="#000" text-anchor="middle" style="white-space: pre;" direction="rtl">عِ+م+ا+رَ+ت</text></g><g transform="translate(86.15274278740003 133.9681332793807) rotate(0 29 20)"><text x="29" y="28" font-family="Virgil, Segoe UI Emoji" font-size="29.111111111111125px" fill="#000000" text-anchor="middle" style="white-space: pre;" direction="rtl">غُبّارَہ</text></g><g transform="translate(174.45527065772558 130.87733144768936) rotate(0 69 19.5)"><text x="69" y="27" font-family="Virgil, Segoe UI Emoji" font-size="28px" fill="#000000" text-anchor="middle" style="white-space: pre;" direction="rtl">غُ+بّ+ا+رَ+ہ</text></g><g transform="translate(73.51429357445068 174.07350425822005) rotate(0 38.5 20)"><text x="38.5" y="28" font-family="Virgil, Segoe UI Emoji" font-size="29.12444789851476px" fill="#000000" text-anchor="middle" style="white-space: pre;" direction="rtl">فُٹ بال</text></g><g transform="translate(175.45579878082208 174.03514091374745) rotate(0 91.5 19.5)"><text x="91.5" y="27" font-family="Virgil, Segoe UI Emoji" font-size="28px" fill="#000000" text-anchor="middle" style="white-space: pre;" direction="rtl">فُ+ٹ+ +ب+ا+ل</text></g><g transform="translate(89.42806378450405 306.0651638109739) rotate(0 29.5 19.5)"><text x="29.5" y="27" font-family="Virgil, Segoe UI Emoji" font-size="28px" fill="#000000" text-anchor="middle" style="white-space: pre;" direction="rtl">صابُن</text></g><g transform="translate(186.8774209159128 309.2031916713422) rotate(0 63.5 19.5)"><text x="63.5" y="27" font-family="Virgil, Segoe UI Emoji" font-size="28px" fill="#000000" text-anchor="middle" style="white-space: pre;" direction="rtl">ص+ا+بُ+ن</text></g><g transform="translate(99.9488086027959 258.8132888457294) rotate(0 17.5 19.5)"><text x="17.5" y="27" font-family="Virgil, Segoe UI Emoji" font-size="28px" fill="#000000" text-anchor="middle" style="white-space: pre;" direction="rtl">لَفْظ</text></g><g transform="translate(201.52263464396128 260.9041097746922) rotate(0 44.5 19.5)"><text x="44.5" y="27" font-family="Virgil, Segoe UI Emoji" font-size="28px" fill="#000000" text-anchor="middle" style="white-space: pre;" direction="rtl">لَ+فْ+ظ</text></g><g transform="translate(95.75067064852738 212.46128272285932) rotate(0 25 19.5)"><text x="25" y="27" font-family="Virgil, Segoe UI Emoji" font-size="28px" fill="#000000" text-anchor="middle" style="white-space: pre;" direction="rtl">قَیدی</text></g><g transform="translate(189.6943104851198 213.98415190212472) rotate(0 58.5 19.5)"><text x="58.5" y="27" font-family="Virgil, Segoe UI Emoji" font-size="28px" fill="#000000" text-anchor="middle" style="white-space: pre;" direction="rtl">قَ+ی+د+ی</text></g><g stroke-linecap="round"><g transform="translate(10 70) rotate(0 180 0)"><path d="M0 0 C60 0, 300 0, 360 0" stroke="#343a40" stroke-width="1.5" fill="none" stroke-dasharray="1.5 7"></path></g></g><g stroke-linecap="round"><g transform="translate(10 130) rotate(0 180 0)"><path d="M0 0 C60 0, 300 0, 360 0" stroke="#343a40" stroke-width="1.5" fill="none" stroke-dasharray="1.5 7"></path></g></g><g stroke-linecap="round"><g transform="translate(10 210) rotate(0 180 0)"><path d="M0 0 C60 0, 300 0, 360 0" stroke="#343a40" stroke-width="1.5" fill="none" stroke-dasharray="1.5 7"></path></g></g><g stroke-linecap="round"><g transform="translate(10 250) rotate(0 180 0)"><path d="M0 0 C60 0, 300 0, 360 0" stroke="#343a40" stroke-width="1.5" fill="none" stroke-dasharray="1.5 7"></path></g></g><g stroke-linecap="round"><g transform="translate(10 170) rotate(0 180 0)"><path d="M0 0 C60 0, 300 0, 360 0" stroke="#343a40" stroke-width="1.5" fill="none" stroke-dasharray="1.5 7"></path></g></g><g stroke-linecap="round"><g transform="translate(10 302) rotate(0 180 0)"><path d="M0 0 C60 0, 300 0, 360 0" stroke="#343a40" stroke-width="1.5" fill="none" stroke-dasharray="1.5 7"></path></g></g><g stroke-linecap="round"><g transform="translate(170 70) rotate(0 0 140)"><path d="M0 0 C0 46.67, 0 233.33, 0 280" stroke="#343a40" stroke-width="1.5" fill="none" stroke-dasharray="1.5 7"></path></g></g><g transform="translate(19.616786411820783 100.29570564392088) rotate(0 31 12)"><text x="0" y="17" font-family="Virgil, Segoe UI Emoji" font-size="18.94441731770874px" fill="#d9480f" text-anchor="start" style="white-space: pre;" direction="ltr">imārat</text></g><g transform="translate(298.97554185653917 74.43105546256265) rotate(0 28.5 10.5)"><text x="0" y="15" font-family="Virgil, Segoe UI Emoji" font-size="16.658108181423813px" fill="#d9480f" text-anchor="start" style="white-space: pre;" direction="ltr">building</text></g><g transform="translate(13.312702481693634 138.0566562510121) rotate(0 37 10.5)"><text x="0" y="15" font-family="Virgil, Segoe UI Emoji" font-size="16.62346580806202px" fill="#d9480f" text-anchor="start" style="white-space: pre;" direction="ltr">gubbarha</text></g><g transform="translate(20.209960937486244 179.84233412530375) rotate(0 31 10)"><text x="0" y="14" font-family="Virgil, Segoe UI Emoji" font-size="15.615656072443159px" fill="#d9480f" text-anchor="start" style="white-space: pre;" direction="ltr">football</text></g><g transform="translate(306.25173054042807 135.12664698042136) rotate(0 30 10.5)"><text x="0" y="15" font-family="Virgil, Segoe UI Emoji" font-size="16.658108181423813px" fill="#d9480f" text-anchor="start" style="white-space: pre;" direction="ltr">Balloon</text></g><g transform="translate(22.16757638112432 218.03578227871185) rotate(0 20 10)"><text x="0" y="14" font-family="Virgil, Segoe UI Emoji" font-size="15.615656072443159px" fill="#d9480f" text-anchor="start" style="white-space: pre;" direction="ltr">qaidii</text></g><g transform="translate(306.89028058731947 215.43944343689145) rotate(0 28.5 9.5)"><text x="0" y="14" font-family="Virgil, Segoe UI Emoji" font-size="15.024943033853967px" fill="#d9480f" text-anchor="start" style="white-space: pre;" direction="ltr">prisoner</text></g><g transform="translate(37.37479073659313 265.45072622148837) rotate(0 17 10)"><text x="0" y="14" font-family="Virgil, Segoe UI Emoji" font-size="16px" fill="#d9480f" text-anchor="start" style="white-space: pre;" direction="ltr">lafz</text></g><g transform="translate(318.52647181918235 268.3229709201496) rotate(0 18.5 10)"><text x="0" y="14" font-family="Virgil, Segoe UI Emoji" font-size="16px" fill="#d9480f" text-anchor="start" style="white-space: pre;" direction="ltr">word</text></g><g transform="translate(24.872471400655627 319.7275119357746) rotate(0 28.5 10)"><text x="0" y="14" font-family="Virgil, Segoe UI Emoji" font-size="16px" fill="#d9480f" text-anchor="start" style="white-space: pre;" direction="ltr">saabun</text></g><g transform="translate(327.9809570312358 318.52163163443583) rotate(0 19 10)"><text x="0" y="14" font-family="Virgil, Segoe UI Emoji" font-size="16px" fill="#d9480f" text-anchor="start" style="white-space: pre;" direction="ltr">soap</text></g><g transform="translate(114.14551943825518 46.442018539164565) rotate(0 70 10)"><text x="70" y="14" font-family="Virgil, Segoe UI Emoji" font-size="16px" fill="#e67700" text-anchor="middle" style="white-space: pre;" direction="ltr">taz-aag-fek-saja</text></g></svg>