<svg version="1.1" xmlns="http://www.w3.org/2000/svg" viewBox="0 0 379 373" width="379" height="373">
  <!-- svg-source:excalidraw -->
  
  <defs>
    <style>
      @font-face {
        font-family: "Virgil";
        src: url("https://excalidraw.com/Virgil.woff2");
      }
      @font-face {
        font-family: "Cascadia";
        src: url("https://excalidraw.com/Cascadia.woff2");
      }
    </style>
  </defs>
  <rect x="0" y="0" width="379" height="373" fill="#ffffff"></rect><g stroke-linecap="round" transform="translate(10 10) rotate(0 179.5 176.5)"><path d="M0 0 C101 0, 202.01 0, 359 0 M0 0 C128.84 0, 257.69 0, 359 0 M359 0 C359 85.98, 359 171.96, 359 353 M359 0 C359 70.86, 359 141.73, 359 353 M359 353 C249.72 353, 140.44 353, 0 353 M359 353 C233.55 353, 108.1 353, 0 353 M0 353 C0 245.6, 0 138.21, 0 0 M0 353 C0 240.79, 0 128.58, 0 0" stroke="#000000" stroke-width="1" fill="none"></path></g><g transform="translate(25.500000000000114 39) rotate(0 29.5 15)"><text x="29.5" y="22" font-family="Virgil, Segoe UI Emoji" font-size="20px" fill="#000000" text-anchor="middle" style="white-space: pre;" direction="ltr">अन/an</text></g><g transform="translate(305.99999999999943 42) rotate(0 30 12.5)"><text x="30" y="18" font-family="Virgil, Segoe UI Emoji" font-size="20px" fill="#000000" text-anchor="middle" style="white-space: pre;" direction="ltr">tanvin</text></g><g transform="translate(296.99999999999966 298.99999999999636) rotate(0 28 15.5)"><text x="28" y="22" font-family="Virgil, Segoe UI Emoji" font-size="23.076923076923066px" fill="#000000" text-anchor="middle" style="white-space: pre;" direction="rtl">مَجبُوراً</text></g><g transform="translate(171.49999999999966 297.74999999999636) rotate(0 24.5 17.5)"><text x="24.5" y="24" font-family="Virgil, Segoe UI Emoji" font-size="24.999999999999996px" fill="#000000" text-anchor="middle" style="white-space: pre;" direction="rtl">اِتفاقاً</text></g><g transform="translate(44.000000000000114 300.99999999999636) rotate(0 25.5 13.5)"><text x="25.5" y="19" font-family="Virgil, Segoe UI Emoji" font-size="20px" fill="#000000" text-anchor="middle" style="white-space: pre;" direction="rtl">اَںداجَنْ</text></g><g transform="translate(145.49999999999966 42.72728228569031) rotate(0 41.5 13.5)"><text x="41.5" y="19" font-family="Virgil, Segoe UI Emoji" font-size="20px" fill="#000000" text-anchor="middle" style="white-space: pre;" direction="rtl">ا + ـً = اً</text></g><g transform="translate(271.93518149852696 330.89663970470065) rotate(0 40.5 10)"><text x="81" y="14" font-family="Virgil, Segoe UI Emoji" font-size="16px" fill="#000000" text-anchor="end" style="white-space: pre;" direction="ltr">Majbooran</text></g><g transform="translate(168.9351814985272 330.89663970470065) rotate(0 29 10)"><text x="58" y="14" font-family="Virgil, Segoe UI Emoji" font-size="16px" fill="#000000" text-anchor="end" style="white-space: pre;" direction="ltr">itefaqn</text></g><g transform="translate(32.93518149852764 330.89663970470065) rotate(0 39 10)"><text x="78" y="14" font-family="Virgil, Segoe UI Emoji" font-size="16px" fill="#000000" text-anchor="end" style="white-space: pre;" direction="ltr">Anadazan</text></g><g stroke-linecap="round"><g transform="translate(167.67563884572996 143.43371405424477) rotate(179.62931685344796 -0.13830305255288522 33.52400643737565)"><path d="M0 0 C-0.05 11.17, -0.23 55.87, -0.28 67.05 M0 0 C-0.05 11.17, -0.23 55.87, -0.28 67.05" stroke="#000000" stroke-width="1" fill="none"></path></g></g><g stroke-linecap="round"><g transform="translate(188.23122116397815 121.21997782210747) rotate(4.93921554212618 -20.97082900144335 11.712887373697413)"><path d="M0 0 C-6.99 3.9, -34.95 19.52, -41.94 23.43 M0 0 C-6.99 3.9, -34.95 19.52, -41.94 23.43" stroke="#000000" stroke-width="1" fill="none"></path></g></g><g transform="translate(131.6007185663624 252.1093405125539) rotate(0 60 20)"><text x="0" y="14" font-family="Virgil, Segoe UI Emoji" font-size="16px" fill="#d9480f" text-anchor="start" style="white-space: pre;" direction="ltr">short an sound</text><text x="0" y="34" font-family="Virgil, Segoe UI Emoji" font-size="16px" fill="#d9480f" text-anchor="start" style="white-space: pre;" direction="ltr">used in last</text></g><g stroke-linecap="round"><g transform="translate(182.51036407411834 109.4272644438388) rotate(4.93921554212618 -20.09440948427448 11.372492771881298)"><path d="M0 0 C-6.7 3.79, -33.49 18.95, -40.19 22.74 M0 0 C-6.7 3.79, -33.49 18.95, -40.19 22.74" stroke="#000000" stroke-width="1" fill="none"></path></g></g></svg>