<svg version="1.1" xmlns="http://www.w3.org/2000/svg" viewBox="0 0 379 373" width="379" height="373">
  <!-- svg-source:excalidraw -->
  
  <defs>
    <style>
      @font-face {
        font-family: "Virgil";
        src: url("https://excalidraw.com/Virgil.woff2");
      }
      @font-face {
        font-family: "Cascadia";
        src: url("https://excalidraw.com/Cascadia.woff2");
      }
    </style>
  </defs>
  <rect x="0" y="0" width="379" height="373" fill="#ffffff"></rect><g stroke-linecap="round" transform="translate(10 10) rotate(0 179.5 176.5)"><path d="M0 0 C84.12 0, 168.24 0, 359 0 M0 0 C142.35 0, 284.69 0, 359 0 M359 0 C359 89.71, 359 179.41, 359 353 M359 0 C359 134.37, 359 268.73, 359 353 M359 353 C250.56 353, 142.12 353, 0 353 M359 353 C272.15 353, 185.3 353, 0 353 M0 353 C0 252.18, 0 151.35, 0 0 M0 353 C0 219.23, 0 85.46, 0 0" stroke="#000000" stroke-width="1" fill="none"></path></g><g transform="translate(29.5 39) rotate(0 25.5 15)"><text x="25.5" y="22" font-family="Virgil, Segoe UI Emoji" font-size="20px" fill="#000000" text-anchor="middle" style="white-space: pre;" direction="ltr">ब्ब/bb</text></g><g transform="translate(290.49999999999955 42) rotate(0 37.5 12.5)"><text x="37.5" y="18" font-family="Virgil, Segoe UI Emoji" font-size="20px" fill="#000000" text-anchor="middle" style="white-space: pre;" direction="ltr">tashdid</text></g><g transform="translate(313.99999999999955 299) rotate(0 11 15.5)"><text x="11" y="22" font-family="Virgil, Segoe UI Emoji" font-size="23.076923076923066px" fill="#000000" text-anchor="middle" style="white-space: pre;" direction="rtl">ابّا</text></g><g transform="translate(188.99999999999955 297.75) rotate(0 16 17.5)"><text x="16" y="24" font-family="Virgil, Segoe UI Emoji" font-size="24.999999999999996px" fill="#000000" text-anchor="middle" style="white-space: pre;" direction="rtl">بلّی</text></g><g transform="translate(58.5 301) rotate(0 11 13.5)"><text x="11" y="19" font-family="Virgil, Segoe UI Emoji" font-size="20px" fill="#000000" text-anchor="middle" style="white-space: pre;" direction="rtl">امّا</text></g><g transform="translate(142.49999999999955 42.72728228569031) rotate(0 44.5 13.5)"><text x="44.5" y="19" font-family="Virgil, Segoe UI Emoji" font-size="20px" fill="#000000" text-anchor="middle" style="white-space: pre;" direction="rtl">ب + ّ = بّ</text></g><g transform="translate(297.9351814985271 330.8966397047043) rotate(0 20 10)"><text x="40" y="14" font-family="Virgil, Segoe UI Emoji" font-size="16px" fill="#000000" text-anchor="end" style="white-space: pre;" direction="ltr">abba</text></g><g transform="translate(191.93518149852707 330.8966397047043) rotate(0 13 10)"><text x="26" y="14" font-family="Virgil, Segoe UI Emoji" font-size="16px" fill="#000000" text-anchor="end" style="white-space: pre;" direction="ltr">billi</text></g><g transform="translate(42.93518149852753 330.8966397047043) rotate(0 22 10)"><text x="44" y="14" font-family="Virgil, Segoe UI Emoji" font-size="16px" fill="#000000" text-anchor="end" style="white-space: pre;" direction="ltr">amma</text></g><g stroke-linecap="round"><g transform="translate(122.64736295982084 186.38359961360402) rotate(179.62931685344796 59.62565669837261 0.4730059691646602)"><path d="M0 0 C9.94 0.08, 39.75 0.32, 59.63 0.47 C79.5 0.63, 109.31 0.87, 119.25 0.95" stroke="#000000" stroke-width="1.5" fill="none" stroke-dasharray="1.5 7"></path></g></g><g stroke-linecap="round"><g transform="translate(137.29804207771235 106.31082843636068) rotate(357.0890836459082 37.62487457442501 18.37673197389904)"><path d="M0 0 C1.34 5.83, 1.7 28.89, 8.05 35.01 C14.39 41.13, 33.09 42.64, 38.07 36.71 C43.05 30.79, 37.17 -0.97, 37.94 -0.54 C38.72 -0.11, 38.07 32.49, 42.74 39.31 C47.4 46.12, 60.69 44.88, 65.96 40.37 C71.22 35.85, 72.83 20.16, 74.35 12.21 C75.87 4.26, 74.97 -4.08, 75.1 -7.33 M0 0 C1.34 5.83, 1.7 28.89, 8.05 35.01 C14.39 41.13, 33.09 42.64, 38.07 36.71 C43.05 30.79, 37.17 -0.97, 37.94 -0.54 C38.72 -0.11, 38.07 32.49, 42.74 39.31 C47.4 46.12, 60.69 44.88, 65.96 40.37 C71.22 35.85, 72.83 20.16, 74.35 12.21 C75.87 4.26, 74.97 -4.08, 75.1 -7.33" stroke="#000000" stroke-width="1" fill="none"></path></g></g><g transform="translate(111.01415284474683 221.00311787923783) rotate(0 96 30)"><text x="0" y="14" font-family="Virgil, Segoe UI Emoji" font-size="16px" fill="#e67700" text-anchor="start" style="white-space: pre;" direction="ltr">doubles the letter</text><text x="0" y="34" font-family="Virgil, Segoe UI Emoji" font-size="16px" fill="#e67700" text-anchor="start" style="white-space: pre;" direction="ltr">not used with VERB</text><text x="0" y="54" font-family="Virgil, Segoe UI Emoji" font-size="16px" fill="#e67700" text-anchor="start" style="white-space: pre;" direction="ltr">E.g: sun-na and bana-na</text></g><g stroke-opacity="0.3" fill-opacity="0.3" stroke-linecap="round" transform="translate(223.17545369315826 239.2782526470528) rotate(0 23.69012451171875 8.82550048828125)"><path d="M0 0 C0 0, 0 0, 0 0 M0 0 C0 0, 0 0, 0 0 M-0.26 6.4 C1.38 4.51, 3.02 2.62, 4.99 0.36 M-0.26 6.4 C0.84 5.13, 1.94 3.86, 4.99 0.36 M0.13 12.04 C3.43 8.25, 6.73 4.45, 10.63 -0.03 M0.13 12.04 C2.24 9.61, 4.35 7.19, 10.63 -0.03 M0.53 17.68 C5.33 12.15, 10.14 6.63, 15.62 0.33 M0.53 17.68 C4.51 13.1, 8.5 8.52, 15.62 0.33 M5.51 18.04 C10.16 12.7, 14.8 7.37, 21.26 -0.07 M5.51 18.04 C11.39 11.29, 17.26 4.53, 21.26 -0.07 M11.16 17.65 C14.59 13.7, 18.02 9.76, 26.25 0.29 M11.16 17.65 C16.57 11.43, 21.98 5.2, 26.25 0.29 M16.14 18.01 C19.64 13.99, 23.13 9.97, 31.89 -0.1 M16.14 18.01 C20.9 12.53, 25.66 7.06, 31.89 -0.1 M21.79 17.61 C24.98 13.95, 28.17 10.28, 36.88 0.26 M21.79 17.61 C26.77 11.89, 31.74 6.16, 36.88 0.26 M26.77 17.98 C30.92 13.21, 35.06 8.45, 42.52 -0.14 M26.77 17.98 C30.01 14.26, 33.24 10.54, 42.52 -0.14 M32.42 17.58 C36.7 12.65, 40.98 7.73, 47.51 0.22 M32.42 17.58 C37.3 11.96, 42.19 6.34, 47.51 0.22 M37.41 17.94 C40.62 14.24, 43.84 10.54, 47.25 6.62 M37.41 17.94 C40.42 14.47, 43.44 10.99, 47.25 6.62 M42.39 18.3 C43.96 16.5, 45.52 14.7, 47.64 12.26 M42.39 18.3 C44.47 15.92, 46.54 13.53, 47.64 12.26" stroke="#fd7e14" stroke-width="0.5" fill="none"></path><path d="M0 0 C13.52 0, 27.05 0, 47.38 0 M0 0 C10.02 0, 20.04 0, 47.38 0 M47.38 0 C47.38 5.72, 47.38 11.44, 47.38 17.65 M47.38 0 C47.38 3.98, 47.38 7.96, 47.38 17.65 M47.38 17.65 C36.69 17.65, 25.99 17.65, 0 17.65 M47.38 17.65 C32.56 17.65, 17.73 17.65, 0 17.65 M0 17.65 C0 12.74, 0 7.83, 0 0 M0 17.65 C0 12.89, 0 8.13, 0 0" stroke="#e67700" stroke-width="1" fill="none"></path></g></svg>