<svg version="1.1" xmlns="http://www.w3.org/2000/svg" viewBox="0 0 379 373" width="379" height="373">
  <!-- svg-source:excalidraw -->
  
  <defs>
    <style>
      @font-face {
        font-family: "Virgil";
        src: url("../Virgil.woff2");;
      }
      
    </style>
  </defs>
  <rect x="0" y="0" width="379" height="373" fill="#ffffff"></rect><g stroke-linecap="round" transform="translate(10 10) rotate(0 179.5 176.5)"><path d="M0 0 C84.12 0, 168.24 0, 359 0 M0 0 C142.35 0, 284.69 0, 359 0 M359 0 C359 89.71, 359 179.41, 359 353 M359 0 C359 134.37, 359 268.73, 359 353 M359 353 C250.56 353, 142.12 353, 0 353 M359 353 C272.15 353, 185.3 353, 0 353 M0 353 C0 252.18, 0 151.35, 0 0 M0 353 C0 219.23, 0 85.46, 0 0" stroke="#000000" stroke-width="1" fill="none"></path></g><g transform="translate(30.5 39) rotate(0 24.5 13.5)"><text x="24.5" y="20" font-family="Virgil, Segoe UI Emoji" font-size="20px" fill="#000000" text-anchor="middle" style="white-space: pre;" direction="ltr">ब्ब/bb</text></g><g transform="translate(290.99999999999955 42) rotate(0 37 12.5)"><text x="37" y="18" font-family="Virgil, Segoe UI Emoji" font-size="20px" fill="#000000" text-anchor="middle" style="white-space: pre;" direction="ltr">tashdid</text></g><g transform="translate(314.49999999999955 299) rotate(0 10.5 15)"><text x="10.5" y="21" font-family="Virgil, Segoe UI Emoji" font-size="23.076923076923066px" fill="#000000" text-anchor="middle" style="white-space: pre;" direction="rtl">ابّا</text></g><g transform="translate(186.49999999999955 297.75) rotate(0 18.5 16)"><text x="18.5" y="23" font-family="Virgil, Segoe UI Emoji" font-size="24.999999999999996px" fill="#000000" text-anchor="middle" style="white-space: pre;" direction="rtl">بلّی</text></g><g transform="translate(58 301) rotate(0 11.5 13)"><text x="11.5" y="19" font-family="Virgil, Segoe UI Emoji" font-size="20px" fill="#000000" text-anchor="middle" style="white-space: pre;" direction="rtl">امّا</text></g><g transform="translate(137.49999999999955 42.72728228569031) rotate(0 49.5 13)"><text x="49.5" y="19" font-family="Virgil, Segoe UI Emoji" font-size="20px" fill="#000000" text-anchor="middle" style="white-space: pre;" direction="rtl">ب + ّ = بّ</text></g><g transform="translate(298.9351814985271 330.8966397047043) rotate(0 19.5 10)"><text x="39" y="14" font-family="Virgil, Segoe UI Emoji" font-size="16px" fill="#000000" text-anchor="end" style="white-space: pre;" direction="ltr">abba</text></g><g transform="translate(192.93518149852707 330.8966397047043) rotate(0 12.5 10)"><text x="25" y="14" font-family="Virgil, Segoe UI Emoji" font-size="16px" fill="#000000" text-anchor="end" style="white-space: pre;" direction="ltr">billi</text></g><g transform="translate(43.93518149852753 330.8966397047043) rotate(0 21.5 10)"><text x="43" y="14" font-family="Virgil, Segoe UI Emoji" font-size="16px" fill="#000000" text-anchor="end" style="white-space: pre;" direction="ltr">amma</text></g><g stroke-linecap="round"><g transform="translate(122.64736295982084 186.38359961360402) rotate(179.62931685344796 59.62565669837261 0.4730059691646602)"><path d="M0 0 C9.94 0.08, 39.75 0.32, 59.63 0.47 C79.5 0.63, 109.31 0.87, 119.25 0.95" stroke="#000000" stroke-width="1.5" fill="none" stroke-dasharray="1.5 7"></path></g></g><g stroke-linecap="round"><g transform="translate(137.29804207771235 106.31082843636068) rotate(357.0890836459082 37.62487457442501 18.37673197389904)"><path d="M0 0 C1.34 5.83, 1.7 28.89, 8.05 35.01 C14.39 41.13, 33.09 42.64, 38.07 36.71 C43.05 30.79, 37.17 -0.97, 37.94 -0.54 C38.72 -0.11, 38.07 32.49, 42.74 39.31 C47.4 46.12, 60.69 44.88, 65.96 40.37 C71.22 35.85, 72.83 20.16, 74.35 12.21 C75.87 4.26, 74.97 -4.08, 75.1 -7.33 M0 0 C1.34 5.83, 1.7 28.89, 8.05 35.01 C14.39 41.13, 33.09 42.64, 38.07 36.71 C43.05 30.79, 37.17 -0.97, 37.94 -0.54 C38.72 -0.11, 38.07 32.49, 42.74 39.31 C47.4 46.12, 60.69 44.88, 65.96 40.37 C71.22 35.85, 72.83 20.16, 74.35 12.21 C75.87 4.26, 74.97 -4.08, 75.1 -7.33" stroke="#000000" stroke-width="1" fill="none"></path></g></g><g transform="translate(110.01415284474683 221.00311787923783) rotate(0 73 10)"><text x="0" y="14" font-family="Virgil, Segoe UI Emoji" font-size="16px" fill="#000000" text-anchor="start" style="white-space: pre;" direction="ltr">doubles the letter</text></g></svg>