<svg version="1.1" xmlns="http://www.w3.org/2000/svg" viewBox="0 0 379 373" width="379" height="373" >
  <!-- svg-source:excalidraw -->
  
  <defs>
    <style>
      @font-face {
        font-family: "Virgil";
        src: url("../Virgil.woff2");;
      }
      
    </style>
  </defs>
  <rect x="0" y="0" width="379" height="373" fill="#ffffff"></rect><g stroke-linecap="round"><g transform="translate(204.79199213709921 118.63826681627779) rotate(0 6.392607014681857 12.329764705882098)"><path d="M0 0 C0.05 1.59, 0.26 5.6, 0.31 9.56 C0.36 13.53, -0.8 22.44, 0.31 23.8 C1.42 25.16, 3.9 19.05, 6.97 17.7 C10.05 16.35, 16.63 14.97, 18.75 15.71 C20.86 16.45, 21.87 20.68, 19.68 22.15 C17.5 23.62, 10.26 24.17, 5.62 24.54 C0.99 24.9, -5.83 24.36, -8.12 24.33 M0 0 C0.05 1.59, 0.26 5.6, 0.31 9.56 C0.36 13.53, -0.8 22.44, 0.31 23.8 C1.42 25.16, 3.9 19.05, 6.97 17.7 C10.05 16.35, 16.63 14.97, 18.75 15.71 C20.86 16.45, 21.87 20.68, 19.68 22.15 C17.5 23.62, 10.26 24.17, 5.62 24.54 C0.99 24.9, -5.83 24.36, -8.12 24.33" stroke="#000000" stroke-width="1" fill="none"></path></g></g><g stroke-linecap="round" transform="translate(10 10) rotate(0 179.5 176.5)"><path d="M0 0 C138.87 0, 277.73 0, 359 0 M0 0 C109.99 0, 219.99 0, 359 0 M359 0 C359 118.56, 359 237.12, 359 353 M359 0 C359 133.07, 359 266.15, 359 353 M359 353 C226.28 353, 93.57 353, 0 353 M359 353 C241.31 353, 123.63 353, 0 353 M0 353 C0 278.81, 0 204.61, 0 0 M0 353 C0 237.63, 0 122.26, 0 0" stroke="#000000" stroke-width="1" fill="none"></path></g><g transform="translate(49 39) rotate(0 6 13.5)"><text x="6" y="20" font-family="Virgil, Segoe UI Emoji" font-size="20px" fill="#000000" text-anchor="middle" style="white-space: pre;" direction="ltr">ठ</text></g><g transform="translate(324.5 42) rotate(0 11.5 12.5)"><text x="11.5" y="18" font-family="Virgil, Segoe UI Emoji" font-size="20px" fill="#000000" text-anchor="middle" style="white-space: pre;" direction="ltr">Ṭh</text></g><g transform="translate(298 299) rotate(0 27 15)"><text x="27" y="21" font-family="Virgil, Segoe UI Emoji" font-size="23.076923076923066px" fill="#000000" text-anchor="middle" style="white-space: pre;" direction="rtl">ٹھوکر</text></g><g transform="translate(187.5 297.75) rotate(0 17.5 16)"><text x="17.5" y="23" font-family="Virgil, Segoe UI Emoji" font-size="24.999999999999996px" fill="#000000" text-anchor="middle" style="white-space: pre;" direction="rtl">ـٹھـ</text></g><g transform="translate(51 295) rotate(0 18.5 19)"><text x="18.5" y="27" font-family="Virgil, Segoe UI Emoji" font-size="29.230769230769223px" fill="#000000" text-anchor="middle" style="white-space: pre;" direction="rtl">ـٹھ</text></g><g transform="translate(138.5 42.72728228569031) rotate(0 48.5 13)"><text x="48.5" y="19" font-family="Virgil, Segoe UI Emoji" font-size="20px" fill="#000000" text-anchor="middle" style="white-space: pre;" direction="rtl">ٹ+ھ = ٹھ</text></g><g transform="translate(295.9351814985275 330.8966397047043) rotate(0 26 10)"><text x="52" y="14" font-family="Virgil, Segoe UI Emoji" font-size="16px" fill="#000000" text-anchor="end" style="white-space: pre;" direction="ltr">thokar</text></g><g transform="translate(194.93518149852753 330.8966397047043) rotate(0 12 10)"><text x="24" y="14" font-family="Virgil, Segoe UI Emoji" font-size="16px" fill="#000000" text-anchor="end" style="white-space: pre;" direction="ltr">mid</text></g><g transform="translate(51.93518149852753 330.8966397047043) rotate(0 17.5 10)"><text x="35" y="14" font-family="Virgil, Segoe UI Emoji" font-size="16px" fill="#000000" text-anchor="end" style="white-space: pre;" direction="ltr">final</text></g><g stroke-linecap="round"><g transform="translate(143.30226741889192 196.55784201213464) rotate(0 -9.416610835967504 0.6904337789919737)"><path d="M0 0 C-2.33 -4.12, -13.7 -17.67, -13.98 -24.75 C-14.26 -31.83, -5.05 -42.41, -1.66 -42.48 C1.72 -42.55, 5.83 -32.72, 6.32 -25.16 C6.82 -17.6, 3.61 -5.02, 1.33 2.89 C-0.94 10.79, -7.32 15.47, -7.32 22.27 C-7.32 29.08, -1.44 42.21, 1.33 43.72 C4.11 45.23, 8.21 35.88, 9.32 31.35 C10.43 26.81, 9.43 21.52, 7.99 16.5 C6.55 11.48, 6.77 3.92, 0.67 1.24 C-5.44 -1.44, -23.75 0.55, -28.63 0.41 M0 0 C-2.33 -4.12, -13.7 -17.67, -13.98 -24.75 C-14.26 -31.83, -5.05 -42.41, -1.66 -42.48 C1.72 -42.55, 5.83 -32.72, 6.32 -25.16 C6.82 -17.6, 3.61 -5.02, 1.33 2.89 C-0.94 10.79, -7.32 15.47, -7.32 22.27 C-7.32 29.08, -1.44 42.21, 1.33 43.72 C4.11 45.23, 8.21 35.88, 9.32 31.35 C10.43 26.81, 9.43 21.52, 7.99 16.5 C6.55 11.48, 6.77 3.92, 0.67 1.24 C-5.44 -1.44, -23.75 0.55, -28.63 0.41" stroke="#000000" stroke-width="1" fill="none"></path></g></g><g stroke-linecap="round"><g transform="translate(213.18297606538454 158.09880273952513) rotate(0 -32.31826213381282 21.030619915084117)"><path d="M0 0 C-0.88 6.39, 5.69 31.49, -5.27 38.31 C-16.24 45.14, -55.7 40.51, -65.78 40.95 M0 0 C-0.88 6.39, 5.69 31.49, -5.27 38.31 C-16.24 45.14, -55.7 40.51, -65.78 40.95" stroke="#000000" stroke-width="1" fill="none"></path></g></g></svg>