<svg version="1.1" xmlns="http://www.w3.org/2000/svg" viewBox="0 0 379 373" width="379" height="373">
  <!-- svg-source:excalidraw -->
  
  <defs>
    <style>
      @font-face {
        font-family: "Virgil";
        src: url("https://excalidraw.com/Virgil.woff2");
      }
      @font-face {
        font-family: "Cascadia";
        src: url("https://excalidraw.com/Cascadia.woff2");
      }
    </style>
  </defs>
  <rect x="0" y="0" width="379" height="373" fill="#ffffff"></rect><g stroke-linecap="round" transform="translate(10 10) rotate(0 179.5 176.5)"><path d="M0 0 C137.19 0, 274.38 0, 359 0 M0 0 C90.83 0, 181.66 0, 359 0 M359 0 C359 109.48, 359 218.96, 359 353 M359 0 C359 112.05, 359 224.11, 359 353 M359 353 C283.24 353, 207.47 353, 0 353 M359 353 C280.95 353, 202.9 353, 0 353 M0 353 C0 224.72, 0 96.45, 0 0 M0 353 C0 219.57, 0 86.13, 0 0" stroke="#000000" stroke-width="1" fill="none"></path></g><g transform="translate(48.5 39) rotate(0 6.5 13.5)"><text x="6.5" y="20" font-family="Virgil, Segoe UI Emoji" font-size="20px" fill="#000000" text-anchor="middle" style="white-space: pre;" direction="ltr">त</text></g><g transform="translate(329.5 42) rotate(0 6.5 12.5)"><text x="6.5" y="18" font-family="Virgil, Segoe UI Emoji" font-size="20px" fill="#000000" text-anchor="middle" style="white-space: pre;" direction="ltr">Ṭ</text></g><g transform="translate(244.5 301) rotate(0 54.5 13)"><text x="54.5" y="19" font-family="Virgil, Segoe UI Emoji" font-size="20px" fill="#000000" text-anchor="middle" style="white-space: pre;" direction="rtl">طوطا/طیارہ</text></g><g transform="translate(158.5 300.75) rotate(0 21.5 13)"><text x="21.5" y="19" font-family="Virgil, Segoe UI Emoji" font-size="20px" fill="#000000" text-anchor="middle" style="white-space: pre;" direction="rtl">بطب</text></g><g transform="translate(41.5 300.4981818181823) rotate(0 16 13)"><text x="16" y="19" font-family="Virgil, Segoe UI Emoji" font-size="20px" fill="#000000" text-anchor="middle" style="white-space: pre;" direction="rtl">خط</text></g><g transform="translate(146 42.72728228569031) rotate(0 41 13)"><text x="41" y="19" font-family="Virgil, Segoe UI Emoji" font-size="20px" fill="#000000" text-anchor="middle" style="white-space: pre;" direction="ltr">Toye(ط)</text></g><g transform="translate(246.94766247272491 326.79078912734985) rotate(0 51 10)"><text x="102" y="14" font-family="Virgil, Segoe UI Emoji" font-size="16px" fill="#000000" text-anchor="end" style="white-space: pre;" direction="ltr">tayara/tota</text></g><g transform="translate(169.94766247272491 326.79078912734985) rotate(0 13 10)"><text x="26" y="14" font-family="Virgil, Segoe UI Emoji" font-size="16px" fill="#000000" text-anchor="end" style="white-space: pre;" direction="ltr">btb</text></g><g transform="translate(41.947662472724915 326.79078912734985) rotate(0 18 10)"><text x="36" y="14" font-family="Virgil, Segoe UI Emoji" font-size="16px" fill="#000000" text-anchor="end" style="white-space: pre;" direction="ltr">khat</text></g><g stroke-linecap="round"><g transform="translate(160.7883049175532 127.46130534109216) rotate(0 17.622904913765694 34.33525336234834)"><path d="M0 0 C0.14 4.44, 0.72 15.58, 0.86 26.62 C1 37.67, -2.2 62.49, 0.86 66.27 C3.92 70.04, 10.75 53.04, 19.22 49.29 C27.69 45.54, 45.84 41.69, 51.68 43.75 C57.52 45.81, 60.29 57.57, 54.26 61.66 C48.23 65.76, 28.28 67.31, 15.5 68.32 C2.73 69.33, -16.08 67.83, -22.39 67.73 M0 0 C0.14 4.44, 0.72 15.58, 0.86 26.62 C1 37.67, -2.2 62.49, 0.86 66.27 C3.92 70.04, 10.75 53.04, 19.22 49.29 C27.69 45.54, 45.84 41.69, 51.68 43.75 C57.52 45.81, 60.29 57.57, 54.26 61.66 C48.23 65.76, 28.28 67.31, 15.5 68.32 C2.73 69.33, -16.08 67.83, -22.39 67.73" stroke="#000000" stroke-width="1" fill="none"></path></g></g></svg>