<svg version="1.1" xmlns="http://www.w3.org/2000/svg" viewBox="0 0 379 373" width="379" height="373">
  <!-- svg-source:excalidraw -->
  
  <defs>
    <style>
      @font-face {
        font-family: "Virgil";
        src: url("../Virgil.woff2");;
      }
      
    </style>
  </defs>
  <rect x="0" y="0" width="379" height="373" fill="#ffffff"></rect><g stroke-linecap="round" transform="translate(10 10) rotate(0 179.5 176.5)"><path d="M0 0 C116.62 0, 233.25 0, 359 0 M0 0 C118.98 0, 237.96 0, 359 0 M359 0 C359 114.97, 359 229.94, 359 353 M359 0 C359 79.01, 359 158.01, 359 353 M359 353 C243.07 353, 127.14 353, 0 353 M359 353 C227.9 353, 96.79 353, 0 353 M0 353 C0 258.39, 0 163.77, 0 0 M0 353 C0 217.28, 0 81.56, 0 0" stroke="#000000" stroke-width="1" fill="none"></path></g><g transform="translate(49 39) rotate(0 6 13.5)"><text x="6" y="20" font-family="Virgil, Segoe UI Emoji" font-size="20px" fill="#000000" text-anchor="middle" style="white-space: pre;" direction="ltr">ट</text></g><g transform="translate(329.5 42) rotate(0 6.5 12.5)"><text x="6.5" y="18" font-family="Virgil, Segoe UI Emoji" font-size="20px" fill="#000000" text-anchor="middle" style="white-space: pre;" direction="ltr">Ṭ</text></g><g transform="translate(299 296) rotate(0 26 18)"><text x="26" y="26" font-family="Virgil, Segoe UI Emoji" font-size="28px" fill="#000000" text-anchor="middle" style="white-space: pre;" direction="rtl">ٹکٹ</text></g><g transform="translate(182.5 295.75) rotate(0 22.5 18)"><text x="22.5" y="26" font-family="Virgil, Segoe UI Emoji" font-size="28px" fill="#000000" text-anchor="middle" style="white-space: pre;" direction="rtl">بٹب</text></g><g transform="translate(44 295.4981818181823) rotate(0 26.5 18)"><text x="26.5" y="26" font-family="Virgil, Segoe UI Emoji" font-size="28px" fill="#000000" text-anchor="middle" style="white-space: pre;" direction="rtl">چاٹ</text></g><g transform="translate(141 42.72728228569031) rotate(0 46 13)"><text x="46" y="19" font-family="Virgil, Segoe UI Emoji" font-size="20px" fill="#000000" text-anchor="middle" style="white-space: pre;" direction="rtl">ت+ط= ٹ</text></g><g transform="translate(309.9476624727249 326.79078912734985) rotate(0 19.5 10)"><text x="39" y="14" font-family="Virgil, Segoe UI Emoji" font-size="16px" fill="#000000" text-anchor="end" style="white-space: pre;" direction="ltr">tiket</text></g><g transform="translate(194.94766247272491 326.79078912734985) rotate(0 13 10)"><text x="26" y="14" font-family="Virgil, Segoe UI Emoji" font-size="16px" fill="#000000" text-anchor="end" style="white-space: pre;" direction="ltr">btb</text></g><g transform="translate(50.947662472724915 326.79078912734985) rotate(0 18.5 10)"><text x="37" y="14" font-family="Virgil, Segoe UI Emoji" font-size="16px" fill="#000000" text-anchor="end" style="white-space: pre;" direction="ltr">chat</text></g><g stroke-linecap="round"><g transform="translate(93 203.5109964609146) rotate(0 83.5 0)"><path d="M0 0 C27.83 0, 139.17 0, 167 0 M0 0 C27.83 0, 139.17 0, 167 0" stroke="#000000" stroke-width="1" fill="none"></path></g></g><g stroke-linecap="round"><g transform="translate(158.5660826953308 116.35019422997993) rotate(0 17.622386490735266 34.329764705882326)"><path d="M0 0 C0.14 4.44, 0.72 15.58, 0.86 26.62 C1 37.67, -2.2 62.49, 0.86 66.27 C3.92 70.04, 10.75 53.04, 19.22 49.29 C27.69 45.54, 45.84 41.69, 51.68 43.75 C57.52 45.81, 60.29 57.57, 54.26 61.66 C48.23 65.76, 28.28 67.31, 15.5 68.32 C2.73 69.33, -16.08 67.83, -22.39 67.73 M0 0 C0.14 4.44, 0.72 15.58, 0.86 26.62 C1 37.67, -2.2 62.49, 0.86 66.27 C3.92 70.04, 10.75 53.04, 19.22 49.29 C27.69 45.54, 45.84 41.69, 51.68 43.75 C57.52 45.81, 60.29 57.57, 54.26 61.66 C48.23 65.76, 28.28 67.31, 15.5 68.32 C2.73 69.33, -16.08 67.83, -22.39 67.73" stroke="#000000" stroke-width="1" fill="none"></path></g></g></svg>