<svg version="1.1" xmlns="http://www.w3.org/2000/svg" viewBox="0 0 379 373" width="379" height="373">
  <!-- svg-source:excalidraw -->
  
  <defs>
    <style>
      @font-face {
        font-family: "Virgil";
        src: url("https://excalidraw.com/Virgil.woff2");
      }
      @font-face {
        font-family: "Cascadia";
        src: url("https://excalidraw.com/Cascadia.woff2");
      }
    </style>
  </defs>
  <rect x="0" y="0" width="379" height="373" fill="#ffffff"></rect><g stroke-linecap="round" transform="translate(10 10) rotate(0 179.5 176.5)"><path d="M0 0 C136.18 0, 272.36 0, 359 0 M0 0 C101.62 0, 203.25 0, 359 0 M359 0 C359 107.64, 359 215.28, 359 353 M359 0 C359 99.86, 359 199.73, 359 353 M359 353 C234.45 353, 109.9 353, 0 353 M359 353 C248.03 353, 137.06 353, 0 353 M0 353 C0 233.74, 0 114.49, 0 0 M0 353 C0 269.95, 0 186.9, 0 0" stroke="#000000" stroke-width="1" fill="none"></path></g><g transform="translate(31 39) rotate(0 24 15)"><text x="24" y="22" font-family="Virgil, Segoe UI Emoji" font-size="20px" fill="#000000" text-anchor="middle" style="white-space: pre;" direction="ltr">ऊ/uu</text></g><g transform="translate(281.3888888888878 42.277777777777374) rotate(0 41.5 11)"><text x="41.5" y="16" font-family="Virgil, Segoe UI Emoji" font-size="17.777777777778102px" fill="#000000" text-anchor="middle" style="white-space: pre;" direction="ltr">ulta-pesh</text></g><g transform="translate(308.99999999999955 299) rotate(0 16 15.5)"><text x="16" y="22" font-family="Virgil, Segoe UI Emoji" font-size="23.076923076923066px" fill="#000000" text-anchor="middle" style="white-space: pre;" direction="rtl">اوٗدا</text></g><g transform="translate(188.99999999999955 297.75) rotate(0 16 17.5)"><text x="16" y="24" font-family="Virgil, Segoe UI Emoji" font-size="24.999999999999996px" fill="#000000" text-anchor="middle" style="white-space: pre;" direction="rtl">دوٗر</text></g><g transform="translate(61 301) rotate(0 8.5 13.5)"><text x="8.5" y="19" font-family="Virgil, Segoe UI Emoji" font-size="20px" fill="#000000" text-anchor="middle" style="white-space: pre;" direction="rtl">روٗ</text></g><g transform="translate(139.99999999999955 42.72728228569031) rotate(0 47 13.5)"><text x="47" y="19" font-family="Virgil, Segoe UI Emoji" font-size="20px" fill="#000000" text-anchor="middle" style="white-space: pre;" direction="rtl">ا + وٗ = اوٗ</text></g><g transform="translate(297.9351814985271 330.8966397047043) rotate(0 20 10)"><text x="40" y="14" font-family="Virgil, Segoe UI Emoji" font-size="16px" fill="#000000" text-anchor="end" style="white-space: pre;" direction="ltr">uuda</text></g><g transform="translate(182.93518149852707 330.8966397047043) rotate(0 18 10)"><text x="36" y="14" font-family="Virgil, Segoe UI Emoji" font-size="16px" fill="#000000" text-anchor="end" style="white-space: pre;" direction="ltr">duur</text></g><g transform="translate(59.93518149852753 330.8966397047043) rotate(0 13.5 10)"><text x="27" y="14" font-family="Virgil, Segoe UI Emoji" font-size="16px" fill="#000000" text-anchor="end" style="white-space: pre;" direction="ltr">ruu</text></g><g stroke-linecap="round"><g transform="translate(122.64736295982084 186.38359961360402) rotate(179.62931685344796 59.62565669837261 0.4730059691646602)"><path d="M0 0 C19.88 0.16, 99.38 0.79, 119.25 0.95" stroke="#000000" stroke-width="1.5" fill="none" stroke-dasharray="1.5 7"></path></g></g><g stroke-linecap="round"><g transform="translate(188.85264581139563 146.388952451558) rotate(174.20344068996187 -4.035012518703866 -12.229410830876077)"><path d="M0 0 C4.16 -5.62, 21.8 -32.08, 24.96 -33.73 C28.13 -35.37, 24.78 -15.84, 18.99 -9.88 C13.21 -3.93, -0.88 -1.2, -9.76 2.01 C-18.63 5.22, -30.17 8.14, -34.25 9.37 M0 0 C4.16 -5.62, 21.8 -32.08, 24.96 -33.73 C28.13 -35.37, 24.78 -15.84, 18.99 -9.88 C13.21 -3.93, -0.88 -1.2, -9.76 2.01 C-18.63 5.22, -30.17 8.14, -34.25 9.37" stroke="#000000" stroke-width="1" fill="none"></path></g></g><g transform="translate(138.36683281642127 206.8240333322574) rotate(0 56 10)"><text x="0" y="14" font-family="Virgil, Segoe UI Emoji" font-size="16px" fill="#d9480f" text-anchor="start" style="white-space: pre;" direction="ltr">used with vao</text></g><g stroke-opacity="0.5" fill-opacity="0.5" stroke-linecap="round" transform="translate(135.41334160548377 207.7578712228824) rotate(0 58.486083984375 6.6656494140625)"><path d="M0 0 C0 0, 0 0, 0 0 M0 0 C0 0, 0 0, 0 0 M-0.26 6.4 C0.93 5.03, 2.12 3.65, 4.99 0.36 M-0.26 6.4 C1.44 4.44, 3.14 2.48, 4.99 0.36 M0.13 12.04 C2.83 8.93, 5.53 5.83, 10.63 -0.03 M0.13 12.04 C3.51 8.15, 6.9 4.26, 10.63 -0.03 M2.5 15.42 C5.65 11.8, 8.8 8.17, 15.62 0.33 M2.5 15.42 C6.91 10.35, 11.32 5.27, 15.62 0.33 M7.48 15.78 C12.62 9.87, 17.76 3.96, 21.26 -0.07 M7.48 15.78 C11.66 10.97, 15.84 6.16, 21.26 -0.07 M13.13 15.39 C16.23 11.81, 19.34 8.24, 26.25 0.29 M13.13 15.39 C17.7 10.12, 22.27 4.86, 26.25 0.29 M18.11 15.75 C22.28 10.95, 26.46 6.15, 31.89 -0.1 M18.11 15.75 C23.32 9.75, 28.53 3.76, 31.89 -0.1 M23.76 15.35 C26.88 11.76, 30.01 8.16, 36.88 0.26 M23.76 15.35 C27.36 11.21, 30.96 7.07, 36.88 0.26 M28.74 15.71 C31.68 12.34, 34.61 8.96, 42.52 -0.14 M28.74 15.71 C32.72 11.13, 36.7 6.56, 42.52 -0.14 M34.39 15.32 C37.08 12.21, 39.78 9.11, 47.51 0.22 M34.39 15.32 C37.48 11.75, 40.58 8.19, 47.51 0.22 M39.37 15.68 C43.64 10.76, 47.92 5.85, 53.15 -0.17 M39.37 15.68 C43.33 11.12, 47.29 6.57, 53.15 -0.17 M45.02 15.28 C48.18 11.64, 51.34 8, 58.14 0.19 M45.02 15.28 C49.8 9.78, 54.59 4.27, 58.14 0.19 M50 15.64 C53.33 11.81, 56.66 7.99, 63.78 -0.21 M50 15.64 C54.62 10.33, 59.23 5.03, 63.78 -0.21 M55.65 15.25 C60.73 9.4, 65.81 3.55, 68.77 0.15 M55.65 15.25 C58.3 12.2, 60.94 9.15, 68.77 0.15 M60.63 15.61 C64.7 10.93, 68.77 6.25, 74.41 -0.24 M60.63 15.61 C64.8 10.82, 68.96 6.03, 74.41 -0.24 M66.28 15.21 C69.26 11.78, 72.25 8.35, 79.4 0.12 M66.28 15.21 C70.18 10.72, 74.08 6.23, 79.4 0.12 M71.26 15.57 C76.77 9.24, 82.27 2.91, 85.04 -0.28 M71.26 15.57 C76.35 9.72, 81.44 3.87, 85.04 -0.28 M76.91 15.18 C80.65 10.87, 84.4 6.56, 90.03 0.08 M76.91 15.18 C79.68 11.99, 82.46 8.79, 90.03 0.08 M81.89 15.54 C86.36 10.4, 90.82 5.27, 95.67 -0.31 M81.89 15.54 C85 11.96, 88.11 8.39, 95.67 -0.31 M87.54 15.14 C90.5 11.74, 93.46 8.33, 100.66 0.05 M87.54 15.14 C91.64 10.42, 95.75 5.7, 100.66 0.05 M92.52 15.5 C96.36 11.09, 100.19 6.68, 106.3 -0.34 M92.52 15.5 C96.24 11.23, 99.96 6.95, 106.3 -0.34 M98.17 15.11 C101.49 11.28, 104.82 7.46, 111.29 0.02 M98.17 15.11 C103.15 9.37, 108.14 3.63, 111.29 0.02 M103.15 15.47 C107.26 10.75, 111.36 6.03, 116.27 0.38 M103.15 15.47 C105.91 12.3, 108.67 9.13, 116.27 0.38 M108.14 15.83 C111.85 11.56, 115.56 7.29, 119.95 2.24 M108.14 15.83 C110.52 13.1, 112.89 10.37, 119.95 2.24 M113.78 15.43 C115.66 13.27, 117.55 11.11, 119.69 8.64 M113.78 15.43 C115.34 13.64, 116.9 11.85, 119.69 8.64" stroke="#fd7e14" stroke-width="0.5" fill="none"></path><path d="M0 0 C40.29 0, 80.58 0, 116.97 0 M0 0 C41.36 0, 82.73 0, 116.97 0 M116.97 0 C116.97 4.98, 116.97 9.96, 116.97 13.33 M116.97 0 C116.97 3.98, 116.97 7.95, 116.97 13.33 M116.97 13.33 C92.7 13.33, 68.42 13.33, 0 13.33 M116.97 13.33 C91.67 13.33, 66.38 13.33, 0 13.33 M0 13.33 C0 9.09, 0 4.85, 0 0 M0 13.33 C0 10.53, 0 7.74, 0 0" stroke="#e67700" stroke-width="1" fill="none"></path></g></svg>