<svg version="1.1" xmlns="http://www.w3.org/2000/svg" viewBox="0 0 379 373" width="379" height="373">
  <!-- svg-source:excalidraw -->
  
  <defs>
    <style>
      @font-face {
        font-family: "Virgil";
        src: url("../Virgil.woff2");;
      }
      
    </style>
  </defs>
  <rect x="0" y="0" width="379" height="373" fill="#ffffff"></rect><g stroke-linecap="round" transform="translate(10 10) rotate(0 179.5 176.5)"><path d="M0 0 C136.18 0, 272.36 0, 359 0 M0 0 C101.62 0, 203.25 0, 359 0 M359 0 C359 107.64, 359 215.28, 359 353 M359 0 C359 99.86, 359 199.73, 359 353 M359 353 C234.45 353, 109.9 353, 0 353 M359 353 C248.03 353, 137.06 353, 0 353 M0 353 C0 233.74, 0 114.49, 0 0 M0 353 C0 269.95, 0 186.9, 0 0" stroke="#000000" stroke-width="1" fill="none"></path></g><g transform="translate(29 39) rotate(0 26 13.5)"><text x="26" y="20" font-family="Virgil, Segoe UI Emoji" font-size="20px" fill="#000000" text-anchor="middle" style="white-space: pre;" direction="ltr">ऊ/uu</text></g><g transform="translate(281.777777777776 42.277777777777374) rotate(0 41.11111111111177 11.111111111111313)"><text x="41.11111111111186" y="15.222222222222626" font-family="Virgil, Segoe UI Emoji" font-size="17.777777777778102px" fill="#000000" text-anchor="middle" style="white-space: pre;" direction="ltr">ulta-pesh</text></g><g transform="translate(307.49999999999955 299) rotate(0 17.5 15)"><text x="17.5" y="21" font-family="Virgil, Segoe UI Emoji" font-size="23.076923076923066px" fill="#000000" text-anchor="middle" style="white-space: pre;" direction="rtl">اوٗدا</text></g><g transform="translate(186.99999999999955 297.75) rotate(0 18 16)"><text x="18" y="23" font-family="Virgil, Segoe UI Emoji" font-size="24.999999999999996px" fill="#000000" text-anchor="middle" style="white-space: pre;" direction="rtl">دوٗر</text></g><g transform="translate(59.5 301) rotate(0 10 13)"><text x="10" y="19" font-family="Virgil, Segoe UI Emoji" font-size="20px" fill="#000000" text-anchor="middle" style="white-space: pre;" direction="rtl">روٗ</text></g><g transform="translate(138.99999999999955 42.72728228569031) rotate(0 48 13)"><text x="48" y="19" font-family="Virgil, Segoe UI Emoji" font-size="20px" fill="#000000" text-anchor="middle" style="white-space: pre;" direction="rtl">ا + وٗ = اوٗ</text></g><g transform="translate(298.9351814985271 330.8966397047043) rotate(0 19.5 10)"><text x="39" y="14" font-family="Virgil, Segoe UI Emoji" font-size="16px" fill="#000000" text-anchor="end" style="white-space: pre;" direction="ltr">uuda</text></g><g transform="translate(183.93518149852707 330.8966397047043) rotate(0 17.5 10)"><text x="35" y="14" font-family="Virgil, Segoe UI Emoji" font-size="16px" fill="#000000" text-anchor="end" style="white-space: pre;" direction="ltr">duur</text></g><g transform="translate(60.93518149852753 330.8966397047043) rotate(0 13 10)"><text x="26" y="14" font-family="Virgil, Segoe UI Emoji" font-size="16px" fill="#000000" text-anchor="end" style="white-space: pre;" direction="ltr">ruu</text></g><g stroke-linecap="round"><g transform="translate(122.64736295982084 186.38359961360402) rotate(179.62931685344796 59.62565669837261 0.4730059691646602)"><path d="M0 0 C19.88 0.16, 99.38 0.79, 119.25 0.95" stroke="#000000" stroke-width="1.5" fill="none" stroke-dasharray="1.5 7"></path></g></g><g stroke-linecap="round"><g transform="translate(188.85264581139563 146.388952451558) rotate(174.20344068996187 -4.035012518703866 -12.229410830876077)"><path d="M0 0 C4.16 -5.62, 21.8 -32.08, 24.96 -33.73 C28.13 -35.37, 24.78 -15.84, 18.99 -9.88 C13.21 -3.93, -0.88 -1.2, -9.76 2.01 C-18.63 5.22, -30.17 8.14, -34.25 9.37 M0 0 C4.16 -5.62, 21.8 -32.08, 24.96 -33.73 C28.13 -35.37, 24.78 -15.84, 18.99 -9.88 C13.21 -3.93, -0.88 -1.2, -9.76 2.01 C-18.63 5.22, -30.17 8.14, -34.25 9.37" stroke="#000000" stroke-width="1" fill="none"></path></g></g></svg>