<svg version="1.1" xmlns="http://www.w3.org/2000/svg" viewBox="0 0 379 373" width="379" height="373">
  <!-- svg-source:excalidraw -->
  
  <defs>
    <style>
      @font-face {
        font-family: "Virgil";
        src: url("https://excalidraw.com/Virgil.woff2");
      }
      @font-face {
        font-family: "Cascadia";
        src: url("https://excalidraw.com/Cascadia.woff2");
      }
    </style>
  </defs>
  <rect x="0" y="0" width="379" height="373" fill="#ffffff"></rect><g stroke-linecap="round" transform="translate(10 10) rotate(0 179.5 176.5)"><path d="M0 0 C77.76 0, 155.52 0, 359 0 M0 0 C132.53 0, 265.05 0, 359 0 M359 0 C359 110.28, 359 220.57, 359 353 M359 0 C359 95.53, 359 191.06, 359 353 M359 353 C226.94 353, 94.88 353, 0 353 M359 353 C278.21 353, 197.42 353, 0 353 M0 353 C0 275.77, 0 198.54, 0 0 M0 353 C0 261.47, 0 169.93, 0 0" stroke="#000000" stroke-width="1" fill="none"></path></g><g transform="translate(34 39) rotate(0 21 13.5)"><text x="21" y="20" font-family="Virgil, Segoe UI Emoji" font-size="20px" fill="#000000" text-anchor="middle" style="white-space: pre;" direction="ltr">व/ओ</text></g><g transform="translate(314 42) rotate(0 22 12.5)"><text x="22" y="18" font-family="Virgil, Segoe UI Emoji" font-size="20px" fill="#000000" text-anchor="middle" style="white-space: pre;" direction="ltr">V/oo</text></g><g transform="translate(310 299) rotate(0 15 15)"><text x="15" y="21" font-family="Virgil, Segoe UI Emoji" font-size="23.076923076923066px" fill="#000000" text-anchor="middle" style="white-space: pre;" direction="rtl">وار</text></g><g transform="translate(189 297.75) rotate(0 16 16)"><text x="16" y="23" font-family="Virgil, Segoe UI Emoji" font-size="24.999999999999996px" fill="#000000" text-anchor="middle" style="white-space: pre;" direction="rtl">اور</text></g><g transform="translate(55 295) rotate(0 14.5 19)"><text x="14.5" y="27" font-family="Virgil, Segoe UI Emoji" font-size="29.230769230769223px" fill="#000000" text-anchor="middle" style="white-space: pre;" direction="rtl">رو</text></g><g transform="translate(156.5 42.72728228569031) rotate(0 30.5 13)"><text x="30.5" y="19" font-family="Virgil, Segoe UI Emoji" font-size="20px" fill="#000000" text-anchor="middle" style="white-space: pre;" direction="ltr">vao(و)</text></g><g stroke-linecap="round"><g transform="translate(238.97761990693107 146.03724908828735) rotate(0 -46.90286586177024 55.793737294667835)"><path d="M0 0 C0.09 6.79, 3.09 27.18, 0.52 40.72 C-2.06 54.26, -6.33 71.01, -15.45 81.23 C-24.57 91.44, -40.88 96.95, -54.2 102.01 C-67.52 107.07, -88.5 109.99, -95.36 111.59 M0 0 C0.09 6.79, 3.09 27.18, 0.52 40.72 C-2.06 54.26, -6.33 71.01, -15.45 81.23 C-24.57 91.44, -40.88 96.95, -54.2 102.01 C-67.52 107.07, -88.5 109.99, -95.36 111.59" stroke="#000000" stroke-width="1" fill="none"></path></g></g><g stroke-linecap="round" transform="translate(179.5 130.5) rotate(0 30.5 28.5)"><path d="M7.14 10.18 C7.14 10.18, 7.14 10.18, 7.14 10.18 M7.14 10.18 C7.14 10.18, 7.14 10.18, 7.14 10.18 M0.97 23.37 C6.06 17.51, 11.16 11.65, 16.72 5.26 M0.97 23.37 C5.16 18.55, 9.36 13.72, 16.72 5.26 M0.71 29.77 C8.6 20.68, 16.5 11.6, 25.64 1.09 M0.71 29.77 C6.07 23.6, 11.44 17.43, 25.64 1.09 M1.76 34.66 C10.05 25.12, 18.33 15.59, 31.28 0.69 M1.76 34.66 C10.69 24.38, 19.63 14.1, 31.28 0.69 M2.81 39.54 C11.77 29.24, 20.73 18.93, 36.27 1.05 M2.81 39.54 C9.71 31.61, 16.61 23.67, 36.27 1.05 M4.52 43.68 C15.34 31.22, 26.17 18.77, 41.26 1.41 M4.52 43.68 C17.5 28.74, 30.48 13.81, 41.26 1.41 M7.54 46.3 C22.1 29.55, 36.66 12.79, 44.93 3.28 M7.54 46.3 C19.66 32.36, 31.77 18.42, 44.93 3.28 M9.9 49.68 C22.76 34.88, 35.63 20.08, 47.95 5.91 M9.9 49.68 C23.39 34.17, 36.87 18.65, 47.95 5.91 M12.92 52.3 C25.75 37.54, 38.59 22.78, 51.63 7.78 M12.92 52.3 C26.06 37.19, 39.2 22.07, 51.63 7.78 M16.59 54.17 C28.5 40.48, 40.4 26.78, 54.64 10.4 M16.59 54.17 C29.41 39.43, 42.23 24.69, 54.64 10.4 M20.27 56.04 C28.48 46.59, 36.7 37.14, 57.01 13.78 M20.27 56.04 C33.82 40.45, 47.38 24.86, 57.01 13.78 M24.6 57.16 C37.03 42.86, 49.47 28.55, 60.03 16.4 M24.6 57.16 C36.18 43.83, 47.77 30.51, 60.03 16.4 M28.27 59.03 C40.81 44.61, 53.35 30.19, 61.73 20.54 M28.27 59.03 C40.78 44.64, 53.28 30.26, 61.73 20.54 M33.26 59.39 C42.52 48.73, 51.79 38.07, 62.78 25.43 M33.26 59.39 C40.54 51.01, 47.82 42.64, 62.78 25.43 M41.53 55.97 C48.64 47.8, 55.75 39.62, 60.55 34.09 M41.53 55.97 C46.49 50.27, 51.45 44.56, 60.55 34.09" stroke="#fff" stroke-width="0.5" fill="none"></path><path d="M61 28.5 C61 30.15, 60.84 31.82, 60.54 33.45 C60.23 35.07, 59.76 36.7, 59.16 38.25 C58.56 39.8, 57.8 41.32, 56.91 42.75 C56.03 44.18, 55 45.56, 53.86 46.82 C52.73 48.08, 51.46 49.27, 50.11 50.33 C48.75 51.39, 47.28 52.36, 45.75 53.18 C44.22 54.01, 42.59 54.72, 40.93 55.28 C39.27 55.85, 37.53 56.28, 35.8 56.57 C34.06 56.85, 32.27 57, 30.5 57 C28.73 57, 26.94 56.85, 25.2 56.57 C23.47 56.28, 21.73 55.85, 20.07 55.28 C18.41 54.72, 16.78 54.01, 15.25 53.18 C13.72 52.36, 12.25 51.39, 10.89 50.33 C9.54 49.27, 8.27 48.08, 7.14 46.82 C6 45.56, 4.97 44.18, 4.09 42.75 C3.2 41.32, 2.44 39.8, 1.84 38.25 C1.24 36.7, 0.77 35.07, 0.46 33.45 C0.16 31.82, 0 30.15, 0 28.5 C0 26.85, 0.16 25.18, 0.46 23.55 C0.77 21.93, 1.24 20.3, 1.84 18.75 C2.44 17.2, 3.2 15.68, 4.09 14.25 C4.97 12.82, 6 11.44, 7.14 10.18 C8.27 8.92, 9.54 7.73, 10.89 6.67 C12.25 5.61, 13.72 4.64, 15.25 3.82 C16.78 2.99, 18.41 2.28, 20.07 1.72 C21.73 1.15, 23.47 0.72, 25.2 0.43 C26.94 0.15, 28.73 0, 30.5 0 C32.27 0, 34.06 0.15, 35.8 0.43 C37.53 0.72, 39.27 1.15, 40.93 1.72 C42.59 2.28, 44.22 2.99, 45.75 3.82 C47.28 4.64, 48.75 5.61, 50.11 6.67 C51.46 7.73, 52.73 8.92, 53.86 10.18 C55 11.44, 56.03 12.82, 56.91 14.25 C57.8 15.68, 58.56 17.2, 59.16 18.75 C59.76 20.3, 60.23 21.93, 60.54 23.55 C60.84 25.18, 60.92 27.68, 61 28.5 C61.08 29.32, 61.08 27.68, 61 28.5" stroke="#000000" stroke-width="1" fill="none"></path></g><g transform="translate(312.41058373451233 329.3663375377655) rotate(0 13.5 10)"><text x="27" y="14" font-family="Virgil, Segoe UI Emoji" font-size="16px" fill="#000000" text-anchor="end" style="white-space: pre;" direction="ltr">var</text></g><g transform="translate(192.41058373451233 329.3663375377655) rotate(0 13 10)"><text x="26" y="14" font-family="Virgil, Segoe UI Emoji" font-size="16px" fill="#000000" text-anchor="end" style="white-space: pre;" direction="ltr">oor</text></g><g transform="translate(59.41058373451233 329.3663375377655) rotate(0 13 10)"><text x="26" y="14" font-family="Virgil, Segoe UI Emoji" font-size="16px" fill="#000000" text-anchor="end" style="white-space: pre;" direction="ltr">roo</text></g></svg>