<svg version="1.1" xmlns="http://www.w3.org/2000/svg" viewBox="0 0 379 373" width="379" height="373">
  <!-- svg-source:excalidraw -->
  
  <defs>
    <style>
      @font-face {
        font-family: "Virgil";
        src: url("https://excalidraw.com/Virgil.woff2");
      }
      @font-face {
        font-family: "Cascadia";
        src: url("https://excalidraw.com/Cascadia.woff2");
      }
    </style>
  </defs>
  <rect x="0" y="0" width="379" height="373" fill="#ffffff"></rect><g stroke-linecap="round" transform="translate(10 10) rotate(0 179.5 176.5)"><path d="M0 0 C74.48 0, 148.95 0, 359 0 M0 0 C92.71 0, 185.42 0, 359 0 M359 0 C359 109.41, 359 218.82, 359 353 M359 0 C359 72.17, 359 144.34, 359 353 M359 353 C282.23 353, 205.47 353, 0 353 M359 353 C230.89 353, 102.79 353, 0 353 M0 353 C0 248.11, 0 143.22, 0 0 M0 353 C0 277.91, 0 202.83, 0 0" stroke="#000000" stroke-width="1" fill="none"></path></g><g transform="translate(47 39) rotate(0 8 13.5)"><text x="8" y="20" font-family="Virgil, Segoe UI Emoji" font-size="20px" fill="#000000" text-anchor="middle" style="white-space: pre;" direction="ltr">अ</text></g><g transform="translate(305 42) rotate(0 31 12.5)"><text x="31" y="18" font-family="Virgil, Segoe UI Emoji" font-size="20px" fill="#000000" text-anchor="middle" style="white-space: pre;" direction="ltr">Zabar</text></g><g transform="translate(310.5 299) rotate(0 14.5 15)"><text x="14.5" y="21" font-family="Virgil, Segoe UI Emoji" font-size="23.076923076923066px" fill="#000000" text-anchor="middle" style="white-space: pre;" direction="rtl">اَب</text></g><g transform="translate(186.5 297.75) rotate(0 18.5 16)"><text x="18.5" y="23" font-family="Virgil, Segoe UI Emoji" font-size="24.999999999999996px" fill="#000000" text-anchor="middle" style="white-space: pre;" direction="rtl">دَادَا</text></g><g transform="translate(49 301) rotate(0 20.5 13)"><text x="20.5" y="19" font-family="Virgil, Segoe UI Emoji" font-size="20px" fill="#000000" text-anchor="middle" style="white-space: pre;" direction="rtl">وَازَن</text></g><g transform="translate(150.5 42.72728228569031) rotate(0 36.5 13)"><text x="36.5" y="19" font-family="Virgil, Segoe UI Emoji" font-size="20px" fill="#000000" text-anchor="middle" style="white-space: pre;" direction="rtl">ا + َ = اَ</text></g><g transform="translate(317.9351814985275 330.8966397047043) rotate(0 10 10)"><text x="20" y="14" font-family="Virgil, Segoe UI Emoji" font-size="16px" fill="#000000" text-anchor="end" style="white-space: pre;" direction="ltr">ab</text></g><g transform="translate(177.93518149852753 330.8966397047043) rotate(0 20.5 10)"><text x="41" y="14" font-family="Virgil, Segoe UI Emoji" font-size="16px" fill="#000000" text-anchor="end" style="white-space: pre;" direction="ltr">dada</text></g><g transform="translate(43.93518149852753 330.8966397047043) rotate(0 21.5 10)"><text x="43" y="14" font-family="Virgil, Segoe UI Emoji" font-size="16px" fill="#000000" text-anchor="end" style="white-space: pre;" direction="ltr">vajan</text></g><g stroke-linecap="round"><g transform="translate(122.6473629598213 187.4947107247117) rotate(179.62931685344796 59.62565669837261 0.4730059691646602)"><path d="M0 0 C19.88 0.16, 99.38 0.79, 119.25 0.95" stroke="#000000" stroke-width="1.5" fill="none" stroke-dasharray="1.5 7"></path></g></g><g stroke-linecap="round"><g transform="translate(204.54900801458984 127.67987001263646) rotate(4.93921554212618 -25.387099467506914 13.52471691710798)"><path d="M0 0 C-8.46 4.51, -42.31 22.54, -50.77 27.05 M0 0 C-8.46 4.51, -42.31 22.54, -50.77 27.05" stroke="#000000" stroke-width="1" fill="none"></path></g></g></svg>