<svg version="1.1" xmlns="http://www.w3.org/2000/svg" viewBox="0 0 376.33819580078125 369.29911295572947" width="376.33819580078125" height="369.29911295572947">
  <!-- svg-source:excalidraw -->
  
  <defs>
    <style>
      @font-face {
        font-family: "Virgil";
        src: url("https://excalidraw.com/Virgil.woff2");
      }
      @font-face {
        font-family: "Cascadia";
        src: url("https://excalidraw.com/Cascadia.woff2");
      }
    </style>
  </defs>
  <rect x="0" y="0" width="376.33819580078125" height="369.29911295572947" fill="#ffffff"></rect><g stroke-linecap="round" transform="translate(10.962236434705574 10) rotate(0 176.90300835503467 174.64955647786473)"><path d="M0 0 C95.51 0, 191.02 0, 353.81 0 M0 0 C75.36 0, 150.73 0, 353.81 0 M353.81 0 C353.81 79.32, 353.81 158.64, 353.81 349.3 M353.81 0 C353.81 105.73, 353.81 211.45, 353.81 349.3 M353.81 349.3 C276.64 349.3, 199.47 349.3, 0 349.3 M353.81 349.3 C232.02 349.3, 110.24 349.3, 0 349.3 M0 349.3 C0 265.59, 0 181.88, 0 0 M0 349.3 C0 214.21, 0 79.11, 0 0" stroke="#000000" stroke-width="1" fill="none"></path></g><g transform="translate(269.35223751977446 48.56007215711816) rotate(0 18 19.5)"><text x="0" y="27" font-family="Virgil, Segoe UI Emoji" font-size="28px" fill="#000000" text-anchor="end" style="white-space: pre;" direction="rtl">اِس</text></g><g transform="translate(119.2411264086636 53.393405490452096) rotate(0 18 19.5)"><text x="0" y="27" font-family="Virgil, Segoe UI Emoji" font-size="28px" fill="#000000" text-anchor="end" style="white-space: pre;" direction="rtl">اُس</text></g><g transform="translate(261.79668196421926 83.11562771267381) rotate(0 30 10)"><text x="0" y="14" font-family="Virgil, Segoe UI Emoji" font-size="16px" fill="#d9480f" text-anchor="start" style="white-space: pre;" direction="ltr">iss/this</text></g><g transform="translate(112.2411264086636 86.17118326822947) rotate(0 36.5 10)"><text x="0" y="14" font-family="Virgil, Segoe UI Emoji" font-size="16px" fill="#d9480f" text-anchor="start" style="white-space: pre;" direction="ltr">uss/that</text></g><g transform="translate(126.2411264086636 114.33784993489644) rotate(0 12.5 19.5)"><text x="0" y="27" font-family="Virgil, Segoe UI Emoji" font-size="28px" fill="#000000" text-anchor="end" style="white-space: pre;" direction="rtl">اُن</text></g><g transform="translate(276.9376867385249 117.32364908854288) rotate(0 12.5 19.5)"><text x="0" y="27" font-family="Virgil, Segoe UI Emoji" font-size="28px" fill="#000000" text-anchor="end" style="white-space: pre;" direction="rtl">اِن</text></g><g transform="translate(253.90779307533012 152.44896104600775) rotate(0 36 10)"><text x="0" y="14" font-family="Virgil, Segoe UI Emoji" font-size="16px" fill="#d9480f" text-anchor="start" style="white-space: pre;" direction="ltr">inn/these</text></g><g transform="translate(105.57445974199709 150.6156277126738) rotate(0 38.5 10)"><text x="0" y="14" font-family="Virgil, Segoe UI Emoji" font-size="16px" fill="#d9480f" text-anchor="start" style="white-space: pre;" direction="ltr">unn/those</text></g><g transform="translate(277.79668196421926 180.22673882378513) rotate(0 12.5 19.5)"><text x="0" y="27" font-family="Virgil, Segoe UI Emoji" font-size="28px" fill="#000000" text-anchor="end" style="white-space: pre;" direction="rtl">بَن</text></g><g transform="translate(160.6504146031084 179.4833713107646) rotate(0 12.5 19.5)"><text x="0" y="27" font-family="Virgil, Segoe UI Emoji" font-size="28px" fill="#000000" text-anchor="end" style="white-space: pre;" direction="rtl">بِن</text></g><g transform="translate(48.78783864824618 178.64264594184078) rotate(0 12.5 19.5)"><text x="0" y="27" font-family="Virgil, Segoe UI Emoji" font-size="28px" fill="#000000" text-anchor="end" style="white-space: pre;" direction="rtl">بُن</text></g><g transform="translate(33.53813704234426 211.43218315972354) rotate(0 38 10)"><text x="0" y="14" font-family="Virgil, Segoe UI Emoji" font-size="16px" fill="#d9480f" text-anchor="start" style="white-space: pre;" direction="ltr">bun/coffe</text></g><g transform="translate(137.19685557533012 217.38524034288275) rotate(0 43 10)"><text x="0" y="14" font-family="Virgil, Segoe UI Emoji" font-size="16px" fill="#d9480f" text-anchor="start" style="white-space: pre;" direction="ltr">bin/without</text></g><g transform="translate(259.9077930753301 215.06007215711816) rotate(0 39.5 10)"><text x="0" y="14" font-family="Virgil, Segoe UI Emoji" font-size="16px" fill="#d9480f" text-anchor="start" style="white-space: pre;" direction="ltr">ban/jungle</text></g><g transform="translate(283.35223751977446 244.67118326822947) rotate(0 20.5 19.5)"><text x="0" y="27" font-family="Virgil, Segoe UI Emoji" font-size="28px" fill="#000000" text-anchor="end" style="white-space: pre;" direction="rtl">مَلک</text></g><g transform="translate(145.51985362220512 241.795654296875) rotate(0 20.5 19.5)"><text x="0" y="27" font-family="Virgil, Segoe UI Emoji" font-size="28px" fill="#000000" text-anchor="end" style="white-space: pre;" direction="rtl">مِلک</text></g><g transform="translate(24.29358951630229 242.36518012152828) rotate(0 20.5 19.5)"><text x="0" y="27" font-family="Virgil, Segoe UI Emoji" font-size="28px" fill="#000000" text-anchor="end" style="white-space: pre;" direction="rtl">مُلک</text></g><g transform="translate(24.70708235484426 275.75587293836907) rotate(0 49 10)"><text x="0" y="14" font-family="Virgil, Segoe UI Emoji" font-size="16px" fill="#d9480f" text-anchor="start" style="white-space: pre;" direction="ltr">mulk/country</text></g><g transform="translate(137.0129363044971 280.0980495876738) rotate(0 59 10)"><text x="0" y="14" font-family="Virgil, Segoe UI Emoji" font-size="16px" fill="#d9480f" text-anchor="start" style="white-space: pre;" direction="ltr">milk/inheritance</text></g><g transform="translate(271.68557085310795 280.06007215711816) rotate(0 41 10)"><text x="0" y="14" font-family="Virgil, Segoe UI Emoji" font-size="16px" fill="#d9480f" text-anchor="start" style="white-space: pre;" direction="ltr">malk/angel</text></g><g transform="translate(140.01890418644143 22.83784993489644) rotate(0 59.5 10)"><text x="0" y="14" font-family="Virgil, Segoe UI Emoji" font-size="16px" fill="#d9480f" text-anchor="start" style="white-space: pre;" direction="ltr">zer-zabar-pesh</text></g><g stroke-linecap="round"><g stroke-opacity="0.7" fill-opacity="0.7" transform="translate(10 312.1870562840986) rotate(0 178.16909790039062 -0.000019073486328125)"><path d="M0 0 C59.39 0, 296.95 0, 356.34 0 M0 0 C59.39 0, 296.95 0, 356.34 0" stroke="#000000" stroke-width="1" fill="none"></path></g></g><g stroke-opacity="0.7" fill-opacity="0.7" transform="translate(46.929618472152015 323.5799134269564) rotate(0 143.5 12.500000000000455)"><text x="143.5" y="18" font-family="Virgil, Segoe UI Emoji" font-size="20px" fill="#000000" text-anchor="middle" style="white-space: pre;" direction="ltr">Note: focus on the diacritics</text></g></svg>