<svg version="1.1" xmlns="http://www.w3.org/2000/svg" viewBox="0 0 379 373" width="379" height="373">
  <!-- svg-source:excalidraw -->
  
  <defs>
    <style>
      @font-face {
        font-family: "Virgil";
        src: url("../Virgil.woff2");;
      }
      
    </style>
  </defs>
  <rect x="0" y="0" width="379" height="373" fill="#ffffff"></rect><g stroke-linecap="round" transform="translate(10 10) rotate(0 179.5 176.5)"><path d="M0 0 C98.32 0, 196.65 0, 359 0 M0 0 C85.39 0, 170.79 0, 359 0 M359 0 C359 130.9, 359 261.81, 359 353 M359 0 C359 96.68, 359 193.36, 359 353 M359 353 C262.74 353, 166.48 353, 0 353 M359 353 C230.02 353, 101.04 353, 0 353 M0 353 C0 265.31, 0 177.61, 0 0 M0 353 C0 266.7, 0 180.41, 0 0" stroke="#000000" stroke-width="1" fill="none"></path></g><g transform="translate(42.5 39) rotate(0 12.5 13.5)"><text x="12.5" y="20" font-family="Virgil, Segoe UI Emoji" font-size="20px" fill="#000000" text-anchor="middle" style="white-space: pre;" direction="ltr">इ/i</text></g><g transform="translate(319.99999999999955 42) rotate(0 16 12.5)"><text x="16" y="18" font-family="Virgil, Segoe UI Emoji" font-size="20px" fill="#000000" text-anchor="middle" style="white-space: pre;" direction="ltr">zer</text></g><g transform="translate(310.99999999999955 298.9999999999982) rotate(0 14 15)"><text x="14" y="21" font-family="Virgil, Segoe UI Emoji" font-size="23.076923076923066px" fill="#000000" text-anchor="middle" style="white-space: pre;" direction="rtl">دِل</text></g><g transform="translate(192.49999999999955 297.7499999999982) rotate(0 12.5 16)"><text x="12.5" y="23" font-family="Virgil, Segoe UI Emoji" font-size="24.999999999999996px" fill="#000000" text-anchor="middle" style="white-space: pre;" direction="rtl">پِ</text></g><g transform="translate(62.5 300.9999999999982) rotate(0 7 13)"><text x="7" y="19" font-family="Virgil, Segoe UI Emoji" font-size="20px" fill="#000000" text-anchor="middle" style="white-space: pre;" direction="rtl">چِ</text></g><g transform="translate(150.49999999999955 42.72728228569031) rotate(0 36.5 13)"><text x="36.5" y="19" font-family="Virgil, Segoe UI Emoji" font-size="20px" fill="#000000" text-anchor="middle" style="white-space: pre;" direction="rtl">ا + ِ = اِ</text></g><g transform="translate(319.9351814985271 330.89663970470247) rotate(0 9 10)"><text x="18" y="14" font-family="Virgil, Segoe UI Emoji" font-size="16px" fill="#000000" text-anchor="end" style="white-space: pre;" direction="ltr">dil</text></g><g transform="translate(206.93518149852707 330.89663970470247) rotate(0 6 10)"><text x="12" y="14" font-family="Virgil, Segoe UI Emoji" font-size="16px" fill="#000000" text-anchor="end" style="white-space: pre;" direction="ltr">pi</text></g><g transform="translate(66.93518149852753 330.89663970470247) rotate(0 10 10)"><text x="20" y="14" font-family="Virgil, Segoe UI Emoji" font-size="16px" fill="#000000" text-anchor="end" style="white-space: pre;" direction="ltr">chi</text></g><g stroke-linecap="round"><g transform="translate(122.64736295982118 186.3835996136022) rotate(179.62931685344796 59.625656698372666 0.4730059691646602)"><path d="M0 0 C19.88 0.16, 99.38 0.79, 119.25 0.95" stroke="#000000" stroke-width="1.5" fill="none" stroke-dasharray="1.5 7"></path></g></g><g stroke-linecap="round"><g transform="translate(212.32678579236745 205.45764779041565) rotate(4.93921554212618 -25.387099467506914 13.52471691710798)"><path d="M0 0 C-8.46 4.51, -42.31 22.54, -50.77 27.05 M0 0 C-8.46 4.51, -42.31 22.54, -50.77 27.05" stroke="#000000" stroke-width="1" fill="none"></path></g></g></svg>