<svg version="1.1" xmlns="http://www.w3.org/2000/svg" viewBox="0 0 379 373" width="379" height="373">
  <!-- svg-source:excalidraw -->
  
  <defs>
    <style>
      @font-face {
        font-family: "Virgil";
        src: url("../Virgil.woff2");;
      }
      
    </style>
  </defs>
  <rect x="0" y="0" width="379" height="373" fill="#ffffff"></rect><g stroke-linecap="round" transform="translate(10 10) rotate(0 179.5 176.5)"><path d="M0 0 C127.37 0, 254.74 0, 359 0 M0 0 C130.25 0, 260.5 0, 359 0 M359 0 C359 141.01, 359 282.02, 359 353 M359 0 C359 93.47, 359 186.95, 359 353 M359 353 C256.06 353, 153.12 353, 0 353 M359 353 C226.67 353, 94.34 353, 0 353 M0 353 C0 217.77, 0 82.53, 0 0 M0 353 C0 232.95, 0 112.89, 0 0" stroke="#000000" stroke-width="1" fill="none"></path></g><g transform="translate(47.5 39) rotate(0 7.5 13.5)"><text x="7.5" y="20" font-family="Virgil, Segoe UI Emoji" font-size="20px" fill="#000000" text-anchor="middle" style="white-space: pre;" direction="ltr">ज़</text></g><g transform="translate(327.5 42) rotate(0 8.5 12.5)"><text x="8.5" y="18" font-family="Virgil, Segoe UI Emoji" font-size="20px" fill="#000000" text-anchor="middle" style="white-space: pre;" direction="ltr">Z</text></g><g transform="translate(301.5 301) rotate(0 23.5 13)"><text x="23.5" y="19" font-family="Virgil, Segoe UI Emoji" font-size="20px" fill="#000000" text-anchor="middle" style="white-space: pre;" direction="rtl">ظلم </text></g><g transform="translate(187 300.75) rotate(0 18 13)"><text x="18" y="19" font-family="Virgil, Segoe UI Emoji" font-size="20px" fill="#000000" text-anchor="middle" style="white-space: pre;" direction="rtl">نظم</text></g><g transform="translate(31.5 300.4981818181841) rotate(0 39 13)"><text x="39" y="19" font-family="Virgil, Segoe UI Emoji" font-size="20px" fill="#000000" text-anchor="middle" style="white-space: pre;" direction="rtl">حظ/لفظ</text></g><g transform="translate(146 42.72728228569031) rotate(0 41 13)"><text x="41" y="19" font-family="Virgil, Segoe UI Emoji" font-size="20px" fill="#000000" text-anchor="middle" style="white-space: pre;" direction="ltr">Zoye(ظ)</text></g><g transform="translate(306.9476624727249 326.79078912734985) rotate(0 21 10)"><text x="42" y="14" font-family="Virgil, Segoe UI Emoji" font-size="16px" fill="#000000" text-anchor="end" style="white-space: pre;" direction="ltr"> zulm</text></g><g transform="translate(182.94766247272491 326.79078912734985) rotate(0 19 10)"><text x="38" y="14" font-family="Virgil, Segoe UI Emoji" font-size="16px" fill="#000000" text-anchor="end" style="white-space: pre;" direction="ltr">nazm</text></g><g transform="translate(33.947662472724915 326.79078912734985) rotate(0 34.5 10)"><text x="69" y="14" font-family="Virgil, Segoe UI Emoji" font-size="16px" fill="#000000" text-anchor="end" style="white-space: pre;" direction="ltr">lafz/haz</text></g><g stroke-linecap="round"><g transform="translate(160.7883049175532 127.46130534109398) rotate(0 17.62290491376575 34.33525336234834)"><path d="M0 0 C0.14 4.44, 0.72 15.58, 0.86 26.62 C1 37.67, -2.2 62.49, 0.86 66.27 C3.92 70.04, 10.75 53.04, 19.22 49.29 C27.69 45.54, 45.84 41.69, 51.68 43.75 C57.52 45.81, 60.29 57.57, 54.26 61.66 C48.23 65.76, 28.28 67.31, 15.5 68.32 C2.73 69.33, -16.08 67.83, -22.39 67.73 M0 0 C0.14 4.44, 0.72 15.58, 0.86 26.62 C1 37.67, -2.2 62.49, 0.86 66.27 C3.92 70.04, 10.75 53.04, 19.22 49.29 C27.69 45.54, 45.84 41.69, 51.68 43.75 C57.52 45.81, 60.29 57.57, 54.26 61.66 C48.23 65.76, 28.28 67.31, 15.5 68.32 C2.73 69.33, -16.08 67.83, -22.39 67.73" stroke="#000000" stroke-width="1" fill="none"></path></g></g><g stroke-linecap="round" transform="translate(181.22222222222172 148.80449750688604) rotate(304.5524875944234 5.5 5.5)"><path d="M11 5.5 C11 5.82, 10.97 6.14, 10.92 6.46 C10.86 6.77, 10.78 7.08, 10.67 7.38 C10.56 7.68, 10.42 7.97, 10.26 8.25 C10.1 8.53, 9.92 8.79, 9.71 9.04 C9.51 9.28, 9.28 9.51, 9.04 9.71 C8.79 9.92, 8.53 10.1, 8.25 10.26 C7.97 10.42, 7.68 10.56, 7.38 10.67 C7.08 10.78, 6.77 10.86, 6.46 10.92 C6.14 10.97, 5.82 11, 5.5 11 C5.18 11, 4.86 10.97, 4.54 10.92 C4.23 10.86, 3.92 10.78, 3.62 10.67 C3.32 10.56, 3.03 10.42, 2.75 10.26 C2.47 10.1, 2.21 9.92, 1.96 9.71 C1.72 9.51, 1.49 9.28, 1.29 9.04 C1.08 8.79, 0.9 8.53, 0.74 8.25 C0.58 7.97, 0.44 7.68, 0.33 7.38 C0.22 7.08, 0.14 6.77, 0.08 6.46 C0.03 6.14, 0 5.82, 0 5.5 C0 5.18, 0.03 4.86, 0.08 4.54 C0.14 4.23, 0.22 3.92, 0.33 3.62 C0.44 3.32, 0.58 3.03, 0.74 2.75 C0.9 2.47, 1.08 2.21, 1.29 1.96 C1.49 1.72, 1.72 1.49, 1.96 1.29 C2.21 1.08, 2.47 0.9, 2.75 0.74 C3.03 0.58, 3.32 0.44, 3.62 0.33 C3.92 0.22, 4.23 0.14, 4.54 0.08 C4.86 0.03, 5.18 0, 5.5 0 C5.82 0, 6.14 0.03, 6.46 0.08 C6.77 0.14, 7.08 0.22, 7.38 0.33 C7.68 0.44, 7.97 0.58, 8.25 0.74 C8.53 0.9, 8.79 1.08, 9.04 1.29 C9.28 1.49, 9.51 1.72, 9.71 1.96 C9.92 2.21, 10.1 2.47, 10.26 2.75 C10.42 3.03, 10.56 3.32, 10.67 3.62 C10.78 3.92, 10.86 4.23, 10.92 4.54 C10.97 4.86, 10.99 5.34, 11 5.5 C11.01 5.66, 11.01 5.34, 11 5.5" stroke="none" stroke-width="0" fill="#fd7e14"></path><path d="M11 5.5 C11 5.82, 10.97 6.14, 10.92 6.46 C10.86 6.77, 10.78 7.08, 10.67 7.38 C10.56 7.68, 10.42 7.97, 10.26 8.25 C10.1 8.53, 9.92 8.79, 9.71 9.04 C9.51 9.28, 9.28 9.51, 9.04 9.71 C8.79 9.92, 8.53 10.1, 8.25 10.26 C7.97 10.42, 7.68 10.56, 7.38 10.67 C7.08 10.78, 6.77 10.86, 6.46 10.92 C6.14 10.97, 5.82 11, 5.5 11 C5.18 11, 4.86 10.97, 4.54 10.92 C4.23 10.86, 3.92 10.78, 3.62 10.67 C3.32 10.56, 3.03 10.42, 2.75 10.26 C2.47 10.1, 2.21 9.92, 1.96 9.71 C1.72 9.51, 1.49 9.28, 1.29 9.04 C1.08 8.79, 0.9 8.53, 0.74 8.25 C0.58 7.97, 0.44 7.68, 0.33 7.38 C0.22 7.08, 0.14 6.77, 0.08 6.46 C0.03 6.14, 0 5.82, 0 5.5 C0 5.18, 0.03 4.86, 0.08 4.54 C0.14 4.23, 0.22 3.92, 0.33 3.62 C0.44 3.32, 0.58 3.03, 0.74 2.75 C0.9 2.47, 1.08 2.21, 1.29 1.96 C1.49 1.72, 1.72 1.49, 1.96 1.29 C2.21 1.08, 2.47 0.9, 2.75 0.74 C3.03 0.58, 3.32 0.44, 3.62 0.33 C3.92 0.22, 4.23 0.14, 4.54 0.08 C4.86 0.03, 5.18 0, 5.5 0 C5.82 0, 6.14 0.03, 6.46 0.08 C6.77 0.14, 7.08 0.22, 7.38 0.33 C7.68 0.44, 7.97 0.58, 8.25 0.74 C8.53 0.9, 8.79 1.08, 9.04 1.29 C9.28 1.49, 9.51 1.72, 9.71 1.96 C9.92 2.21, 10.1 2.47, 10.26 2.75 C10.42 3.03, 10.56 3.32, 10.67 3.62 C10.78 3.92, 10.86 4.23, 10.92 4.54 C10.97 4.86, 10.99 5.34, 11 5.5 C11.01 5.66, 11.01 5.34, 11 5.5" stroke="#000000" stroke-width="1" fill="none"></path></g></svg>