<svg version="1.1" xmlns="http://www.w3.org/2000/svg" viewBox="0 0 378.9999999999998 373" width="378.9999999999998" height="373">
  <!-- svg-source:excalidraw -->
  
  <defs>
    <style>
      @font-face {
        font-family: "Virgil";
        src: url("../Virgil.woff2");;
      }
      
    </style>
  </defs>
  <rect x="0" y="0" width="378.9999999999998" height="373" fill="#ffffff"></rect><g stroke-linecap="round"><g transform="translate(107.39613925200501 164.46587267321593) rotate(0 88.01237740140232 12.06886392281558)"><path d="M0 0 C-1.42 5.38, -11.39 22.43, -8.53 32.26 C-5.66 42.09, 5.72 54.88, 17.2 58.98 C28.68 63.07, 49.74 60.3, 60.34 56.83 C70.95 53.36, 77.22 47.42, 80.81 38.17 C84.39 28.93, 76.02 4.8, 81.85 1.36 C87.69 -2.08, 100.21 17.06, 115.83 17.53 C131.46 18, 164.42 11.26, 175.59 4.2 C186.76 -2.86, 186.42 -18.27, 182.86 -24.85 C179.29 -31.42, 168.43 -40.65, 154.21 -35.25 C140 -29.85, 107.01 0.43, 97.57 7.57 M0 0 C-1.42 5.38, -11.39 22.43, -8.53 32.26 C-5.66 42.09, 5.72 54.88, 17.2 58.98 C28.68 63.07, 49.74 60.3, 60.34 56.83 C70.95 53.36, 77.22 47.42, 80.81 38.17 C84.39 28.93, 76.02 4.8, 81.85 1.36 C87.69 -2.08, 100.21 17.06, 115.83 17.53 C131.46 18, 164.42 11.26, 175.59 4.2 C186.76 -2.86, 186.42 -18.27, 182.86 -24.85 C179.29 -31.42, 168.43 -40.65, 154.21 -35.25 C140 -29.85, 107.01 0.43, 97.57 7.57" stroke="#000000" stroke-width="4" fill="none"></path></g></g><g stroke-linecap="round" transform="translate(10 10) rotate(0 179.4999999999999 176.5)"><path d="M0 0 C105.38 0, 210.76 0, 359 0 M0 0 C108.85 0, 217.71 0, 359 0 M359 0 C359 128.1, 359 256.19, 359 353 M359 0 C359 138.18, 359 276.35, 359 353 M359 353 C261.89 353, 164.77 353, 0 353 M359 353 C240.15 353, 121.3 353, 0 353 M0 353 C0 277.07, 0 201.14, 0 0 M0 353 C0 269.11, 0 185.21, 0 0" stroke="#000000" stroke-width="1" fill="none"></path></g><g transform="translate(47.5 39) rotate(0 7.5 13.5)"><text x="7.5" y="20" font-family="Virgil, Segoe UI Emoji" font-size="20px" fill="#000000" text-anchor="middle" style="white-space: pre;" direction="ltr">ॹ</text></g><g transform="translate(329.49999999999886 42) rotate(0 6.5 12.5)"><text x="6.5" y="18" font-family="Virgil, Segoe UI Emoji" font-size="20px" fill="#000000" text-anchor="middle" style="white-space: pre;" direction="ltr">Ẓ</text></g><g transform="translate(300.9999999999991 301) rotate(0 23.999999999999886 13)"><text x="24" y="19" font-family="Virgil, Segoe UI Emoji" font-size="20px" fill="#000000" text-anchor="middle" style="white-space: pre;" direction="rtl">ضرب</text></g><g transform="translate(174.22222222222126 298.75) rotate(0 23 13)"><text x="23" y="19" font-family="Virgil, Segoe UI Emoji" font-size="20px" fill="#000000" text-anchor="middle" style="white-space: pre;" direction="rtl">قبضہ</text></g><g transform="translate(46.5 300.4981818181841) rotate(0 24 13)"><text x="24" y="19" font-family="Virgil, Segoe UI Emoji" font-size="20px" fill="#000000" text-anchor="middle" style="white-space: pre;" direction="rtl">حوض</text></g><g transform="translate(144.5 45.22728228569031) rotate(0 42.5 10.5)"><text x="42.5" y="15" font-family="Virgil, Segoe UI Emoji" font-size="16px" fill="#000000" text-anchor="middle" style="white-space: pre;" direction="ltr">Zwaad(ض)</text></g><g transform="translate(312.9476624727238 326.79078912734985) rotate(0 18 10)"><text x="36" y="14" font-family="Virgil, Segoe UI Emoji" font-size="16px" fill="#000000" text-anchor="end" style="white-space: pre;" direction="ltr">zarb</text></g><g transform="translate(177.947662472724 326.79078912734985) rotate(0 23.5 10)"><text x="47" y="14" font-family="Virgil, Segoe UI Emoji" font-size="16px" fill="#000000" text-anchor="end" style="white-space: pre;" direction="ltr">kabza</text></g><g transform="translate(50.947662472724915 326.79078912734985) rotate(0 19 10)"><text x="38" y="14" font-family="Virgil, Segoe UI Emoji" font-size="16px" fill="#000000" text-anchor="end" style="white-space: pre;" direction="ltr">hauz</text></g><g stroke-linecap="round" transform="translate(205.6666666666663 125.66427916951034) rotate(304.5524875944234 5.5 5.5)"><path d="M11 5.5 C11 5.82, 10.97 6.14, 10.92 6.46 C10.86 6.77, 10.78 7.08, 10.67 7.38 C10.56 7.68, 10.42 7.97, 10.26 8.25 C10.1 8.53, 9.92 8.79, 9.71 9.04 C9.51 9.28, 9.28 9.51, 9.04 9.71 C8.79 9.92, 8.53 10.1, 8.25 10.26 C7.97 10.42, 7.68 10.56, 7.38 10.67 C7.08 10.78, 6.77 10.86, 6.46 10.92 C6.14 10.97, 5.82 11, 5.5 11 C5.18 11, 4.86 10.97, 4.54 10.92 C4.23 10.86, 3.92 10.78, 3.62 10.67 C3.32 10.56, 3.03 10.42, 2.75 10.26 C2.47 10.1, 2.21 9.92, 1.96 9.71 C1.72 9.51, 1.49 9.28, 1.29 9.04 C1.08 8.79, 0.9 8.53, 0.74 8.25 C0.58 7.97, 0.44 7.68, 0.33 7.38 C0.22 7.08, 0.14 6.77, 0.08 6.46 C0.03 6.14, 0 5.82, 0 5.5 C0 5.18, 0.03 4.86, 0.08 4.54 C0.14 4.23, 0.22 3.92, 0.33 3.62 C0.44 3.32, 0.58 3.03, 0.74 2.75 C0.9 2.47, 1.08 2.21, 1.29 1.96 C1.49 1.72, 1.72 1.49, 1.96 1.29 C2.21 1.08, 2.47 0.9, 2.75 0.74 C3.03 0.58, 3.32 0.44, 3.62 0.33 C3.92 0.22, 4.23 0.14, 4.54 0.08 C4.86 0.03, 5.18 0, 5.5 0 C5.82 0, 6.14 0.03, 6.46 0.08 C6.77 0.14, 7.08 0.22, 7.38 0.33 C7.68 0.44, 7.97 0.58, 8.25 0.74 C8.53 0.9, 8.79 1.08, 9.04 1.29 C9.28 1.49, 9.51 1.72, 9.71 1.96 C9.92 2.21, 10.1 2.47, 10.26 2.75 C10.42 3.03, 10.56 3.32, 10.67 3.62 C10.78 3.92, 10.86 4.23, 10.92 4.54 C10.97 4.86, 10.99 5.34, 11 5.5 C11.01 5.66, 11.01 5.34, 11 5.5" stroke="none" stroke-width="0" fill="#fd7e14"></path><path d="M11 5.5 C11 5.82, 10.97 6.14, 10.92 6.46 C10.86 6.77, 10.78 7.08, 10.67 7.38 C10.56 7.68, 10.42 7.97, 10.26 8.25 C10.1 8.53, 9.92 8.79, 9.71 9.04 C9.51 9.28, 9.28 9.51, 9.04 9.71 C8.79 9.92, 8.53 10.1, 8.25 10.26 C7.97 10.42, 7.68 10.56, 7.38 10.67 C7.08 10.78, 6.77 10.86, 6.46 10.92 C6.14 10.97, 5.82 11, 5.5 11 C5.18 11, 4.86 10.97, 4.54 10.92 C4.23 10.86, 3.92 10.78, 3.62 10.67 C3.32 10.56, 3.03 10.42, 2.75 10.26 C2.47 10.1, 2.21 9.92, 1.96 9.71 C1.72 9.51, 1.49 9.28, 1.29 9.04 C1.08 8.79, 0.9 8.53, 0.74 8.25 C0.58 7.97, 0.44 7.68, 0.33 7.38 C0.22 7.08, 0.14 6.77, 0.08 6.46 C0.03 6.14, 0 5.82, 0 5.5 C0 5.18, 0.03 4.86, 0.08 4.54 C0.14 4.23, 0.22 3.92, 0.33 3.62 C0.44 3.32, 0.58 3.03, 0.74 2.75 C0.9 2.47, 1.08 2.21, 1.29 1.96 C1.49 1.72, 1.72 1.49, 1.96 1.29 C2.21 1.08, 2.47 0.9, 2.75 0.74 C3.03 0.58, 3.32 0.44, 3.62 0.33 C3.92 0.22, 4.23 0.14, 4.54 0.08 C4.86 0.03, 5.18 0, 5.5 0 C5.82 0, 6.14 0.03, 6.46 0.08 C6.77 0.14, 7.08 0.22, 7.38 0.33 C7.68 0.44, 7.97 0.58, 8.25 0.74 C8.53 0.9, 8.79 1.08, 9.04 1.29 C9.28 1.49, 9.51 1.72, 9.71 1.96 C9.92 2.21, 10.1 2.47, 10.26 2.75 C10.42 3.03, 10.56 3.32, 10.67 3.62 C10.78 3.92, 10.86 4.23, 10.92 4.54 C10.97 4.86, 10.99 5.34, 11 5.5 C11.01 5.66, 11.01 5.34, 11 5.5" stroke="#000000" stroke-width="1" fill="none"></path></g></svg>